<svg xmlns="http://www.w3.org/2000/svg" width="59.221" height="59.193" viewBox="0 0 59.221 59.193">
  <g id="Book" transform="translate(1 0.473)">
    <path id="Path_17228" data-name="Path 17228" d="M31.611,5.422a7.983,7.983,0,0,1-2.969-.571A22.508,22.508,0,0,0,21.12,3c-3.032,0-7.032,1.595-9.107,2.525A8.082,8.082,0,0,1,9.1,6.212C4.122,6.451,3,8.074,3,13.808V52.591c0,5.734,1.122,7.357,6.095,7.6a6.418,6.418,0,0,0,2.918-.621c2.076-.93,6.075-2.525,9.107-2.525a22.511,22.511,0,0,1,7.521,1.852,7.98,7.98,0,0,0,2.969.571Z" transform="translate(-3 -3)" opacity="0.1"/>
    <path id="Path_17229" data-name="Path 17229" d="M3,13.808c0-5.735,1.122-7.357,6.1-7.6a8.082,8.082,0,0,0,2.918-.687C14.088,4.595,18.088,3,21.12,3a22.508,22.508,0,0,1,7.521,1.852,8.012,8.012,0,0,0,5.939,0A22.507,22.507,0,0,1,42.1,3c3.032,0,7.032,1.595,9.107,2.525a8.081,8.081,0,0,0,2.918.687c4.973.239,6.1,1.862,6.1,7.6V52.591c0,5.734-1.122,7.357-6.1,7.6a6.419,6.419,0,0,1-2.918-.621c-2.076-.93-6.075-2.525-9.107-2.525a22.512,22.512,0,0,0-7.521,1.852,8.013,8.013,0,0,1-5.939,0,22.511,22.511,0,0,0-7.521-1.852c-3.032,0-7.032,1.595-9.107,2.525a6.418,6.418,0,0,1-2.918.621C4.122,59.948,3,58.326,3,52.591Z" transform="translate(-3 -2.472)" fill="none" stroke="#000" stroke-width="2"/>
    <path id="Path_17230" data-name="Path 17230" d="M12,4V54.863" transform="translate(16.611 -3.472)" fill="none" stroke="#000" stroke-linecap="round" stroke-linejoin="round" stroke-width="2"/>
  </g>
</svg>
