<svg xmlns="http://www.w3.org/2000/svg" width="22.957" height="22.274" viewBox="0 0 32.957 32.274">
  <path id="Chat" d="M26.718,15.183a1.648,1.648,0,0,0-1.648-1.648h-.016a1.648,1.648,0,1,0,0,3.3h.016A1.648,1.648,0,0,0,26.718,15.183Zm-6.591,0a1.648,1.648,0,0,0-1.648-1.648h-.016a1.648,1.648,0,1,0,0,3.3h.016A1.648,1.648,0,0,0,20.126,15.183Zm-8.239-1.648a1.648,1.648,0,1,1,0,3.3h-.016a1.648,1.648,0,1,1,0-3.3ZM26.826,2h-16.7A30.3,30.3,0,0,0,6.4,2.135,4.9,4.9,0,0,0,3.448,3.448,4.9,4.9,0,0,0,2.135,6.4,30.3,30.3,0,0,0,2,10.131v10.1a30.3,30.3,0,0,0,.135,3.727,4.9,4.9,0,0,0,1.313,2.955A4.9,4.9,0,0,0,6.4,28.23a30.3,30.3,0,0,0,3.727.135h5.052a.886.886,0,0,1,.521.169l7.264,5.283a2.361,2.361,0,0,0,3.75-1.91V28.366a28.822,28.822,0,0,0,3.836-.135,4.5,4.5,0,0,0,4.268-4.268,30.3,30.3,0,0,0,.135-3.727v-10.1A30.3,30.3,0,0,0,34.822,6.4a4.9,4.9,0,0,0-1.313-2.955,4.9,4.9,0,0,0-2.955-1.313A30.3,30.3,0,0,0,26.826,2Z" transform="translate(-2 -2)" fill="#5c4db1" fill-rule="evenodd"/>
</svg>
