<svg xmlns="http://www.w3.org/2000/svg" width="28.435" height="27.846" viewBox="0 0 28.435 27.846">
  <g id="chat-svgrepo-com" transform="translate(0 0)">
    <path id="Path_17234" data-name="Path 17234" d="M23.327,13.374A1.422,1.422,0,0,0,21.9,11.952h-.014a1.422,1.422,0,1,0,0,2.844H21.9A1.422,1.422,0,0,0,23.327,13.374Zm-5.687,0a1.422,1.422,0,0,0-1.422-1.422H16.2a1.422,1.422,0,1,0,0,2.844h.014A1.422,1.422,0,0,0,17.639,13.374Zm-7.109-1.422a1.422,1.422,0,1,1,0,2.844h-.014a1.422,1.422,0,1,1,0-2.844ZM23.42,2H9.015A26.144,26.144,0,0,0,5.8,2.117a4.224,4.224,0,0,0-2.55,1.132A4.225,4.225,0,0,0,2.117,5.8,26.143,26.143,0,0,0,2,9.015v8.718a26.143,26.143,0,0,0,.117,3.216A4.224,4.224,0,0,0,3.249,23.5,4.224,4.224,0,0,0,5.8,24.632a26.143,26.143,0,0,0,3.216.117h4.359a.765.765,0,0,1,.45.146l6.267,4.558a2.037,2.037,0,0,0,3.236-1.648V24.748a24.867,24.867,0,0,0,3.31-.117,3.884,3.884,0,0,0,3.682-3.683,26.144,26.144,0,0,0,.117-3.216V9.015A26.143,26.143,0,0,0,30.319,5.8a4.224,4.224,0,0,0-1.132-2.55,4.224,4.224,0,0,0-2.55-1.132A26.143,26.143,0,0,0,23.42,2Z" transform="translate(-2 -2)" fill="#5c4db1" fill-rule="evenodd"/>
  </g>
</svg>
