<svg xmlns="http://www.w3.org/2000/svg" width="24.314" height="24.243" viewBox="0 0 24.314 24.243">
  <path id="dark-mode-night-moon-svgrepo-com" d="M13.088,24.566A12.824,12.824,0,0,1,6.844.539,1.708,1.708,0,0,1,8.685.652a1.686,1.686,0,0,1,.706,1.7l-.049.085a11.05,11.05,0,0,0,7.2,12.475h0a11.163,11.163,0,0,0,5.977.374A1.722,1.722,0,0,1,24.4,17.735,12.828,12.828,0,0,1,13.088,24.566ZM7.606,2.134a11.062,11.062,0,1,0,15.178,14.9,13.047,13.047,0,0,1-6.809-.452A12.828,12.828,0,0,1,7.606,2.134Z" transform="translate(-0.261 -0.323)" fill="#5c4db1"/>
</svg>
