<svg xmlns="http://www.w3.org/2000/svg" width="57.645" height="53.802" viewBox="0 0 57.645 53.802">
  <path id="devices-svgrepo-com" d="M7.686,20.215a1.921,1.921,0,1,1-1.921-1.921A1.921,1.921,0,0,1,7.686,20.215Zm6.725,21.136a2.888,2.888,0,0,0-2.74,2.043l-5.1.851a.961.961,0,0,0-.8.949v5.764a.96.96,0,0,0,.8.949l5.1.851a2.891,2.891,0,0,0,2.74,2.043H22.1a2.888,2.888,0,0,0,2.74-2.043l5.1-.851a.961.961,0,0,0,.8-.949V45.194a.96.96,0,0,0-.8-.949l-5.1-.853a2.891,2.891,0,0,0-2.74-2.041Zm0,1.921H22.1a.938.938,0,0,1,.961.961v7.686a.938.938,0,0,1-.961.961H14.411a.938.938,0,0,1-.961-.961V44.233A.938.938,0,0,1,14.411,43.272Zm-2.882,2.1v5.411l-3.843-.638V46.009Zm13.45,0,3.843.638v4.135l-3.843.638ZM10.568,4.843a.961.961,0,0,0-.961.961V34.626a.961.961,0,0,0,.961.961H31.7a.961.961,0,0,0,0-1.921H11.529V6.764H46.116v8.647a.961.961,0,0,0,1.922,0V5.8a.961.961,0,0,0-.961-.961ZM2.882,1A2.9,2.9,0,0,0,0,3.882V36.547A2.9,2.9,0,0,0,2.882,39.43H31.7a.961.961,0,0,0,0-1.921H2.882a.938.938,0,0,1-.961-.961V3.882a.938.938,0,0,1,.961-.961H49a.938.938,0,0,1,.961.961V15.411a.961.961,0,1,0,1.921,0V3.882A2.9,2.9,0,0,0,49,1ZM43.234,22.136H49a.961.961,0,1,1,0,1.921H43.234a.961.961,0,1,1,0-1.921Zm-5.764-3.843a2.9,2.9,0,0,0-2.882,2.882V51.919A2.9,2.9,0,0,0,37.469,54.8H54.763a2.9,2.9,0,0,0,2.882-2.882V21.176a2.9,2.9,0,0,0-2.882-2.882Zm0,1.921H54.763a.938.938,0,0,1,.961.961V51.919a.938.938,0,0,1-.961.961H37.469a.937.937,0,0,1-.961-.961V21.176A.937.937,0,0,1,37.469,20.215Zm8.647,26.9a1.921,1.921,0,1,1-1.921,1.921A1.917,1.917,0,0,1,46.116,47.115Z" transform="translate(0 -1)"/>
</svg>
