<svg xmlns="http://www.w3.org/2000/svg" width="26.192" height="17.743" viewBox="0 0 26.192 17.743">
  <g id="Kuwait" transform="translate(0 -82.581)">
    <rect id="Rectangle_413" data-name="Rectangle 413" width="16.898" height="5.633" transform="translate(8.871 88.636)" fill="#fff"/>
    <path id="Path_17130" data-name="Path 17130" d="M43.711,90.839H21.987a1.8,1.8,0,0,0-1.169.428l7.806,5.2h16.9V92.651A1.812,1.812,0,0,0,43.711,90.839Z" transform="translate(-19.753 -7.836)" fill="#259245"/>
    <path id="Path_17131" data-name="Path 17131" d="M20.818,316.259a1.8,1.8,0,0,0,1.169.428H43.711a1.812,1.812,0,0,0,1.812-1.812v-3.821h-16.9Z" transform="translate(-19.753 -216.786)" fill="#ed1f34"/>
    <path id="Path_17132" data-name="Path 17132" d="M9.3,102.27l7.411,5.113v5.83L9.3,118.326a.667.667,0,0,1-1.038-.575V102.845A.667.667,0,0,1,9.3,102.27Z" transform="translate(-7.836 -18.845)" fill="#333"/>
    <path id="Path_17133" data-name="Path 17133" d="M23.958,82.581H2.234A2.224,2.224,0,0,0,.809,83.1a.407.407,0,0,0-.043.037A2.229,2.229,0,0,0,0,84.815V98.09a2.229,2.229,0,0,0,.773,1.688L.8,99.8a2.224,2.224,0,0,0,1.431.52H23.958a2.237,2.237,0,0,0,2.234-2.234V84.815A2.237,2.237,0,0,0,23.958,82.581Zm0,.845a1.391,1.391,0,0,1,1.389,1.389v9.031H9.294V89.059l16.17.009a.422.422,0,0,0,0-.845L9,88.214,1.885,83.471a1.388,1.388,0,0,1,.35-.045ZM1.125,98.925a1.382,1.382,0,0,1-.28-.836V84.815a1.382,1.382,0,0,1,.28-.836l7.324,4.883v5.181Zm22.832.554H2.234a1.388,1.388,0,0,1-.35-.045L9,94.691H25.347v3.4A1.391,1.391,0,0,1,23.958,99.479Z" transform="translate(0 0)" fill="#111a21" opacity="0"/>
  </g>
</svg>
