<svg xmlns="http://www.w3.org/2000/svg" width="21.784" height="27.586" viewBox="0 0 21.784 27.586">
  <path id="Path_6" data-name="Path 6" d="M74.809,20.369a2.818,2.818,0,0,1-.918-2.074l-.215-7.7a.539.539,0,1,0-1.078,0c.215,8.783.828-2.773-.954.285S75.632,9.1,75.632,6.9a3.985,3.985,0,0,0-6.666-2.95,9.136,9.136,0,0,0-2.554-.881,1.994,1.994,0,1,0-3.36,0,9.174,9.174,0,0,0-7.479,9V18.3a2.818,2.818,0,0,1-.918,2.074,2.478,2.478,0,0,0,1.672,4.308h5a3.448,3.448,0,0,0,6.812,0h5a2.478,2.478,0,0,0,1.672-4.308ZM71.644,3.987A2.909,2.909,0,1,1,68.735,6.9,2.913,2.913,0,0,1,71.644,3.987ZM64.732,1.078a.916.916,0,1,1-.916.916A.917.917,0,0,1,64.732,1.078Zm0,25.431a2.374,2.374,0,0,1-2.308-1.832H67.04A2.374,2.374,0,0,1,64.732,26.509Z" transform="translate(-53.848 0)" fill="#5c4db1"/>
</svg>
