<svg xmlns="http://www.w3.org/2000/svg" width="59.949" height="67.475" viewBox="0 0 59.949 67.475">
  <path id="real-estate-svgrepo-com" d="M182.215,112.862H149.889l14.776-15.524,10.919,11.724a1.886,1.886,0,0,0,2.766-2.563L166.065,93.3a1.885,1.885,0,0,0-1.375-.6,2.1,2.1,0,0,0-1.383.586l-19.186,20.162a1.882,1.882,0,0,0-.521,1.3v43.513a1.889,1.889,0,0,0,1.888,1.888h36.728a1.889,1.889,0,0,0,1.888-1.888V114.749A1.884,1.884,0,0,0,182.215,112.862Zm-1.888,43.513H147.375V116.629h32.953Zm21.342-35.8H188.83a1.888,1.888,0,1,0,0,3.775h10.943V156.4H188.83a1.888,1.888,0,0,0,0,3.775h12.831a1.889,1.889,0,0,0,1.888-1.888V122.455A1.87,1.87,0,0,0,201.67,120.575ZM174.087,122.3h-6.411v6.4h6.411Zm-14.051,0h-6.412v6.4h6.412Zm14.051,11.326h-6.411v6.4h6.411Zm-14.051,0h-6.412v6.4h6.412Zm14.051,11.318h-6.411v6.4h6.411Zm-14.051,0h-6.412v6.4h6.412Z" transform="translate(-143.6 -92.7)"/>
</svg>
