<svg xmlns="http://www.w3.org/2000/svg" width="38.864" height="66.342" viewBox="0 0 38.864 66.342">
  <path id="sport-medal-svgrepo-com" d="M128.969,31.81c.722,2.819,1.43,5.59,2.153,8.328a61.434,61.434,0,0,0,19.62,0c.722-2.738,1.43-5.509,2.153-8.328A30.468,30.468,0,0,1,128.969,31.81Zm-2.5.663-4.97,6.639a213.263,213.263,0,0,0,11.2,43.769,10.851,10.851,0,0,1,6.039-3.569C134.647,63.232,130.559,48.64,126.47,32.473Zm28.924,0c-4.089,16.167-8.177,30.759-12.266,46.839a10.851,10.851,0,0,1,6.039,3.569,213.263,213.263,0,0,0,11.2-43.769ZM140.932,81.682a8.235,8.235,0,1,0,8.235,8.235A8.213,8.213,0,0,0,140.932,81.682Z" transform="translate(-121.5 -31.81)"/>
</svg>
