<svg xmlns="http://www.w3.org/2000/svg" width="90.072" height="123.276" viewBox="0 0 136.072 169.276">
  <g id="StyleIMg" transform="translate(-19.219)">
    <path id="Intersection_6" data-name="Intersection 6" d="M29.265,153.684A77.133,77.133,0,0,1,1.52,142q-.766-.518-1.52-1.054l3.2-4.633q.728.519,1.468,1.019A71.963,71.963,0,0,0,115.406,92.141a72.717,72.717,0,0,0,0-29.021,71.63,71.63,0,0,0-10.829-25.747A72.177,72.177,0,0,0,72.915,11.287a71.536,71.536,0,0,0-13.509-4.2A72.444,72.444,0,0,0,44.9,5.628q-1.839,0-3.674.093c-.05-1.9-.092-3.782-.127-5.629Q43,0,44.9,0A78.132,78.132,0,0,1,60.54,1.577,77.132,77.132,0,0,1,88.285,13.258,77.857,77.857,0,0,1,116.4,47.413a77.252,77.252,0,0,1,4.521,14.572,78.427,78.427,0,0,1,0,31.291,77.223,77.223,0,0,1-11.675,27.758A77.828,77.828,0,0,1,75.1,149.161a77.143,77.143,0,0,1-14.565,4.523,78.311,78.311,0,0,1-31.275,0Z" transform="translate(19.219)" fill="#5c4db1"/>
    <ellipse id="Ellipse_480" data-name="Ellipse 480" cx="6.296" cy="6.296" rx="6.296" ry="6.296" transform="translate(142.7 16.083)" fill="#5c4db1"/>
    <ellipse id="Ellipse_482" data-name="Ellipse 482" cx="7.345" cy="7.345" rx="7.345" ry="7.345" transform="translate(109.124 154.586)" fill="#5c4db1"/>
  </g>
</svg>
