<svg xmlns="http://www.w3.org/2000/svg" xmlns:xlink="http://www.w3.org/1999/xlink" width="196" height="59.187" viewBox="0 0 196 59.187">
  <defs>
    <clipPath id="clip-path">
      <path id="Path_7681" data-name="Path 7681" d="M61.106,167.936c-4.746,4.086-5.055,7.345-5.957,8.656L46.1,176.6a28.705,28.705,0,0,0,49.213,25.768,25.76,25.76,0,0,0,2.962-3.865,20.916,20.916,0,0,0,2.323-4.658l-4.669.011c-2.577,5.935-9.283,11.254-15.6,12.8a27.7,27.7,0,0,1-8.667.7c-.341-.022-.606-.055-.914-.1-.073-.008-.261-.034-.384-.055l-1.457-.238h0a28.971,28.971,0,0,1-7.409-2.988,24.472,24.472,0,0,1-10.4-12.752c-.837-2.335-1.883-7.389-1.255-10.3l8.369-.022c.617-.1.386-.859.914-2.522a14.826,14.826,0,0,1,.925-2.268,15.666,15.666,0,0,1,24.92-4.284c.121.132.848.815,1.266,1.321,1.685,2.037,5.209.1,3.634-2.257a15.505,15.505,0,0,0-2.29-2.478,20.325,20.325,0,0,0-13.595-5.292,19.667,19.667,0,0,0-12.878,4.807" transform="translate(-45.391 -163.129)" fill="none"/>
    </clipPath>
    <linearGradient id="linear-gradient" x1="-4.24" y1="3.45" x2="-4.237" y2="3.45" gradientUnits="objectBoundingBox">
      <stop offset="0" stop-color="#1488cc"/>
      <stop offset="1" stop-color="#2b32b2"/>
    </linearGradient>
    <clipPath id="clip-path-2">
      <path id="Path_7682" data-name="Path 7682" d="M60.819,120.216a26.755,26.755,0,0,0-3.009,3.927,21.336,21.336,0,0,0-2.36,4.743l4.743-.022c2.618-6.03,9.431-11.433,15.852-12.988a28.134,28.134,0,0,1,8.8-.727l.171.012c.2.016.371.036.551.06l3,.535a33.011,33.011,0,0,1,6.6,2.838,24.793,24.793,0,0,1,10.56,12.943c.85,2.383,1.913,7.518,1.275,10.46l-8.5.022c-.626.112-.392.873-.929,2.562a15.06,15.06,0,0,1-.94,2.3,15.915,15.915,0,0,1-25.316,4.352,18.292,18.292,0,0,1-1.287-1.343c-.031-.037-.062-.072-.093-.106l1.976-1.6a1.691,1.691,0,1,0-2.125-2.632l-7.165,5.785a1.691,1.691,0,0,0,2.125,2.632l1.821-1.471a17.393,17.393,0,0,0,2.1,2.2,20.194,20.194,0,0,0,26.893.492c4.821-4.15,5.135-7.462,6.052-8.793l9.2-.011a29.158,29.158,0,0,0-49.994-26.177" transform="translate(-55.449 -110.659)" fill="none"/>
    </clipPath>
    <linearGradient id="linear-gradient-2" x1="-4.228" y1="3.8" x2="-4.226" y2="3.8" xlink:href="#linear-gradient"/>
  </defs>
  <g id="Group_1532" data-name="Group 1532" transform="translate(-45.391 -87.594)">
    <g id="Group_1526" data-name="Group 1526" transform="translate(114.06 89.594)">
      <text id="OCEAN" transform="translate(-0.669 43)" fill="#1a1a1a" font-size="35" font-family="MadaniArabic-SemiBold, MadaniArabic" font-weight="600"><tspan x="0" y="0">OCEAN</tspan></text>
      <text id="Develop_iT_Services" data-name="Develop iT Services" transform="translate(-0.669 54)" fill="#1a1a1a" font-size="7" font-family="Corbel-Bold, Corbel" font-weight="700"><tspan x="0" y="0" letter-spacing="0.553em">D</tspan><tspan y="0" letter-spacing="0.548em">e</tspan><tspan y="0" letter-spacing="0.552em">v</tspan><tspan y="0" letter-spacing="0.553em">e</tspan><tspan y="0" letter-spacing="0.552em">l</tspan><tspan y="0" letter-spacing="0.553em">op</tspan><tspan y="0" letter-spacing="0.552em"> </tspan><tspan y="0" letter-spacing="0.553em">i</tspan><tspan y="0" letter-spacing="0.552em">T</tspan><tspan y="0" letter-spacing="0.528em"> </tspan><tspan y="0" letter-spacing="0.552em">S</tspan><tspan y="0" letter-spacing="0.553em">er</tspan><tspan y="0" letter-spacing="0.552em">v</tspan><tspan y="0" letter-spacing="0.553em">ice</tspan><tspan y="0">s</tspan></text>
    </g>
    <g id="Group_1531" data-name="Group 1531" transform="translate(45.391 87.594)">
      <g id="Group_1528" data-name="Group 1528" transform="translate(0 10.533)">
        <g id="Group_1527" data-name="Group 1527" clip-path="url(#clip-path)">
          <rect id="Rectangle_12" data-name="Rectangle 12" width="56.326" height="53.382" transform="translate(-1.122 0)" fill="url(#linear-gradient)"/>
        </g>
      </g>
      <g id="Group_1530" data-name="Group 1530" transform="translate(2.019)">
        <g id="Group_1529" data-name="Group 1529" clip-path="url(#clip-path-2)">
          <path id="Path_7683" data-name="Path 7683" d="M0,0H57.221V51.228H0Z" transform="translate(0 -0.001)" fill="url(#linear-gradient-2)"/>
        </g>
      </g>
    </g>
  </g>
</svg>
