<svg height="461pt" viewBox="0 -5 461.08968 461" width="461pt" xmlns="http://www.w3.org/2000/svg"><path d="m422.652344 22.519531c-1.945313 23.128907-26.046875 26.777344-26.046875 26.777344 20.691406.972656 25.847656 28.117187 25.847656 28.117187.441406-19.351562 26.644531-28.402343 26.644531-28.402343-19.628906-1.175781-26.445312-26.492188-26.445312-26.492188zm0 0" fill="#d7e057"/><path d="m449.277344 46.015625c-17.210938-1.027344-23.664063-24.046875-23.726563-24.28125-.382812-1.402344-1.703125-2.316406-3.167969-2.203125-1.449218.132812-2.597656 1.285156-2.71875 2.734375-1.71875 20.429687-22.625 23.929687-23.507812 24.066406-1.527344.230469-2.625 1.582031-2.546875 3.121094.082031 1.542969 1.316406 2.769531 2.855469 2.84375 18.058594.851563 23 25.4375 23.046875 25.683594.273437 1.421875 1.515625 2.433593 2.941406 2.433593.085937 0 .167969 0 .253906-.007812 1.527344-.128906 2.714844-1.386719 2.746094-2.917969.390625-17.019531 24.386719-25.554687 24.625-25.640625 1.351563-.46875 2.1875-1.828125 1.988281-3.246094-.195312-1.417968-1.359375-2.5-2.789062-2.585937zm-27.132813 20.691406c-2.710937-6.257812-7.417969-13.8125-15.175781-17.75 5.863281-2.808593 12.820312-7.828125 16.40625-16.542969 3.101562 6.140626 8.398438 13.757813 16.667969 17.441407-6.015625 3.28125-13.84375 8.8125-17.898438 16.851562zm0 0" fill="#3a312a"/><path d="m379.257812 56.480469c-1.378906 16.355469-18.425781 18.941406-18.425781 18.941406 14.636719.6875 18.285157 19.886719 18.285157 19.886719.3125-13.6875 18.84375-20.089844 18.84375-20.089844-13.882813-.832031-18.703126-18.738281-18.703126-18.738281zm0 0" fill="#d7e057"/><path d="m398.140625 72.222656c-11.53125-.691406-15.945313-16.371094-15.988281-16.53125-.378906-1.402344-1.707032-2.335937-3.164063-2.203125-1.453125.128907-2.597656 1.285157-2.71875 2.738281-1.160156 13.742188-15.292969 16.132813-15.886719 16.226563-1.523437.230469-2.625 1.578125-2.542968 3.121094.078125 1.539062 1.3125 2.769531 2.855468 2.84375 12.070313.566406 15.445313 17.285156 15.476563 17.449219.269531 1.425781 1.519531 2.441406 2.945313 2.441406.082031 0 .167968 0 .25-.007813 1.527343-.128906 2.714843-1.386719 2.75-2.925781.261718-11.417969 16.664062-17.265625 16.828124-17.320312 1.351563-.46875 2.1875-1.828126 1.992188-3.246094-.199219-1.414063-1.371094-2.5-2.796875-2.585938zm-19.171875 13.59375c-1.847656-3.773437-4.679688-7.898437-8.894531-10.5625 3.710937-2.082031 7.394531-5.257812 9.742187-9.832031 2.117188 3.746094 5.308594 7.910156 9.882813 10.449219-3.699219 2.199218-7.976563 5.476562-10.730469 9.945312zm0 0" fill="#3a312a"/><path d="m379.257812 3.164062c-1.378906 16.359376-18.425781 18.941407-18.425781 18.941407 14.636719.6875 18.285157 19.890625 18.285157 19.890625.3125-13.691406 18.84375-20.089844 18.84375-20.089844-13.882813-.832031-18.703126-18.742188-18.703126-18.742188zm0 0" fill="#d7e057"/><path d="m398.140625 18.910156c-11.488281-.6875-15.914063-16.253906-15.988281-16.527344-.378906-1.40625-1.714844-2.3281245-3.167969-2.207031-1.449219.132813-2.597656 1.285157-2.71875 2.738281-1.15625 13.742188-15.292969 16.128907-15.882813 16.226563-1.527343.226563-2.625 1.578125-2.546874 3.117187.078124 1.542969 1.3125 2.769532 2.855468 2.84375 12.070313.566407 15.445313 17.289063 15.476563 17.453126.269531 1.425781 1.519531 2.4375 2.945312 2.4375.082031 0 .164063 0 .25-.007813 1.527344-.128906 2.714844-1.386719 2.75-2.921875.261719-11.417969 16.664063-17.269531 16.828125-17.324219 1.351563-.46875 2.1875-1.828125 1.992188-3.246093-.195313-1.414063-1.367188-2.496094-2.792969-2.582032zm-19.171875 13.589844c-1.847656-3.773438-4.679688-7.894531-8.894531-10.5625 3.710937-2.082031 7.394531-5.257812 9.742187-9.832031 2.117188 3.746093 5.308594 7.90625 9.882813 10.449219-3.699219 2.199218-7.976563 5.480468-10.730469 9.945312zm0 0" fill="#3a312a"/><path d="m419.226562 140.445312c-25.160156-25.800781-60.519531-34.140624-93.980468-23.902343 1.621094 3.183593 2 6.800781 1.160156 10.160156 30.441406-9.976563 62.800781-2.699219 85.660156 20.722656 44.417969 45.5 48.679688 130.679688 9.121094 182.238281-22.0625 28.78125-57 44.902344-82.421875 53.359376-50.980469 16.960937-110.199219 18.5625-162.5 4.402343-91.21875-24.699219-151.800781-97.441406-154.320313-185.320312-.4375-14.5-.320312-32.761719-.160156-52.261719-1.339844.402344-2.738281.621094-4.199218.621094-2.058594 0-4.019532-.421875-5.800782-1.199219-.160156 19.800781-.277344 38.320313.160156 53.121094 1.261719 43.757812 16.5 85.117187 44.082032 119.597656 28.878906 36.101563 69.539062 62.082031 117.636718 75.101563 24.441407 6.617187 50.363282 9.917968 76.300782 9.917968 31.5 0 63.019531-4.859375 91.960937-14.5 26.761719-8.898437 63.601563-25.960937 87.199219-56.738281 42.359375-55.242187 37.722656-146.519531-9.898438-195.320313zm0 0" fill="#87796f"/><path d="m421.375 138.351562c-25.566406-26.214843-61.832031-35.4375-97.007812-24.675781-.847657.261719-1.535157.882813-1.882813 1.699219s-.3125 1.742188.085937 2.535156c1.273438 2.496094 1.601563 5.359375.921876 8.070313-.261719 1.058593.066406 2.179687.867187 2.921875.800781.746094 1.945313.996094 2.980469.65625 29.925781-9.8125 60.796875-2.351563 82.578125 19.960937 43.460937 44.519531 47.613281 127.84375 8.886719 178.320313-21.589844 28.164062-55.957032 44.007812-80.988282 52.339844-50.421875 16.773437-109.019531 18.359374-160.765625 4.347656-89.917969-24.347656-149.625-95.988282-152.105469-182.511719-.429687-14.074219-.332031-31.207031-.160156-52.148437.007813-.949219-.433594-1.847657-1.195312-2.421876-.761719-.570312-1.746094-.75-2.660156-.472656-2.6875.800782-5.507813.613282-7.9375-.453125-.925782-.40625-1.988282-.320312-2.835938.230469-.847656.546875-1.363281 1.484375-1.371094 2.492188-.171875 21.316406-.269531 38.769531.160156 53.230468 1.28125 44.425782 16.75 86.398438 44.738282 121.386719 29.292968 36.625 70.511718 62.945313 119.195312 76.125 24.558594 6.652344 50.492188 10.023437 77.085938 10.023437 32 0 64.128906-5.070312 92.90625-14.65625 27.15625-9.027343 64.578125-26.378906 88.636718-57.761718 43.199219-56.335938 38.464844-149.4375-10.132812-199.238282zm5.371094 195.585938c-23.132813 30.171875-59.40625 46.957031-85.769532 55.71875-28.175781 9.386719-59.648437 14.347656-91.011718 14.347656-26.0625 0-51.46875-3.304687-75.515625-9.816406-47.445313-12.84375-87.585938-38.460938-116.082031-74.082031-27.164063-33.960938-42.179688-74.699219-43.421876-117.8125-.402343-13.460938-.339843-29.589844-.191406-49.054688 1.304688.207031 2.65625.273438 4.003906.183594-.152343 19.378906-.21875 35.414063.1875 48.765625 2.5625 89.230469 64.003907 163.074219 156.535157 188.128906 52.855469 14.3125 112.71875 12.6875 164.234375-4.449218 25.828125-8.59375 61.339844-25.007813 83.851562-54.378907 40.410156-52.667969 36.042969-139.660156-9.355468-186.160156-22.355469-22.90625-53.613282-31.261719-84.382813-22.789063-.050781-1.355468-.257813-2.703124-.617187-4.019531 32.007812-8.648437 64.648437.207031 87.867187 24.015625 46.664063 47.824219 51.183594 137.265625 9.667969 191.402344zm0 0" fill="#3a312a"/><path d="m323.546875 113.945312c-5.101563-6.242187-14.300781-7.160156-20.539063-2.058593-3.582031 2.917969-5.402343 7.21875-5.34375 11.5-4.199218-.902344-8.757812.019531-12.359374 2.957031-3.578126 2.921875-5.398438 7.199219-5.339844 11.5-4.199219-.898438-8.757813.019531-12.359375 2.960938-3.558594 2.898437-5.378907 7.140624-5.359375 11.398437l-11.601563 11.683594c2.382813 4.078125 3.742188 8.839843 3.742188 13.898437 0 .660156-.019531 1.320313-.082031 1.980469l19.621093-13.359375c4.140625.839844 8.621094-.121094 12.140625-3 3.597656-2.941406 5.417969-7.222656 5.359375-11.519531 4.199219.917969 8.761719 0 12.339844-2.941407 3.601563-2.941406 5.421875-7.21875 5.359375-11.519531 4.199219.917969 8.761719 0 12.359375-2.941406 6.242187-5.097656 7.160156-14.300781 2.0625-20.539063zm0 0" fill="#fce8cb"/><path d="m325.871094 112.046875c-6.140625-7.511719-17.25-8.625-24.761719-2.484375-3.289063 2.679688-5.445313 6.390625-6.171875 10.496094-4.140625-.117188-8.238281 1.28125-11.527344 3.960937-3.289062 2.683594-5.445312 6.394531-6.171875 10.496094-4.179687-.089844-8.242187 1.285156-11.527343 3.964844-3.800782 3.09375-6.097657 7.578125-6.425782 12.449219l-10.765625 10.839843c-.960937.964844-1.148437 2.453125-.464843 3.628907 2.179687 3.734374 3.332031 8.019531 3.332031 12.386718 0 .570313-.015625 1.140625-.066407 1.710938-.105468 1.15625.46875 2.265625 1.46875 2.855468.46875.273438.996094.414063 1.519532.414063.589844 0 1.179687-.175781 1.6875-.519531l18.628906-12.6875c4.777344.617187 9.582031-.753906 13.339844-3.828125 3.292968-2.695313 5.457031-6.40625 6.1875-10.503907 4.167968.121094 8.234375-1.265624 11.511718-3.957031 3.292969-2.691406 5.457032-6.40625 6.1875-10.503906 4.148438.125 8.238282-1.265625 11.53125-3.957031 3.640626-2.976563 5.902344-7.191406 6.371094-11.867188.46875-4.675781-.910156-9.257812-3.882812-12.894531zm-2.085938 12.296875c-.3125 3.082031-1.800781 5.859375-4.195312 7.816406-2.753906 2.25-6.328125 3.097656-9.820313 2.335938-.894531-.195313-1.832031.027344-2.539062.605468-.710938.578126-1.117188 1.449219-1.105469 2.367188.050781 3.566406-1.5 6.902344-4.261719 9.15625-2.734375 2.246094-6.300781 3.09375-9.796875 2.328125-.890625-.195313-1.828125.03125-2.535156.609375-.710938.578125-1.117188 1.449219-1.105469 2.363281.050781 3.570313-1.5 6.90625-4.261719 9.15625-2.699218 2.210938-6.214843 3.078125-9.640624 2.382813-.796876-.15625-1.617188.003906-2.289063.460937l-15.058594 10.253907c-.402343-3.390626-1.363281-6.6875-2.84375-9.75l10.042969-10.109376c.5625-.566406.875-1.332031.871094-2.128906-.015625-3.542968 1.535156-6.84375 4.257812-9.0625 2.75-2.242187 6.332032-3.097656 9.835938-2.351562.890625.195312 1.824218-.03125 2.53125-.613282.703125-.578124 1.109375-1.445312 1.097656-2.359374-.050781-3.570313 1.492188-6.898438 4.238281-9.136719 2.746094-2.242188 6.328125-3.101563 9.832031-2.347657.898438.191407 1.824219-.035156 2.53125-.617187.707032-.578125 1.113282-1.449219 1.101563-2.359375-.050781-3.570312 1.492187-6.898438 4.234375-9.136719 4.953125-4.046875 12.277344-3.3125 16.320312 1.636719 1.957032 2.398438 2.867188 5.414062 2.558594 8.5zm0 0" fill="#3a312a"/><path d="m197.347656 162.226562c.597656-4.601562-1.320312-9.363281-5.402344-12.183593-5.820312-4.019531-13.800781-2.558594-17.839843 3.261719-4.019531 5.820312-2.558594 13.800781 3.261719 17.820312 4.078124 2.820312 9.199218 2.941406 13.296874.761719l8.242188 5.699219c.039062-4.402344 1.078125-8.5625 2.941406-12.242188zm0 0" fill="#fce8cb"/><path d="m203.554688 162.878906-3.097657-2.148437c.0625-5.222657-2.441406-10.140625-6.804687-13.15625-7.164063-4.949219-17.039063-3.144531-22.015625 4.023437-2.398438 3.476563-3.300781 7.675782-2.539063 11.832032.757813 4.15625 3.089844 7.761718 6.5625 10.164062 4.355469 3.007812 9.835938 3.617188 14.699219 1.726562l6.839844 4.734376c.511719.351562 1.109375.53125 1.707031.53125.472656 0 .949219-.109376 1.382812-.335938.984376-.507812 1.609376-1.523438 1.617188-2.636719.039062-3.875.917969-7.542969 2.621094-10.914062.671875-1.335938.257812-2.964844-.972656-3.820313zm-7.148438 9.328125-4.035156-2.789062c-.511719-.351563-1.105469-.53125-1.707032-.53125-.480468 0-.964843.113281-1.40625.351562-3.261718 1.730469-7.164062 1.511719-10.1875-.582031-2.15625-1.488281-3.601562-3.726562-4.074218-6.304688-.46875-2.578124.089844-5.1875 1.574218-7.335937 3.089844-4.453125 9.226563-5.574219 13.667969-2.5 3.027344 2.089844 4.609375 5.664063 4.132813 9.324219-.144532 1.109375.34375 2.214844 1.265625 2.851562l2.449219 1.699219c-.757813 1.875-1.3125 3.820313-1.679688 5.816406zm0 0" fill="#3a312a"/><path d="m305.449219 425.949219h-163.355469c-6.347656 0-11.488281 5.144531-11.488281 11.488281s5.140625 11.488281 11.488281 11.488281h163.355469c6.34375 0 11.488281-5.144531 11.488281-11.488281s-5.144531-11.488281-11.488281-11.488281zm0 0" fill="#87796f"/><path d="m305.449219 422.949219h-163.355469c-7.992188 0-14.488281 6.5-14.488281 14.488281s6.5 14.488281 14.488281 14.488281h163.355469c7.988281 0 14.488281-6.5 14.488281-14.488281 0-7.992188-6.5-14.488281-14.488281-14.488281zm0 22.976562h-163.355469c-4.683594 0-8.488281-3.808593-8.488281-8.492187 0-4.679688 3.804687-8.488282 8.488281-8.488282h163.355469c4.679687 0 8.488281 3.808594 8.488281 8.488282 0 4.679687-3.808594 8.492187-8.488281 8.492187zm0 0" fill="#3a312a"/><path d="m250.539062 31.089844h-47.785156c-6.238281 0-11.292968 5.054687-11.292968 11.289062s5.054687 11.289063 11.292968 11.289063h47.785156c6.238282 0 11.289063-5.054688 11.289063-11.289063s-5.054687-11.289062-11.289063-11.289062zm0 0" fill="#8ac6dd"/><path d="m250.539062 28.089844h-47.785156c-7.882812 0-14.292968 6.410156-14.292968 14.289062s6.410156 14.289063 14.292968 14.289063h47.785156c7.882813 0 14.289063-6.410157 14.289063-14.289063s-6.40625-14.289062-14.289063-14.289062zm0 22.578125h-47.785156c-4.574218 0-8.292968-3.71875-8.292968-8.289063 0-4.570312 3.71875-8.289062 8.292968-8.289062h47.785156c4.574219 0 8.289063 3.71875 8.289063 8.289062 0 4.570313-3.71875 8.289063-8.289063 8.289063zm0 0" fill="#3a312a"/><path d="m191.914062 3.042969 11.316407 28.046875h47.011719l11.144531-28.046875zm0 0" fill="#8ac6dd"/><path d="m263.867188 1.359375c-.558594-.824219-1.488282-1.3164062-2.480469-1.3164062h-69.472657c-.996093 0-1.929687.4960932-2.484374 1.3242192-.558594.824218-.667969 1.875-.296876 2.800781l11.316407 28.039062c.457031 1.136719 1.558593 1.878907 2.78125 1.878907h47.011719c1.230468 0 2.335937-.75 2.789062-1.890626l11.144531-28.042968c.363281-.921875.25-1.96875-.308593-2.792969zm-15.660157 26.730469h-42.949219l-8.898437-22.046875h60.605469zm0 0" fill="#3a312a"/><path d="m144.222656 53.667969 18.09375 19.144531c6.054688 6.398438 14.476563 10.027344 23.285156 10.027344h82.371094c8.894532 0 17.390625-3.699219 23.453125-10.210938l17.644531-18.960937zm0 0" fill="#fce8cb"/><path d="m311.820312 52.472656c-.476562-1.097656-1.558593-1.804687-2.753906-1.804687h-123.984375c-1.65625 0-3 1.34375-3 3 0 1.660156 1.34375 3 3 3h117.097657l-12.953126 13.917969c-5.472656 5.882812-13.222656 9.253906-21.257812 9.253906h-82.367188c-7.953124 0-15.644531-3.3125-21.105468-9.089844l-13.308594-14.082031h7.019531c1.660157 0 3-1.339844 3-3 0-1.65625-1.339843-3-3-3h-13.984375c-1.199218 0-2.28125.714843-2.753906 1.816406-.476562 1.097656-.25 2.375.574219 3.246094l18.09375 19.140625c6.589843 6.972656 15.871093 10.972656 25.464843 10.972656h82.367188c9.695312 0 19.042969-4.070312 25.652344-11.167969l17.644531-18.960937c.8125-.875 1.03125-2.148438.554687-3.242188zm0 0" fill="#3a312a"/><path d="m244.925781 156.925781h-36.558593c-5.800782 5.078125-9.460938 12.539063-9.460938 20.859375 0 7.21875 2.738281 13.78125 7.257812 18.71875h40.960938c4.519531-4.9375 7.261719-11.5 7.261719-18.71875 0-8.320312-3.660157-15.78125-9.460938-20.859375zm0 0" fill="#fce8cb"/><path d="m246.902344 154.667969c-.546875-.480469-1.25-.742188-1.976563-.742188h-36.558593c-.730469 0-1.429688.261719-1.976563.742188-6.664063 5.835937-10.484375 14.261719-10.484375 23.117187 0 7.707032 2.859375 15.074219 8.046875 20.746094.566406.625 1.371094.976562 2.210937.976562h40.960938c.84375 0 1.648438-.355468 2.214844-.976562 5.1875-5.671875 8.046875-13.039062 8.046875-20.746094 0-8.855468-3.820313-17.28125-10.484375-23.117187zm-1.140625 38.835937h-38.226563c-3.640625-4.414062-5.628906-9.949218-5.628906-15.71875 0-6.757812 2.769531-13.207031 7.628906-17.859375h34.230469c4.859375 4.652344 7.625 11.101563 7.625 17.859375-.003906 5.769532-1.992187 11.304688-5.628906 15.71875zm0 0" fill="#3a312a"/><path d="m293.863281 332.632812h-.101562c.546875-3.476562.84375-7.039062.84375-10.675781 0-28.4375-17.476563-52.78125-42.265625-62.914062v-39.957031h-51.386719v39.957031c-24.789063 10.136719-42.261719 34.480469-42.261719 62.917969 0 3.632812.289063 7.195312.839844 10.675781h-.136719c-19.054687 10.960937-30.8125 26.527343-30.371093 43.761719.539062 20.90625 19.316406 39.296874 47.078124 49.550781h101.269532c28.121094-10.371094 46.914062-29.097657 46.914062-50.492188-.003906-16.867187-11.699218-32.058593-30.421875-42.824219zm0 0" fill="#8ac6dd"/><path d="m297.023438 331.011719c.382812-3.011719.582031-6.046875.582031-9.050781 0-28.273438-16.523438-53.527344-42.265625-64.902344v-37.972656c0-1.65625-1.34375-3-3-3h-51.386719c-1.65625 0-3 1.34375-3 3v6.808593c0 1.660157 1.34375 3 3 3 1.660156 0 3-1.339843 3-3v-3.808593h45.386719v36.957031c0 1.21875.738281 2.316406 1.863281 2.78125 24.542969 10.03125 40.402344 33.636719 40.402344 60.136719 0 3.390624-.269531 6.824218-.804688 10.207031-.136719.867187.164063 1.75.734375 2.417969.285156.332031.648438.59375 1.050782.773437 18.507812 10.707031 28.695312 24.9375 28.695312 40.097656 0 19.0625-17.019531 37.230469-44.453125 47.492188h-100.1875c-27.058594-10.132813-44.136719-27.96875-44.617187-46.628907-.390626-15.210937 9.960937-30.070312 28.425781-40.828124.523437-.167969.996093-.480469 1.359375-.90625.570312-.667969.820312-1.550782.683594-2.417969-.535157-3.382813-.804688-6.816407-.804688-10.207031 0-26.5 15.859375-50.105469 40.402344-60.136719 1.125-.464844 1.863281-1.558594 1.863281-2.78125v-5.347657c0-1.660156-1.339844-3-3-3-1.65625 0-3 1.339844-3 3v3.367188c-25.742187 11.375-42.261719 36.628906-42.261719 64.898438 0 3 .191406 6.03125.578125 9.035156-19.683593 11.851562-30.683593 28.347656-30.242187 45.480468.554687 21.605469 18.886718 41.152344 49.035156 52.289063.332031.125.683594.1875 1.042969.1875h101.265625c.355468 0 .707031-.0625 1.039062-.1875 30.605469-11.289063 48.878906-31.214844 48.878906-53.304687-.007812-16.984376-10.734374-32.710938-30.265624-44.449219zm0 0" fill="#3a312a"/><path d="m250.539062 196.507812h-47.785156c-6.238281 0-11.292968 5.054688-11.292968 11.289063s5.054687 11.289063 11.292968 11.289063h47.785156c6.238282 0 11.289063-5.054688 11.289063-11.289063s-5.054687-11.289063-11.289063-11.289063zm0 0" fill="#fce8cb"/><path d="m250.539062 193.507812h-47.785156c-7.882812 0-14.292968 6.410157-14.292968 14.292969 0 7.878907 6.410156 14.289063 14.292968 14.289063h47.785156c7.882813 0 14.289063-6.410156 14.289063-14.289063 0-7.882812-6.40625-14.292969-14.289063-14.292969zm0 22.582032h-47.785156c-4.574218 0-8.292968-3.71875-8.292968-8.289063 0-4.574219 3.71875-8.292969 8.292968-8.292969h47.785156c4.574219 0 8.289063 3.71875 8.289063 8.292969 0 4.566407-3.71875 8.289063-8.289063 8.289063zm0 0" fill="#3a312a"/><path d="m208.300781 82.839844h36.691407v74.082031h-36.691407zm0 0" fill="#fce8cb"/><path d="m244.992188 79.839844h-36.695313c-1.65625 0-3 1.34375-3 3v74.082031c0 1.65625 1.34375 3 3 3h36.695313c1.65625 0 3-1.34375 3-3v-74.082031c0-1.65625-1.34375-3-3-3zm-3 74.082031h-30.695313v-68.082031h30.695313zm0 0" fill="#3a312a"/><path d="m32.191406 113.019531c0-4.632812-2.167968-8.757812-5.535156-11.429687 3.367188-2.671875 5.535156-6.792969 5.535156-11.425782 0-4.59375-2.128906-8.683593-5.445312-11.359374l-4.960938-47.714844-9.25.074218-4.171875 47.695313c-3.273437 2.675781-5.367187 6.746094-5.367187 11.304687 0 4.632813 2.167968 8.753907 5.535156 11.425782-3.367188 2.675781-5.535156 6.796875-5.535156 11.429687 0 4.632813 2.167968 8.753907 5.535156 11.425781-3.367188 2.675782-5.535156 6.796876-5.535156 11.429688 0 8.058594 6.535156 14.59375 14.597656 14.59375 8.058594 0 14.597656-6.535156 14.597656-14.59375 0-4.632812-2.167968-8.757812-5.535156-11.429688 3.367188-2.671874 5.535156-6.792968 5.535156-11.425781zm0 0" fill="#fce8cb"/><path d="m30.964844 101.589844c2.714844-3.160156 4.226562-7.175782 4.226562-11.425782 0-4.910156-2.019531-9.523437-5.582031-12.847656l-4.835937-46.539062c-.160157-1.535156-1.511719-2.679688-3.007813-2.6875l-9.25.074218c-1.546875.011719-2.828125 1.199219-2.964844 2.738282l-4.070312 46.503906c-3.5 3.316406-5.480469 7.898438-5.480469 12.757812 0 4.25 1.511719 8.265626 4.222656 11.425782-2.710937 3.160156-4.222656 7.179687-4.222656 11.429687 0 4.246094 1.511719 8.265625 4.222656 11.425781-2.710937 3.160157-4.222656 7.179688-4.222656 11.429688 0 9.703125 7.890625 17.59375 17.59375 17.59375s17.59375-7.890625 17.59375-17.59375c0-4.25-1.507812-8.269531-4.222656-11.429688 2.714844-3.160156 4.222656-7.179687 4.222656-11.425781 0-4.25-1.507812-8.269531-4.222656-11.429687zm-6.175782 2.347656c2.796876 2.222656 4.398438 5.53125 4.398438 9.078125 0 3.550781-1.601562 6.859375-4.398438 9.082031-.714843.570313-1.132812 1.433594-1.132812 2.347656 0 .914063.417969 1.78125 1.132812 2.351563 2.796876 2.21875 4.398438 5.53125 4.398438 9.078125 0 6.394531-5.203125 11.597656-11.59375 11.597656s-11.59375-5.203125-11.59375-11.597656c0-3.546875 1.605469-6.859375 4.398438-9.078125.714843-.570313 1.132812-1.433594 1.132812-2.351563 0-.914062-.417969-1.777343-1.132812-2.347656-2.792969-2.222656-4.398438-5.53125-4.398438-9.082031 0-3.546875 1.605469-6.859375 4.398438-9.078125.714843-.570312 1.132812-1.433594 1.132812-2.347656 0-.917969-.417969-1.78125-1.132812-2.351563-2.792969-2.21875-4.398438-5.527343-4.398438-9.078125 0-3.492187 1.554688-6.761718 4.265625-8.980468.625-.511719 1.015625-1.253907 1.085937-2.058594l3.9375-44.980469 3.796876-.03125 4.675781 45.003906c.085937.792969.480469 1.523438 1.101562 2.023438 2.75 2.21875 4.324219 5.507812 4.324219 9.027343 0 3.546876-1.601562 6.859376-4.398438 9.078126-.714843.570312-1.132812 1.433593-1.132812 2.347656 0 .914062.417969 1.78125 1.132812 2.347656zm0 0" fill="#3a312a"/><path d="m250.546875 34.085938h-15.339844c4.578125 0 8.300781 3.71875 8.300781 8.300781 0 4.558593-3.722656 8.277343-8.300781 8.277343h15.339844c4.558594 0 8.277344-3.71875 8.277344-8.277343 0-4.582031-3.71875-8.300781-8.277344-8.300781zm0 0" fill="#68a8bc"/><path d="m241.640625 6.042969-8.773437 22.042969h15.339843l8.753907-22.042969zm0 0" fill="#68a8bc"/><path d="m286.847656 56.664062-12.960937 13.921876c-5.460938 5.878906-13.222657 9.257812-21.242188 9.257812h15.320313c8.042968 0 15.78125-3.378906 21.261718-9.257812l12.960938-13.921876zm0 0" fill="#ccae8b"/><path d="m243.707031 159.925781h-15.320312c4.699219 4.5 7.660156 10.839844 7.660156 17.859375 0 5.960938-2.121094 11.441406-5.640625 15.71875h15.320312c3.539063-4.277344 5.660157-9.757812 5.660157-15.71875 0-7.019531-2.960938-13.359375-7.679688-17.859375zm0 0" fill="#ccae8b"/><path d="m292.765625 335.464844c-.5-.179688-.941406-.480469-1.28125-.878906-.578125-.660157-.820313-1.5625-.679687-2.421876.519531-3.378906.800781-6.820312.800781-10.199218 0-26.5-15.859375-50.121094-40.398438-60.140625-1.121093-.460938-1.859375-1.558594-1.859375-2.78125v-36.957031h-15.339844v36.957031c0 1.222656.738282 2.320312 1.859376 2.78125 24.539062 10.019531 40.398437 33.640625 40.398437 60.140625 0 3.378906-.257813 6.820312-.800781 10.199218-.140625.859376.121094 1.761719.679687 2.421876.339844.398437.800781.699218 1.28125.878906 18.398438 10.699218 28.519531 24.878906 28.519531 40 0 19.058594-17.019531 37.21875-44.460937 47.480468h15.339844c27.441406-10.261718 44.460937-28.421874 44.460937-47.480468 0-15.121094-10.121094-29.300782-28.519531-40zm0 0" fill="#68a8bc"/><g fill="#ccae8b"><path d="m250.546875 199.503906h-15.339844c4.578125 0 8.300781 3.722656 8.300781 8.300782 0 4.558593-3.722656 8.28125-8.300781 8.28125h15.339844c4.558594 0 8.277344-3.722657 8.277344-8.28125 0-4.578126-3.71875-8.300782-8.277344-8.300782zm0 0"/><path d="m226.664062 85.84375h15.320313v68.082031h-15.320313zm0 0"/></g></svg>