<svg id="Layer_1" enable-background="new 0 0 448.423 177.411" height="512" viewBox="0 0 448.423 177.411" width="512" xmlns="http://www.w3.org/2000/svg"><g><path d="m49.217 130h5.469 43.749 5.469 43.749 5.469 10.861c-1.472-.943-3.413-2.274-5.362-4.05h-4.167l1.078-3.279c-1.28-1.601-2.441-3.437-3.322-5.538l-3.122 8.817h-42.929l30.991-55.69h31.66l-.564 1.594c1.997-2.517 4.116-4.928 6.399-7.302l8.82-26.821h25.077l-.809 6.399c.424-.019.849-.029 1.274-.029.678 0 1.35.032 2.017.081l.653-6.451.136-1.341 2.023-19.99h10.676c.337-.316.682-.623 1.034-.921h-11.616l1.499-14.816h17.571l1.005 9.928c.774-.279 1.558-.53 2.355-.739l-1.162-9.189h17.576l3.855 11.722c1.123.622 2.205 1.325 3.239 2.106l-4.898-13.83h17.576l8.245 14.816h-19.683c.33.281.655.57.974.867 4.932 4.604 7.782 10.611 8.522 16.838 4.351 4.144 7.951 8.628 10.16 12.691 4.044 7.438 2.453 11.611.406 13.803-1.063 1.14-3.005 2.499-6.209 2.499-.998 0-2.051-.153-3.133-.407-2.15 1.085-6.161-.715-10.607-4.457-4.957 4.245-11.332 6.637-17.909 6.637-1.327 0-2.643-.096-3.938-.282l.322 3.181 27.761 34.076 72.822-22.009 13.597 44.99-20.171 6.096h10.815 5.469 43.749 5.469 49.217l-59.68-57.547-4.485-4.325-53.648-51.73-.955-.921-16.053-15.477h-19.623-2.18-17.442-2.18-17.442-2.18-17.442-2.18-17.442-2.18-17.442-2.18-17.442-2.18-17.442-2.18-19.626l-16.051 15.477-.955.921-53.648 51.73-4.485 4.325-59.681 57.547zm389.64-4.05h-42.929l-45.077-55.69h31.66zm-58.503-57.822h-31.228l-24.606-30.398-1.086-1.341-16.18-19.99h20.761zm-68.262-67.467 14.991 14.816h-20.574l-11.993-14.816zm-19.773 0 11.618 14.816.722.921 15.675 19.99h-24.806l-11.63-19.99-.536-.921-8.62-14.816zm-157.889 67.467-2.516 4.325-31.123 53.497h-42.929l41.948-53.497 3.391-4.325 23.836-30.398h25.077zm46.372-31.74-.475 1.341-10.765 30.398h-31.228l16.916-30.398.746-1.341 11.124-19.99h20.761zm14.849-35.727h17.576l-1.874 14.816-.116.921-2.528 19.99h-24.806l6.573-19.99.303-.921zm-19.774 0h17.576l-5.247 14.816h-20.574zm-19.773 0h17.576l-8.62 14.816-.536.921-11.63 19.99h-24.806l15.675-19.99.722-.921zm-19.773 0h17.576l-11.993 14.816h-20.574zm-15.922 15.737h20.761l-16.18 19.99-1.086 1.341-24.606 30.399h-31.229zm-54.496 53.862h31.66l-45.077 55.69h-42.93z"/><path d="m178.776 132.158-1.134.077c-.296.02-.59.029-.882.029-.32 0-.638-.011-.954-.028-.298-.007-.663-.036-1.031-.09-.419-.051-.833-.126-1.244-.213l8.719 19.067h-29.538c-6.903 0-12.5 5.596-12.5 12.5 0 6.903 5.597 12.5 12.5 12.5h49c4.255 0 8.218-2.165 10.518-5.745.807-1.256 1.356-2.63 1.67-4.046l-22.754 6.877z"/><path d="m157.577 98.959c-6.076 15.236 2.313 22.594 10.084 27.451.247.155.49.305.73.453 1.85 1.624 4.178 2.698 6.722 3.008.275.041.548.062.819.069.512.029 1.028.037 1.553.001l.608-.041-.545-1.803 29.962-9.055-1.585-1.143c-2.434-1.755-3.977-4.477-4.234-7.465l-.619-7.156-4.013.273c1.189-1.506 2.416-2.974 3.653-4.423l-2.519-29.102c-.238-2.741.605-5.41 2.376-7.516s4.255-3.396 6.996-3.634c.305-.027.61-.04.913-.04 5.371 0 9.772 4.047 10.236 9.414l.935 10.802c.534-.54 1.05-1.097 1.531-1.682l24.541 30.124 16.56-5.005-36.639-44.975c-.37-.311-.734-.629-1.09-.961-1.142-1.066-2.175-2.218-3.106-3.435-6.602-5.023-18.141-6.41-29.066 2.214-16.633 13.288-24.965 23.542-34.803 43.627z"/><path d="m224.451 101.684-2.825.192.18 2.076 10.518 7.588 4.794-1.449c-1.836-5.337-7.028-8.788-12.667-8.407z"/><path d="m230.352 168.859c1.746 5.239 6.623 8.552 11.857 8.552 1.31 0 2.643-.208 3.953-.645 6.55-2.182 10.09-9.261 7.908-15.811l-2.085-6.257-23.941 7.236z"/><path d="m257.531 53.86c-1.408-1.456-2.819-3.072-4.191-4.819-7.199-9.17-10.612-18.529-7.787-21.181-1.247 3.569 3.458 11.598 11.357 18.971 8.68 8.102 17.907 12.325 20.607 9.433 2.701-2.894-2.146-11.809-10.827-19.911-.298-.278-.598-.54-.897-.809-.229-5.71-2.615-11.336-7.123-15.544-9.084-8.479-23.322-7.988-31.801 1.095-8.48 9.085-7.988 23.322 1.095 31.801 8.332 7.777 20.984 7.987 29.567.964z"/><path d="m338.274 82.653-102.889 31.097 4.185 3.018 95.966-29.004 9.489 31.398-149.137 45.074-9.489-31.398 28.357-8.57-4.185-3.019-29.283 8.851 11.861 39.247 156.987-47.447z"/><path d="m219.606 105.202-3.183-36.755c-.381-4.401-4.226-7.669-8.66-7.28-4.401.381-7.661 4.258-7.279 8.66l3.498 40.408c.2 2.319 1.401 4.436 3.289 5.798l35 25.25c1.416 1.021 3.053 1.513 4.674 1.513 2.483 0 4.931-1.152 6.495-3.32 2.585-3.583 1.775-8.583-1.808-11.168z"/></g></svg>