<?xml version="1.0" encoding="UTF-8" standalone="no"?>
<!DOCTYPE svg PUBLIC "-//W3C//DTD SVG 1.1//EN" "http://www.w3.org/Graphics/SVG/1.1/DTD/svg11.dtd">
<!-- Created with Vectornator (http://vectornator.io/) -->
<svg height="100%" stroke-miterlimit="10" style="fill-rule:nonzero;clip-rule:evenodd;stroke-linecap:round;stroke-linejoin:round;" version="1.1" viewBox="0 0 64 64" width="100%" xml:space="preserve" xmlns="http://www.w3.org/2000/svg" xmlns:vectornator="http://vectornator.io" xmlns:xlink="http://www.w3.org/1999/xlink">
<defs>
<linearGradient gradientTransform="matrix(0.59073 0 0 0.610344 26.9738 30.7734)" gradientUnits="userSpaceOnUse" id="LinearGradient" x1="14.148" x2="11.257" y1="43.031" y2="25.836">
<stop offset="0" stop-color="#f57900"/>
<stop offset="1" stop-color="#f57900" stop-opacity="0"/>
</linearGradient>
</defs>
<g id="layer1" vectornator:layerName="layer1">
<path d="M36.9409 21.9282L51.9528 21.9282C53.3899 21.9282 54.5549 23.0932 54.5549 24.5303L54.5549 59.1587C54.5549 60.5958 53.3899 61.7608 51.9528 61.7608L36.9409 61.7608C35.5038 61.7608 34.3388 60.5958 34.3388 59.1587L34.3388 24.5303C34.3388 23.0932 35.5038 21.9282 36.9409 21.9282Z" fill="#5d6c53" fill-rule="nonzero" opacity="1" stroke="#866969" stroke-linecap="butt" stroke-linejoin="round" stroke-width="0.32944" vectornator:layerName="rect"/>
<path d="M34.0367 21.03L53.2423 21.03C53.5216 21.03 53.748 21.2564 53.748 21.5357L53.748 60.3573C53.748 60.6366 53.5216 60.863 53.2423 60.863L34.0367 60.863C33.7574 60.863 33.531 60.6366 33.531 60.3573L33.531 21.5357C33.531 21.2564 33.7574 21.03 34.0367 21.03Z" fill="#90a8ac" fill-rule="nonzero" opacity="1" stroke="#866969" stroke-linecap="butt" stroke-linejoin="round" stroke-width="1.1531" vectornator:layerName="rect"/>
<path d="M37.9791 25.9309L49.2968 25.9309C50.3803 25.9309 51.2587 26.8092 51.2587 27.8927L51.2587 53.9992C51.2587 55.0827 50.3803 55.961 49.2968 55.961L37.9791 55.961C36.8956 55.961 36.0173 55.0827 36.0173 53.9992L36.0173 27.8927C36.0173 26.8092 36.8956 25.9309 37.9791 25.9309Z" fill="#a0bcb8" fill-rule="nonzero" opacity="1" stroke="#866969" stroke-linecap="butt" stroke-linejoin="round" stroke-width="0.248365" vectornator:layerName="rect"/>
<path d="M46.852 31.911L50.4289 31.911L50.4289 31.911L50.4289 37.747L50.4289 37.747L46.852 37.747L46.852 37.747L46.852 31.911L46.852 31.911Z" fill="#ffffff" fill-rule="nonzero" opacity="1" stroke="none" vectornator:layerName="rect"/>
<path d="M10.1539 2.1618L32.6165 2.1618C34.7667 2.1618 36.5098 3.9049 36.5098 6.05512L36.5098 57.8675C36.5098 60.0177 34.7667 61.7608 32.6165 61.7608L10.1539 61.7608C8.00372 61.7608 6.26062 60.0177 6.26062 57.8675L6.26062 6.05512C6.26062 3.9049 8.00372 2.1618 10.1539 2.1618Z" fill="#6c5d53" fill-rule="nonzero" opacity="1" stroke="#866969" stroke-linecap="butt" stroke-linejoin="round" stroke-width="0.65888" vectornator:layerName="rect"/>
<path d="M8.0589 2.4912L34.7139 2.4912C35.7064 2.4912 36.5109 3.29574 36.5109 4.2882L36.5109 60.2932C36.5109 61.2857 35.7064 62.0902 34.7139 62.0902L8.0589 62.0902C7.06644 62.0902 6.2619 61.2857 6.2619 60.2932L6.2619 4.2882C6.2619 3.29574 7.06644 2.4912 8.0589 2.4912Z" fill="#d8c890" fill-rule="nonzero" opacity="1" stroke="#866969" stroke-linecap="butt" stroke-linejoin="round" stroke-width="1.4825" vectornator:layerName="rect"/>
<path d="M11.9962 7.37848L30.7742 7.37848C32.5719 7.37848 34.0291 8.83574 34.0291 10.6333L34.0291 53.9465C34.0291 55.7441 32.5719 57.2013 30.7742 57.2013L11.9962 57.2013C10.1986 57.2013 8.7413 55.7441 8.7413 53.9465L8.7413 10.6333C8.7413 8.83574 10.1986 7.37848 11.9962 7.37848Z" fill="#d8c894" fill-rule="nonzero" opacity="1" stroke="#866969" stroke-linecap="butt" stroke-linejoin="round" stroke-width="0.0560048" vectornator:layerName="rect"/>
<path d="M11.0442 4.83248L29.8222 4.83248C31.6199 4.83248 33.0771 6.28974 33.0771 8.08735L33.0771 51.4005C33.0771 53.1981 31.6199 54.6553 29.8222 54.6553L11.0442 54.6553C9.24656 54.6553 7.7893 53.1981 7.7893 51.4005L7.7893 8.08735C7.7893 6.28974 9.24656 4.83248 11.0442 4.83248Z" fill="#eccc84" fill-rule="nonzero" opacity="1" stroke="#866969" stroke-linecap="butt" stroke-linejoin="round" stroke-width="0.0560048" vectornator:layerName="rect"/>
<path d="M17.534 51.883L24.0406 51.883L24.0406 51.883L24.0406 60.8576L24.0406 60.8576L17.534 60.8576L17.534 60.8576L17.534 51.883L17.534 51.883Z" fill="#6c6753" fill-rule="nonzero" opacity="1" stroke="#866969" stroke-linecap="butt" stroke-linejoin="round" stroke-width="0.8638" vectornator:layerName="rect"/>
<path d="M10.989 15.439L14.5659 15.439L14.5659 15.439L14.5659 21.275L14.5659 21.275L10.989 21.275L10.989 21.275L10.989 15.439L10.989 15.439Z" fill="#ffffff" fill-rule="nonzero" opacity="1" stroke="none" vectornator:layerName="rect"/>
<path d="M17.202 15.439L20.7789 15.439L20.7789 15.439L20.7789 21.275L20.7789 21.275L17.202 21.275L17.202 21.275L17.202 15.439L17.202 15.439Z" fill="#ffffff" fill-rule="nonzero" opacity="1" stroke="none" vectornator:layerName="rect"/>
<path d="M23.415 15.439L26.9919 15.439L26.9919 15.439L26.9919 21.275L26.9919 21.275L23.415 21.275L23.415 21.275L23.415 15.439L23.415 15.439Z" fill="#ffffff" fill-rule="nonzero" opacity="1" stroke="none" vectornator:layerName="rect"/>
<path d="M10.989 25.322L14.5659 25.322L14.5659 25.322L14.5659 31.158L14.5659 31.158L10.989 31.158L10.989 31.158L10.989 25.322L10.989 25.322Z" fill="#ffffff" fill-rule="nonzero" opacity="1" stroke="none" vectornator:layerName="rect"/>
<path d="M17.202 25.322L20.7789 25.322L20.7789 25.322L20.7789 31.158L20.7789 31.158L17.202 31.158L17.202 31.158L17.202 25.322L17.202 25.322Z" fill="#ffffff" fill-rule="nonzero" opacity="1" stroke="none" vectornator:layerName="rect"/>
<path d="M23.415 25.322L26.9919 25.322L26.9919 25.322L26.9919 31.158L26.9919 31.158L23.415 31.158L23.415 31.158L23.415 25.322L23.415 25.322Z" fill="#ffffff" fill-rule="nonzero" opacity="1" stroke="none" vectornator:layerName="rect"/>
<path d="M10.989 35.206L14.5659 35.206L14.5659 35.206L14.5659 41.042L14.5659 41.042L10.989 41.042L10.989 41.042L10.989 35.206L10.989 35.206Z" fill="#ffffff" fill-rule="nonzero" opacity="1" stroke="none" vectornator:layerName="rect"/>
<path d="M17.202 35.206L20.7789 35.206L20.7789 35.206L20.7789 41.042L20.7789 41.042L17.202 41.042L17.202 41.042L17.202 35.206L17.202 35.206Z" fill="#ffffff" fill-rule="nonzero" opacity="1" stroke="none" vectornator:layerName="rect"/>
<path d="M23.415 35.206L26.9919 35.206L26.9919 35.206L26.9919 41.042L26.9919 41.042L23.415 41.042L23.415 41.042L23.415 35.206L23.415 35.206Z" fill="#ffffff" fill-rule="nonzero" opacity="1" stroke="none" vectornator:layerName="rect"/>
<path d="M40.639 31.911L44.2159 31.911L44.2159 31.911L44.2159 37.747L44.2159 37.747L40.639 37.747L40.639 37.747L40.639 31.911L40.639 31.911Z" fill="#ffffff" fill-rule="nonzero" opacity="1" stroke="none" vectornator:layerName="rect"/>
<path d="M10.989 5.5556L14.5659 5.5556L14.5659 5.5556L14.5659 11.3916L14.5659 11.3916L10.989 11.3916L10.989 11.3916L10.989 5.5556L10.989 5.5556Z" fill="#ffffff" fill-rule="nonzero" opacity="1" stroke="none" vectornator:layerName="rect"/>
<path d="M17.202 5.5556L20.7789 5.5556L20.7789 5.5556L20.7789 11.3916L20.7789 11.3916L17.202 11.3916L17.202 11.3916L17.202 5.5556L17.202 5.5556Z" fill="#ffffff" fill-rule="nonzero" opacity="1" stroke="none" vectornator:layerName="rect"/>
<path d="M23.415 5.5556L26.9919 5.5556L26.9919 5.5556L26.9919 11.3916L26.9919 11.3916L23.415 11.3916L23.415 11.3916L23.415 5.5556L23.415 5.5556Z" fill="#ffffff" fill-rule="nonzero" opacity="1" stroke="none" vectornator:layerName="rect"/>
<g opacity="1" vectornator:layerName="g4215">
<path d="M36.7865 47.8639L55.6889 47.8639C57.7095 47.8639 59.3475 49.4339 59.3475 51.3705L59.3475 59.3577C59.3475 61.2943 57.7095 62.8643 55.6889 62.8643L36.7865 62.8643C34.7659 62.8643 33.1279 61.2943 33.1279 59.3577L33.1279 51.3705C33.1279 49.4339 34.7659 47.8639 36.7865 47.8639Z" fill="#000000" fill-rule="nonzero" opacity="0.94444" stroke="none" vectornator:layerName="rect"/>
<path d="M33.9409 45.916L58.5345 45.916C58.9835 45.916 59.3475 46.2649 59.3475 46.6952L59.3475 60.1372C59.3475 60.5675 58.9835 60.9164 58.5345 60.9164L33.9409 60.9164C33.4919 60.9164 33.1279 60.5675 33.1279 60.1372L33.1279 46.6952C33.1279 46.2649 33.4919 45.916 33.9409 45.916Z" fill="#000000" fill-rule="nonzero" opacity="0.94444" stroke="none" vectornator:layerName="rect"/>
</g>
<path d="M31.9838 43.0242L61.919 43.0242C62.388 43.0242 62.7682 43.3887 62.7682 43.8382L62.7682 43.8382C62.7682 44.2877 62.388 44.6521 61.919 44.6521L31.9838 44.6521C31.5148 44.6521 31.1346 44.2877 31.1346 43.8382L31.1346 43.8382C31.1346 43.3887 31.5148 43.0242 31.9838 43.0242Z" fill="#000000" fill-rule="nonzero" opacity="0.94444" stroke="none" vectornator:layerName="rect"/>
<path d="M42.1675 43.6858C42.1711 44.2738 41.8104 44.8185 41.2221 45.1134C40.6339 45.4084 39.9082 45.4084 39.32 45.1134C38.7317 44.8185 38.371 44.2738 38.3746 43.6858C38.371 43.0977 38.7317 42.553 39.32 42.2581C39.9082 41.9632 40.6339 41.9632 41.2221 42.2581C41.8104 42.553 42.1711 43.0977 42.1675 43.6858Z" fill="#000000" fill-rule="nonzero" opacity="0.94444" stroke="none" vectornator:layerName="path"/>
<path d="M52.3437 43.6858C52.3472 44.2738 51.9865 44.8185 51.3983 45.1134C50.81 45.4084 50.0843 45.4084 49.4961 45.1134C48.9078 44.8185 48.5472 44.2738 48.5507 43.6858C48.5472 43.0977 48.9078 42.553 49.4961 42.2581C50.0843 41.9632 50.81 41.9632 51.3983 42.2581C51.9865 42.553 52.3472 43.0977 52.3437 43.6858Z" fill="#000000" fill-rule="nonzero" opacity="0.94444" stroke="none" vectornator:layerName="path"/>
<g opacity="1" vectornator:layerName="g2179">
<path d="M36.7865 47.8639L55.6889 47.8639C57.7095 47.8639 59.3475 49.4339 59.3475 51.3705L59.3475 59.3577C59.3475 61.2943 57.7095 62.8643 55.6889 62.8643L36.7865 62.8643C34.7659 62.8643 33.1279 61.2943 33.1279 59.3577L33.1279 51.3705C33.1279 49.4339 34.7659 47.8639 36.7865 47.8639Z" fill="#000000" fill-rule="nonzero" opacity="0.94444" stroke="none" vectornator:layerName="rect"/>
<path d="M33.9409 45.916L58.5345 45.916C58.9835 45.916 59.3475 46.2649 59.3475 46.6952L59.3475 60.1372C59.3475 60.5675 58.9835 60.9164 58.5345 60.9164L33.9409 60.9164C33.4919 60.9164 33.1279 60.5675 33.1279 60.1372L33.1279 46.6952C33.1279 46.2649 33.4919 45.916 33.9409 45.916Z" fill="#000000" fill-rule="nonzero" opacity="0.94444" stroke="none" vectornator:layerName="rect"/>
</g>
<g opacity="1" vectornator:layerName="text4277">
<path d="M37.0215 58.1773L37.0215 51.853L40.0667 51.853C40.7028 51.8531 41.1722 51.912 41.475 52.0299C41.7778 52.1478 42.0264 52.3441 42.2207 52.6188C42.4149 52.8934 42.512 53.212 42.512 53.5743C42.512 54.0518 42.3473 54.4386 42.0178 54.7348C41.6884 55.031 41.2094 55.2194 40.5809 55.2999C40.8361 55.4149 41.0304 55.5314 41.1637 55.6493C41.4341 55.8909 41.6721 56.1598 41.8778 56.456L43.0777 58.1773L41.935 58.1773L41.0209 56.8615C40.6666 56.3467 40.399 56.0002 40.2181 55.8219C40.0372 55.6436 39.862 55.5235 39.6925 55.4617C39.523 55.3998 39.2859 55.3689 38.9812 55.3689L37.93 55.3689L37.93 58.1773L37.0215 58.1773ZM37.9299 54.6442L39.8839 54.6442C40.3105 54.6442 40.6343 54.6054 40.8552 54.5277C41.0761 54.4501 41.2513 54.3278 41.3808 54.161C41.5103 53.9942 41.575 53.8001 41.575 53.5787C41.575 53.2594 41.4513 53.0085 41.2037 52.8259C40.9561 52.6433 40.5886 52.552 40.101 52.552L37.9299 52.552L37.9299 54.6442Z" fill="#000000" fill-rule="nonzero" opacity="1" stroke="none" vectornator:layerName="path"/>
<path d="M47.2312 56.702L48.0997 56.8012C47.9549 57.2901 47.693 57.659 47.3141 57.9078C46.9351 58.1565 46.4656 58.2809 45.9057 58.2809C45.2011 58.2809 44.6307 58.0789 44.1946 57.6748C43.7585 57.2707 43.5404 56.6876 43.5404 55.9255C43.5404 55.1346 43.7603 54.5314 44.2003 54.1158C44.6402 53.7002 45.1973 53.4924 45.8715 53.4924C46.5152 53.4924 47.0522 53.6966 47.4826 54.105C47.913 54.5134 48.1282 55.1045 48.1282 55.8781L48.1225 56.0852L44.4089 56.0852C44.4432 56.6 44.6012 56.9882 44.8831 57.2499C45.1649 57.5116 45.5077 57.6425 45.9115 57.6425C46.5437 57.6425 46.9837 57.329 47.2312 56.7021L47.2312 56.702ZM44.4603 55.4467L47.2369 55.4467C47.1989 55.0498 47.0865 54.7536 46.8999 54.558C46.6294 54.2733 46.2847 54.1309 45.8658 54.1309C45.4887 54.1309 45.1668 54.2495 44.9002 54.4868C44.6336 54.7241 44.487 55.044 44.4603 55.4466L44.4603 55.4467Z" fill="#000000" fill-rule="nonzero" opacity="1" stroke="none" vectornator:layerName="path"/>
<path d="M49.1737 58.1773L49.1737 53.596L49.9336 53.596L49.9336 54.2474C50.1164 53.9943 50.3402 53.8052 50.6049 53.6801C50.8697 53.555 51.1734 53.4925 51.5162 53.4925C51.7828 53.4925 52.0295 53.532 52.2561 53.6111C52.4827 53.6902 52.6656 53.7937 52.8046 53.9217C52.9436 54.0497 53.0474 54.2158 53.116 54.42C53.1845 54.6242 53.2188 54.9376 53.2188 55.3604L53.2188 58.1774L52.3732 58.1774L52.3732 55.3906C52.3732 55.0541 52.3351 54.8082 52.259 54.6529C52.1828 54.4976 52.0638 54.3775 51.9019 54.2927C51.74 54.2078 51.5524 54.1654 51.3391 54.1654C50.9354 54.1654 50.6135 54.279 50.3736 54.5062C50.1336 54.7334 50.0137 55.1231 50.0137 55.6753L50.0137 58.1774L49.1737 58.1773Z" fill="#000000" fill-rule="nonzero" opacity="1" stroke="none" vectornator:layerName="path"/>
<path d="M56.4013 57.4829L56.5156 58.1688C56.2832 58.2148 56.0737 58.2379 55.8871 58.2379C55.5938 58.2379 55.3577 58.194 55.1787 58.1063C54.9996 58.0186 54.8768 57.8985 54.8102 57.7461C54.7435 57.5936 54.7102 57.2902 54.7102 56.8358L54.7102 54.2L54.0931 54.2L54.0931 53.5961L54.7102 53.5961L54.7102 52.4615L55.55 51.9956L55.55 53.596L56.4013 53.596L56.4013 54.2L55.55 54.2L55.55 56.8789C55.55 57.1263 55.5748 57.2859 55.6243 57.3578C55.6967 57.4613 55.8319 57.5131 56.0299 57.5131C56.1252 57.5131 56.249 57.503 56.4013 57.4829Z" fill="#000000" fill-rule="nonzero" opacity="1" stroke="none" vectornator:layerName="path"/>
</g>
<path d="M33.8635 46.0242C33.5334 46.0854 33.2843 46.3601 33.2843 46.6791L33.2843 58.0197C33.2843 58.1605 33.3602 58.2963 33.4423 58.4031L33.4423 58.9461C33.4423 60.7205 35.0026 62.1406 36.9522 62.1406L55.1342 62.1406C57.0838 62.1406 58.6618 60.7205 58.6618 58.9461L58.6618 51.6469C58.6618 51.3374 58.6105 51.0351 58.5214 50.7524L58.5214 46.6794C58.5214 46.3149 58.1849 46.0245 57.7843 46.0245L34.0214 46.0245C33.9713 46.0245 33.9106 46.0158 33.8634 46.0245L33.8635 46.0242Z" fill="#fcaf3e" fill-rule="nonzero" opacity="1" stroke="#b3570b" stroke-linecap="butt" stroke-linejoin="miter" stroke-width="1" vectornator:layerName="path"/>
<path d="M31.2776 42.2906L61.2128 42.2906C61.6818 42.2906 62.062 42.655 62.062 43.1045L62.062 43.1046C62.062 43.5541 61.6818 43.9185 61.2128 43.9185L31.2776 43.9185C30.8086 43.9185 30.4284 43.5541 30.4284 43.1046L30.4284 43.1045C30.4284 42.655 30.8086 42.2906 31.2776 42.2906Z" fill="#888a85" fill-rule="nonzero" opacity="0.94444" stroke="none" vectornator:layerName="rect"/>
<path d="M41.5521 43.046C41.5556 43.634 41.1949 44.1787 40.6067 44.4736C40.0184 44.7686 39.2927 44.7686 38.7045 44.4736C38.1163 44.1787 37.7556 43.634 37.7591 43.046C37.7556 42.4579 38.1163 41.9132 38.7045 41.6183C39.2927 41.3234 40.0184 41.3234 40.6067 41.6183C41.1949 41.9132 41.5556 42.4579 41.5521 43.046Z" fill="#888a85" fill-rule="nonzero" opacity="0.94444" stroke="none" vectornator:layerName="path"/>
<path d="M51.7283 43.046C51.7318 43.634 51.3711 44.1787 50.7829 44.4736C50.1947 44.7686 49.4689 44.7686 48.8807 44.4736C48.2925 44.1787 47.9318 43.634 47.9353 43.046C47.9318 42.4579 48.2925 41.9132 48.8807 41.6183C49.4689 41.3234 50.1947 41.3234 50.7829 41.6183C51.3711 41.9132 51.7318 42.4579 51.7283 43.046Z" fill="#888a85" fill-rule="nonzero" opacity="0.94444" stroke="none" vectornator:layerName="path"/>
<path d="M34.3958 46.7711C34.0802 46.8271 33.842 47.0788 33.842 47.371L33.842 57.7597C33.842 57.8886 33.9146 58.013 33.9931 58.1108L33.9931 58.6083C33.9931 60.2338 35.4849 61.5347 37.3489 61.5347L54.7317 61.5347C56.5957 61.5347 58.1043 60.2338 58.1043 58.6083L58.1043 51.9214C58.1043 51.6379 58.0553 51.3609 57.9701 51.102L57.9701 47.3709C57.9701 47.0369 57.6483 46.771 57.2653 46.771L34.5464 46.771C34.4986 46.771 34.4405 46.763 34.3954 46.771L34.3958 46.7711Z" fill="url(#LinearGradient)" fill-rule="nonzero" opacity="1" stroke="#ce5c00" stroke-dasharray="0.6256055235862732,0.3128027617931366" stroke-linecap="butt" stroke-linejoin="miter" stroke-width="0.312799" vectornator:layerName="path"/>
<g opacity="1" vectornator:layerName="text2193">
<path d="M37.802 50.5418L37.802 48.395L37.4158 48.395L37.4158 48.069L37.802 48.069L37.802 47.8059C37.802 47.6399 37.8174 47.5165 37.8482 47.4357C37.8903 47.3271 37.9644 47.239 38.0705 47.1715C38.1766 47.1039 38.3251 47.0702 38.5162 47.0702C38.6393 47.0702 38.7754 47.0841 38.9244 47.1121L38.8588 47.4776C38.7681 47.4621 38.6822 47.4544 38.6013 47.4544C38.4685 47.4544 38.3745 47.4815 38.3195 47.5359C38.2644 47.5902 38.2369 47.6919 38.2369 47.8409L38.2369 48.069L38.7397 48.069L38.7397 48.395L38.2369 48.395L38.2369 50.5418L37.802 50.5418Z" fill="#8f5902" fill-rule="nonzero" opacity="1" stroke="none" vectornator:layerName="path"/>
<path d="M38.9143 49.3051C38.9143 48.8472 39.0471 48.508 39.3127 48.2876C39.5345 48.1044 39.805 48.0128 40.124 48.0128C40.4787 48.0128 40.7686 48.1242 40.9937 48.3469C41.2188 48.5697 41.3314 48.8774 41.3314 49.2702C41.3314 49.5884 41.2816 49.8386 41.182 50.0211C41.0824 50.2035 40.9374 50.3451 40.7471 50.446C40.5568 50.5469 40.3491 50.5973 40.124 50.5973C39.7629 50.5973 39.4709 50.4864 39.2483 50.2644C39.0258 50.0428 38.9143 49.7227 38.9143 49.3052L38.9143 49.3051ZM39.3637 49.3051C39.3637 49.6217 39.4357 49.8588 39.5799 50.0164C39.724 50.1739 39.9054 50.2527 40.124 50.2527C40.341 50.2527 40.5216 50.1735 40.6658 50.0152C40.8099 49.8569 40.882 49.6155 40.882 49.2911C40.882 48.9853 40.8095 48.7536 40.6645 48.5961C40.5196 48.4385 40.3394 48.3598 40.124 48.3598C39.9054 48.3598 39.724 48.4382 39.5799 48.5949C39.4357 48.7517 39.3637 48.9884 39.3637 49.3051Z" fill="#8f5902" fill-rule="nonzero" opacity="1" stroke="none" vectornator:layerName="path"/>
<path d="M41.8416 50.5418L41.8416 48.0691L42.2352 48.0691L42.2352 48.4439C42.3356 48.2685 42.4283 48.1529 42.5133 48.097C42.5984 48.0411 42.6919 48.0132 42.7939 48.0132C42.9413 48.0132 43.0911 48.0582 43.2433 48.1482L43.0927 48.5371C42.9858 48.4765 42.8789 48.4463 42.7721 48.4463C42.6765 48.4463 42.5907 48.4738 42.5145 48.5289C42.4384 48.584 42.3842 48.6605 42.3518 48.7583C42.3032 48.9073 42.2789 49.0703 42.2789 49.2472L42.2789 50.5418L41.8416 50.5418Z" fill="#8f5902" fill-rule="nonzero" opacity="1" stroke="none" vectornator:layerName="path"/>
</g>
<g opacity="1" vectornator:layerName="text3274">
<path d="M37.8709 50.4237L37.8709 48.2769L37.4847 48.2769L37.4847 47.951L37.8709 47.951L37.8709 47.6879C37.8709 47.5218 37.8863 47.3984 37.9171 47.3177C37.9592 47.209 38.0333 47.1209 38.1394 47.0534C38.2455 46.9859 38.394 46.9521 38.5851 46.9521C38.7082 46.9521 38.8443 46.9661 38.9933 46.994L38.9277 47.3596C38.837 47.3441 38.7511 47.3363 38.6702 47.3363C38.5374 47.3363 38.4434 47.3635 38.3884 47.4178C38.3333 47.4721 38.3058 47.5738 38.3058 47.7228L38.3058 47.951L38.8086 47.951L38.8086 48.2769L38.3058 48.2769L38.3058 50.4237L37.8709 50.4237Z" fill="#ffffff" fill-rule="nonzero" opacity="1" stroke="none" vectornator:layerName="path"/>
<path d="M38.9837 49.1876C38.9837 48.7296 39.1165 48.3905 39.3821 48.1701C39.604 47.9869 39.8745 47.8953 40.1935 47.8953C40.5482 47.8953 40.8381 48.0067 41.0632 48.2294C41.2883 48.4522 41.4009 48.7599 41.4009 49.1526C41.4009 49.4709 41.3511 49.7211 41.2515 49.9036C41.1519 50.0859 41.0069 50.2276 40.8166 50.3285C40.6263 50.4294 40.4186 50.4798 40.1935 50.4798C39.8323 50.4798 39.5404 50.3688 39.3177 50.1469C39.095 49.9249 38.9837 49.6051 38.9837 49.1876ZM39.4331 49.1876C39.4331 49.5042 39.5052 49.7413 39.6493 49.8989C39.7935 50.0564 39.9749 50.1352 40.1935 50.1352C40.4105 50.1352 40.5911 50.056 40.7352 49.8977C40.8794 49.7394 40.9514 49.498 40.9514 49.1736C40.9514 48.8678 40.879 48.6361 40.734 48.4786C40.5891 48.321 40.4089 48.2422 40.1935 48.2422C39.9749 48.2422 39.7935 48.3206 39.6493 48.4774C39.5052 48.6342 39.4331 48.8709 39.4331 49.1876Z" fill="#ffffff" fill-rule="nonzero" opacity="1" stroke="none" vectornator:layerName="path"/>
<path d="M41.9111 50.4237L41.9111 47.951L42.3047 47.951L42.3047 48.3259C42.4051 48.1504 42.4978 48.0348 42.5828 47.9789C42.6678 47.923 42.7614 47.8951 42.8634 47.8951C43.0108 47.8951 43.1606 47.9401 43.3128 48.0302L43.1622 48.419C43.0553 48.3585 42.9484 48.3282 42.8415 48.3282C42.746 48.3282 42.6601 48.3557 42.584 48.4108C42.5079 48.4659 42.4537 48.5424 42.4213 48.6402C42.3727 48.7892 42.3484 48.9522 42.3484 49.1291L42.3484 50.4237L41.9111 50.4237Z" fill="#ffffff" fill-rule="nonzero" opacity="1" stroke="none" vectornator:layerName="path"/>
</g>
<g opacity="1" vectornator:layerName="text2857">
<path d="M38.1664 55.1198L38.8448 55.0627C38.8769 55.3232 38.9516 55.5369 39.069 55.7039C39.1864 55.8708 39.3686 56.0058 39.6156 56.1088C39.8627 56.2118 40.1407 56.2633 40.4495 56.2633C40.7237 56.2633 40.9658 56.2242 41.1758 56.1461C41.3858 56.068 41.5421 55.9608 41.6446 55.8246C41.7472 55.6885 41.7984 55.5399 41.7984 55.3789C41.7984 55.2155 41.749 55.0728 41.6502 54.9508C41.5514 54.8289 41.3883 54.7265 41.161 54.6436C41.0152 54.5891 40.6928 54.5045 40.1938 54.3896C39.6947 54.2747 39.3451 54.1664 39.1449 54.0646C38.8855 53.9343 38.6922 53.7727 38.565 53.5797C38.4377 53.3867 38.3741 53.1706 38.3741 52.9315C38.3741 52.6686 38.4519 52.423 38.6076 52.1945C38.7632 51.9659 38.9905 51.7925 39.2895 51.6741C39.5884 51.5557 39.9207 51.4965 40.2864 51.4965C40.6891 51.4965 41.0443 51.5586 41.3519 51.683C41.6595 51.8073 41.8961 51.9902 42.0616 52.2318C42.2272 52.4733 42.3161 52.7468 42.3285 53.0523L41.6391 53.102C41.6021 52.7729 41.4767 52.5242 41.263 52.3561C41.0492 52.188 40.7336 52.1039 40.3161 52.1039C39.8812 52.1039 39.5644 52.1803 39.3655 52.333C39.1666 52.4857 39.0671 52.6699 39.0671 52.8853C39.0671 53.0724 39.1376 53.2263 39.2784 53.3471C39.4167 53.4679 39.7781 53.5916 40.3624 53.7183C40.9467 53.845 41.3476 53.9557 41.565 54.0504C41.8812 54.1901 42.1147 54.3672 42.2654 54.5815C42.4161 54.7958 42.4915 55.0426 42.4915 55.3221C42.4915 55.5991 42.4087 55.8602 42.2432 56.1053C42.0777 56.3504 41.8399 56.5411 41.5298 56.6772C41.2197 56.8134 40.8708 56.8815 40.4829 56.8815C39.9912 56.8815 39.5792 56.8128 39.2469 56.6755C38.9146 56.5381 38.654 56.3315 38.4649 56.0556C38.2759 55.7797 38.1765 55.4678 38.1666 55.1196L38.1664 55.1198Z" fill="#555753" fill-rule="nonzero" opacity="1" stroke="none" vectornator:layerName="path"/>
<path d="M45.9636 56.3274C45.7165 56.5286 45.4787 56.6707 45.2502 56.7536C45.0216 56.8365 44.7764 56.8779 44.5145 56.8779C44.0821 56.8779 43.7499 56.7767 43.5176 56.5742C43.2854 56.3718 43.1692 56.1131 43.1692 55.7981C43.1692 55.6134 43.2131 55.4447 43.3008 55.2919C43.3885 55.1392 43.5034 55.0166 43.6455 54.9243C43.7875 54.8319 43.9475 54.7621 44.1254 54.7147C44.2563 54.6816 44.454 54.6496 44.7183 54.6188C45.2569 54.5572 45.6535 54.4838 45.908 54.3986C45.9104 54.3109 45.9117 54.2553 45.9117 54.2316C45.9117 53.9711 45.8486 53.7876 45.7226 53.681C45.5522 53.5366 45.2989 53.4644 44.9629 53.4644C44.6491 53.4644 44.4175 53.5171 44.268 53.6224C44.1185 53.7278 44.008 53.9143 43.9363 54.1819L43.284 54.0966C43.3433 53.8291 43.4409 53.613 43.5768 53.4484C43.7127 53.2838 43.9091 53.1571 44.1661 53.0683C44.423 52.9795 44.7208 52.9351 45.0593 52.9351C45.3953 52.9351 45.6683 52.973 45.8783 53.0488C46.0883 53.1246 46.2427 53.2199 46.3415 53.3347C46.4403 53.4496 46.5095 53.5946 46.5491 53.7699C46.5713 53.8788 46.5824 54.0753 46.5824 54.3595L46.5824 55.212C46.5824 55.8064 46.5966 56.1823 46.625 56.3398C46.6534 56.4973 46.7096 56.6482 46.7937 56.7927L46.0969 56.7927C46.0277 56.6601 45.9832 56.505 45.9635 56.3274L45.9636 56.3274ZM45.908 54.8994C45.6658 54.9941 45.3026 55.0746 44.8184 55.1409C44.5442 55.1788 44.3502 55.2215 44.2366 55.2688C44.1229 55.3162 44.0352 55.3854 43.9734 55.4766C43.9117 55.5678 43.8808 55.669 43.8808 55.7803C43.8808 55.9508 43.9481 56.0929 44.0828 56.2066C44.2174 56.3202 44.4144 56.3771 44.6739 56.3771C44.9308 56.3771 45.1594 56.3232 45.3595 56.2154C45.5596 56.1077 45.7066 55.9603 45.8005 55.7732C45.8722 55.6288 45.908 55.4156 45.908 55.1338L45.908 54.8994Z" fill="#555753" fill-rule="nonzero" opacity="1" stroke="none" vectornator:layerName="path"/>
<path d="M47.6053 56.7929L47.6053 51.5856L48.2724 51.5856L48.2724 56.7929L47.6053 56.7929Z" fill="#555753" fill-rule="nonzero" opacity="1" stroke="none" vectornator:layerName="path"/>
<path d="M52.0046 55.5781L52.6939 55.6598C52.5852 56.0458 52.3838 56.3453 52.0898 56.5585C51.7958 56.7716 51.4202 56.8782 50.9632 56.8782C50.3875 56.8782 49.931 56.7083 49.5938 56.3684C49.2565 56.0286 49.0879 55.552 49.0879 54.9387C49.0879 54.3041 49.2584 53.8116 49.5993 53.4611C49.9403 53.1106 50.3825 52.9354 50.9261 52.9354C51.4523 52.9354 51.8822 53.1071 52.2158 53.4504C52.5493 53.7938 52.7161 54.2769 52.7161 54.8997C52.7161 54.9375 52.7149 54.9944 52.7124 55.0702L49.7773 55.0702C49.802 55.4846 49.9243 55.8019 50.1442 56.0221C50.3641 56.2424 50.6383 56.3525 50.9669 56.3525C51.2115 56.3525 51.4203 56.2909 51.5933 56.1678C51.7662 56.0446 51.9033 55.8481 52.0046 55.5781L52.0046 55.5781ZM49.8143 54.5444L52.012 54.5444C51.9823 54.2271 51.8983 53.9891 51.76 53.8304C51.5475 53.5841 51.272 53.461 50.9335 53.461C50.6272 53.461 50.3696 53.5593 50.1608 53.7558C49.952 53.9524 49.8365 54.2152 49.8143 54.5444Z" fill="#555753" fill-rule="nonzero" opacity="1" stroke="none" vectornator:layerName="path"/>
</g>
<g opacity="1" vectornator:layerName="text2901">
<path d="M38.0111 55.0453L38.6892 54.9885C38.7214 55.249 38.7961 55.4627 38.9135 55.6297C39.0308 55.7966 39.213 55.9316 39.4601 56.0346C39.7072 56.1376 39.9851 56.1891 40.2939 56.1891C40.5682 56.1891 40.8103 56.1501 41.0203 56.0719C41.2303 55.9938 41.3866 55.8866 41.4891 55.7505C41.5916 55.6143 41.6429 55.4657 41.6429 55.3047C41.6429 55.1413 41.5935 54.9986 41.4947 54.8766C41.3958 54.7547 41.2328 54.6523 41.0055 54.5694C40.8597 54.5149 40.5373 54.4303 40.0382 54.3154C39.5391 54.2006 39.1896 54.0922 38.9894 53.9904C38.73 53.8602 38.5367 53.6985 38.4094 53.5055C38.2822 53.3126 38.2186 53.0965 38.2186 52.8573C38.2186 52.5945 38.2964 52.3488 38.452 52.1203C38.6077 51.8918 38.835 51.7183 39.134 51.5999C39.4329 51.4815 39.7652 51.4223 40.1309 51.4223C40.5336 51.4223 40.8888 51.4845 41.1964 51.6088C41.504 51.7331 41.7405 51.916 41.9061 52.1576C42.0716 52.3991 42.1606 52.6726 42.1729 52.9781L41.4836 53.0278C41.4468 52.6988 41.3213 52.4503 41.1076 52.2825C40.8939 52.114 40.5781 52.0301 40.1606 52.0301C39.7258 52.0301 39.4089 52.1065 39.21 52.2592C39.0111 52.4119 38.9117 52.5961 38.9117 52.8115C38.9117 52.9986 38.9821 53.1525 39.1229 53.2733C39.2613 53.3941 39.6226 53.5178 40.2069 53.6445C40.7912 53.7712 41.1921 53.8819 41.4095 53.9766C41.7258 54.1163 41.9592 54.2934 42.11 54.5077C42.2607 54.722 42.336 54.9688 42.336 55.2483C42.336 55.5253 42.2532 55.7864 42.0877 56.0315C41.9222 56.2766 41.6844 56.4673 41.3743 56.6034C41.0643 56.7396 40.7153 56.8077 40.3274 56.8077C39.8357 56.8077 39.4237 56.739 39.0914 56.6017C38.7591 56.4643 38.4985 56.2577 38.3095 55.9818C38.1204 55.7059 38.021 55.394 38.0111 55.0458L38.0111 55.0453Z" fill="#eeeeec" fill-rule="nonzero" opacity="1" stroke="none" vectornator:layerName="path"/>
<path d="M45.8088 56.2529C45.5618 56.4542 45.324 56.5963 45.0954 56.6792C44.8669 56.7621 44.6217 56.8035 44.3598 56.8035C43.9274 56.8035 43.5951 56.7023 43.3629 56.4998C43.1306 56.2973 43.0145 56.0386 43.0145 55.7237C43.0145 55.5389 43.0584 55.3702 43.1461 55.2175C43.2338 55.0647 43.3487 54.9422 43.4907 54.8498C43.6328 54.7575 43.7928 54.6876 43.9707 54.6403C44.1016 54.6071 44.2993 54.5752 44.5636 54.5444C45.1022 54.4828 45.4988 54.4094 45.7533 54.3241C45.7557 54.2365 45.7569 54.1809 45.7569 54.1572C45.7569 53.8967 45.6939 53.7132 45.5679 53.6066C45.3974 53.4622 45.1442 53.3899 44.8082 53.3899C44.4944 53.3899 44.2628 53.4426 44.1133 53.548C43.9638 53.6534 43.8532 53.8399 43.7816 54.1075L43.1293 54.0222C43.1886 53.7546 43.2862 53.5385 43.4221 53.374C43.558 53.2094 43.7544 53.0827 44.0114 52.9939C44.2683 52.9051 44.566 52.8607 44.9045 52.8607C45.2405 52.8607 45.5135 52.8986 45.7235 52.9744C45.9336 53.0501 46.088 53.1455 46.1868 53.2603C46.2856 53.3752 46.3548 53.5202 46.3943 53.6954C46.4166 53.8044 46.4277 54.0009 46.4277 54.2851L46.4277 55.1376C46.4277 55.732 46.4419 56.1079 46.4703 56.2654C46.4987 56.4228 46.5549 56.5738 46.6389 56.7183L45.9422 56.7183C45.873 56.5856 45.8285 56.4305 45.8088 56.2529L45.8088 56.2529ZM45.7532 54.825C45.5111 54.9197 45.1479 55.0002 44.6637 55.0665C44.3894 55.1044 44.1955 55.147 44.0818 55.1944C43.9682 55.2418 43.8805 55.311 43.8187 55.4022C43.7569 55.4934 43.7261 55.5946 43.7261 55.7059C43.7261 55.8764 43.7934 56.0185 43.928 56.1321C44.0627 56.2458 44.2597 56.3026 44.5192 56.3026C44.7761 56.3026 45.0047 56.2488 45.2048 56.141C45.4049 56.0333 45.5519 55.8859 45.6458 55.6988C45.7175 55.5543 45.7533 55.3412 45.7533 55.0594L45.7532 54.825Z" fill="#eeeeec" fill-rule="nonzero" opacity="1" stroke="none" vectornator:layerName="path"/>
<path d="M47.4506 56.7185L47.4506 51.5111L48.1177 51.5111L48.1177 56.7185L47.4506 56.7185Z" fill="#eeeeec" fill-rule="nonzero" opacity="1" stroke="none" vectornator:layerName="path"/>
<path d="M51.8493 55.5036L52.5386 55.5853C52.4299 55.9713 52.2285 56.2709 51.9345 56.484C51.6405 56.6972 51.2649 56.8037 50.8079 56.8037C50.2322 56.8037 49.7757 56.6338 49.4385 56.294C49.1012 55.9542 48.9326 55.4776 48.9326 54.8643C48.9326 54.2297 49.1031 53.7371 49.444 53.3867C49.785 53.0362 50.2272 52.861 50.7708 52.861C51.297 52.861 51.7269 53.0326 52.0605 53.376C52.394 53.7194 52.5608 54.2025 52.5608 54.8252C52.5608 54.8631 52.5596 54.92 52.5571 54.9957L49.622 54.9957C49.6467 55.4101 49.769 55.7275 49.9889 55.9477C50.2088 56.1679 50.483 56.278 50.8116 56.278C51.0562 56.2781 51.265 56.2165 51.438 56.0933C51.6109 55.9702 51.748 55.7737 51.8493 55.5037L51.8493 55.5036ZM49.659 54.47L51.8567 54.47C51.827 54.1527 51.743 53.9147 51.6047 53.756C51.3922 53.5097 51.1167 53.3866 50.7782 53.3866C50.4719 53.3866 50.2143 53.4848 50.0055 53.6814C49.7967 53.8779 49.6812 54.1408 49.659 54.47Z" fill="#eeeeec" fill-rule="nonzero" opacity="1" stroke="none" vectornator:layerName="path"/>
</g>
</g>
</svg>
