<svg height="512" viewBox="0 0 128 128" width="512" xmlns="http://www.w3.org/2000/svg"><g><path d="m110 102.223a13 13 0 0 0 -9.908-11.269l-24.171-5.773-.958-11.273a36.492 36.492 0 0 1 -4.963 3.064 13.191 13.191 0 0 1 -11.992 0 36.372 36.372 0 0 1 -4.963-3.063l-.957 11.272-24.182 5.773a13 13 0 0 0 -9.906 11.269l-2.072 19.47h96.146z" fill="#6e5a64"/><path d="m88.759 28.977s0-22.67-24.759-22.67-24.759 22.67-24.759 22.67 9.422-2.951 24.759-2.951 24.759 2.951 24.759 2.951z" fill="#ffd164"/><path d="m39.241 44.792s-5.592-2.682-7.473 2.264c-1.452 3.82 1.087 11.13 9.107 9.594h46.25c8.019 1.536 10.559-5.774 9.107-9.594-1.881-4.946-7.473-2.264-7.473-2.264z" fill="#feb983"/><path d="m39.319 35.518q-.078.976-.078 1.974v7.3c0 19.472 11.435 28.436 18.763 32.18a13.191 13.191 0 0 0 11.992 0c7.328-3.744 18.763-12.708 18.763-32.18v-7.3q0-1-.078-1.974z" fill="#fcd0a3"/><path d="m88.759 28.977 6.356 6.541h-62.23l6.356-6.541s9.422-2.951 24.759-2.951 24.759 2.951 24.759 2.951z" fill="#ffe17d"/><path d="m70.56 6.92-2.59 19.17c-1.28-.04-2.6-.06-3.97-.06s-2.69.02-3.97.06l-2.59-19.17a35.578 35.578 0 0 1 13.12 0z" fill="#ffe17d"/><path d="m95.094 121.693v-31.933l-19.173-4.579-11.921 36.512-11.921-36.512-19.173 4.579v31.933z" fill="#ff9664"/><path d="m74.96 73.908a36.492 36.492 0 0 1 -4.96 3.064 13.191 13.191 0 0 1 -11.992 0 36.372 36.372 0 0 1 -4.963-3.063l-.962 11.272 2.294 7.032a11.923 11.923 0 0 0 19.251 0l2.3-7.036-.958-11.273z" fill="#feb983"/><path d="m87.73 54.327a33.235 33.235 0 0 1 -17.73 22.64 13.138 13.138 0 0 1 -11.99 0 33.244 33.244 0 0 1 -17.74-22.64l3.64 1.04a6.941 6.941 0 0 1 3.06 1.82l4.26 4.32a2 2 0 0 0 3.14-.37l.38-.63a8.974 8.974 0 0 1 7.71-4.36h3.09a8.987 8.987 0 0 1 7.71 4.36l.38.63a2 2 0 0 0 3.14.37l4.26-4.32a6.941 6.941 0 0 1 3.06-1.82z" fill="#cd916e"/><g><path d="m60.527 65.317h6.946a1.75 1.75 0 0 0 0-3.5h-6.946a1.75 1.75 0 0 0 0 3.5z"/><path d="m50.262 43.954a1.734 1.734 0 0 0 1.174-.454 4.674 4.674 0 0 1 2.8-.783 4.589 4.589 0 0 1 2.823.8 1.751 1.751 0 0 0 2.33-2.613 7.841 7.841 0 0 0 -5.153-1.691 7.837 7.837 0 0 0 -5.153 1.691 1.75 1.75 0 0 0 1.177 3.046z"/><path d="m54.238 45.792a2.415 2.415 0 1 0 2.415 2.415 2.414 2.414 0 0 0 -2.415-2.415z"/><path d="m70.935 43.523a5.361 5.361 0 0 1 5.651 0 1.75 1.75 0 0 0 2.329-2.613 8.7 8.7 0 0 0 -10.306 0 1.734 1.734 0 0 0 -.13 2.432 1.768 1.768 0 0 0 2.456.181z"/><path d="m73.762 45.792a2.415 2.415 0 1 0 2.414 2.415 2.415 2.415 0 0 0 -2.414-2.415z"/><path d="m113.813 121.508-1.363-12.8a1.75 1.75 0 1 0 -3.48.371l1.363 12.8a1.75 1.75 0 0 0 1.738 1.564c.062 0 .124 0 .188-.009a1.75 1.75 0 0 0 1.554-1.926z"/><path d="m110.041 101.619a1.75 1.75 0 0 0 1.187-2.172 14.7 14.7 0 0 0 -2.222-4.519 1.75 1.75 0 1 0 -2.832 2.056 11.229 11.229 0 0 1 1.695 3.448 1.749 1.749 0 0 0 2.172 1.187z"/><path d="m100.079 89.151-22.521-5.379-.769-9.059a34.388 34.388 0 0 0 11.553-16.149c.291.021.582.043.865.043a8.772 8.772 0 0 0 6.952-3.08 9.528 9.528 0 0 0 1.708-9.092 6.109 6.109 0 0 0 -3.421-3.67 7.291 7.291 0 0 0 -3.937-.32v-4.953c0-.074-.008-.15-.009-.224h4.614a1.75 1.75 0 0 0 1.255-2.97l-5.9-6.068c-.279-4.085-2.875-23.673-26.469-23.673-7.933 0-14.3 2.229-18.915 6.626a1.75 1.75 0 1 0 2.415 2.535 19.645 19.645 0 0 1 8.468-4.636l2.072 15.346a95.537 95.537 0 0 0 -16.833 2.226 25.393 25.393 0 0 1 1.679-6.118 1.75 1.75 0 1 0 -3.227-1.353 28.624 28.624 0 0 0 -2.139 9.054l-5.889 6.063a1.75 1.75 0 0 0 1.255 2.97h4.614c0 .074-.009.15-.009.224v4.953a7.291 7.291 0 0 0 -3.937.32 6.109 6.109 0 0 0 -3.421 3.67 9.528 9.528 0 0 0 1.708 9.092 8.765 8.765 0 0 0 6.952 3.08c.283 0 .574-.022.865-.043a34.388 34.388 0 0 0 11.553 16.147l-.769 9.059-22.942 5.48a14.776 14.776 0 0 0 -11.241 12.785l-2.073 19.471a1.751 1.751 0 0 0 1.555 1.926c.064.006.126.009.188.009a1.751 1.751 0 0 0 1.738-1.564l2.072-19.471a11.272 11.272 0 0 1 8.573-9.752l2.844-.679v29.716a1.75 1.75 0 0 0 3.5 0v-30.552l16.26-3.883 11.42 34.978a1.751 1.751 0 0 0 3.328 0l11.42-34.978 16.26 3.883v30.552a1.75 1.75 0 0 0 3.5 0v-29.716l2.423.579a1.779 1.779 0 0 0 .407.047 1.75 1.75 0 0 0 .4-3.452zm-6.921-43.132a2.653 2.653 0 0 1 1.438 1.66 6.047 6.047 0 0 1 -1.118 5.6 5.286 5.286 0 0 1 -4.13 1.827 43.612 43.612 0 0 0 1.137-9.07 4.447 4.447 0 0 1 2.673-.017zm-6.342-19.36a95.5 95.5 0 0 0 -16.855-2.231l2.073-15.352c11.456 3.18 14.153 13.03 14.782 17.583zm-27.416-18.288a33.379 33.379 0 0 1 4.6-.314 33.046 33.046 0 0 1 4.6.316l-2.154 15.932c-.8-.016-1.61-.029-2.446-.029s-1.646.013-2.446.029zm-19.226 22.157a93.042 93.042 0 0 1 23.826-2.752 93.469 93.469 0 0 1 23.827 2.753l3.147 3.239h-53.948zm46.826 6.74c0 .074.009.15.009.224v7.3a41.242 41.242 0 0 1 -.779 8.146l-2.616.747a8.789 8.789 0 0 0 -3.83 2.274l-4.257 4.322a.258.258 0 0 1 -.208.073.237.237 0 0 1 -.185-.121l-.376-.625a10.807 10.807 0 0 0 -9.214-5.208h-3.088a10.806 10.806 0 0 0 -9.213 5.212l-.378.627a.235.235 0 0 1 -.184.12.249.249 0 0 1 -.207-.072l-4.258-4.324a8.8 8.8 0 0 0 -3.83-2.273l-2.616-.747a41.242 41.242 0 0 1 -.779-8.146v-7.3c0-.074.008-.15.009-.224zm-52.479 16.009a6.049 6.049 0 0 1 -1.117-5.6 2.65 2.65 0 0 1 1.438-1.66 4.451 4.451 0 0 1 2.672.015 43.551 43.551 0 0 0 1.138 9.07 5.289 5.289 0 0 1 -4.131-1.825zm8.279 3.6.623.178a5.28 5.28 0 0 1 2.3 1.363l4.258 4.324a3.721 3.721 0 0 0 2.663 1.118 3.641 3.641 0 0 0 .452-.027 3.721 3.721 0 0 0 2.769-1.791l.378-.627a7.288 7.288 0 0 1 6.213-3.515h3.088a7.29 7.29 0 0 1 6.215 3.517l.376.625a3.749 3.749 0 0 0 5.885.7l4.258-4.322a5.273 5.273 0 0 1 2.3-1.364l.623-.178a31.75 31.75 0 0 1 -16 18.54 11.457 11.457 0 0 1 -10.4 0 31.75 31.75 0 0 1 -16.001-18.545zm14.408 21.653a14.966 14.966 0 0 0 13.584 0c.836-.427 1.739-.931 2.679-1.512l.676 7.957-2.087 6.392a10.144 10.144 0 0 1 -16.12 0l-2.087-6.392.676-7.957c.94.582 1.842 1.082 2.679 1.512zm6.792 37.525-6.088-18.647a13.556 13.556 0 0 0 12.176 0z"/></g></g></svg>