<svg height="512" viewBox="0 0 64 64" width="512" xmlns="http://www.w3.org/2000/svg"><g id="_1" data-name="1"><path d="m41 15a9.037 9.037 0 0 1 -12 8.48c-7.939-2.759-7.939-14.2 0-16.96a9.038 9.038 0 0 1 12 8.48z" fill="#fee265"/><path d="m31 23.48c-8.934-3.2-7.433-16.321 2-17.418a8.994 8.994 0 1 0 0 17.876 8.723 8.723 0 0 1 -2-.458z" fill="#f2f0f2"/><path d="m10 30a3 3 0 0 0 0 6 3 3 0 0 0 0-6z" fill="#918291"/><path d="m59 27h-2.7l-7.36 12h11.06v-11a1 1 0 0 0 -1-1zm-54 0a1 1 0 0 0 -1 1v11h29.99l6.51-12zm7.94 6.59a3 3 0 0 1 -5.88-1.18 3 3 0 0 1 5.88 1.18zm19.05-.39a1.928 1.928 0 0 1 -.08.39 2.132 2.132 0 0 1 -2.02 1.41h-11.89a2 2 0 0 1 0-4h12a2.009 2.009 0 0 1 1.99 2.2z" fill="#918291"/><path d="m59 27h-2.7l-.033.054a.991.991 0 0 1 .733.946v11h3v-11a1 1 0 0 0 -1-1z" fill="#7f737f"/><path d="m4 39h29.99l-2.71 5h-27.28z" fill="#ee3e82"/><path d="m7 27h-2a1 1 0 0 0 -1 1v11h2v-11a1 1 0 0 1 1-1z" fill="#c9c7c8"/><path d="m57.3 27-7.36 12h2l7.36-12z" fill="#7f737f"/><path d="m4 39h2v5h-2z" fill="#f2f0f2"/><path d="m60 39v5h-14.12l3.06-5z" fill="#ee3e82"/><path d="m57 39h3v5h-3z" fill="#ed2068"/><path d="m48.94 39-3.06 5h3l3.06-5z" fill="#ed2068"/><path d="m15 44h-8a4 4 0 0 0 8 0z" fill="#918291"/><path d="m57 44h-8a4 4 0 0 0 8 0z" fill="#918291"/><path d="m13 33a3 3 0 0 1 -6 0 3 3 0 0 1 6 0z" fill="#fee265"/><path d="m32 33a2.006 2.006 0 0 1 -2 2h-12a1.976 1.976 0 0 1 -.73-.14 2.005 2.005 0 0 1 .73-3.86h12a2.006 2.006 0 0 1 2 2z" fill="#6ac397"/><path d="m9 33a2.986 2.986 0 0 1 2-2.817 2.992 2.992 0 1 0 0 5.634 2.986 2.986 0 0 1 -2-2.817z" fill="#f2f0f2"/><path d="m18.59 34.41a2.008 2.008 0 0 1 1.41-3.41h-2a2 2 0 0 0 0 4h2a1.966 1.966 0 0 1 -1.41-.59z" fill="#f2f0f2"/><path d="m47.07 14.89c-5.654 10.428-13 23.964-18.63 34.34-3.54 6.97 6.242 12.633 10.51 6.07l20.42-33.31zm2.72 16.6a3.551 3.551 0 0 1 -6.15-3.55 3.551 3.551 0 0 1 6.15 3.55z" fill="#a3ddf3"/><path d="m47.07 14.89-.3.557 9.6 5.543c-3.612 5.899-9.882 16.11-13.49 22.01l-6.93 11.3a6.052 6.052 0 0 1 -5.514 2.884 6.054 6.054 0 0 0 8.514-1.884l6.93-11.3c3.609-5.9 9.877-16.109 13.49-22.01z" fill="#38bfef"/><path d="m30.44 50.23c5.605-10.324 12.937-23.85 18.566-34.222l-1.936-1.118c-3.264 6.018-9.819 18.1-13.08 24.11-1.378 2.545-4.166 7.682-5.55 10.23a6.082 6.082 0 0 0 3.669 8.726 6.063 6.063 0 0 1 -1.669-7.726z" fill="#f2f0f2"/><path d="m49.79 31.49a3.551 3.551 0 0 1 -6.15-3.55 3.551 3.551 0 0 1 6.15 3.55z" fill="#ee3e82"/><path d="m45.64 28.94a3.57 3.57 0 0 1 3.56-1.735 3.541 3.541 0 1 0 -2.974 6.022 3.541 3.541 0 0 1 -.586-4.287z" fill="#f2f0f2"/><g fill="#38bfef"><path d="m52.457 23.464 1.473.85"/><path d="m47.781 20.764 1.547.893"/><path d="m44.173 37.812 1.473.85"/><path d="m39.497 35.112 1.547.893"/></g></g><g id="Layer_4" data-name="Layer 4"><path d="m28.66 24.42c6.252 2.411 13.516-2.712 13.34-9.42.149-6.73-7.072-11.817-13.332-9.423-8.827 3.103-8.828 15.739-.008 18.843zm.68-16.96a8 8 0 1 1 -.009 15.076c-7.049-2.442-7.048-12.636.009-15.076zm29.66 18.54h-.915l2.138-3.487a1.007 1.007 0 0 0 -.353-1.389l-12.3-7.1a1 1 0 0 0 -1.379.389l-6.286 11.587h-34.905a2 2 0 0 0 -2 2v16a1 1 0 0 0 1 1h2.1a5.011 5.011 0 0 0 9.8 0h13.7l-2.036 3.752c-4.089 8.084 7.247 14.759 12.242 7.071l6.631-10.823h1.663a5.011 5.011 0 0 0 9.8 0h2.1a1 1 0 0 0 1-1v-16a2 2 0 0 0 -2-2zm-2.141 2h2.141v10h-8.271c1.023-1.67 5.192-8.471 6.13-10zm-51.859 0h33.82l-5.426 10h-28.394zm6 19a3.006 3.006 0 0 1 -2.829-2h5.658a3.006 3.006 0 0 1 -2.829 2zm4-4h-10v-3h27.309l-1.627 3zm23.1 11.778c-3.554 5.5-11.716.75-8.778-5.071 5.484-10.107 12.629-23.285 18.137-33.437l10.522 6.073c-5.875 9.581-13.974 22.794-19.881 32.435zm14.9-7.778a3.006 3.006 0 0 1 -2.829-2h5.658a3.006 3.006 0 0 1 -2.829 2zm6-4h-11.335c.409-.669 1.417-2.314 1.838-3h9.497zm-26.016-9.689a3.014 3.014 0 0 0 -2.984-3.311h-12a3.006 3.006 0 0 0 -1.1 5.791c-.029.412 12.556.134 12.986.209a3.064 3.064 0 0 0 3.098-2.689zm-14.984.689a1 1 0 0 1 0-2h12a1 1 0 1 1 -.11 2zm-4.013-1.123a4 4 0 0 0 -7.987.123 4 4 0 1 0 7.987-.123zm-2.275 1.142a1.992 1.992 0 0 1 -3.425-2.036 1.992 1.992 0 0 1 3.425 2.036zm32.728-.363c5.269 2.867 9.688-4.769 4.551-7.881-5.271-2.865-9.669 4.751-4.551 7.881zm.06-5.206a2.551 2.551 0 0 1 4.424 2.539 2.551 2.551 0 0 1 -4.424-2.539zm7.091-5.487a1 1 0 0 1 1.366-.366l1.473.851a1 1 0 0 1 .366 1.366c-.757 1.189-2.015-.1-2.839-.484a1 1 0 0 1 -.366-1.367zm-4.676-2.7a1 1 0 0 1 1.366-.366l1.547.893a1 1 0 0 1 -1 1.732l-1.547-.893a1 1 0 0 1 -.366-1.365zm-1.269 19.4c-.39.06-1.629-.832-1.973-.984a1 1 0 0 1 1-1.733l1.473.851a1.006 1.006 0 0 1 -.5 1.865zm-3.737-3.157a1 1 0 0 1 -1.366.366l-1.543-.894a1 1 0 0 1 1-1.732l1.546.893a1 1 0 0 1 .363 1.366zm-15.909-23.506a1 1 0 0 1 1-1h3.636a1 1 0 0 1 0 2h-.818v4.455a1 1 0 0 1 -2 0v-4.455h-.818a1 1 0 0 1 -1-1zm6.415.316a1 1 0 0 1 1.9-.632l.869 2.608.869-2.608a1 1 0 0 1 1.9.632l-1.823 5.455a1 1 0 0 1 -1.8.188c-.036-.062-.066-.125-.1-.188z" fill="#3b132c"/></g></svg>