<svg id="Layer_1" enable-background="new 0 0 2048 2048" height="512" viewBox="0 0 2048 2048" width="512" xmlns="http://www.w3.org/2000/svg"><g><g><g><g id="XMLID_1_"><path d="m707.1 615.77c.28 47.66-38.12 86.51-85.78 86.79-47.65.28-86.5-38.13-86.78-85.78s38.13-86.51 85.78-86.78c47.65-.28 86.5 38.12 86.78 85.77z" fill="#ffc100"/><g fill="#b3caff"><path d="m1730.81 906.94c0 15.6-6.32 29.72-16.54 39.95-10.23 10.22-24.35 16.55-39.95 16.55h-157.98c-31.2 0-56.49-25.3-56.49-56.5 0-15.6 6.32-29.73 16.54-39.95 10.23-10.22 24.35-16.55 39.95-16.55h3.35c0-41.77 33.87-75.63 75.64-75.63s75.64 33.86 75.64 75.63h3.35c31.2 0 56.49 25.3 56.49 56.5z"/><path d="m1516.17 598.1c0 15.61-6.33 29.73-16.55 39.96-10.22 10.22-24.35 16.54-39.95 16.54h-157.97c-31.21 0-56.5-25.29-56.5-56.5 0-15.6 6.32-29.72 16.55-39.95 10.22-10.22 24.35-16.54 39.95-16.54h3.35c0-41.78 33.86-75.64 75.63-75.64 41.78 0 75.64 33.86 75.64 75.64h3.35c31.2 0 56.5 25.29 56.5 56.49z"/><path d="m550.97 1001.26c0 15.6-6.33 29.72-16.55 39.95-10.22 10.22-24.35 16.55-39.95 16.55h-157.97c-31.2 0-56.5-25.3-56.5-56.5 0-15.61 6.32-29.73 16.55-39.96 10.22-10.22 24.35-16.54 39.95-16.54h3.35c0-41.77 33.86-75.64 75.63-75.64 41.78 0 75.64 33.87 75.64 75.64h3.35c31.2 0 56.5 25.29 56.5 56.5z"/></g><path d="m392.7 1450.49v186.83h-74.37v-186.83h37.19z" fill="#e67e46"/><path d="m1768 1450.49v186.83h-74.37v-186.83h37.18z" fill="#e67e46"/><path d="m1043.17 1138.32 168.57 499h-337.15z" fill="#995d20"/><path d="m1043.17 615.18 569.98 1022.14h-401.41l103.46-146.09-272.03-352.91-272.03 352.91 103.45 146.09h-401.41zm70.6 435.78v-119.35h-141.21v119.35z" fill="#ffcf83"/><path d="m1043.17 1138.32 272.03 352.91-103.46 146.09z" fill="#e68b31"/><path d="m972.56 931.61h141.21v119.35h-141.21z" fill="#e68b31"/><path d="m1043.17 1138.32-168.58 499-103.45-146.09z" fill="#e68b31"/></g></g></g><g><g><g><g><path d="m1613.15 1661.32h-1139.97c-8.51 0-16.38-4.51-20.69-11.85s-4.41-16.41-.27-23.84l569.98-1022.14c4.24-7.6 12.26-12.31 20.96-12.31s16.72 4.71 20.96 12.31l569.98 1022.14c4.15 7.43 4.04 16.5-.27 23.84-4.3 7.35-12.17 11.85-20.68 11.85zm-1099.1-48h1058.24l-529.12-948.86z" fill="#333"/></g><g><path d="m1211.74 1661.32h-337.15c-7.73 0-14.99-3.72-19.5-10.01s-5.71-14.35-3.24-21.68l168.57-499c3.29-9.75 12.44-16.32 22.74-16.32s19.44 6.57 22.74 16.32l168.57 499c2.47 7.33 1.27 15.39-3.24 21.68s-11.76 10.01-19.49 10.01zm-303.71-48h270.27l-135.13-400.02z" fill="#333"/></g><g><path d="m1211.72 1661.32c-4.8 0-9.64-1.43-13.85-4.42-10.82-7.66-13.38-22.64-5.72-33.46l93.21-131.62-261.2-338.86c-8.09-10.5-6.14-25.57 4.36-33.66s25.57-6.14 33.66 4.36l272.03 352.91c6.43 8.35 6.67 19.92.58 28.52l-103.46 146.09c-4.68 6.62-12.09 10.14-19.61 10.14z" fill="#333"/></g><g><path d="m874.61 1661.32c-7.52 0-14.93-3.53-19.61-10.13l-103.45-146.09c-6.09-8.6-5.86-20.17.58-28.52l272.03-352.91c8.09-10.5 23.16-12.45 33.66-4.36s12.45 23.16 4.36 33.66l-261.2 338.86 93.21 131.62c7.66 10.82 5.1 25.8-5.72 33.46-4.22 2.98-9.06 4.41-13.86 4.41z" fill="#333"/></g><g><path d="m1113.77 1074.96h-141.21c-13.25 0-24-10.75-24-24v-119.35c0-13.25 10.75-24 24-24h141.21c13.25 0 24 10.75 24 24v119.35c0 13.25-10.74 24-24 24zm-117.21-48h93.21v-71.35h-93.21z" fill="#333"/></g></g><g><g><path d="m1768 1661.32h-74.37c-13.25 0-24-10.75-24-24v-186.84c0-13.25 10.75-24 24-24h74.37c13.25 0 24 10.75 24 24v186.84c0 13.26-10.75 24-24 24zm-50.37-48h26.37v-138.84h-26.37z" fill="#333"/></g><g><path d="m392.7 1661.32h-74.37c-13.25 0-24-10.75-24-24v-186.84c0-13.25 10.75-24 24-24h74.37c13.25 0 24 10.75 24 24v186.84c0 13.26-10.74 24-24 24zm-50.37-48h26.37v-138.84h-26.37z" fill="#333"/></g></g><g><path d="m1730.83 1474.49c-6.93 0-13.8-2.98-18.54-8.75l-669.12-812.8-669.12 812.8c-8.42 10.23-23.55 11.7-33.78 3.28s-11.7-23.55-3.28-33.78l687.65-835.3c4.56-5.54 11.36-8.75 18.53-8.75s13.97 3.21 18.53 8.75l687.65 835.3c8.42 10.23 6.96 25.36-3.28 33.78-4.47 3.67-9.87 5.47-15.24 5.47z" fill="#333"/></g></g><g><g><path d="m622.02 845.88c-13.19 0-23.92-10.65-24-23.86l-.23-40.09c-.08-13.25 10.6-24.06 23.86-24.14h.14c13.19 0 23.92 10.65 24 23.86l.23 40.09c.08 13.25-10.6 24.06-23.86 24.14-.05 0-.1 0-.14 0z" fill="#333"/></g><g><g><path d="m620.8 726.56c-29.21 0-56.71-11.29-77.51-31.85-20.95-20.71-32.58-48.34-32.75-77.79-.17-29.46 11.14-57.22 31.85-78.17s48.33-32.58 77.79-32.75c29.49-.2 57.22 11.14 78.17 31.85s32.58 48.33 32.75 77.79c.35 60.81-48.83 110.57-109.64 110.92-.22 0-.44 0-.66 0zm.03-172.57c-.12 0-.25 0-.37 0-16.64.1-32.24 6.67-43.93 18.5s-18.08 27.51-17.99 44.15c.1 16.64 6.67 32.24 18.5 43.93s27.53 18.04 44.15 17.99c34.34-.2 62.12-28.3 61.92-62.65-.1-16.64-6.67-32.24-18.5-43.93-11.75-11.61-27.28-17.99-43.78-17.99z" fill="#333"/></g><g><path d="m767.05 784.81c-6.1 0-12.19-2.31-16.87-6.93l-28.51-28.18c-9.43-9.32-9.52-24.51-.2-33.94s24.51-9.52 33.94-.2l28.51 28.18c9.43 9.32 9.52 24.51.2 33.94-4.7 4.75-10.88 7.13-17.07 7.13z" fill="#333"/></g><g><path d="m786.33 639.31c-13.19 0-23.92-10.65-24-23.86-.08-13.25 10.6-24.06 23.86-24.14l40.09-.23h.14c13.19 0 23.92 10.65 24 23.86.08 13.25-10.6 24.06-23.86 24.14l-40.09.23c-.05 0-.1 0-.14 0z" fill="#333"/></g><g><path d="m737.17 522.56c-6.1 0-12.19-2.31-16.87-6.93-9.43-9.32-9.52-24.51-.2-33.94l28.18-28.51c9.32-9.43 24.51-9.52 33.94-.2s9.52 24.51.2 33.94l-28.18 28.51c-4.69 4.75-10.88 7.13-17.07 7.13z" fill="#333"/></g><g><path d="m619.85 474.77c-13.19 0-23.92-10.65-24-23.86l-.23-40.09c-.08-13.25 10.6-24.06 23.86-24.14h.14c13.19 0 23.92 10.65 24 23.86l.23 40.09c.08 13.25-10.6 24.06-23.86 24.14-.04 0-.09 0-.14 0z" fill="#333"/></g><g><path d="m503.11 523.93c-6.1 0-12.19-2.31-16.87-6.93l-28.51-28.18c-9.43-9.32-9.52-24.51-.2-33.94s24.51-9.52 33.94-.2l28.51 28.18c9.43 9.32 9.52 24.51.2 33.94-4.7 4.75-10.89 7.13-17.07 7.13z" fill="#333"/></g><g><path d="m415.22 641.47c-13.19 0-23.92-10.65-24-23.86-.08-13.25 10.6-24.06 23.86-24.14l40.09-.23h.14c13.19 0 23.92 10.65 24 23.86.08 13.25-10.6 24.06-23.86 24.14l-40.09.23c-.04 0-.09 0-.14 0z" fill="#333"/></g><g><path d="m476.29 786.5c-6.1 0-12.19-2.31-16.87-6.93-9.43-9.32-9.52-24.51-.2-33.94l28.18-28.51c9.32-9.43 24.51-9.52 33.94-.2s9.52 24.51.2 33.94l-28.18 28.51c-4.7 4.75-10.88 7.13-17.07 7.13z" fill="#333"/></g></g></g><g><g><path d="m1674.32 987.44h-157.97c-44.39 0-80.5-36.11-80.5-80.5 0-21.5 8.37-41.71 23.58-56.92 10.81-10.81 24.16-18.17 38.71-21.52 10.02-44.42 49.8-77.69 97.2-77.69 47.41 0 87.2 33.29 97.21 77.72 35.64 8.28 62.28 40.29 62.28 78.42 0 21.5-8.37 41.71-23.57 56.92-15.23 15.2-35.44 23.57-56.94 23.57zm-157.98-113c-8.68 0-16.84 3.38-22.98 9.52s-9.52 14.3-9.52 22.98c0 17.92 14.58 32.5 32.5 32.5h157.97c8.68 0 16.84-3.38 22.98-9.52s9.52-14.3 9.52-22.98c0-17.92-14.58-32.5-32.5-32.5h-3.35c-13.25 0-24-10.75-24-24 0-28.47-23.17-51.64-51.64-51.64s-51.64 23.16-51.64 51.64c0 13.25-10.75 24-24 24z" fill="#333"/></g></g><g><g><path d="m1459.67 678.6h-157.97c-44.39 0-80.5-36.11-80.5-80.5 0-21.5 8.37-41.71 23.58-56.92 10.81-10.81 24.16-18.17 38.71-21.52 10.02-44.42 49.8-77.69 97.2-77.69 47.41 0 87.2 33.29 97.21 77.72 35.64 8.28 62.28 40.29 62.28 78.42 0 21.5-8.37 41.71-23.57 56.92-15.22 15.2-35.44 23.57-56.94 23.57zm-157.97-112.99c-8.68 0-16.84 3.38-22.98 9.52s-9.52 14.3-9.52 22.98c0 17.92 14.58 32.5 32.5 32.5h157.97c8.68 0 16.84-3.38 22.98-9.52s9.52-14.3 9.52-22.98c0-17.92-14.58-32.5-32.5-32.5h-3.35c-13.25 0-24-10.75-24-24 0-28.47-23.17-51.64-51.64-51.64s-51.64 23.16-51.64 51.64c0 13.25-10.75 24-24 24z" fill="#333"/></g></g><g><g><path d="m494.47 1081.76h-157.97c-44.39 0-80.5-36.11-80.5-80.5 0-21.5 8.37-41.71 23.58-56.92 10.81-10.81 24.16-18.17 38.71-21.52 10.02-44.42 49.8-77.69 97.2-77.69 47.41 0 87.2 33.29 97.21 77.72 35.64 8.28 62.28 40.29 62.28 78.42 0 21.5-8.37 41.71-23.57 56.92-15.22 15.19-35.44 23.57-56.94 23.57zm-157.97-113c-8.68 0-16.84 3.38-22.98 9.52s-9.52 14.3-9.52 22.98c0 17.92 14.58 32.5 32.5 32.5h157.97c8.68 0 16.84-3.38 22.98-9.52s9.52-14.3 9.52-22.98c0-17.92-14.58-32.5-32.5-32.5h-3.35c-13.25 0-24-10.75-24-24 0-28.47-23.16-51.64-51.64-51.64-28.47 0-51.64 23.16-51.64 51.64 0 13.25-10.75 24-24 24z" fill="#333"/></g></g></g></g></svg>