<svg height="512" viewBox="0 0 24 24" width="512" xmlns="http://www.w3.org/2000/svg"><g id="Layer_2" data-name="Layer 2"><path d="m17.5 11h-3a1.5 1.5 0 0 1 -1.5-1.5v-3a4.5 4.5 0 1 1 4.5 4.5zm-2.5-2h2.5a2.5 2.5 0 1 0 -2.5-2.5z" fill="#232323"/><path d="m17.5 22a4.51 4.51 0 0 1 -4.5-4.5v-3.5a1 1 0 0 1 2 0v3.5a2.5 2.5 0 1 0 2.5-2.5h-.5a1 1 0 0 1 0-2h.5a4.5 4.5 0 0 1 0 9z" fill="#7fbde7"/><g fill="#232323"><path d="m9.5 11h-3a4.5 4.5 0 1 1 4.5-4.5v3a1.5 1.5 0 0 1 -1.5 1.5zm-3-7a2.5 2.5 0 0 0 0 5h2.5v-2.5a2.5 2.5 0 0 0 -2.5-2.5z"/><path d="m6.5 22a4.5 4.5 0 0 1 0-9h3a1.5 1.5 0 0 1 1.5 1.5v3a4.51 4.51 0 0 1 -4.5 4.5zm0-7a2.5 2.5 0 1 0 2.5 2.5v-2.5z"/></g></g></svg>