<svg id="Capa_1" enable-background="new 0 0 512 512" height="512" viewBox="0 0 512 512" width="512" xmlns="http://www.w3.org/2000/svg"><g><g><path d="m60 76v60l85 10 85-10v-60c0-8.284-6.716-15-15-15h-55l-15 10-15-10h-55c-8.284 0-15 6.716-15 15z" fill="#fff375"/></g><path d="m230 76c0-8.284-6.716-15-15-15h-55l-15 10v75l85-10z" fill="#ffd400"/><g><path d="m40 151v60l105 10 105-10v-60c0-8.284-6.716-15-15-15h-180c-8.284 0-15 6.716-15 15z" fill="#ffd400"/></g><g><path d="m235 136h-90v85l105-10v-60c0-8.284-6.716-15-15-15z" fill="#ff9f00"/></g><g><path d="m20 226v60l125 10 125-10v-60c0-8.284-6.716-15-15-15h-220c-8.284 0-15 6.716-15 15z" fill="#fff375"/></g><g><path d="m255 211h-110v85l125-10v-60c0-8.284-6.716-15-15-15z" fill="#ffd400"/></g><path d="m130 61v233.8l15 1.2 15-1.2v-233.8z" fill="#af8663"/><g><path d="m145 61v235l15-1.2v-233.8z" fill="#896645"/></g><g><path d="m332 386v-100h-317c-8.284 0-15 6.716-15 15v85c0 8.284 6.716 15 15 15h287z" fill="#bee75e"/></g><g><path d="m145 286v115h157l30-15v-100z" fill="#57c126"/></g><g><path d="m105 341c-30.327 0-55 24.673-55 55s24.673 55 55 55 55-24.673 55-55-24.673-55-55-55z" fill="#896645"/><path d="m105 451c30.327 0 55-24.673 55-55s-24.673-55-55-55z" fill="#734536"/><circle cx="105" cy="396" fill="#f9f9f9" r="25"/><path d="m105 371c13.785 0 25 11.215 25 25s-11.215 25-25 25z" fill="#e2dff4"/></g><g><path d="m407 121h-90c-8.284 0-15 6.716-15 15v110l16 15h162.295l-59.639-131.207c-2.435-5.355-7.774-8.793-13.656-8.793z" fill="#009859"/><g><path d="m397.341 151h-65.341v110h115.341z" fill="#00cef5"/></g></g><g><path d="m302 246v155h195c8.284 0 15-6.716 15-15v-100c0-22.091-17.909-40-40-40z" fill="#009859"/></g><g><path d="m407 341c-30.327 0-55 24.673-55 55s24.673 55 55 55 55-24.673 55-55-24.673-55-55-55z" fill="#896645"/><path d="m407 451c30.327 0 55-24.673 55-55s-24.673-55-55-55z" fill="#734536"/><circle cx="407" cy="396" fill="#f9f9f9" r="25"/><path d="m407 371c13.785 0 25 11.215 25 25s-11.215 25-25 25z" fill="#e2dff4"/></g></g></svg>