<?xml version="1.0" encoding="UTF-8" standalone="no"?>
<!DOCTYPE svg PUBLIC "-//W3C//DTD SVG 1.1//EN" "http://www.w3.org/Graphics/SVG/1.1/DTD/svg11.dtd">
<!-- Created with Vectornator (http://vectornator.io/) -->
<svg height="100%" stroke-miterlimit="10" style="fill-rule:nonzero;clip-rule:evenodd;stroke-linecap:round;stroke-linejoin:round;" version="1.1" viewBox="0 0 64 64" width="100%" xml:space="preserve" xmlns="http://www.w3.org/2000/svg" xmlns:vectornator="http://vectornator.io" xmlns:xlink="http://www.w3.org/1999/xlink">
<defs>
<linearGradient gradientTransform="matrix(0.590945 0 0 0.675509 26.9959 27.345)" gradientUnits="userSpaceOnUse" id="LinearGradient" x1="14.148" x2="11.257" y1="43.031" y2="25.836">
<stop offset="0" stop-color="#f57900"/>
<stop offset="1" stop-color="#f57900" stop-opacity="0"/>
</linearGradient>
</defs>
<g id="layer1" vectornator:layerName="layer1">
<path d="M36.9409 21.9282L51.9528 21.9282C53.3899 21.9282 54.5549 23.0932 54.5549 24.5303L54.5549 59.1587C54.5549 60.5958 53.3899 61.7608 51.9528 61.7608L36.9409 61.7608C35.5038 61.7608 34.3388 60.5958 34.3388 59.1587L34.3388 24.5303C34.3388 23.0932 35.5038 21.9282 36.9409 21.9282Z" fill="#5d6c53" fill-rule="nonzero" opacity="1" stroke="#866969" stroke-linecap="butt" stroke-linejoin="round" stroke-width="0.32944" vectornator:layerName="rect"/>
<path d="M34.0367 21.03L53.2423 21.03C53.5216 21.03 53.748 21.2564 53.748 21.5357L53.748 60.3573C53.748 60.6366 53.5216 60.863 53.2423 60.863L34.0367 60.863C33.7574 60.863 33.531 60.6366 33.531 60.3573L33.531 21.5357C33.531 21.2564 33.7574 21.03 34.0367 21.03Z" fill="#90a8ac" fill-rule="nonzero" opacity="1" stroke="#866969" stroke-linecap="butt" stroke-linejoin="round" stroke-width="1.1531" vectornator:layerName="rect"/>
<path d="M37.9791 25.9309L49.2968 25.9309C50.3803 25.9309 51.2587 26.8092 51.2587 27.8927L51.2587 53.9992C51.2587 55.0827 50.3803 55.961 49.2968 55.961L37.9791 55.961C36.8956 55.961 36.0173 55.0827 36.0173 53.9992L36.0173 27.8927C36.0173 26.8092 36.8956 25.9309 37.9791 25.9309Z" fill="#a0bcb8" fill-rule="nonzero" opacity="1" stroke="#866969" stroke-linecap="butt" stroke-linejoin="round" stroke-width="0.248365" vectornator:layerName="rect"/>
<path d="M46.852 31.911L50.4289 31.911L50.4289 31.911L50.4289 37.747L50.4289 37.747L46.852 37.747L46.852 37.747L46.852 31.911L46.852 31.911Z" fill="#ffffff" fill-rule="nonzero" opacity="1" stroke="none" vectornator:layerName="rect"/>
<path d="M10.1539 2.1618L32.6165 2.1618C34.7667 2.1618 36.5098 3.9049 36.5098 6.05512L36.5098 57.8675C36.5098 60.0177 34.7667 61.7608 32.6165 61.7608L10.1539 61.7608C8.00372 61.7608 6.26062 60.0177 6.26062 57.8675L6.26062 6.05512C6.26062 3.9049 8.00372 2.1618 10.1539 2.1618Z" fill="#6c5d53" fill-rule="nonzero" opacity="1" stroke="#866969" stroke-linecap="butt" stroke-linejoin="round" stroke-width="0.65888" vectornator:layerName="rect"/>
<path d="M8.0589 2.4912L34.7139 2.4912C35.7064 2.4912 36.5109 3.29574 36.5109 4.2882L36.5109 60.2932C36.5109 61.2857 35.7064 62.0902 34.7139 62.0902L8.0589 62.0902C7.06644 62.0902 6.2619 61.2857 6.2619 60.2932L6.2619 4.2882C6.2619 3.29574 7.06644 2.4912 8.0589 2.4912Z" fill="#d8c890" fill-rule="nonzero" opacity="1" stroke="#866969" stroke-linecap="butt" stroke-linejoin="round" stroke-width="1.4825" vectornator:layerName="rect"/>
<path d="M11.9962 7.37848L30.7742 7.37848C32.5719 7.37848 34.0291 8.83574 34.0291 10.6333L34.0291 53.9465C34.0291 55.7441 32.5719 57.2013 30.7742 57.2013L11.9962 57.2013C10.1986 57.2013 8.7413 55.7441 8.7413 53.9465L8.7413 10.6333C8.7413 8.83574 10.1986 7.37848 11.9962 7.37848Z" fill="#d8c894" fill-rule="nonzero" opacity="1" stroke="#866969" stroke-linecap="butt" stroke-linejoin="round" stroke-width="0.0560048" vectornator:layerName="rect"/>
<path d="M11.0442 4.83248L29.8222 4.83248C31.6199 4.83248 33.0771 6.28974 33.0771 8.08735L33.0771 51.4005C33.0771 53.1981 31.6199 54.6553 29.8222 54.6553L11.0442 54.6553C9.24656 54.6553 7.7893 53.1981 7.7893 51.4005L7.7893 8.08735C7.7893 6.28974 9.24656 4.83248 11.0442 4.83248Z" fill="#eccc84" fill-rule="nonzero" opacity="1" stroke="#866969" stroke-linecap="butt" stroke-linejoin="round" stroke-width="0.0560048" vectornator:layerName="rect"/>
<path d="M17.534 51.883L24.0406 51.883L24.0406 51.883L24.0406 60.8576L24.0406 60.8576L17.534 60.8576L17.534 60.8576L17.534 51.883L17.534 51.883Z" fill="#6c6753" fill-rule="nonzero" opacity="1" stroke="#866969" stroke-linecap="butt" stroke-linejoin="round" stroke-width="0.8638" vectornator:layerName="rect"/>
<path d="M10.989 15.439L14.5659 15.439L14.5659 15.439L14.5659 21.275L14.5659 21.275L10.989 21.275L10.989 21.275L10.989 15.439L10.989 15.439Z" fill="#ffffff" fill-rule="nonzero" opacity="1" stroke="none" vectornator:layerName="rect"/>
<path d="M17.202 15.439L20.7789 15.439L20.7789 15.439L20.7789 21.275L20.7789 21.275L17.202 21.275L17.202 21.275L17.202 15.439L17.202 15.439Z" fill="#ffffff" fill-rule="nonzero" opacity="1" stroke="none" vectornator:layerName="rect"/>
<path d="M23.415 15.439L26.9919 15.439L26.9919 15.439L26.9919 21.275L26.9919 21.275L23.415 21.275L23.415 21.275L23.415 15.439L23.415 15.439Z" fill="#ffffff" fill-rule="nonzero" opacity="1" stroke="none" vectornator:layerName="rect"/>
<path d="M10.989 25.322L14.5659 25.322L14.5659 25.322L14.5659 31.158L14.5659 31.158L10.989 31.158L10.989 31.158L10.989 25.322L10.989 25.322Z" fill="#ffffff" fill-rule="nonzero" opacity="1" stroke="none" vectornator:layerName="rect"/>
<path d="M17.202 25.322L20.7789 25.322L20.7789 25.322L20.7789 31.158L20.7789 31.158L17.202 31.158L17.202 31.158L17.202 25.322L17.202 25.322Z" fill="#ffffff" fill-rule="nonzero" opacity="1" stroke="none" vectornator:layerName="rect"/>
<path d="M23.415 25.322L26.9919 25.322L26.9919 25.322L26.9919 31.158L26.9919 31.158L23.415 31.158L23.415 31.158L23.415 25.322L23.415 25.322Z" fill="#ffffff" fill-rule="nonzero" opacity="1" stroke="none" vectornator:layerName="rect"/>
<path d="M10.989 35.206L14.5659 35.206L14.5659 35.206L14.5659 41.042L14.5659 41.042L10.989 41.042L10.989 41.042L10.989 35.206L10.989 35.206Z" fill="#ffffff" fill-rule="nonzero" opacity="1" stroke="none" vectornator:layerName="rect"/>
<path d="M17.202 35.206L20.7789 35.206L20.7789 35.206L20.7789 41.042L20.7789 41.042L17.202 41.042L17.202 41.042L17.202 35.206L17.202 35.206Z" fill="#ffffff" fill-rule="nonzero" opacity="1" stroke="none" vectornator:layerName="rect"/>
<path d="M23.415 35.206L26.9919 35.206L26.9919 35.206L26.9919 41.042L26.9919 41.042L23.415 41.042L23.415 41.042L23.415 35.206L23.415 35.206Z" fill="#ffffff" fill-rule="nonzero" opacity="1" stroke="none" vectornator:layerName="rect"/>
<path d="M40.639 31.911L44.2159 31.911L44.2159 31.911L44.2159 37.747L44.2159 37.747L40.639 37.747L40.639 37.747L40.639 31.911L40.639 31.911Z" fill="#ffffff" fill-rule="nonzero" opacity="1" stroke="none" vectornator:layerName="rect"/>
<path d="M10.989 5.5556L14.5659 5.5556L14.5659 5.5556L14.5659 11.3916L14.5659 11.3916L10.989 11.3916L10.989 11.3916L10.989 5.5556L10.989 5.5556Z" fill="#ffffff" fill-rule="nonzero" opacity="1" stroke="none" vectornator:layerName="rect"/>
<path d="M17.202 5.5556L20.7789 5.5556L20.7789 5.5556L20.7789 11.3916L20.7789 11.3916L17.202 11.3916L17.202 11.3916L17.202 5.5556L17.202 5.5556Z" fill="#ffffff" fill-rule="nonzero" opacity="1" stroke="none" vectornator:layerName="rect"/>
<path d="M23.415 5.5556L26.9919 5.5556L26.9919 5.5556L26.9919 11.3916L26.9919 11.3916L23.415 11.3916L23.415 11.3916L23.415 5.5556L23.415 5.5556Z" fill="#ffffff" fill-rule="nonzero" opacity="1" stroke="none" vectornator:layerName="rect"/>
<g opacity="1" vectornator:layerName="g4215">
<path d="M36.8121 46.2603L55.7215 46.2603C57.7428 46.2603 59.3814 47.9979 59.3814 50.1413L59.3814 58.9812C59.3814 61.1246 57.7428 62.8622 55.7215 62.8622L36.8121 62.8622C34.7908 62.8622 33.1522 61.1246 33.1522 58.9812L33.1522 50.1413C33.1522 47.9979 34.7908 46.2603 36.8121 46.2603Z" fill="#000000" fill-rule="nonzero" opacity="0.94444" stroke="none" vectornator:layerName="rect"/>
<path d="M33.9655 44.1044L58.5681 44.1044C59.0173 44.1044 59.3814 44.4905 59.3814 44.9668L59.3814 59.8439C59.3814 60.3202 59.0173 60.7063 58.5681 60.7063L33.9655 60.7063C33.5164 60.7063 33.1522 60.3202 33.1522 59.8439L33.1522 44.9668C33.1522 44.4905 33.5164 44.1044 33.9655 44.1044Z" fill="#000000" fill-rule="nonzero" opacity="0.94444" stroke="none" vectornator:layerName="rect"/>
</g>
<path d="M32.0077 40.9039L61.9539 40.9039C62.423 40.9039 62.8034 41.3072 62.8034 41.8047L62.8034 41.8048C62.8034 42.3023 62.423 42.7056 61.9539 42.7056L32.0077 42.7056C31.5385 42.7056 31.1582 42.3023 31.1582 41.8048L31.1582 41.8047C31.1582 41.3072 31.5385 40.9039 32.0077 40.9039Z" fill="#000000" fill-rule="nonzero" opacity="0.94444" stroke="none" vectornator:layerName="rect"/>
<path d="M42.1952 41.636C42.1987 42.2869 41.8379 42.8897 41.2494 43.2161C40.661 43.5425 39.935 43.5425 39.3465 43.2161C38.7581 42.8897 38.3973 42.2869 38.4008 41.636C38.3973 40.9852 38.7581 40.3823 39.3465 40.0559C39.935 39.7295 40.661 39.7295 41.2494 40.0559C41.8379 40.3823 42.1987 40.9852 42.1952 41.636Z" fill="#000000" fill-rule="nonzero" opacity="0.94444" stroke="none" vectornator:layerName="path"/>
<path d="M52.375 41.636C52.3785 42.2869 52.0177 42.8897 51.4292 43.2161C50.8408 43.5425 50.1148 43.5425 49.5264 43.2161C48.9379 42.8897 48.5771 42.2869 48.5806 41.636C48.5771 40.9852 48.9379 40.3823 49.5264 40.0559C50.1148 39.7295 50.8408 39.7295 51.4292 40.0559C52.0177 40.3823 52.3785 40.9852 52.375 41.636Z" fill="#000000" fill-rule="nonzero" opacity="0.94444" stroke="none" vectornator:layerName="path"/>
<g opacity="1" vectornator:layerName="g2179">
<path d="M36.8121 46.2603L55.7215 46.2603C57.7428 46.2603 59.3814 47.9979 59.3814 50.1413L59.3814 58.9812C59.3814 61.1246 57.7428 62.8622 55.7215 62.8622L36.8121 62.8622C34.7908 62.8622 33.1522 61.1246 33.1522 58.9812L33.1522 50.1413C33.1522 47.9979 34.7908 46.2603 36.8121 46.2603Z" fill="#000000" fill-rule="nonzero" opacity="0.94444" stroke="none" vectornator:layerName="rect"/>
<path d="M33.9655 44.1044L58.5681 44.1044C59.0173 44.1044 59.3814 44.4905 59.3814 44.9668L59.3814 59.8439C59.3814 60.3202 59.0173 60.7063 58.5681 60.7063L33.9655 60.7063C33.5164 60.7063 33.1522 60.3202 33.1522 59.8439L33.1522 44.9668C33.1522 44.4905 33.5164 44.1044 33.9655 44.1044Z" fill="#000000" fill-rule="nonzero" opacity="0.94444" stroke="none" vectornator:layerName="rect"/>
</g>
<g opacity="1" vectornator:layerName="text4277">
<path d="M37.0473 57.6748L37.0473 50.6753L40.0936 50.6753C40.7299 50.6753 41.1995 50.7406 41.5024 50.8711C41.8053 51.0016 42.0539 51.2188 42.2483 51.5228C42.4426 51.8268 42.5398 52.1793 42.5398 52.5804C42.5398 53.1088 42.375 53.5369 42.0454 53.8647C41.7158 54.1926 41.2367 54.4011 40.608 54.4902C40.8632 54.6175 41.0576 54.7464 41.1909 54.8769C41.4614 55.1443 41.6996 55.4419 41.9053 55.7698L43.1056 57.6748L41.9625 57.6748L41.0481 56.2186C40.6937 55.6488 40.426 55.2652 40.245 55.0679C40.064 54.8706 39.8888 54.7377 39.7192 54.6692C39.5497 54.6008 39.3125 54.5666 39.0077 54.5666L37.956 54.5666L37.956 57.6748L37.0473 57.6748ZM37.956 53.7645L39.9107 53.7645C40.3374 53.7645 40.6613 53.7215 40.8823 53.6356C41.1033 53.5496 41.2786 53.4143 41.4081 53.2297C41.5377 53.0451 41.6024 52.8303 41.6024 52.5852C41.6024 52.2319 41.4786 51.9541 41.2309 51.752C40.9833 51.5499 40.6156 51.4489 40.1279 51.4488L37.956 51.4488L37.956 53.7645Z" fill="#000000" fill-rule="nonzero" opacity="1" stroke="none" vectornator:layerName="path"/>
<path d="M47.2607 56.042L48.1294 56.1518C47.9846 56.6929 47.7227 57.1012 47.3435 57.3765C46.9644 57.6518 46.4948 57.7895 45.9347 57.7895C45.2298 57.7895 44.6592 57.5659 44.2229 57.1187C43.7867 56.6714 43.5685 56.0261 43.5685 55.1826C43.5685 54.3072 43.7885 53.6396 44.2287 53.1797C44.6687 52.7197 45.226 52.4898 45.9004 52.4898C46.5444 52.4898 47.0816 52.7158 47.5122 53.1678C47.9428 53.6198 48.158 54.2739 48.158 55.1301L48.1523 55.3593L44.4373 55.3593C44.4716 55.9291 44.6297 56.3587 44.9117 56.6484C45.1937 56.9381 45.5366 57.0829 45.9404 57.0829C46.5729 57.0829 47.013 56.736 47.2607 56.0421L47.2607 56.042ZM44.4887 54.6526L47.2664 54.6526C47.2283 54.2134 47.1159 53.8855 46.9292 53.6691C46.6587 53.354 46.3139 53.1964 45.8947 53.1964C45.5175 53.1964 45.1955 53.3277 44.9288 53.5903C44.6621 53.8529 44.5154 54.207 44.4888 54.6526L44.4887 54.6526Z" fill="#000000" fill-rule="nonzero" opacity="1" stroke="none" vectornator:layerName="path"/>
<path d="M49.2039 57.6748L49.2039 52.6044L49.9641 52.6044L49.9641 53.3253C50.147 53.0452 50.3708 52.8359 50.6356 52.6975C50.9004 52.559 51.2043 52.4898 51.5472 52.4898C51.814 52.4898 52.0607 52.5335 52.2874 52.6211C52.5141 52.7086 52.697 52.8232 52.8361 52.9648C52.9752 53.1065 53.079 53.2903 53.1476 53.5163C53.2162 53.7423 53.2505 54.0892 53.2505 54.5571L53.2505 57.6749L52.4046 57.6749L52.4046 54.5906C52.4046 54.2181 52.3665 53.946 52.2903 53.7741C52.2141 53.6022 52.095 53.4693 51.9331 53.3754C51.7711 53.2815 51.5835 53.2346 51.3701 53.2346C50.9662 53.2346 50.6442 53.3603 50.4042 53.6118C50.1642 53.8632 50.0441 54.2945 50.0441 54.9056L50.0441 57.6749L49.2039 57.6748Z" fill="#000000" fill-rule="nonzero" opacity="1" stroke="none" vectornator:layerName="path"/>
<path d="M56.4341 56.9063L56.5484 57.6654C56.316 57.7164 56.1064 57.7418 55.9197 57.7418C55.6263 57.7418 55.3901 57.6933 55.211 57.5962C55.0319 57.4991 54.9091 57.3662 54.8424 57.1975C54.7757 57.0288 54.7424 56.693 54.7424 56.1901L54.7424 53.2729L54.1251 53.2729L54.1251 52.6044L54.7424 52.6044L54.7424 51.3487L55.5825 50.833L55.5825 52.6044L56.4341 52.6044L56.4341 53.2728L55.5825 53.2728L55.5825 56.2378C55.5825 56.5115 55.6073 56.6882 55.6568 56.7678C55.7292 56.8824 55.8645 56.9397 56.0626 56.9397C56.1579 56.9397 56.2817 56.9285 56.4341 56.9063Z" fill="#000000" fill-rule="nonzero" opacity="1" stroke="none" vectornator:layerName="path"/>
</g>
<path d="M33.888 44.2241C33.5578 44.2918 33.3087 44.5959 33.3087 44.949L33.3087 57.5004C33.3087 57.6562 33.3846 57.8065 33.4667 57.9247L33.4667 58.5257C33.4667 60.4896 35.0276 62.0613 36.978 62.0613L55.1666 62.0613C57.1169 62.0613 58.6954 60.4895 58.6954 58.5257L58.6954 50.4471C58.6954 50.1046 58.6441 49.77 58.555 49.4572L58.555 44.9493C58.555 44.5458 58.2183 44.2245 57.8176 44.2245L34.046 44.2245C33.9959 44.2245 33.9352 44.2148 33.888 44.2245L33.888 44.2241Z" fill="#fcaf3e" fill-rule="nonzero" opacity="1" stroke="#b3570b" stroke-linecap="butt" stroke-linejoin="miter" stroke-width="1" vectornator:layerName="path"/>
<path d="M31.3012 40.0919L61.2474 40.0919C61.7166 40.0919 62.0969 40.4952 62.0969 40.9928L62.0969 40.9928C62.0969 41.4903 61.7166 41.8936 61.2474 41.8936L31.3012 41.8936C30.832 41.8936 30.4517 41.4903 30.4517 40.9928L30.4517 40.9928C30.4517 40.4952 30.832 40.0919 31.3012 40.0919Z" fill="#2e3436" fill-rule="nonzero" opacity="0.94444" stroke="none" vectornator:layerName="rect"/>
<path d="M41.5795 40.9279C41.583 41.5788 41.2221 42.1816 40.6337 42.508C40.0453 42.8344 39.3193 42.8344 38.7308 42.508C38.1424 42.1816 37.7816 41.5788 37.7851 40.9279C37.7816 40.2771 38.1424 39.6742 38.7308 39.3478C39.3193 39.0214 40.0453 39.0214 40.6337 39.3478C41.2221 39.6742 41.583 40.2771 41.5795 40.9279Z" fill="#888a85" fill-rule="nonzero" opacity="0.94444" stroke="none" vectornator:layerName="path"/>
<path d="M51.7594 40.9279C51.7629 41.5788 51.4021 42.1816 50.8136 42.508C50.2252 42.8344 49.4992 42.8344 48.9108 42.508C48.3223 42.1816 47.9615 41.5788 47.965 40.9279C47.9615 40.2771 48.3223 39.6742 48.9108 39.3478C49.4992 39.0214 50.2252 39.0214 50.8136 39.3478C51.4021 39.6742 51.7629 40.2771 51.7594 40.9279Z" fill="#888a85" fill-rule="nonzero" opacity="0.94444" stroke="none" vectornator:layerName="path"/>
<path d="M34.4205 45.0508C34.1048 45.1128 33.8666 45.3913 33.8666 45.7147L33.8666 57.2126C33.8666 57.3553 33.9392 57.493 34.0177 57.6012L34.0177 58.1518C34.0177 59.9509 35.5101 61.3906 37.3747 61.3906L54.7639 61.3906C56.6286 61.3906 58.1377 59.9509 58.1377 58.1518L58.1377 50.751C58.1377 50.4372 58.0887 50.1307 58.0034 49.8441L58.0034 45.7146C58.0034 45.345 57.6816 45.0507 57.2985 45.0507L34.5713 45.0507C34.5234 45.0507 34.4653 45.0418 34.4202 45.0507L34.4205 45.0508Z" fill="url(#LinearGradient)" fill-rule="nonzero" opacity="1" stroke="#ce5c00" stroke-dasharray="0.6256055235862732,0.3128027617931366" stroke-linecap="butt" stroke-linejoin="miter" stroke-width="0.312799" vectornator:layerName="path"/>
<g opacity="1" vectornator:layerName="text2193">
<path d="M37.8281 49.224L37.8281 46.8481L37.4417 46.8481L37.4417 46.4873L37.8281 46.4873L37.8281 46.1961C37.8281 46.0123 37.8435 45.8757 37.8742 45.7864C37.9164 45.6661 37.9905 45.5686 38.0966 45.4939C38.2027 45.4192 38.3514 45.3818 38.5425 45.3818C38.6657 45.3818 38.8018 45.3973 38.9508 45.4282L38.8852 45.8328C38.7945 45.8156 38.7086 45.807 38.6276 45.807C38.4947 45.807 38.4008 45.8371 38.3457 45.8972C38.2906 45.9573 38.2631 46.0698 38.2631 46.2348L38.2631 46.4873L38.7661 46.4873L38.7661 46.8481L38.2631 46.8481L38.2631 49.224L37.8281 49.224Z" fill="#8f5902" fill-rule="nonzero" opacity="1" stroke="none" vectornator:layerName="path"/>
<path d="M38.9407 47.8553C38.9407 47.3485 39.0735 46.9731 39.3392 46.7292C39.5612 46.5264 39.8317 46.4251 40.1509 46.4251C40.5057 46.4251 40.7957 46.5484 41.0209 46.7949C41.2461 47.0414 41.3587 47.382 41.3587 47.8167C41.3587 48.1688 41.3089 48.4458 41.2092 48.6477C41.1096 48.8496 40.9646 49.0064 40.7742 49.118C40.5839 49.2297 40.3761 49.2855 40.1509 49.2855C39.7896 49.2855 39.4976 49.1627 39.2748 48.917C39.0523 48.6718 38.9407 48.3175 38.9407 47.8555L38.9407 47.8553ZM39.3903 47.8553C39.3903 48.2058 39.4624 48.4682 39.6066 48.6425C39.7507 48.8169 39.9322 48.9041 40.1509 48.9041C40.368 48.9041 40.5486 48.8165 40.6928 48.6413C40.837 48.466 40.9091 48.1989 40.9091 47.8398C40.9091 47.5014 40.8366 47.245 40.6916 47.0706C40.5466 46.8962 40.3664 46.8091 40.1509 46.8091C39.9322 46.8091 39.7507 46.8958 39.6066 47.0693C39.4624 47.2429 39.3903 47.5048 39.3903 47.8553Z" fill="#8f5902" fill-rule="nonzero" opacity="1" stroke="none" vectornator:layerName="path"/>
<path d="M41.8691 49.224L41.8691 46.4873L42.2628 46.4873L42.2628 46.9022C42.3633 46.7081 42.456 46.5801 42.5411 46.5182C42.6261 46.4564 42.7197 46.4255 42.8218 46.4255C42.9692 46.4255 43.1191 46.4753 43.2713 46.5749L43.1207 47.0053C43.0137 46.9383 42.9068 46.9048 42.7999 46.9048C42.7043 46.9048 42.6184 46.9353 42.5423 46.9963C42.4662 47.0573 42.4119 47.1419 42.3795 47.2501C42.3309 47.415 42.3066 47.5954 42.3066 47.7913L42.3066 49.224L41.8691 49.224Z" fill="#8f5902" fill-rule="nonzero" opacity="1" stroke="none" vectornator:layerName="path"/>
</g>
<g opacity="1" vectornator:layerName="text2197">
<path d="M36.7505 57.4057L36.7505 50.4062L39.7968 50.4062C40.4331 50.4062 40.9027 50.4715 41.2057 50.602C41.5086 50.7325 41.7572 50.9497 41.9515 51.2537C42.1459 51.5577 42.243 51.9102 42.243 52.3113C42.243 52.8397 42.0782 53.2678 41.7486 53.5956C41.419 53.9235 40.9399 54.132 40.3112 54.2211C40.5665 54.3484 40.7608 54.4773 40.8942 54.6078C41.1647 54.8752 41.4028 55.1728 41.6086 55.5006L42.8088 57.4057L41.6658 57.4057L40.7513 55.9494C40.3969 55.3797 40.1293 54.9961 39.9483 54.7988C39.7673 54.6014 39.592 54.4686 39.4225 54.4001C39.2529 54.3317 39.0157 54.2975 38.7109 54.2975L37.6593 54.2975L37.6593 57.4057L36.7505 57.4057ZM37.6593 53.4954L39.6139 53.4954C40.0407 53.4954 40.3646 53.4524 40.5856 53.3664C40.8065 53.2805 40.9818 53.1452 41.1114 52.9606C41.2409 52.776 41.3057 52.5611 41.3057 52.3161C41.3057 51.9627 41.1819 51.685 40.9342 51.4829C40.6865 51.2808 40.3188 51.1797 39.8311 51.1797L37.6593 51.1797L37.6593 53.4954Z" fill="#000000" fill-rule="nonzero" opacity="1" stroke="none" vectornator:layerName="path"/>
<path d="M46.9639 55.7724L47.8327 55.8822C47.6879 56.4233 47.4259 56.8316 47.0468 57.1069C46.6677 57.3822 46.198 57.5199 45.6379 57.5199C44.933 57.5199 44.3624 57.2963 43.9262 56.8491C43.4899 56.4019 43.2717 55.7565 43.2717 54.913C43.2717 54.0377 43.4918 53.3701 43.9319 52.9101C44.372 52.4502 44.9292 52.2202 45.6037 52.2202C46.2476 52.2202 46.7849 52.4462 47.2154 52.8982C47.646 53.3502 47.8613 54.0043 47.8613 54.8605L47.8556 55.0897L44.1406 55.0897C44.1749 55.6595 44.333 56.0892 44.6149 56.3788C44.8969 56.6685 45.2398 56.8133 45.6437 56.8133C46.2762 56.8133 46.7163 56.4664 46.964 55.7725L46.9639 55.7724ZM44.192 54.3831L46.9697 54.3831C46.9316 53.9438 46.8191 53.616 46.6325 53.3995C46.3619 53.0844 46.0171 52.9268 45.598 52.9268C45.2208 52.9268 44.8988 53.0581 44.6321 53.3207C44.3654 53.5833 44.2187 53.9374 44.192 54.383L44.192 54.3831Z" fill="#000000" fill-rule="nonzero" opacity="1" stroke="none" vectornator:layerName="path"/>
<path d="M48.9077 57.4057L48.9077 52.3352L49.6679 52.3352L49.6679 53.0562C49.8507 52.7761 50.0746 52.5668 50.3394 52.4283C50.6042 52.2899 50.9081 52.2207 51.251 52.2206C51.5177 52.2207 51.7645 52.2644 51.9912 52.3519C52.2179 52.4395 52.4008 52.5541 52.5399 52.6957C52.679 52.8374 52.7828 53.0212 52.8514 53.2472C52.92 53.4732 52.9542 53.8201 52.9542 54.288L52.9542 57.4058L52.1084 57.4058L52.1084 54.3214C52.1084 53.949 52.0703 53.6769 51.9941 53.505C51.9178 53.3331 51.7988 53.2002 51.6368 53.1063C51.4749 53.0124 51.2872 52.9655 51.0739 52.9655C50.67 52.9655 50.348 53.0912 50.108 53.3426C49.8679 53.5941 49.7479 54.0254 49.7479 54.6365L49.7479 57.4058L48.9077 57.4057Z" fill="#000000" fill-rule="nonzero" opacity="1" stroke="none" vectornator:layerName="path"/>
<path d="M56.1374 56.6367L56.2517 57.3959C56.0192 57.4468 55.8097 57.4722 55.623 57.4722C55.3296 57.4722 55.0933 57.4237 54.9143 57.3266C54.7354 57.2295 54.6127 57.0968 54.5456 56.9279C54.479 56.7592 54.4456 56.4234 54.4456 55.9205L54.4456 53.0032L53.8283 53.0032L53.8283 52.3348L54.4456 52.3348L54.4456 51.0791L55.2858 50.5634L55.2858 52.3348L56.1374 52.3348L56.1374 53.0032L55.2858 53.0032L55.2858 55.9682C55.2858 56.2419 55.3105 56.4186 55.3601 56.4982C55.4325 56.6128 55.5677 56.67 55.7659 56.67C55.8611 56.67 55.985 56.6589 56.1374 56.6366L56.1374 56.6367Z" fill="#000000" fill-rule="nonzero" opacity="1" stroke="none" vectornator:layerName="path"/>
</g>
<g opacity="1" vectornator:layerName="text3266">
<path d="M36.097 56.8133L36.097 49.8138L39.1433 49.8138C39.7796 49.8138 40.2492 49.879 40.5521 50.0095C40.8551 50.14 41.1037 50.3573 41.298 50.6612C41.4924 50.9652 41.5895 51.3178 41.5895 51.7188C41.5895 52.2472 41.4247 52.6753 41.0951 53.0032C40.7655 53.331 40.2864 53.5395 39.6577 53.6286C39.913 53.7559 40.1073 53.8849 40.2407 54.0154C40.5112 54.2827 40.7493 54.5803 40.9551 54.9082L42.1553 56.8133L41.0123 56.8133L40.0978 55.357C39.7434 54.7872 39.4757 54.4037 39.2948 54.2064C39.1138 54.009 38.9385 53.8761 38.769 53.8077C38.5994 53.7392 38.3622 53.705 38.0574 53.705L37.0058 53.705L37.0058 56.8132L36.097 56.8133ZM37.0057 52.9029L38.9604 52.9029C39.3872 52.9029 39.7111 52.86 39.932 52.774C40.153 52.6881 40.3283 52.5528 40.4579 52.3682C40.5874 52.1836 40.6522 51.9687 40.6522 51.7236C40.6522 51.3703 40.5284 51.0926 40.2807 50.8905C40.033 50.6884 39.6653 50.5873 39.1776 50.5873L37.0057 50.5873L37.0057 52.9029Z" fill="#ce5c00" fill-rule="nonzero" opacity="1" stroke="none" vectornator:layerName="path"/>
<path d="M46.3104 55.1805L47.1792 55.2903C47.0344 55.8314 46.7724 56.2396 46.3933 56.5149C46.0142 56.7902 45.5445 56.9279 44.9844 56.9279C44.2795 56.9279 43.7089 56.7043 43.2727 56.2571C42.8364 55.8099 42.6182 55.1645 42.6182 54.321C42.6182 53.4457 42.8383 52.7781 43.2784 52.3181C43.7185 51.8582 44.2757 51.6282 44.9502 51.6282C45.5941 51.6282 46.1313 51.8542 46.5619 52.3062C46.9925 52.7582 47.2078 53.4123 47.2078 54.2685L47.2021 54.4977L43.4871 54.4977C43.5214 55.0675 43.6795 55.4972 43.9614 55.7869C44.2434 56.0765 44.5863 56.2213 44.9902 56.2213C45.6227 56.2213 46.0628 55.8744 46.3105 55.1805L46.3104 55.1805ZM43.5384 53.7911L46.3162 53.7911C46.278 53.3518 46.1656 53.024 45.9789 52.8075C45.7084 52.4924 45.3636 52.3348 44.9445 52.3348C44.5672 52.3348 44.2453 52.4661 43.9786 52.7287C43.7119 52.9913 43.5652 53.3454 43.5385 53.791L43.5384 53.7911Z" fill="#ce5c00" fill-rule="nonzero" opacity="1" stroke="none" vectornator:layerName="path"/>
<path d="M48.2536 56.8133L48.2536 51.7428L49.0138 51.7428L49.0138 52.4637C49.1967 52.1836 49.4206 51.9743 49.6854 51.8359C49.9502 51.6974 50.2541 51.6282 50.597 51.6282C50.8637 51.6282 51.1104 51.672 51.3371 51.7595C51.5638 51.847 51.7467 51.9616 51.8858 52.1033C52.0249 52.2449 52.1287 52.4287 52.1973 52.6548C52.2659 52.8808 52.3002 53.2277 52.3002 53.6956L52.3002 56.8134L51.4543 56.8134L51.4543 53.729C51.4543 53.3566 51.4162 53.0845 51.34 52.9125C51.2638 52.7407 51.1447 52.6078 50.9828 52.5139C50.8209 52.42 50.6332 52.373 50.4198 52.373C50.0159 52.373 49.6939 52.4988 49.4539 52.7502C49.2139 53.0017 49.0939 53.433 49.0939 54.0441L49.0939 56.8133L48.2536 56.8133Z" fill="#ce5c00" fill-rule="nonzero" opacity="1" stroke="none" vectornator:layerName="path"/>
<path d="M55.4839 56.0443L55.5982 56.8034C55.3657 56.8543 55.1562 56.8798 54.9695 56.8798C54.6761 56.8798 54.4398 56.8313 54.2608 56.7342C54.0817 56.6371 53.9588 56.5042 53.8921 56.3355C53.8254 56.1668 53.7921 55.831 53.7921 55.3281L53.7921 52.4109L53.1748 52.4109L53.1748 51.7424L53.7921 51.7424L53.7921 50.4867L54.6323 49.971L54.6323 51.7424L55.4839 51.7424L55.4839 52.4108L54.6323 52.4108L54.6323 55.3758C54.6323 55.6495 54.657 55.8262 54.7066 55.9058C54.779 56.0204 54.9142 56.0777 55.1124 56.0777C55.2076 56.0777 55.3314 56.0665 55.4839 56.0443Z" fill="#ce5c00" fill-rule="nonzero" opacity="1" stroke="none" vectornator:layerName="path"/>
</g>
<g opacity="1" vectornator:layerName="text3274">
<path d="M37.897 49.0934L37.897 46.7174L37.5106 46.7174L37.5106 46.3566L37.897 46.3566L37.897 46.0654C37.897 45.8816 37.9124 45.745 37.9432 45.6557C37.9853 45.5354 38.0594 45.438 38.1655 45.3632C38.2716 45.2885 38.4203 45.2511 38.6115 45.2511C38.7346 45.2511 38.8707 45.2666 39.0197 45.2975L38.9541 45.7021C38.8634 45.6849 38.7775 45.6763 38.6965 45.6763C38.5637 45.6763 38.4697 45.7064 38.4146 45.7665C38.3595 45.8266 38.332 45.9392 38.332 46.1041L38.332 46.3566L38.835 46.3566L38.835 46.7174L38.332 46.7174L38.332 49.0934L37.897 49.0934Z" fill="#ffffff" fill-rule="nonzero" opacity="1" stroke="none" vectornator:layerName="path"/>
<path d="M39.0102 47.7252C39.0102 47.2184 39.143 46.8431 39.4087 46.5991C39.6307 46.3964 39.9012 46.295 40.2204 46.295C40.5752 46.295 40.8652 46.4183 41.0904 46.6648C41.3156 46.9114 41.4282 47.2519 41.4282 47.6866C41.4282 48.0388 41.3784 48.3158 41.2787 48.5177C41.1791 48.7195 41.0341 48.8763 40.8437 48.988C40.6534 49.0996 40.4456 49.1555 40.2204 49.1555C39.8591 49.1555 39.5671 49.0327 39.3443 48.787C39.1215 48.5413 39.0102 48.1874 39.0102 47.7252ZM39.4598 47.7252C39.4598 48.0757 39.5319 48.3381 39.6761 48.5125C39.8202 48.6869 40.0017 48.774 40.2204 48.774C40.4375 48.774 40.6181 48.6864 40.7623 48.5112C40.9065 48.336 40.9786 48.0688 40.9786 47.7098C40.9786 47.3713 40.9061 47.1149 40.7611 46.9406C40.6161 46.7662 40.4359 46.679 40.2204 46.679C40.0017 46.679 39.8202 46.7658 39.6761 46.9393C39.5319 47.1128 39.4598 47.3748 39.4598 47.7252Z" fill="#ffffff" fill-rule="nonzero" opacity="1" stroke="none" vectornator:layerName="path"/>
<path d="M41.9386 49.0934L41.9386 46.3566L42.3323 46.3566L42.3323 46.7715C42.4328 46.5774 42.5255 46.4494 42.6106 46.3876C42.6956 46.3257 42.7892 46.2948 42.8913 46.2948C43.0387 46.2948 43.1886 46.3446 43.3408 46.4443L43.1902 46.8746C43.0832 46.8076 42.9763 46.7741 42.8694 46.7741C42.7738 46.7741 42.6879 46.8046 42.6118 46.8656C42.5356 46.9266 42.4814 47.0112 42.449 47.1194C42.4004 47.2844 42.3761 47.4647 42.3761 47.6606L42.3761 49.0934L41.9386 49.0934Z" fill="#ffffff" fill-rule="nonzero" opacity="1" stroke="none" vectornator:layerName="path"/>
</g>
<g opacity="1" vectornator:layerName="text3278">
<path d="M36.2687 57.1248L36.2687 50.1253L39.3151 50.1253C39.9515 50.1253 40.4211 50.1906 40.724 50.3211C41.0269 50.4516 41.2756 50.6688 41.4699 50.9728C41.6642 51.2768 41.7614 51.6293 41.7614 52.0304C41.7614 52.5588 41.5966 52.9869 41.267 53.3147C40.9374 53.6426 40.4583 53.8511 39.8296 53.9402C40.0849 54.0675 40.2792 54.1964 40.4125 54.327C40.6831 54.5943 40.9212 54.8919 41.127 55.2198L42.3273 57.1249L41.1842 57.1249L40.2697 55.6686C39.9163 55.0997 39.6485 54.716 39.4675 54.5186C39.2866 54.3213 39.1109 54.1883 38.9417 54.1201C38.772 54.0514 38.5344 54.0173 38.2297 54.0173L37.178 54.0173L37.178 57.1255L36.2687 57.1248ZM37.1775 53.2144L39.1322 53.2144C39.559 53.2144 39.8829 53.1715 40.1039 53.0855C40.3249 52.9996 40.5002 52.8643 40.6298 52.6797C40.7593 52.4951 40.8241 52.2802 40.8241 52.0351C40.8241 51.6818 40.7002 51.4041 40.4526 51.2019C40.2049 50.9998 39.8372 50.8988 39.3495 50.8988L37.1776 50.8988L37.1775 53.2144Z" fill="#ffffff" fill-rule="nonzero" opacity="1" stroke="none" vectornator:layerName="path"/>
<path d="M46.4824 55.4921L47.3511 55.602C47.2063 56.1431 46.9444 56.5513 46.5652 56.8267C46.1861 57.102 45.7165 57.2397 45.1563 57.2397C44.4514 57.2397 43.8808 57.0161 43.4445 56.5689C43.0082 56.1216 42.7901 55.4762 42.7901 54.6328C42.7901 53.7574 43.0102 53.0898 43.4503 52.6298C43.8904 52.1699 44.4476 51.9399 45.122 51.9399C45.766 51.9399 46.3033 52.1659 46.7338 52.6179C47.1644 53.0699 47.3797 53.724 47.3797 54.5803L47.374 54.8095L43.6588 54.8095C43.6931 55.3792 43.8512 55.8089 44.1332 56.0986C44.4152 56.3882 44.7581 56.5331 45.162 56.5331C45.7945 56.5331 46.2346 56.1861 46.4823 55.4922L46.4824 55.4921ZM43.7103 54.1028L46.4881 54.1028C46.45 53.6635 46.3376 53.3356 46.1509 53.1192C45.8803 52.8041 45.5355 52.6465 45.1164 52.6465C44.7391 52.6465 44.4172 52.7778 44.1504 53.0404C43.8837 53.303 43.737 53.6571 43.7103 54.1028Z" fill="#ffffff" fill-rule="nonzero" opacity="1" stroke="none" vectornator:layerName="path"/>
<path d="M48.4256 57.1248L48.4256 52.0542L49.1858 52.0542L49.1858 52.7751C49.3687 52.495 49.5925 52.2858 49.8574 52.1473C50.1222 52.0088 50.4261 51.9396 50.7691 51.9396C51.0358 51.9396 51.2825 51.9834 51.5092 52.0709C51.736 52.1584 51.9189 52.273 52.0579 52.4146C52.197 52.5563 52.3008 52.7401 52.3694 52.9661C52.438 53.1921 52.4723 53.5391 52.4723 54.007L52.4723 57.1248L51.6264 57.1248L51.6264 54.0404C51.6264 53.668 51.5883 53.3958 51.5121 53.224C51.4359 53.0521 51.3168 52.9192 51.1549 52.8253C50.9929 52.7314 50.8052 52.6845 50.5919 52.6845C50.188 52.6845 49.866 52.8102 49.6259 53.0616C49.3859 53.3131 49.2658 53.7444 49.2658 54.3556L49.2658 57.1248L48.4256 57.1248Z" fill="#ffffff" fill-rule="nonzero" opacity="1" stroke="none" vectornator:layerName="path"/>
<path d="M55.6563 56.3563L55.7706 57.1154C55.5382 57.1664 55.3286 57.1918 55.1419 57.1918C54.8485 57.1918 54.6122 57.1433 54.4332 57.0462C54.2541 56.9491 54.1312 56.8162 54.0645 56.6475C53.9978 56.4788 53.9645 56.143 53.9645 55.6401L53.9645 52.7228L53.3472 52.7228L53.3472 52.0544L53.9645 52.0544L53.9645 50.7987L54.8047 50.283L54.8047 52.0544L55.6563 52.0544L55.6563 52.7228L54.8047 52.7228L54.8047 55.6879C54.8047 55.9616 54.8295 56.1383 54.879 56.2178C54.9514 56.3324 55.0867 56.3897 55.2848 56.3897C55.3801 56.3897 55.5039 56.3786 55.6563 56.3563Z" fill="#ffffff" fill-rule="nonzero" opacity="1" stroke="none" vectornator:layerName="path"/>
</g>
</g>
</svg>
