<svg id="_3.filled_expand" height="512" viewBox="0 0 64 64" width="512" xmlns="http://www.w3.org/2000/svg" data-name="3.filled expand"><path d="m58 28h-39.6787a4 4 0 0 0 -3.473 2.0154l-1.134 1.9846 1.2857 10h-7a4 4 0 0 0 -4 4v10a2 2 0 0 0 2 2h52a2 2 0 0 0 2-2v-26a2 2 0 0 0 -2-2z" fill="#e5f0ff"/><path d="m22 6h14a0 0 0 0 1 0 0 5 5 0 0 1 -5 5h-4a5 5 0 0 1 -5-5 0 0 0 0 1 0 0z" fill="#e5f0ff" transform="matrix(-1 0 0 -1 58 17)"/><rect fill="#ff8261" height="3" rx="1.5" transform="matrix(-1 0 0 -1 58 25)" width="18" x="20" y="11"/><path d="m24 28h10l2-14h-14z" fill="#ff533f"/><path d="m38 23h10a5 5 0 0 1 5 5 0 0 0 0 1 0 0h-20a0 0 0 0 1 0 0 5 5 0 0 1 5-5z" fill="#f7ac58" transform="matrix(-1 0 0 -1 86 51)"/><path d="m33 10h20a0 0 0 0 1 0 0 10 10 0 0 1 -10 10 10 10 0 0 1 -10-10 0 0 0 0 1 0 0z" fill="#f7ac58" transform="matrix(-1 0 0 -1 86 30)"/><rect fill="#bb701f" height="3" rx="1.5" width="24" x="31" y="20"/><path d="m34 20 5 5 5-5z" fill="#ffdc19"/><path d="m6 46h2a0 0 0 0 1 0 0v4a0 0 0 0 1 0 0h-2a2 2 0 0 1 -2-2 2 2 0 0 1 2-2z" fill="#ffdc19" transform="matrix(-1 0 0 -1 12 96)"/><circle cx="13" cy="58" fill="#5c5c5c" r="5"/><circle cx="50" cy="58" fill="#5c5c5c" r="5"/><path d="m13.7143 32-5.7143 10h10a2 2 0 0 0 2-2v-6a2 2 0 0 0 -2-2z" fill="#7bcafa"/><path d="m24 32h32v13h-32z" fill="#7bcafa"/><path d="m44 36a2.8284 2.8284 0 0 1 -4 0v-4h4z" fill="#ffdc19"/><path d="m48 36a2.8284 2.8284 0 0 1 -4 0v-4h4z" fill="#ff533f"/><path d="m52 36a2.8284 2.8284 0 0 1 -4 0v-4h4z" fill="#ffdc19"/><path d="m56 36a2.8284 2.8284 0 0 1 -4 0v-4h4z" fill="#ff533f"/><path d="m28 36a2.8284 2.8284 0 0 1 -4 0v-4h4z" fill="#ffdc19"/><path d="m32 36a2.8284 2.8284 0 0 1 -4 0v-4h4z" fill="#ff533f"/><path d="m36 36a2.8284 2.8284 0 0 1 -4 0v-4h4z" fill="#ffdc19"/><path d="m40 36a2.8284 2.8284 0 0 1 -4 0v-4h4z" fill="#ff533f"/><path d="m24 45h32v4h-32z" fill="#fff"/><path d="m38 43h4v6h-4z" fill="#ff533f"/><path d="m30 43h4v6h-4z" fill="#ffdc19"/><path d="m58 27h-5.54a5.9725 5.9725 0 0 0 1.4566-3.0421 2.493 2.493 0 0 0 .0356-4.9122 10.9884 10.9884 0 0 0 -16.2174-8.7 2.45 2.45 0 0 0 -.8174-.299 6.0042 6.0042 0 0 0 -5.9174-5.0467h-1v-1a3.0033 3.0033 0 0 0 -3-3h-3a1 1 0 0 0 0 2h3a1.0013 1.0013 0 0 1 1 1v1h-1a6.004 6.004 0 0 0 -5.9161 5.0421 2.49 2.49 0 0 0 .0436 4.92l1.7197 12.0379h-4.5259a5.0112 5.0112 0 0 0 -4.3413 2.52l-6.5811 11.5161a5.0069 5.0069 0 0 0 -4.3989 4.9639v10a3.0033 3.0033 0 0 0 3 3h1.09a5.9925 5.9925 0 0 0 11.82 0h25.18a5.9925 5.9925 0 0 0 11.82 0h2.09a3.0033 3.0033 0 0 0 3-3v-26a3.0033 3.0033 0 0 0 -3-3zm-23.858-3h2.4439l1.7071 1.707a.9995.9995 0 0 0 1.414 0l1.7071-1.707h10.4439a3.9958 3.9958 0 0 1 -3.858 3h-10a3.9958 3.9958 0 0 1 -3.858-3zm-1.642-3h1.0859l1 1h-2.0859a.5.5 0 0 1 0-1zm6.5 2.5859-2.5859-2.5859h5.1718zm14.5-1.5859h-10.0859l1-1h9.0859a.5.5 0 0 1 0 1zm-1.559-3h-17.882a8.9963 8.9963 0 0 1 17.882 0zm-24.941-12h4a3.9958 3.9958 0 0 1 3.858 3h-11.716a3.9963 3.9963 0 0 1 3.858-3zm-5.5 5h13.9735a11.1028 11.1028 0 0 0 -.9521 1h-13.0214a.5.5 0 0 1 0-1zm1.6528 3h10.0615a10.9034 10.9034 0 0 0 -1.166 4.0457 2.493 2.493 0 0 0 .0356 4.9122 5.9725 5.9725 0 0 0 1.4566 3.0421h-8.6734zm-8.8584 18h3.7056a1.0013 1.0013 0 0 1 1 1v6a1.0013 1.0013 0 0 1 -1 1h-8.2769zm-8.2944 14a1 1 0 0 1 0 2h-1v-2zm7 15a4 4 0 1 1 4-4 4.0045 4.0045 0 0 1 -4 4zm37 0a4 4 0 1 1 4-4 4.0042 4.0042 0 0 1 -4 4zm9-6a1.0009 1.0009 0 0 1 -1 1h-2.09a5.9925 5.9925 0 0 0 -11.82 0h-25.18a5.9925 5.9925 0 0 0 -11.82 0h-1.09a1.0013 1.0013 0 0 1 -1-1v-5h1a3 3 0 0 0 0-6h-.8157a2.995 2.995 0 0 1 2.8157-2h10a3.0033 3.0033 0 0 0 3-3v-6a3.0033 3.0033 0 0 0 -3-3h-2.5627l.279-.4883a3.0073 3.0073 0 0 1 2.605-1.5117h39.6787a1.0009 1.0009 0 0 1 1 1z"/><circle cx="13" cy="58" r="1"/><path d="m18 45h-2a1 1 0 0 0 0 2h2a1 1 0 0 0 0-2z"/><path d="m56 31h-32a1 1 0 0 0 -1 1v17a1 1 0 0 0 1 1h32a1 1 0 0 0 1-1v-17a1 1 0 0 0 -1-1zm-1 4.53a1.8336 1.8336 0 0 1 -2 0v-2.53h2zm-8 0a1.8336 1.8336 0 0 1 -2 0v-2.53h2zm-8 0a1.8336 1.8336 0 0 1 -2 0v-2.53h2zm-8 0a1.8336 1.8336 0 0 1 -2 0v-2.53h2zm2-2.53h2v2.5312a1.8686 1.8686 0 0 1 -2 0zm8 0h2v2.5312a1.8686 1.8686 0 0 1 -2 0zm8 0h2v2.5312a1.8686 1.8686 0 0 1 -2 0zm-22 0v2.5312a1.8576 1.8576 0 0 1 -2-.0363v-2.4949zm-2 13h4v2h-4zm8 2h-2v-4h2zm2-2h2v2h-2zm6 2h-2v-4h2zm0-6v-1a1 1 0 0 0 -2 0v1h-1a1 1 0 0 0 -1 1v1h-2v-1a1 1 0 0 0 -1-1h-1v-1a1 1 0 0 0 -2 0v1h-1a1 1 0 0 0 -1 1v1h-4v-6.32a3.6555 3.6555 0 0 0 3-.4266 3.7746 3.7746 0 0 0 4.0006 0 3.7652 3.7652 0 0 0 3.9995 0 3.7748 3.7748 0 0 0 4 0 3.7656 3.7656 0 0 0 4 0 3.7748 3.7748 0 0 0 4 0 3.7656 3.7656 0 0 0 4 0 3.6547 3.6547 0 0 0 3 .4242v6.3224h-12.0001v-1a1 1 0 0 0 -1-1zm14 6h-12v-2h12z"/><circle cx="50" cy="58" r="1"/><circle cx="39" cy="15" r="1"/><circle cx="47" cy="15" r="1"/><circle cx="43" cy="15" r="1"/></svg>