<?xml version="1.0" encoding="UTF-8" standalone="no"?>
<!DOCTYPE svg PUBLIC "-//W3C//DTD SVG 1.1//EN" "http://www.w3.org/Graphics/SVG/1.1/DTD/svg11.dtd">
<!-- Created with Vectornator (http://vectornator.io/) -->
<svg height="100%" stroke-miterlimit="10" style="fill-rule:nonzero;clip-rule:evenodd;stroke-linecap:round;stroke-linejoin:round;" version="1.1" viewBox="0 0 74.981 48.002" width="100%" xml:space="preserve" xmlns="http://www.w3.org/2000/svg" xmlns:vectornator="http://vectornator.io" xmlns:xlink="http://www.w3.org/1999/xlink">
<defs/>
<clipPath id="ArtboardFrame">
<rect height="48.002" width="74.981" x="0" y="0"/>
</clipPath>
<g clip-path="url(#ArtboardFrame)" id="Untitled" vectornator:layerName="Untitled">
<g opacity="1" vectornator:layerName="path">
<clipPath id="ClipPath">
<path d="M-10.8137-16.4897L78.2673-21.7789L83.5565 67.3022L-5.52453 72.5912L-10.8137-16.4897Z"/>
</clipPath>
<g clip-path="url(#ClipPath)">
<path d="M8.55842 32.4105C7.86167 31.9304 7.16108 31.5164 5.46049 31.8158C4.57058 31.9723 3.77547 30.9856 2.40826 31.1147C2.10463 30.6656 1.80098 30.2163 1.49733 29.767C2.19314 28.3421 3.20244 27.0351 4.53542 25.8495C5.19736 25.9311 5.86008 26.0128 6.52202 26.0947C8.45272 24.9062 10.4603 23.8202 12.6157 22.9296C15.036 19.2554 18.2292 18.2543 21.8695 18.7987C29.7156 15.4265 37.6367 13.3284 45.5571 11.215C48.9594 13.1411 52.361 15.0675 55.7631 16.9938C61.3333 16.9746 66.9065 16.7648 72.4744 16.9361C73.5172 16.9679 74.2923 17.5839 74.5898 18.4715C73.849 18.6043 73.3705 19.045 72.6279 19.5222C68.7934 21.9862 62.3013 32.116 45.7326 31.6568C34.1971 31.3369 22.6197 30.8488 11.1419 33.0876C10.6014 32.3586 9.54175 33.088 8.55842 32.4105" fill="#336699" fill-rule="evenodd" opacity="1" stroke="none" vectornator:layerName="path"/>
<path d="M6.52202 26.0947C8.45272 24.9062 10.4603 23.8202 12.6157 22.9296C15.036 19.2554 18.2292 18.2543 21.8695 18.7987C29.7156 15.4265 37.6367 13.3284 45.5571 11.215C48.9594 13.1411 52.361 15.0675 55.7631 16.9938C38.755 17.8445 19.3173 22.4453 6.52202 26.0947" fill="#ffffff" fill-rule="evenodd" opacity="1" stroke="none" vectornator:layerName="path"/>
<path d="M12.6157 22.9296C15.036 19.2554 18.2292 18.2543 21.8695 18.7987C18.6711 19.9929 15.585 21.3683 12.6157 22.9296" fill="#336699" fill-rule="evenodd" opacity="1" stroke="none" vectornator:layerName="path"/>
<path d="M8.55842 32.4105C7.86167 31.9304 7.16108 31.5164 5.46049 31.8158C4.57058 31.9723 3.77547 30.9856 2.40826 31.1147C2.10463 30.6656 1.80098 30.2163 1.49733 29.767C4.21065 30.3385 7.47266 29.0247 10.7652 27.6078C32.2626 20.4328 53.426 19.4587 74.5898 18.4715C73.849 18.6043 73.3705 19.045 72.6279 19.5222C68.7934 21.9862 62.3013 32.116 45.7326 31.6568C34.1971 31.3369 22.6197 30.8488 11.1419 33.0876C10.6014 32.3586 9.54175 33.088 8.55842 32.4105" fill="#ffffff" fill-rule="evenodd" opacity="1" stroke="none" vectornator:layerName="path"/>
<path d="M74.3454 18.5288C73.7362 18.7055 73.2854 19.0995 72.6279 19.5222C68.7934 21.9862 62.3013 32.116 45.7326 31.6568C39.0648 31.4718 32.3828 31.2307 25.7144 31.4926C39.5896 29.0896 49.6301 31.2441 62.4926 24.978C66.5657 22.9938 66.7188 20.3281 74.3454 18.5288" fill="#336699" fill-rule="evenodd" opacity="1" stroke="none" vectornator:layerName="path"/>
<path d="M50.6813 21.2282C36.0991 22.6043 21.6078 24.3075 8.08885 29.5191C12.7116 29.2791 17.3351 29.0394 21.9581 28.7994C29.1528 25.7236 37.2928 22.8672 50.6813 21.2282" fill="#336699" fill-rule="evenodd" opacity="1" stroke="none" vectornator:layerName="path"/>
<path d="M42.0024 13.3386L48.6021 16.9041C50.3066 16.7234 52.0198 16.5364 53.7272 16.3495L46.4091 12.2161C44.8932 12.582 43.4269 12.9566 42.0024 13.3386M25.9549 18.31C30.422 16.7923 34.9815 15.2914 40.0355 13.8775L45.9076 17.1845C38.5781 17.9304 31.545 18.489 25.9549 18.31" fill="#a1c1e0" fill-rule="evenodd" opacity="1" stroke="none" vectornator:layerName="path"/>
<path d="M42.9151 13.8322L48.6021 16.9041C49.8569 16.771 51.1166 16.6346 52.3753 16.4974L46.1963 13.0073C45.0767 13.2777 43.9841 13.5529 42.9151 13.8322M44.5347 17.3223C38.5614 17.9124 32.8354 18.3538 27.9886 18.3432C31.7451 17.0854 35.6119 15.8466 39.8227 14.6688L44.5347 17.3223Z" fill="#8fc7ff" fill-rule="evenodd" opacity="1" stroke="none" vectornator:layerName="path"/>
<path d="M60.9573 13.3482L60.9591 13.3481C63.7252 13.1656 66.433 13.0503 68.9977 13.0214C69.3721 13.0171 69.697 13.0904 69.943 13.2298C70.1006 13.319 70.2266 13.4352 70.3148 13.5759C70.4053 13.7195 70.4553 13.8857 70.4571 14.0716C70.4601 14.2991 70.3894 14.5547 70.2327 14.8311L68.5881 17.7318C68.5221 17.8488 68.3728 17.8899 68.2555 17.8236C68.1384 17.7567 68.0976 17.6076 68.1637 17.4907L69.8082 14.5901C69.9203 14.3926 69.9709 14.2211 69.9689 14.0777C69.9679 13.9853 69.9442 13.9045 69.9012 13.8362C69.8562 13.7646 69.7885 13.7035 69.7018 13.6541C69.5308 13.5574 69.2907 13.5064 69.0037 13.5096C66.49 13.5378 63.8378 13.6497 61.1266 13.8264L58.9798 17.9435C58.9175 18.063 58.7697 18.1093 58.6503 18.0475C58.5311 17.9849 58.4847 17.8378 58.5465 17.7183L60.5565 13.8642C57.2941 14.0872 53.9558 14.4013 50.6775 14.7748C50.2355 14.8251 49.7942 14.8764 49.3547 14.9291L47.3297 18.9067C47.2685 19.0266 47.1216 19.0744 47.0014 19.0134C46.8813 18.9522 46.8337 18.8054 46.8947 18.6851L48.7716 14.9992C45.1798 15.436 41.6946 15.9375 38.5015 16.4596L36.512 19.9734C36.4455 20.0907 36.2964 20.1318 36.1793 20.0654C36.062 19.9986 36.0211 19.8497 36.0876 19.7326L37.8826 16.5617C35.3294 16.9864 32.9761 17.4227 30.92 17.8479C29.6899 18.1021 28.7098 18.6689 27.8763 19.6081L26.7488 20.878C26.6594 20.9791 26.5053 20.9887 26.4044 20.8994C26.3031 20.8105 26.2939 20.656 26.3828 20.555L27.5101 19.2849C28.4128 18.2682 29.491 17.6444 30.8221 17.3691C36.0402 16.2904 43.1747 15.1378 50.6234 14.2893C54.0539 13.8987 57.5504 13.5725 60.9573 13.3482" fill="#efecec" fill-rule="evenodd" opacity="1" stroke="none" vectornator:layerName="path"/>
<path d="M65.0928 35.9032C53.7826 31.5999 43.3055 29.3116 30.3964 29.5886C16.0801 29.8961 9.20123 37.1318 0.661136 30.6457C12.82 44.213 21.7209 35.8047 30.9609 33.639C42.4608 30.9435 53.0701 33.0353 65.0928 35.9032" fill="#51a5fb" fill-rule="evenodd" opacity="1" stroke="none" vectornator:layerName="path"/>
<path d="M68.926 38.3565C40.4973 30.8455 34.1032 33.1078 15.5731 40.8009C28.8409 37.5918 43.1941 33.8724 68.926 38.3565" fill="#51a6fa" fill-rule="evenodd" opacity="1" stroke="none" vectornator:layerName="path"/>
</g>
</g>
</g>
</svg>
