<svg id="Capa_1" enable-background="new 0 0 512 512" height="512" viewBox="0 0 512 512" width="512" xmlns="http://www.w3.org/2000/svg"><g><path d="m315.117 0c-52.441 0-73.669 0-118.234 0-19.977 0-62.532 41.984-62.532 59.805v99.57h243.299s0-63.04 0-99.57c0-17.821-42.556-59.805-62.533-59.805z" fill="#d88a55"/><path d="m315.117 0c-17.947 0-32.236 0-45.058 0 62.293 24.554 57.445 54.677 46.215 92.597l-14.424 66.778h75.8s0-63.04 0-99.57c0-17.821-42.556-59.805-62.533-59.805z" fill="#c57a44"/><path d="m443.004 318.953-81.093-27.945h-211.822l-81.093 27.945c-12.645 4.352-21.132 16.255-21.132 29.642v152.623c0 5.954 4.827 10.781 10.781 10.781h131.628l65.727-39.999 65.727 40h131.628c5.954 0 10.781-4.827 10.781-10.781v-152.623c0-13.388-8.487-25.29-21.132-29.643z" fill="#685e68"/><path d="m443.004 318.953-81.093-27.945-18.343 23.512 72.652 25.036c12.645 4.352 21.132 16.255 21.132 29.643v132.019c0 5.954-4.827 10.781-10.781 10.781h26.785c5.954 0 10.781-4.827 10.781-10.781v-152.622c-.001-13.388-8.488-25.29-21.133-29.643z" fill="#554e56"/><path d="m372.559 331.416c1.074-1.211 1.428-2.89.925-4.432l-11.571-35.982-23.246-8.006h-165.334l-23.246 8.006-11.571 35.982c-.503 1.542-.148 3.221.925 4.432l15.946 18.128c1.199 1.359 1.485 3.313.72 4.969l-15.496 37.437c-1.119 2.704-1.081 5.748.107 8.423l49.555 111.627h45.554l18.254-70 22.092 70h45.554l49.555-111.628c1.187-2.675 1.226-5.719.107-8.423l-15.496-37.437c-.765-1.656-.48-3.61.72-4.969z" fill="#7a6d79"/><path d="m361.913 291.001-23.246-8.006-42.674 15.131 76.713 26.436z" fill="#685e68"/><path d="m316.273 302.309-122.51-9.263-1.351 60.258 26.713 98.441h73.75l26.713-98.441z" fill="#d3dee5"/><path d="m270.861 297.593h-29.722l-21.773 154.087 16.461 60.32h40.346l16.461-60.32z" fill="#fe646f"/><path d="m210.709 293.046 17.242 44.52c2.458 6.346 8.563 10.528 15.368 10.528h25.361c6.805 0 12.91-4.183 15.368-10.528l17.242-44.52z" fill="#e25269"/><path d="m322.778 277.523c-2.664-.919-4.901-2.606-6.502-4.765h-120.552c-1.601 2.159-3.838 3.846-6.502 4.765l-15.889 5.471 19.08 70.31 55.306-57.791h16.564l55.306 57.791 19.08-70.31z" fill="#e8edf2"/><path d="m322.778 277.523c-2.664-.919-4.901-2.606-6.502-4.765l-29.49-4.362v16.823c0 5.826 3.701 11.011 9.207 12.908l35.269 12.154 7.405-27.286z" fill="#d3dee5"/><path d="m195.726 272.76 40.36 34.482c2.654 2.266 6.048 3.515 9.539 3.515h20.75c3.491 0 6.884-1.248 9.539-3.515l40.36-34.482c-1.721-2.303-2.702-5.139-2.702-8.145v-66.333h-115.143v66.333c0 3.006-.981 5.842-2.703 8.145z" fill="#ffa78f"/><g fill="#f78d7c"><path d="m290.608 294.687 25.665-21.927c-1.721-2.303-2.702-5.139-2.702-8.145v-66.333h-26.785v86.937c0 3.613 1.427 6.979 3.822 9.468z"/><path d="m293.401 275.01c5.183-2.086 12.612-7.367 20.17-14.537v-62.191h-115.142v62.191c7.558 7.17 14.987 12.452 20.17 14.537 22.706 9.121 52.096 9.121 74.802 0z"/><g><path d="m176.964 168.016c-4.806-23.659-33.078-31.011-44.619-13.862-15.744 23.396 13.442 63.792 44.619 42.783z"/><path d="m335.036 168.016c4.806-23.659 33.078-31.011 44.619-13.862 15.744 23.396-13.442 63.792-44.619 42.783z"/></g></g><path d="m343.567 104.406v85.594c0 28.42-34.867 62.371-50.166 68.527-22.706 9.121-52.096 9.121-74.802 0-15.299-6.156-50.166-40.107-50.166-68.527v-85.594c0-5.024.863-10.027 2.555-14.76l3.073-8.636c3.148-8.841 11.515-14.738 20.895-14.738h13.996c3.211 0 5.84 2.561 5.903 5.771.255 12.902 4.133 29.297 24.133 28.589 2.814-.097 4.852-2.782 4.173-5.52-1.87-7.468-.702-17.807 4.612-26.108 1.089-1.701 2.971-2.732 4.99-2.732h64.283c9.38 0 17.746 5.898 20.895 14.738l3.073 8.636c1.691 4.733 2.553 9.736 2.553 14.76z" fill="#ffa78f"/><path d="m208.841 164.874c-4.267 0-7.726-3.459-7.726-7.726v-9.789c0-4.267 3.459-7.726 7.726-7.726s7.726 3.459 7.726 7.726v9.789c0 4.266-3.459 7.726-7.726 7.726z" fill="#685e68"/><path d="m221.48 127.904c-1.746.001-3.503-.589-4.948-1.795-5.536-4.622-9.85-4.621-15.385 0-3.276 2.734-8.148 2.296-10.883-.979-2.735-3.276-2.296-8.148.979-10.883 11.348-9.472 23.845-9.474 35.192 0 3.276 2.735 3.714 7.608.979 10.883-1.527 1.83-3.722 2.774-5.934 2.774z" fill="#c57a44"/><path d="m303.16 164.874c-4.268 0-7.726-3.459-7.726-7.726v-9.789c0-4.267 3.459-7.726 7.726-7.726 4.268 0 7.726 3.459 7.726 7.726v9.789c0 4.266-3.458 7.726-7.726 7.726z" fill="#685e68"/><path d="m315.8 127.904c-1.746 0-3.502-.589-4.948-1.795-5.536-4.622-9.851-4.62-15.385 0-3.274 2.733-8.148 2.297-10.882-.979-2.735-3.276-2.297-8.148.979-10.883 11.348-9.473 23.848-9.472 35.192 0 3.276 2.735 3.714 7.607.979 10.883-1.529 1.83-3.724 2.774-5.935 2.774z" fill="#c57a44"/><path d="m256 212.303c-6.828 0-13.654-1.414-20.434-4.245-3.938-1.644-5.798-6.169-4.153-10.106 1.643-3.938 6.171-5.798 10.106-4.153 9.744 4.068 19.219 4.069 28.962-.001 3.941-1.642 8.464.216 10.107 4.154 1.644 3.938-.215 8.463-4.153 10.107-6.78 2.828-13.609 4.244-20.435 4.244z" fill="#685e68"/><path d="m356.43 433.708v-53.484h42.439v53.484c0 1.995-.64 3.938-1.827 5.542l-19.393 26.216-19.393-26.216c-1.186-1.604-1.826-3.546-1.826-5.542z" fill="#2abcc8"/><circle cx="377.65" cy="470.618" fill="#fed402" r="16.24"/><path d="m340.377 366.69v22.189c0 2.446 1.983 4.429 4.429 4.429h65.686c2.446 0 4.429-1.983 4.429-4.429v-22.189c0-2.446-1.983-4.429-4.429-4.429h-65.686c-2.446 0-4.429 1.983-4.429 4.429z" fill="#fed402"/></g></svg>