<?xml version="1.0" encoding="UTF-8"?>
<svg xmlns="http://www.w3.org/2000/svg" width="512" height="512" viewBox="0 0 128 128"><g><g><path d="M126.25,20.138c0-10.157-9.921-18.391-22.158-18.391S81.934,9.981,81.934,20.138c0,7.875,5.964,14.591,14.347,17.213v8.012l10.592-6.983C117.8,37.244,126.25,29.513,126.25,20.138Z" fill="#364251"/><path d="M46.066,20.138c0-10.157-9.92-18.391-22.158-18.391S1.75,9.981,1.75,20.138c0,9.375,8.453,17.106,19.377,18.242l10.592,6.983V37.351C40.1,34.729,46.066,28.013,46.066,20.138Z" fill="#97de3d"/><path d="M76.351,58.56A32.952,32.952,0,0,1,55.878,46.994l-4.887,7.884A10.857,10.857,0,0,1,46.936,58.7a11.194,11.194,0,0,1-1.7.749v2.541a16.62,16.62,0,0,0,.376,3.505l1.132,5.168a50.215,50.215,0,0,0,2.031,8.176,16.448,16.448,0,0,0,30.455,0,50.115,50.115,0,0,0,2.032-8.176l1.132-5.168a16.7,16.7,0,0,0,.375-3.506V59.525Z" fill="#ffe1ba"/><path d="M83.275,60.951a4.5,4.5,0,0,0-.509.039v1a16.629,16.629,0,0,1-.375,3.506l-1.148,5.24a5.1,5.1,0,1,0,2.032-9.781Z" fill="#ffbfab"/><path d="M45.61,65.491a16.476,16.476,0,0,1-.378-3.507V61a5.1,5.1,0,1,0-.694,10.161,5.073,5.073,0,0,0,2.2-.5Z" fill="#ffbfab"/><g><path d="M64.187,72.048h1.468a1.75,1.75,0,0,0,0-3.5h-.9L65.2,65.6a1.75,1.75,0,1,0-3.46-.524l-.533,3.516a3.011,3.011,0,0,0,2.977,3.461Z" fill="#364251"/><circle cx="72.25" cy="61.872" r="3.563" fill="#364251"/><path d="M67.562,74.729a5.5,5.5,0,0,1-7.313,0,1.75,1.75,0,0,0-2.7,2.225,8.912,8.912,0,0,0,12.716,0,1.751,1.751,0,0,0-2.7-2.227Z" fill="#364251"/><circle cx="55.75" cy="61.872" r="3.563" fill="#364251"/></g><path d="M75.931,95.23a3.105,3.105,0,0,1-.783-1.2h0a5.037,5.037,0,0,1-.577-1.749l-.822-6.432a16.393,16.393,0,0,1-19.5,0l-.823,6.432a6.7,6.7,0,0,1-1.478,2.888L64,100.915Z" fill="#ffbfab"/><path d="M74.505,109.3,86.166,97.514l-.239-.02c-1.9-.171-3.745-.26-5.651-.5a8.173,8.173,0,0,1-4.345-1.76L64,100.915Z" fill="#80aaff"/><path d="M64,100.915,51.95,95.173A5.619,5.619,0,0,1,47.544,97q-2.35.233-4.714.373-.532.035-1.062.072L53.5,109.3Z" fill="#80aaff"/><path d="M93.25,98.472a39.242,39.242,0,0,0-7.084-.958L74.505,109.3,64,100.915,53.5,109.3,41.768,97.446a36.263,36.263,0,0,0-7.018,1.026,16.816,16.816,0,0,0-12.375,16.212v11.563h83.25V114.684A16.816,16.816,0,0,0,93.25,98.472Z" fill="#4d88ff"/><path d="M64,110.583a1.75,1.75,0,0,0,1.75-1.75v-6.521l-1.75-1.4-1.75,1.4v6.521A1.75,1.75,0,0,0,64,110.583Z" fill="#fff5f5"/><path d="M63.906,117.01a1.749,1.749,0,0,1-1.75-1.75v-1.583a1.75,1.75,0,0,1,3.5,0v1.583A1.75,1.75,0,0,1,63.906,117.01Z" fill="#fff5f5"/><path d="M82.766,60.989a4.743,4.743,0,0,1,.509-.038,5.07,5.07,0,0,1,3.044,1.027v-12.3a16.2,16.2,0,0,0-16.2-16.2H57.878a16.2,16.2,0,0,0-16.2,16.2V61.824A5,5,0,0,1,45.232,61V59.446a10.935,10.935,0,0,0,5.758-4.569l4.887-7.883A32.952,32.952,0,0,0,76.351,58.56l6.415.965Z" fill="#68544f"/><path d="M30.135,17.006a1.75,1.75,0,0,0-1.75-1.75H25.658v-1.3a1.75,1.75,0,0,0-3.5,0v1.3H19.431a1.75,1.75,0,1,0,0,3.5h2.621a9.5,9.5,0,0,1-3.1,6.273,1.75,1.75,0,0,0,2.352,2.592,13.059,13.059,0,0,0,2.6-3.266,13.081,13.081,0,0,0,2.6,3.266,1.75,1.75,0,0,0,2.352-2.592,9.5,9.5,0,0,1-3.1-6.273h2.621A1.75,1.75,0,0,0,30.135,17.006Z" fill="#59c36a"/></g><g><path d="M64.187,72.048h1.468a1.75,1.75,0,0,0,0-3.5h-.9L65.2,65.6a1.75,1.75,0,1,0-3.46-.524l-.533,3.516a3.011,3.011,0,0,0,2.977,3.461Z"/><path d="M57.786,74.491a1.749,1.749,0,0,0-.238,2.463,8.912,8.912,0,0,0,12.716,0,1.751,1.751,0,0,0-2.7-2.227,5.5,5.5,0,0,1-7.313,0A1.749,1.749,0,0,0,57.786,74.491Z"/><circle cx="55.75" cy="61.872" r="3.563"/><path d="M93.711,96.783a34.945,34.945,0,0,0-6.47-.937c-2.22-.2-4.535-.32-6.713-.587a6.412,6.412,0,0,1-3.372-1.278h0a4.121,4.121,0,0,1-.848-1.917l-.694-5.428a18.173,18.173,0,0,0,5.236-7.143A35.252,35.252,0,0,0,82.566,73l.026-.124a6.463,6.463,0,0,0,.682.036,6.85,6.85,0,0,0,4.794-11.751V49.673A17.966,17.966,0,0,0,70.122,31.726H57.878A17.967,17.967,0,0,0,39.931,49.673V60.994a6.847,6.847,0,0,0,4.607,11.921,6.733,6.733,0,0,0,.865-.06c.01.052.021.1.031.153A35.274,35.274,0,0,0,47.152,79.5a18.148,18.148,0,0,0,5.235,7.14l-.681,5.324A4.942,4.942,0,0,1,50.647,94h0a3.875,3.875,0,0,1-3.064,1.246c-1.9.164-3.959.332-5.938.449a37.381,37.381,0,0,0-7.355,1.083,18.6,18.6,0,0,0-13.664,17.9v11.562a1.75,1.75,0,0,0,1.75,1.75H33.75a1.75,1.75,0,1,0,0-3.5H24.125v-9.812A15.093,15.093,0,0,1,35.211,100.16a31.379,31.379,0,0,1,5.881-.908l11.159,11.277a1.775,1.775,0,0,0,2.336.138l7.663-6.116v4.282a1.75,1.75,0,0,0,3.5,0v-4.282l7.663,6.116a1.774,1.774,0,0,0,2.336-.138l11.087-11.2.124.011a31.688,31.688,0,0,1,5.828.825,15.093,15.093,0,0,1,11.087,14.525V124.5H59.312a1.75,1.75,0,0,0,0,3.5h46.313a1.749,1.749,0,0,0,1.75-1.75V114.685A18.6,18.6,0,0,0,93.711,96.783ZM82.275,98.957l-7.908,7.993-7.089-5.658,8.433-4.018a11,11,0,0,0,4.343,1.452C80.8,98.822,81.545,98.9,82.275,98.957Zm1.048-29.542a45.241,45.241,0,0,0,1.167-6.46,3.3,3.3,0,0,1,2.142,3.1A3.361,3.361,0,0,1,83.323,69.415ZM43.431,49.673A14.463,14.463,0,0,1,57.878,35.226H70.122A14.463,14.463,0,0,1,84.568,49.673v9.653c-.021-.005-.043-.009-.064-.012A1.781,1.781,0,0,0,83.027,57.8l-6.415-.966c-.475-.071-.947-.154-1.416-.246a31.166,31.166,0,0,1-17.97-10.7,1.749,1.749,0,0,0-2.835.194L49.5,53.955a10.4,10.4,0,0,1-5.3,4.082,1.915,1.915,0,0,0-.708,1.243l-.06.01Zm-2.25,16.386A3.364,3.364,0,0,1,43.5,62.873a44.207,44.207,0,0,0,1.171,6.539A3.365,3.365,0,0,1,41.181,66.059ZM50.394,78.18a32.67,32.67,0,0,1-1.526-5.85c-.136-.687-.271-1.371-.418-2.045l-.7-3.21a22.927,22.927,0,0,1-.764-6.446,12.885,12.885,0,0,0,5.5-4.829l3.651-5.89A34.62,34.62,0,0,0,70.3,58.9a3.561,3.561,0,1,0,5.516,2.974,3.52,3.52,0,0,0-.455-1.708c.244.042.488.089.734.126l4.926.741c.218,2.593-.961,6.779-1.483,9.328-.14.648-.27,1.306-.4,1.967a32.807,32.807,0,0,1-1.527,5.851,14.636,14.636,0,0,1-4.787,6.208,14.731,14.731,0,0,1-17.639,0A14.645,14.645,0,0,1,50.394,78.18Zm9.029,12.048A18.177,18.177,0,0,0,72.36,88.787l.476,3.721a6.641,6.641,0,0,0,.583,1.98L71.083,95.6,64,98.976l-9.493-4.524a8.04,8.04,0,0,0,.658-1.945l.475-3.72A18.043,18.043,0,0,0,59.423,90.228ZM47.63,98.751a7.573,7.573,0,0,0,4.63-1.491l2.228,1.061,6.234,2.971-7.089,5.658-7.94-8.025C46.347,98.872,46.994,98.814,47.63,98.751Z"/><path d="M48.25,124.5H44.812a1.75,1.75,0,0,0,0,3.5H48.25a1.75,1.75,0,1,0,0-3.5Z"/><path d="M65.656,115.26v-1.583a1.75,1.75,0,0,0-3.5,0v1.583a1.75,1.75,0,1,0,3.5,0Z"/><path d="M104.092,0A25.966,25.966,0,0,0,85.931,7.028a1.75,1.75,0,1,0,2.453,2.5A22.446,22.446,0,0,1,104.092,3.5c11.253,0,20.408,7.466,20.408,16.642,0,8.351-7.655,15.445-17.808,16.5a1.743,1.743,0,0,0-.782.279l-7.879,5.194V37.351a1.749,1.749,0,0,0-1.227-1.67c-7.848-2.455-13.12-8.7-13.12-15.542a1.75,1.75,0,1,0-3.5,0c0,8.007,5.712,15.29,14.347,18.464v6.76a1.75,1.75,0,0,0,2.713,1.461l10.241-6.752C119.211,38.671,128,30.166,128,20.139,128,9.032,117.274,0,104.092,0Z"/><path d="M28.385,15.256H25.658v-1.3a1.75,1.75,0,0,0-3.5,0v1.3H19.431a1.75,1.75,0,1,0,0,3.5h2.621a9.5,9.5,0,0,1-3.1,6.273,1.75,1.75,0,0,0,2.352,2.592,13.059,13.059,0,0,0,2.6-3.266,13.081,13.081,0,0,0,2.6,3.266,1.75,1.75,0,0,0,2.352-2.592,9.5,9.5,0,0,1-3.1-6.273h2.621a1.75,1.75,0,1,0,0-3.5Z"/><path d="M31.719,47.113a1.75,1.75,0,0,0,1.75-1.75V38.6C42.1,35.429,47.816,28.146,47.816,20.139,47.816,9.032,37.091,0,23.908,0S0,9.032,0,20.139C0,30.166,8.789,38.671,20.515,40.072l10.24,6.752A1.744,1.744,0,0,0,31.719,47.113Zm-1.75-9.762v4.762l-7.878-5.194a1.747,1.747,0,0,0-.782-.279C11.156,35.584,3.5,28.49,3.5,20.139,3.5,10.963,12.655,3.5,23.908,3.5s20.408,7.466,20.408,16.642c0,6.841-5.272,13.087-13.12,15.542A1.749,1.749,0,0,0,29.969,37.351Z"/><path d="M99.143,28.01A1.744,1.744,0,0,0,101.3,26.8l.988-3.52H105.9l.988,3.52a1.75,1.75,0,0,0,1.683,1.277,1.725,1.725,0,0,0,.474-.065,1.748,1.748,0,0,0,1.212-2.157l-3.3-11.774a2.582,2.582,0,0,0-2.477-1.878h-.759a2.582,2.582,0,0,0-2.478,1.878l-3.3,11.774A1.748,1.748,0,0,0,99.143,28.01Zm4.949-11.157.821,2.925H103.27Z"/></g></g></svg>
