<svg height="512" viewBox="0 0 48 48" width="512" xmlns="http://www.w3.org/2000/svg"><g id="Touch_Screen" data-name="Touch Screen"><path d="m41 27.17v7.83a12 12 0 0 1 -3.94 8.9c-4.12 3.75-8.39 3.1-14.06 3.1a12 12 0 0 1 -12-12v-8c0-3.47 6-2.23 6 2v-15a3 3 0 0 1 3.16-3 3.12 3.12 0 0 1 2.84 3.17v7.83a3 3 0 0 1 6 0v2a3 3 0 0 1 6 0v3a3 3 0 0 1 3.16-3 3.12 3.12 0 0 1 2.84 3.17z" fill="#f6ccaf"/><path d="m41 27.17v7.83a12 12 0 0 1 -5.36 10h-8.64a10 10 0 0 1 -10-10v-21a3 3 0 0 1 3.54-3 3.13 3.13 0 0 1 2.46 3.17v7.83a3 3 0 0 1 3.16-3 3.12 3.12 0 0 1 2.84 3.16v1.84a3 3 0 0 1 3.16-3 3.12 3.12 0 0 1 2.84 3.16v2.84a3 3 0 0 1 3.54-3 3.13 3.13 0 0 1 2.46 3.17z" fill="#ffdec7"/><path d="m17 29v6a1 1 0 0 1 -2 0v-9.47a4 4 0 0 1 2 3.47z" fill="#edb996"/><g fill="#231f20"><path d="m27.92 14.15a8 8 0 1 0 -15.92-1.15c0 .95.05 2 1.07 2a1 1 0 0 0 1-1.15 6 6 0 1 1 11.88 0 1 1 0 0 0 1.97.3z"/><path d="m20 2a11 11 0 0 1 10.65 13.75 1 1 0 0 0 1.94.5 13 13 0 1 0 -25.18 0 1 1 0 0 0 1.94-.5 11 11 0 0 1 10.65-13.75z"/><path d="m36 23.57a4 4 0 0 0 -6.18-2.89 4 4 0 0 0 -5.82-2.12v-4.39a4 4 0 0 0 -6.75-3.07c-1.66 1.57-1.25 2.33-1.25 13.9-2.7-2-6-.8-6 2v8a13 13 0 0 0 13 13h6a13 13 0 0 0 13-13v-7.83a4 4 0 0 0 -6-3.6zm4 11.43a11 11 0 0 1 -11 11h-6a11 11 0 0 1 -11-11v-8c0-1.4 2-1.23 3.09-.16s.91 2.02.91 8.16a1 1 0 0 0 2 0v-21a2 2 0 0 1 2.11-2 2.13 2.13 0 0 1 1.89 2.17v14.83a1 1 0 0 0 2 0v-7a2 2 0 0 1 4 0v7a1 1 0 0 0 2 0v-5a2 2 0 0 1 4 0v5a1 1 0 0 0 2 0c0-2.17-.13-2.74.62-3.45a2 2 0 0 1 3.38 1.62z"/></g></g></svg>