<?xml version="1.0" encoding="UTF-8" standalone="no"?>
<!DOCTYPE svg PUBLIC "-//W3C//DTD SVG 1.1//EN" "http://www.w3.org/Graphics/SVG/1.1/DTD/svg11.dtd">
<!-- Created with Vectornator (http://vectornator.io/) -->
<svg height="100%" stroke-miterlimit="10" style="fill-rule:nonzero;clip-rule:evenodd;stroke-linecap:round;stroke-linejoin:round;" version="1.1" viewBox="0 0 1024 1024" width="100%" xml:space="preserve" xmlns="http://www.w3.org/2000/svg" xmlns:vectornator="http://vectornator.io" xmlns:xlink="http://www.w3.org/1999/xlink">
<defs/>
<g id="Untitled" vectornator:layerName="Untitled">
<path d="M496 124.608L96 524.576L96 1024L928 1024L928 556.576L496 124.608Z" fill="#eaeaea" fill-rule="nonzero" opacity="1" stroke="none" vectornator:layerName="path"/>
<path d="M256 672L480 672L480 1024L256 1024L256 672Z" fill="#434854" fill-rule="nonzero" opacity="1" stroke="none" vectornator:layerName="path"/>
<path d="M544 640L640 640L640 736L544 736L544 640ZM672 640L768 640L768 736L672 736L672 640ZM672 512L768 512L768 608L672 608L672 512ZM544 512L640 512L640 608L544 608L544 512Z" fill="#469fcc" fill-rule="nonzero" opacity="1" stroke="none" vectornator:layerName="path"/>
<path d="M544 512L640 512L640 544L544 544L544 512ZM672 512L768 512L768 544L672 544L672 512ZM544 640L640 640L640 672L544 672L544 640ZM672 640L768 640L768 672L672 672L672 640Z" fill="#000000" fill-rule="nonzero" opacity="1" stroke="none" vectornator:layerName="path"/>
<path d="M496 64L96 480L96 576L496 176L928 608L928 512L496 64Z" fill="#000000" fill-rule="nonzero" opacity="1" stroke="none" vectornator:layerName="path"/>
<path d="M1012.58 505.376L541.248 34.048L518.624 11.424C512.627 5.41708 504.488 2.04156 496 2.04156C487.512 2.04156 479.373 5.41708 473.376 11.424L450.752 34.048L11.424 473.376C5.41708 479.373 2.04156 487.512 2.04156 496C2.04156 504.488 5.41708 512.627 11.424 518.624L34.048 541.248C40.0447 547.255 48.1841 550.63 56.672 550.63C65.1599 550.63 73.2993 547.255 79.296 541.248L496 124.608L944.672 573.28C950.669 579.287 958.808 582.662 967.296 582.662C975.784 582.662 983.923 579.287 989.92 573.28L1012.54 550.656C1025.05 538.158 1025.06 517.892 1012.58 505.376Z" fill="#ef4d4d" fill-rule="nonzero" opacity="1" stroke="none" vectornator:layerName="path"/>
<path d="M238.24 1024C249.748 1004.63 255.879 982.533 256 960C256 889.308 198.692 832 128 832C57.3076 832 8.65733e-15 889.308 0 960C0 983.424 6.752 1005.09 17.76 1024C17.76 1024 238.24 1024 238.24 1024ZM896 832C845.895 832.055 800.448 861.398 779.776 907.04C766.285 899.89 751.268 896.103 736 896C682.981 896 640 938.981 640 992C640 1003.3 642.304 1013.95 645.888 1024L1006.27 1024C1017.76 1004.62 1023.87 982.528 1024 960C1024 889.308 966.692 832 896 832Z" fill="#3aad73" fill-rule="nonzero" opacity="1" stroke="none" vectornator:layerName="path"/>
<path d="M779.776 907.04C766.285 899.89 751.268 896.103 736 896C682.981 896 640 938.981 640 992C640 1003.3 642.304 1013.95 645.888 1024L785.76 1024C774.252 1004.63 768.121 982.533 768 960C768 941.056 772.384 923.232 779.776 907.04Z" fill="#000000" fill-rule="nonzero" opacity="1" stroke="none" vectornator:layerName="path"/>
<path d="M442.825 98.8154L873.653 98.8154L873.653 98.8154L873.653 529.644L873.653 529.644L442.825 529.644L442.825 529.644L442.825 98.8154L442.825 98.8154Z" fill="#ffffff" fill-opacity="0.01" fill-rule="nonzero" opacity="1" stroke="none" vectornator:layerName="rect"/>
<path d="M658.239 493.741C757.381 493.741 837.751 413.371 837.751 314.23C837.751 215.088 757.381 134.718 658.239 134.718C559.097 134.718 478.727 215.088 478.727 314.23C478.727 413.371 559.097 493.741 658.239 493.741Z" fill="#ffb2b7" fill-rule="nonzero" opacity="1" stroke="#000000" stroke-linecap="butt" stroke-linejoin="round" stroke-width="26.9268" vectornator:layerName="path"/>
<path d="M576.332 469.927L576.332 209.077L655.292 209.077C680.319 209.077 699.501 214.599 712.837 225.644C726.174 236.689 732.842 252.728 732.842 273.761C732.842 308.541 715.276 333.216 680.143 347.786L767.211 469.927L721.738 469.927L647.537 359.594L612.992 359.594L612.992 469.927L576.332 469.927ZM612.992 331.923L624.977 331.923C671.507 331.923 694.772 313.652 694.772 277.109C694.772 250.202 675.267 236.748 636.257 236.748L612.992 236.748L612.992 331.923Z" fill="#000000" opacity="1" stroke="none"/>
</g>
</svg>
