<svg id="Слой_1" enable-background="new 0 0 300 300" height="512" viewBox="0 0 300 300" width="512" xmlns="http://www.w3.org/2000/svg"><g><g><g><g><path d="m140.144 295.18 97.461-90.276-.002-1.05-48.894-36.413-97.641.132-48.748 36.546 97.822 90.011z" fill="#fff"/></g></g><g><g><path d="m140.142 294.13 97.463-89.352-.002-.924-43.697-21.033-87.301.119-43.586 32.141 77.121 78.125z" fill="#83d6f2"/></g></g><g><path d="m140.142 296.45c-.789 0-1.525-.402-1.952-1.066l-49.308-76.765c-.458-.713-.491-1.62-.085-2.364s1.185-1.208 2.033-1.209l98.308-.133h.003c.846 0 1.625.461 2.033 1.203.408.743.379 1.649-.077 2.364l-49 76.898c-.425.667-1.19 1.062-1.955 1.072zm-45.064-76.771 45.057 70.147 44.776-70.269z" fill="#502652"/></g><g><path d="m106.113 186.332c-.651 0-1.272-.273-1.711-.754l-15.045-16.439c-.865-.945-.8-2.412.145-3.277s2.413-.8 3.277.145l14.354 15.684 65.701-.089 14.151-15.714c.858-.952 2.324-1.029 3.276-.171.952.857 1.028 2.324.171 3.276l-14.841 16.48c-.439.488-1.064.766-1.721.767l-67.755.092s-.001 0-.002 0z" fill="#502652"/></g><g><path d="m140.141 296.45c-.561 0-1.124-.203-1.57-.613l-97.821-90.011c-.788-.724-.977-1.893-.459-2.83.518-.936 1.608-1.397 2.641-1.115l46.616 12.728 14.321-31.197c.535-1.164 1.912-1.675 3.076-1.14 1.164.534 1.675 1.912 1.141 3.076l-15.141 32.985c-.474 1.032-1.624 1.569-2.719 1.27l-39.316-10.735 90.805 83.555c.943.867 1.004 2.335.136 3.278-.459.497-1.083.749-1.71.749z" fill="#502652"/></g><g><path d="m42.322 206.439c-.706 0-1.402-.32-1.858-.928-.768-1.025-.56-2.479.465-3.247l48.748-36.546c.401-.3.888-.463 1.388-.464l97.641-.132h.003c.499 0 .985.161 1.386.459l48.894 36.413c1.027.765 1.24 2.218.475 3.246-.765 1.027-2.219 1.24-3.246.475l-48.276-35.953-96.099.13-48.131 36.083c-.417.313-.906.464-1.39.464z" fill="#502652"/></g><g><path d="m140.144 297.5c-.623 0-1.245-.25-1.702-.743-.871-.94-.815-2.407.125-3.278l90.474-83.804-39.28 10.843c-1.092.302-2.245-.231-2.722-1.26l-15.273-32.944c-.539-1.162-.034-2.541 1.129-3.08 1.162-.539 2.542-.033 3.08 1.129l14.446 31.16 46.566-12.855c1.032-.285 2.123.173 2.644 1.107s.335 2.104-.45 2.831l-97.461 90.276c-.446.414-1.012.618-1.576.618z" fill="#502652"/></g></g><g><g><path d="m93.68 107.313c0-7.218-4.91-13.427-11.941-15.1l-1.966-.467.722-3.575c.221-1.099.329-2.107.329-3.08 0-8.563-6.966-15.529-15.529-15.529-2.858 0-4.412 1.094-6.816 3.887l-2.438 3.422-2.143-3.812c-2.103-2.704-4.116-3.497-7.11-3.497-8.563 0-15.53 6.966-15.53 15.529 0 1.93.358 3.827 1.064 5.64l.435 1.116c-8.061.61-14.354 7.368-14.354 15.466 0 6.222 3.702 11.751 9.442 14.216l-.597.607c-2.892 2.939-5.319 6.803-5.319 10.881 0 8.231 7.277 15.036 15.501 15.492l3.671.203.041 3.388c.103 8.459 7.066 15.341 15.523 15.341 8.423 0 15.235-6.598 15.509-15.022l.101-3.106 5.06-1.188c7.055-1.656 12.817-7.869 12.817-15.109 0-3.009-1.709-5.939-3.363-8.474l-2.005-3.071 1.581-.99c4.513-2.823 7.315-7.87 7.315-13.168z" fill="#fff"/></g><g><path d="m93.68 107.313c0-7.218-4.91-13.427-11.941-15.1l-1.966-.467.722-3.575c.221-1.099.329-2.107.329-3.08 0-8.563-6.966-15.529-15.529-15.529-2.858 0-4.412 1.094-6.816 3.887l-2.438 3.422-2.143-3.812c-2.103-2.704-4.116-3.497-7.11-3.497-8.563 0-15.53 6.966-15.53 15.529 0 1.93.358 3.827 1.064 5.64l.435 1.116c-8.061.61-14.354 7.368-14.354 15.466 0 6.222 3.702 11.751 9.442 14.216l-.597.607c-2.892 2.939-5.319 6.803-5.319 10.881 0 8.231 7.277 15.036 15.501 15.492l3.671.203.041 3.388c.103 8.459 7.066 15.341 15.523 15.341 8.423 0 15.235-6.598 15.509-15.022l.101-3.106 5.06-1.188c7.055-1.656 12.817-7.869 12.817-15.109 0-3.009-1.709-5.939-3.363-8.474l-2.005-3.071 1.581-.99c4.513-2.823 7.315-7.87 7.315-13.168z" fill="#ffec80"/></g><g><path d="m171.628 121.285c-2.224-6.12-3.437-12.726-3.437-19.614 0-23.458 14.065-43.632 34.221-52.547l6.803 11.443c-16.314 6.517-27.84 22.465-27.84 41.104 0 5.872 1.144 11.477 3.221 16.604z" fill="#fff"/></g><g><path d="m177.991 133.768c10.32 15.284 27.801 25.333 47.631 25.333 31.718 0 57.43-25.712 57.43-57.43s-25.712-57.43-57.43-57.43c-3.341 0-6.615.285-9.8.833l6.363 12.483c1.134-.087 2.28-.132 3.437-.132 24.436 0 44.246 19.809 44.246 44.246s-19.809 44.246-44.246 44.246c-13.79 0-26.107-6.309-34.222-16.198z" fill="#fff"/></g><g><path d="m78.754 99.766c-.804-2.371-1.764-4.61-2.89-6.651-.154-.207-.286-.424-.374-.656-4.493-7.766-11.182-12.716-18.653-12.716-7.906 0-14.928 5.553-19.406 14.113-.018.042-.04.08-.061.121-3.128 6.032-5.008 13.529-5.008 21.675 0 11.941 4.009 22.509 10.139 29.042.167.147.319.31.449.493.561.569 1.143 1.093 1.737 1.593.199.138.376.293.53.466.68.54 1.384 1.02 2.101 1.467 2.929 1.823 6.142 2.848 9.519 2.848 4.119 0 7.999-1.516 11.409-4.165.164-.168.348-.321.556-.45.546-.451 1.084-.921 1.604-1.431.139-.186.298-.354.477-.502 6.296-6.504 10.429-17.229 10.429-29.36 0-5.709-.933-11.092-2.558-15.887z" fill="#fff"/></g><g><path d="m181.348 34.915c18.011 5.602 31.088 22.401 31.088 42.256 0 24.436-19.809 44.246-44.245 44.246s-44.246-19.809-44.246-44.246c0-17.564 10.234-32.737 25.063-39.882l-4.486-12.459c-19.911 9.017-33.762 29.062-33.762 52.341 0 31.718 25.713 57.43 57.431 57.43 31.717 0 57.43-25.712 57.43-57.43 0-26.217-17.567-48.33-41.571-55.212z" fill="#fff"/></g><g><circle cx="164.378" cy="24.676" fill="#fff" r="19.856"/></g><g><path d="m177.23 120.493c-2.224-6.12-2.236-3.631-2.236-10.52 0-23.458 14.065-43.632 34.221-52.547v3.141c-16.314 6.517-27.84 22.465-27.84 41.104 0 5.872 1.144 11.477 3.221 16.604z" fill="#ffec80"/></g><g><path d="m177.991 133.768c10.32 15.284 27.801 25.333 47.631 25.333 31.718 0 57.43-25.712 57.43-57.43s-23.597-47.948-55.314-47.948c-3.341 0-6.615.285-9.8.833l4.248 3.001c1.134-.087 2.28-.132 3.437-.132 24.436 0 44.246 19.809 44.246 44.246s-19.809 44.246-44.246 44.246c-13.79 0-26.107-6.309-34.222-16.198z" fill="#ffec80"/></g><g><path d="m56.042 57.476c-12.767 0-23.298-5.709-27.482-14.899l-13.707-28.893c-.549-1.157-.056-2.541 1.102-3.09 1.156-.549 2.541-.056 3.09 1.102l13.722 28.926c3.385 7.433 12.515 12.215 23.275 12.215 10.761 0 19.891-4.782 23.26-12.182l13.737-28.959c.549-1.158 1.934-1.651 3.09-1.102 1.158.549 1.651 1.932 1.102 3.09l-13.722 28.926c-4.169 9.157-14.7 14.866-27.467 14.866z" fill="#502652"/></g><g><path d="m56.042 75.769c-1.281 0-2.32-1.039-2.32-2.32v-31.426c0-1.281 1.039-2.32 2.32-2.32s2.32 1.039 2.32 2.32v31.426c-.001 1.281-1.039 2.32-2.32 2.32z" fill="#502652"/></g><g><path d="m79.57 110.227c-.547-1.892-1.201-3.679-1.968-5.308-.105-.165-.195-.338-.255-.524-3.06-6.197-7.615-10.147-12.702-10.147-5.384 0-10.166 4.431-13.215 11.263-.013.033-.028.064-.042.097-2.13 4.814-3.41 10.796-3.41 17.297 0 9.529 2.73 17.963 6.905 23.176.114.117.217.247.306.393.382.454.779.872 1.183 1.271.136.11.256.234.361.372.463.431.943.814 1.431 1.17 1.994 1.455 4.183 2.273 6.483 2.273 2.805 0 5.447-1.21 7.769-3.324.112-.134.237-.256.379-.359.372-.36.739-.735 1.092-1.142.094-.148.203-.283.325-.401 4.288-5.191 7.102-13.749 7.102-23.43-.002-4.555-.637-8.851-1.744-12.677z" fill="#83d6f2"/></g><g><path d="m56.837 153.88c-3.721 0-7.336-1.076-10.745-3.198-.869-.541-1.627-1.071-2.318-1.62-.105-.083-.202-.175-.291-.275-.061-.042-.235-.186-.291-.234-.721-.608-1.34-1.176-1.895-1.739-.088-.089-.168-.185-.241-.288-.056-.049-.196-.191-.247-.245-6.843-7.292-10.768-18.456-10.768-30.629 0-8.231 1.822-16.096 5.268-22.743 5.17-9.889 12.992-15.486 21.527-15.486 8.029 0 15.559 5.057 20.661 13.873.064.11.118.225.163.344.063.085.184.262.234.354 1.159 2.102 2.187 4.466 3.055 7.026 1.779 5.249 2.681 10.845 2.681 16.631 0 12.226-4.143 23.805-11.082 30.973-.06.062-.123.12-.189.175-.071.095-.246.287-.33.37-.567.556-1.154 1.07-1.751 1.563-.08.066-.163.126-.251.181-.04.025-.08.057-.12.099-.075.077-.155.148-.239.214-3.917 3.045-8.354 4.654-12.831 4.654zm-10.048-8.349c.518.403 1.094.801 1.755 1.212 5.89 3.667 12.498 3.255 18.172-1.098.221-.212.458-.404.708-.572.425-.354.845-.721 1.252-1.114.187-.231.393-.445.614-.639 6.077-6.331 9.702-16.663 9.702-27.669 0-5.279-.819-10.373-2.436-15.142-.763-2.252-1.657-4.322-2.658-6.155-.202-.289-.365-.575-.493-.866-4.246-7.264-10.279-11.426-16.569-11.426-6.749 0-13.073 4.691-17.35 12.869-3.163 6.104-4.805 13.229-4.805 20.721 0 10.806 3.53 21.035 9.447 27.386.214.197.409.408.58.628.409.408.869.828 1.401 1.279.246.178.473.375.68.586z" fill="#502652"/></g><g><path d="m56.665 169.76c-9.72 0-17.724-7.91-17.842-17.632l-.014-1.221-1.506-.083c-9.756-.541-17.693-8.529-17.693-17.808 0-3.577 1.585-7.377 4.502-10.874-4.959-3.265-8.028-8.801-8.028-14.83 0-8.258 5.752-15.357 13.549-17.303-.461-1.601-.694-3.249-.694-4.918 0-9.842 8.007-17.848 17.849-17.848 3.924 0 6.515 1.273 8.941 4.393.071.091.134.187.191.287l.352.626.318-.446c.041-.058.085-.113.131-.167 2.619-3.044 4.761-4.694 8.574-4.694 9.842 0 17.848 8.007 17.848 17.848 0 1.126-.123 2.283-.375 3.538l-.279 1.38c7.967 1.997 13.511 9.081 13.511 17.305 0 5.925-3.047 11.574-7.984 14.865l.717 1.097c1.943 2.977 3.74 6.217 3.74 9.742 0 8.077-6.143 15.381-14.607 17.367l-3.33.782-.043 1.329c-.315 9.681-8.146 17.265-17.828 17.265zm-9.877-97.878c-7.284 0-13.21 5.926-13.21 13.209 0 1.641.305 3.255.906 4.798l.435 1.116c.267.685.193 1.456-.199 2.078s-1.055 1.022-1.788 1.077c-6.847.518-12.21 6.295-12.21 13.153 0 5.245 3.155 9.988 8.038 12.084.704.302 1.213.932 1.361 1.684s-.085 1.528-.623 2.074l-.597.607c-1.738 1.766-4.653 5.317-4.653 9.255 0 6.742 6.095 12.776 13.31 13.176l3.671.203c1.219.068 2.177 1.068 2.191 2.288l.041 3.388c.088 7.195 6.011 13.049 13.203 13.049 7.164 0 12.958-5.613 13.191-12.777l.101-3.106c.034-1.048.768-1.943 1.788-2.183l5.06-1.188c6.287-1.476 11.028-7 11.028-12.851 0-2.312-1.435-4.829-2.986-7.206l-2.005-3.07c-.34-.521-.457-1.158-.323-1.766s.507-1.137 1.034-1.468l1.58-.99c3.84-2.404 6.226-6.697 6.226-11.204 0-6.139-4.177-11.42-10.159-12.843l-1.966-.467c-1.216-.289-1.985-1.49-1.737-2.716l.721-3.575c.191-.948.284-1.806.284-2.621 0-7.283-5.926-13.209-13.209-13.209-1.787 0-2.77.436-4.989 3.001l-2.376 3.334c-.461.647-1.226 1.012-2.013.97-.793-.042-1.509-.487-1.898-1.18l-2.055-3.655c-1.499-1.888-2.733-2.469-5.173-2.469z" fill="#502652"/></g><g><path d="m55.426 144.134c-.398 0-.801-.102-1.169-.318-3.517-2.057-6.47-4.707-8.776-7.875-5.782-7.942-5.964-17.085-5.098-23.356.175-1.269 1.346-2.156 2.615-1.981s2.156 1.346 1.981 2.615c-.749 5.426-.619 13.298 4.253 19.991 1.927 2.648 4.406 4.868 7.368 6.601 1.106.647 1.478 2.068.831 3.173-.432.739-1.209 1.15-2.005 1.15z" fill="#502652"/></g><g><path d="m45.655 104.84c-.273 0-.551-.049-.822-.151-1.198-.454-1.801-1.794-1.347-2.991l.131-.345c.954-2.524 1.856-4.909 4.696-8.534.791-1.009 2.249-1.185 3.257-.396 1.008.79 1.185 2.248.396 3.257-2.403 3.067-3.111 4.941-4.008 7.314l-.132.35c-.353.925-1.235 1.496-2.171 1.496z" fill="#502652"/></g><g><path d="m181.348 34.915c18.011 5.602 31.088 22.401 31.088 42.256 0 24.436-19.809 44.246-44.245 44.246s-44.246-19.809-44.246-44.246c0-17.564 10.234-32.737 25.063-39.882l-.462-1.283c-19.911 9.017-33.762 29.062-33.762 52.341 0 31.718 21.688 46.253 53.406 46.253 31.717 0 57.43-25.712 57.43-57.43 0-26.217-13.542-37.154-37.547-44.036z" fill="#ffec80"/></g><g><circle cx="171.492" cy="31.789" fill="#ff969d" r="11.458"/></g><g><path d="m164.378 46.852c-12.228 0-22.176-9.948-22.176-22.176s9.948-22.176 22.176-22.176 22.176 9.948 22.176 22.176-9.948 22.176-22.176 22.176zm0-39.713c-9.67 0-17.536 7.867-17.536 17.536s7.867 17.536 17.536 17.536 17.537-7.867 17.537-17.536-7.867-17.536-17.537-17.536z" fill="#502652"/></g><g><path d="m157.703 17.53c-.709 0-1.408-.323-1.864-.936-.764-1.028-.55-2.481.478-3.246 2.558-1.902 5.6-2.908 8.796-2.908 1.281 0 2.32 1.039 2.32 2.32s-1.039 2.32-2.32 2.32c-2.191 0-4.275.689-6.028 1.991-.416.31-.901.459-1.382.459z" fill="#502652"/></g><g><path d="m156.069 36.046c-.616 0-1.231-.244-1.687-.728-2.594-2.748-4.022-6.344-4.022-10.124 0-1.438.207-2.86.615-4.228.367-1.227 1.66-1.926 2.886-1.559 1.227.367 1.925 1.659 1.559 2.886-.279.936-.421 1.912-.421 2.9 0 2.592.979 5.056 2.757 6.94.879.932.837 2.4-.095 3.279-.448.424-1.02.634-1.592.634z" fill="#502652"/></g><g><path d="m168.191 136.921c-32.946 0-59.75-26.803-59.75-59.749 0-23.416 13.787-44.791 35.124-54.454 1.168-.529 2.541-.011 3.07 1.156s.011 2.542-1.156 3.07c-19.682 8.914-32.399 28.63-32.399 50.228 0 30.388 24.722 55.11 55.111 55.11 30.388 0 55.11-24.722 55.11-55.11 0-24.461-16.404-46.249-39.891-52.982-1.232-.353-1.944-1.638-1.591-2.869.353-1.232 1.638-1.943 2.869-1.591 25.466 7.301 43.252 30.922 43.252 57.442.001 32.945-26.803 59.749-59.749 59.749zm0-13.184c-25.676 0-46.565-20.889-46.565-46.565 0-17.777 10.353-34.252 26.376-41.972 1.154-.556 2.54-.072 3.097 1.083.556 1.154.071 2.541-1.083 3.097-14.428 6.952-23.751 21.786-23.751 37.793 0 23.118 18.808 41.926 41.926 41.926s41.926-18.808 41.926-41.926c0-18.47-11.838-34.561-29.458-40.041-1.223-.38-1.907-1.681-1.526-2.904.381-1.224 1.681-1.906 2.904-1.526 19.57 6.087 32.719 23.958 32.719 44.471 0 25.675-20.889 46.564-46.565 46.564z" fill="#502652"/></g><g><path d="m225.621 148.236c-13.999 0-27.126-6.213-36.015-17.047-.812-.99-.668-2.452.322-3.265.991-.813 2.452-.668 3.265.322 8.004 9.755 19.824 15.35 32.428 15.35 23.118 0 41.926-18.808 41.926-41.926s-18.808-41.926-41.926-41.926c-1.086 0-2.182.042-3.259.125-1.281.098-2.393-.858-2.491-2.135s.858-2.392 2.135-2.491c1.195-.092 2.411-.138 3.615-.138 25.676 0 46.565 20.889 46.565 46.565 0 25.677-20.889 46.566-46.565 46.566z" fill="#502652"/></g><g><path d="m184.597 120.596c-.917 0-1.785-.547-2.15-1.449-2.25-5.554-3.391-11.433-3.391-17.475 0-19.168 11.5-36.148 29.299-43.258 1.19-.476 2.539.104 3.015 1.294.475 1.19-.104 2.539-1.294 3.015-16.026 6.402-26.381 21.691-26.381 38.95 0 5.442 1.027 10.736 3.051 15.733.481 1.187-.091 2.54-1.279 3.021-.285.114-.58.169-.87.169z" fill="#502652"/></g><g><path d="m171.628 123.606c-.948 0-1.838-.585-2.18-1.528-2.372-6.53-3.576-13.396-3.576-20.406 0-23.644 13.975-45.102 35.603-54.669 1.172-.518 2.541.011 3.06 1.183.518 1.172-.011 2.541-1.183 3.06-19.949 8.824-32.84 28.617-32.84 50.426 0 6.468 1.109 12.801 3.297 18.822.437 1.204-.184 2.535-1.388 2.972-.263.095-.53.14-.793.14z" fill="#502652"/></g><g><path d="m225.621 161.421c-19.886 0-38.41-9.852-49.553-26.355-.717-1.062-.437-2.504.624-3.221 1.062-.717 2.503-.437 3.22.624 10.279 15.223 27.366 24.311 45.708 24.311 30.388 0 55.111-24.722 55.111-55.11s-24.722-55.11-55.111-55.11c-3.157 0-6.322.269-9.407.799-1.264.217-2.462-.631-2.679-1.893-.217-1.263.631-2.462 1.893-2.679 3.344-.575 6.773-.866 10.193-.866 32.946 0 59.75 26.804 59.75 59.75s-26.803 59.75-59.749 59.75z" fill="#502652"/></g></g></g></svg>