<?xml version="1.0" encoding="UTF-8" standalone="no"?>
<!DOCTYPE svg PUBLIC "-//W3C//DTD SVG 1.1//EN" "http://www.w3.org/Graphics/SVG/1.1/DTD/svg11.dtd">
<!-- Created with Vectornator (http://vectornator.io/) -->
<svg height="100%" stroke-miterlimit="10" style="fill-rule:nonzero;clip-rule:evenodd;stroke-linecap:round;stroke-linejoin:round;" version="1.1" viewBox="0 0 682.667 682.665" width="100%" xml:space="preserve" xmlns="http://www.w3.org/2000/svg" xmlns:vectornator="http://vectornator.io" xmlns:xlink="http://www.w3.org/1999/xlink">
<defs>
<linearGradient gradientTransform="matrix(6.49276 0 0 6.59417 -22.7952 -119.255)" gradientUnits="userSpaceOnUse" id="LinearGradient" x1="14.148" x2="11.257" y1="43.031" y2="25.836">
<stop offset="0" stop-color="#f57900"/>
<stop offset="1" stop-color="#f57900" stop-opacity="0"/>
</linearGradient>
</defs>
<clipPath id="ArtboardFrame">
<rect height="682.665" width="682.667" x="0" y="0"/>
</clipPath>
<g clip-path="url(#ArtboardFrame)" id="g4890" vectornator:layerName="g4890">
<path d="M341.764 72.1328L111.246 296.365L111.246 625.757L572.282 625.757L572.282 296.365L341.764 72.1328Z" fill="#dfebfa" fill-rule="nonzero" opacity="1" stroke="none" vectornator:layerName="path"/>
<g opacity="1" vectornator:layerName="path">
<clipPath id="ClipPath">
<path d="M0 5.1595e-05L682.667 5.1595e-05L682.667 682.665L0 682.665L0 5.1595e-05Z"/>
</clipPath>
<g clip-path="url(#ClipPath)">
<path d="M165.916 329.996C165.916 322.133 169.096 314.604 174.732 309.123L380.064 109.389L341.764 72.1334L111.247 296.364L111.247 625.756L165.916 625.756L165.916 329.996Z" fill="#b1dbfc" fill-rule="nonzero" opacity="1" stroke="none" vectornator:layerName="path"/>
<path d="M483.036 56.9088L483.036 140.51L556.852 212.313L556.852 56.9088L483.036 56.9088Z" fill="#695d67" fill-rule="nonzero" opacity="1" stroke="none" vectornator:layerName="path"/>
<path d="M525.784 146.191C522.05 142.559 519.943 137.571 519.943 132.362L519.943 56.9087L483.035 56.9087L483.035 140.51L556.851 212.313L556.851 176.411L525.784 146.191Z" fill="#544e55" fill-rule="nonzero" opacity="1" stroke="none" vectornator:layerName="path"/>
<path d="M633.438 282.811L361.017 17.8191C350.298 7.39114 333.229 7.39114 322.51 17.8191L50.0888 282.811C39.1581 293.443 38.9155 310.924 49.5501 321.856C60.1835 332.788 77.6648 333.03 88.5955 322.395L337.974 79.8178C340.083 77.7671 343.443 77.7671 345.553 79.8178L594.931 322.395C605.867 333.032 623.349 332.784 633.977 321.856C644.611 310.924 644.37 293.443 633.438 282.811" fill="#ff656f" fill-rule="nonzero" opacity="1" stroke="none" vectornator:layerName="path"/>
<path d="M337.975 79.8183C338.921 78.897 340.123 78.413 341.348 78.3183L365.621 54.7076C372.789 47.7343 382.792 45.4503 391.841 47.8036L361.017 17.8183C350.299 7.39163 333.229 7.39163 322.511 17.8183L50.0892 282.812C39.1572 293.442 38.9159 310.925 49.5505 321.857C60.1839 332.789 77.6652 333.03 88.5959 322.396L337.975 79.8183Z" fill="#ff4756" fill-rule="nonzero" opacity="1" stroke="none" vectornator:layerName="path"/>
<path d="M578.265 51.2669L578.265 19.6402C578.265 14.3149 573.948 9.99753 568.622 9.99753L471.265 9.99753C465.94 9.99753 461.624 14.3149 461.624 19.6402L461.624 51.2669C461.624 56.5922 465.94 60.9082 471.265 60.9082L568.622 60.9082C573.948 60.9082 578.265 56.5922 578.265 51.2669" fill="#7b6c79" fill-rule="nonzero" opacity="1" stroke="none" vectornator:layerName="path"/>
<path d="M498.53 51.2669L498.53 19.6402C498.53 14.3149 502.846 9.99753 508.172 9.99753L471.264 9.99753C465.94 9.99753 461.622 14.3149 461.622 19.6402L461.622 51.2669C461.622 56.5922 465.94 60.9082 471.264 60.9082L508.172 60.9082C502.846 60.9082 498.53 56.5922 498.53 51.2669" fill="#695d67" fill-rule="nonzero" opacity="1" stroke="none" vectornator:layerName="path"/>
<path d="M164.583 625.756L319.213 625.756L319.213 376.099L164.583 376.099L164.583 625.756Z" fill="#ab6b51" fill-rule="nonzero" opacity="1" stroke="none" vectornator:layerName="path"/>
<path d="M164.583 625.756L214.661 625.756L214.661 376.099L164.583 376.099L164.583 625.756Z" fill="#965a44" fill-rule="nonzero" opacity="1" stroke="none" vectornator:layerName="path"/>
<path d="M364.314 377.432L364.314 564.138C364.314 568.255 367.652 571.594 371.77 571.594L511.489 571.594C515.606 571.594 518.945 568.255 518.945 564.138L518.945 377.432L364.314 377.432Z" fill="#60b8fe" fill-rule="nonzero" opacity="1" stroke="none" vectornator:layerName="path"/>
<path d="M414.393 564.138L414.393 377.433L364.314 377.433L364.314 564.138C364.314 568.255 367.653 571.594 371.77 571.594L421.849 571.594C417.73 571.594 414.393 568.255 414.393 564.138" fill="#23a8fe" fill-rule="nonzero" opacity="1" stroke="none" vectornator:layerName="path"/>
<path d="M511.489 330.216L371.77 330.216C367.653 330.216 364.314 333.555 364.314 337.672L364.314 378.765L518.945 378.765L518.945 337.672C518.945 333.555 515.606 330.216 511.489 330.216" fill="#23a8fe" fill-rule="nonzero" opacity="1" stroke="none" vectornator:layerName="path"/>
<path d="M421.848 330.216L371.77 330.216C367.652 330.216 364.315 333.555 364.315 337.672L364.315 378.765L414.392 378.765L414.392 337.672C414.392 333.555 417.731 330.216 421.848 330.216" fill="#0193fa" fill-rule="nonzero" opacity="1" stroke="none" vectornator:layerName="path"/>
<path d="M311.758 330.216L172.039 330.216C167.922 330.216 164.583 333.555 164.583 337.672L164.583 378.765L319.214 378.765L319.214 337.672C319.214 333.555 315.875 330.216 311.758 330.216" fill="#bc7c63" fill-rule="nonzero" opacity="1" stroke="none" vectornator:layerName="path"/>
<path d="M222.117 330.216L172.039 330.216C167.921 330.216 164.583 333.555 164.583 337.672L164.583 378.765L214.661 378.765L214.661 337.672C214.661 333.555 218 330.216 222.117 330.216" fill="#ab6b51" fill-rule="nonzero" opacity="1" stroke="none" vectornator:layerName="path"/>
<path d="M265.324 466.206C254.268 466.206 245.305 475.168 245.305 486.226C245.305 497.282 254.268 506.243 265.324 506.243C276.38 506.243 285.344 497.282 285.344 486.226C285.344 475.168 276.38 466.206 265.324 466.206" fill="#dfebfa" fill-rule="nonzero" opacity="1" stroke="none" vectornator:layerName="path"/>
<path d="M582.016 621.756L101.512 621.756C96.1862 621.756 91.8702 626.074 91.8702 631.398L91.8702 663.024C91.8702 668.35 96.1862 672.668 101.512 672.668L582.016 672.668C587.341 672.668 591.658 668.35 591.658 663.024L591.658 631.398C591.658 626.074 587.341 621.756 582.016 621.756" fill="#43cb8e" fill-rule="nonzero" opacity="1" stroke="none" vectornator:layerName="path"/>
<path d="M152.87 663.025L152.87 631.398C152.87 626.073 157.186 621.757 162.511 621.757L101.511 621.757C96.1857 621.757 91.8697 626.073 91.8697 631.398L91.8697 663.025C91.8697 668.35 96.1857 672.666 101.511 672.666L162.511 672.666C157.186 672.666 152.87 668.35 152.87 663.025" fill="#00ba66" fill-rule="nonzero" opacity="1" stroke="none" vectornator:layerName="path"/>
<path d="M594.501 322.396L341.333 76.1331L88.1665 322.396C77.2345 333.03 59.7532 332.789 49.1198 321.857C38.4852 310.924 38.7265 293.442 49.6585 282.812L322.08 17.8184C332.798 7.39177 349.868 7.39177 360.586 17.8184L633.008 282.812C643.94 293.442 644.181 310.924 633.546 321.857C622.917 332.785 605.437 333.033 594.501 322.396Z" fill="none" opacity="1" stroke="#000000" stroke-linecap="round" stroke-linejoin="round" stroke-width="20" vectornator:layerName="path"/>
<path d="M581.585 621.756L101.081 621.756C95.7559 621.756 91.4399 626.074 91.4399 631.398L91.4399 663.024C91.4399 668.35 95.7559 672.668 101.081 672.668L581.585 672.668C586.911 672.668 591.228 668.35 591.228 663.024L591.228 631.398C591.228 626.074 586.911 621.756 581.585 621.756Z" fill="none" opacity="1" stroke="#000000" stroke-linecap="round" stroke-linejoin="round" stroke-width="20" vectornator:layerName="path"/>
<path d="M577.834 51.2669L577.834 19.6402C577.834 14.3149 573.517 9.99753 568.192 9.99753L470.834 9.99753C465.509 9.99753 461.193 14.3149 461.193 19.6402L461.193 51.2669C461.193 56.5922 465.509 60.9082 470.834 60.9082L568.192 60.9082C573.517 60.9082 577.834 56.5922 577.834 51.2669Z" fill="none" opacity="1" stroke="#000000" stroke-linecap="round" stroke-linejoin="round" stroke-width="20" vectornator:layerName="path"/>
<path d="M571.851 621.756L571.851 300.364" fill="none" opacity="1" stroke="#000000" stroke-linecap="round" stroke-linejoin="round" stroke-width="20" vectornator:layerName="path"/>
<path d="M110.816 300.365L110.816 621.757" fill="none" opacity="1" stroke="#000000" stroke-linecap="round" stroke-linejoin="round" stroke-width="20" vectornator:layerName="path"/>
<path d="M511.059 330.216L371.34 330.216C367.223 330.216 363.884 333.555 363.884 337.672L363.884 564.137C363.884 568.255 367.223 571.593 371.34 571.593L511.059 571.593C515.176 571.593 518.515 568.255 518.515 564.137L518.515 337.672C518.515 333.555 515.176 330.216 511.059 330.216Z" fill="none" opacity="1" stroke="#000000" stroke-linecap="round" stroke-linejoin="round" stroke-width="20" vectornator:layerName="path"/>
<path d="M164.152 378.766L318.783 378.766" fill="none" opacity="1" stroke="#000000" stroke-linecap="round" stroke-linejoin="round" stroke-width="20" vectornator:layerName="path"/>
<path d="M363.884 378.766L518.515 378.766" fill="none" opacity="1" stroke="#000000" stroke-linecap="round" stroke-linejoin="round" stroke-width="20" vectornator:layerName="path"/>
<path d="M264.893 466.206C253.837 466.206 244.875 475.168 244.875 486.226C244.875 497.282 253.837 506.243 264.893 506.243C275.949 506.243 284.913 497.282 284.913 486.226C284.913 475.168 275.949 466.206 264.893 466.206Z" fill="none" opacity="1" stroke="#000000" stroke-linecap="round" stroke-linejoin="round" stroke-width="20" vectornator:layerName="path"/>
<path d="M441.199 378.766L441.199 571.594" fill="none" opacity="1" stroke="#000000" stroke-linecap="round" stroke-linejoin="round" stroke-width="20" vectornator:layerName="path"/>
<path d="M363.884 475.181L518.515 475.181" fill="none" opacity="1" stroke="#000000" stroke-linecap="round" stroke-linejoin="round" stroke-width="20" vectornator:layerName="path"/>
<path d="M318.783 621.756L318.783 337.672C318.783 333.555 315.445 330.216 311.327 330.216L264.802 330.216" fill="none" opacity="1" stroke="#000000" stroke-linecap="round" stroke-linejoin="round" stroke-width="20" vectornator:layerName="path"/>
<path d="M218.135 330.216L171.608 330.216C167.491 330.216 164.152 333.555 164.152 337.672L164.152 621.756" fill="none" opacity="1" stroke="#000000" stroke-linecap="round" stroke-linejoin="round" stroke-width="20" vectornator:layerName="path"/>
<path d="M482.605 60.9088L482.605 136.51" fill="none" opacity="1" stroke="#000000" stroke-linecap="round" stroke-linejoin="round" stroke-width="20" vectornator:layerName="path"/>
<path d="M556.421 94.5703L556.421 60.909" fill="none" opacity="1" stroke="#000000" stroke-linecap="round" stroke-linejoin="round" stroke-width="20" vectornator:layerName="path"/>
<path d="M556.421 208.313L556.421 141.237" fill="none" opacity="1" stroke="#000000" stroke-linecap="round" stroke-linejoin="round" stroke-width="20" vectornator:layerName="path"/>
</g>
</g>
<g opacity="1" vectornator:layerName="g4215">
<path d="M85.0566 65.3909L292.815 65.3909C315.023 65.3909 333.026 82.3528 333.026 103.276L333.026 189.57C333.026 210.493 315.023 227.455 292.815 227.455L85.0566 227.455C62.8483 227.455 44.8449 210.493 44.8449 189.57L44.8449 103.276C44.8449 82.3528 62.8483 65.3909 85.0566 65.3909Z" fill="#000000" fill-rule="nonzero" opacity="0.94444" stroke="none" vectornator:layerName="rect"/>
<path d="M53.7805 44.3457L324.091 44.3457C329.026 44.3457 333.026 48.1149 333.026 52.7644L333.026 197.991C333.026 202.641 329.026 206.41 324.091 206.41L53.7805 206.41C48.8455 206.41 44.8449 202.641 44.8449 197.991L44.8449 52.7644C44.8449 48.1149 48.8455 44.3457 53.7805 44.3457Z" fill="#000000" fill-rule="nonzero" opacity="0.94444" stroke="none" vectornator:layerName="rect"/>
</g>
<path d="M32.2696 13.1032L361.29 13.1032C366.445 13.1032 370.624 17.0402 370.624 21.8968L370.624 21.8974C370.624 26.754 366.445 30.691 361.29 30.691L32.2696 30.691C27.1148 30.691 22.936 26.754 22.936 21.8974L22.936 21.8968C22.936 17.0402 27.1148 13.1032 32.2696 13.1032Z" fill="#000000" fill-rule="nonzero" opacity="0.94444" stroke="none" vectornator:layerName="rect"/>
<path d="M144.2 20.2502C144.239 26.6036 140.274 32.4886 133.809 35.6748C127.344 38.8611 119.367 38.8611 112.902 35.6748C106.437 32.4886 102.472 26.6036 102.511 20.2502C102.472 13.8967 106.437 8.01178 112.902 4.82552C119.367 1.63926 127.344 1.63926 133.809 4.82552C140.274 8.01178 144.239 13.8967 144.2 20.2502Z" fill="#000000" fill-rule="nonzero" opacity="0.94444" stroke="none" vectornator:layerName="path"/>
<path d="M256.046 20.2502C256.085 26.6036 252.121 32.4886 245.656 35.6748C239.19 38.8611 231.214 38.8611 224.749 35.6748C218.283 32.4886 214.319 26.6036 214.358 20.2502C214.319 13.8967 218.283 8.01178 224.749 4.82552C231.214 1.63926 239.19 1.63926 245.656 4.82552C252.121 8.01178 256.085 13.8967 256.046 20.2502Z" fill="#000000" fill-rule="nonzero" opacity="0.94444" stroke="none" vectornator:layerName="path"/>
<g opacity="1" vectornator:layerName="g2179">
<path d="M85.0566 65.3909L292.815 65.3909C315.023 65.3909 333.026 82.3528 333.026 103.276L333.026 189.57C333.026 210.493 315.023 227.455 292.815 227.455L85.0566 227.455C62.8483 227.455 44.8449 210.493 44.8449 189.57L44.8449 103.276C44.8449 82.3528 62.8483 65.3909 85.0566 65.3909Z" fill="#000000" fill-rule="nonzero" opacity="0.94444" stroke="none" vectornator:layerName="rect"/>
<path d="M53.7805 44.3457L324.091 44.3457C329.026 44.3457 333.026 48.1149 333.026 52.7644L333.026 197.991C333.026 202.641 329.026 206.41 324.091 206.41L53.7805 206.41C48.8455 206.41 44.8449 202.641 44.8449 197.991L44.8449 52.7644C44.8449 48.1149 48.8455 44.3457 53.7805 44.3457Z" fill="#000000" fill-rule="nonzero" opacity="0.94444" stroke="none" vectornator:layerName="rect"/>
</g>
<g opacity="1" vectornator:layerName="text4277">
<path d="M87.6398 176.817L87.6398 108.49L121.11 108.49C128.101 108.49 133.261 109.127 136.589 110.401C139.917 111.675 142.648 113.795 144.784 116.763C146.919 119.73 147.986 123.171 147.987 127.086C147.986 132.245 146.176 136.424 142.555 139.624C138.933 142.824 133.669 144.86 126.761 145.729C129.566 146.972 131.701 148.231 133.166 149.505C136.139 152.115 138.755 155.02 141.016 158.22L154.203 176.817L141.644 176.817L131.597 162.601C127.703 157.04 124.762 153.295 122.774 151.369C120.785 149.443 118.86 148.145 116.997 147.477C115.134 146.809 112.528 146.475 109.179 146.475L97.6247 146.475L97.6247 176.817L87.6398 176.817ZM97.6243 138.645L119.101 138.645C123.789 138.645 127.348 138.226 129.776 137.387C132.204 136.548 134.13 135.227 135.553 133.425C136.976 131.623 137.688 129.526 137.688 127.133C137.688 123.684 136.327 120.973 133.606 119C130.885 117.027 126.845 116.041 121.487 116.041L97.6242 116.041L97.6243 138.645Z" fill="#000000" fill-rule="nonzero" opacity="1" stroke="none" vectornator:layerName="path"/>
<path d="M199.855 160.878L209.4 161.95C207.81 167.232 204.931 171.217 200.766 173.905C196.6 176.592 191.441 177.936 185.287 177.936C177.542 177.936 171.273 175.754 166.479 171.388C161.686 167.022 159.289 160.723 159.289 152.488C159.289 143.944 161.707 137.427 166.542 132.937C171.378 128.447 177.5 126.202 184.91 126.202C191.985 126.202 197.888 128.408 202.619 132.82C207.349 137.233 209.715 143.618 209.715 151.976L209.652 154.213L168.835 154.213C169.212 159.775 170.949 163.97 174.047 166.798C177.145 169.625 180.912 171.039 185.35 171.039C192.299 171.039 197.134 167.652 199.856 160.879L199.855 160.878ZM169.4 147.315L199.918 147.315C199.5 143.027 198.265 139.827 196.213 137.714C193.241 134.638 189.453 133.1 184.848 133.1C180.703 133.1 177.166 134.381 174.235 136.945C171.305 139.508 169.693 142.965 169.4 147.315L169.4 147.315Z" fill="#000000" fill-rule="nonzero" opacity="1" stroke="none" vectornator:layerName="path"/>
<path d="M221.206 176.817L221.206 127.32L229.558 127.32L229.558 134.358C231.567 131.624 234.027 129.581 236.936 128.229C239.846 126.878 243.184 126.202 246.952 126.202C249.883 126.202 252.593 126.629 255.084 127.484C257.575 128.338 259.585 129.457 261.113 130.839C262.641 132.222 263.782 134.017 264.535 136.223C265.289 138.429 265.665 141.816 265.665 146.383L265.665 176.818L256.372 176.818L256.372 146.709C256.372 143.074 255.953 140.417 255.116 138.739C254.278 137.061 252.97 135.764 251.191 134.847C249.412 133.931 247.35 133.473 245.006 133.473C240.568 133.473 237.03 134.7 234.393 137.155C231.756 139.609 230.437 143.819 230.437 149.785L230.437 176.818L221.206 176.817Z" fill="#000000" fill-rule="nonzero" opacity="1" stroke="none" vectornator:layerName="path"/>
<path d="M300.645 169.315L301.9 176.725C299.347 177.223 297.044 177.471 294.993 177.471C291.769 177.471 289.174 176.997 287.206 176.05C285.239 175.102 283.889 173.805 283.156 172.158C282.423 170.511 282.057 167.233 282.057 162.324L282.057 133.846L275.275 133.846L275.275 127.321L282.057 127.321L282.057 115.063L291.288 110.029L291.288 127.321L300.645 127.321L300.645 133.846L291.288 133.846L291.288 162.789C291.288 165.461 291.56 167.186 292.104 167.963C292.9 169.081 294.386 169.641 296.563 169.641C297.609 169.641 298.97 169.532 300.645 169.315Z" fill="#000000" fill-rule="nonzero" opacity="1" stroke="none" vectornator:layerName="path"/>
</g>
<path d="M52.9293 45.5148C49.3012 46.1756 46.5637 49.1435 46.5637 52.5902L46.5637 175.115C46.5637 176.635 47.398 178.103 48.2998 179.256L48.2998 185.123C48.2998 204.294 65.45 219.637 86.8784 219.637L286.718 219.637C308.146 219.637 325.49 204.294 325.49 185.123L325.49 106.262C325.49 102.919 324.926 99.652 323.946 96.5983L323.946 52.5939C323.946 48.655 320.248 45.5184 315.845 45.5184L54.665 45.5184C54.1147 45.5184 53.4472 45.424 52.9289 45.5184L52.9293 45.5148Z" fill="#fcaf3e" fill-rule="nonzero" opacity="1" stroke="#b3570b" stroke-linecap="butt" stroke-linejoin="miter" stroke-width="1" vectornator:layerName="path"/>
<path d="M24.5076 5.17711L353.528 5.17711C358.683 5.17711 362.862 9.11415 362.862 13.9707L362.862 13.9713C362.862 18.8279 358.683 22.765 353.528 22.765L24.5076 22.765C19.3528 22.765 15.174 18.8279 15.174 13.9713L15.174 13.9707C15.174 9.11415 19.3528 5.17711 24.5076 5.17711Z" fill="#2e3436" fill-rule="nonzero" opacity="0.94444" stroke="none" vectornator:layerName="rect"/>
<path d="M137.435 13.3378C137.474 19.6912 133.51 25.5761 127.044 28.7624C120.579 31.9487 112.602 31.9487 106.137 28.7624C99.6721 25.5761 95.7077 19.6912 95.7464 13.3378C95.7077 6.98431 99.6721 1.09936 106.137-2.0869C112.602-5.27316 120.579-5.27316 127.044-2.0869C133.51 1.09936 137.474 6.98431 137.435 13.3378Z" fill="#888a85" fill-rule="nonzero" opacity="0.94444" stroke="none" vectornator:layerName="path"/>
<path d="M249.283 13.3378C249.322 19.6912 245.357 25.5761 238.892 28.7624C232.427 31.9487 224.45 31.9487 217.985 28.7624C211.52 25.5761 207.555 19.6912 207.594 13.3378C207.555 6.98431 211.52 1.09936 217.985-2.0869C224.45-5.27316 232.427-5.27316 238.892-2.0869C245.357 1.09936 249.322 6.98431 249.283 13.3378Z" fill="#888a85" fill-rule="nonzero" opacity="0.94444" stroke="none" vectornator:layerName="path"/>
<path d="M58.7798 53.5843C55.3112 54.1897 52.694 56.9085 52.694 60.0657L52.694 172.305C52.694 173.698 53.4916 175.042 54.3538 176.099L54.3538 181.474C54.3538 199.035 70.7506 213.09 91.2379 213.09L282.294 213.09C302.781 213.09 319.362 199.035 319.362 181.474L319.362 109.228C319.362 106.166 318.824 103.173 317.887 100.375L317.887 60.0646C317.887 56.4563 314.351 53.5832 310.141 53.5832L60.436 53.5832C59.91 53.5832 59.2717 53.4967 58.7762 53.5832L58.7798 53.5843Z" fill="url(#LinearGradient)" fill-rule="nonzero" opacity="1" stroke="#ce5c00" stroke-dasharray="0.6256055235862732,0.3128027617931366" stroke-linecap="butt" stroke-linejoin="miter" stroke-width="0.312799" vectornator:layerName="path"/>
<g opacity="1" vectornator:layerName="text2193">
<path d="M96.2186 94.3226L96.2186 71.129L91.9733 71.129L91.9733 67.6072L96.2186 67.6072L96.2186 64.7647C96.2186 62.9703 96.3877 61.6371 96.7259 60.765C97.1887 59.591 98.003 58.6394 99.169 57.9098C100.335 57.1803 101.968 56.8155 104.068 56.8155C105.421 56.8155 106.916 56.9664 108.554 57.2683L107.833 61.2177C106.836 61.0501 105.893 60.9662 105.003 60.9662C103.543 60.9662 102.511 61.2597 101.906 61.8466C101.301 62.4336 100.998 63.5321 100.998 65.142L100.998 67.6072L106.525 67.6072L106.525 71.129L100.998 71.129L100.998 94.3226L96.2186 94.3226Z" fill="#8f5902" fill-rule="nonzero" opacity="1" stroke="none" vectornator:layerName="path"/>
<path d="M108.443 80.9613C108.443 76.0141 109.903 72.3497 112.822 69.9682C115.261 67.9893 118.233 66.9999 121.74 66.9999C125.638 66.9999 128.824 68.2032 131.298 70.6097C133.773 73.0163 135.01 76.341 135.01 80.5841C135.01 84.022 134.462 86.726 133.368 88.697C132.273 90.6675 130.68 92.1978 128.588 93.2878C126.497 94.3779 124.214 94.9229 121.74 94.9229C117.77 94.9229 114.561 93.7239 112.114 91.3257C109.669 88.9315 108.443 85.4733 108.443 80.9632L108.443 80.9613ZM113.383 80.9613C113.383 84.3825 114.175 86.9442 115.759 88.6462C117.343 90.3484 119.337 91.1994 121.74 91.1994C124.125 91.1994 126.11 90.3441 127.694 88.6336C129.278 86.923 130.07 84.3152 130.07 80.8103C130.07 77.5066 129.274 75.0036 127.681 73.3014C126.087 71.5992 124.107 70.7482 121.74 70.7482C119.337 70.7482 117.343 71.5951 115.759 73.2888C114.175 74.9827 113.383 77.5401 113.383 80.9613Z" fill="#8f5902" fill-rule="nonzero" opacity="1" stroke="none" vectornator:layerName="path"/>
<path d="M140.618 94.3226L140.618 67.6074L144.944 67.6074L144.944 71.6574C146.047 69.7624 147.066 68.513 148.001 67.9092C148.935 67.3055 149.963 67.0037 151.085 67.0036C152.704 67.0037 154.351 67.49 156.024 68.4627L154.369 72.6637C153.194 72.0096 152.019 71.6826 150.844 71.6826C149.794 71.6826 148.851 71.9803 148.014 72.5756C147.178 73.171 146.581 73.9969 146.225 75.0534C145.691 76.6634 145.424 78.4243 145.424 80.3361L145.424 94.3225L140.618 94.3226Z" fill="#8f5902" fill-rule="nonzero" opacity="1" stroke="none" vectornator:layerName="path"/>
</g>
<g opacity="1" vectornator:layerName="text3274">
<path d="M96.9758 93.0469L96.9758 69.8534L92.7305 69.8534L92.7305 66.3316L96.9758 66.3316L96.9758 63.489C96.9758 61.6946 97.1449 60.3614 97.4831 59.4893C97.9459 58.3154 98.7603 57.3637 99.9262 56.6342C101.092 55.9047 102.725 55.5399 104.826 55.5399C106.178 55.5399 107.674 55.6908 109.311 55.9927L108.59 59.9421C107.594 59.7745 106.65 59.6906 105.76 59.6906C104.301 59.6906 103.268 59.9841 102.663 60.571C102.058 61.158 101.755 62.2565 101.755 63.8664L101.755 66.3316L107.282 66.3316L107.282 69.8534L101.755 69.8534L101.755 93.047L96.9758 93.0469Z" fill="#ffffff" fill-rule="nonzero" opacity="1" stroke="none" vectornator:layerName="path"/>
<path d="M109.207 79.6917C109.207 74.7444 110.666 71.0801 113.586 68.6986C116.024 66.7197 118.997 65.7303 122.503 65.7303C126.402 65.7303 129.588 66.9336 132.062 69.3401C134.536 71.7467 135.773 75.0714 135.773 79.3145C135.773 82.7524 135.226 85.4564 134.131 87.4273C133.037 89.3978 131.444 90.9282 129.352 92.0182C127.26 93.1083 124.978 93.6534 122.503 93.6534C118.534 93.6534 115.325 92.4543 112.878 90.0561C110.43 87.658 109.206 84.2032 109.207 79.6917ZM114.146 79.6917C114.146 83.1129 114.938 85.6746 116.522 87.3766C118.107 89.0788 120.1 89.9299 122.503 89.9298C124.889 89.9298 126.873 89.0745 128.458 87.364C130.042 85.6534 130.834 83.0456 130.834 79.5407C130.834 76.237 130.037 73.7339 128.444 72.0318C126.851 70.3296 124.871 69.4785 122.503 69.4785C120.1 69.4786 118.107 70.3254 116.522 72.0192C114.938 73.7131 114.146 76.2705 114.146 79.6917Z" fill="#ffffff" fill-rule="nonzero" opacity="1" stroke="none" vectornator:layerName="path"/>
<path d="M141.382 93.0469L141.382 66.3317L145.707 66.3317L145.707 70.3818C146.811 68.4867 147.83 67.2374 148.764 66.6336C149.699 66.0299 150.727 65.7281 151.848 65.728C153.468 65.728 155.115 66.2144 156.788 67.1871L155.132 71.388C153.958 70.734 152.783 70.407 151.608 70.407C150.558 70.407 149.614 70.7047 148.778 71.3C147.941 71.8954 147.345 72.7213 146.989 73.7778C146.455 75.3878 146.188 77.1487 146.188 79.0605L146.188 93.0469L141.382 93.0469Z" fill="#ffffff" fill-rule="nonzero" opacity="1" stroke="none" vectornator:layerName="path"/>
</g>
<g opacity="1" vectornator:layerName="text2857">
<path d="M92.9244 162.374L101.05 161.466C101.435 165.612 102.33 169.013 103.735 171.671C105.141 174.328 107.323 176.476 110.283 178.116C113.242 179.755 116.571 180.575 120.27 180.575C123.554 180.575 126.454 179.953 128.97 178.709C131.485 177.466 133.356 175.76 134.585 173.593C135.813 171.426 136.427 169.061 136.427 166.498C136.427 163.897 135.835 161.627 134.651 159.686C133.467 157.745 131.514 156.114 128.792 154.795C127.046 153.928 123.184 152.581 117.207 150.753C111.229 148.925 107.042 147.201 104.645 145.58C101.538 143.507 99.2224 140.935 97.6984 137.863C96.1744 134.792 95.4124 131.352 95.4125 127.546C95.4125 123.363 96.3446 119.452 98.2089 115.815C100.073 112.178 102.796 109.418 106.376 107.533C109.957 105.649 113.937 104.707 118.317 104.706C123.14 104.707 127.394 105.696 131.079 107.674C134.763 109.653 137.596 112.565 139.579 116.409C141.562 120.253 142.627 124.607 142.775 129.468L134.518 130.26C134.075 125.021 132.573 121.064 130.013 118.388C127.453 115.712 123.673 114.374 118.672 114.374C113.464 114.374 109.669 115.589 107.287 118.02C104.904 120.451 103.713 123.382 103.713 126.811C103.713 129.789 104.557 132.239 106.243 134.161C107.901 136.083 112.228 138.053 119.227 140.069C126.225 142.085 131.027 143.847 133.631 145.355C137.418 147.579 140.215 150.396 142.02 153.807C143.825 157.218 144.728 161.147 144.728 165.594C144.728 170.004 143.736 174.159 141.754 178.061C139.771 181.961 136.923 184.995 133.209 187.163C129.495 189.33 125.316 190.414 120.67 190.414C114.781 190.414 109.846 189.321 105.867 187.135C101.886 184.949 98.7647 181.66 96.5005 177.269C94.2367 172.878 93.0456 167.913 92.9272 162.372L92.9244 162.374Z" fill="#555753" fill-rule="nonzero" opacity="1" stroke="none" vectornator:layerName="path"/>
<path d="M186.313 181.594C183.354 184.798 180.506 187.059 177.769 188.378C175.031 189.698 172.094 190.357 168.958 190.357C163.779 190.357 159.799 188.746 157.018 185.524C154.236 182.301 152.845 178.183 152.845 173.17C152.845 170.231 153.37 167.545 154.421 165.114C155.471 162.683 156.847 160.733 158.549 159.263C160.25 157.793 162.166 156.681 164.297 155.927C165.865 155.4 168.233 154.891 171.399 154.401C177.85 153.421 182.599 152.253 185.648 150.896C185.677 149.501 185.692 148.616 185.692 148.239C185.692 144.093 184.937 141.172 183.428 139.476C181.386 137.177 178.353 136.027 174.328 136.027C170.57 136.027 167.796 136.866 166.005 138.543C164.215 140.22 162.891 143.188 162.033 147.447L154.22 146.09C154.93 141.831 156.099 138.392 157.727 135.773C159.354 133.154 161.707 131.137 164.785 129.724C167.862 128.311 171.428 127.604 175.482 127.604C179.507 127.604 182.776 128.207 185.292 129.413C187.807 130.619 189.656 132.136 190.84 133.964C192.024 135.792 192.852 138.101 193.326 140.89C193.592 142.623 193.725 145.752 193.725 150.274L193.725 163.842C193.725 173.302 193.896 179.286 194.236 181.792C194.576 184.298 195.249 186.701 196.256 189L187.91 189C187.082 186.89 186.549 184.421 186.312 181.594L186.313 181.594ZM185.647 158.867C182.747 160.375 178.397 161.656 172.597 162.711C169.313 163.314 166.99 163.993 165.629 164.747C164.267 165.501 163.217 166.603 162.477 168.054C161.737 169.505 161.367 171.116 161.367 172.888C161.367 175.601 162.174 177.863 163.787 179.672C165.399 181.481 167.759 182.385 170.867 182.385C173.944 182.385 176.682 181.528 179.078 179.813C181.475 178.098 183.236 175.752 184.361 172.775C185.219 170.476 185.648 167.083 185.648 162.598L185.647 158.867Z" fill="#555753" fill-rule="nonzero" opacity="1" stroke="none" vectornator:layerName="path"/>
<path d="M205.977 189.004L205.977 106.124L213.967 106.124L213.967 189.004L205.977 189.004Z" fill="#555753" fill-rule="nonzero" opacity="1" stroke="none" vectornator:layerName="path"/>
<path d="M258.668 169.669L266.924 170.969C265.622 177.112 263.21 181.88 259.689 185.273C256.167 188.665 251.669 190.361 246.195 190.361C239.3 190.361 233.833 187.657 229.793 182.248C225.754 176.84 223.734 169.255 223.734 159.493C223.734 149.392 225.776 141.553 229.86 135.975C233.943 130.397 239.24 127.608 245.751 127.608C252.054 127.608 257.203 130.34 261.198 135.805C265.193 141.27 267.19 148.959 267.19 158.871C267.19 159.474 267.175 160.379 267.146 161.585L231.991 161.585C232.287 168.181 233.752 173.231 236.386 176.736C239.019 180.242 242.304 181.994 246.24 181.994C249.169 181.994 251.67 181.014 253.742 179.054C255.813 177.094 257.455 173.966 258.669 169.67L258.668 169.669ZM232.434 153.217L258.756 153.217C258.401 148.166 257.395 144.379 255.738 141.853C253.193 137.934 249.894 135.974 245.84 135.974C242.17 135.974 239.085 137.538 236.585 140.666C234.084 143.794 232.701 147.978 232.434 153.217Z" fill="#555753" fill-rule="nonzero" opacity="1" stroke="none" vectornator:layerName="path"/>
</g>
<g opacity="1" vectornator:layerName="text2901">
<path d="M93.9978 161.412L102.023 160.593C102.403 164.344 103.287 167.422 104.676 169.826C106.065 172.23 108.221 174.174 111.145 175.657C114.068 177.14 117.357 177.882 121.012 177.882C124.257 177.882 127.122 177.319 129.607 176.194C132.092 175.069 133.941 173.526 135.154 171.565C136.368 169.604 136.974 167.465 136.974 165.146C136.974 162.793 136.39 160.739 135.22 158.982C134.051 157.226 132.121 155.752 129.431 154.558C127.706 153.774 123.891 152.555 117.986 150.901C112.08 149.247 107.943 147.687 105.575 146.221C102.505 144.345 100.217 142.018 98.7117 139.239C97.206 136.46 96.4533 133.348 96.4533 129.904C96.4533 126.119 97.3742 122.582 99.216 119.291C101.058 116.001 103.748 113.503 107.285 111.798C110.823 110.093 114.755 109.241 119.082 109.24C123.847 109.241 128.05 110.136 131.69 111.926C135.33 113.716 138.13 116.35 140.089 119.828C142.047 123.307 143.1 127.245 143.246 131.644L135.089 132.36C134.654 127.622 133.168 124.044 130.64 121.627C128.111 119.201 124.374 117.992 119.434 117.992C114.288 117.993 110.539 119.092 108.185 121.292C105.832 123.491 104.655 126.142 104.655 129.245C104.655 131.939 105.488 134.156 107.155 135.895C108.792 137.634 113.068 139.416 119.982 141.24C126.896 143.064 131.64 144.658 134.213 146.022C137.955 148.034 140.717 150.583 142.501 153.669C144.284 156.755 145.176 160.31 145.176 164.334C145.176 168.324 144.197 172.083 142.238 175.613C140.279 179.142 137.465 181.887 133.796 183.848C130.127 185.809 125.998 186.789 121.407 186.789C115.589 186.789 110.714 185.8 106.782 183.822C102.85 181.845 99.7658 178.869 97.5288 174.897C95.2922 170.924 94.1155 166.432 93.9985 161.419L93.9978 161.412Z" fill="#eeeeec" fill-rule="nonzero" opacity="1" stroke="none" vectornator:layerName="path"/>
<path d="M186.271 178.801C183.347 181.699 180.533 183.745 177.829 184.939C175.124 186.132 172.223 186.729 169.124 186.729C164.007 186.729 160.075 185.271 157.327 182.356C154.579 179.44 153.205 175.715 153.205 171.179C153.205 168.519 153.724 166.09 154.762 163.89C155.8 161.691 157.159 159.926 158.84 158.597C160.521 157.267 162.414 156.261 164.519 155.579C166.069 155.101 168.408 154.641 171.536 154.198C177.909 153.311 182.601 152.254 185.613 151.026C185.642 149.765 185.656 148.963 185.656 148.622C185.656 144.871 184.911 142.229 183.42 140.694C181.403 138.614 178.406 137.574 174.43 137.574C170.717 137.574 167.976 138.333 166.207 139.85C164.438 141.368 163.13 144.053 162.282 147.906L154.563 146.679C155.265 142.826 156.42 139.714 158.028 137.344C159.636 134.974 161.96 133.15 165.001 131.871C168.041 130.593 171.564 129.953 175.57 129.953C179.546 129.953 182.776 130.499 185.261 131.59C187.746 132.681 189.574 134.054 190.743 135.708C191.912 137.361 192.731 139.45 193.199 141.973C193.462 143.542 193.594 146.372 193.594 150.464L193.594 162.74C193.594 171.299 193.762 176.712 194.098 178.98C194.434 181.247 195.099 183.421 196.093 185.501L187.848 185.501C187.03 183.592 186.504 181.358 186.27 178.801L186.271 178.801ZM185.613 158.238C182.748 159.602 178.45 160.762 172.72 161.717C169.474 162.262 167.179 162.876 165.835 163.558C164.49 164.24 163.452 165.237 162.721 166.55C161.99 167.863 161.625 169.321 161.625 170.923C161.625 173.379 162.421 175.425 164.015 177.061C165.608 178.698 167.94 179.516 171.01 179.516C174.05 179.517 176.755 178.741 179.123 177.189C181.491 175.638 183.23 173.515 184.341 170.821C185.189 168.741 185.613 165.672 185.613 161.614L185.613 158.238Z" fill="#eeeeec" fill-rule="nonzero" opacity="1" stroke="none" vectornator:layerName="path"/>
<path d="M205.698 185.505L205.698 110.52L213.592 110.52L213.592 185.505L205.698 185.505Z" fill="#eeeeec" fill-rule="nonzero" opacity="1" stroke="none" vectornator:layerName="path"/>
<path d="M257.748 168.011L265.905 169.188C264.619 174.746 262.236 179.059 258.757 182.129C255.278 185.198 250.834 186.732 245.425 186.732C238.613 186.732 233.212 184.285 229.221 179.392C225.23 174.499 223.234 167.636 223.234 158.805C223.234 149.666 225.252 142.574 229.286 137.527C233.321 132.48 238.554 129.957 244.986 129.957C251.214 129.957 256.301 132.429 260.248 137.374C264.195 142.318 266.168 149.274 266.168 158.242C266.168 158.788 266.153 159.606 266.124 160.697L231.392 160.697C231.685 166.665 233.132 171.234 235.734 174.405C238.336 177.577 241.581 179.162 245.47 179.162C248.364 179.162 250.834 178.276 252.881 176.503C254.928 174.729 256.55 171.899 257.749 168.012L257.748 168.011ZM231.83 153.126L257.836 153.126C257.485 148.557 256.491 145.13 254.854 142.845C252.339 139.299 249.08 137.526 245.074 137.526C241.449 137.526 238.401 138.941 235.931 141.771C233.46 144.601 232.093 148.386 231.83 153.126Z" fill="#eeeeec" fill-rule="nonzero" opacity="1" stroke="none" vectornator:layerName="path"/>
</g>
</g>
</svg>
