<svg id="Capa_1" enable-background="new 0 0 512 512" height="512" viewBox="0 0 512 512" width="512" xmlns="http://www.w3.org/2000/svg"><g><g><path d="m59.631 142.068 23.729-18.983 345.28 1.277 32.089 15.121c16.605 13.284 26.271 33.396 26.271 54.661v5.356l-20 115 20 130c0 15.365-5.776 29.381-15.274 39.996-10.987 12.277-34.826 15.1-52.598 15.1l-331.234.904c-33.137 0-58.553-31.086-58.553-64.223l4.02-239.548c-.001-21.265 9.665-41.377 26.27-54.661z" fill="#6f6571"/><path d="m85 484.5c-22.091 0-40-17.909-40-40v-250.36c-.973-16.651 8.844-29.325 19.897-40.621 7.523-7.689 17.831-12.019 28.588-12.019h369.645c-.78-.69-1.58-1.37-2.4-2.02l-23.73-18.98-204.085-8.649-157.915 8.649c-.71.61-26.751 21.287-26.112 21-15.131 13.261-23.888 32.424-23.888 52.64v5.36l6.553 117.628-6.553 127.372c0 33.137 26.863 60 60 60h342c17.77 0 33.74-7.73 44.73-20z" fill="#5d5360"/><path d="m487 444.5h-462l6.384-130-6.384-115h462v30l-17.692 100 17.692 85z" fill="#f0e9e6"/><path d="m45 199.5v245h-20v-30l10-86.622-10-98.378v-30z" fill="#e5dcd8"/><path d="m25 414.5 6.25-92-6.25-93h462v185z" fill="#fc8c5b"/><path d="m25 229.5h20v185h-20z" fill="#e27650"/><path d="m139.949 307.5h2.551l8.713 3.755 11.574-3.755h187.064l12 3.074 6.649-3.074h2.551c5.523 0 10 4.477 10 10v10c-2.263 5.138-12.736 6.053-12.736 6.053l-224.251 1.443s-14.114-1.973-14.114-7.496v-10c-.001-5.523 4.477-10 9.999-10z" fill="#6f6571"/><path d="m368.5 321.5v-14h-13v17h-200v-17h-13v14c0 1.657-1.343 3-3 3h-9.55v3c0 5.523 4.477 10 10 10h231.1c5.523 0 10-4.477 10-10v-3h-9.55c-1.657 0-3-1.343-3-3z" fill="#5d5360"/><path d="m343.383 363.766-17.883 1.711v-82.732l13-4.222h7c5.523 0 10 4.477 10 10v61.957l-2.117 3.286c0 5.523-4.477 10-10 10z" fill="#6f6571"/><path d="m185.5 365.477-17.777-1.371c-5.523 0-10-4.477-10-10l-2.223-3.626v-61.957c0-5.523 4.477-10 10-10h7l13 4.732z" fill="#6f6571"/><g fill="#5d5360"><path d="m338.5 347.48v-68.96h-13l-6.117 56.476 6.117 30.484h13 7c5.523 0 10-4.477 10-10v-5h-14c-1.657 0-3-1.343-3-3z"/><path d="m169.5 350.48h-14v5c0 5.523 4.477 10 10 10h7 13l6.564-44.232-6.564-42.728h-13v68.96c0 1.657-1.343 3-3 3z"/></g><path d="m204.489 382.149h-8.511c-5.523 0-8.851-2.647-8.851-8.17l-1.627-4.479v-100c0-5.523 4.477-10 10-10h10c5.523 0 10 4.477 10 10v100l-.887 5.616c0 5.523-4.601 7.033-10.124 7.033z" fill="#6f6571"/><path d="m215.5 369.5v5c0 5.52-4.48 10-10 10h-10c-5.52 0-10-4.48-10-10v-5z" fill="#5d5360"/><path d="m315.979 382.83-9.191.17c-5.523 0-8.851-3.498-8.851-9.021l-2.437-4.479v-100c0-5.523 4.477-10 10-10h10c5.523 0 10 4.477 10 10v100l-1.471 6.287c0 5.523-2.527 7.043-8.05 7.043z" fill="#6f6571"/><path d="m325.5 369.5v5c0 5.52-4.48 10-10 10h-10c-5.52 0-10-4.48-10-10v-5z" fill="#5d5360"/><path d="m435.277 118.426-359.417-1.086c-16.569 0-30-13.431-30-30l.502-48.762c0-16.569 12.112-30.472 28.681-30.472l14.68-.606h347.277c16.569 0 30 13.431 30 30l-10.34 26.5 10.34 26.5c0 5.467-1.462 10.593-4.018 15.007-5.188 8.963-16.604 12.919-27.705 12.919z" fill="#f0e9e6"/><path d="m64.048 87.726c-1.119-17.773.742-42.494-.048-50.226 0-16.57 13.43-30 30-30h-19c-16.569 0-30 13.431-30 30l4.085 26.555-4.085 26.445c0 9.596 4.509 18.132 11.519 23.623 9.117 8.432 26.164 6.127 37.481 6.377h343c11.1 0 20.79-6.03 25.97-15h-379.959c-10.02 0-18.334-7.774-18.963-17.774z" fill="#e5dcd8"/><path d="m45 90.5 5-26.5-5-26.5h30.86l6.704 4.223 8.296-4.223h23.37l9.015 4.223 5.985-4.223h23.36l6.91 4.223 8.09-4.223h23.36l8.298 4.223 6.702-4.223h23.37l8.296 4.223 6.704-4.223h23.36l6.767 4.904 8.233-4.904h23.36l5.799 4.904 9.201-4.904h23.37l6.764 4.904 8.236-4.904h23.36l9.069 4.904 5.931-4.904h23.37l6.761 4.904 8.239-4.904h30.86v53h-30.86l-6.798-3.67-8.202 3.67h-23.37l-7.498-3.67-7.502 3.67h-23.36l-7.498-3.67-7.502 3.67h-23.37l-7.493-3.67-7.507 3.67h-23.36l-7.498-3.67-7.502 3.67h-23.36l-7.5-3.67-7.5 3.67h-23.37l-10.138-4.181-4.862 4.181h-23.36l-7.496-4.181-7.504 4.181h-23.36l-9.163-4.181-5.837 4.181h-23.37l-7.496-4.181-7.504 4.181z" fill="#fc8c5b"/><path d="m64.42 90.5h-19.42v-53h19c.79 7.73-1.07 32.45.05 50.23.06.94.19 1.87.37 2.77z" fill="#e27650"/></g><g><path d="m465.414 133.626-11.861-9.489c12.397-6.125 20.947-18.899 20.947-33.637v-53c0-20.678-16.822-37.5-37.5-37.5h-362c-20.678 0-37.5 16.822-37.5 37.5v53c0 14.738 8.55 27.512 20.947 33.638l-11.861 9.489c-18.484 14.787-29.086 36.845-29.086 60.517v152.856c0 4.142 3.357 7.5 7.5 7.5s7.5-3.358 7.5-7.5v-110h447v170h-447v-25c0-4.142-3.357-7.5-7.5-7.5s-7.5 3.358-7.5 7.5v62.5c0 37.22 30.28 67.5 67.5 67.5h342c37.22 0 67.5-30.28 67.5-67.5v-250.356c0-23.672-10.602-45.73-29.086-60.518zm-412.914-88.626h23.363v38h-23.363zm38.363 0h23.364v38h-23.364zm38.365 0h23.363v38h-23.363zm38.363 0h23.363v38h-23.363zm38.363 0h23.364v38h-23.364zm38.364 0h23.363v38h-23.363zm38.364 0h23.364v38h-23.364zm38.364 0h23.363v38h-23.363zm38.363 0h23.363v38h-23.363zm38.363 0h23.364v38h-23.364zm38.365 0h23.363v38h-23.363zm-361.137-30h362c9.777 0 18.114 6.271 21.21 15h-404.42c3.096-8.729 11.433-15 21.21-15zm-19.043 130.339 21.674-17.339h49.369c4.143 0 7.5-3.358 7.5-7.5s-3.357-7.5-7.5-7.5h-52c-9.777 0-18.114-6.271-21.21-15h404.42c-3.096 8.729-11.433 15-21.21 15h-275c-4.143 0-7.5 3.358-7.5 7.5s3.357 7.5 7.5 7.5h272.369l21.674 17.339c14.347 11.477 22.781 28.389 23.397 46.661h-446.88c.616-18.272 9.05-35.183 23.397-46.661zm-23.457 76.661v-15h447v15zm394.5 275h-342c-26.401 0-48.304-19.593-51.956-45h307.956c4.143 0 7.5-3.358 7.5-7.5s-3.357-7.5-7.5-7.5h-308.5v-15h447v15h-103.5c-4.143 0-7.5 3.358-7.5 7.5s3.357 7.5 7.5 7.5h102.956c-3.652 25.407-25.555 45-51.956 45z"/><path d="m205.5 252h-10c-9.649 0-17.5 7.851-17.5 17.5v1.523h-12.5c-9.649 0-17.5 7.851-17.5 17.5v11.477h-8.051c-9.649 0-17.5 7.851-17.5 17.5v10c0 9.649 7.851 17.5 17.5 17.5h8.051v10.477c0 9.649 7.851 17.5 17.5 17.5h12.5v1.523c0 9.649 7.851 17.5 17.5 17.5h10c9.649 0 17.5-7.851 17.5-17.5v-29.5h65v29.5c0 9.649 7.851 17.5 17.5 17.5h10c9.649 0 17.5-7.851 17.5-17.5v-1.523h12.5c9.649 0 17.5-7.851 17.5-17.5v-10.477h8.051c9.649 0 17.5-7.851 17.5-17.5v-10c0-9.649-7.851-17.5-17.5-17.5h-8.051v-11.477c0-9.649-7.851-17.5-17.5-17.5h-12.5v-1.523c0-9.649-7.851-17.5-17.5-17.5h-10c-9.649 0-17.5 7.851-17.5 17.5v30.5h-65v-30.5c0-9.649-7.851-17.5-17.5-17.5zm-65.551 78c-1.379 0-2.5-1.122-2.5-2.5v-10c0-1.378 1.121-2.5 2.5-2.5h8.051v15zm25.551 27.977c-1.379 0-2.5-1.122-2.5-2.5v-66.954c0-1.378 1.121-2.5 2.5-2.5h12.5v71.954zm42.5 16.523c0 1.378-1.121 2.5-2.5 2.5h-10c-1.379 0-2.5-1.122-2.5-2.5v-105c0-1.378 1.121-2.5 2.5-2.5h10c1.379 0 2.5 1.122 2.5 2.5zm163.051-59.5c1.379 0 2.5 1.122 2.5 2.5v10c0 1.378-1.121 2.5-2.5 2.5h-8.051v-15zm-68.051-45.5c0-1.378 1.121-2.5 2.5-2.5h10c1.379 0 2.5 1.122 2.5 2.5v35.5c0 4.142 3.357 7.5 7.5 7.5s7.5-3.358 7.5-7.5v-18.977h12.5c1.379 0 2.5 1.122 2.5 2.5v66.954c0 1.378-1.121 2.5-2.5 2.5h-12.5v-17.977c0-4.142-3.357-7.5-7.5-7.5s-7.5 3.358-7.5 7.5v34.5c0 1.378-1.121 2.5-2.5 2.5h-10c-1.379 0-2.5-1.122-2.5-2.5zm-15 45.5v15h-65v-15z"/><path d="m456.998 314.5h-41.396c-4.143 0-7.5 3.358-7.5 7.5s3.357 7.5 7.5 7.5h41.396c4.143 0 7.5-3.358 7.5-7.5s-3.357-7.5-7.5-7.5z"/><path d="m405.602 364.5h51.396c4.143 0 7.5-3.358 7.5-7.5s-3.357-7.5-7.5-7.5h-51.396c-4.143 0-7.5 3.358-7.5 7.5s3.357 7.5 7.5 7.5z"/><path d="m456.998 279.5h-51.396c-4.143 0-7.5 3.358-7.5 7.5s3.357 7.5 7.5 7.5h51.396c4.143 0 7.5-3.358 7.5-7.5s-3.357-7.5-7.5-7.5z"/><path d="m54.002 329.5h41.396c4.143 0 7.5-3.358 7.5-7.5s-3.357-7.5-7.5-7.5h-41.396c-4.143 0-7.5 3.358-7.5 7.5s3.357 7.5 7.5 7.5z"/><path d="m54.002 364.5h51.396c4.143 0 7.5-3.358 7.5-7.5s-3.357-7.5-7.5-7.5h-51.396c-4.143 0-7.5 3.358-7.5 7.5s3.357 7.5 7.5 7.5z"/><path d="m54.002 294.5h51.396c4.143 0 7.5-3.358 7.5-7.5s-3.357-7.5-7.5-7.5h-51.396c-4.143 0-7.5 3.358-7.5 7.5s3.357 7.5 7.5 7.5z"/></g></g></svg>