<?xml version="1.0" encoding="UTF-8" standalone="no"?>
<!DOCTYPE svg PUBLIC "-//W3C//DTD SVG 1.1//EN" "http://www.w3.org/Graphics/SVG/1.1/DTD/svg11.dtd">
<!-- Created with Vectornator (http://vectornator.io/) -->
<svg height="100%" stroke-miterlimit="10" style="fill-rule:nonzero;clip-rule:evenodd;stroke-linecap:round;stroke-linejoin:round;" version="1.1" viewBox="0 0 1024 1024" width="100%" xml:space="preserve" xmlns="http://www.w3.org/2000/svg" xmlns:vectornator="http://vectornator.io" xmlns:xlink="http://www.w3.org/1999/xlink">
<defs/>
<g id="Untitled" vectornator:layerName="Untitled">
<path d="M64 96L960 96L960 1024L64 1024L64 96Z" fill="#eaeaea" fill-rule="nonzero" opacity="1" stroke="none" vectornator:layerName="path"/>
<path d="M224 704L416 704L416 1024L224 1024L224 704Z" fill="#434854" fill-rule="nonzero" opacity="1" stroke="none" vectornator:layerName="path"/>
<path d="M608 640L800 640L800 864L608 864L608 640ZM608 160L800 160L800 384L608 384L608 160ZM224 160L416 160L416 384L224 384L224 160Z" fill="#469fcc" fill-rule="nonzero" opacity="1" stroke="none" vectornator:layerName="path"/>
<path d="M608 640L800 640L800 672L608 672L608 640ZM608 160L800 160L800 192L608 192L608 160ZM224 160L416 160L416 192L224 192L224 160Z" fill="#000000" fill-rule="nonzero" opacity="1" stroke="none" vectornator:layerName="path"/>
<path d="M64 96L960 96L960 128L64 128L64 96Z" fill="#000000" fill-rule="nonzero" opacity="1" stroke="none" vectornator:layerName="path"/>
<path d="M1024 64C1024 81.6731 1009.67 96 992 96L32 96C14.3269 96 2.16433e-15 81.6731 0 64L0 32C0 14.3269 14.3269 3.2465e-15 32 0L992 0C1009.67 0 1024 14.3269 1024 32L1024 64ZM1024 544C1024 561.673 1009.67 576 992 576L32 576C14.3269 576 2.16433e-15 561.673 0 544L0 512C0 494.327 14.3269 480 32 480L992 480C1009.67 480 1024 494.327 1024 512L1024 544Z" fill="#ef4d4d" fill-rule="nonzero" opacity="1" stroke="none" vectornator:layerName="path"/>
<path d="M238.24 1024C249.748 1004.63 255.879 982.533 256 960C256 889.308 198.692 832 128 832C57.3076 832 8.65733e-15 889.308 0 960C0 983.424 6.752 1005.09 17.76 1024C17.76 1024 238.24 1024 238.24 1024ZM896 832C845.895 832.055 800.448 861.398 779.776 907.04C766.285 899.89 751.268 896.103 736 896C682.981 896 640 938.981 640 992C640 1003.3 642.304 1013.95 645.888 1024L1006.27 1024C1017.76 1004.62 1023.87 982.528 1024 960C1024 889.308 966.692 832 896 832Z" fill="#3aad73" fill-rule="nonzero" opacity="1" stroke="none" vectornator:layerName="path"/>
<path d="M779.776 907.04C766.285 899.89 751.268 896.103 736 896C682.981 896 640 938.981 640 992C640 1003.3 642.304 1013.95 645.888 1024L785.76 1024C774.252 1004.63 768.121 982.533 768 960C768 941.056 772.384 923.232 779.776 907.04Z" fill="#000000" fill-rule="nonzero" opacity="1" stroke="none" vectornator:layerName="path"/>
<path d="M291.829 315.181L722.657 315.181L722.657 315.181L722.657 746.009L722.657 746.009L291.829 746.009L291.829 746.009L291.829 315.181L291.829 315.181Z" fill="#ffffff" fill-opacity="0.01" fill-rule="nonzero" opacity="1" stroke="none" vectornator:layerName="rect"/>
<path d="M507.243 710.106C606.385 710.106 686.755 629.736 686.755 530.595C686.755 431.453 606.385 351.083 507.243 351.083C408.102 351.083 327.731 431.453 327.731 530.595C327.731 629.736 408.102 710.106 507.243 710.106Z" fill="#ef4d4d" fill-rule="nonzero" opacity="1" stroke="#000000" stroke-linecap="butt" stroke-linejoin="round" stroke-width="26.9268" vectornator:layerName="path"/>
<path d="M496.448 672.814C478.941 672.814 456.557 668.995 429.297 661.357L429.297 624.697C458.672 638.327 482.818 645.142 501.736 645.142C516.306 645.142 528.027 641.323 536.898 633.686C545.769 626.048 550.205 616.002 550.205 603.547C550.205 593.325 547.297 584.63 541.48 577.462C535.664 570.295 524.942 562.305 509.315 553.492L491.337 543.093C469.13 530.403 453.473 518.448 444.366 507.226C435.26 496.005 430.707 482.933 430.707 468.011C430.707 447.918 437.992 431.38 452.562 418.396C467.132 405.412 485.697 398.921 508.257 398.921C528.35 398.921 549.558 402.269 571.883 408.967L571.883 442.807C544.388 431.997 523.885 426.592 510.372 426.592C497.565 426.592 486.99 429.999 478.647 436.814C470.305 443.629 466.133 452.207 466.133 462.547C466.133 471.242 469.188 478.938 475.298 485.636C481.408 492.333 492.571 500.323 508.786 509.606L527.468 520.181C550.028 532.988 565.773 545.091 574.703 556.488C583.634 567.886 588.099 581.575 588.099 597.555C588.099 620.232 579.727 638.445 562.983 652.192C546.239 665.94 524.061 672.814 496.448 672.814Z" fill="#000000" opacity="1" stroke="none"/>
</g>
</svg>
