<?xml version="1.0" encoding="UTF-8" standalone="no"?>
<!DOCTYPE svg PUBLIC "-//W3C//DTD SVG 1.1//EN" "http://www.w3.org/Graphics/SVG/1.1/DTD/svg11.dtd">
<!-- Created with Vectornator (http://vectornator.io/) -->
<svg height="100%" stroke-miterlimit="10" style="fill-rule:nonzero;clip-rule:evenodd;stroke-linecap:round;stroke-linejoin:round;" version="1.1" viewBox="0 0 58 58" width="100%" xml:space="preserve" xmlns="http://www.w3.org/2000/svg" xmlns:vectornator="http://vectornator.io" xmlns:xlink="http://www.w3.org/1999/xlink">
<defs/>
<g id="Page-1" vectornator:layerName="Page-1">
<g opacity="1" vectornator:layerName="012---Study-Books">
<path d="M42.4046 16.8485L47.3927 15.133L50.0724 14.21L56.2592 12.0749C56.6416 11.9411 56.8961 11.5908 56.8961 11.1985C56.8961 10.8063 56.6416 10.4559 56.2592 10.3221L29.2092 0.998677C28.9903 0.924102 28.7515 0.924102 28.5325 0.998677L1.48249 10.3221C1.10018 10.4559 0.845608 10.8063 0.845608 11.1985C0.845608 11.5908 1.10018 11.9411 1.48249 12.0749L15.3372 16.8485L42.4046 16.8485Z" fill="#393f4b" fill-rule="nonzero" opacity="1" stroke="none" vectornator:layerName="path"/>
<path d="M15.3372 25.1837L15.3372 13.0632C15.3372 11.5155 21.3983 10.2662 28.8709 10.2662C36.3434 10.2662 42.4046 11.5155 42.4046 13.0632L42.4046 25.1837L15.3372 25.1837Z" fill="#464f5e" fill-rule="nonzero" opacity="1" stroke="none" vectornator:layerName="path"/>
<path d="M49.1714 14.9279C48.6376 14.9279 48.2048 14.5105 48.2048 13.9955L48.2048 7.87937C48.2048 7.36445 48.6376 6.94703 49.1714 6.94703C49.7053 6.94703 50.1381 7.36445 50.1381 7.87937L50.1381 13.9955C50.1381 14.5105 49.7053 14.9279 49.1714 14.9279Z" fill="#edc100" fill-rule="nonzero" opacity="1" stroke="none" vectornator:layerName="path"/>
<path d="M47.2381 15.8602L47.2381 18.6573C47.2381 19.1722 47.6709 19.5896 48.2048 19.5896L50.1381 19.5896C50.672 19.5896 51.1048 19.1722 51.1048 18.6573L51.1048 15.8602C51.1048 14.8304 50.2392 13.9955 49.1714 13.9955C48.1037 13.9955 47.2381 14.8304 47.2381 15.8602Z" fill="#f1d24b" fill-rule="nonzero" opacity="1" stroke="none" vectornator:layerName="path"/>
<path d="M15.3372 25.1837C15.3372 23.6389 21.3964 22.3866 28.8709 22.3866C36.3453 22.3866 42.4046 23.6389 42.4046 25.1837C42.4046 26.7284 36.3453 27.9807 28.8709 27.9807C21.3964 27.9807 15.3372 26.7284 15.3372 25.1837Z" fill="#393f4b" fill-rule="nonzero" opacity="1" stroke="none" vectornator:layerName="ellipse"/>
</g>
<g opacity="1" vectornator:layerName="012---Study-Books">
<g opacity="1" vectornator:layerName="colour">
<path d="M54.0759 38.1692L54.0759 49.4995L11.4386 49.4995C8.5849 49.5381 6.1387 47.4402 5.70273 44.5802C5.4907 42.9615 5.9778 41.3288 7.03911 40.1007C8.10042 38.8726 9.63271 38.1686 11.2431 38.1692L54.0759 38.1692Z" fill="#fddead" fill-rule="nonzero" opacity="1" stroke="none" vectornator:layerName="path"/>
<path d="M51.2824 38.1692L54.0759 38.1692L54.0759 49.4995L51.2824 49.4995L51.2824 38.1692Z" fill="#ddc298" fill-rule="nonzero" opacity="1" stroke="none" vectornator:layerName="path"/>
<path d="M5.70273 44.5802C6.1387 47.4402 8.5849 49.5381 11.4386 49.4995L55.007 49.4995C55.5213 49.4995 55.9382 49.9222 55.9382 50.4437L55.9382 52.332C55.9382 52.8535 55.5213 53.2762 55.007 53.2762L11.5317 53.2762C6.5625 53.3556 2.37479 49.5335 1.93159 44.5141C1.74508 41.8944 2.64314 39.3144 4.41 37.3937C6.17686 35.4731 8.65284 34.3856 11.2431 34.3924L55.007 34.3924C55.5213 34.3924 55.9382 34.8152 55.9382 35.3366L55.9382 37.225C55.9382 37.7465 55.5213 38.1692 55.007 38.1692L11.2431 38.1692C9.63271 38.1686 8.10042 38.8726 7.03911 40.1007C5.9778 41.3288 5.4907 42.9615 5.70273 44.5802Z" fill="#ed432a" fill-rule="nonzero" opacity="1" stroke="none" vectornator:layerName="path"/>
<path d="M55.007 49.4995L52.2136 49.4995C52.7278 49.4995 53.1447 49.9222 53.1447 50.4437L53.1447 52.332C53.1447 52.8535 52.7278 53.2762 52.2136 53.2762L55.007 53.2762C55.5213 53.2762 55.9382 52.8535 55.9382 52.332L55.9382 50.4437C55.9382 49.9222 55.5213 49.4995 55.007 49.4995Z" fill="#c21e11" fill-rule="nonzero" opacity="1" stroke="none" vectornator:layerName="path"/>
<path d="M55.007 34.3924L52.2136 34.3924C52.7278 34.3924 53.1447 34.8152 53.1447 35.3366L53.1447 37.225C53.1447 37.7465 52.7278 38.1692 52.2136 38.1692L55.007 38.1692C55.5213 38.1692 55.9382 37.7465 55.9382 37.225L55.9382 35.3366C55.9382 34.8152 55.5213 34.3924 55.007 34.3924Z" fill="#c21e11" fill-rule="nonzero" opacity="1" stroke="none" vectornator:layerName="path"/>
<path d="M15.8988 24.5939C15.8988 23.2881 21.4948 22.2296 28.3979 22.2296C35.3009 22.2296 40.897 23.2881 40.897 24.5939C40.897 25.8996 35.3009 26.9581 28.3979 26.9581C21.4948 26.9581 15.8988 25.8996 15.8988 24.5939Z" fill="#627d8b" fill-rule="nonzero" opacity="1" stroke="none" vectornator:layerName="ellipse"/>
<path d="M29.1076 22.0268L27.6758 22.0268C34.3575 22.1622 39.6074 23.2369 39.6074 24.5656C39.6074 25.8942 34.3766 26.9521 27.6758 27.1044L29.1076 27.1044C36.4861 27.1044 42.4709 25.9704 42.4709 24.5656C42.4709 23.1608 36.4861 22.0268 29.1076 22.0268Z" fill="#384750" fill-rule="nonzero" opacity="1" stroke="none" vectornator:layerName="path"/>
</g>
<g opacity="1" vectornator:layerName="outline">
<path d="M13.1054 46.6669L15.8988 46.6669C16.4131 46.6669 16.83 46.2442 16.83 45.7227C16.83 45.2012 16.4131 44.7785 15.8988 44.7785L13.1054 44.7785C12.5911 44.7785 12.1742 45.2012 12.1742 45.7227C12.1742 46.2442 12.5911 46.6669 13.1054 46.6669Z" fill="#000000" fill-rule="nonzero" opacity="1" stroke="none" vectornator:layerName="path"/>
<path d="M18.6922 45.7227C18.6922 46.2442 19.1091 46.6669 19.6234 46.6669L45.6955 46.6669C46.2098 46.6669 46.6267 46.2442 46.6267 45.7227C46.6267 45.2012 46.2098 44.7785 45.6955 44.7785L19.6234 44.7785C19.1091 44.7785 18.6922 45.2012 18.6922 45.7227Z" fill="#000000" fill-rule="nonzero" opacity="1" stroke="none" vectornator:layerName="path"/>
<path d="M50.3513 44.7785L49.4201 44.7785C48.9059 44.7785 48.489 45.2012 48.489 45.7227C48.489 46.2442 48.9059 46.6669 49.4201 46.6669L50.3513 46.6669C50.8655 46.6669 51.2824 46.2442 51.2824 45.7227C51.2824 45.2012 50.8655 44.7785 50.3513 44.7785Z" fill="#000000" fill-rule="nonzero" opacity="1" stroke="none" vectornator:layerName="path"/>
<path d="M47.5578 42.8901L50.3513 42.8901C50.8655 42.8901 51.2824 42.4674 51.2824 41.9459C51.2824 41.4245 50.8655 41.0018 50.3513 41.0018L47.5578 41.0018C47.0436 41.0018 46.6267 41.4245 46.6267 41.9459C46.6267 42.4674 47.0436 42.8901 47.5578 42.8901Z" fill="#000000" fill-rule="nonzero" opacity="1" stroke="none" vectornator:layerName="path"/>
<path d="M27.0726 42.8901L43.8332 42.8901C44.3475 42.8901 44.7644 42.4674 44.7644 41.9459C44.7644 41.4245 44.3475 41.0018 43.8332 41.0018L27.0726 41.0018C26.5583 41.0018 26.1414 41.4245 26.1414 41.9459C26.1414 42.4674 26.5583 42.8901 27.0726 42.8901Z" fill="#000000" fill-rule="nonzero" opacity="1" stroke="none" vectornator:layerName="path"/>
<path d="M13.1054 42.8901L23.348 42.8901C23.8622 42.8901 24.2791 42.4674 24.2791 41.9459C24.2791 41.4245 23.8622 41.0018 23.348 41.0018L13.1054 41.0018C12.5911 41.0018 12.1742 41.4245 12.1742 41.9459C12.1742 42.4674 12.5911 42.8901 13.1054 42.8901Z" fill="#000000" fill-rule="nonzero" opacity="1" stroke="none" vectornator:layerName="path"/>
<path d="M55.007 33.4482L11.2431 33.4482C8.39416 33.4408 5.67091 34.6368 3.72742 36.749C1.78393 38.8613 0.795825 41.6989 1.00044 44.5802C1.478 50.0951 6.0727 54.301 11.5317 54.2204L55.007 54.2204C56.0355 54.2204 56.8693 53.375 56.8693 52.332L56.8693 50.4437C56.8693 49.4007 56.0355 48.5553 55.007 48.5553L55.007 39.1134C56.0355 39.1134 56.8693 38.2679 56.8693 37.225L56.8693 35.3366C56.8693 34.2937 56.0355 33.4482 55.007 33.4482ZM53.1447 48.5553L11.4386 48.5553C9.03485 48.6222 6.95673 46.8669 6.58733 44.4575C6.4092 43.1015 6.81988 41.7338 7.71305 40.7086C8.60622 39.6834 9.89404 39.1014 11.2431 39.1134L53.1447 39.1134L53.1447 48.5553ZM55.007 37.225L11.2431 37.225C9.36675 37.2252 7.58151 38.0452 6.34406 39.4754C5.10661 40.9055 4.53698 42.8071 4.7809 44.6935C5.26204 48.0331 8.11054 50.4933 11.4386 50.4437L55.007 50.4437L55.007 52.332L11.5317 52.332C7.05398 52.4057 3.2759 48.9697 2.86273 44.448C2.69434 42.09 3.50234 39.7674 5.09258 38.0384C6.68282 36.3095 8.91151 35.3304 11.2431 35.3366L55.007 35.3366L55.007 37.225Z" fill="#000000" fill-rule="nonzero" opacity="1" stroke="none" vectornator:layerName="path"/>
</g>
</g>
</g>
</svg>
