<?xml version="1.0" encoding="UTF-8" standalone="no"?>
<!-- Created with Inkscape (http://www.inkscape.org/) -->

<svg
   version="1.1"
   id="svg8892"
   xml:space="preserve"
   width="682.66669"
   height="682.66669"
   viewBox="0 0 682.66669 682.66669"
   xmlns="http://www.w3.org/2000/svg"
   xmlns:svg="http://www.w3.org/2000/svg"><defs
     id="defs8896"><clipPath
       clipPathUnits="userSpaceOnUse"
       id="clipPath8906"><path
         d="M 0,512 H 512 V 0 H 0 Z"
         id="path8904" /></clipPath></defs><g
     id="g8898"
     transform="matrix(1.3333333,0,0,-1.3333333,0,682.66667)"><g
       id="g8900"><g
         id="g8902"
         clip-path="url(#clipPath8906)"><g
           id="g8908"
           transform="translate(96.2451,276.5859)"><path
             d="m 0,0 -7.45,9.795 c -5.507,7.24 -5.241,17.336 0.639,24.276 L 26.697,73.93 c 3.734,4.407 10.378,4.735 14.587,0.779 11.683,-10.982 37.013,-28.784 72.912,-21.154 l 81.649,16.649 -0.45,-28.672 z"
             style="fill:#d78878;fill-opacity:1;fill-rule:nonzero;stroke:none"
             id="path8910" /></g><g
           id="g8912"
           transform="translate(291.6401,318.1201)"><path
             d="m 0,0 -195.39,-41.53 -4.31,5.67 144.31,30.67 c 9.15,1.95 17.15,7.47 22.22,15.339 l 8.362,13.371 25.258,5.15 z"
             style="fill:#c96e58;fill-opacity:1;fill-rule:nonzero;stroke:none"
             id="path8914" /></g><g
           id="g8916"
           transform="translate(345.3008,173.8721)"><path
             d="m 0,0 -229.036,-48.684 -17.746,83.492 369.034,78.44 -4.914,-12.864 C 109.551,79.997 97.715,61.399 82.543,45.713 60.19,22.602 31.45,6.685 0,0"
             style="fill:#eaf6ff;fill-opacity:1;fill-rule:nonzero;stroke:none"
             id="path8918" /></g><g
           id="g8920"
           transform="translate(345.3008,173.8721)"><path
             d="m 0,0 -229.036,-48.684 -17.746,83.492 369.034,78.44 -4.914,-12.864 C 109.551,79.997 97.715,61.399 82.543,45.713 60.19,22.602 31.45,6.685 0,0"
             style="fill:#eaf6ff;fill-opacity:1;fill-rule:nonzero;stroke:none"
             id="path8922" /></g><g
           id="g8924"
           transform="translate(467.5498,287.1201)"><path
             d="m 0,0 -4.91,-12.86 c -7.79,-20.39 -19.62,-38.991 -34.8,-54.68 -11.18,-11.561 -23.95,-21.311 -37.86,-29.01 -13.91,-7.711 -28.96,-13.35 -44.68,-16.7 l -10.86,-2.31 c 7.21,3.69 14.38,8.07 21.33,12.86 15.63,10.78 30.11,23.599 41.29,35.16 15.17,15.689 27.01,34.29 34.79,54.68 l 2.2,5.74 z"
             style="fill:#c8effe;fill-opacity:1;fill-rule:nonzero;stroke:none"
             id="path8926" /></g><g
           id="g8928"
           transform="translate(476.0879,288.9346)"><path
             d="m 0,0 -397.208,-84.43 c -9.949,-2.114 -19.729,4.237 -21.844,14.185 v 0.001 c -2.115,9.948 4.237,19.727 14.185,21.843 L -7.658,36.027 C 2.291,38.143 12.07,31.792 14.185,21.843 16.3,11.894 9.949,2.114 0,0"
             style="fill:#7ca1b1;fill-opacity:1;fill-rule:nonzero;stroke:none"
             id="path8930" /></g><g
           id="g8932"
           transform="translate(490.6802,306.9199)"><path
             d="m 0,0 c 0,-8.5 -5.93,-16.15 -14.59,-17.99 l -397.21,-84.43 c -5.46,-1.16 -10.86,0.231 -14.97,3.359 l 381.39,81.071 c 8.66,1.85 14.59,9.5 14.59,18.01 0,1.27 -0.13,2.55 -0.4,3.84 -0.95,4.49 -3.47,8.25 -6.86,10.82 l 15.8,3.36 C -12.3,20.16 -2.52,13.811 -0.41,3.86 -0.13,2.57 0,1.28 0,0"
             style="fill:#678d98;fill-opacity:1;fill-rule:nonzero;stroke:none"
             id="path8934" /></g><g
           id="g8936"
           transform="translate(90.8604,244.707)"><path
             d="m 0,0 -3.777,17.771 c -1.366,6.425 2.736,12.742 9.162,14.108 l 153.521,32.632 c 12.025,2.555 23.157,8.337 26.936,13.877 l 10.457,16.102 82.394,17.514 90.342,-33.563 z"
             style="fill:#fe646f;fill-opacity:1;fill-rule:nonzero;stroke:none"
             id="path8938" /></g><g
           id="g8940"
           transform="translate(459.8901,323.1504)"><path
             d="m 0,0 -369.03,-78.44 -1.33,6.259 L -30.78,0 l -79.14,29.399 19.58,4.161 z"
             style="fill:#fd4755;fill-opacity:1;fill-rule:nonzero;stroke:none"
             id="path8942" /></g><g
           id="g8944"
           transform="translate(287.1597,339.1973)"><path
             d="m 0,0 36.944,56.89 c 5.417,8.34 16.04,11.589 25.196,7.704 l 58.693,-24.91 c 5.891,-4.013 4.098,-13.129 -2.874,-14.611 z"
             style="fill:#fe646f;fill-opacity:1;fill-rule:nonzero;stroke:none"
             id="path8946" /></g><g
           id="g8948"
           transform="translate(405.1201,364.2695)"><path
             d="m 0,0 -117.96,-25.069 4.93,7.59 L -30.79,0 c 6.98,1.48 8.77,10.601 2.88,14.61 l -49.8,21.13 c 5.8,5.34 14.34,6.99 21.89,3.781 L 2.87,14.61 C 8.76,10.601 6.97,1.48 0,0"
             style="fill:#fd4755;fill-opacity:1;fill-rule:nonzero;stroke:none"
             id="path8950" /></g><g
           id="g8952"
           transform="translate(7.5,160.7979)"><path
             d="m 0,0 c 21.927,0 41.336,10.801 53.195,27.371 4.404,6.153 13.44,6.153 17.844,0 C 82.898,10.802 102.311,0 124.25,0 c 21.927,0 41.336,10.801 53.195,27.371 4.404,6.153 13.44,6.153 17.844,0 C 207.148,10.802 226.561,0 248.5,0 c 21.927,0 41.336,10.801 53.195,27.371 4.404,6.153 13.44,6.153 17.844,0 C 331.398,10.802 350.811,0 372.75,0 c 21.927,0 41.336,10.801 53.195,27.371 4.404,6.153 13.44,6.153 17.844,0 C 455.648,10.802 475.061,0 497,0 V -54.22 H 0 Z"
             style="fill:#99e6fc;fill-opacity:1;fill-rule:nonzero;stroke:none"
             id="path8954" /></g><g
           id="g8956"
           transform="translate(7.5,160.7979)"><path
             d="m 0,0 c 21.927,0 41.336,10.801 53.195,27.371 4.404,6.153 13.44,6.153 17.844,0 C 82.898,10.802 102.311,0 124.25,0 c 21.927,0 41.336,10.801 53.195,27.371 4.404,6.153 13.44,6.153 17.844,0 C 207.148,10.802 226.561,0 248.5,0 c 21.927,0 41.336,10.801 53.195,27.371 4.404,6.153 13.44,6.153 17.844,0 C 331.398,10.802 350.811,0 372.75,0 c 21.927,0 41.336,10.801 53.195,27.371 4.404,6.153 13.44,6.153 17.844,0 C 455.648,10.802 475.061,0 497,0"
             style="fill:none;stroke:#000000;stroke-width:15;stroke-linecap:round;stroke-linejoin:round;stroke-miterlimit:10;stroke-dasharray:none;stroke-opacity:1"
             id="path8958" /></g><g
           id="g8960"
           transform="translate(504.5,106.5781)"><path
             d="M 0,0 H -497"
             style="fill:none;stroke:#000000;stroke-width:15;stroke-linecap:round;stroke-linejoin:round;stroke-miterlimit:10;stroke-dasharray:none;stroke-opacity:1"
             id="path8962" /></g><g
           id="g8964"
           transform="translate(107.7285,165.3506)"><path
             d="m 0,0 -9.21,43.329 369.034,78.441 -4.913,-12.865 C 347.124,88.519 335.287,69.921 320.115,54.234 306.526,40.184 290.576,28.793 273.092,20.519"
             style="fill:none;stroke:#000000;stroke-width:15;stroke-linecap:round;stroke-linejoin:round;stroke-miterlimit:10;stroke-dasharray:none;stroke-opacity:1"
             id="path8966" /></g><g
           id="g8968"
           transform="translate(367.8994,303.5937)"><path
             d="m 0,0 100.531,21.368 c 9.948,2.115 19.728,-4.235 21.843,-14.184 2.114,-9.95 -4.236,-19.729 -14.186,-21.843 l -397.208,-84.43 c -9.949,-2.114 -19.729,4.236 -21.843,14.185 v 10e-4 c -2.115,9.948 4.236,19.727 14.185,21.842 l 260.132,55.293"
             style="fill:none;stroke:#000000;stroke-width:15;stroke-linecap:round;stroke-linejoin:round;stroke-miterlimit:10;stroke-dasharray:none;stroke-opacity:1"
             id="path8970" /></g><g
           id="g8972"
           transform="translate(90.8604,244.707)"><path
             d="m 0,0 -3.777,17.771 c -1.366,6.425 2.736,12.742 9.162,14.108 l 153.521,32.632 c 12.025,2.555 23.157,8.337 26.936,13.877 l 10.457,16.102"
             style="fill:none;stroke:#000000;stroke-width:15;stroke-linecap:round;stroke-linejoin:round;stroke-miterlimit:10;stroke-dasharray:none;stroke-opacity:1"
             id="path8974" /></g><g
           id="g8976"
           transform="translate(369.5532,356.7109)"><path
             d="M 0,0 90.342,-33.563"
             style="fill:none;stroke:#000000;stroke-width:15;stroke-linecap:round;stroke-linejoin:round;stroke-miterlimit:10;stroke-dasharray:none;stroke-opacity:1"
             id="path8978" /></g><g
           id="g8980"
           transform="translate(287.1597,339.1973)"><path
             d="m 0,0 36.944,56.89 c 5.417,8.34 16.04,11.589 25.196,7.704 l 58.693,-24.91 c 5.891,-4.013 4.098,-13.129 -2.874,-14.611 z"
             style="fill:none;stroke:#000000;stroke-width:15;stroke-linecap:round;stroke-linejoin:round;stroke-miterlimit:10;stroke-dasharray:none;stroke-opacity:1"
             id="path8982" /></g><g
           id="g8984"
           transform="translate(318.7803,387.8887)"><path
             d="M 0,0 -48.601,13.573 -70.652,-3.065"
             style="fill:none;stroke:#000000;stroke-width:15;stroke-linecap:round;stroke-linejoin:round;stroke-miterlimit:10;stroke-dasharray:none;stroke-opacity:1"
             id="path8986" /></g><g
           id="g8988"
           transform="translate(387.2969,387.6641)"><path
             d="M 0,0 -40.431,-8.594"
             style="fill:none;stroke:#000000;stroke-width:15;stroke-linecap:round;stroke-linejoin:round;stroke-miterlimit:10;stroke-dasharray:none;stroke-opacity:1"
             id="path8990" /></g><g
           id="g8992"
           transform="translate(116.1333,342.416)"><path
             d="m 0,0 6.809,8.1 c 3.734,4.407 10.378,4.735 14.587,0.779 11.683,-10.983 37.013,-28.784 72.912,-21.154 l 81.649,16.649"
             style="fill:none;stroke:#000000;stroke-width:15;stroke-linecap:round;stroke-linejoin:round;stroke-miterlimit:10;stroke-dasharray:none;stroke-opacity:1"
             id="path8994" /></g><g
           id="g8996"
           transform="translate(96.2451,276.5859)"><path
             d="m 0,0 -7.45,9.795 c -5.507,7.24 -5.241,17.336 0.639,24.276 l 3.92,4.663"
             style="fill:none;stroke:#000000;stroke-width:15;stroke-linecap:round;stroke-linejoin:round;stroke-miterlimit:10;stroke-dasharray:none;stroke-opacity:1"
             id="path8998" /></g><g
           id="g9000"
           transform="translate(210.4409,330.1406)"><path
             d="M 0,0 -59.975,-12.229"
             style="fill:none;stroke:#000000;stroke-width:15;stroke-linecap:round;stroke-linejoin:round;stroke-miterlimit:10;stroke-dasharray:none;stroke-opacity:1"
             id="path9002" /></g></g></g></g></svg>
