<?xml version="1.0"?>
<svg xmlns="http://www.w3.org/2000/svg" id="filledoutline" viewBox="0 0 64 64" width="512" height="512"><rect x="32" y="3" width="20" height="58" rx="10" ry="10" style="fill:#7c8c9a"/><rect x="12" y="7" width="16" height="54" rx="8" ry="8" style="fill:#7c8c9a"/><path d="M42,62A11.013,11.013,0,0,0,53,51V13a11,11,0,0,0-22,0V51A11.013,11.013,0,0,0,42,62ZM43,4.059a9.012,9.012,0,0,1,7.856,7.382L47.707,8.293A1,1,0,0,0,47,8H45v2h1.586l1,1-1,1H45v2h2a1,1,0,0,0,.707-.293L49,12.414l2,2v6.172l-3.293-3.293A1,1,0,0,0,47,17H45v2h1.586l1,1-1,1H45v2h2a1,1,0,0,0,.707-.293L49,21.414l2,2v6.172l-3.293-3.293A1,1,0,0,0,47,26H45v2h1.586l1,1-1,1H45v2h2a1,1,0,0,0,.707-.293L49,30.414l2,2v6.172l-3.293-3.293A1,1,0,0,0,47,35H45v2h1.586l1,1-1,1H45v2h2a1,1,0,0,0,.707-.293L49,39.414l2,2v6.172l-3.293-3.293A1,1,0,0,0,47,44H45v2h1.586l1,1-1,1H45v2h2a1,1,0,0,0,.707-.293L49,48.414l2,2V51a8.937,8.937,0,0,1-1.168,4.418l-2.125-2.125A1,1,0,0,0,47,53H45v2h1.586l1,1-1,1H45v2h1.1a8.9,8.9,0,0,1-3.1.941ZM33,51v-.586l2-2,1.293,1.293A1,1,0,0,0,37,50h2V48H37.414l-1-1,1-1H39V44H37a1,1,0,0,0-.707.293L33,47.586V41.414l2-2,1.293,1.293A1,1,0,0,0,37,41h2V39H37.414l-1-1,1-1H39V35H37a1,1,0,0,0-.707.293L33,38.586V32.414l2-2,1.293,1.293A1,1,0,0,0,37,32h2V30H37.414l-1-1,1-1H39V26H37a1,1,0,0,0-.707.293L33,29.586V23.414l2-2,1.293,1.293A1,1,0,0,0,37,23h2V21H37.414l-1-1,1-1H39V17H37a1,1,0,0,0-.707.293L33,20.586V14.414l2-2,1.293,1.293A1,1,0,0,0,37,14h2V12H37.414l-1-1,1-1H39V8H37a1,1,0,0,0-.707.293l-3.149,3.148A9.012,9.012,0,0,1,41,4.059V59.941A8.9,8.9,0,0,1,37.9,59H39V57H37.414l-1-1,1-1H39V53H37a1,1,0,0,0-.707.293l-2.125,2.125A8.937,8.937,0,0,1,33,51Z"/><path d="M20,62a9.011,9.011,0,0,0,9-9V15a9,9,0,0,0-18,0V53A9.011,9.011,0,0,0,20,62ZM21,8.08a7,7,0,0,1,5.978,6.484l-3.271-3.271-1.414,1.414L23.586,14l-1.293,1.293,1.414,1.414L25,15.414l2,2v6.172l-3.293-3.293-1.414,1.414L23.586,23l-1.293,1.293,1.414,1.414L25,24.414l2,2v6.172l-3.293-3.293-1.414,1.414L23.586,32l-1.293,1.293,1.414,1.414L25,33.414l2,2v6.172l-3.293-3.293-1.414,1.414L23.586,41l-1.293,1.293,1.414,1.414L25,42.414l2,2v6.172l-3.293-3.293-1.414,1.414L23.586,50l-1.293,1.293,1.414,1.414L25,51.414l1.98,1.98a6.968,6.968,0,0,1-1.835,4.337l-1.438-1.438-1.414,1.414L23.586,59A6.923,6.923,0,0,1,21,59.92ZM16.414,50l1.293-1.293-1.414-1.414L13,50.586V44.414l2-2,1.293,1.293,1.414-1.414L16.414,41l1.293-1.293-1.414-1.414L13,41.586V35.414l2-2,1.293,1.293,1.414-1.414L16.414,32l1.293-1.293-1.414-1.414L13,32.586V26.414l2-2,1.293,1.293,1.414-1.414L16.414,23l1.293-1.293-1.414-1.414L13,23.586V17.414l2-2,1.293,1.293,1.414-1.414L16.414,14l1.293-1.293-1.414-1.414-3.271,3.271A7,7,0,0,1,19,8.08V59.92A6.923,6.923,0,0,1,16.414,59l1.293-1.293-1.414-1.414-1.438,1.438a6.968,6.968,0,0,1-1.835-4.337L15,51.414l1.293,1.293,1.414-1.414Z"/></svg>
