<svg height="512" viewBox="0 0 64 64" width="512" xmlns="http://www.w3.org/2000/svg"><g id="Fill_Outline" data-name="Fill Outline"><g id="Color"><rect fill="#7ab92d" height="34" rx="4" transform="matrix(.174 -.985 .985 .174 5.772 66.037)" width="28" x="28.236" y="12.579"/><rect fill="#ad4038" height="20" rx="4" transform="matrix(.174 -.985 .985 .174 -11.583 35.977)" width="28" x="1.646" y="14.891"/><rect fill="#c4f236" height="28" rx="4" width="38" x="23" y="18"/><rect fill="#f8664f" height="28" rx="4" width="20" x="3" y="18"/><path d="m61 38v4a4 4 0 0 1 -4 4h-30a4 4 0 0 1 -4-4v-5.09a22.836 22.836 0 0 0 7 1.09z" fill="#a1d51c"/><path d="m23 36.91v5.09a4 4 0 0 1 -4 4h-12a4 4 0 0 1 -4-4v-20a4 4 0 0 1 4-4h.2a22.994 22.994 0 0 0 15.8 18.91z" fill="#cc5144"/><circle cx="47" cy="32" fill="#e9f1f2" r="9"/><path d="m54.49 36.99a9 9 0 1 1 -7.98-13.98 9 9 0 0 0 7.49 13.99c.17 0 .33 0 .49-.01z" fill="#d0d8da"/><g fill="#93999a"><path d="m53.7 38a8.982 8.982 0 0 1 -13.4 0z"/><path d="m47 29-2.629 1.91 1.004 3.09h3.25l1.004-3.09z"/><path d="m49.63 25.09-2.63 1.91-2.63-1.91.61-1.86a8.985 8.985 0 0 1 4.04 0z"/></g><path d="m42.24 30.45-2.62 1.91-1.58-1.15a8.89 8.89 0 0 1 1.25-3.85h1.95z" fill="#656b76"/><path d="m55.96 31.21-1.58 1.15-2.62-1.91 1-3.09h1.95a8.89 8.89 0 0 1 1.25 3.85z" fill="#93999a"/><path d="m53.79 37.9a8.974 8.974 0 0 1 -3.28 2.39l-1.58-1.15 1.01-3.09h3.25z" fill="#93999a"/><g fill="#656b76"><path d="m45.07 39.14-1.58 1.15a8.974 8.974 0 0 1 -3.28-2.39l.6-1.85h3.25z"/><path d="m47.3 34h-1.92l-1.01-3.09.91-.66a9 9 0 0 0 2.02 3.75z"/><path d="m46.51 23.01a9.171 9.171 0 0 0 -1.23 2.74l-.91-.66.61-1.86a9.724 9.724 0 0 1 1.53-.22z"/><path d="m53.79 37.9a8.974 8.974 0 0 1 -3.28 2.39l-1.58-1.15 1.01-3.09h.04a8.963 8.963 0 0 0 3.51.94z"/></g><path d="m45.07 39.14-1.58 1.15a8.916 8.916 0 0 1 -3.19-2.29h4.4z" fill="#464a51"/><path d="m53.7 38a8.916 8.916 0 0 1 -3.19 2.29l-1.58-1.15.37-1.14z" fill="#464a51"/><path d="m16 26h-6a2 2 0 0 1 -2 2v4.558a3 3 0 0 0 1.126 2.342l3.874 3.1 3.874-3.1a3 3 0 0 0 1.126-2.342v-4.558a2 2 0 0 1 -2-2z" fill="#f9e109"/><path d="m18 32.48v.08a2.976 2.976 0 0 1 -1.13 2.34l-3.87 3.1-3.87-3.1a2.976 2.976 0 0 1 -1.13-2.34v-4.56a2.006 2.006 0 0 0 2-2h2.22a9.013 9.013 0 0 0 5.78 6.48z" fill="#fcbc04"/><path d="m17.45 34.28a2.833 2.833 0 0 1 -.58.62l-3.87 3.1-3.87-3.1a2.976 2.976 0 0 1 -1.13-2.34v-4.56a2 2 0 0 0 1.97-1.69 23.12 23.12 0 0 0 7.48 7.97z" fill="#e59730"/></g><g id="Outline_copy" fill="#323232" data-name="Outline copy"><path d="m41 45h-14a3 3 0 0 1 -3-3 1 1 0 0 0 -2 0 3 3 0 0 1 -3 3h-12a3 3 0 0 1 -3-3v-4a1 1 0 0 0 -2 0v4a5.006 5.006 0 0 0 5 5h12a5 5 0 0 0 4-2 5 5 0 0 0 4 2h14a1 1 0 0 0 0-2z"/><path d="m57.625 17.063h-.008l-25.579-4.514a5 5 0 0 0 -4.287 1.279 5 5 0 0 0 -3.591-2.668l-11.818-2.083a5 5 0 0 0 -5.793 4.056l-.128.73a1 1 0 0 0 1.97.347l.128-.73a3 3 0 0 1 3.475-2.434l11.818 2.084a3 3 0 0 1 2.434 3.475.968.968 0 0 0 -.016.176.948.948 0 0 0 .05.276 5 5 0 0 0 -3.28 1.943 5 5 0 0 0 -4-2h-12a5.006 5.006 0 0 0 -5 5v12a1 1 0 0 0 2 0v-12a3 3 0 0 1 3-3h12a3 3 0 0 1 3 3 1 1 0 0 0 2 0 3 3 0 0 1 3-3h5a1 1 0 0 0 0-2h-3.8c0-.017.015-.03.018-.047a3.006 3.006 0 0 1 3.475-2.434l14.066 2.481h-9.759a1 1 0 0 0 0 2h21a3 3 0 0 1 3 3v20a3 3 0 0 1 -3 3h-12a1 1 0 0 0 0 2h12a5.006 5.006 0 0 0 5-5v-20a4.991 4.991 0 0 0 -4.375-4.937z"/><path d="m50.337 31.967 1.726-.561a1.027 1.027 0 0 0 .4-.249 1 1 0 0 0 .244-.4l.776-2.4h.635a7.945 7.945 0 0 1 .823 2.74 1 1 0 0 0 1.989-.223 10.013 10.013 0 1 0 -.5 4.417 1 1 0 0 0 -1.889-.659 8.085 8.085 0 0 1 -.448 1.019.992.992 0 0 0 -.907-.6h-2.734l-.771-1.062zm-10.44 3.7a7.945 7.945 0 0 1 -.8-2.462.972.972 0 0 0 1.108-.036l2.2-1.607 1.249.406.656 2.021-.771 1.062h-2.729a.993.993 0 0 0 -.91.615zm.616-7.306.552 1.709-1.445 1.053-.512-.373a7.934 7.934 0 0 1 .777-2.39zm5.587 4.639-.555-1.708 1.455-1.056 1.453 1.056-.553 1.708zm5.707-5.948-.845 2.609-.935.3-2.027-1.471v-.98l2.218-1.61a1 1 0 0 0 .374-1.049 7.994 7.994 0 0 1 2.088 1.523.99.99 0 0 0 -.871.678zm-3.555-2.947.2.6-1.452 1.059-1.452-1.055.2-.6a7.989 7.989 0 0 1 1.252-.109 8.108 8.108 0 0 1 1.254.105zm-4.848.758a.993.993 0 0 0 .376 1.036l2.22 1.611v.98l-2.029 1.474-.935-.3-.845-2.608a.991.991 0 0 0 -.87-.679 8.018 8.018 0 0 1 2.085-1.514zm-2.062 12.787.2-.6h1.8l.559 1.71-.507.368a8.013 8.013 0 0 1 -2.052-1.478zm4.378 2.238a1 1 0 0 0 .3-1.059l-.853-2.606.878-1.208.008-.015h1.894l.007.015.878 1.208-.853 2.606a1 1 0 0 0 .307 1.064 7.942 7.942 0 0 1 -1.286.107 8.058 8.058 0 0 1 -1.28-.112zm6.934-2.251a8.012 8.012 0 0 1 -2.039 1.492l-.509-.369.559-1.71h1.8z"/><path d="m7 32.558a3.981 3.981 0 0 0 1.5 3.124l3.874 3.1a1 1 0 0 0 1.25 0l3.874-3.1a3.981 3.981 0 0 0 1.502-3.124 1 1 0 0 0 -2 0 1.991 1.991 0 0 1 -.75 1.562l-3.25 2.599-3.25-2.6a1.991 1.991 0 0 1 -.75-1.561v-3.729a3.018 3.018 0 0 0 1.829-1.829h4.342a3.018 3.018 0 0 0 1.829 1.829v.171a1 1 0 0 0 2 0v-1a1 1 0 0 0 -1-1 1 1 0 0 1 -1-1 1 1 0 0 0 -1-1h-6a1 1 0 0 0 -1 1 1 1 0 0 1 -1 1 1 1 0 0 0 -1 1z"/><path d="m12 30a1 1 0 0 0 0 2h2a1 1 0 0 0 0-2z"/><path d="m8 23h10a1 1 0 0 0 0-2h-10a1 1 0 0 0 0 2z"/><path d="m27 22a1 1 0 0 0 -1 1v4a1 1 0 0 0 2 0v-4a1 1 0 0 0 -1-1z"/><path d="m36 26v-2a2 2 0 0 0 -2-2h-2a2 2 0 0 0 -2 2v2a2 2 0 0 0 2 2h2a2 2 0 0 0 2-2zm-4 0v-2h2v2z"/><path d="m28 32a1 1 0 0 0 1 1h3a1 1 0 0 0 0-2h-3a1 1 0 0 0 -1 1z"/><path d="m26 41a1 1 0 0 0 2 0v-4a1 1 0 0 0 -2 0z"/><path d="m31.553 41.9a1 1 0 0 0 1.342-.448l2-4a1 1 0 0 0 -.895-1.452h-3a1 1 0 0 0 0 2h1.382l-1.277 2.553a1 1 0 0 0 .448 1.347z"/><path d="m10 41a1 1 0 0 0 0 2h6a1 1 0 0 0 0-2z"/><circle cx="23" cy="26" r="1"/><circle cx="23" cy="30" r="1"/><circle cx="23" cy="34" r="1"/><circle cx="23" cy="38" r="1"/></g></g></svg>