<svg id="Glyph" height="512" viewBox="0 0 64 64" width="512" xmlns="http://www.w3.org/2000/svg"><path d="m58.38 13.75-26.03-9.69a1.05047 1.05047 0 0 0 -.7 0l-26.03 9.69a.98884.98884 0 0 0 -.66.93v3.43h54.08v-3.43a.98884.98884 0 0 0 -.66-.93z"/><path d="m10.3 27.45a7.35009 7.35009 0 0 1 -5.34-2.32v33.87a1.00747 1.00747 0 0 0 1.98.23993l8.12-32.92993c-.14-.09-.28-.19-.42-.29a7.2178 7.2178 0 0 1 -4.34 1.43z"/><path d="m6.96 24.27a5.35865 5.35865 0 0 0 6.52.12 4.8548 4.8548 0 0 0 1.16-1.19 5.04407 5.04407 0 0 0 .94 1.02 5.36558 5.36558 0 0 0 7.74-1.02009 5.31062 5.31062 0 0 0 8.68.00009 5.357 5.357 0 0 0 8.68-.00016 5.36553 5.36553 0 0 0 7.74 1.02 5.04012 5.04012 0 0 0 .94-1.01984 4.85631 4.85631 0 0 0 1.16 1.19 5.33784 5.33784 0 0 0 8.52-4.28h-54.08a5.32412 5.32412 0 0 0 2 4.16z"/><path d="m53.7 27.45a7.196 7.196 0 0 1 -4.34-1.43c-.14.1-.28.2-.42.29l8.12 32.93a1.00517 1.00517 0 0 0 1.98-.24v-33.87a7.34926 7.34926 0 0 1 -5.34 2.32z"/></svg>