<?xml version="1.0" encoding="UTF-8" standalone="no"?>
<!-- Created with Inkscape (http://www.inkscape.org/) -->

<svg
   version="1.1"
   id="svg4914"
   xml:space="preserve"
   width="682.66669"
   height="682.66669"
   viewBox="0 0 682.66669 682.66669"
   xmlns="http://www.w3.org/2000/svg"
   xmlns:svg="http://www.w3.org/2000/svg"><defs
     id="defs4918"><clipPath
       clipPathUnits="userSpaceOnUse"
       id="clipPath4928"><path
         d="M 0,512 H 512 V 0 H 0 Z"
         id="path4926" /></clipPath></defs><g
     id="g4920"
     transform="matrix(1.3333333,0,0,-1.3333333,0,682.66667)"><g
       id="g4922"><g
         id="g4924"
         clip-path="url(#clipPath4928)"><g
           id="g4930"
           transform="translate(502.8408,332.5605)"><path
             d="m 0,0 -228.372,-228.372 c -2.213,-2.213 -5.8,-2.213 -8.012,0 l -127.854,127.853 c -2.212,2.213 -2.212,5.8 0,8.012 l 228.372,228.372 c 2.213,2.213 5.8,2.213 8.012,0 L 0,8.011 C 2.212,5.799 2.212,2.212 0,0"
             style="fill:#5cc45c;fill-opacity:1;fill-rule:nonzero;stroke:none"
             id="path4932" /></g><g
           id="g4934"
           transform="translate(502.8408,340.5713)"><path
             d="m 0,0 -34.44,34.44 -236.384,-236.383 34.44,-34.441 c 2.212,-2.212 5.799,-2.212 8.012,0 L 0,-8.011 C 2.212,-5.799 2.212,-2.212 0,0"
             style="fill:#4ead4e;fill-opacity:1;fill-rule:nonzero;stroke:none"
             id="path4936" /></g><g
           id="g4938"
           transform="translate(187.6787,221.2197)"><path
             d="m 0,0 c 4.983,9.219 4.983,20.437 0.001,29.656 -0.669,1.238 -0.477,2.761 0.519,3.756 l 164.199,164.199 c 0.995,0.994 2.518,1.188 3.756,0.519 9.216,-4.984 20.435,-4.984 29.655,0 1.238,0.669 2.762,0.476 3.756,-0.519 l 63.681,-63.68 c 0.995,-0.995 1.188,-2.519 0.519,-3.756 -4.984,-9.22 -4.983,-20.437 0,-29.656 0.669,-1.238 0.476,-2.761 -0.519,-3.756 l -164.2,-164.201 c -0.995,-0.994 -2.518,-1.187 -3.756,-0.518 -9.219,4.983 -20.436,4.982 -29.655,0.001 -1.237,-0.669 -2.761,-0.477 -3.756,0.518 L 0.52,-3.755 C -0.476,-2.761 -0.669,-1.237 0,0"
             style="fill:#a0e557;fill-opacity:1;fill-rule:nonzero;stroke:none"
             id="path4940" /></g><g
           id="g4942"
           transform="translate(453.7646,321.7383)"><path
             d="m 0,0 c -4.983,9.22 -4.984,20.437 0,29.656 0.669,1.238 0.476,2.761 -0.519,3.755 l -36.668,36.668 c -6.586,-10.229 -6.586,-23.495 0,-33.725 l -167.642,-167.642 c -10.231,6.586 -23.496,6.586 -33.724,0 l 36.668,-36.667 c 0.994,-0.995 2.518,-1.188 3.755,-0.519 9.219,4.982 20.436,4.983 29.655,-0.001 1.238,-0.669 2.761,-0.475 3.756,0.519 L -0.52,-3.756 C 0.476,-2.761 0.669,-1.237 0,0"
             style="fill:#93cc4a;fill-opacity:1;fill-rule:nonzero;stroke:none"
             id="path4944" /></g><g
           id="g4946"
           transform="translate(353.6543,319.2402)"><path
             d="m 0,0 c 18.188,-18.188 18.188,-47.678 0,-65.866 -18.187,-18.189 -47.677,-18.189 -65.865,0 -18.189,18.188 -18.189,47.678 0,65.866 C -47.677,18.188 -18.187,18.188 0,0"
             style="fill:#f3e8d7;fill-opacity:1;fill-rule:nonzero;stroke:none"
             id="path4948" /></g><g
           id="g4950"
           transform="translate(265.4932,175.7109)"><path
             d="m 0,0 70.268,70.269 c 8.097,8.097 11.541,17.783 3.443,25.88 C 60.948,111.998 14.358,99.289 -7.741,77.188 -18.456,66.474 -30.624,54.304 -37.331,47.593 -40.612,44.31 -45.062,42.465 -49.76,42.465 h -0.242 c -7.753,0 -16.834,7.508 -18.833,14.998 l -0.005,64.931 11.595,11.594 12.739,12.74 50.598,50.596 c -20.816,2.333 -41.516,3.595 -49.545,4.557 -8.927,1.069 -16.541,-2.931 -23.469,-8.661 l -64.773,-51.102 c -9.142,-7.562 -15.732,-17.754 -18.889,-29.19 -7.071,-25.615 -21.967,-70.924 -31.42,-88.943 l -47.226,-47.226 81.761,-81.762 22.74,22.739 c 4.274,4.274 9.559,7.398 15.364,9.081 l 47.491,15.992 c 14.919,5.119 28.053,14.418 37.836,26.791 z"
             style="fill:#fcd7c3;fill-opacity:1;fill-rule:nonzero;stroke:none"
             id="path4952" /></g><g
           id="g4954"
           transform="translate(241.4551,145.3105)"><path
             d="m 0,0 24.037,30.4 70.269,70.269 c 8.097,8.098 11.541,17.783 3.443,25.881 -4.691,5.826 -13.954,7.792 -24.891,6.851 -16.018,-1.378 -30.946,-8.7 -42.315,-20.069 L -14.175,68.613 -38.213,38.213 C -47.996,25.84 -61.13,16.541 -76.049,11.423 L -123.54,-4.569 c -5.806,-1.684 -11.09,-4.807 -15.364,-9.081 l -22.74,-22.74 38.213,-38.213 22.74,22.74 c 4.274,4.274 9.559,7.397 15.364,9.081 l 47.491,15.992 C -22.917,-21.672 -9.783,-12.373 0,0"
             style="fill:#ffcdac;fill-opacity:1;fill-rule:nonzero;stroke:none"
             id="path4956" /></g><g
           id="g4958"
           transform="translate(104.7627,44.5449)"><path
             d="m 0,0 -94.633,94.633 c -3.507,3.507 -3.507,9.192 0,12.699 l 16.654,16.653 c 3.506,3.507 9.192,3.507 12.7,0 L 29.353,29.353 c 3.506,-3.507 3.506,-9.193 0,-12.7 L 12.7,0 C 9.193,-3.507 3.507,-3.507 0,0"
             style="fill:#464c50;fill-opacity:1;fill-rule:nonzero;stroke:none"
             id="path4960" /></g><g
           id="g4962"
           transform="translate(134.1152,73.8975)"><path
             d="M 0,0 -32.096,32.097 -61.448,2.744 -29.353,-29.353 c 3.507,-3.506 9.194,-3.506 12.701,0 L 0,-12.699 C 3.507,-9.192 3.507,-3.507 0,0"
             style="fill:#33393a;fill-opacity:1;fill-rule:nonzero;stroke:none"
             id="path4964" /></g><g
           id="g4966"
           transform="translate(332.9834,248.167)"><path
             d="m 0,0 c -9.326,9.326 -24.446,9.326 -33.772,0 l -10.61,-10.609 c -4.801,-4.801 -4.801,-12.585 0,-17.386 l 10.677,-10.676 36.187,36.189 z"
             style="fill:#efefef;fill-opacity:1;fill-rule:nonzero;stroke:none"
             id="path4968" /></g><g
           id="g4970"
           transform="translate(104.7627,44.5449)"><path
             d="m 0,0 -94.633,94.633 c -3.507,3.507 -3.507,9.192 0,12.699 l 16.654,16.653 c 3.506,3.507 9.192,3.507 12.7,0 L 29.353,29.353 c 3.506,-3.507 3.506,-9.193 0,-12.7 L 12.7,0 C 9.193,-3.507 3.507,-3.507 0,0 Z"
             style="fill:none;stroke:#000000;stroke-width:15;stroke-linecap:round;stroke-linejoin:round;stroke-miterlimit:10;stroke-dasharray:none;stroke-opacity:1"
             id="path4972" /></g><g
           id="g4974"
           transform="translate(331.042,195.7793)"><path
             d="m 0,0 122.204,122.203 c 0.994,0.995 1.188,2.519 0.519,3.756 -4.985,9.22 -4.985,20.437 0,29.656 0.669,1.238 0.475,2.761 -0.519,3.756 l -63.682,63.681 c -0.995,0.995 -2.517,1.187 -3.755,0.518 -9.22,-4.983 -20.439,-4.983 -29.656,0 -1.237,0.669 -2.76,0.476 -3.756,-0.518 L -134.386,67.31"
             style="fill:none;stroke:#000000;stroke-width:15;stroke-linecap:round;stroke-linejoin:round;stroke-miterlimit:10;stroke-dasharray:none;stroke-opacity:1"
             id="path4976" /></g><g
           id="g4978"
           transform="translate(249.7988,155.8633)"><path
             d="m 0,0 2.08,-2.08 c 0.995,-0.995 2.519,-1.188 3.756,-0.519 9.219,4.982 20.435,4.983 29.655,-10e-4 1.238,-0.669 2.761,-0.475 3.756,0.519 l 17.199,17.2"
             style="fill:none;stroke:#000000;stroke-width:15;stroke-linecap:round;stroke-linejoin:round;stroke-miterlimit:10;stroke-dasharray:none;stroke-opacity:1"
             id="path4980" /></g><g
           id="g4982"
           transform="translate(335.7607,245.9795)"><path
             d="m 0,0 -5.184,-5.185 c 8.456,1.824 16.506,6.007 23.078,12.58 18.188,18.188 18.188,47.677 0,65.866 -18.188,18.188 -47.677,18.188 -65.866,0 C -61.97,59.263 -65.183,38.577 -57.635,21.495"
             style="fill:none;stroke:#000000;stroke-width:15;stroke-linecap:round;stroke-linejoin:round;stroke-miterlimit:10;stroke-dasharray:none;stroke-opacity:1"
             id="path4984" /></g><g
           id="g4986"
           transform="translate(233.7695,136.876)"><path
             d="m 0,0 32.688,-32.688 c 2.211,-2.212 5.798,-2.212 8.011,0 l 228.372,228.373 c 2.212,2.211 2.212,5.798 0,8.01 L 141.217,331.55 c -2.212,2.213 -5.799,2.213 -8.012,0 L 62.894,261.238"
             style="fill:none;stroke:#000000;stroke-width:15;stroke-linecap:round;stroke-linejoin:round;stroke-miterlimit:10;stroke-dasharray:none;stroke-opacity:1"
             id="path4988" /></g><g
           id="g4990"
           transform="translate(332.9834,248.167)"><path
             d="m 0,0 c -9.326,9.326 -24.446,9.326 -33.772,0 l -10.61,-10.609 c -4.801,-4.801 -4.801,-12.585 0,-17.386 l 10.677,-10.676 36.187,36.189 z"
             style="fill:none;stroke:#000000;stroke-width:15;stroke-linecap:round;stroke-linejoin:round;stroke-miterlimit:10;stroke-dasharray:none;stroke-opacity:1"
             id="path4992" /></g><g
           id="g4994"
           transform="translate(127.665,80.3486)"><path
             d="m 0,0 13.099,13.099 c 4.274,4.273 9.559,7.397 15.364,9.081 l 47.491,15.992 c 14.919,5.118 28.053,14.417 37.836,26.79 l 24.038,30.4 70.268,70.269 c 8.097,8.098 11.541,17.783 3.443,25.881 -12.763,15.848 -59.352,3.139 -81.452,-18.961 -10.715,-10.715 -22.883,-22.885 -29.59,-29.596 -3.281,-3.283 -7.73,-5.128 -12.429,-5.128 h -0.242 c -7.753,0 -16.834,7.508 -18.833,14.998 l -0.005,64.931 11.595,11.595 12.739,12.739 50.598,50.597 c -20.816,2.333 -41.516,3.594 -49.545,4.556 -8.927,1.069 -16.541,-2.931 -23.469,-8.661 L 6.133,237.48 c -9.142,-7.562 -15.732,-17.753 -18.889,-29.19 -7.071,-25.614 -21.967,-70.924 -31.42,-88.941 L -81.763,81.762"
             style="fill:none;stroke:#000000;stroke-width:15;stroke-linecap:round;stroke-linejoin:round;stroke-miterlimit:10;stroke-dasharray:none;stroke-opacity:1"
             id="path4996" /></g></g></g></g></svg>
