<?xml version="1.0" encoding="UTF-8" standalone="no"?>
<!-- Created with Inkscape (http://www.inkscape.org/) -->

<svg
   version="1.1"
   id="svg3192"
   xml:space="preserve"
   width="682.66669"
   height="682.66669"
   viewBox="0 0 682.66669 682.66669"
   xmlns="http://www.w3.org/2000/svg"
   xmlns:svg="http://www.w3.org/2000/svg"><defs
     id="defs3196"><clipPath
       clipPathUnits="userSpaceOnUse"
       id="clipPath3206"><path
         d="M 0,512 H 512 V 0 H 0 Z"
         id="path3204" /></clipPath></defs><g
     id="g3198"
     transform="matrix(1.3333333,0,0,-1.3333333,0,682.66667)"><g
       id="g3200"><g
         id="g3202"
         clip-path="url(#clipPath3206)"><g
           id="g3208"
           transform="translate(316,444.5)"><path
             d="m 0,0 c 0,-33.137 -26.863,-60 -60,-60 -33.137,0 -60,26.863 -60,60 0,33.137 26.863,60 60,60 C -26.863,60 0,33.137 0,0"
             style="fill:#ffd54f;fill-opacity:1;fill-rule:nonzero;stroke:none"
             id="path3210" /></g><g
           id="g3212"
           transform="translate(256,504.5)"><path
             d="M 0,0 C -5.18,0 -10.206,-0.657 -15,-1.891 10.878,-8.551 30,-32.042 30,-60 c 0,-27.958 -19.122,-51.449 -45,-58.11 4.794,-1.234 9.82,-1.89 15,-1.89 33.137,0 60,26.863 60,60 C 60,-26.863 33.137,0 0,0"
             style="fill:#ffca28;fill-opacity:1;fill-rule:nonzero;stroke:none"
             id="path3214" /></g><g
           id="g3216"
           transform="translate(504.5,45.5)"><path
             d="m 0,0 h -497 l 79.015,235 h 107.288 231.682 z"
             style="fill:#4380a0;fill-opacity:1;fill-rule:nonzero;stroke:none"
             id="path3218" /></g><g
           id="g3220"
           transform="translate(425.4854,280.5)"><path
             d="m 0,0 h -29.94 l 79.015,-235 h 29.94 z"
             style="fill:#3b7191;fill-opacity:1;fill-rule:nonzero;stroke:none"
             id="path3222" /></g><g
           id="g3224"
           transform="translate(315.0059,280.5)"><path
             d="m 0,0 h -30 l 27.473,-235 h 30 z"
             style="fill:#3b7191;fill-opacity:1;fill-rule:nonzero;stroke:none"
             id="path3226" /></g><g
           id="g3228"
           transform="translate(196.312,280.4146)"><path
             d="M 0,0 -26.312,0.026 -57.79,-234.915 h 30 z"
             style="fill:#3b7191;fill-opacity:1;fill-rule:nonzero;stroke:none"
             id="path3230" /></g><g
           id="g3232"
           transform="translate(455.396,7.5)"><path
             d="m 0,0 h -398.792 l -36.604,38 h 472 z"
             style="fill:#ffd54f;fill-opacity:1;fill-rule:nonzero;stroke:none"
             id="path3234" /></g><g
           id="g3236"
           transform="translate(462,45.5)"><path
             d="m 0,0 -36.604,-38 h 30 L 30,0 Z"
             style="fill:#ffca28;fill-opacity:1;fill-rule:nonzero;stroke:none"
             id="path3238" /></g><g
           id="g3240"
           transform="translate(220.0693,492.5562)"><path
             d="m 0,0 c 10.016,7.501 22.455,11.944 35.931,11.944 33.137,0 60,-26.863 60,-60 0,-33.137 -26.863,-60 -60,-60 -33.138,0 -60,26.863 -60,60 0,8.147 1.624,15.915 4.566,22.998"
             style="fill:none;stroke:#000000;stroke-width:15;stroke-linecap:round;stroke-linejoin:round;stroke-miterlimit:10;stroke-dasharray:none;stroke-opacity:1"
             id="path3242" /></g><g
           id="g3244"
           transform="translate(57.1177,194.2563)"><path
             d="M 0,0 29.056,86.244 H 136.56 326.751"
             style="fill:none;stroke:#000000;stroke-width:15;stroke-linecap:round;stroke-linejoin:round;stroke-miterlimit:10;stroke-dasharray:none;stroke-opacity:1"
             id="path3246" /></g><g
           id="g3248"
           transform="translate(415.5479,280.5)"><path
             d="m 0,0 h 9.938 l 79.014,-235 h -497 l 39.821,118.432"
             style="fill:none;stroke:#000000;stroke-width:15;stroke-linecap:round;stroke-linejoin:round;stroke-miterlimit:10;stroke-dasharray:none;stroke-opacity:1"
             id="path3250" /></g><g
           id="g3252"
           transform="translate(196.312,280.4146)"><path
             d="M 0,0 -27.79,-234.73"
             style="fill:none;stroke:#000000;stroke-width:15;stroke-linecap:round;stroke-linejoin:round;stroke-miterlimit:10;stroke-dasharray:none;stroke-opacity:1"
             id="path3254" /></g><g
           id="g3256"
           transform="translate(315.0059,280.4146)"><path
             d="M 0,0 27.473,-234.73"
             style="fill:none;stroke:#000000;stroke-width:15;stroke-linecap:round;stroke-linejoin:round;stroke-miterlimit:10;stroke-dasharray:none;stroke-opacity:1"
             id="path3258" /></g><g
           id="g3260"
           transform="translate(443.1021,225.8574)"><path
             d="M 0,0 H -374.959"
             style="fill:none;stroke:#000000;stroke-width:15;stroke-linecap:round;stroke-linejoin:round;stroke-miterlimit:10;stroke-dasharray:none;stroke-opacity:1"
             id="path3262" /></g><g
           id="g3264"
           transform="translate(472.4609,138.1875)"><path
             d="M 0,0 H -433.796"
             style="fill:none;stroke:#000000;stroke-width:15;stroke-linecap:round;stroke-linejoin:round;stroke-miterlimit:10;stroke-dasharray:none;stroke-opacity:1"
             id="path3266" /></g><g
           id="g3268"
           transform="translate(455.396,7.5)"><path
             d="m 0,0 h -398.792 l -36.604,38 h 472 z"
             style="fill:none;stroke:#000000;stroke-width:15;stroke-linecap:round;stroke-linejoin:round;stroke-miterlimit:10;stroke-dasharray:none;stroke-opacity:1"
             id="path3270" /></g><g
           id="g3272"
           transform="translate(161,448.5029)"><path
             d="M 0,0 H -32"
             style="fill:none;stroke:#000000;stroke-width:15;stroke-linecap:round;stroke-linejoin:round;stroke-miterlimit:10;stroke-dasharray:none;stroke-opacity:1"
             id="path3274" /></g><g
           id="g3276"
           transform="translate(383,448.5029)"><path
             d="M 0,0 H -32"
             style="fill:none;stroke:#000000;stroke-width:15;stroke-linecap:round;stroke-linejoin:round;stroke-miterlimit:10;stroke-dasharray:none;stroke-opacity:1"
             id="path3278" /></g><g
           id="g3280"
           transform="translate(345.8027,358.7002)"><path
             d="M 0,0 -22.627,22.627"
             style="fill:none;stroke:#000000;stroke-width:15;stroke-linecap:round;stroke-linejoin:round;stroke-miterlimit:10;stroke-dasharray:none;stroke-opacity:1"
             id="path3282" /></g><g
           id="g3284"
           transform="translate(256,321.5029)"><path
             d="M 0,0 V 32"
             style="fill:none;stroke:#000000;stroke-width:15;stroke-linecap:round;stroke-linejoin:round;stroke-miterlimit:10;stroke-dasharray:none;stroke-opacity:1"
             id="path3286" /></g><g
           id="g3288"
           transform="translate(166.1973,358.7002)"><path
             d="M 0,0 22.627,22.627"
             style="fill:none;stroke:#000000;stroke-width:15;stroke-linecap:round;stroke-linejoin:round;stroke-miterlimit:10;stroke-dasharray:none;stroke-opacity:1"
             id="path3290" /></g></g></g></g></svg>
