<?xml version="1.0" encoding="UTF-8" standalone="no"?>
<!DOCTYPE svg PUBLIC "-//W3C//DTD SVG 1.1//EN" "http://www.w3.org/Graphics/SVG/1.1/DTD/svg11.dtd">
<!-- Created with Vectornator (http://vectornator.io/) -->
<svg height="100%" stroke-miterlimit="10" style="fill-rule:nonzero;clip-rule:evenodd;stroke-linecap:round;stroke-linejoin:round;" version="1.1" viewBox="0 0 512 512" width="100%" xml:space="preserve" xmlns="http://www.w3.org/2000/svg" xmlns:vectornator="http://vectornator.io" xmlns:xlink="http://www.w3.org/1999/xlink">
<defs/>
<g id="Untitled" vectornator:layerName="Untitled">
<path d="M0 256C0 114.615 114.615 0 256 0C397.385 0 512 114.615 512 256C512 397.385 397.385 512 256 512C114.615 512 0 397.385 0 256Z" fill="#f2f2f2" fill-rule="nonzero" opacity="1" stroke="none" vectornator:layerName="circle"/>
<g opacity="1" vectornator:layerName="Pay_Typeface_3_">
<path d="M240.671 268.17L240.671 314.948L225.826 314.948L225.826 199.433L265.181 199.433C275.155 199.433 283.66 202.758 290.619 209.408C297.732 216.057 301.289 224.175 301.289 233.763C301.289 243.582 297.732 251.701 290.619 258.273C283.737 264.844 275.233 268.092 265.181 268.092L240.671 268.092L240.671 268.17ZM240.671 213.66L240.671 253.943L265.49 253.943C271.366 253.943 276.315 251.933 280.181 247.989C284.124 244.046 286.134 239.253 286.134 233.84C286.134 228.505 284.124 223.788 280.181 219.846C276.315 215.747 271.444 213.737 265.49 213.737L240.671 213.737L240.671 213.66Z" fill="#383e41" fill-rule="nonzero" opacity="1" stroke="none" vectornator:layerName="path"/>
<path d="M340.103 233.299C351.082 233.299 359.742 236.237 366.082 242.113C372.422 247.989 375.592 256.03 375.592 266.237L375.592 314.948L361.442 314.948L361.442 303.969L360.824 303.969C354.716 313.015 346.52 317.5 336.314 317.5C327.577 317.5 320.309 314.948 314.433 309.768C308.557 304.587 305.618 298.169 305.618 290.438C305.618 282.242 308.711 275.748 314.897 270.954C321.083 266.083 329.356 263.686 339.639 263.686C348.453 263.686 355.722 265.31 361.366 268.557L361.366 265.155C361.366 259.975 359.356 255.645 355.257 252.011C351.159 248.377 346.366 246.599 340.876 246.599C332.603 246.599 326.031 250.078 321.237 257.114L308.17 248.918C315.361 238.479 326.031 233.299 340.103 233.299ZM320.928 290.669C320.928 294.535 322.552 297.783 325.876 300.334C329.124 302.886 332.99 304.2 337.397 304.2C343.66 304.2 349.226 301.881 354.098 297.241C358.969 292.602 361.443 287.189 361.443 280.927C356.804 277.293 350.387 275.437 342.114 275.437C336.083 275.437 331.057 276.906 327.036 279.767C322.938 282.782 320.928 286.417 320.928 290.669Z" fill="#383e41" fill-rule="nonzero" opacity="1" stroke="none" vectornator:layerName="path"/>
<path d="M456.313 235.85L406.829 349.663L391.519 349.663L409.921 309.844L377.293 235.85L393.452 235.85L416.957 292.602L417.267 292.602L440.153 235.85C440.153 235.85 456.313 235.85 456.313 235.85Z" fill="#383e41" fill-rule="nonzero" opacity="1" stroke="none" vectornator:layerName="path"/>
</g>
<path d="M180.385 244.811L118.16 244.811L118.16 270.326L153.997 270.334C152.543 278.824 147.865 286.061 140.698 290.886L140.698 290.89C140.7 290.889 140.704 290.887 140.706 290.886L140.061 306.136L162.038 307.432C162.035 307.434 162.032 307.438 162.03 307.44L162.031 307.44C174.486 295.912 181.623 278.871 181.623 258.737C181.622 253.896 181.189 249.265 180.385 244.811Z" fill="#0085f7" fill-rule="nonzero" opacity="1" stroke="none" vectornator:layerName="path"/>
<path d="M140.705 290.886C140.703 290.887 140.7 290.889 140.697 290.89C134.76 294.892 127.116 297.233 118.175 297.233C100.894 297.233 86.2342 285.589 80.9844 269.894L80.9821 269.894C80.9828 269.896 80.9836 269.899 80.9844 269.902L62.6366 266.996L58.983 286.971C69.8862 308.602 92.2912 323.444 118.175 323.444C136.062 323.444 151.089 317.564 162.03 307.439C162.033 307.437 162.036 307.434 162.038 307.431L140.705 290.886Z" fill="#00a94b" fill-rule="nonzero" opacity="1" stroke="none" vectornator:layerName="path"/>
<path d="M78.912 257.228C78.912 252.821 79.6465 248.561 80.9844 244.556L75.2552 227.484L58.979 227.484C54.4716 236.43 51.9356 246.527 51.9356 257.228C51.9356 267.929 54.4795 278.027 58.979 286.973L58.9822 286.971L80.9844 269.901C80.9836 269.898 80.9828 269.896 80.9821 269.893C79.6457 265.891 78.912 261.633 78.912 257.228Z" fill="#ffbb00" fill-rule="nonzero" opacity="1" stroke="none" vectornator:layerName="path"/>
<path d="M118.175 191.005C92.2959 191.005 69.8814 205.85 58.979 227.485L80.9836 244.557C86.2334 228.861 100.893 217.217 118.174 217.217C127.939 217.217 136.684 220.581 143.589 227.153L162.493 208.264C151.012 197.569 136.043 191.005 118.175 191.005Z" fill="#ff4031" fill-rule="nonzero" opacity="1" stroke="none" vectornator:layerName="path"/>
</g>
</svg>
