<svg id="Icons" height="512" viewBox="0 0 60 60" width="512" xmlns="http://www.w3.org/2000/svg"><path d="m24 17-5 1-3 12 5 1z" fill="#c5dcf0"/><path d="m45 30v1h-25v-1l3-12 6-1 13.08 8z" fill="#dae9f7"/><path d="m42.08 25h-11.77a1.994 1.994 0 0 1 -1.98-2.28l.67-4.72v-1h8l1 1z" fill="#78dbdd"/><path d="m58 34-9.216 10.054a6 6 0 0 1 -4.423 1.946h-24.878a3.579 3.579 0 0 1 -2.532-1.049 3.576 3.576 0 0 0 -2.293-1.04l-10.858-.724a3 3 0 0 1 -2.8-2.994v-3.193l6-4h50z" fill="#dae9f7"/><path d="m45 30h-38.839a2 2 0 0 0 -1.737 1.008l-3.424 5.992h3a2 2 0 0 0 1.664-.891l.813-1.218a2 2 0 0 1 1.664-.891h50.022a.833.833 0 0 0 .356-1.587c-2.385-1.113-6.688-2.413-13.519-2.413z" fill="#4982c8"/><path d="m16 14h18a4 4 0 0 1 4 4 0 0 0 0 1 0 0h-21a2 2 0 0 1 -2-2v-1a1 1 0 0 1 1-1z" fill="#4982c8"/><path d="m3.734 44.185 10.857.723a2.577 2.577 0 0 1 1.653.75 4.552 4.552 0 0 0 3.239 1.342h24.877a7.018 7.018 0 0 0 5.161-2.27l8.97-9.786a1.813 1.813 0 0 0 .452-3.436c-2.373-1.113-6.606-2.428-13.364-2.5l-6.612-11.336a4.992 4.992 0 0 0 -4.967-4.672h-12a1 1 0 0 0 0 2h12a3.006 3.006 0 0 1 2.829 2h-19.829a1 1 0 0 1 -1-1v-1h2a1 1 0 0 0 0-2h-2a2 2 0 0 0 -2 2v1a3 3 0 0 0 3 3h.72l-2.5 10h-9.059a3.007 3.007 0 0 0 -2.6 1.512l-3.429 5.988a1 1 0 0 0 -.132.5v3.193a4.011 4.011 0 0 0 3.734 3.992zm44.312-.806a5.011 5.011 0 0 1 -3.686 1.621h-24.877a2.568 2.568 0 0 1 -1.825-.756 4.58 4.58 0 0 0 -2.934-1.332l-10.857-.724a2 2 0 0 1 -1.867-2v-2.188h2a2.993 2.993 0 0 0 2.5-1.336l.813-1.219a1 1 0 0 1 .828-.445h47.586zm-20.014-18.423a3.006 3.006 0 0 0 2.278 1.044h11.2l1.75 3h-21.98l2.5-10h4.068l-.507 3.571a2.977 2.977 0 0 0 .691 2.385zm9.393-5.956 2.917 5h-10.032a.993.993 0 0 1 -.763-.349.968.968 0 0 1 -.227-.791l.548-3.86zm-17.645 0h1.94l-2.5 10h-1.94zm-14.488 12.5a1 1 0 0 1 .869-.5h38.839c6.066 0 10 1.023 12.369 2h-49.228a2.992 2.992 0 0 0 -2.5 1.336l-.813 1.219a1 1 0 0 1 -.828.445h-1.277z" fill="#373737"/></svg>