<?xml version="1.0" encoding="UTF-8" standalone="no"?>
<!DOCTYPE svg PUBLIC "-//W3C//DTD SVG 1.1//EN" "http://www.w3.org/Graphics/SVG/1.1/DTD/svg11.dtd">
<!-- Created with Vectornator (http://vectornator.io/) -->
<svg height="100%" stroke-miterlimit="10" style="fill-rule:nonzero;clip-rule:evenodd;stroke-linecap:round;stroke-linejoin:round;" version="1.1" viewBox="0 0 512 512" width="100%" xml:space="preserve" xmlns="http://www.w3.org/2000/svg" xmlns:vectornator="http://vectornator.io" xmlns:xlink="http://www.w3.org/1999/xlink">
<defs/>
<g id="Untitled" vectornator:layerName="Untitled">
<path d="M187.374 253.717C191.769 256.679 196.919 258.244 202.269 258.244C204.59 258.244 206.914 257.928 209.156 257.332L209.156 283.25L224.156 283.25L224.156 257.332C226.397 257.928 228.72 258.244 231.042 258.244C236.391 258.244 241.541 256.679 245.937 253.717C253.708 248.48 258.19 239.407 257.634 230.031C257.572 229.075 257.26 228.151 256.723 227.349C256.182 226.552 255.44 225.914 254.578 225.506C251.039 223.822 247.082 222.933 243.137 222.933C237.788 222.933 232.638 224.498 228.242 227.46C223.162 230.884 219.501 235.952 217.721 241.665C217.373 241.615 217.02 241.581 216.658 241.581C216.296 241.581 215.942 241.615 215.594 241.665C213.814 235.952 210.153 230.884 205.073 227.46C200.677 224.498 195.527 222.933 190.178 222.933C186.232 222.933 182.276 223.823 178.739 225.505C177.87 225.917 177.126 226.558 176.59 227.355C176.054 228.152 175.739 229.08 175.682 230.039C175.122 239.407 179.604 248.48 187.374 253.717Z" fill="#368c0e" fill-rule="nonzero" opacity="1" stroke="none" vectornator:layerName="path"/>
<path d="M174.041 304.581C174.091 304.589 174.141 304.593 174.19 304.593C174.476 304.593 174.751 304.471 174.942 304.252C175.713 303.371 176.804 302.866 177.934 302.866L186.417 302.866L183.501 285.538C183.329 284.521 183.564 283.573 184.16 282.868C184.643 282.296 185.329 281.945 186.118 281.828L157.564 277.502L154.166 301.57L174.041 304.581Z" fill="#f7931e" fill-rule="nonzero" opacity="1" stroke="none" vectornator:layerName="path"/>
<path d="M102.97 322.385C95.686 320.697 87.416 315.263 82.937 309.183L58.512 276.038C53.877 269.747 55.225 260.856 61.516 256.219C63.97 254.411 66.873 253.455 69.912 253.455C74.403 253.455 78.672 255.61 81.331 259.222L105.699 292.289C106.491 293.181 108.378 294.422 109.431 294.777C109.487 294.796 109.543 294.809 109.602 294.818L155.158 301.72L165.861 225.91C166.706 220.709 165.436 215.665 162.381 212.074C159.602 208.806 155.629 207.008 151.197 207.008L138.38 207.008C130.096 211.977 120.441 214.841 110.133 214.841C99.832 214.841 90.122 212.002 81.782 207.008L60 207.008C50.644 207.008 42.041 214.859 40.43 224.8L13.205 369.494C13.027 370.435 13.279 371.407 13.891 372.144C14.502 372.882 15.411 373.308 16.369 373.308L57.836 373.307L82.054 331.693C84.82 326.94 91.583 323.05 97.083 323.05L107.366 323.05L102.97 322.385Z" fill="#fcdb80" fill-rule="nonzero" opacity="1" stroke="none" vectornator:layerName="path"/>
<path d="M34.775 372.145C34.164 371.408 33.912 370.436 34.089 369.495L61.314 224.802C62.925 214.861 71.528 207.01 80.884 207.01L60 207.01C50.644 207.01 42.041 214.861 40.43 224.802L13.205 369.494C13.027 370.435 13.279 371.407 13.891 372.144C14.502 372.882 15.411 373.308 16.369 373.308L37.25 373.308C36.293 373.309 35.386 372.882 34.775 372.145Z" fill="#000000" fill-rule="nonzero" opacity="0.1" stroke="none" vectornator:layerName="path"/>
<path d="M110.133 214.842C101.703 214.842 93.667 212.944 86.455 209.517L86.455 216.145C86.455 227.536 95.69 236.772 107.082 236.772C118.473 236.772 127.709 227.536 127.709 216.145L127.709 211.944C122.181 213.814 116.274 214.842 110.133 214.842Z" fill="#ffb98a" fill-rule="nonzero" opacity="1" stroke="none" vectornator:layerName="path"/>
<path d="M53.531 118.25C53.299 120.224 53.531 133.694 53.531 133.694L50.174 133.694C44.119 133.694 39.166 138.648 39.166 144.703L39.166 157.439C39.166 163.494 44.119 168.449 50.174 168.449L54.389 168.449C59.023 195.37 82.209 215.842 110.133 215.842C141.393 215.842 166.733 190.196 166.733 158.555C166.733 158.555 166.965 120.224 166.733 118.25C166.733 118.25 53.531 118.25 53.531 118.25Z" fill="#ffd5b3" fill-rule="nonzero" opacity="1" stroke="none" vectornator:layerName="path"/>
<g opacity="1" vectornator:layerName="g">
<path d="M111.991 167.064L107.653 167.064C103.51 167.064 100.153 163.707 100.153 159.564C100.153 155.421 103.51 152.064 107.653 152.064L107.666 152.064L107.666 146.38C107.666 142.237 111.023 138.88 115.166 138.88C119.309 138.88 122.666 142.237 122.666 146.38L122.666 156.353C122.666 162.26 117.877 167.064 111.991 167.064Z" fill="#a75436" fill-rule="nonzero" opacity="1" stroke="none" vectornator:layerName="path"/>
<path d="M140.322 158.342C136.179 158.342 132.822 154.985 132.822 150.842L132.822 143.349C132.822 139.206 136.179 135.849 140.322 135.849C144.465 135.849 147.822 139.206 147.822 143.349L147.822 150.842C147.822 154.984 144.465 158.342 140.322 158.342Z" fill="#a75436" fill-rule="nonzero" opacity="1" stroke="none" vectornator:layerName="path"/>
<path d="M87.682 158.342C83.539 158.342 80.182 154.985 80.182 150.842L80.182 143.349C80.182 139.206 83.539 135.849 87.682 135.849C91.825 135.849 95.182 139.206 95.182 143.349L95.182 150.842C95.182 154.984 91.824 158.342 87.682 158.342Z" fill="#a75436" fill-rule="nonzero" opacity="1" stroke="none" vectornator:layerName="path"/>
<path d="M113.286 197.867C101.83 197.867 91.667 190.975 87.394 180.31C85.853 176.465 87.722 172.099 91.567 170.559C95.409 169.019 99.778 170.886 101.318 174.732C103.297 179.673 107.996 182.867 113.286 182.867C118.579 182.867 123.277 179.675 125.256 174.733C126.796 170.886 131.164 169.019 135.007 170.558C138.853 172.098 140.721 176.464 139.182 180.309C134.91 190.976 124.745 197.867 113.286 197.867Z" fill="#a75436" fill-rule="nonzero" opacity="1" stroke="none" vectornator:layerName="path"/>
</g>
<path d="M132.871 326.915C134.2 328.612 135 330.74 135 333.051L135.025 420.91L171.82 420.91L171.82 333.051C171.82 332.971 171.81 332.894 171.808 332.815L132.871 326.915Z" fill="#046699" fill-rule="nonzero" opacity="1" stroke="none" vectornator:layerName="path"/>
<path d="M153 429.91L153 440.157C153 442.016 152.477 443.755 151.583 445.25L192.584 445.25C193.477 443.755 194 442.016 194 440.157L194 429.91C194 424.41 189.5 419.91 184 419.91L143.105 419.91C143.087 419.91 143.071 419.913 143.053 419.913C148.528 419.941 153 424.428 153 429.91Z" fill="#d48748" fill-rule="nonzero" opacity="1" stroke="none" vectornator:layerName="path"/>
<path d="M107.365 323.051L97.082 323.051C91.582 323.051 84.818 326.941 82.053 331.694L57.835 373.308L18.512 373.309L18.512 405.559C18.512 417.258 27.996 426.744 39.696 426.744L96.354 426.744C97.639 423.342 100.92 420.911 104.768 420.911L137.256 420.911L137.256 333.052C137.256 330.914 136.569 328.932 135.415 327.302L107.365 323.051Z" fill="#154884" fill-rule="nonzero" opacity="1" stroke="none" vectornator:layerName="path"/>
<path d="M104.768 420.91L113 420.91L113 382.17C113 378.027 109.643 374.67 105.5 374.67C101.357 374.67 98 378.027 98 382.17L98 423.996C99.65 422.109 102.069 420.91 104.768 420.91Z" fill="#000000" fill-rule="nonzero" opacity="1" stroke="none" vectornator:layerName="path"/>
<path d="M154.246 445.25C155.14 443.755 155.663 442.016 155.663 440.157L155.663 429.91C155.663 424.41 151.163 419.91 145.663 419.91L104.767 419.91C99.267 419.91 94.767 424.41 94.767 429.91L94.767 440.157C94.767 442.015 95.29 443.755 96.183 445.25C96.183 445.25 154.246 445.25 154.246 445.25Z" fill="#a75436" fill-rule="nonzero" opacity="1" stroke="none" vectornator:layerName="path"/>
<path d="M116.941 445.25C116.048 443.755 115.525 442.016 115.525 440.157L115.525 429.91C115.525 424.41 120.025 419.91 125.525 419.91L104.767 419.91C99.267 419.91 94.767 424.41 94.767 429.91L94.767 440.157C94.767 442.015 95.29 443.755 96.183 445.25C96.183 445.25 116.941 445.25 116.941 445.25Z" fill="#15004d" fill-rule="nonzero" opacity="0.1" stroke="none" vectornator:layerName="path"/>
<path d="M173.935 333.66L173.935 306.866C173.935 305.616 174.522 304.513 175.422 303.779L109.75 293.83C108.869 293.532 107.123 292.389 106.503 291.696L82.136 258.629C77.166 251.881 67.668 250.443 60.922 255.414C54.174 260.389 52.736 269.885 57.707 276.631L82.132 309.776C86.74 316.032 95.248 321.624 102.82 323.374L173.984 334.157C173.964 333.992 173.935 333.83 173.935 333.66Z" fill="#ffc12e" fill-rule="nonzero" opacity="1" stroke="none" vectornator:layerName="path"/>
<path d="M169.904 108.25C167.277 78.046 141.941 54.343 111.053 54.343C80.167 54.343 54.829 78.046 52.202 108.25L169.904 108.25Z" fill="#0481bf" fill-rule="nonzero" opacity="1" stroke="none" vectornator:layerName="path"/>
<path d="M73.047 108.25C75.371 81.528 95.486 59.911 121.482 55.279C118.095 54.675 114.615 54.342 111.054 54.342C80.168 54.342 54.83 78.045 52.203 108.249L73.047 108.25L73.047 108.25Z" fill="#15004d" fill-rule="nonzero" opacity="0.1" stroke="none" vectornator:layerName="path"/>
<g opacity="1" vectornator:layerName="g">
<path d="M53.572 99.752L102.691 99.752C106.834 99.752 110.191 96.395 110.191 92.252C110.191 88.109 106.834 84.752 102.691 84.752L59.391 84.752C56.805 89.402 54.833 94.438 53.572 99.752Z" fill="#046699" fill-rule="nonzero" opacity="1" stroke="none" vectornator:layerName="path"/>
<path d="M63.355 78.567L94.886 78.567C99.029 78.567 102.386 75.21 102.386 71.067C102.386 66.924 99.029 63.567 94.886 63.567L79.369 63.567C73.142 67.532 67.707 72.625 63.355 78.567Z" fill="#046699" fill-rule="nonzero" opacity="1" stroke="none" vectornator:layerName="path"/>
</g>
<path d="M235.741 345.441C238.491 345.441 241.114 343.222 241.571 340.51L250.794 285.703C251.251 282.991 249.374 280.772 246.624 280.772L186.686 280.772C183.936 280.772 182.059 282.991 182.516 285.703L191.74 340.51C192.197 343.222 194.82 345.441 197.57 345.441L235.741 345.441Z" fill="#d48748" fill-rule="nonzero" opacity="1" stroke="none" vectornator:layerName="path"/>
<path d="M210.292 340.511L201.068 285.704C200.611 282.992 202.488 280.773 205.238 280.773L186.685 280.773C183.935 280.773 182.058 282.992 182.515 285.704L191.739 340.511C192.196 343.223 194.819 345.442 197.569 345.442L216.122 345.442C213.372 345.441 210.749 343.223 210.292 340.511Z" fill="#15004d" fill-rule="nonzero" opacity="0.1" stroke="none" vectornator:layerName="path"/>
<path d="M203.039 333.66C203.039 336.41 200.789 338.66 198.039 338.66L177.935 338.66C175.185 338.66 172.935 336.41 172.935 333.66L172.935 306.866C172.935 304.116 175.185 301.866 177.935 301.866L198.039 301.866C200.789 301.866 203.039 304.116 203.039 306.866L203.039 333.66Z" fill="#ffd5b3" fill-rule="nonzero" opacity="1" stroke="none" vectornator:layerName="path"/>
<path d="M289.714 358.434C294.11 361.396 299.26 362.961 304.609 362.961C306.93 362.961 309.253 362.645 311.495 362.049L311.495 388.251L326.495 388.251L326.495 362.049C328.737 362.645 331.059 362.961 333.382 362.961C338.731 362.961 343.881 361.396 348.277 358.434C356.048 353.197 360.53 344.124 359.974 334.749C359.912 333.79 359.599 332.865 359.063 332.07C358.523 331.272 357.781 330.633 356.918 330.223C353.378 328.54 349.421 327.651 345.475 327.651C340.127 327.651 334.977 329.215 330.582 332.177C326.079 335.212 322.69 339.54 320.736 344.462C320.177 344.329 319.596 344.251 318.996 344.251C318.396 344.251 317.815 344.329 317.256 344.462C315.303 339.54 311.914 335.212 307.411 332.177C303.016 329.215 297.866 327.651 292.517 327.651C288.57 327.651 284.614 328.541 281.076 330.223C280.207 330.636 279.464 331.277 278.929 332.073C278.391 332.872 278.076 333.8 278.021 334.758C277.462 344.123 281.943 353.195 289.714 358.434Z" fill="#89c947" fill-rule="nonzero" opacity="1" stroke="none" vectornator:layerName="path"/>
<path d="M402.697 359.941C407.093 362.903 412.243 364.468 417.592 364.468C419.913 364.468 422.236 364.152 424.478 363.556L424.478 389.758L439.478 389.758L439.478 363.556C441.72 364.152 444.042 364.468 446.365 364.468C451.714 364.468 456.864 362.903 461.26 359.941C469.031 354.704 473.513 345.631 472.957 336.256C472.895 335.297 472.582 334.372 472.046 333.577C471.506 332.779 470.764 332.14 469.901 331.73C466.361 330.047 462.404 329.158 458.458 329.158C453.11 329.158 447.96 330.722 443.565 333.684C439.062 336.719 435.673 341.047 433.719 345.969C433.16 345.836 432.579 345.758 431.979 345.758C431.379 345.758 430.798 345.836 430.239 345.969C428.286 341.047 424.897 336.719 420.394 333.684C415.999 330.722 410.849 329.158 405.5 329.158C401.553 329.158 397.597 330.048 394.059 331.73C393.19 332.143 392.447 332.784 391.912 333.58C391.374 334.379 391.059 335.307 391.004 336.265C390.445 345.63 394.926 354.702 402.697 359.941Z" fill="#89c947" fill-rule="nonzero" opacity="1" stroke="none" vectornator:layerName="path"/>
<path d="M294.079 445.227C294.08 445.235 294.084 445.243 294.086 445.25L343.904 445.25C343.906 445.242 343.91 445.234 343.911 445.227L353.134 390.42C353.591 387.708 351.714 385.489 348.964 385.489L289.025 385.489C286.275 385.489 284.398 387.708 284.855 390.42L294.079 445.227Z" fill="#d48748" fill-rule="nonzero" opacity="1" stroke="none" vectornator:layerName="path"/>
<path d="M407.284 442.467C407.285 442.475 407.289 442.483 407.291 442.49L457.109 442.49C457.111 442.482 457.115 442.474 457.116 442.467L466.339 387.66C466.796 384.948 464.919 382.729 462.169 382.729L402.23 382.729C399.48 382.729 397.603 384.948 398.06 387.66L407.284 442.467Z" fill="#d48748" fill-rule="nonzero" opacity="1" stroke="none" vectornator:layerName="path"/>
<path d="M294.079 445.227C294.08 445.235 294.084 445.243 294.086 445.25L314.883 445.25C314.882 445.242 314.878 445.234 314.877 445.227L305.653 390.42C305.196 387.708 307.073 385.489 309.823 385.489L289.025 385.489C286.275 385.489 284.398 387.708 284.855 390.42L294.079 445.227Z" fill="#15004d" fill-rule="nonzero" opacity="0.1" stroke="none" vectornator:layerName="path"/>
<path d="M504.5 442.658L7.5 442.658C3.357 442.658 0 446.015 0 450.158C0 454.301 3.357 457.658 7.5 457.658L504.5 457.658C508.643 457.658 512 454.301 512 450.158C512 446.015 508.643 442.658 504.5 442.658Z" fill="#368c0e" fill-rule="nonzero" opacity="1" stroke="none" vectornator:layerName="path"/>
<path d="M218.648 120.934L10.148 120.934C6.005 120.934 2.648 117.577 2.648 113.434C2.648 109.291 6.005 105.934 10.148 105.934L218.648 105.934C222.791 105.934 226.148 109.291 226.148 113.434C226.148 117.577 222.791 120.934 218.648 120.934Z" fill="#046699" fill-rule="nonzero" opacity="1" stroke="none" vectornator:layerName="path"/>
</g>
</svg>
