<?xml version="1.0" encoding="UTF-8" standalone="no"?>
<!-- Created with Inkscape (http://www.inkscape.org/) -->

<svg
   version="1.1"
   id="svg8748"
   xml:space="preserve"
   width="682.66669"
   height="682.66669"
   viewBox="0 0 682.66669 682.66669"
   xmlns="http://www.w3.org/2000/svg"
   xmlns:svg="http://www.w3.org/2000/svg"><defs
     id="defs8752"><clipPath
       clipPathUnits="userSpaceOnUse"
       id="clipPath8762"><path
         d="M 0,512 H 512 V 0 H 0 Z"
         id="path8760" /></clipPath></defs><g
     id="g8754"
     transform="matrix(1.3333333,0,0,-1.3333333,0,682.66667)"><g
       id="g8756"><g
         id="g8758"
         clip-path="url(#clipPath8762)"><g
           id="g8764"
           transform="translate(331,384)"><path
             d="m 0,0 h -110 c -1.657,0 -3,1.343 -3,3 v 81 c 0,1.657 1.343,3 3,3 H 0 c 1.657,0 3,-1.343 3,-3 V 3 C 3,1.343 1.657,0 0,0"
             style="fill:#f6a96c;fill-opacity:1;fill-rule:nonzero;stroke:none"
             id="path8766" /></g><g
           id="g8768"
           transform="translate(248,387)"><path
             d="m 0,0 v 81 c 0,1.657 1.343,3 3,3 h -30 c -1.657,0 -3,-1.343 -3,-3 V 0 c 0,-1.657 1.343,-3 3,-3 H 3 C 1.343,-3 0,-1.657 0,0"
             style="fill:#ea9b58;fill-opacity:1;fill-rule:nonzero;stroke:none"
             id="path8770" /></g><g
           id="g8772"
           transform="translate(331,384)"><path
             d="m 0,0 h -110 c -1.657,0 -3,1.343 -3,3 v 81 c 0,1.657 1.343,3 3,3 H 0 c 1.657,0 3,-1.343 3,-3 V 3 C 3,1.343 1.657,0 0,0 Z"
             style="fill:none;stroke:#000000;stroke-width:15;stroke-linecap:round;stroke-linejoin:round;stroke-miterlimit:10;stroke-dasharray:none;stroke-opacity:1"
             id="path8774" /></g><g
           id="g8776"
           transform="translate(243,412)"><path
             d="m 0,0 v 31 c 0,1.657 1.343,3 3,3 h 60 c 1.657,0 3,-1.343 3,-3 V 0 c 0,-1.657 -1.343,-3 -3,-3 H 3 C 1.343,-3 0,-1.657 0,0"
             style="fill:#eaf6ff;fill-opacity:1;fill-rule:nonzero;stroke:none"
             id="path8778" /></g><g
           id="g8780"
           transform="translate(263,412)"><path
             d="m 0,0 v 31 c 0,1.657 1.343,3 3,3 h -20 c -1.657,0 -3,-1.343 -3,-3 V 0 c 0,-1.657 1.343,-3 3,-3 H 3 C 1.343,-3 0,-1.657 0,0"
             style="fill:#d8ecfe;fill-opacity:1;fill-rule:nonzero;stroke:none"
             id="path8782" /></g><g
           id="g8784"
           transform="translate(243,412)"><path
             d="m 0,0 v 31 c 0,1.657 1.343,3 3,3 h 60 c 1.657,0 3,-1.343 3,-3 V 0 c 0,-1.657 -1.343,-3 -3,-3 H 3 C 1.343,-3 0,-1.657 0,0 Z"
             style="fill:none;stroke:#000000;stroke-width:15;stroke-linecap:round;stroke-linejoin:round;stroke-miterlimit:10;stroke-dasharray:none;stroke-opacity:1"
             id="path8786" /></g><g
           id="g8788"
           transform="translate(331,215)"><path
             d="m 0,0 h -110 c -1.657,0 -3,1.343 -3,3 v 135 c 0,1.657 1.343,3 3,3 H 0 c 1.657,0 3,-1.343 3,-3 V 3 C 3,1.343 1.657,0 0,0"
             style="fill:#f6a96c;fill-opacity:1;fill-rule:nonzero;stroke:none"
             id="path8790" /></g><g
           id="g8792"
           transform="translate(248,218)"><path
             d="m 0,0 v 135 c 0,1.657 1.343,3 3,3 h -30 c -1.657,0 -3,-1.343 -3,-3 V 0 c 0,-1.657 1.343,-3 3,-3 H 3 C 1.343,-3 0,-1.657 0,0"
             style="fill:#ea9b58;fill-opacity:1;fill-rule:nonzero;stroke:none"
             id="path8794" /></g><g
           id="g8796"
           transform="translate(331,215)"><path
             d="m 0,0 h -110 c -1.657,0 -3,1.343 -3,3 v 135 c 0,1.657 1.343,3 3,3 H 0 c 1.657,0 3,-1.343 3,-3 V 3 C 3,1.343 1.657,0 0,0 Z"
             style="fill:none;stroke:#000000;stroke-width:15;stroke-linecap:round;stroke-linejoin:round;stroke-miterlimit:10;stroke-dasharray:none;stroke-opacity:1"
             id="path8798" /></g><g
           id="g8800"
           transform="translate(243,243)"><path
             d="m 0,0 v 85 c 0,1.657 1.343,3 3,3 h 60 c 1.657,0 3,-1.343 3,-3 V 0 c 0,-1.657 -1.343,-3 -3,-3 H 3 C 1.343,-3 0,-1.657 0,0"
             style="fill:#ffffff;fill-opacity:1;fill-rule:nonzero;stroke:none"
             id="path8802" /></g><g
           id="g8804"
           transform="translate(243,243)"><path
             d="m 0,0 v 85 c 0,1.657 1.343,3 3,3 h 60 c 1.657,0 3,-1.343 3,-3 V 0 c 0,-1.657 -1.343,-3 -3,-3 H 3 C 1.343,-3 0,-1.657 0,0"
             style="fill:#ffffff;fill-opacity:1;fill-rule:nonzero;stroke:none"
             id="path8806" /></g><g
           id="g8808"
           transform="translate(263,243)"><path
             d="m 0,0 v 85 c 0,1.657 1.343,3 3,3 h -20 c -1.657,0 -3,-1.343 -3,-3 V 0 c 0,-1.657 1.343,-3 3,-3 H 3 C 1.343,-3 0,-1.657 0,0"
             style="fill:#f3f0f3;fill-opacity:1;fill-rule:nonzero;stroke:none"
             id="path8810" /></g><g
           id="g8812"
           transform="translate(243,243)"><path
             d="m 0,0 c 0,-1.657 1.343,-3 3,-3 h 60 c 1.657,0 3,1.343 3,3 V 22.5 H 0 Z"
             style="fill:#00c27a;fill-opacity:1;fill-rule:nonzero;stroke:none"
             id="path8814" /></g><g
           id="g8816"
           transform="translate(263,243)"><path
             d="M 0,0 V 22.5 H -20 V 0 c 0,-1.657 1.343,-3 3,-3 H 3 C 1.343,-3 0,-1.657 0,0"
             style="fill:#09a755;fill-opacity:1;fill-rule:nonzero;stroke:none"
             id="path8818" /></g><g
           id="g8820"
           transform="translate(243,243)"><path
             d="m 0,0 c 0,-1.657 1.343,-3 3,-3 h 60 c 1.657,0 3,1.343 3,3 V 22.5 H 0 Z"
             style="fill:none;stroke:#000000;stroke-width:15;stroke-linecap:round;stroke-linejoin:round;stroke-miterlimit:10;stroke-dasharray:none;stroke-opacity:1"
             id="path8822" /></g><g
           id="g8824"
           transform="translate(243,243)"><path
             d="m 0,0 v 85 c 0,1.657 1.343,3 3,3 h 60 c 1.657,0 3,-1.343 3,-3 V 0 c 0,-1.657 -1.343,-3 -3,-3 H 3 C 1.343,-3 0,-1.657 0,0 Z"
             style="fill:none;stroke:#000000;stroke-width:15;stroke-linecap:round;stroke-linejoin:round;stroke-miterlimit:10;stroke-dasharray:none;stroke-opacity:1"
             id="path8826" /></g><g
           id="g8828"
           transform="translate(86.8989,286.4258)"><path
             d="m 0,0 c 0,-37.331 7.812,-70.994 20.332,-94.776 1.136,-2.16 4.2,-2.16 5.336,0 C 38.188,-70.994 46,-37.331 46,0 c 0,37.331 -7.812,70.994 -20.332,94.776 -1.136,2.16 -4.2,2.16 -5.336,0 C 7.812,70.994 0,37.331 0,0"
             style="fill:#00c27a;fill-opacity:1;fill-rule:nonzero;stroke:none"
             id="path8830" /></g><g
           id="g8832"
           transform="translate(107,286.4258)"><path
             d="m 0,0 c 0,29.313 4.819,56.363 12.95,78.146 -2.224,5.957 -4.694,11.522 -7.383,16.629 -1.136,2.161 -4.2,2.161 -5.337,0 C -12.289,70.994 -20.101,37.33 -20.101,0 c 0,-37.33 7.812,-70.994 20.331,-94.776 1.137,-2.16 4.201,-2.16 5.337,0 2.689,5.107 5.159,10.673 7.383,16.63 C 4.819,-56.363 0,-29.313 0,0"
             style="fill:#09a755;fill-opacity:1;fill-rule:nonzero;stroke:none"
             id="path8834" /></g><g
           id="g8836"
           transform="translate(86.8989,286.4258)"><path
             d="m 0,0 c 0,-37.331 7.812,-70.994 20.332,-94.776 1.136,-2.16 4.2,-2.16 5.336,0 C 38.188,-70.994 46,-37.331 46,0 c 0,37.331 -7.812,70.994 -20.332,94.776 -1.136,2.16 -4.2,2.16 -5.336,0 C 7.812,70.994 0,37.331 0,0 Z"
             style="fill:none;stroke:#000000;stroke-width:15;stroke-linecap:round;stroke-linejoin:round;stroke-miterlimit:10;stroke-dasharray:none;stroke-opacity:1"
             id="path8838" /></g><g
           id="g8840"
           transform="translate(60.0195,230.7285)"><path
             d="m 0,0 c 11.447,-33.46 29.174,-61.097 48.324,-78.34 1.767,-1.591 4.567,-0.634 4.989,1.707 4.575,25.36 1.658,58.063 -9.79,91.524 C 32.076,48.351 14.35,75.987 -4.8,93.23 -6.567,94.821 -9.367,93.863 -9.789,91.523 -14.364,66.164 -11.447,33.46 0,0"
             style="fill:#00c27a;fill-opacity:1;fill-rule:nonzero;stroke:none"
             id="path8842" /></g><g
           id="g8844"
           transform="translate(80.856,230.7285)"><path
             d="m 0,0 c -9.532,27.861 -13.13,55.182 -11.432,78.191 -4.591,5.63 -9.352,10.669 -14.205,15.039 -1.767,1.591 -4.566,0.633 -4.988,-1.707 C -35.201,66.164 -32.284,33.461 -20.836,0 -9.389,-33.46 8.337,-61.097 27.488,-78.34 c 1.767,-1.591 4.566,-0.633 4.988,1.707 0.766,4.243 1.302,8.709 1.643,13.332 C 20.593,-46.713 8.546,-24.98 0,0"
             style="fill:#09a755;fill-opacity:1;fill-rule:nonzero;stroke:none"
             id="path8846" /></g><g
           id="g8848"
           transform="translate(60.0195,230.7285)"><path
             d="m 0,0 c 11.447,-33.46 29.174,-61.097 48.324,-78.34 1.767,-1.591 4.567,-0.634 4.989,1.707 4.575,25.36 1.658,58.063 -9.79,91.524 C 32.076,48.351 14.35,75.987 -4.8,93.23 -6.567,94.821 -9.367,93.863 -9.789,91.523 -14.364,66.164 -11.447,33.46 0,0 Z"
             style="fill:none;stroke:#000000;stroke-width:15;stroke-linecap:round;stroke-linejoin:round;stroke-miterlimit:10;stroke-dasharray:none;stroke-opacity:1"
             id="path8850" /></g><g
           id="g8852"
           transform="translate(159.7783,230.7285)"><path
             d="m 0,0 c -11.447,-33.46 -29.173,-61.097 -48.324,-78.34 -1.767,-1.591 -4.566,-0.634 -4.989,1.707 -4.575,25.36 -1.658,58.063 9.79,91.524 C -32.076,48.351 -14.35,75.987 4.8,93.23 6.568,94.821 9.367,93.863 9.789,91.523 14.364,66.164 11.447,33.46 0,0"
             style="fill:#00c27a;fill-opacity:1;fill-rule:nonzero;stroke:none"
             id="path8854" /></g><g
           id="g8856"
           transform="translate(134.7861,232.9453)"><path
             d="M 0,0 C 9.11,26.629 22.199,49.563 36.816,66.511 36.728,74.58 36.057,82.236 34.781,89.307 34.359,91.646 31.56,92.604 29.792,91.014 10.643,73.771 -7.084,46.134 -18.531,12.674 -29.979,-20.787 -32.896,-53.49 -28.32,-78.85 c 0.422,-2.339 3.221,-3.297 4.988,-1.707 3.91,3.521 7.759,7.481 11.508,11.829 C -12.052,-47.854 -8.256,-24.132 0,0"
             style="fill:#09a755;fill-opacity:1;fill-rule:nonzero;stroke:none"
             id="path8858" /></g><g
           id="g8860"
           transform="translate(159.7783,230.7285)"><path
             d="m 0,0 c -11.447,-33.46 -29.173,-61.097 -48.324,-78.34 -1.767,-1.591 -4.566,-0.634 -4.989,1.707 -4.575,25.36 -1.658,58.063 9.79,91.524 C -32.076,48.351 -14.35,75.987 4.8,93.23 6.568,94.821 9.367,93.863 9.789,91.523 14.364,66.164 11.447,33.46 0,0 Z"
             style="fill:none;stroke:#000000;stroke-width:15;stroke-linecap:round;stroke-linejoin:round;stroke-miterlimit:10;stroke-dasharray:none;stroke-opacity:1"
             id="path8862" /></g><g
           id="g8864"
           transform="translate(30.2729,199.1768)"><path
             d="m 0,0 28.583,-119.342 c 0.539,-2.249 2.55,-3.835 4.863,-3.835 h 92.36 c 2.313,0 4.324,1.586 4.862,3.835 L 159.252,0 c 0.753,3.144 -1.63,6.165 -4.862,6.165 H 4.863 C 1.63,6.165 -0.752,3.144 0,0"
             style="fill:#f6a96c;fill-opacity:1;fill-rule:nonzero;stroke:none"
             id="path8866" /></g><g
           id="g8868"
           transform="translate(52.8291,105)"><path
             d="M 0,0 H 41.867 L 19.311,94.177 c -0.753,3.143 1.63,6.165 4.862,6.165 h -41.866 c -3.233,0 -5.616,-3.022 -4.863,-6.165 z"
             style="fill:#ea9b58;fill-opacity:1;fill-rule:nonzero;stroke:none"
             id="path8870" /></g><g
           id="g8872"
           transform="translate(30.2729,199.1768)"><path
             d="m 0,0 28.583,-119.342 c 0.539,-2.249 2.55,-3.835 4.863,-3.835 h 92.36 c 2.313,0 4.324,1.586 4.862,3.835 L 159.252,0 c 0.753,3.144 -1.63,6.165 -4.862,6.165 H 4.863 C 1.63,6.165 -0.752,3.144 0,0 Z"
             style="fill:none;stroke:#000000;stroke-width:15;stroke-linecap:round;stroke-linejoin:round;stroke-miterlimit:10;stroke-dasharray:none;stroke-opacity:1"
             id="path8874" /></g><g
           id="g8876"
           transform="translate(189.5928,97.3369)"><path
             d="m 0,0 0.323,1.759 c 0.565,3.072 -1.794,5.904 -4.917,5.904 h -150.199 c -3.124,0 -5.482,-2.832 -4.918,-5.904 L -159.388,0 c 3.763,-20.472 21.61,-35.337 42.425,-35.337 h 74.539 C -21.609,-35.337 -3.763,-20.472 0,0"
             style="fill:#f3f0f3;fill-opacity:1;fill-rule:nonzero;stroke:none"
             id="path8878" /></g><g
           id="g8880"
           transform="translate(30.2051,97.3369)"><path
             d="M 0,0 C 1.783,-9.701 6.732,-18.14 13.658,-24.337 H 65.86 C 58.935,-18.14 53.985,-9.701 52.202,0 l -0.323,1.759 c -0.565,3.072 1.794,5.904 4.917,5.904 H 4.594 c -3.123,0 -5.482,-2.832 -4.917,-5.904 z"
             style="fill:#e2dee2;fill-opacity:1;fill-rule:nonzero;stroke:none"
             id="path8882" /></g><g
           id="g8884"
           transform="translate(113,105)"><path
             d="m 0,0 h -78.201 c -3.123,0 -5.482,-2.832 -4.917,-5.904 l 0.323,-1.759 C -79.032,-28.135 -61.186,-43 -40.371,-43 h 74.539 c 20.816,0 38.662,14.865 42.425,35.337 l 0.323,1.759 C 77.481,-2.832 75.122,0 71.999,0 H 35"
             style="fill:none;stroke:#000000;stroke-width:15;stroke-linecap:round;stroke-linejoin:round;stroke-miterlimit:10;stroke-dasharray:none;stroke-opacity:1"
             id="path8886" /></g><g
           id="g8888"
           transform="translate(475,260)"><path
             d="m 0,0 h -110 c -1.657,0 -3,1.343 -3,3 v 135 c 0,1.657 1.343,3 3,3 H 0 c 1.657,0 3,-1.343 3,-3 V 3 C 3,1.343 1.657,0 0,0"
             style="fill:#f6a96c;fill-opacity:1;fill-rule:nonzero;stroke:none"
             id="path8890" /></g><g
           id="g8892"
           transform="translate(396,263)"><path
             d="m 0,0 v 135 c 0,1.657 1.343,3 3,3 h -34 c -1.657,0 -3,-1.343 -3,-3 V 0 c 0,-1.657 1.343,-3 3,-3 H 3 C 1.343,-3 0,-1.657 0,0"
             style="fill:#ea9b58;fill-opacity:1;fill-rule:nonzero;stroke:none"
             id="path8894" /></g><g
           id="g8896"
           transform="translate(478,365)"><path
             d="m 0,0 v 33 c 0,1.657 -1.343,3 -3,3 h -110 c -1.657,0 -3,-1.343 -3,-3 v -135 c 0,-1.657 1.343,-3 3,-3 H -3 c 1.657,0 3,1.343 3,3 v 67"
             style="fill:none;stroke:#000000;stroke-width:15;stroke-linecap:round;stroke-linejoin:round;stroke-miterlimit:10;stroke-dasharray:none;stroke-opacity:1"
             id="path8898" /></g><g
           id="g8900"
           transform="translate(387,288)"><path
             d="m 0,0 v 85 c 0,1.657 1.343,3 3,3 h 60 c 1.657,0 3,-1.343 3,-3 V 0 c 0,-1.657 -1.343,-3 -3,-3 H 3 C 1.343,-3 0,-1.657 0,0"
             style="fill:#fe6c55;fill-opacity:1;fill-rule:nonzero;stroke:none"
             id="path8902" /></g><g
           id="g8904"
           transform="translate(450,376)"><path
             d="m 0,0 h -60 c -1.657,0 -3,-1.343 -3,-3 v -85 c 0,-0.756 0.289,-1.438 0.75,-1.966 L 2.25,-1.034 C 1.7,-0.405 0.901,0 0,0"
             style="fill:#fed402;fill-opacity:1;fill-rule:nonzero;stroke:none"
             id="path8906" /></g><g
           id="g8908"
           transform="translate(422.0879,333.3779)"><path
             d="m 0,0 -34.287,41.649 c -0.493,-0.535 -0.801,-1.243 -0.801,-2.027 v -85 c 0,-0.756 0.289,-1.438 0.75,-1.966 z"
             style="fill:#ffffff;fill-opacity:1;fill-rule:nonzero;stroke:none"
             id="path8910" /></g><g
           id="g8912"
           transform="translate(387,288)"><path
             d="m 0,0 v 85 c 0,1.657 1.343,3 3,3 h 60 c 1.657,0 3,-1.343 3,-3 V 0 c 0,-1.657 -1.343,-3 -3,-3 H 3 C 1.343,-3 0,-1.657 0,0 Z"
             style="fill:none;stroke:#000000;stroke-width:15;stroke-linecap:round;stroke-linejoin:round;stroke-miterlimit:10;stroke-dasharray:none;stroke-opacity:1"
             id="path8914" /></g><g
           id="g8916"
           transform="translate(387,288)"><path
             d="m 0,0 c 0,-0.756 0.289,-1.438 0.75,-1.966 l 64.5,88.932 C 64.7,87.595 63.901,88 63,88"
             style="fill:none;stroke:#000000;stroke-width:15;stroke-linecap:round;stroke-linejoin:round;stroke-miterlimit:10;stroke-dasharray:none;stroke-opacity:1"
             id="path8918" /></g><g
           id="g8920"
           transform="translate(422.0879,333.3779)"><path
             d="M 0,0 -34.287,41.649"
             style="fill:none;stroke:#000000;stroke-width:15;stroke-linecap:round;stroke-linejoin:round;stroke-miterlimit:10;stroke-dasharray:none;stroke-opacity:1"
             id="path8922" /></g><g
           id="g8924"
           transform="translate(370.6875,213.9072)"><path
             d="m 0,0 c -1.165,-0.259 -2.068,-1.163 -2.328,-2.328 -3.275,-14.737 0.809,-30.78 12.275,-42.246 11.467,-11.467 27.509,-15.551 42.247,-12.276 1.165,0.259 2.069,1.162 2.328,2.328 3.275,14.738 -0.809,30.781 -12.275,42.247 C 30.78,-0.81 14.738,3.275 0,0"
             style="fill:#00c27a;fill-opacity:1;fill-rule:nonzero;stroke:none"
             id="path8926" /></g><g
           id="g8928"
           transform="translate(397.3682,179.332)"><path
             d="m 0,0 c -9.74,9.74 -14.133,22.782 -13.233,35.521 -4.495,0.342 -9.03,0.036 -13.448,-0.946 -1.165,-0.259 -2.068,-1.163 -2.328,-2.328 -3.275,-14.737 0.81,-30.78 12.276,-42.247 11.466,-11.466 27.508,-15.55 42.247,-12.274 1.165,0.258 2.068,1.163 2.327,2.327 0.493,2.218 0.799,4.468 0.958,6.725 C 18.302,-12.424 8.028,-8.028 0,0"
             style="fill:#09a755;fill-opacity:1;fill-rule:nonzero;stroke:none"
             id="path8930" /></g><g
           id="g8932"
           transform="translate(370.6875,213.9072)"><path
             d="m 0,0 c -1.165,-0.259 -2.068,-1.163 -2.328,-2.328 -3.275,-14.737 0.809,-30.78 12.275,-42.246 11.467,-11.467 27.509,-15.551 42.247,-12.276 1.165,0.259 2.069,1.162 2.328,2.328 3.275,14.738 -0.809,30.781 -12.275,42.247 C 30.78,-0.81 14.738,3.275 0,0 Z"
             style="fill:none;stroke:#000000;stroke-width:15;stroke-linecap:round;stroke-linejoin:round;stroke-miterlimit:10;stroke-dasharray:none;stroke-opacity:1"
             id="path8934" /></g><g
           id="g8936"
           transform="translate(482.2373,211.5791)"><path
             d="M 0,0 C -0.259,1.165 -1.162,2.069 -2.327,2.328 -17.065,5.604 -33.108,1.519 -44.574,-9.947 -56.04,-21.413 -60.125,-37.456 -56.85,-52.194 c 0.259,-1.165 1.163,-2.069 2.329,-2.327 14.738,-3.276 30.78,0.808 42.247,12.275 C -0.809,-30.78 3.275,-14.737 0,0"
             style="fill:#00c27a;fill-opacity:1;fill-rule:nonzero;stroke:none"
             id="path8938" /></g><g
           id="g8940"
           transform="translate(454.3682,187.6318)"><path
             d="m 0,0 c 8.065,8.065 18.396,12.462 28.944,13.23 0.059,3.593 -0.291,7.193 -1.074,10.717 -0.26,1.165 -1.163,2.07 -2.328,2.328 C 10.804,29.551 -5.239,25.466 -16.705,14 -28.171,2.534 -32.255,-13.509 -28.98,-28.247 c 0.258,-1.164 1.163,-2.068 2.328,-2.327 4.371,-0.972 8.855,-1.28 13.302,-0.955 C -13.162,-20.098 -8.724,-8.724 0,0"
             style="fill:#09a755;fill-opacity:1;fill-rule:nonzero;stroke:none"
             id="path8942" /></g><g
           id="g8944"
           transform="translate(482.2373,211.5791)"><path
             d="M 0,0 C -0.259,1.165 -1.162,2.069 -2.327,2.328 -17.065,5.604 -33.108,1.519 -44.574,-9.947 -56.04,-21.413 -60.125,-37.456 -56.85,-52.194 c 0.259,-1.165 1.163,-2.069 2.329,-2.327 14.738,-3.276 30.78,0.808 42.247,12.275 C -0.809,-30.78 3.275,-14.737 0,0 Z"
             style="fill:none;stroke:#000000;stroke-width:15;stroke-linecap:round;stroke-linejoin:round;stroke-miterlimit:10;stroke-dasharray:none;stroke-opacity:1"
             id="path8946" /></g><g
           id="g8948"
           transform="translate(363.4766,156.7842)"><path
             d="m 0,0 22.701,-94.784 h 78.242 L 123.645,0 c 0.752,3.144 -1.63,6.164 -4.863,6.164 H 4.862 C 1.63,6.164 -0.753,3.144 0,0"
             style="fill:#f6a96c;fill-opacity:1;fill-rule:nonzero;stroke:none"
             id="path8950" /></g><g
           id="g8952"
           transform="translate(383.543,73)"><path
             d="M 0,0 H 36.083 L 16.017,83.784 c -0.753,3.144 1.629,6.164 4.862,6.164 h -36.083 c -3.233,0 -5.615,-3.02 -4.862,-6.164 z"
             style="fill:#ea9b58;fill-opacity:1;fill-rule:nonzero;stroke:none"
             id="path8954" /></g><g
           id="g8956"
           transform="translate(363.4766,156.7842)"><path
             d="m 0,0 22.701,-94.784 h 78.242 L 123.645,0 c 0.752,3.144 -1.63,6.164 -4.863,6.164 H 4.862 C 1.63,6.164 -0.753,3.144 0,0 Z"
             style="fill:none;stroke:#000000;stroke-width:15;stroke-linecap:round;stroke-linejoin:round;stroke-miterlimit:10;stroke-dasharray:none;stroke-opacity:1"
             id="path8958" /></g><g
           id="g8960"
           transform="translate(499.5,41)"><path
             d="m 0,0 h -487 c -2.761,0 -5,2.238 -5,5 v 22 c 0,2.762 2.239,5 5,5 H 0 c 2.762,0 5,-2.238 5,-5 V 5 C 5,2.238 2.762,0 0,0"
             style="fill:#a79ca7;fill-opacity:1;fill-rule:nonzero;stroke:none"
             id="path8962" /></g><g
           id="g8964"
           transform="translate(78,46)"><path
             d="m 0,0 v 22 c 0,2.762 2.239,5 5,5 h -70.5 c -2.761,0 -5,-2.238 -5,-5 V 0 c 0,-2.762 2.239,-5 5,-5 H 5 C 2.239,-5 0,-2.762 0,0"
             style="fill:#918291;fill-opacity:1;fill-rule:nonzero;stroke:none"
             id="path8966" /></g><g
           id="g8968"
           transform="translate(410,41)"><path
             d="m 0,0 h 89.5 c 2.762,0 5,2.238 5,5 v 22 c 0,2.762 -2.238,5 -5,5 h -487 c -2.761,0 -5,-2.238 -5,-5 V 5 c 0,-2.762 2.239,-5 5,-5 H -35"
             style="fill:none;stroke:#000000;stroke-width:15;stroke-linecap:round;stroke-linejoin:round;stroke-miterlimit:10;stroke-dasharray:none;stroke-opacity:1"
             id="path8970" /></g></g></g></g></svg>
