<?xml version="1.0" encoding="UTF-8" standalone="no"?>
<!DOCTYPE svg PUBLIC "-//W3C//DTD SVG 1.1//EN" "http://www.w3.org/Graphics/SVG/1.1/DTD/svg11.dtd">
<!-- Created with Vectornator (http://vectornator.io/) -->
<svg height="100%" stroke-miterlimit="10" style="fill-rule:nonzero;clip-rule:evenodd;stroke-linecap:round;stroke-linejoin:round;" version="1.1" viewBox="0 0 1024 1024" width="100%" xml:space="preserve" xmlns="http://www.w3.org/2000/svg" xmlns:vectornator="http://vectornator.io" xmlns:xlink="http://www.w3.org/1999/xlink">
<defs/>
<g id="Untitled" vectornator:layerName="Untitled">
<path d="M64 96L960 96L960 1024L64 1024L64 96Z" fill="#eaeaea" fill-rule="nonzero" opacity="1" stroke="none" vectornator:layerName="path"/>
<path d="M416 768L608 768L608 1024L416 1024L416 768Z" fill="#434854" fill-rule="nonzero" opacity="1" stroke="none" vectornator:layerName="path"/>
<path d="M416 576L608 576L608 704L416 704L416 576ZM160 576L352 576L352 704L160 704L160 576ZM160 768L352 768L352 896L160 896L160 768ZM672 576L864 576L864 704L672 704L672 576ZM672 768L864 768L864 896L672 896L672 768ZM416 384L608 384L608 512L416 512L416 384ZM160 384L352 384L352 512L160 512L160 384ZM672 384L864 384L864 512L672 512L672 384ZM416 192L608 192L608 320L416 320L416 192ZM160 192L352 192L352 320L160 320L160 192ZM672 192L864 192L864 320L672 320L672 192Z" fill="#469fcc" fill-rule="nonzero" opacity="1" stroke="none" vectornator:layerName="path"/>
<path d="M160 192L352 192L352 224L160 224L160 192ZM416 192L608 192L608 224L416 224L416 192ZM672 192L864 192L864 224L672 224L672 192ZM160 384L352 384L352 416L160 416L160 384ZM416 384L608 384L608 416L416 416L416 384ZM672 384L864 384L864 416L672 416L672 384ZM160 576L352 576L352 608L160 608L160 576ZM416 576L608 576L608 608L416 608L416 576ZM672 576L864 576L864 608L672 608L672 576ZM160 768L352 768L352 800L160 800L160 768ZM672 768L864 768L864 800L672 800L672 768Z" fill="#000000" fill-rule="nonzero" opacity="1" stroke="none" vectornator:layerName="path"/>
<path d="M64 96L960 96L960 128L64 128L64 96Z" fill="#000000" fill-rule="nonzero" opacity="1" stroke="none" vectornator:layerName="path"/>
<path d="M1024 64C1024 81.6731 1009.67 96 992 96L32 96C14.3269 96 2.16433e-15 81.6731 0 64L0 32C0 14.3269 14.3269 3.2465e-15 32 0L992 0C1009.67 0 1024 14.3269 1024 32L1024 64Z" fill="#ef4d4d" fill-rule="nonzero" opacity="1" stroke="none" vectornator:layerName="path"/>
<path d="M238.24 1024C249.748 1004.63 255.879 982.533 256 960C256 889.308 198.692 832 128 832C57.3076 832 8.65733e-15 889.308 0 960C0 983.424 6.752 1005.09 17.76 1024C17.76 1024 238.24 1024 238.24 1024ZM896 832C845.895 832.055 800.448 861.398 779.776 907.04C766.285 899.89 751.268 896.103 736 896C682.981 896 640 938.981 640 992C640 1003.3 642.304 1013.95 645.888 1024L1006.27 1024C1017.76 1004.62 1023.87 982.528 1024 960C1024 889.308 966.692 832 896 832Z" fill="#3aad73" fill-rule="nonzero" opacity="1" stroke="none" vectornator:layerName="path"/>
<path d="M779.776 907.04C766.285 899.89 751.268 896.103 736 896C682.981 896 640 938.981 640 992C640 1003.3 642.304 1013.95 645.888 1024L785.76 1024C774.252 1004.63 768.121 982.533 768 960C768 941.056 772.384 923.232 779.776 907.04Z" fill="#000000" fill-rule="nonzero" opacity="1" stroke="none" vectornator:layerName="path"/>
<path d="M291.829 315.181L722.657 315.181L722.657 315.181L722.657 746.009L722.657 746.009L291.829 746.009L291.829 746.009L291.829 315.181L291.829 315.181Z" fill="#ffffff" fill-opacity="0.01" fill-rule="nonzero" opacity="1" stroke="none" vectornator:layerName="rect"/>
<path d="M507.243 710.106C606.385 710.106 686.755 629.736 686.755 530.595C686.755 431.453 606.385 351.083 507.243 351.083C408.102 351.083 327.731 431.453 327.731 530.595C327.731 629.736 408.102 710.106 507.243 710.106Z" fill="#ef4d4d" fill-rule="nonzero" opacity="1" stroke="#000000" stroke-linecap="butt" stroke-linejoin="round" stroke-width="26.9268" vectornator:layerName="path"/>
<path d="M429.649 664.001L429.649 619.233C457.732 630.983 481.761 636.858 501.736 636.858C515.718 636.858 526.734 633.745 534.783 627.517C542.832 621.29 546.856 612.83 546.856 602.137C546.856 593.677 544.33 586.539 539.277 580.723C534.225 574.907 524.648 568.003 510.548 560.013L493.1 550.32C469.717 537.16 453.208 524.558 443.573 512.514C433.938 500.47 429.121 486.399 429.121 470.302C429.121 448.799 437.023 431.527 452.826 418.484C468.63 405.442 489.516 398.921 515.483 398.921C536.281 398.921 559.722 401.917 585.807 407.909L585.807 449.681C559.135 439.693 538.043 434.699 522.533 434.699C510.548 434.699 500.943 437.373 493.716 442.719C486.49 448.065 482.877 455.086 482.877 463.781C482.877 470.948 485.403 477.234 490.456 482.639C495.508 488.044 505.026 494.683 519.008 502.556L537.691 512.955C562.836 527.055 580.167 540.038 589.685 551.906C599.202 563.773 603.961 578.226 603.961 595.263C603.961 619.468 594.972 638.445 576.995 652.192C559.017 665.94 534.225 672.814 502.617 672.814C481.702 672.814 457.38 669.876 429.649 664.001Z" fill="#000000" opacity="1" stroke="none"/>
</g>
</svg>
