<?xml version="1.0" encoding="UTF-8"?>
<svg xmlns="http://www.w3.org/2000/svg" xmlns:xlink="http://www.w3.org/1999/xlink" version="1.1" id="Capa_1" x="0px" y="0px" viewBox="0 0 512 512" style="enable-background:new 0 0 512 512;" xml:space="preserve" width="512" height="512">
<g>
	<g>
		<polygon style="fill:#FF6A47;" points="486,121.062 346,121.062 366,17.688 466,17.688 &#9;&#9;"/>
		<polygon style="fill:#FD3501;" points="466,17.688 446,17.688 466,121.062 486,121.062 &#9;&#9;"/>
		<rect x="8.125" y="7.562" style="fill:#FFC277;" width="240" height="166.562"/>
		<rect x="228.125" y="7.562" style="fill:#F69500;" width="20" height="166.562"/>
		
			<rect x="77.844" y="3.844" transform="matrix(-1.836970e-16 1 -1 -1.836970e-16 218.9688 -37.2812)" style="fill:#71E4BF;" width="100.562" height="174"/>
		<path style="fill:#FF6A47;" d="M41.125,98.729c0,0,27.208-31.208,68.542-22.604s72.458,40.5,105.458,10.552V40.562h-174V98.729z"/>
		<path style="fill:#71E4BF;" d="M431.743,254.974c-1.872-20.604-19.147-36.38-39.836-36.38H286.024&#10;&#9;&#9;&#9;c-16.578,0-30.013,13.446-30,30.023v-0.023c0-16.569-13.501-30-30.069-30h-105.96c-20.7,0-37.981,15.793-39.839,36.41&#10;&#9;&#9;&#9;l-4.763,52.85c2.14,3.518,3.594,7.531,4.133,11.882l7.92,63.858h337.009l7.991-63.893c0.541-4.324,1.984-8.312,4.106-11.812&#10;&#9;&#9;&#9;L431.743,254.974z"/>
		<path style="fill:#0EA8B2;" d="M431.743,254.974c-1.872-20.604-19.147-36.38-39.836-36.38h-20&#10;&#9;&#9;&#9;c20.689,0,37.964,15.776,39.836,36.38l4.809,52.915c-2.122,3.5-3.565,7.488-4.106,11.812l-7.991,63.893h20l7.991-63.893&#10;&#9;&#9;&#9;c0.541-4.324,1.984-8.312,4.106-11.812L431.743,254.974z"/>
		<path style="fill:#71E4BF;" d="M477.419,443.594H34.428L19.983,327.121c-2.039-16.443,9.637-31.425,26.08-33.464h0&#10;&#9;&#9;&#9;c16.443-2.039,31.425,9.637,33.464,26.08l7.92,63.858h337.009l7.991-63.892c2.056-16.44,17.05-28.101,33.491-26.045h0&#10;&#9;&#9;&#9;c16.441,2.056,28.102,17.05,26.045,33.491L477.419,443.594z"/>
		<rect x="405.469" y="383.594" style="fill:#0EA8B2;" width="18.986" height="60"/>
		<path style="fill:#0EA8B2;" d="M59.527,319.736l7.92,63.858v59.938l20,0.062v-60l-7.92-63.858&#10;&#9;&#9;&#9;c-2.039-16.443-17.022-28.119-33.464-26.08h0c-2.196,0.272-4.303,0.782-6.307,1.489C50.123,298.82,58.081,308.076,59.527,319.736z&#10;&#9;&#9;&#9;"/>
		<path style="fill:#0EA8B2;" d="M465.937,293.656L465.937,293.656c-4.793-0.6-9.46-0.026-13.722,1.485&#10;&#9;&#9;&#9;c13.017,4.589,21.55,17.751,19.767,32.006l-14.563,116.446h20l14.563-116.446C494.039,310.707,482.378,295.712,465.937,293.656z"/>
		<path style="fill:#0EA8B2;" d="M235.954,343.656H105.127c-12.022,0-21.328,10.531-19.848,22.461l2.167,17.476h168.508v-19.938&#10;&#9;&#9;&#9;C255.954,352.61,247,343.656,235.954,343.656z"/>
		<path style="fill:#0EA8B2;" d="M395.465,343.656H276.062c-11.046,0-20,8.954-20,20v19.938h168.393l0.777-6.214&#10;&#9;&#9;&#9;C427.472,359.473,413.51,343.656,395.465,343.656z"/>
		<polygon style="fill:#FFC277;" points="431.797,503.531 468.797,503.531 448.797,443.531 63.203,443.531 43.203,503.531 &#10;&#9;&#9;&#9;80.203,503.531 90.203,473.531 421.797,473.531 &#9;&#9;"/>
		<polygon style="fill:#F69500;" points="448.797,443.531 428.797,443.531 448.797,503.531 468.797,503.531 &#9;&#9;"/>
	</g>
	<g>
		<line style="fill:none;stroke:#000000;stroke-width:15;stroke-miterlimit:10;" x1="0" y1="504.438" x2="512" y2="504.438"/>
		<polygon style="fill:none;stroke:#000000;stroke-width:15;stroke-miterlimit:10;" points="486,121.062 346,121.062 366,17.688 &#10;&#9;&#9;&#9;466,17.688 &#9;&#9;"/>
		<line style="fill:none;stroke:#000000;stroke-width:15;stroke-miterlimit:10;" x1="416" y1="121.062" x2="416" y2="227.148"/>
		
			<line style="fill:none;stroke:#000000;stroke-width:15;stroke-miterlimit:10;" x1="448.667" y1="122.062" x2="448.667" y2="196.125"/>
		<polyline style="fill:none;stroke:#000000;stroke-width:15;stroke-miterlimit:10;" points="181,7.562 248.125,7.562 &#10;&#9;&#9;&#9;248.125,174.125 8.125,174.125 8.125,7.562 165.667,7.562 &#9;&#9;"/>
		
			<rect x="77.844" y="3.844" transform="matrix(-1.836970e-16 1 -1 -1.836970e-16 218.9688 -37.2812)" style="fill:none;stroke:#000000;stroke-width:15;stroke-miterlimit:10;" width="100.562" height="174"/>
		<path style="fill:none;stroke:#000000;stroke-width:15;stroke-miterlimit:10;" d="M41.125,98.729c0,0,27.208-31.208,68.542-22.604&#10;&#9;&#9;&#9;s72.458,40.5,105.458,10.552V40.562h-174V98.729z"/>
		<path style="fill:none;stroke:#000000;stroke-width:15;stroke-miterlimit:10;" d="M255.954,291.062v-42.469&#10;&#9;&#9;&#9;c0-16.569-13.431-30-30-30h-105.96c-20.7,0-37.981,15.793-39.839,36.41l-4.763,52.85c2.14,3.518,3.594,7.531,4.133,11.882&#10;&#9;&#9;&#9;l7.92,63.858h337.009l7.991-63.893c0.541-4.324,1.984-8.312,4.106-11.813l-4.809-52.915c-1.872-20.604-19.147-36.38-39.836-36.38&#10;&#9;&#9;&#9;H286.024c-16.578,0-30.013,13.446-30,30.024"/>
		<line style="fill:none;stroke:#000000;stroke-width:15;stroke-miterlimit:10;" x1="255.954" y1="363.656" x2="255.954" y2="306"/>
		<path style="fill:none;stroke:#000000;stroke-width:15;stroke-miterlimit:10;" d="M166.125,443.594H34.428L19.983,327.121&#10;&#9;&#9;&#9;c-2.039-16.443,9.637-31.425,26.08-33.464h0c16.443-2.039,31.425,9.637,33.464,26.08l7.92,63.858h337.009l7.991-63.892&#10;&#9;&#9;&#9;c2.056-16.44,17.05-28.101,33.491-26.045h0c16.441,2.056,28.102,17.05,26.045,33.491l-14.563,116.447H181.667"/>
		<path style="fill:none;stroke:#000000;stroke-width:15;stroke-miterlimit:10;" d="M255.954,383.594v-19.938&#10;&#9;&#9;&#9;c0-11.046-8.954-20-20-20H105.127c-12.022,0-21.328,10.531-19.848,22.462l2.167,17.476h337.009l0.777-6.214&#10;&#9;&#9;&#9;c2.24-17.906-11.722-33.723-29.768-33.723H276.062c-11.046,0-20,8.954-20,20v19.938"/>
		<polyline style="fill:none;stroke:#000000;stroke-width:15;stroke-miterlimit:10;" points="63.203,443.531 43.203,503.531 &#10;&#9;&#9;&#9;80.203,503.531 90.203,473.531 421.797,473.531 431.797,503.531 468.797,503.531 448.797,443.531 &#9;&#9;"/>
		<line style="fill:none;stroke:#000000;stroke-width:15;stroke-miterlimit:10;" x1="132.5" y1="279.062" x2="147.5" y2="279.062"/>
		<line style="fill:none;stroke:#000000;stroke-width:15;stroke-miterlimit:10;" x1="185.5" y1="279.062" x2="200.5" y2="279.062"/>
		<line style="fill:none;stroke:#000000;stroke-width:15;stroke-miterlimit:10;" x1="312.5" y1="279.062" x2="327.5" y2="279.062"/>
		<line style="fill:none;stroke:#000000;stroke-width:15;stroke-miterlimit:10;" x1="365.5" y1="279.062" x2="380.5" y2="279.062"/>
		
			<line style="fill:none;stroke:#000000;stroke-width:15;stroke-miterlimit:10;" x1="87.447" y1="383.594" x2="87.447" y2="443.531"/>
		
			<line style="fill:none;stroke:#000000;stroke-width:15;stroke-miterlimit:10;" x1="424.456" y1="383.594" x2="424.456" y2="443.531"/>
	</g>
</g>















</svg>
