<svg id="Layer_1" enable-background="new 0 0 512.422 512.422" height="512" viewBox="0 0 512.422 512.422" width="512" xmlns="http://www.w3.org/2000/svg"><g><path d="m475.401 231.115c-32.061-36.244-43.415-80.503-32.835-127.993l3.96-17.778h-133.404l3.965 17.808c10.571 47.48-.784 91.73-32.835 127.969-7.233 8.177-13.475 17.137-18.659 26.697-11.827 21.81-12.644 119.405-2.932 139.356 22.198 45.598 66.39 76.748 117.168 76.748s94.97-31.151 117.168-76.748c9.713-19.951 8.896-117.547-2.933-139.357-5.185-9.562-11.429-18.523-18.663-26.702z" fill="#ffd321"/><path d="m494.064 257.816c-5.185-9.561-11.429-18.523-18.663-26.701-32.061-36.244-43.415-80.503-32.835-127.993l3.96-17.778h-66.697v388.578c50.778 0 94.97-31.151 117.168-76.748 9.712-19.951 8.895-117.547-2.933-139.358z" fill="#ff9d21"/><path d="m461.47 18.262c.611-2.74.433-5.56-.461-8.152h-162.36c-.894 2.591-1.071 5.41-.462 8.15l15.39 69.127h132.494z" fill="#ff4a4a"/><path clip-rule="evenodd" d="m401.027 262.279 32.619 55.68c-35.878 0-71.757 0-107.635 0l32.619-55.68c4.533-7.737 12.232-12.149 21.198-12.149 8.967 0 16.667 4.413 21.199 12.149z" fill="#ff4a4a" fill-rule="evenodd"/><path d="m461.009 10.11h-81.18v77.277h66.242l15.399-69.125c.61-2.741.432-5.56-.461-8.152z" fill="#d01273"/><path clip-rule="evenodd" d="m494.064 257.816c-4.562-4.946-10.84-7.686-17.905-7.686-8.966 0-16.666 4.413-21.198 12.149l-32.619 55.68h89.377c-1.696-21.382-7.739-41.858-17.655-60.143z" fill="#d01273" fill-rule="evenodd"/><path clip-rule="evenodd" d="m337.316 317.959-32.619-55.68c-4.533-7.737-12.232-12.149-21.198-12.149-7.065 0-13.344 2.741-17.906 7.688-9.915 18.284-15.958 38.76-17.653 60.141z" fill="#ff4a4a" fill-rule="evenodd"/><g><path d="m184.188 512.422h-154c-4.142 0-7.5-3.357-7.5-7.5v-14.211c0-18.966 10.841-35.361 28.293-42.788l5.017-2.135c8.572-3.647 13.69-11.387 13.69-20.703v-80.163c0-4.143 3.358-7.5 7.5-7.5h60c4.142 0 7.5 3.357 7.5 7.5v80.163c0 9.316 5.118 17.056 13.689 20.703l5.017 2.135c17.452 7.427 28.293 23.822 28.293 42.788v14.211c.001 4.142-3.357 7.5-7.499 7.5z" fill="#b34f03"/></g><g><path d="m457.829 30h-156c-8.284 0-15-6.716-15-15s6.716-15 15-15h156c8.284 0 15 6.716 15 15s-6.716 15-15 15z" fill="#ff9d21"/></g><path d="m462.477 442.36h-165.394c-2.747 14.324-16.585 32.902-28.684 43.553-10.38 9.137-3.917 26.259 9.911 26.259h203.035c13.828 0 20.291-17.121 9.911-26.259-12.097-10.651-26.032-29.23-28.779-43.553z" fill="#ff9d21"/><path d="m163.395 447.923-5.017-2.135c-8.572-3.647-13.689-11.387-13.689-20.703v-80.163c0-4.143-3.358-7.5-7.5-7.5h-30v175h77c4.142 0 7.5-3.357 7.5-7.5v-14.211c-.001-18.966-10.842-35.361-28.294-42.788z" fill="#a24603"/><path d="m190.407 241.707c-6.54-6.636-8.618-15.516-5.7-24.362l3.702-11.224c1.508-4.571.73-9.589-2.09-13.489s-7.341-6.21-12.155-6.21h-133.953c-4.812 0-9.332 2.309-12.152 6.207s-3.6 8.913-2.095 13.483l3.703 11.247c2.912 8.844.834 17.719-5.702 24.352-15.318 15.544-23.754 35.196-23.754 55.336 0 24.143 11.586 46.619 32.624 63.287 20.012 15.855 46.417 24.588 74.353 24.588s54.341-8.732 74.353-24.588c21.038-16.668 32.624-39.145 32.624-63.287-.001-20.141-8.438-39.794-23.758-55.34z" fill="#a24603"/><path d="m190.407 241.707c-6.54-6.636-8.618-15.516-5.7-24.362l3.702-11.224c1.508-4.571.73-9.589-2.09-13.489s-7.341-6.21-12.155-6.21h-66.977v198.5c27.936 0 54.341-8.732 74.353-24.588 21.038-16.668 32.624-39.145 32.624-63.287 0-20.141-8.437-39.794-23.757-55.34z" fill="#803602"/><path d="m457.829 0h-78v30h78c8.284 0 15-6.716 15-15s-6.716-15-15-15z" fill="#ff7d43"/><path clip-rule="evenodd" d="m379.829 317.959h53.818l-32.619-55.68c-4.533-7.737-12.232-12.149-21.198-12.149v67.829z" fill="#d01273" fill-rule="evenodd"/><path d="m491.258 485.913c-12.099-10.651-26.034-29.23-28.781-43.553h-82.648v69.812h101.517c13.828 0 20.291-17.121 9.912-26.259z" fill="#ff7d43"/><path d="m247.447 330.422c0 24.084 5.502 46.801 15.214 66.752h234.335c9.713-19.951 15.214-42.668 15.214-66.752 0-7.988-.603-15.886-1.785-23.631h-261.194c-1.181 7.745-1.784 15.643-1.784 23.631z" fill="#fff36c"/><path d="m510.426 306.791h-130.597v90.383h117.168c9.713-19.951 15.214-42.668 15.214-66.752 0-7.988-.603-15.886-1.785-23.631z" fill="#ffd321"/></g></svg>