<?xml version="1.0" encoding="UTF-8" standalone="no"?>
<!DOCTYPE svg PUBLIC "-//W3C//DTD SVG 1.1//EN" "http://www.w3.org/Graphics/SVG/1.1/DTD/svg11.dtd">
<!-- Created with Vectornator (http://vectornator.io/) -->
<svg height="100%" stroke-miterlimit="10" style="fill-rule:nonzero;clip-rule:evenodd;stroke-linecap:round;stroke-linejoin:round;" version="1.1" viewBox="0 0 60 60" width="100%" xml:space="preserve" xmlns="http://www.w3.org/2000/svg" xmlns:vectornator="http://vectornator.io" xmlns:xlink="http://www.w3.org/1999/xlink">
<defs/>
<g id="Travel" vectornator:layerName="Travel">
<g opacity="1" vectornator:layerName="yacht">
<g opacity="1" vectornator:layerName="fill">
<path d="M59 44.9L59 48.9C58.7 49 58.4 49 58 49C55 49 54 47 54 47C54 47 53 49 50 49C47 49 46 47 46 47C46 47 45 49 42 49C39 49 38 47 38 47C38 47 37 49 34 49C31 49 30 47 30 47C30 47 29 49 26 49C23 49 22 47 22 47C22 47 21 49 18 49C15 49 14 47 14 47C14 47 13 49 10 49C7 49 6 47 6 47C6 47 5 49 2 49C1.6 49 1.3 49 1 48.9L1 44.9C1.3 45 1.6 45 2 45C3.3 45 4.2 44.6 4.9 44.2C5.7 43.6 6 43 6 43C6 43 7 45 10 45C13 45 14 43 14 43C14 43 15 45 18 45C21 45 22 43 22 43C22 43 23 45 26 45C29 45 30 43 30 43C30 43 31 45 34 45C37 45 38 43 38 43C38 43 38.3 43.5 38.9 44C39.5 44.5 40.5 45 42 45C45 45 46 43 46 43C46 43 47 45 50 45C53 45 54 43 54 43C54 43 55 45 58 45C58.4 45 58.7 45 59 44.9" fill="#3897f1" fill-rule="nonzero" opacity="1" stroke="none" vectornator:layerName="path"/>
<path d="M1.4 33.2C3.4 34.1 5 34 5 34L41 32C41.2 32 41.3 32 41.5 31.9L39 28L23 28.9L13 29.5L12 27C10.5 22.7 13.3 18.5 16 18L18 17.7L32 15.9C32 15.9 31 12.9 28 12.9C28 12.9 7 13.9 5 13.9C3 13.9 1 14.9 1 16.9C1 17.9 2 17.9 2 17.9L6 17.9C7 17.9 7 18.9 7 18.9C7 22.9 5 28.9 1 32.9C1.1 33.1 1.3 33.1 1.4 33.2C1.3 33.1 1.1 33.1 1 33C1 37 2 41 4 43L4.8 43.9L4.8 44.2C5.6 43.6 5.9 43 5.9 43C5.9 43 6.9 45 9.9 45C12.9 45 13.9 43 13.9 43C13.9 43 14.9 45 17.9 45C20.9 45 21.9 43 21.9 43C21.9 43 22.9 45 25.9 45C28.9 45 29.9 43 29.9 43C29.9 43 30.9 45 33.9 45C36.9 45 37.9 43 37.9 43C37.9 43 38.2 43.5 38.8 44L38.8 44L42.9 43C47.9 42 55.9 36 58.9 26L46.9 27C45.8 27 44.9 28 44.9 28L42.9 31C42.9 31 42.2 31.7 41.4 31.9C41.2 31.9 41.1 32 40.9 32L4.9 34C5 34 3.4 34.1 1.4 33.2L1.4 33.2Z" fill="#dfdede" fill-rule="nonzero" opacity="1" stroke="none" vectornator:layerName="path"/>
<path d="M32 16L39 28L23 28.9L18 17.8L32 16Z" fill="#dfdede" fill-rule="nonzero" opacity="1" stroke="none" vectornator:layerName="polygon"/>
<path d="M18 17.8L23 29L13 29.6L12 27.1C10.5 22.8 13.3 18.6 16 18.1L18 17.8Z" fill="#dfdede" fill-rule="nonzero" opacity="1" stroke="none" vectornator:layerName="path"/>
</g>
<path d="M58 49.5C55.8 49.5 54.6 48.5 54 47.9C53.4 48.6 52.2 49.5 50 49.5C47.8 49.5 46.6 48.5 46 47.9C45.4 48.6 44.2 49.5 42 49.5C39.8 49.5 38.6 48.5 38 47.9C37.4 48.6 36.2 49.5 34 49.5C31.8 49.5 30.6 48.5 30 47.9C29.4 48.6 28.2 49.5 26 49.5C23.8 49.5 22.6 48.5 22 47.9C21.4 48.6 20.2 49.5 18 49.5C15.8 49.5 14.6 48.5 14 47.9C13.4 48.6 12.2 49.5 10 49.5C7.8 49.5 6.6 48.5 6 47.9C5.4 48.6 4.2 49.5 2 49.5C1.6 49.5 1.3 49.5 0.9 49.4C0.6 49.4 0.4 49.1 0.5 48.8C0.5 48.5 0.8 48.3 1.1 48.4C1.4 48.5 1.7 48.5 2 48.5C4.6 48.5 5.5 46.8 5.6 46.8C5.7 46.6 5.8 46.5 6 46.5C6.2 46.5 6.4 46.6 6.4 46.8C6.4 46.9 7.3 48.5 10 48.5C12.7 48.5 13.5 46.8 13.6 46.8C13.7 46.6 13.9 46.5 14 46.5C14.2 46.5 14.4 46.6 14.4 46.8C14.4 46.9 15.3 48.5 18 48.5C20.7 48.5 21.5 46.8 21.6 46.8C21.7 46.6 21.9 46.5 22 46.5C22.2 46.5 22.4 46.6 22.4 46.8C22.4 46.9 23.3 48.5 26 48.5C28.7 48.5 29.5 46.8 29.6 46.8C29.7 46.6 29.8 46.5 30 46.5C30.2 46.5 30.4 46.6 30.4 46.8C30.4 46.9 31.3 48.5 34 48.5C36.7 48.5 37.5 46.8 37.6 46.8C37.7 46.6 37.9 46.5 38 46.5L38 46.5C38.2 46.5 38.4 46.6 38.4 46.8C38.4 46.9 39.3 48.5 42 48.5C44.7 48.5 45.5 46.8 45.6 46.8C45.7 46.6 45.9 46.5 46 46.5L46 46.5C46.2 46.5 46.4 46.6 46.4 46.8C46.4 46.9 47.3 48.5 50 48.5C52.7 48.5 53.5 46.8 53.6 46.8C53.7 46.6 53.9 46.6 54 46.5C54.2 46.5 54.4 46.6 54.4 46.8C54.4 46.9 55.3 48.5 58 48.5C58.3 48.5 58.6 48.5 58.9 48.4C59.2 48.4 59.4 48.5 59.5 48.8C59.5 49.1 59.4 49.3 59.1 49.4C58.7 49.5 58.4 49.5 58 49.5ZM43 43.5C42.8 43.5 42.6 43.3 42.5 43.1C42.4 42.8 42.6 42.6 42.9 42.5C47.5 41.6 55.2 36 58.3 26.6L47 27.5C46.1 27.5 45.3 28.3 45.3 28.3L43.3 31.2C43.1 31.4 42.1 32.4 40.9 32.4L4.9 34.4C4.6 34.4 4.4 34.2 4.4 33.9C4.4 33.6 4.6 33.4 4.9 33.4L40.9 31.4C41.6 31.4 42.3 30.8 42.6 30.5L44.5 27.6C44.6 27.5 45.6 26.4 46.9 26.4L58.9 25.4C59.1 25.4 59.2 25.5 59.3 25.6C59.4 25.7 59.4 25.9 59.4 26.1C56.4 36.5 48 42.5 43 43.5C43.1 43.5 43 43.5 43 43.5ZM4 43.5C3.9 43.5 3.7 43.5 3.6 43.4C1.6 41.4 0.5 37.6 0.5 33C0.5 32.9 0.6 32.7 0.6 32.6C4.6 28.6 6.5 22.7 6.5 19C6.5 18.8 6.4 18.5 6 18.5L2 18.5C1.4 18.5 0.5 18.1 0.5 17C0.5 14.6 2.8 13.5 5 13.5C7 13.5 27.8 12.5 28 12.5L28 12.5C30.6 12.5 32.1 14.6 32.5 15.8L39.5 27.8C39.6 28 39.6 28.1 39.5 28.3C39.4 28.5 39.3 28.6 39.1 28.6L13.1 30.1C12.9 30.1 12.7 30 12.6 29.8L11.6 27.3C10.8 25 11.1 22.6 12.3 20.6C13.2 19 14.6 17.9 16 17.7L18 17.4C18 17.4 18 17.4 18.1 17.4L31.4 15.7C31 14.9 30 13.6 28.1 13.6C27.3 13.6 7.1 14.6 5.1 14.6C3.4 14.6 1.6 15.4 1.6 17.1C1.6 17.5 1.9 17.6 2.1 17.6L6.1 17.6C7.2 17.6 7.6 18.5 7.6 19.1C7.6 23 5.7 29.1 1.6 33.3C1.6 37.4 2.7 41 4.5 42.7C4.7 42.9 4.7 43.2 4.5 43.4C4.3 43.5 4.1 43.5 4 43.5ZM17.7 18.3L16.1 18.5C15 18.7 13.9 19.6 13.1 21C12.1 22.8 11.8 24.9 12.5 26.9L13.4 29L22.3 28.5L17.7 18.3ZM18.7 18.2L23.3 28.4L38.1 27.5L31.7 16.5L18.7 18.2Z" fill="#000000" fill-rule="nonzero" opacity="1" stroke="none" vectornator:layerName="path"/>
</g>
</g>
</svg>
