<?xml version="1.0" encoding="UTF-8" standalone="no"?>
<!-- Created with Inkscape (http://www.inkscape.org/) -->

<svg
   version="1.1"
   id="svg900"
   xml:space="preserve"
   width="682.66669"
   height="682.66669"
   viewBox="0 0 682.66669 682.66669"
   xmlns="http://www.w3.org/2000/svg"
   xmlns:svg="http://www.w3.org/2000/svg"><defs
     id="defs904"><clipPath
       clipPathUnits="userSpaceOnUse"
       id="clipPath914"><path
         d="M 0,512 H 512 V 0 H 0 Z"
         id="path912" /></clipPath></defs><g
     id="g906"
     transform="matrix(1.3333333,0,0,-1.3333333,0,682.66667)"><g
       id="g908"><g
         id="g910"
         clip-path="url(#clipPath914)"><g
           id="g916"
           transform="translate(397,202)"><path
             d="M 0,0 C 0,13.807 -11.193,25 -25,25 -38.807,25 -50,14.807 -50,1 V -23 H 0 Z"
             style="fill:#ffc144;fill-opacity:1;fill-rule:nonzero;stroke:none"
             id="path918" /></g><g
           id="g920"
           transform="translate(397,202)"><path
             d="M 0,0 C 0,13.807 -11.193,25 -25,25 -38.807,25 -50,14.807 -50,1 V -23 H 0 Z"
             style="fill:none;stroke:#000000;stroke-width:20;stroke-linecap:round;stroke-linejoin:round;stroke-miterlimit:10;stroke-dasharray:none;stroke-opacity:1"
             id="path922" /></g><g
           id="g924"
           transform="translate(430.7443,238.8852)"><path
             d="m 0,0 c 0,-13.807 -11.193,-25 -25,-25 -13.807,0 -25,11.193 -25,25 0,13.807 11.193,25 25,25 C -11.193,25 0,13.807 0,0"
             style="fill:#cc9081;fill-opacity:1;fill-rule:nonzero;stroke:none"
             id="path926" /></g><g
           id="g928"
           transform="translate(430.7443,238.8852)"><path
             d="m 0,0 c 0,-13.807 -11.193,-25 -25,-25 -13.807,0 -25,11.193 -25,25 0,13.807 11.193,25 25,25 C -11.193,25 0,13.807 0,0 Z"
             style="fill:none;stroke:#000000;stroke-width:20;stroke-linecap:round;stroke-linejoin:round;stroke-miterlimit:10;stroke-dasharray:none;stroke-opacity:1"
             id="path930" /></g><g
           id="g932"
           transform="translate(464,276.4722)"><path
             d="m 0,0 c 0,-13.807 -11.193,-25 -25,-25 -13.807,0 -25,11.193 -25,25 0,13.807 11.193,25 25,25 C -11.193,25 0,13.807 0,0"
             style="fill:#cc9081;fill-opacity:1;fill-rule:nonzero;stroke:none"
             id="path934" /></g><g
           id="g936"
           transform="translate(464,276.4722)"><path
             d="m 0,0 c 0,-13.807 -11.193,-25 -25,-25 -13.807,0 -25,11.193 -25,25 0,13.807 11.193,25 25,25 C -11.193,25 0,13.807 0,0 Z"
             style="fill:none;stroke:#000000;stroke-width:20;stroke-linecap:round;stroke-linejoin:round;stroke-miterlimit:10;stroke-dasharray:none;stroke-opacity:1"
             id="path938" /></g><g
           id="g940"
           transform="translate(463.5433,326.4722)"><path
             d="m 0,0 c 0,-13.807 -11.193,-25 -25,-25 -13.807,0 -25,11.193 -25,25 0,13.807 11.193,25 25,25 C -11.193,25 0,13.807 0,0"
             style="fill:#cc9081;fill-opacity:1;fill-rule:nonzero;stroke:none"
             id="path942" /></g><g
           id="g944"
           transform="translate(463.5433,326.4722)"><path
             d="m 0,0 c 0,-13.807 -11.193,-25 -25,-25 -13.807,0 -25,11.193 -25,25 0,13.807 11.193,25 25,25 C -11.193,25 0,13.807 0,0 Z"
             style="fill:none;stroke:#000000;stroke-width:20;stroke-linecap:round;stroke-linejoin:round;stroke-miterlimit:10;stroke-dasharray:none;stroke-opacity:1"
             id="path946" /></g><g
           id="g948"
           transform="translate(429.8102,363.371)"><path
             d="m 0,0 c 0,-13.807 -11.193,-25 -25,-25 -13.807,0 -25,11.193 -25,25 0,13.807 11.193,25 25,25 C -11.193,25 0,13.807 0,0"
             style="fill:#cc9081;fill-opacity:1;fill-rule:nonzero;stroke:none"
             id="path950" /></g><g
           id="g952"
           transform="translate(429.8102,363.371)"><path
             d="m 0,0 c 0,-13.807 -11.193,-25 -25,-25 -13.807,0 -25,11.193 -25,25 0,13.807 11.193,25 25,25 C -11.193,25 0,13.807 0,0 Z"
             style="fill:none;stroke:#000000;stroke-width:20;stroke-linecap:round;stroke-linejoin:round;stroke-miterlimit:10;stroke-dasharray:none;stroke-opacity:1"
             id="path954" /></g><g
           id="g956"
           transform="translate(407.7505,408.2474)"><path
             d="m 0,0 c 0,-13.807 -11.193,-25 -25,-25 -13.807,0 -25,11.193 -25,25 0,13.807 11.193,25 25,25 C -11.193,25 0,13.807 0,0"
             style="fill:#cc9081;fill-opacity:1;fill-rule:nonzero;stroke:none"
             id="path958" /></g><g
           id="g960"
           transform="translate(407.7505,408.2474)"><path
             d="m 0,0 c 0,-13.807 -11.193,-25 -25,-25 -13.807,0 -25,11.193 -25,25 0,13.807 11.193,25 25,25 C -11.193,25 0,13.807 0,0 Z"
             style="fill:none;stroke:#000000;stroke-width:20;stroke-linecap:round;stroke-linejoin:round;stroke-miterlimit:10;stroke-dasharray:none;stroke-opacity:1"
             id="path962" /></g><g
           id="g964"
           transform="translate(371.5483,442.7031)"><path
             d="m 0,0 c 0,-13.807 -11.193,-25 -25,-25 -13.807,0 -25,11.193 -25,25 0,13.807 11.193,25 25,25 C -11.193,25 0,13.807 0,0"
             style="fill:#cc9081;fill-opacity:1;fill-rule:nonzero;stroke:none"
             id="path966" /></g><g
           id="g968"
           transform="translate(371.5483,442.7031)"><path
             d="m 0,0 c 0,-13.807 -11.193,-25 -25,-25 -13.807,0 -25,11.193 -25,25 0,13.807 11.193,25 25,25 C -11.193,25 0,13.807 0,0 Z"
             style="fill:none;stroke:#000000;stroke-width:20;stroke-linecap:round;stroke-linejoin:round;stroke-miterlimit:10;stroke-dasharray:none;stroke-opacity:1"
             id="path970" /></g><g
           id="g972"
           transform="translate(335.1185,477)"><path
             d="m 0,0 c 0,-13.807 -11.193,-25 -25,-25 -13.807,0 -25,11.193 -25,25 0,13.807 11.193,25 25,25 C -11.193,25 0,13.807 0,0"
             style="fill:#cc9081;fill-opacity:1;fill-rule:nonzero;stroke:none"
             id="path974" /></g><g
           id="g976"
           transform="translate(335.1185,477)"><path
             d="m 0,0 c 0,-13.807 -11.193,-25 -25,-25 -13.807,0 -25,11.193 -25,25 0,13.807 11.193,25 25,25 C -11.193,25 0,13.807 0,0 Z"
             style="fill:none;stroke:#000000;stroke-width:20;stroke-linecap:round;stroke-linejoin:round;stroke-miterlimit:10;stroke-dasharray:none;stroke-opacity:1"
             id="path978" /></g><g
           id="g980"
           transform="translate(285.1185,477)"><path
             d="m 0,0 c 0,-13.807 -11.193,-25 -25,-25 -13.807,0 -25,11.193 -25,25 0,13.807 11.193,25 25,25 C -11.193,25 0,13.807 0,0"
             style="fill:#cc9081;fill-opacity:1;fill-rule:nonzero;stroke:none"
             id="path982" /></g><g
           id="g984"
           transform="translate(285.1185,477)"><path
             d="m 0,0 c 0,-13.807 -11.193,-25 -25,-25 -13.807,0 -25,11.193 -25,25 0,13.807 11.193,25 25,25 C -11.193,25 0,13.807 0,0 Z"
             style="fill:none;stroke:#000000;stroke-width:20;stroke-linecap:round;stroke-linejoin:round;stroke-miterlimit:10;stroke-dasharray:none;stroke-opacity:1"
             id="path986" /></g><g
           id="g988"
           transform="translate(235.1185,477)"><path
             d="m 0,0 c 0,-13.807 -11.193,-25 -25,-25 -13.807,0 -25,11.193 -25,25 0,13.807 11.193,25 25,25 C -11.193,25 0,13.807 0,0"
             style="fill:#cc9081;fill-opacity:1;fill-rule:nonzero;stroke:none"
             id="path990" /></g><g
           id="g992"
           transform="translate(235.1185,477)"><path
             d="m 0,0 c 0,-13.807 -11.193,-25 -25,-25 -13.807,0 -25,11.193 -25,25 0,13.807 11.193,25 25,25 C -11.193,25 0,13.807 0,0 Z"
             style="fill:none;stroke:#000000;stroke-width:20;stroke-linecap:round;stroke-linejoin:round;stroke-miterlimit:10;stroke-dasharray:none;stroke-opacity:1"
             id="path994" /></g><g
           id="g996"
           transform="translate(186.5534,465.0853)"><path
             d="m 0,0 c 0,-13.807 -11.193,-25 -25,-25 -13.807,0 -25,11.193 -25,25 0,13.807 11.193,25 25,25 C -11.193,25 0,13.807 0,0"
             style="fill:#cc9081;fill-opacity:1;fill-rule:nonzero;stroke:none"
             id="path998" /></g><g
           id="g1000"
           transform="translate(186.5534,465.0853)"><path
             d="m 0,0 c 0,-13.807 -11.193,-25 -25,-25 -13.807,0 -25,11.193 -25,25 0,13.807 11.193,25 25,25 C -11.193,25 0,13.807 0,0 Z"
             style="fill:none;stroke:#000000;stroke-width:20;stroke-linecap:round;stroke-linejoin:round;stroke-miterlimit:10;stroke-dasharray:none;stroke-opacity:1"
             id="path1002" /></g><g
           id="g1004"
           transform="translate(147.599,433.774)"><path
             d="m 0,0 c 0,-13.807 -11.193,-25 -25,-25 -13.807,0 -25,11.193 -25,25 0,13.807 11.193,25 25,25 C -11.193,25 0,13.807 0,0"
             style="fill:#cc9081;fill-opacity:1;fill-rule:nonzero;stroke:none"
             id="path1006" /></g><g
           id="g1008"
           transform="translate(147.599,433.774)"><path
             d="m 0,0 c 0,-13.807 -11.193,-25 -25,-25 -13.807,0 -25,11.193 -25,25 0,13.807 11.193,25 25,25 C -11.193,25 0,13.807 0,0 Z"
             style="fill:none;stroke:#000000;stroke-width:20;stroke-linecap:round;stroke-linejoin:round;stroke-miterlimit:10;stroke-dasharray:none;stroke-opacity:1"
             id="path1010" /></g><g
           id="g1012"
           transform="translate(112.6985,398.0271)"><path
             d="m 0,0 c 0,-13.807 -11.193,-25 -25,-25 -13.807,0 -25,11.193 -25,25 0,13.807 11.193,25 25,25 C -11.193,25 0,13.807 0,0"
             style="fill:#cc9081;fill-opacity:1;fill-rule:nonzero;stroke:none"
             id="path1014" /></g><g
           id="g1016"
           transform="translate(112.6985,398.0271)"><path
             d="m 0,0 c 0,-13.807 -11.193,-25 -25,-25 -13.807,0 -25,11.193 -25,25 0,13.807 11.193,25 25,25 C -11.193,25 0,13.807 0,0 Z"
             style="fill:none;stroke:#000000;stroke-width:20;stroke-linecap:round;stroke-linejoin:round;stroke-miterlimit:10;stroke-dasharray:none;stroke-opacity:1"
             id="path1018" /></g><g
           id="g1020"
           transform="translate(98,350.2043)"><path
             d="m 0,0 c 0,-13.807 -11.193,-25 -25,-25 -13.807,0 -25,11.193 -25,25 0,13.807 11.193,25 25,25 C -11.193,25 0,13.807 0,0"
             style="fill:#cc9081;fill-opacity:1;fill-rule:nonzero;stroke:none"
             id="path1022" /></g><g
           id="g1024"
           transform="translate(98,350.2043)"><path
             d="m 0,0 c 0,-13.807 -11.193,-25 -25,-25 -13.807,0 -25,11.193 -25,25 0,13.807 11.193,25 25,25 C -11.193,25 0,13.807 0,0 Z"
             style="fill:none;stroke:#000000;stroke-width:20;stroke-linecap:round;stroke-linejoin:round;stroke-miterlimit:10;stroke-dasharray:none;stroke-opacity:1"
             id="path1026" /></g><g
           id="g1028"
           transform="translate(137.2823,319.4697)"><path
             d="m 0,0 c 0,-13.807 -11.193,-25 -25,-25 -13.807,0 -25,11.193 -25,25 0,13.807 11.193,25 25,25 C -11.193,25 0,13.807 0,0"
             style="fill:#cc9081;fill-opacity:1;fill-rule:nonzero;stroke:none"
             id="path1030" /></g><g
           id="g1032"
           transform="translate(137.2823,319.4697)"><path
             d="m 0,0 c 0,-13.807 -11.193,-25 -25,-25 -13.807,0 -25,11.193 -25,25 0,13.807 11.193,25 25,25 C -11.193,25 0,13.807 0,0 Z"
             style="fill:none;stroke:#000000;stroke-width:20;stroke-linecap:round;stroke-linejoin:round;stroke-miterlimit:10;stroke-dasharray:none;stroke-opacity:1"
             id="path1034" /></g><g
           id="g1036"
           transform="translate(182.8521,298.8653)"><path
             d="m 0,0 c 0,-13.807 -11.193,-25 -25,-25 -13.807,0 -25,11.193 -25,25 0,13.807 11.193,25 25,25 C -11.193,25 0,13.807 0,0"
             style="fill:#cc9081;fill-opacity:1;fill-rule:nonzero;stroke:none"
             id="path1038" /></g><g
           id="g1040"
           transform="translate(182.8521,298.8653)"><path
             d="m 0,0 c 0,-13.807 -11.193,-25 -25,-25 -13.807,0 -25,11.193 -25,25 0,13.807 11.193,25 25,25 C -11.193,25 0,13.807 0,0 Z"
             style="fill:none;stroke:#000000;stroke-width:20;stroke-linecap:round;stroke-linejoin:round;stroke-miterlimit:10;stroke-dasharray:none;stroke-opacity:1"
             id="path1042" /></g><g
           id="g1044"
           transform="translate(282.8093,297.4245)"><path
             d="m 0,0 c 0,-13.807 -11.193,-25 -25,-25 -13.807,0 -25,11.193 -25,25 0,13.807 11.193,25 25,25 C -11.193,25 0,13.807 0,0"
             style="fill:#cc9081;fill-opacity:1;fill-rule:nonzero;stroke:none"
             id="path1046" /></g><g
           id="g1048"
           transform="translate(282.8093,297.4245)"><path
             d="m 0,0 c 0,-13.807 -11.193,-25 -25,-25 -13.807,0 -25,11.193 -25,25 0,13.807 11.193,25 25,25 C -11.193,25 0,13.807 0,0 Z"
             style="fill:none;stroke:#000000;stroke-width:20;stroke-linecap:round;stroke-linejoin:round;stroke-miterlimit:10;stroke-dasharray:none;stroke-opacity:1"
             id="path1050" /></g><g
           id="g1052"
           transform="translate(232.8093,297.4245)"><path
             d="m 0,0 c 0,-13.807 -11.193,-25 -25,-25 -13.807,0 -25,11.193 -25,25 0,13.807 11.193,25 25,25 C -11.193,25 0,13.807 0,0"
             style="fill:#cc9081;fill-opacity:1;fill-rule:nonzero;stroke:none"
             id="path1054" /></g><g
           id="g1056"
           transform="translate(232.8093,297.4245)"><path
             d="m 0,0 c 0,-13.807 -11.193,-25 -25,-25 -13.807,0 -25,11.193 -25,25 0,13.807 11.193,25 25,25 C -11.193,25 0,13.807 0,0 Z"
             style="fill:none;stroke:#000000;stroke-width:20;stroke-linecap:round;stroke-linejoin:round;stroke-miterlimit:10;stroke-dasharray:none;stroke-opacity:1"
             id="path1058" /></g><g
           id="g1060"
           transform="translate(362.6996,238.857)"><path
             d="m 0,0 c 0,-13.807 -11.193,-25 -25,-25 -13.807,0 -25,11.193 -25,25 0,13.807 11.193,25 25,25 C -11.193,25 0,13.807 0,0"
             style="fill:#cc9081;fill-opacity:1;fill-rule:nonzero;stroke:none"
             id="path1062" /></g><g
           id="g1064"
           transform="translate(362.6996,238.857)"><path
             d="m 0,0 c 0,-13.807 -11.193,-25 -25,-25 -13.807,0 -25,11.193 -25,25 0,13.807 11.193,25 25,25 C -11.193,25 0,13.807 0,0 Z"
             style="fill:none;stroke:#000000;stroke-width:20;stroke-linecap:round;stroke-linejoin:round;stroke-miterlimit:10;stroke-dasharray:none;stroke-opacity:1"
             id="path1066" /></g><g
           id="g1068"
           transform="translate(326.8109,273.663)"><path
             d="m 0,0 c 0,-13.807 -11.193,-25 -25,-25 -13.807,0 -25,11.193 -25,25 0,13.807 11.193,25 25,25 C -11.193,25 0,13.807 0,0"
             style="fill:#cc9081;fill-opacity:1;fill-rule:nonzero;stroke:none"
             id="path1070" /></g><g
           id="g1072"
           transform="translate(326.8109,273.663)"><path
             d="m 0,0 c 0,-13.807 -11.193,-25 -25,-25 -13.807,0 -25,11.193 -25,25 0,13.807 11.193,25 25,25 C -11.193,25 0,13.807 0,0 Z"
             style="fill:none;stroke:#000000;stroke-width:20;stroke-linecap:round;stroke-linejoin:round;stroke-miterlimit:10;stroke-dasharray:none;stroke-opacity:1"
             id="path1074" /></g><g
           id="g1076"
           transform="translate(407,139)"><path
             d="m 0,0 h -70 l 10,40 h 50 z"
             style="fill:#ffc144;fill-opacity:1;fill-rule:nonzero;stroke:none"
             id="path1078" /></g><g
           id="g1080"
           transform="translate(407,139)"><path
             d="m 0,0 h -70 l 10,40 h 50 z"
             style="fill:none;stroke:#000000;stroke-width:20;stroke-linecap:round;stroke-linejoin:round;stroke-miterlimit:10;stroke-dasharray:none;stroke-opacity:1"
             id="path1082" /></g><g
           id="g1084"
           transform="translate(337,139)"><path
             d="m 0,0 c 0,0 -23,-34.5 -21,-66 2,-31.5 -7.5,-63 -7.5,-63"
             style="fill:none;stroke:#000000;stroke-width:20;stroke-linecap:round;stroke-linejoin:round;stroke-miterlimit:10;stroke-dasharray:none;stroke-opacity:1"
             id="path1086" /></g><g
           id="g1088"
           transform="translate(407,139)"><path
             d="M 0,0 C 0,0 32,-33 29.667,-74.333 27.333,-115.667 31.744,-129 31.744,-129"
             style="fill:none;stroke:#000000;stroke-width:20;stroke-linecap:round;stroke-linejoin:round;stroke-miterlimit:10;stroke-dasharray:none;stroke-opacity:1"
             id="path1090" /></g><g
           id="g1092"
           transform="translate(358.3333,139)"><path
             d="M 0,0 C 0,0 -13.667,-41 -5.667,-73.667 2.333,-106.333 -8.179,-129 -8.179,-129"
             style="fill:none;stroke:#000000;stroke-width:20;stroke-linecap:round;stroke-linejoin:round;stroke-miterlimit:10;stroke-dasharray:85, 45, 0, 0, 0, 0;stroke-dashoffset:0;stroke-opacity:1"
             id="path1094" /></g><g
           id="g1096"
           transform="translate(380.7443,139)"><path
             d="M 0,0 C 0,0 10.406,-39.535 14.442,-71.26 17.589,-96 11.922,-129 11.922,-129"
             style="fill:none;stroke:#000000;stroke-width:20;stroke-linecap:round;stroke-linejoin:round;stroke-miterlimit:10;stroke-dasharray:none;stroke-opacity:1"
             id="path1098" /></g></g></g></g></svg>
