<?xml version="1.0" encoding="iso-8859-1"?>
<!-- Generator: Adobe Illustrator 19.0.0, SVG Export Plug-In . SVG Version: 6.00 Build 0)  -->
<svg version="1.1" id="Capa_1" xmlns="http://www.w3.org/2000/svg" xmlns:xlink="http://www.w3.org/1999/xlink" x="0px" y="0px"
	 viewBox="0 0 480 480" style="enable-background:new 0 0 480 480;" xml:space="preserve">
<path style="fill:#E4E8ED;" d="M32,472h80L72,104L32,472z"/>
<path style="fill:#EE2849;" d="M144,472h80l-40-368L144,472z"/>
<path style="fill:#E4E8ED;" d="M256,472h80l-40-368L256,472z"/>
<path style="fill:#EE2849;" d="M368,472h80l-40-368L368,472z"/>
<g>
	<path style="fill:#E4E8ED;" d="M136,8h64v64h-64V8z"/>
	<path style="fill:#E4E8ED;" d="M280,8h64v64h-64V8z"/>
</g>
<path style="fill:#EE2849;" d="M168,48c-2.127,0.018-4.173-0.818-5.68-2.32c-0.704-0.779-1.272-1.672-1.68-2.64
	c-0.41-0.962-0.627-1.995-0.64-3.04c0.012-2.122,0.844-4.156,2.32-5.68c3.111-3.137,8.177-3.158,11.314-0.047
	c1.526,1.514,2.379,3.577,2.366,5.727c-0.013,1.045-0.23,2.078-0.64,3.04c-0.408,0.968-0.976,1.861-1.68,2.64
	C172.173,47.182,170.128,48.018,168,48L168,48z"/>
<circle style="fill:#EFF2FA;" cx="72" cy="256" r="40"/>
<path style="fill:#D9DDE1;" d="M91,221c3.236,5.813,4.956,12.347,5,19c0,22.091-17.909,40-40,40c-6.653-0.044-13.187-1.764-19-5
	c10.429,19.395,34.605,26.663,54,16.234s26.663-34.605,16.234-54C103.532,230.348,97.886,224.703,91,221z"/>
<circle style="fill:#EFF2FA;" cx="72" cy="336" r="40"/>
<path style="fill:#D9DDE1;" d="M91,301c3.236,5.813,4.956,12.347,5,19c0,22.091-17.909,40-40,40c-6.653-0.044-13.187-1.764-19-5
	c10.429,19.395,34.605,26.663,54,16.234s26.663-34.605,16.234-54C103.532,310.348,97.886,304.703,91,301z"/>
<circle style="fill:#EFF2FA;" cx="72" cy="416" r="40"/>
<path style="fill:#D9DDE1;" d="M91,381c3.236,5.813,4.956,12.347,5,19c0,22.091-17.909,40-40,40c-6.653-0.044-13.187-1.764-19-5
	c10.429,19.395,34.605,26.663,54,16.234s26.663-34.605,16.234-54C103.532,390.348,97.886,384.703,91,381z"/>
<circle style="fill:#6B778A;" cx="296" cy="336" r="40"/>
<path style="fill:#505968;" d="M315,301c3.236,5.813,4.956,12.347,5,19c0,22.091-17.909,40-40,40c-6.653-0.044-13.187-1.764-19-5
	c10.429,19.395,34.605,26.663,54,16.234s26.663-34.605,16.234-54C327.532,310.348,321.886,304.703,315,301z"/>
<circle style="fill:#6B778A;" cx="296" cy="416" r="40"/>
<path style="fill:#505968;" d="M315,381c3.236,5.813,4.956,12.347,5,19c0,22.091-17.909,40-40,40c-6.653-0.044-13.187-1.764-19-5
	c10.429,19.395,34.605,26.663,54,16.234s26.663-34.605,16.234-54C327.532,390.348,321.886,384.703,315,381z"/>
<circle style="fill:#6B778A;" cx="408" cy="416" r="40"/>
<path style="fill:#505968;" d="M427,381c3.236,5.813,4.956,12.347,5,19c0,22.091-17.909,40-40,40c-6.653-0.044-13.187-1.764-19-5
	c10.429,19.395,34.605,26.663,54,16.234s26.663-34.605,16.234-54C439.532,390.348,433.886,384.703,427,381z"/>
<circle style="fill:#6B778A;" cx="408" cy="336" r="40"/>
<path style="fill:#505968;" d="M427,301c3.236,5.813,4.956,12.347,5,19c0,22.091-17.909,40-40,40c-6.653-0.044-13.187-1.764-19-5
	c10.429,19.395,34.605,26.663,54,16.234s26.663-34.605,16.234-54C439.532,310.348,433.886,304.703,427,301z"/>
<circle style="fill:#6B778A;" cx="408" cy="256" r="40"/>
<path style="fill:#505968;" d="M427,221c3.236,5.813,4.956,12.347,5,19c0,22.091-17.909,40-40,40c-6.653-0.044-13.187-1.764-19-5
	c10.429,19.395,34.605,26.663,54,16.234s26.663-34.605,16.234-54C439.532,230.348,433.886,224.703,427,221z"/>
<path d="M136,80h64c4.418,0,8-3.582,8-8V8c0-4.418-3.582-8-8-8h-64c-4.418,0-8,3.582-8,8v64C128,76.418,131.582,80,136,80z M144,16
	h48v48h-48V16z"/>
<path d="M280,80h64c4.418,0,8-3.582,8-8V8c0-4.418-3.582-8-8-8h-64c-4.418,0-8,3.582-8,8v64C272,76.418,275.582,80,280,80z M288,16
	h48v48h-48V16z"/>
<path d="M311.36,28.96c-0.406-0.969-0.974-1.862-1.68-2.64c-2.318-2.237-5.737-2.896-8.72-1.68c-0.969,0.406-1.862,0.974-2.64,1.68
	c-0.706,0.778-1.274,1.671-1.68,2.64c-0.448,0.949-0.668,1.991-0.64,3.04c-0.045,4.374,3.465,7.956,7.839,8
	c1.1,0.011,2.19-0.207,3.201-0.64c0.969-0.406,1.862-0.974,2.64-1.68C311.97,35.39,312.635,31.937,311.36,28.96z"/>
<path d="M325.68,42.32c-2.3-2.27-5.741-2.933-8.72-1.68c-0.969,0.406-1.862,0.974-2.64,1.68c-0.723,0.765-1.293,1.661-1.68,2.64
	c-1.723,4.02,0.139,8.676,4.159,10.4C317.81,55.793,318.9,56.011,320,56c1.049,0.024,2.089-0.195,3.04-0.64
	c0.969-0.406,1.862-0.974,2.64-1.68c2.29-2.29,2.955-5.743,1.68-8.72C326.973,43.981,326.403,43.085,325.68,42.32z"/>
<path d="M472,464h-16.8l-3.2-28.944c6.742-15.48,4.798-33.37-5.112-47.04l-2.296-21.064c17.098-20.12,14.648-50.291-5.472-67.389
	c-0.66-0.561-1.334-1.103-2.024-1.627l-0.392-3.584c21.199-15.8,25.575-45.793,9.775-66.992
	c-4.854-6.512-11.285-11.682-18.687-15.024l-11.872-109.2c-0.483-4.392-4.435-7.56-8.827-7.077c-3.725,0.41-6.667,3.351-7.077,7.077
	l-11.872,109.2c-24.103,10.875-34.827,39.231-23.952,63.335c3.349,7.423,8.537,13.869,15.072,18.729l-0.392,3.576
	c-21.019,15.98-25.103,45.974-9.123,66.992c0.524,0.689,1.067,1.364,1.627,2.024L369.08,388c-9.91,13.67-11.854,31.56-5.112,47.04
	L360.8,464h-17.6l-3.2-28.936c6.742-15.482,4.798-33.375-5.112-47.048l-2.296-21.064c17.098-20.12,14.648-50.291-5.472-67.389
	c-0.66-0.561-1.334-1.103-2.024-1.627l-21.176-194.8c-0.483-4.392-4.435-7.56-8.827-7.077c-3.725,0.41-6.667,3.351-7.077,7.077
	l-21.176,194.8c-21.019,15.98-25.103,45.974-9.123,66.992c0.524,0.689,1.067,1.364,1.627,2.024L257.08,388
	c-9.91,13.67-11.854,31.56-5.112,47.04L248.8,464h-17.6L192,103.136c-0.483-4.392-4.435-7.56-8.827-7.077
	c-3.726,0.41-6.667,3.351-7.077,7.077L136.8,464h-17.6l-3.2-28.944c6.742-15.48,4.798-33.37-5.112-47.04l-2.296-21.064
	c17.098-20.12,14.648-50.291-5.472-67.389c-0.66-0.561-1.334-1.103-2.024-1.627l-0.392-3.584
	c21.199-15.8,25.575-45.793,9.775-66.992c-4.854-6.512-11.285-11.682-18.687-15.024l-11.872-109.2
	c-0.483-4.392-4.435-7.56-8.827-7.077c-3.726,0.41-6.667,3.351-7.077,7.077l-11.84,109.2
	c-24.098,10.878-34.814,39.231-23.936,63.329c3.342,7.403,8.512,13.834,15.024,18.687l-0.392,3.584
	c-21.019,15.98-25.103,45.974-9.123,66.992c0.524,0.689,1.067,1.364,1.627,2.024L33.08,388c-9.91,13.67-11.854,31.56-5.112,47.04
	L24.8,464H8c-4.418,0-8,3.582-8,8s3.582,8,8,8h464c4.418,0,8-3.582,8-8S476.418,464,472,464L472,464z M376,416
	c0-17.673,14.327-32,32-32s32,14.327,32,32c0,17.673-14.327,32-32,32S376,433.673,376,416z M408,178.032l3.28,30.136
	c-1.088-0.08-2.176-0.168-3.28-0.168s-2.184,0.088-3.272,0.168L408,178.032z M408,224c17.673,0,32,14.327,32,32
	c0,17.673-14.327,32-32,32s-32-14.327-32-32C376,238.327,390.327,224,408,224z M408,304c17.673,0,32,14.327,32,32
	c0,17.673-14.327,32-32,32s-32-14.327-32-32C376,318.327,390.327,304,408,304z M264,416c0-17.673,14.327-32,32-32s32,14.327,32,32
	c0,17.673-14.327,32-32,32S264,433.673,264,416z M296,178.04l12.128,111.56c-7.942-2.155-16.314-2.155-24.256,0L296,178.04z
	 M296,304c17.673,0,32,14.327,32,32c0,17.673-14.327,32-32,32s-32-14.327-32-32C264,318.327,278.327,304,296,304z M40,416
	c0-17.673,14.327-32,32-32s32,14.327,32,32c0,17.673-14.327,32-32,32S40,433.673,40,416z M72,178.032l3.28,30.136
	C74.192,208.088,73.104,208,72,208s-2.184,0.088-3.272,0.168L72,178.032z M72,224c17.673,0,32,14.327,32,32
	c0,17.673-14.327,32-32,32s-32-14.327-32-32C40,238.327,54.327,224,72,224z M72,304c17.673,0,32,14.327,32,32
	c0,17.673-14.327,32-32,32s-32-14.327-32-32C40,318.327,54.327,304,72,304z M72,464H40.92l1.144-10.544
	c17.481,14.059,42.391,14.059,59.872,0L103.08,464H72z M152.92,464L184,178.032L215.08,464H152.92z M296,464h-31.08l1.144-10.544
	c17.481,14.059,42.391,14.059,59.872,0L327.08,464H296z M408,464h-31.08l1.144-10.544c17.481,14.059,42.391,14.059,59.872,0
	L439.08,464H408z"/>
<g>
</g>
<g>
</g>
<g>
</g>
<g>
</g>
<g>
</g>
<g>
</g>
<g>
</g>
<g>
</g>
<g>
</g>
<g>
</g>
<g>
</g>
<g>
</g>
<g>
</g>
<g>
</g>
<g>
</g>
</svg>
