<svg id="Capa_1" enable-background="new 0 0 512 512" height="512" viewBox="0 0 512 512" width="512" xmlns="http://www.w3.org/2000/svg"><g><g><path d="m421.423 199.794c30.805 0 63.718-15.648 76.303-37.987 4.367-9.565 6.774-20.187 6.774-31.462 0-18.79-12.169-30.925-30.249-30.925-35.628 0-86.436 22.746-110.245 34.462l16.294 63.169c-.001 0 10.027 2.743 41.123 2.743z" fill="#c38778"/><path d="m91.264 199.452c35.242 0 70.005-10.651 70.005-10.651l10.925-48.116h-10.924s-75.536-41.266-123.521-41.266c-3.27 0-6.344.403-9.191 1.164-8.31 6.745-14.448 17.858-14.448 29.66 0 36.412 29.39 69.209 77.154 69.209z" fill="#c38778"/><path d="m421.423 192.794c-31.096 0-41.123-2.744-41.123-2.744s-6.806-27.722-16.294-56.169c-8.258 4.064-13.275 6.804-13.275 6.804h-178.537l-18.494 46.365s-32.028 5.744-63.123 5.744c-42.145 0-68.077-29.594-68.077-62.449 0-10.65 1.484-21.958 6.058-29.761-12.89 3.449-21.058 14.37-21.058 29.761 0 43.522 35.599 77.449 83.077 77.449 31.096 0 53.123-4.744 53.123-4.744h224.599s22.028 4.744 53.123 4.744c35.177 0 63.816-18.635 76.303-45.987-16.541 19.766-45.497 30.987-76.302 30.987z" fill="#8c5e5e"/><path d="m350.73 140.685h-174.46s-40.294 101.458-40.294 155.961c0 48.782 41.547 87.355 41.547 87.355l19.998 35.444c2.957 23.525 16.2 30.444 30.56 30.444h63.251c11.293 0 19.275-8.903 24.51-11.892 2.401-5.09 3.327-9.108 3.327-9.108l.667-46.85 30.553-5.58c13.194-14.491 33.636-42.896 33.636-79.812-.001-54.503-33.295-155.962-33.295-155.962z" fill="#c38778"/><path d="m350.389 376.459c-5.583-18.331-14.672-39.667-21.195-46.191 0 0-21.201-45.362-21.201-102.489 0-49.066 11.193-69.539 11.193-69.539h-32.904l-101.759 219.761s-41.547-32.573-41.547-81.355c0-54.503 33.294-155.961 33.294-155.961h-15s-33.294 101.458-33.294 155.961 44.564 90.465 44.564 90.465l20.291 41.778s6.876 30 32.103 30h62.132c16.001 0 24.612-12.064 28.776-20.892-5.235 2.989-13.217 5.892-24.51 5.892-11.857 0-51.394 0-63.251 0-14.36 0-20.603-6.919-23.56-30.444 0 0 90.555-5.215 130.182-16.539l4.757-9.795c.001.001 4.643-3.749 10.929-10.652z" fill="#8c5e5e"/><path d="m130.714 59.409c-1.867-3.773-5.228-5.804-8.732-6.215-23.254 40.168.356 75.067 44.182 75.067l12.04-30.563c-21.175-6.195-36.807-16.702-47.49-38.289z" fill="#fff0af"/><path d="m121.982 53.194c-5.144-.603-10.598 2.284-12.097 8.278-13.205 52.784 16.066 68.878 51.385 79.213l4.894-12.424c-35.693-10.744-56.025-28.642-44.182-75.067z" fill="#ffd064"/><path d="m402.116 61.472c-2.522-10.079-16.221-11.375-20.83-2.063-7.898 15.96-18.505 25.859-32.054 32.441 1.499 13.483 3.729 32.523 5.885 39.421 18.852-7.231 39.905-17.957 49.558-36.963 1.367-9.021.699-19.809-2.559-32.836z" fill="#fff0af"/><path d="m349.232 91.851c-4.777 2.321-9.916 4.233-15.436 5.848l16.934 42.987c26.603-7.784 49.771-18.84 53.944-46.376-15.154 14.992-25.386 20.428-44.237 27.659-2.155-6.899-5.711-19.806-11.205-30.118z" fill="#ffd064"/><path d="m350.73 140.685-8.491-27.45c-5.831-18.849-23.26-31.702-42.99-31.702h-86.499c-4.122 0-8.141.568-11.977 1.628-12.12 5.381-19.073 17.338-23.013 30.074l-5.792 18.725s55.039 20.117 55.039 95.818c0 62.622-17.889 110.478-17.889 110.478h108.762s-24.889-47.856-24.889-110.478c.001-75.7 57.739-87.093 57.739-87.093z" fill="#f5fcff"/><path d="m178.968 131.961 5.792-18.725c3.94-12.736 7.162-22.73 16.013-30.074-14.527 4.012-26.4 15.163-31.013 30.074l-8.491 27.45s57.738 11.393 57.738 87.094c0 62.622-24.889 110.478-24.889 110.478h15s24.889-47.856 24.889-110.478c.001-75.702-55.039-95.819-55.039-95.819z" fill="#d8e2f3"/><path d="m317.881 338.257c-13.136-13.136-72.483-15.882-104.965-8.245-15.278 8.245-35.143 48.173-35.143 75.276 0 9.983 5.3 15.601 15.058 15.601h126.339c7.954 0 17.768-5.184 22.533-12.515.106-1.142.179-2.309.179-3.531 0-19.601-13.695-56.28-24.001-66.586z" fill="#ffcdbe"/><path d="m192.831 413.89c-4.424 0-8.058-1.285-8.058-8.601 0-27.103 14.714-62.296 28.143-75.276-8.598 2.022-15.32 4.768-18.797 8.245-10.306 10.306-24 46.985-24 66.587 0 14.956 7.994 24.046 22.712 24.046h126.339c13.515 0 21.341-7.681 22.533-20.515-6.11 3.869-14.579 5.515-22.533 5.515-21.502-.001-112.084-.001-126.339-.001z" fill="#ebae9d"/></g><g><path d="m287.066 466.389h-62.132c-23.788 0-34.21-20.84-37.732-30.394-15.31-2.225-24.583-13.735-24.583-31.152 0-4.35.614-9.479 1.694-14.984-11.266-10.403-43.836-44.689-43.836-93.212 0-23.643 5.954-55.395 12.856-84.262-9.726 1.357-24.775 2.909-42.754 2.909-4.142 0-7.5-3.357-7.5-7.5s3.358-7.5 7.5-7.5c21.558 0 38.592-2.326 46.681-3.682 5.722-22.146 11.456-41.075 14.563-50.991-11.707-3.82-23.758-8.94-33.382-17.043-33.356-14.172-61.246-21.659-80.69-21.659-14.032 0-22.749 8.976-22.749 23.425 0 30.598 19.597 56.544 49.924 66.101 3.951 1.245 6.144 5.457 4.899 9.407-1.245 3.951-5.457 6.144-9.407 4.899-36.703-11.565-60.418-43.126-60.418-80.407 0-22.624 15.523-38.425 37.749-38.425 17.152 0 38.887 4.782 64.814 14.242-4.594-12.721-4.561-28.098.045-46.51 1.907-7.621 8.183-13.088 15.989-13.928 7.901-.858 15.303 3.215 18.839 10.359 8.255 16.681 19.862 26.706 38.426 33.015 9.57-9.456 22.663-15.064 36.888-15.064h43.651c4.142 0 7.5 3.357 7.5 7.5s-3.358 7.5-7.5 7.5h-43.651c-16.541 0-30.938 10.617-35.825 26.419l-6.266 20.256c13.91 5.174 42.036 20.37 52.193 60.648 1.013 4.017-1.422 8.094-5.438 9.106-4.018 1.012-8.094-1.423-9.106-5.438-8.301-32.918-30.996-45.61-42.144-49.965-7.406 23.777-30.688 102.07-30.688 146.587 0 35.736 21.109 63.429 33.205 76.362 5.018-15.864 12.405-31.583 19.223-39.096 3.274-6.73 23.605-50.774 23.605-106.134 0-4.143 3.358-7.5 7.5-7.5s7.5 3.357 7.5 7.5c0 40.966-10.203 75.518-17.769 95.506 10.122-2.655 21.813-3.937 31.828-4.534 4.137-.281 7.687 2.904 7.934 7.039s-2.905 7.687-7.04 7.934c-23.493 1.403-37.958 5.895-41.956 9.755-.06.062-.122.123-.184.183-8.611 8.772-21.704 42.948-21.704 61.182 0 11.134 4.976 16.546 15.212 16.546h126.339c10.236 0 15.212-5.412 15.212-16.546 0-18.232-13.091-52.404-21.702-61.18-.063-.061-.125-.123-.186-.186-4.001-3.859-18.465-8.351-41.956-9.754-4.135-.247-7.286-3.799-7.04-7.934.247-4.135 3.794-7.305 7.934-7.039 10.015.598 21.707 1.879 31.829 4.534-7.566-19.988-17.769-54.54-17.769-95.506 0-41.965 17.131-65.385 31.502-77.642 9.045-7.715 18.131-12.07 24.354-14.405l-6.273-20.28c-4.888-15.802-19.285-26.419-35.825-26.419h-12.848c-4.142 0-7.5-3.357-7.5-7.5s3.358-7.5 7.5-7.5h12.848c14.226 0 27.318 5.608 36.888 15.064 18.564-6.309 30.17-16.335 38.426-33.016 3.535-7.144 10.933-11.216 18.839-10.358 7.806.84 14.082 6.307 15.989 13.928 4.606 18.412 4.639 33.788.045 46.51 25.927-9.46 47.663-14.242 64.814-14.242 22.226 0 37.749 15.801 37.749 38.425 0 37.28-23.715 68.842-60.417 80.407-3.948 1.247-8.162-.948-9.407-4.899-1.245-3.95.949-8.162 4.899-9.407 30.329-9.556 49.926-35.502 49.926-66.1 0-14.449-8.717-23.425-22.749-23.425-19.444 0-47.334 7.487-80.69 21.659-9.625 8.103-21.676 13.223-33.382 17.043 3.107 9.916 8.841 28.846 14.563 50.991 8.089 1.355 25.123 3.682 46.681 3.682 4.142 0 7.5 3.357 7.5 7.5s-3.358 7.5-7.5 7.5c-17.979 0-33.029-1.552-42.754-2.909 6.902 28.867 12.856 60.619 12.856 84.262 0 48.526-32.571 82.81-43.837 93.212 1.08 5.505 1.694 10.635 1.694 14.984 0 17.415-9.275 28.927-24.583 31.152-3.522 9.554-13.945 30.394-37.733 30.394zm-83.374-30c3.618 7.017 10.169 15 21.241 15h62.132c11.073 0 17.624-7.983 21.242-15zm120.401-102.48c6.818 7.511 14.207 23.233 19.226 39.102 12.096-12.933 33.205-40.624 33.205-76.363 0-44.543-23.31-122.902-30.702-146.63-13.862 5.319-45.331 23.387-45.331 77.763.001 55.525 20.324 99.414 23.602 106.128zm21.405-232.261c1.575 2.947 2.888 6.078 3.907 9.372l6.273 20.279c32.986-10.883 49.499-26.69 39.162-68.007-.521-2.081-2.129-2.557-3.042-2.654-.785-.084-2.728-.05-3.791 2.098-9.359 18.91-22.663 31.172-42.509 38.912zm-224.857-41.033c-.169 0-.318.011-.439.023-.913.098-2.521.573-3.042 2.654-10.336 41.316 6.176 57.124 39.162 68.007l6.273-20.28c1.019-3.293 2.332-6.424 3.907-9.371-19.846-7.74-33.15-20.001-42.509-38.911-.899-1.817-2.427-2.122-3.352-2.122zm163.744 333.997c-1.9 0-3.801-.718-5.262-2.156-2.949-2.903-2.988-7.646-.09-10.598 4.541-4.641 11.746-14.436 11.746-20.967 0-4.143 3.358-7.5 7.5-7.5s7.5 3.357 7.5 7.5c0 14.757-14.407 29.814-16.049 31.482-1.468 1.492-3.406 2.239-5.345 2.239zm-56.776-.002c-1.937 0-3.872-.746-5.338-2.236-1.643-1.668-16.049-16.726-16.049-31.482 0-4.143 3.358-7.5 7.5-7.5s7.5 3.357 7.5 7.5c0 6.531 7.205 16.326 11.746 20.967 2.894 2.957 2.851 7.703-.102 10.602-1.462 1.433-3.361 2.149-5.257 2.149zm110.606-128.271c-4.142 0-7.5-3.357-7.5-7.5v-29.768c0-4.143 3.358-7.5 7.5-7.5s7.5 3.357 7.5 7.5v29.768c0 4.143-3.358 7.5-7.5 7.5zm-164.43 0c-4.142 0-7.5-3.357-7.5-7.5v-29.768c0-4.143 3.358-7.5 7.5-7.5s7.5 3.357 7.5 7.5v29.768c0 4.143-3.358 7.5-7.5 7.5zm126.42-118.154c-17.161 0-38.745-13.047-48.137-25.232-2.528-3.28-1.919-7.99 1.362-10.519 3.28-2.528 7.991-1.918 10.519 1.362 7.682 9.966 25.301 19.389 36.256 19.389 4.142 0 7.5 3.357 7.5 7.5s-3.358 7.5-7.5 7.5zm-59 0c-17.161 0-38.745-13.047-48.137-25.232-2.528-3.28-1.919-7.99 1.362-10.519s7.99-1.918 10.519 1.362c7.682 9.966 25.301 19.389 36.256 19.389 4.142 0 7.5 3.357 7.5 7.5s-3.358 7.5-7.5 7.5z"/></g></g></svg>