<svg height="512" viewBox="0 0 128 128" width="512" xmlns="http://www.w3.org/2000/svg"><g><path d="m57.048 110.935h13.903v10.065h-13.903z" fill="#0af"/><circle cx="64" cy="27.09" fill="#fdcd00" r="7.826"/><path d="m110 110.935h-92l9.611-54.232h72.778z" fill="#4bb9ec"/><path d="m26.051 104.185h75.9l-7.221-40.732h-61.46z" fill="#e6f2ff"/><g><path d="m64 36.666a9.576 9.576 0 1 0 -9.576-9.576 9.587 9.587 0 0 0 9.576 9.576zm0-15.651a6.076 6.076 0 1 1 -6.076 6.075 6.082 6.082 0 0 1 6.076-6.075z"/><path d="m64 14.316a1.75 1.75 0 0 0 1.75-1.75v-5.566a1.75 1.75 0 0 0 -3.5 0v5.566a1.75 1.75 0 0 0 1.75 1.75z"/><path d="m74.27 18.57a1.746 1.746 0 0 0 1.237-.512l1.968-1.968a1.75 1.75 0 1 0 -2.475-2.475l-1.967 1.968a1.75 1.75 0 0 0 1.237 2.987z"/><path d="m52.492 36.122-1.968 1.969a1.75 1.75 0 0 0 2.476 2.474l1.968-1.965a1.75 1.75 0 0 0 -2.476-2.475z"/><path d="m73.033 36.122a1.75 1.75 0 0 0 0 2.475l1.967 1.968a1.75 1.75 0 0 0 2.476-2.474l-1.968-1.969a1.752 1.752 0 0 0 -2.475 0z"/><path d="m52.493 18.058a1.75 1.75 0 1 0 2.474-2.475l-1.967-1.968a1.75 1.75 0 1 0 -2.474 2.475z"/><path d="m62.25 41.613v5.567a1.75 1.75 0 1 0 3.5 0v-5.567a1.75 1.75 0 0 0 -3.5 0z"/><path d="m76.774 27.09a1.75 1.75 0 0 0 1.75 1.75h5.566a1.75 1.75 0 0 0 0-3.5h-5.566a1.75 1.75 0 0 0 -1.75 1.75z"/><path d="m43.91 28.84h5.566a1.75 1.75 0 0 0 0-3.5h-5.566a1.75 1.75 0 0 0 0 3.5z"/><path d="m111.723 110.629-6.151-34.707a1.75 1.75 0 1 0 -3.446.611l5.787 32.652h-87.826l2.039-11.5a1.75 1.75 0 1 0 -3.446-.612l-2.4 13.561a1.75 1.75 0 0 0 1.72 2.051h37.3v8.315a1.75 1.75 0 0 0 3.5 0v-8.315h10.4v8.315a1.75 1.75 0 0 0 3.5 0v-8.315h37.3a1.75 1.75 0 0 0 1.723-2.056z"/><path d="m24.178 76.076a1.786 1.786 0 0 0 .307.027 1.75 1.75 0 0 0 1.721-1.445l2.873-16.2h69.842l1.569 8.842a1.75 1.75 0 1 0 3.446-.612l-1.824-10.288a1.751 1.751 0 0 0 -1.723-1.444h-72.778a1.751 1.751 0 0 0 -1.723 1.444l-3.128 17.647a1.752 1.752 0 0 0 1.418 2.029z"/><path d="m21.709 90.005a1.789 1.789 0 0 0 .308.027 1.752 1.752 0 0 0 1.721-1.444l.784-4.427a1.75 1.75 0 0 0 -3.446-.611l-.785 4.427a1.749 1.749 0 0 0 1.418 2.028z"/><path d="m94.73 61.7h-61.46a1.751 1.751 0 0 0 -1.723 1.444l-7.219 40.732a1.75 1.75 0 0 0 1.723 2.056h75.9a1.75 1.75 0 0 0 1.723-2.056l-7.221-40.729a1.751 1.751 0 0 0 -1.723-1.447zm-62.399 17.08h13.189l-.893 10.077h-14.082zm16.7 0h13.219v10.077h-14.11zm13.217-3.5h-12.904l.892-10.08h12.014zm3.502-10.08h12.013l.893 10.077h-12.906zm-3.5 27.154v10.078h-15.313l.893-10.078zm3.5 0h14.42l.893 10.078h-15.313zm0-3.5v-10.074h13.217l.893 10.077zm16.73-10.074h13.189l1.786 10.077h-14.082zm12.569-3.5h-12.879l-.893-10.08h11.986zm-60.312-10.08h11.986l-.893 10.08h-12.879zm-4.812 27.157h14.392l-.893 10.078h-15.285zm54.651 10.078-.893-10.078h14.392l1.786 10.078z"/></g></g></svg>