<?xml version="1.0" encoding="UTF-8" standalone="no"?>
<!DOCTYPE svg PUBLIC "-//W3C//DTD SVG 1.1//EN" "http://www.w3.org/Graphics/SVG/1.1/DTD/svg11.dtd">
<!-- Created with Vectornator (http://vectornator.io/) -->
<svg height="100%" stroke-miterlimit="10" style="fill-rule:nonzero;clip-rule:evenodd;stroke-linecap:round;stroke-linejoin:round;" version="1.1" viewBox="0 0 1500 1200" width="100%" xml:space="preserve" xmlns="http://www.w3.org/2000/svg" xmlns:vectornator="http://vectornator.io" xmlns:xlink="http://www.w3.org/1999/xlink">
<defs/>
<g id="Untitled" vectornator:layerName="Untitled">
<path d="M962.673 988.572C1202.55 963.537 1394.73 921.378 1391.92 894.407C1389.1 867.437 1192.36 865.867 952.479 890.902C712.599 915.937 520.42 958.096 523.234 985.066C526.049 1012.04 722.792 1013.61 962.673 988.572Z" fill="#000000" fill-rule="nonzero" opacity="1" stroke="none"/>
<path d="M218.7 912.4C218.7 912.4 234.7 988.8 270.5 1019.1C293.9 1038.9 322.6 1049.2 347.4 1048.7C372.2 1048.2 579 1066.9 579 1066.9C579 1066.9 569.5 1005.5 561.3 1000.3C553.1 995.2 512.9 925.9 505.2 927.3C497.5 928.7 218.7 912.4 218.7 912.4Z" fill="#000000" fill-rule="nonzero" opacity="1" stroke="none"/>
<path d="M463.3 763.3C463.3 763.3 463.1 765.7 461.7 768.7C457.2 773.5 451.2 776.1 443.5 776C377.7 775.2 352.7 756.4 362 755.8C371.4 755.2 407.8 734.5 407.8 734.5L422.5 672.7L426.1 659.3C433.6 660.4 439.8 661.6 443.5 663C457.5 668.3 462.7 674.4 462.9 696.4C463.3 718.4 463.3 763.3 463.3 763.3Z" fill="#181818" fill-rule="nonzero" opacity="1" stroke="none"/>
<path d="M744.2 1106.6L545.2 1083.3C545.2 1083.3 513.4 1033.1 515.4 999.4C517.4 965.7 599.9 661.3 599.9 661.3L868.9 654.9L1301.2 580.7L1326.8 625L1322.7 677.8C1322.7 677.8 1333.2 677.6 1334.7 680.4C1336.2 683.1 1334.1 697.8 1334.1 697.8L1321.2 720.4L1273.6 894.2L1232.7 895.3C1216 894.7 1201.1 884.3 1194.9 868.8L1194 857.6L925.1 938L845.8 1009.5L744.2 1106.6Z" fill="#000000" fill-rule="nonzero" opacity="1" stroke="none"/>
<path d="M558 1126.3C804.871 1126.3 1005 1089.45 1005 1044C1005 998.547 804.871 961.7 558 961.7C311.129 961.7 111 998.547 111 1044C111 1089.45 311.129 1126.3 558 1126.3Z" fill="#000000" fill-rule="nonzero" opacity="1" stroke="none"/>
<path d="M882.199 953.824C906.686 861.014 865.714 769.73 790.686 749.936C715.659 730.141 634.987 789.331 610.5 882.141C586.014 974.951 626.986 1066.24 702.014 1086.03C777.041 1105.82 857.713 1046.63 882.199 953.824Z" fill="#181818" fill-rule="nonzero" opacity="1" stroke="none"/>
<path d="M1332.7 548.6L1322.6 677.9C1322.6 677.9 1320.6 633.4 1315.6 628.2C1310.6 622.9 1282.6 628.6 1278.1 631.4C1273.6 634.2 1219.3 752.2 1212.4 754.2L1214.7 755.1C1216 755.6 1217 756.6 1217.5 757.9L1219.7 763.6C1222.4 770.3 1222.3 777.8 1219.5 784.5L1217.6 789C1216.2 792.3 1213 794.6 1209.4 794.7L1195.2 795.2L937.2 895.2L937 899.6L934.299 900.4C932.499 900.9 930.5 900.4 929.2 899L902.099 871C902.099 871 902.199 806 890.799 765.2C879.399 724.4 866.4 701.4 853.4 699.3C840.4 697.2 706.7 713.8 685.9 739.3C666.8 762.7 600.7 902.9 589.9 925.9C588.9 928 588.4 929.1 588.4 929.1L589.7 932.4C590.3 933.9 590.2 935.7 589.4 937.1L542 1023.4C538.5 1029.8 532 1033.9 524.7 1034.4C502.1 1035.8 453.7 1038.7 443.7 1038.1C430.6 1037.4 355.2 1022.8 332 1011.5C332 1011.5 315.1 989.4 314.9 987.6C314.7 985.7 314.8 975.3 313.6 972C312.4 968.7 173.2 895.3 173.2 895.3L132.1 895.3C130.9 895.3 129.8 895 128.7 894.5C127.8 894.1 127 893.4 126.4 892.7C123.6 889.4 119.4 883.9 119.3 881.6C119.2 878.1 117.6 868.9 117.6 868.9L118 858.5C118 857.9 118.1 857.3 118.3 856.7C118.7 855 119.7 853.5 121.1 852.4L124.9 849.4C127.5 847.4 128.7 844 127.9 840.8L115.9 788.2L116.2 780.4L119 776.2C119 776.2 114.2 761 115.7 757.3C116.5 755.2 135.7 745.7 135.7 745.7C135.7 745.7 138.9 738.8 140.5 738.6C142.1 738.4 156.7 736 156.7 736L155.8 730.3L153.2 728.8C150.6 727.3 148.9 724.5 148.7 721.5C147.5 700.4 143.2 618.9 144.7 615.7C145.9 613.1 156.8 599.5 168.1 598L180.8 596.6L180.8 595.6L180.7 593.1C180.6 590.8 181.4 588.6 182.9 586.9C187.6 581.7 197.8 570.6 200.2 570.5C202.8 570.4 222.7 569.3 230 568.9C231.5 568.8 232.8 570 232.9 571.4L253.9 568.7L282.5 556.9C282.5 556.9 442.5 532.6 521.5 529.6L522.1 528.3L606.8 352.5C608.2 349.5 611 347.5 614.3 346.9L615.2 346.8C616.9 342.4 620.7 339.1 625.3 338.2C670 329.2 902.8 282.9 980.4 280.3C982.4 280.2 984.5 280.2 986.7 280.2C1074.7 280.2 1243.2 338.2 1243.2 338.2C1243.2 338.2 1263.8 335 1272.3 335.6C1277.9 336 1296.3 342.6 1305.4 346C1308.6 347.2 1310.8 350 1311.3 353.3L1312.5 362.5L1317 363.3L1317.1 363.3L1317.2 363.3C1319.4 363.7 1321.2 365.5 1321.6 367.8L1321.9 369.6C1322.5 372.7 1320.9 375.8 1318 377.2L1332.4 547C1332.4 547 1331.5 547.4 1331.5 548.1L1331.5 548.2C1331.7 548.5 1332.7 548.6 1332.7 548.6Z" fill="#181818" fill-rule="nonzero" opacity="1" stroke="none"/>
<path d="M296 920.4L155.4 853.1L140.6 795.4L284.9 852L296 920.4Z" fill="#000000" fill-rule="nonzero" opacity="1" stroke="none"/>
<path d="M333.5 928.2L322.8 867L448.2 885.7L464.8 971L450 982.3C450 982.3 409.3 979.8 406.1 978.6C402.9 977.4 355.8 967.1 355.2 966C354.6 964.9 333.5 928.2 333.5 928.2Z" fill="#000000" fill-rule="nonzero" opacity="1" stroke="none"/>
<path d="M463.3 763.3C463.3 763.3 463.1 765.7 461.7 768.7C459.5 773.5 454.5 779.8 442.9 779.4C424.2 778.7 372.5 768.8 372.5 768.8C372.5 768.8 351.1 768.6 351.3 747.7C351.5 726.8 354.1 671.6 354.1 671.6C354.1 671.6 354.7 655 366 654.9C374.3 654.8 405.2 656.4 426.4 659.4C433.9 660.5 440.1 661.7 443.8 663.1C457.8 668.4 463 674.5 463.2 696.5C463.3 718.4 463.3 763.3 463.3 763.3Z" fill="#000000" fill-rule="nonzero" opacity="1" stroke="none"/>
<path d="M291.4 837.8L253 823.8L248.5 829.9C248.5 829.9 262.6 839.5 289.5 847L291.4 837.8Z" fill="#242627" fill-rule="nonzero" opacity="1" stroke="none"/>
<path d="M296 920.4C296 920.4 158.3 859.9 155.4 853.1C152.5 846.3 138.5 776.5 138.5 776.5L136.2 770.5L123.5 780.6L143.8 852.6C143.8 852.6 229.6 899.3 297.1 926.3L296 920.4Z" fill="#000000" fill-rule="nonzero" opacity="1" stroke="none"/>
<path d="M474.4 784.3L473.8 800.8C473.8 800.8 455 807.9 446.2 806.9C437.4 805.9 353.8 791.8 353.8 791.8L353.5 778.4L364.8 776.4L448.3 788.5L474.4 784.3Z" fill="#0b0b0b" fill-rule="nonzero" opacity="1" stroke="none"/>
<path d="M937.2 895.2L1209.9 790.3L1211.3 782.5L935.9 885.1L937.2 895.2Z" fill="#626467" fill-rule="nonzero" opacity="1" stroke="none"/>
<path d="M524.4 674.5L523.5 698.6L1329.6 596.8L1330.6 585.8L524.4 674.5Z" fill="#000000" fill-rule="nonzero" opacity="1" stroke="none"/>
<path d="M860.395 947.487C880.472 871.391 846.877 796.546 785.36 780.316C723.843 764.086 657.698 812.616 637.621 888.712C617.545 964.807 651.139 1039.65 712.656 1055.88C774.174 1072.11 840.319 1023.58 860.395 947.487Z" fill="#000000" fill-rule="nonzero" opacity="1" stroke="none"/>
<path d="M536.5 681.6L536.1 692L1331.1 592.4L1331.3 587.6L536.5 681.6Z" fill="#121112" fill-rule="nonzero" opacity="1" stroke="none"/>
<path d="M957.6 458.9L956 531.8L936.2 540L957.6 458.9Z" fill="#000000" fill-rule="nonzero" opacity="1" stroke="none"/>
<path d="M1185.4 756.6L912.2 846.6L912.6 854.2L1185.3 760.3L1185.4 756.6Z" fill="#0b0b0b" fill-rule="nonzero" opacity="1" stroke="none"/>
<path d="M1240.1 629.8C1240.1 629.8 1244.7 621.9 1253 622.2L1267.4 622.7C1270.8 622.8 1273 626.4 1271.6 629.5C1259.2 655.8 1214.6 748.7 1210.1 752C1208 753.5 1185.4 760.2 1185.4 760.2L1183.5 746.8L1190.8 744.6L1240.1 629.8Z" fill="#242627" fill-rule="nonzero" opacity="1" stroke="none"/>
<path d="M910.9 830.5L1190.6 744.7L1183.9 739.6L909.5 821.4L910.9 830.5Z" fill="#242627" fill-rule="nonzero" opacity="1" stroke="none"/>
<path d="M1332.5 546.7C1332.5 546.7 1331.6 547.2 1331.6 547.8L1331.6 547.9L936.1 565.9L934.7 566L916.1 566.8C917.5 566.5 918.9 566 920.3 565.5L934.4 564.9L935.6 564.8L1332.5 546.7Z" fill="#242627" fill-rule="nonzero" opacity="1" stroke="none"/>
<path d="M999.4 300.3L931.4 558.3C931.4 558.3 920.8 568.1 910.7 567.2L911.2 554.3L883.5 533C883.5 533 594.2 519.2 521.5 529.5L606.9 352.3C608.3 349.3 611.1 347.3 614.4 346.7L615.3 346.6C617 342.2 620.8 338.9 625.4 338C670.1 329 902.9 282.7 980.5 280.1C982.5 280 984.6 280 986.8 280C995 283.6 1002.2 289.9 999.4 300.3Z" fill="#242627" fill-rule="nonzero" opacity="1" stroke="none"/>
<path d="M997.9 307.1L1310.5 381.1L1310.7 377L999.4 300.3L997.9 307.1Z" fill="#000000" fill-rule="nonzero" opacity="1" stroke="none"/>
<path d="M961 329L937 414.7L920 475.5C917.2 485.4 909.5 492.8 899.9 495.5C897.7 496.1 895.3 496.4 893 496.5L871.5 496.9L771.2 499L729.8 499.9L590.6 502.8L562 503.4C555 503.5 550.4 496.2 553.5 490L610.6 374.2C613 369.2 617.8 365.8 623.3 365L952.6 319.4C958.1 318.5 962.6 323.6 961 329Z" fill="#181818" fill-rule="nonzero" opacity="1" stroke="none"/>
<path d="M910.7 567.2L976.7 320C976.7 320 980.5 300.6 962.2 303.2C943.9 305.8 623.5 354.5 623.5 354.5C623.5 354.5 609.7 357.2 602.8 369.4C595.9 381.6 523.2 535.9 523.2 535.9" fill="none" opacity="1" stroke="#000000" stroke-linecap="butt" stroke-linejoin="miter" stroke-width="1.7072"/>
<path d="M736.2 394.7L729.8 499.8L590.6 502.7C586.9 499.2 578.9 491.6 581.8 483.4C584.9 474.7 618.8 400.5 628 380.6C629.3 377.7 632.4 376 635.6 376.4L731 388.3C734.1 388.7 736.4 391.5 736.2 394.7Z" fill="#393b3d" fill-rule="nonzero" opacity="1" stroke="none"/>
<path d="M871.6 496.9L771.2 499L774.8 400.5C774.9 397.1 777.9 394.5 781.3 394.9L866.4 405.5C869.9 405.9 872.6 408.9 872.5 412.4L872 458L871.6 496.9Z" fill="#393b3d" fill-rule="nonzero" opacity="1" stroke="none"/>
<path d="M937.1 414.7L920.1 475.5C917.3 485.4 909.6 492.8 900 495.5L901 415C901 412.4 903.3 410.4 905.9 410.8L937.1 414.7Z" fill="#393b3d" fill-rule="nonzero" opacity="1" stroke="none"/>
<path d="M874.6 496.9L767.8 499.1L768.3 484.9C782.8 477.4 799.2 476.3 799.2 476.3C799.2 476.3 779.1 469.7 778 454.6C776.9 439.6 786.4 429.2 791.3 427.2C795.3 425.6 819.3 425.4 828 425.4C830.3 425.4 832.6 426 834.7 427.1C852.4 436.5 857.3 457.5 857.3 457.5L874.7 458.1L874.6 496.9Z" fill="#181818" fill-rule="nonzero" opacity="1" stroke="none"/>
<path d="M1319.5 371C1317.8 374.6 1314.8 374.9 1303.9 372.3C1293 369.8 998.5 289.6 998.5 289.6L995.7 285.8L1304.2 370.9C1304.2 370.9 1316.4 374.6 1318.4 370.7C1319.5 368.5 1318.3 365.2 1317.2 363L1317.3 363L1317.4 363C1318.7 365.5 1320.4 369 1319.5 371Z" fill="#242627" fill-rule="nonzero" opacity="1" stroke="none"/>
<path d="M1252.3 340.7C1252.3 340.7 1271 338.2 1273.8 340.4C1276.5 342.6 1278.7 352.8 1281.5 354.9C1284.2 357 1312.7 362.2 1312.7 362.2C1312.7 362.2 1307.9 364.7 1306.8 364.9C1305.7 365.1 1279.4 359.5 1277.9 357.1C1276.4 354.8 1271.3 344 1261 341.9C1250.6 339.8 1252.3 340.7 1252.3 340.7Z" fill="#000000" fill-rule="nonzero" opacity="1" stroke="none"/>
<path d="M952.5 319.3L623.2 364.9C617.7 365.7 612.9 369.1 610.5 374.1L553.5 489.9C550.4 496.2 555.1 503.5 562 503.3L893.1 496.4C905.7 496.1 916.7 487.6 920.1 475.4L961 329C962.5 323.6 958.1 318.5 952.5 319.3Z" fill="none" opacity="1" stroke="#000000" stroke-linecap="butt" stroke-linejoin="miter" stroke-width="6.8288"/>
<path d="M893.9 730.1L1218.8 663.7L1216.8 658.2L888.6 722.9L893.9 730.1Z" fill="#242627" fill-rule="nonzero" opacity="1" stroke="none"/>
<path d="M1123 336.7C1123.3 340 1129.4 556.4 1129.4 556.4C1129.4 556.4 1132.7 558 1132.5 563.2C1132.3 568.4 1128.4 621 1128.4 621L1125.9 622.7L1122.8 676.3L1125.2 682.4L1120.4 706.8L1116.4 759.2" fill="none" opacity="1" stroke="#000000" stroke-linecap="butt" stroke-linejoin="miter" stroke-width="1.7072"/>
<path d="M1115.7 336.4C1116 339.7 1122.1 556.1 1122.1 556.1C1122.1 556.1 1125.4 557.7 1125.2 562.9C1125 568.1 1121.1 620.7 1121.1 620.7L1118.6 622.4L1115.2 678L1117.6 684.1L1106.1 762.8" fill="none" opacity="1" stroke="#000000" stroke-linecap="butt" stroke-linejoin="miter" stroke-width="1.7072"/>
<path d="M933.8 647.9L930 714.5L933 721.6L933 721.7L926.3 816.9L925.1 816.8L931.8 721.7L928.8 714.6L928.8 714.5L932.6 647.4L937.9 641.2L938.3 628.9L935.4 626.7L937.4 570.3L934.5 566L934.2 565.6L934.2 565.4C934.2 565.3 934.2 565.1 934.2 564.8C934.2 562.1 934.4 552.7 934.6 545.3L936 540C935.8 546.1 935.5 557.9 935.4 564.7C935.4 564.9 935.4 565 935.4 565.2L935.9 565.9L938.6 569.9L936.6 626L939.5 628.2L939 641.6L933.8 647.9Z" fill="#000000" fill-rule="nonzero" opacity="1" stroke="none"/>
<path d="M909.5 821.4L1183.8 739.6L1218.7 663.6L1216.8 658.2L1232.9 613.2L1236 594.5L1237.3 557.4C1237.3 557.4 1239.6 556.5 1239.6 555.5C1239.6 554.5 1239.3 552.5 1238 551L1229.2 360.2" fill="none" opacity="1" stroke="#000000" stroke-linecap="butt" stroke-linejoin="miter" stroke-width="1.7072"/>
<path d="M937.2 895.201L937 899.6L934.3 900.401C932.5 900.901 930.5 900.4 929.2 899L902.1 871C902.1 871 902.2 806 890.8 765.201C879.4 724.401 866.4 701.4 853.4 699.3C840.4 697.2 706.7 713.8 685.9 739.3C666.8 762.7 599.2 906.1 588.4 929.1L570 930.6C570 930.6 641.8 766.7 666.4 738.1C691 709.5 713.8 703.901 713.8 703.901C713.8 703.901 786.3 686.7 823.5 681.6C860.7 676.5 871.6 687.1 871.6 687.1C906.4 717.3 912.7 854.3 912.7 854.3L934.9 877.6L937.2 895.201Z" fill="#242627" fill-rule="nonzero" opacity="1" stroke="none"/>
<path d="M961.6 467.6L997 330.9C998.1 326.5 1002.5 323.8 1006.9 324.8L1103.1 344.8C1106.7 345.6 1109.4 348.7 1109.5 352.5L1113.1 518.5C1113.2 523.3 1109.3 527.2 1104.5 527L959.7 521.8L961.6 467.6Z" fill="none" opacity="1" stroke="#000000" stroke-linecap="butt" stroke-linejoin="miter" stroke-width="1.7072"/>
<path d="M831.3 669.7C833.7 669.5 671.7 687.3 644.3 702.4C617.8 717 606 739.3 590.4 767.9C574.9 796.5 562.5 828.2 556.6 833.6L548.3 833.3C548.3 833.3 576.7 777.9 584 764.9C603.6 730.4 619.5 703.7 641.4 697C665.4 689.6 706.9 678.9 831.3 669.7Z" fill="#242627" fill-rule="nonzero" opacity="1" stroke="none"/>
<path d="M964.7 468.3L1000.9 337.4C1002.1 333.1 1006.3 330.5 1010.7 331.4L1097.1 348.7C1100.9 349.5 1103.6 352.8 1103.5 356.7L1100.2 514.3C1100.1 518.9 1096.2 522.6 1091.6 522.4L962.9 517.7L964.7 468.3Z" fill="#000000" fill-rule="nonzero" opacity="1" stroke="none"/>
<path d="M1025.8 393.9L1032 502.5L1027 502.3L1025.8 393.9Z" fill="#ffffff" fill-rule="nonzero" opacity="0.1" stroke="none"/>
<path d="M1072.7 510.1C1072.6 511.8 1072.4 513.5 1072.2 515C1071.6 518.7 1070.4 521.8 1068.4 523.1C1068.3 523.2 1068.2 523.2 1068.1 523.3C1066.7 524.1 1060.4 524.7 1051.6 525.3L1051.5 525.3C1027.1 526.9 984.2 527.9 978 528L977.3 528L976.3 554.6C976.2 557.4 973.9 559.7 971.1 559.7C969 559.7 966.6 559.8 964.2 559.7C960.4 559.6 956.9 559.4 955.8 558.8C953.4 557.6 947.2 537.4 945.3 531C944.9 529.8 944.9 528.5 945.1 527.2L946.4 521L947 518.4C947.1 517.7 947.4 517.1 947.7 516.5C948.7 514.6 950.6 513.2 952.7 512.7L960 511.3L960.8 511.1L961.7 510.9C961.7 510.9 963.3 481.2 963.8 475C964.3 468.8 973.1 456.3 997.4 456.9C1015 457.3 1041.9 463 1055.6 466.1C1060.9 467.3 1065.2 471.4 1066.6 476.7C1068.2 482.5 1070.2 490 1071.3 495C1072 498.3 1072.5 502.4 1072.6 506.5C1072.6 506.9 1072.6 507.3 1072.6 507.7C1072.8 508.7 1072.7 509.4 1072.7 510.1Z" fill="#181818" fill-rule="nonzero" opacity="1" stroke="none"/>
<path d="M1072.7 510.1L947.7 516.7C948.7 514.8 950.6 513.4 952.7 512.9L960.9 511.3L1072.7 506.8C1072.8 507.9 1072.8 509 1072.7 510.1Z" fill="#242627" fill-rule="nonzero" opacity="1" stroke="none"/>
<path d="M1140.8 524.9L1131.5 355.6C1131.4 353.4 1133.4 351.6 1135.6 352.1L1217.3 369.7C1219.8 370.2 1221.6 372.4 1221.7 374.9L1228.7 520.9C1228.9 525 1225.6 528.5 1221.5 528.5L1144.5 528.4C1142.5 528.4 1140.9 526.8 1140.8 524.9Z" fill="none" opacity="1" stroke="#000000" stroke-linecap="butt" stroke-linejoin="miter" stroke-width="1.7072"/>
<path d="M1143.2 520.1L1134.9 361.7C1134.8 359.5 1136.8 357.7 1139 358.2L1212.6 374.1C1215.1 374.6 1216.9 376.8 1217 379.3L1222 516.6C1222.2 520.7 1218.8 524.1 1214.7 524.1L1146.7 523.5C1144.9 523.6 1143.3 522.1 1143.2 520.1Z" fill="#000000" fill-rule="nonzero" opacity="1" stroke="none"/>
<path d="M1246.9 525L1239.7 379.4C1239.6 377.5 1241.3 376 1243 376.4L1309.2 391.4C1311.2 391.9 1312.7 393.7 1312.8 395.8L1322.1 521.4C1322.3 524.9 1319.6 527.9 1316.2 527.9L1249.9 527.9C1248.3 528 1247 526.7 1246.9 525Z" fill="none" opacity="1" stroke="#000000" stroke-linecap="butt" stroke-linejoin="miter" stroke-width="1.7072"/>
<path d="M1248.8 520.5L1242.4 384.8C1242.3 382.9 1244 381.4 1245.7 381.8L1305.4 395.3C1307.4 395.8 1308.9 397.6 1309 399.8L1315.7 518C1315.8 521.5 1313.1 524.4 1309.8 524.4L1251.8 523.4C1250.2 523.5 1248.9 522.2 1248.8 520.5Z" fill="#000000" fill-rule="nonzero" opacity="1" stroke="none"/>
<path d="M934.8 877.6L1214.9 770.5L1209 770.3L927 869.3L934.8 877.6Z" fill="#626467" fill-rule="nonzero" opacity="1" stroke="none"/>
<path d="M1190.6 744.7C1190.6 744.7 1244.7 619.8 1245.7 618.9C1253.3 612.3 1288.8 609.3 1288.8 609.3C1288.8 609.3 1249.9 609.5 1243.4 618.1C1236.9 626.7 1187.9 742.7 1187.9 742.7L1190.6 744.7Z" fill="#242627" fill-rule="nonzero" opacity="1" stroke="none"/>
<path d="M911.7 840.4L1185.5 754.2L1183.3 746.9L910.9 830.5L911.7 840.4Z" fill="#0b0b0b" fill-rule="nonzero" opacity="1" stroke="none"/>
<path d="M1072.2 515C1071.6 518.7 1070.4 521.8 1068.4 523.1C1068.3 523.2 1068.2 523.2 1068.1 523.3C1066.7 524.1 1060.4 524.7 1051.6 525.3L1051.5 525.3C1027.1 526.9 984.2 527.9 978 528L977.3 528L976.3 554.6C976.2 557.4 973.9 559.7 971.1 559.7C969 559.7 966.6 559.8 964.2 559.7C960.4 559.6 956.9 559.4 955.8 558.8C953.4 557.6 947.2 537.4 945.3 531C944.9 529.8 944.9 528.5 945.1 527.2L946.4 521C979.8 519.2 1044.5 516.3 1072.2 515Z" fill="#000000" fill-rule="nonzero" opacity="1" stroke="none"/>
<path d="M883.2 536.5L907.1 555.8L906.7 566.5L913.3 572.4L891.8 632.1L895.4 635.1L891.3 647.5L884.4 648.4L871.5 687" fill="none" opacity="1" stroke="#000000" stroke-linecap="butt" stroke-linejoin="miter" stroke-width="1.7072"/>
<path d="M906.7 566.5L455.5 630.7L415.8 624L906.9 561.7L906.7 566.5Z" fill="#0b0b0b" fill-rule="nonzero" opacity="1" stroke="none"/>
<path d="M455.5 630.7L513.1 638.9L913.3 572.4L906.7 566.5L455.5 630.7Z" fill="#242627" fill-rule="nonzero" opacity="1" stroke="none"/>
<path d="M937.1 608.4C935.3 608.3 933.8 606.8 933.9 605L934.9 576.5C935 574.7 936.5 573.2 938.3 573.3C940.1 573.4 941.6 574.9 941.5 576.7L940.5 605.2C940.4 607 938.9 608.5 937.1 608.4Z" fill="#000000" fill-rule="nonzero" opacity="1" stroke="none"/>
<path d="M1130.1 595.6C1128.9 595.5 1128 594.4 1128 593.2L1129.9 568C1130 566.8 1131.1 565.9 1132.3 565.9C1133.5 566 1134.4 567.1 1134.4 568.3L1132.5 593.5C1132.4 594.8 1131.3 595.7 1130.1 595.6Z" fill="#000000" fill-rule="nonzero" opacity="1" stroke="none"/>
<path d="M1236.5 581.2C1235.3 581.2 1234.3 580.1 1234.4 578.9L1235 561.9C1235 560.7 1236.1 559.7 1237.3 559.8C1238.5 559.8 1239.5 560.9 1239.4 562.1L1238.8 579.1C1238.8 580.3 1237.7 581.2 1236.5 581.2Z" fill="#000000" fill-rule="nonzero" opacity="1" stroke="none"/>
<path d="M931.4 746.5C929.6 746.4 928.1 744.9 928.2 743.1L928.8 727.2C928.9 725.4 930.4 723.9 932.2 724C934 724.1 935.5 725.6 935.4 727.4L934.8 743.3C934.8 745.1 933.3 746.5 931.4 746.5Z" fill="#000000" fill-rule="nonzero" opacity="1" stroke="none"/>
<path d="M1121 704.9C1119.2 704.5 1118 702.8 1118.4 701L1121 688.1C1121.4 686.3 1123.1 685.1 1124.9 685.5C1126.7 685.9 1127.9 687.6 1127.5 689.4L1124.9 702.3C1124.6 704.1 1122.8 705.3 1121 704.9Z" fill="#000000" fill-rule="nonzero" opacity="1" stroke="none"/>
<path d="M1092.1 607.5L1090.1 623.9C1089.8 626.8 1092.2 629.2 1095 628.9L1100.5 628.3C1102.5 628.1 1104.1 626.5 1104.4 624.5L1106.8 608.3C1107.2 605.5 1104.9 602.9 1102 603.2L1096.1 603.7C1094 603.7 1092.3 605.4 1092.1 607.5Z" fill="#000000" fill-rule="nonzero" opacity="1" stroke="none"/>
<path d="M931.6 634.9L931.3 642.4L903.8 646C903.8 646 904.3 638.1 906.2 637.9C908.2 637.6 931.6 634.9 931.6 634.9Z" fill="#626467" fill-rule="nonzero" opacity="1" stroke="none"/>
<path d="M1124.1 615.5L1123.9 622.1C1123.9 623.2 1123 624.1 1122 624.2L1092.8 628.1C1092.4 628.1 1092 628.1 1091.7 628L1087 626.2C1086.1 625.9 1085.5 625 1085.6 624L1085.9 615.3C1085.9 615.2 1085.9 615 1085.9 614.9C1086.1 613.7 1087.3 612.9 1088.6 613.2L1093.6 614.3C1093.9 614.4 1094.1 614.4 1094.4 614.3L1119.8 611.3C1122.1 611.2 1124.2 613.1 1124.1 615.5Z" fill="#181818" fill-rule="nonzero" opacity="1" stroke="none"/>
<path d="M1121.7 613.8L1093.7 618.1L1085.9 615.8L1085.9 615.3C1085.9 615.2 1085.9 615 1085.9 614.9C1089 615.7 1093.7 617 1093.7 617L1121.7 613.8Z" fill="#000000" fill-rule="nonzero" opacity="1" stroke="none"/>
<path d="M1119.1 621.6C1117.9 621.6 1116.9 620.5 1116.9 619.3L1116.9 618C1116.9 616.8 1118 615.8 1119.2 615.8C1120.4 615.8 1121.4 616.9 1121.4 618.1L1121.4 619.4C1121.4 620.7 1120.4 621.7 1119.1 621.6Z" fill="#626467" fill-rule="nonzero" opacity="1" stroke="none"/>
<path d="M1217 595.5L1215.6 608.3C1215.4 610.5 1217 612.4 1219 612.2L1222.7 611.7C1224.1 611.5 1225.2 610.3 1225.4 608.7L1227.1 596.1C1227.4 593.9 1225.8 591.9 1223.8 592.1L1219.7 592.5C1218.3 592.6 1217.1 593.9 1217 595.5Z" fill="#000000" fill-rule="nonzero" opacity="1" stroke="none"/>
<path d="M1238.9 600.5L1238.7 605C1238.7 605.8 1238.1 606.4 1237.4 606.5L1217.4 609.2C1217.2 609.2 1216.9 609.2 1216.6 609.1L1213.4 607.9C1212.8 607.7 1212.4 607.1 1212.4 606.4L1212.6 600.5C1212.6 600.4 1212.6 600.3 1212.6 600.2C1212.8 599.4 1213.6 598.8 1214.4 599L1217.8 599.8C1218 599.8 1218.1 599.9 1218.3 599.8L1235.7 597.8C1237.6 597.6 1239 598.9 1238.9 600.5Z" fill="#181818" fill-rule="nonzero" opacity="1" stroke="none"/>
<path d="M1237.2 599.4L1218 602.4L1212.7 600.9L1212.7 600.6C1212.7 600.5 1212.7 600.4 1212.7 600.3C1214.8 600.9 1218.1 601.7 1218.1 601.7L1237.2 599.4Z" fill="#000000" fill-rule="nonzero" opacity="1" stroke="none"/>
<path d="M1235.5 604.7C1234.6 604.7 1234 603.9 1234 603.1L1234 602.2C1234 601.3 1234.8 600.7 1235.6 600.7C1236.5 600.7 1237.1 601.5 1237.1 602.3L1237.1 603.2C1237.1 604.1 1236.3 604.8 1235.5 604.7Z" fill="#626467" fill-rule="nonzero" opacity="1" stroke="none"/>
<path d="M816.7 599.8L809.5 629.1C808.8 632 811.2 634.7 814.2 634.3L874 625.8C877.2 625.3 879.8 623.1 880.9 620.1L891.2 589.6C892.3 586.2 889.5 582.9 886 583.4L822.9 594.1C819.8 594.7 817.4 596.9 816.7 599.8Z" fill="#000000" fill-rule="nonzero" opacity="1" stroke="none"/>
<path d="M817.5 600.5L810.6 628.3C809.9 631.1 812.2 633.6 815 633.2L871.7 625.1C874.7 624.7 877.2 622.6 878.2 619.7L888 590.8C889.1 587.6 886.4 584.4 883 585L823.3 595C820.5 595.5 818.2 597.7 817.5 600.5Z" fill="#242627" fill-rule="nonzero" opacity="1" stroke="none"/>
<path d="M819 604.2L813.8 624.7C813.2 627.2 815.3 629.6 817.9 629.2L871 620.8C873.8 620.4 876.1 618.5 877 615.8L884.1 595.2C885.1 592.2 882.6 589.3 879.5 589.8L824.3 599.1C821.7 599.7 819.6 601.7 819 604.2Z" fill="#000000" fill-rule="nonzero" opacity="1" stroke="none"/>
<path d="M817.3 606.5L884.3 596L885.2 594.3L817.3 604.8L817.3 606.5Z" fill="#242627" fill-rule="nonzero" opacity="1" stroke="none"/>
<path d="M815.6 613.3L882.6 602.8L883.5 601L815.7 611.6L815.6 613.3Z" fill="#242627" fill-rule="nonzero" opacity="1" stroke="none"/>
<path d="M814.5 619.3L881.5 608.8L882.4 607L814.5 617.5L814.5 619.3Z" fill="#242627" fill-rule="nonzero" opacity="1" stroke="none"/>
<path d="M812.6 625.9L878.4 615.6L879.3 613.8L812.7 624.1L812.6 625.9Z" fill="#242627" fill-rule="nonzero" opacity="1" stroke="none"/>
<path d="M733.8 699.2C733.8 699.2 682.3 714.4 633.5 709.3L612.4 719.8L556.7 833.5L561.4 836.6L562.5 850L573.5 857.9L573.2 865.9L550.6 931L569.9 930.4L681.5 741.1L733.8 699.2Z" fill="#242627" fill-rule="nonzero" opacity="1" stroke="none"/>
<path d="M561.4 836.7C561.4 836.7 485.4 846.8 464.6 845C443.7 843.2 338.2 825.7 338.2 825.7L330.3 836.9C330.3 836.9 439 856.9 463.6 857.3C488.2 857.7 562.5 850.2 562.5 850.2L561.4 836.7Z" fill="#242627" fill-rule="nonzero" opacity="1" stroke="none"/>
<path d="M299.8 850.2C299.8 850.2 426.4 879.1 462.9 877.2C499.4 875.3 573.2 866.2 573.2 866.2L573.5 858.2C573.5 858.2 470.1 870 463.2 869.2C456.3 868.4 340.4 853.9 316 845L330.2 836.9L338.1 825.7L299.8 850.2Z" fill="#242627" fill-rule="nonzero" opacity="1" stroke="none"/>
<path d="M588.4 929.1L590 933.7C590 933.7 528 941.5 487.2 939.6C487.2 939.6 495.6 931.1 553 924.4L552.3 929.9L588.4 929.1Z" fill="#242627" fill-rule="nonzero" opacity="1" stroke="none"/>
<path d="M900.2 531.1L388.5 591.1L201.2 578.8L183 591.8L182.8 597.7L180.7 595.6L180.6 593.1C180.5 590.8 181.3 588.6 182.8 586.9C187.5 581.7 197.7 570.6 200.1 570.5C202.7 570.4 222.6 569.3 229.9 568.9C231.4 568.8 232.7 570 232.8 571.4L253.8 568.7L282.4 556.9C282.4 556.9 442.4 532.6 521.4 529.6L522 528.3L526.4 529C578.5 525 900.2 531.1 900.2 531.1Z" fill="#242627" fill-rule="nonzero" opacity="1" stroke="none"/>
<path d="M350.7 584.2L399.2 563.7L642.5 539.3L399.6 580.9L350.7 584.2Z" fill="#181818" fill-rule="nonzero" opacity="1" stroke="none"/>
<path d="M388.5 591.1L378.1 612.3L183.1 591.9L201.3 578.8L388.5 591.1Z" fill="#000000" fill-rule="nonzero" opacity="1" stroke="none"/>
<path d="M183.1 591.9L182.6 605.2L378.3 627.9L378.1 612.3L183.1 591.9Z" fill="#000000" fill-rule="nonzero" opacity="1" stroke="none"/>
<path d="M378.1 612.3L906.9 561.7L455.5 630.7L406.7 623.3L378.3 627.9L378.1 612.3Z" fill="#000000" fill-rule="nonzero" opacity="1" stroke="none"/>
<path d="M303.759 575.033C309.776 572.834 314.039 569.369 313.281 567.294C312.522 565.219 307.03 565.32 301.013 567.52C294.996 569.719 290.733 573.184 291.491 575.259C292.25 577.334 297.742 577.233 303.759 575.033Z" fill="#0b0b0b" fill-rule="nonzero" opacity="1" stroke="none"/>
<path d="M303.359 573.749C308.858 571.739 312.746 568.554 312.045 566.635C311.343 564.715 306.317 564.789 300.819 566.799C295.321 568.808 291.432 571.993 292.133 573.913C292.835 575.832 297.861 575.758 303.359 573.749Z" fill="#181818" fill-rule="nonzero" opacity="1" stroke="none"/>
<path d="M459.812 711.726C460.812 684.076 449.678 661.229 434.943 660.695C420.207 660.162 407.45 682.144 406.449 709.794C405.448 737.445 416.582 760.292 431.318 760.825C446.054 761.359 458.811 739.376 459.812 711.726Z" fill="#242627" fill-rule="nonzero" opacity="1" stroke="none"/>
<path d="M459.842 711.495C460.751 686.384 450.661 665.635 437.305 665.152C423.949 664.669 412.385 684.633 411.476 709.745C410.567 734.856 420.657 755.605 434.013 756.088C447.369 756.572 458.933 736.607 459.842 711.495Z" fill="#626467" fill-rule="nonzero" opacity="1" stroke="none"/>
<path d="M445.873 709.9C446.303 698.034 442.445 688.263 437.257 688.075C432.07 687.887 427.516 697.354 427.086 709.22C426.657 721.086 430.514 730.857 435.702 731.045C440.89 731.233 445.444 721.766 445.873 709.9Z" fill="#242627" fill-rule="nonzero" opacity="1" stroke="none"/>
<path d="M445.828 710.494C446.197 700.284 442.873 691.876 438.402 691.714C433.932 691.553 430.008 699.698 429.639 709.908C429.269 720.119 432.594 728.527 437.064 728.689C441.534 728.85 445.458 720.705 445.828 710.494Z" fill="#626467" fill-rule="nonzero" opacity="1" stroke="none"/>
<path d="M169 742.7L202.3 757.3C218.8 764.6 235.9 770.6 253.3 775.3L352.3 802C352.3 802 433.2 823 472.7 819.2C512.2 815.4 510 778.4 510 778.4L513.1 638.8L406.6 623.2C406.6 623.2 387 624.6 378.3 627.8C378.3 627.8 351.3 636.3 348.4 645.6C345.5 654.9 346.8 800.2 346.8 800.2" fill="none" opacity="1" stroke="#000000" stroke-linecap="butt" stroke-linejoin="miter" stroke-width="1.7072"/>
<path d="M232.9 737.7C223.7 735.9 215.5 718.3 214.1 696.5C212.7 674.7 218.6 656.3 227.5 653.3C236.7 655.1 244.9 672.7 246.3 694.5C247.7 716.3 241.8 734.8 232.9 737.7Z" fill="#0b0b0b" fill-rule="nonzero" opacity="1" stroke="none"/>
<path d="M509.6 751.4L598.2 740.7" fill="none" opacity="1" stroke="#000000" stroke-linecap="butt" stroke-linejoin="miter" stroke-width="1.7072"/>
<path d="M334.4 765.4C334.4 769.2 331.4 772.2 327.6 772.1C252.8 770.7 190.5 736.1 172.1 724.8C168.3 722.5 165.5 718.7 164.5 714.4C159.5 693.5 157.3 650.4 156.6 633.3C156.5 629.3 159.8 626.1 163.8 626.5C198.3 629.6 293.9 646.4 324 651.8C329.3 652.8 333.3 657.4 333.3 662.8L333.3 665.8L333.5 681.1L333.8 704.7L333.8 706.9L334 721.9L334.2 742.1L334.4 757.3L334.4 765.4Z" fill="#000000" fill-rule="nonzero" opacity="1" stroke="none"/>
<path d="M333.9 721.9C266.5 712.5 161.6 681.3 161.6 681.3C162.6 672.7 164.8 670 164.8 670C209.7 684.4 294.1 698.5 333.7 704.7L333.7 706.9L333.9 721.9Z" fill="#626467" fill-rule="nonzero" opacity="1" stroke="none"/>
<path d="M334.3 757.3C257.3 752.5 168.1 713.1 168.1 713.1C166.3 706.7 170.5 701.3 170.5 701.3C215.3 722.3 309.4 738.2 334.1 742.2L334.3 757.3Z" fill="#626467" fill-rule="nonzero" opacity="1" stroke="none"/>
<path d="M333.5 681.1C261 675.2 159.6 649 159.6 649C158.3 641.3 162 638.9 162 638.9L333.4 665.8L333.5 681.1Z" fill="#626467" fill-rule="nonzero" opacity="1" stroke="none"/>
<path d="M225.4 734.7L229.8 738.1L234.3 739.2L242.4 732.9L250.2 712.7C250.2 712.7 253.1 692.9 250.9 693.4C248.7 693.9 247.7 675 247.6 674.4C247.4 673.8 242.4 662.7 242.4 662.7L236.3 654.6L229.5 651.5L225.1 652L219.2 658.9L214.7 668.5L212.2 679.3C212.2 679.3 210.9 693.6 211.1 693.7C211.3 693.8 214.5 708.2 214.5 708.2L214.1 719.4L225.4 734.7Z" fill="#000000" fill-rule="nonzero" opacity="1" stroke="none"/>
<path d="M225.1 652.1L220.9 697.1L246.9 721.5L247.8 716.3L229.5 694.4L229.5 651.6L225.1 652.1Z" fill="#626467" fill-rule="nonzero" opacity="1" stroke="none"/>
<path d="M220.9 697.1L214.4 708.1C214.4 708.1 215.2 714.8 215.6 714.7C216 714.6 227.9 703.6 227.9 703.6L220.9 697.1Z" fill="#242627" fill-rule="nonzero" opacity="1" stroke="none"/>
<path d="M234.1 738.4C233.6 738.5 233.1 738.6 232.6 738.6C220.9 739.3 210.3 720.3 209 696.1C207.7 671.9 216.1 651.7 227.9 651C229.1 650.9 230.3 651.1 231.5 651.4C220.5 653.6 212.8 673.1 214.1 696.3C215.2 718 223.8 735.5 234.1 738.4Z" fill="#626467" fill-rule="nonzero" opacity="1" stroke="none"/>
<path d="M234.3 739.2C232.5 739.3 230.8 738.9 229 738.2C229.3 738.2 229.5 738.2 229.8 738.2C241.5 737.5 250 717.7 248.7 693.9C247.4 670.1 236.8 651.4 225.1 652.1C224.3 652.2 223.4 652.3 222.6 652.6C224.7 650.9 227 649.9 229.4 649.8C241.1 649.1 251.8 668.6 253.1 693.3C254.4 717.9 246 738.5 234.3 739.2Z" fill="#242627" fill-rule="nonzero" opacity="1" stroke="none"/>
<path d="M338.2 825.7L307.6 845.2C302.9 848.2 300.4 853.8 301.3 859.3L313.4 933.4L297 926.4L284.9 852C284 846.4 286.5 840.8 291.4 837.8L320.2 819.9L338.2 825.7Z" fill="#626467" fill-rule="nonzero" opacity="1" stroke="none"/>
<path d="M168.9 763.6L138.6 781.1C133.9 783.8 131.5 788.8 132.5 793.7L145.7 859.3L129.2 853.2L116 787.4C115 782.4 117.5 777.4 122.3 774.8L150.8 758.8L168.9 763.6Z" fill="#626467" fill-rule="nonzero" opacity="1" stroke="none"/>
<path d="M147.5 629.3L151.4 637.2C151.7 637.8 151.8 638.4 151.9 639C152.2 646.5 154.4 696.5 157.7 714.7C157.9 715.7 156.5 716.3 155.9 715.5L150.6 708.7C149.8 707.6 149.3 706.4 149.3 705L146.1 629.6C146.1 628.9 147.2 628.6 147.5 629.3Z" fill="#000000" fill-rule="nonzero" opacity="1" stroke="none"/>
<path d="M352 767.8C352 767.8 443.5 783.6 474.5 784.3C474.5 784.3 463.8 794.4 448.3 792.2C432.8 790 353.6 778.4 353.6 778.4L352 767.8Z" fill="#242627" fill-rule="nonzero" opacity="1" stroke="none"/>
<path d="M359.3 779.3L451.6 792.5L451.2 804.1L358.9 790L359.3 779.3Z" fill="#626467" fill-rule="nonzero" opacity="1" stroke="none"/>
<path d="M250.1 873.8L150.3 829.3C146.5 827.7 143.9 824.2 143.4 820.2L138.4 776.5C137.8 771.7 142.5 768 147 769.7L246.9 805.5C254.4 807.9 254.6 812.9 254.6 813.5L258.8 867.4C259.3 872.2 254.5 875.7 250.1 873.8Z" fill="#0b0b0b" fill-rule="nonzero" opacity="1" stroke="none"/>
<path d="M242 865.3L147.5 825.6C143.7 824 141.1 820.5 140.6 816.5L136 778.6C135.4 773.8 140.1 770.1 144.6 771.8L239 806.9C246.5 809.3 246.7 814.3 246.7 814.9L250.7 858.9C251.2 863.6 246.4 867.2 242 865.3Z" fill="#242627" fill-rule="nonzero" opacity="1" stroke="none"/>
<path d="M239.9 862.6L145.9 823.5C143 822.3 141 819.7 140.7 816.6L136 777.9C135.6 774.6 138.9 772 142 773.3L236.4 810.1C239.3 811.2 241.3 813.9 241.6 816.9L246 858.2C246.3 861.4 243 863.9 239.9 862.6Z" fill="#626467" fill-rule="nonzero" opacity="1" stroke="none"/>
<path d="M289.7 896.8C289.1 902.9 286.8 907.4 283.1 908.2C277.3 909.5 270.5 901.3 267.9 889.9C265.3 878.4 267.8 868.1 273.6 866.8C277.3 866 281.3 868.9 284.5 874.2C286.3 877.2 287.9 881 288.8 885.2C289.7 889.3 290 893.3 289.7 896.8Z" fill="#181818" fill-rule="nonzero" opacity="1" stroke="none"/>
<path d="M289.7 896.8C287.9 893.8 286.3 890 285.4 885.9C284.4 881.7 284.2 877.7 284.5 874.2C286.3 877.2 287.9 881 288.8 885.2C289.7 889.3 290 893.3 289.7 896.8Z" fill="#626467" fill-rule="nonzero" opacity="1" stroke="none"/>
<path d="M321.9 933.7L333.5 928.2C333.5 928.2 341.7 951.6 360.2 958.7C378.7 965.8 426.7 976.7 450.3 974.8C450.3 974.8 461.1 970.9 461.3 965.5C461.5 960.1 448.2 885.7 448.2 885.7L339.8 869L453.6 884.3L469.5 968C470.8 974.8 468.9 981.9 464.3 987.1C460.9 991 456.3 993.6 451.2 994.4C449.1 994.7 446.8 994.8 444.3 994.5C437.2 993.6 387 983.5 361.4 978.3C351.9 976.4 343.7 970.5 338.7 962.1L321.9 933.7Z" fill="#242627" fill-rule="nonzero" opacity="1" stroke="none"/>
<path d="M315.3 823C315.3 823 225.2 797.7 192.1 785.9C192.1 785.9 277.2 822.3 307.5 827.8L315.3 823Z" fill="#242627" fill-rule="nonzero" opacity="1" stroke="none"/>
<path d="M343.8 815.6C343.8 815.6 224.3 782.2 183.6 762.2L193 759.3C193 759.3 329.3 808.1 353.4 811.8L343.8 815.6Z" fill="#242627" fill-rule="nonzero" opacity="1" stroke="none"/>
<path d="M313.6 972C313.6 972 409.4 1000.4 454.5 1004.5C499.6 1008.6 441 1016 434.8 1015C428.6 1014 314.9 987.6 314.9 987.6L313.6 972Z" fill="#242627" fill-rule="nonzero" opacity="1" stroke="none"/>
<path d="M349.8 1001.3L350.2 1009.8C350.2 1010.5 349.5 1011 348.8 1010.8L338.1 1008.3L337.7 1008.2C337 1008 336.4 1007.4 336.4 1006.7C336.4 1006.7 336.1 1002.3 335.9 998.2C335.8 997.3 337.6 997.8 337.6 997.8L349 1000.3C349.4 1000.4 349.8 1000.8 349.8 1001.3Z" fill="#242627" fill-rule="nonzero" opacity="1" stroke="none"/>
<path d="M349.8 1001.3L350.2 1009.7C350.2 1010.4 349.5 1010.9 348.8 1010.7L338.1 1008.3L337.5 997.8L348.8 1000.3C349.4 1000.4 349.8 1000.8 349.8 1001.3Z" fill="#626467" fill-rule="nonzero" opacity="1" stroke="none"/>
<path d="M366.6 1005L366.9 1013.6C366.9 1014.3 366.2 1014.8 365.4 1014.6L354.3 1012.1L353.8 1012C353 1011.8 352.5 1011.2 352.5 1010.5C352.5 1010.5 352.3 1006 352.1 1001.9C352.1 1001 353.9 1001.5 353.9 1001.5L365.7 1004.1C366.3 1004.2 366.6 1004.6 366.6 1005Z" fill="#242627" fill-rule="nonzero" opacity="1" stroke="none"/>
<path d="M366.6 1005.1L366.9 1013.6C366.9 1014.3 366.2 1014.8 365.4 1014.6L354.4 1012.1L353.9 1001.5L365.6 1004.1C366.2 1004.2 366.6 1004.6 366.6 1005.1Z" fill="#626467" fill-rule="nonzero" opacity="1" stroke="none"/>
<path d="M384.1 1009L384.3 1017.8C384.3 1018.5 383.5 1019 382.8 1018.8L371.3 1016.2L370.8 1016.1C370 1015.9 369.4 1015.3 369.4 1014.6C369.4 1014.6 369.2 1010.1 369.1 1005.8C369.1 1004.9 370.9 1005.4 370.9 1005.4L383.2 1008.1C383.7 1008.2 384.1 1008.6 384.1 1009Z" fill="#242627" fill-rule="nonzero" opacity="1" stroke="none"/>
<path d="M384.1 1009.1L384.3 1017.7C384.3 1018.4 383.5 1018.9 382.7 1018.7L371.3 1016.1L371 1005.3L383.2 1008C383.7 1008.2 384.1 1008.6 384.1 1009.1Z" fill="#626467" fill-rule="nonzero" opacity="1" stroke="none"/>
<path d="M402.2 1013.1L402.3 1022C402.3 1022.7 401.5 1023.2 400.7 1023L388.8 1020.3L388.3 1020.2C387.5 1020 386.9 1019.4 386.9 1018.7C386.9 1018.7 386.8 1014.1 386.7 1009.8C386.7 1008.9 388.6 1009.4 388.6 1009.4L401.3 1012.2C401.8 1012.2 402.2 1012.6 402.2 1013.1Z" fill="#242627" fill-rule="nonzero" opacity="1" stroke="none"/>
<path d="M402.2 1013.2L402.3 1022C402.3 1022.7 401.5 1023.2 400.6 1023.1L388.7 1020.4L388.5 1009.4L401.1 1012.2C401.8 1012.2 402.2 1012.7 402.2 1013.2Z" fill="#626467" fill-rule="nonzero" opacity="1" stroke="none"/>
<path d="M421 1017.4L420.9 1026.4C420.9 1027.1 420 1027.6 419.2 1027.4L406.8 1024.6L406.3 1024.5C405.4 1024.3 404.9 1023.7 404.8 1022.9C404.8 1022.9 404.7 1018.2 404.7 1013.9C404.7 1013 406.7 1013.5 406.7 1013.5L419.9 1016.4C420.7 1016.5 421 1016.9 421 1017.4Z" fill="#242627" fill-rule="nonzero" opacity="1" stroke="none"/>
<path d="M421 1017.5L420.9 1026.4C420.9 1027.1 420 1027.7 419.2 1027.5L406.9 1024.7L406.9 1013.6L420 1016.5C420.6 1016.5 421 1017 421 1017.5Z" fill="#626467" fill-rule="nonzero" opacity="1" stroke="none"/>
<path d="M440.6 1021.8L440.4 1031C440.4 1031.7 439.5 1032.2 438.6 1032L425.7 1029L425.2 1028.9C424.3 1028.7 423.7 1028 423.7 1027.3C423.7 1027.3 423.7 1022.6 423.8 1018.1C423.8 1017.2 425.9 1017.7 425.9 1017.7L439.7 1020.7C440.2 1020.9 440.6 1021.3 440.6 1021.8Z" fill="#242627" fill-rule="nonzero" opacity="1" stroke="none"/>
<path d="M440.6 1021.9L440.4 1030.9C440.4 1031.6 439.5 1032.2 438.6 1032L425.8 1029.1L425.9 1017.8L439.5 1020.8C440.2 1020.9 440.6 1021.4 440.6 1021.9Z" fill="#626467" fill-rule="nonzero" opacity="1" stroke="none"/>
<path d="M536.5 681.6L524.4 674.5L523.5 698.6L536.1 692L536.5 681.6Z" fill="#242627" fill-rule="nonzero" opacity="1" stroke="none"/>
<path d="M925.7 510.9L533 515.2" fill="none" opacity="1" stroke="#000000" stroke-linecap="butt" stroke-linejoin="miter" stroke-width="1.7072"/>
<path d="M715.1 492.7L762.3 370.1L721.5 492.9L715.1 492.7Z" fill="#ffffff" fill-rule="nonzero" opacity="0.3" stroke="none"/>
<path d="M735.5 492.4L766.6 410.1L731.9 492.5L735.5 492.4Z" fill="#ffffff" fill-rule="nonzero" opacity="0.3" stroke="none"/>
<path d="M776.4 483.5L723.2 479.4C723.2 479.4 678.9 487.7 668.2 495.2L669 496.5C669 496.5 717.7 484.1 727.1 484.5C736.5 485 776.4 485.5 776.4 485.5L776.4 483.5Z" fill="#0b0b0b" fill-rule="nonzero" opacity="1" stroke="none"/>
<path d="M795.8 510.2L723.1 478.9C723.1 478.9 707.5 481.1 705.6 482.6L706.6 485.9C706.6 485.9 720.1 482.6 722.8 483.5C725.4 484.4 789.9 517.8 789.9 517.8C789.9 517.8 793.1 519.3 795.6 516.1C798.1 513 795.8 510.2 795.8 510.2Z" fill="#181818" fill-rule="nonzero" opacity="1" stroke="none"/>
<path d="M645.4 482.4L602.5 478.6C602.5 478.6 566.7 487.7 558 495.7L558.6 497C558.6 497 598 483.5 605.6 483.9C613.2 484.3 645.4 484.5 645.4 484.5L645.4 482.4Z" fill="#0b0b0b" fill-rule="nonzero" opacity="1" stroke="none"/>
<path d="M654.8 511.2L597.3 480.6C596.5 480.2 595.6 480.1 594.8 480.3C591.7 481.1 584 483.1 582.8 484.4L583.9 487.6C583.9 487.6 595.2 483.5 597.3 484.4C599.4 485.3 650 519.3 650 519.3C650 519.3 652.5 520.8 654.6 517.5C656.6 514.2 654.8 511.2 654.8 511.2Z" fill="#181818" fill-rule="nonzero" opacity="1" stroke="none"/>
<path d="M133.2 852.3L319.5 941.6C319.5 941.6 335 971.3 342.7 976.8C350.3 982.3 437.1 1000.1 449.4 999.4C449.4 999.4 461.6 1002.2 481.8 971.1" fill="none" opacity="1" stroke="#000000" stroke-linecap="butt" stroke-linejoin="miter" stroke-width="1.7072"/>
<path d="M666.1 367.7L672.8 366.9L622.7 467L666.1 367.7Z" fill="#ffffff" fill-rule="nonzero" opacity="0.3" stroke="none"/>
<path d="M1037.8 343.1L1044.2 344.1L1044.8 439L1037.8 343.1Z" fill="#ffffff" fill-rule="nonzero" opacity="0.1" stroke="none"/>
<path d="M1167.9 383.9L1177.2 517.8L1180.8 517.9L1167.9 383.9Z" fill="#ffffff" fill-rule="nonzero" opacity="0.1" stroke="none"/>
<path d="M1196.7 378.5L1201.3 451L1200.3 378.6L1196.7 378.5Z" fill="#ffffff" fill-rule="nonzero" opacity="0.1" stroke="none"/>
<path d="M1264.6 390.1L1270.3 476.9L1268.5 391.1L1264.6 390.1Z" fill="#ffffff" fill-rule="nonzero" opacity="0.1" stroke="none"/>
<path d="M857.196 946.765C876.441 873.82 844.207 802.066 785.2 786.498C726.192 770.93 662.756 817.443 643.511 890.388C624.265 963.333 656.499 1035.09 715.507 1050.66C774.514 1066.22 837.95 1019.71 857.196 946.765Z" fill="#242627" fill-rule="nonzero" opacity="1" stroke="none"/>
<path d="M823 938.3C806.5 1001 752 1040.9 701.3 1027.6C650.6 1014.2 642.2 946.3 656.4 892.4C672.8 829.7 716.6 790.3 761.2 800.7C812.2 812.4 839.5 875.6 823 938.3Z" fill="#000000" fill-rule="nonzero" opacity="1" stroke="none"/>
<path d="M853.9 895.8C852.1 855.3 833.6 819.6 803 802.5C799.5 800.5 795.8 798.8 792 797.3C788.2 795.8 784.3 794.7 780.4 793.9C745.5 786.3 708.2 802.3 681.8 833.9C681.7 834 681.6 834.1 681.6 834.2C675.5 841.5 670 849.6 665.2 858.5C661.3 865.7 657.9 873.4 655.1 881.5C642.8 916.8 643.8 953.1 655.3 982.5C658.6 990.9 662.7 998.7 667.7 1005.7C678 1020.4 691.7 1031.8 708.3 1038.1C726 1044.9 744.8 1045 762.8 1039.6C770.9 1037.2 778.8 1033.7 786.4 1029.2C802.1 1019.8 816.5 1006.1 827.9 989C834.9 978.5 840.8 966.7 845.3 953.8C848.6 944.3 851 934.7 852.4 925.2C853.8 915.3 854.3 905.4 853.9 895.8ZM841.1 952.4C836.6 965.2 830.7 976.9 823.6 987.3C813.1 1002.7 800.1 1015.2 785.8 1023.9C777.9 1028.7 769.6 1032.4 761.2 1034.8C744.3 1039.6 726.7 1039.4 710.1 1033C694.5 1027.1 681.6 1016.5 671.8 1002.9C666.6 995.6 662.2 987.4 658.9 978.6C648.3 950.7 647.6 916.4 659.2 883.1C661.8 875.7 664.8 868.8 668.3 862.2C672.9 853.6 678.1 845.6 684 838.5C684.5 837.9 684.9 837.4 685.4 836.8C710.4 807.3 745.3 792.3 778.1 799C782.2 799.8 786.2 801 790.2 802.5C794.2 804 798 805.8 801.6 807.9C829.9 824.3 847.2 857.5 849.3 895.3C849.9 905.3 849.3 915.7 847.6 926.2C846.3 935 844.1 943.7 841.1 952.4Z" fill="#35393a" fill-rule="nonzero" opacity="1" stroke="none"/>
<path d="M852.3 925.4L847.7 926.3L833.8 929L797.1 936.2C792.9 937 789 940.1 786.4 944.5C785.5 946.2 784.4 947.8 783.3 949.4C781 952.8 779.7 956.9 779.6 961C779.6 961.8 779.6 962.6 779.7 963.3L784.1 1007.5L785.7 1023.6L786.2 1029.1C778.6 1033.6 770.7 1037.1 762.6 1039.5L761 1034.5L756.4 1020L743.7 979.8C742.2 975.2 739 972 735 970.9C733.9 970.6 732.9 970.3 731.8 969.9C731.2 969.7 730.6 969.4 730 969.2C726.2 967.5 721.7 968 717.8 970.7L683.1 994.8L671.6 1002.8L667.4 1005.7C662.5 998.7 658.3 990.9 655 982.5L658.7 978.5L668.5 968L699.4 934.9C702.7 931.4 704.6 926.5 704.9 921.6C705 919.6 705.2 917.7 705.4 915.7C706.1 910.6 704.8 905.7 702 902.3L676.2 871.8L668.1 862.2L665 858.5C669.8 849.6 675.3 841.5 681.4 834.2L681.9 834.6L685.2 836.8L695.3 843.7L727.7 865.9C731.1 868.2 735.3 868.4 739.3 866.6C740.3 866.2 741.3 865.7 742.4 865.4C746.5 864 750.1 860.6 752.1 856L771.5 813.3L778 798.9L780.3 793.8C784.2 794.6 788.1 795.8 791.9 797.2C795.7 798.7 799.4 800.4 802.9 802.4L801.5 807.9L797.6 823.7L786.5 869C785.3 873.9 786 879 788.2 882.8C788.5 883.3 788.7 883.8 789 884.3C791.1 888.3 794.5 890.8 798.6 891.1L835.7 894.1L849.4 895.2L854 895.6C854.3 905.4 853.8 915.3 852.3 925.4Z" fill="#35393a" fill-rule="nonzero" opacity="1" stroke="none"/>
<path d="M833.8 928.999L797.1 936.199C792.9 936.999 789 940.099 786.4 944.499C785.5 946.199 784.4 947.799 783.3 949.399C781 952.799 779.7 956.899 779.6 960.999C779.6 961.799 779.6 962.599 779.7 963.299L784.1 1007.5C775.4 1013.4 766.1 1017.6 756.5 1020L743.8 979.799C742.3 975.199 739.1 971.999 735.1 970.899C734 970.599 733 970.299 731.9 969.899C731.3 969.699 730.7 969.399 730.1 969.199C726.3 967.499 721.8 967.999 717.9 970.699L683.2 994.799C677 986.999 672.1 977.899 668.7 967.899L699.6 934.799C702.9 931.299 704.8 926.399 705.1 921.499C705.2 919.499 705.4 917.599 705.6 915.599C706.3 910.499 705 905.599 702.2 902.199L676.4 871.699C680.3 863.899 684.8 856.799 689.8 850.299C691.6 847.999 693.5 845.799 695.4 843.599L727.8 865.799C731.2 868.099 735.4 868.299 739.4 866.499C740.4 866.099 741.4 865.599 742.5 865.299C746.6 863.899 750.2 860.499 752.2 855.899L771.6 813.199C775.9 813.899 780.1 815.099 784.3 816.699C789.1 818.499 793.5 820.799 797.7 823.599L786.5 868.999C785.3 873.899 786 878.999 788.2 882.799C788.5 883.299 788.7 883.799 789 884.299C791.1 888.299 794.5 890.799 798.6 891.099L835.7 894.099C836.6 905.499 836 917.199 833.8 928.999Z" fill="#242627" fill-rule="nonzero" opacity="1" stroke="none"/>
<path d="M823.6 987.3C813.1 1002.7 800.1 1015.2 785.8 1023.9L784.2 1007.8L779.8 963.6C779.7 962.8 779.7 962 779.7 961.3C774.5 957.4 769.5 953.3 764.7 949.1C762.9 947.5 761.1 945.9 759.3 944.2C759 943.9 758.7 943.6 758.4 943.3C756.8 941.8 755.2 940.3 753.6 938.7C753.1 938.2 752.5 937.6 752 937.1C747.3 932.4 742.8 927.5 738.5 922.7C738 922.1 737.5 921.6 737 921C736 919.9 735 918.7 734.1 917.6C733.6 917 733.1 916.4 732.6 915.8C731.2 914.1 729.8 912.3 728.4 910.6C727.1 909 725.9 907.4 724.6 905.7C713.6 891.3 704.4 876.8 696.9 863.5C694.4 859.1 692.1 854.7 690 850.6C687.9 846.5 685.9 842.5 684.1 838.7C683.5 837.4 682.9 836 682.3 834.8C682.2 834.6 682.1 834.4 682 834.1C681.9 834.2 681.8 834.3 681.8 834.4C675.7 841.7 670.2 849.8 665.4 858.7C661.5 865.9 658.1 873.6 655.3 881.7C643 917 644 953.3 655.5 982.7C658.8 991.1 662.9 998.9 667.9 1005.9C678.2 1020.6 691.9 1032 708.5 1038.3C726.2 1045.1 745 1045.2 763 1039.8C771.1 1037.4 779 1033.9 786.6 1029.4C802.3 1020 816.7 1006.3 828.1 989.2C826.4 988.5 825 987.9 823.6 987.3ZM659.2 883.1C661.8 875.7 664.8 868.8 668.3 862.2L676.4 871.8L702.2 902.3C705 905.7 706.3 910.6 705.6 915.7C705.3 917.7 705.2 919.6 705.1 921.6C704.9 926.6 702.9 931.4 699.6 934.9L668.7 968L658.9 978.5C648.4 950.7 647.6 916.4 659.2 883.1ZM710.1 1033C694.5 1027.1 681.6 1016.5 671.8 1002.9L683.3 994.9L718 970.8C721.9 968.1 726.3 967.6 730.2 969.3C730.8 969.6 731.4 969.8 732 970C733.1 970.4 734.1 970.7 735.2 971C739.2 972.1 742.5 975.3 743.9 979.9L756.6 1020.1L761.2 1034.6C744.3 1039.6 726.7 1039.3 710.1 1033Z" fill="#35393a" fill-rule="nonzero" opacity="0.4" stroke="none"/>
<path d="M772.331 924.183C776.831 908.754 770.551 893.351 758.303 889.779C746.056 886.206 732.479 895.818 727.979 911.247C723.479 926.675 729.76 942.078 742.007 945.651C754.255 949.223 767.831 939.611 772.331 924.183Z" fill="#35393a" fill-rule="nonzero" opacity="1" stroke="none"/>
<path d="M758.301 897.1C758.001 897 757.801 896.9 757.501 896.8C757.201 896.7 757.001 896.6 756.701 896.5C747.701 893.7 737.501 900.2 733.601 911.5C733.101 912.9 732.701 914.3 732.501 915.7C732.101 918 732.001 920.3 732.101 922.5C732.101 923.2 732.201 923.9 732.301 924.6C733.401 931.2 737.101 936.7 742.801 938.9C746.301 940.2 750.001 940.1 753.501 938.8C755.701 938 757.701 936.7 759.601 935C760.101 934.5 760.601 934.1 761.101 933.6C763.501 931.1 765.401 927.9 766.701 924.2C770.701 912.8 766.901 900.9 758.301 897.1ZM734.001 917.4C734.201 915.6 734.601 913.8 735.201 912C738.701 901.9 747.901 896 755.901 898.5L749.501 916.8L736.901 920.8L733.901 921.7C733.801 920.4 733.801 918.9 734.001 917.4ZM751.901 937C749.201 937.8 746.301 937.7 743.601 936.7C738.501 934.8 735.201 929.8 734.201 923.9L738.401 922.6L749.801 919L758.701 933.3C756.601 935 754.301 936.3 751.901 937ZM765.101 923.4C764.001 926.7 762.201 929.5 760.101 931.7L751.101 917.4L757.501 899.1C765.201 902.7 768.601 913.3 765.101 923.4Z" fill="#000000" fill-rule="nonzero" opacity="1" stroke="none"/>
<path d="M769.501 884.799L785.201 824.299L783.8 823.799L783.001 823.499L782.201 823.199L780.8 822.699L755.701 879.599C754.401 882.599 754.801 885.999 756.701 887.899C758.001 889.199 759.401 890.099 759.701 890.299C760.101 890.399 761.701 890.599 763.501 890.499C766.201 890.299 768.701 887.999 769.501 884.799Z" fill="#575a67" fill-rule="nonzero" opacity="1" stroke="none"/>
<path d="M769.501 884.799L785.201 824.299L783.8 823.799L783.001 823.499L782.201 823.199L780.8 822.699L755.701 879.599C754.401 882.599 754.801 885.999 756.701 887.899C758.001 889.199 759.401 890.099 759.701 890.299C760.101 890.399 761.701 890.599 763.501 890.499C766.201 890.299 768.701 887.999 769.501 884.799Z" fill="#1c1e1e" fill-rule="nonzero" opacity="1" stroke="none"/>
<path d="M732.3 888.999L691.1 859.199L690.1 860.699L689.5 861.599L688.9 862.499L687.9 863.999L722.2 903.999C724 906.099 726.9 906.299 729.2 904.399C730.8 903.099 732.1 901.699 732.4 901.399C732.6 900.999 733.5 899.199 734.2 896.999C735.3 893.799 734.5 890.599 732.3 888.999Z" fill="#1c1e1e" fill-rule="nonzero" opacity="1" stroke="none"/>
<path d="M719.801 932.899L678.601 974.999L679.401 976.499L679.801 977.299L680.201 978.099L681.001 979.599L727.301 947.399C729.701 945.699 731.101 942.399 730.601 939.299C730.301 937.199 729.701 935.399 729.601 934.999C729.401 934.699 728.301 933.299 726.901 932.099C724.901 930.399 722.001 930.699 719.801 932.899Z" fill="#1c1e1e" fill-rule="nonzero" opacity="1" stroke="none"/>
<path d="M750.1 955.7L767.1 1010.8L768.6 1010.1L769.4 1009.7L770.2 1009.3L771.7 1008.6L764.7 949.1C764.3 946 762.2 943.8 759.6 943.9C757.8 943.9 756.1 944.3 755.8 944.4C755.5 944.6 753.9 945.7 752.4 947.1C750.1 949.3 749.2 952.8 750.1 955.7Z" fill="#1c1e1e" fill-rule="nonzero" opacity="1" stroke="none"/>
<path d="M780.4 924.499L831.2 914.299L831.3 912.399L831.3 911.399L831.4 910.399L831.5 908.499L781.3 906.299C778.7 906.199 776.1 908.299 775 911.299C774.3 913.399 773.9 915.399 773.8 915.899C773.8 915.899 773.8 915.899 773.8 915.999L773.8 916.099C773.8 916.499 774 918.499 774.5 920.499C775.3 923.299 777.7 924.999 780.4 924.499Z" fill="#1c1e1e" fill-rule="nonzero" opacity="1" stroke="none"/>
<path d="M766.847 882.219C767.651 879.462 766.54 876.713 764.367 876.079C762.193 875.445 759.779 877.166 758.975 879.923C758.17 882.68 759.281 885.429 761.455 886.063C763.628 886.697 766.042 884.976 766.847 882.219Z" fill="#6e7284" fill-rule="nonzero" opacity="1" stroke="none"/>
<path d="M766.847 882.219C767.651 879.462 766.54 876.713 764.367 876.079C762.193 875.445 759.779 877.166 758.975 879.923C758.17 882.68 759.281 885.429 761.455 886.063C763.628 886.697 766.042 884.976 766.847 882.219Z" fill="#6e7284" fill-rule="nonzero" opacity="1" stroke="none"/>
<path d="M766.847 882.219C767.651 879.462 766.54 876.713 764.367 876.079C762.193 875.445 759.779 877.166 758.975 879.923C758.17 882.68 759.281 885.429 761.455 886.063C763.628 886.697 766.042 884.976 766.847 882.219Z" fill="#35393a" fill-rule="nonzero" opacity="1" stroke="none"/>
<path d="M730.584 897.023C731.388 894.266 730.278 891.517 728.104 890.883C725.93 890.249 723.516 891.97 722.712 894.727C721.908 897.484 723.018 900.233 725.192 900.867C727.366 901.501 729.78 899.78 730.584 897.023Z" fill="#35393a" fill-rule="nonzero" opacity="1" stroke="none"/>
<path d="M726.76 942.012C727.564 939.255 726.453 936.506 724.28 935.872C722.106 935.238 719.692 936.959 718.888 939.716C718.084 942.473 719.194 945.222 721.368 945.856C723.541 946.49 725.956 944.769 726.76 942.012Z" fill="#35393a" fill-rule="nonzero" opacity="1" stroke="none"/>
<path d="M761.551 954.783C762.355 952.026 761.244 949.277 759.071 948.643C756.897 948.009 754.483 949.73 753.679 952.487C752.875 955.244 753.985 957.992 756.159 958.627C758.332 959.261 760.747 957.54 761.551 954.783Z" fill="#35393a" fill-rule="nonzero" opacity="1" stroke="none"/>
<path d="M785.744 916.705C786.548 913.948 785.438 911.199 783.264 910.565C781.09 909.931 778.676 911.652 777.872 914.409C777.068 917.166 778.178 919.915 780.352 920.549C782.526 921.183 784.94 919.462 785.744 916.705Z" fill="#35393a" fill-rule="nonzero" opacity="1" stroke="none"/>
<path d="M1313.63 802.68C1317.49 750.74 1305.48 707.511 1286.81 706.124C1268.14 704.737 1249.87 745.719 1246.02 797.659C1242.16 849.598 1254.17 892.828 1272.84 894.215C1291.51 895.601 1309.78 854.62 1313.63 802.68Z" fill="#181818" fill-rule="nonzero" opacity="1" stroke="none"/>
<path d="M1308.07 802.261C1311.23 759.684 1301.43 724.251 1286.17 723.118C1270.91 721.985 1255.98 755.581 1252.82 798.158C1249.66 840.734 1259.46 876.168 1274.72 877.301C1289.97 878.434 1304.91 844.837 1308.07 802.261Z" fill="#000000" fill-rule="nonzero" opacity="1" stroke="none"/>
<path d="M1307.33 802.372C1310.36 761.558 1300.94 727.59 1286.29 726.502C1271.63 725.414 1257.3 757.618 1254.27 798.432C1251.24 839.246 1260.66 873.214 1275.31 874.302C1289.96 875.39 1304.29 843.186 1307.33 802.372Z" fill="#242627" fill-rule="nonzero" opacity="1" stroke="none"/>
<path d="M1297.9 810.401C1293.2 844.801 1279.8 867.301 1267.8 860.501C1255.8 853.701 1254.6 816.801 1258.5 787.101C1263.1 752.701 1274 730.701 1284.6 735.801C1296.7 741.801 1302.6 776.001 1297.9 810.401Z" fill="#000000" fill-rule="nonzero" opacity="1" stroke="none"/>
<path d="M1305.8 786.9C1305.8 764.8 1301.8 745.5 1294.7 736.5C1293.9 735.5 1293 734.6 1292.1 733.8C1291.2 733 1290.3 732.5 1289.4 732C1281.1 728.2 1272 737.4 1265.3 755C1265.3 755.1 1265.3 755.1 1265.2 755.2C1263.7 759.3 1262.3 763.8 1261 768.7C1260 772.7 1259.1 776.9 1258.3 781.4C1255 800.8 1254.8 820.7 1257.2 836.6C1257.9 841.1 1258.8 845.4 1259.9 849.2C1262.2 857.1 1265.4 863.2 1269.3 866.5C1273.5 870 1278 869.9 1282.3 866.7C1284.3 865.3 1286.2 863.3 1288.1 860.7C1292 855.4 1295.6 847.8 1298.5 838.3C1300.3 832.5 1301.8 826 1303.1 818.9C1304 813.7 1304.7 808.4 1305.1 803.2C1305.6 797.6 1305.8 792.1 1305.8 786.9ZM1302.1 817.9C1300.9 825 1299.3 831.4 1297.5 837.2C1294.8 845.7 1291.6 852.7 1288 857.6C1286.1 860.3 1284 862.4 1282 863.8C1277.9 866.6 1273.7 866.7 1269.8 863.4C1266.1 860.3 1263.2 854.7 1261 847.4C1259.8 843.5 1258.9 839.1 1258.2 834.3C1256 819.2 1256.2 800.5 1259.3 782.2C1260 778.2 1260.8 774.3 1261.7 770.7C1262.9 765.9 1264.2 761.5 1265.7 757.6C1265.8 757.3 1265.9 757 1266.1 756.7C1272.4 740.3 1280.9 731.7 1288.7 735C1289.7 735.4 1290.6 736 1291.6 736.8C1292.5 737.6 1293.4 738.5 1294.3 739.6C1300.9 748.2 1304.7 766.2 1304.7 786.8C1304.7 792.3 1304.5 798 1304 803.7C1303.6 808.4 1302.9 813.2 1302.1 817.9Z" fill="#35393a" fill-rule="nonzero" opacity="1" stroke="none"/>
<path d="M1305.1 803.1L1304 803.6L1300.6 805.3L1291.7 809.7C1290.7 810.2 1289.7 811.9 1289.1 814.4C1288.9 815.3 1288.6 816.2 1288.3 817.1C1287.7 819 1287.3 821.3 1287.3 823.5C1287.3 823.9 1287.3 824.4 1287.3 824.8L1287.9 848.9L1288.1 857.7L1288.2 860.7C1286.3 863.3 1284.4 865.3 1282.4 866.7L1282.1 864L1281.2 856.1L1278.6 834.3C1278.3 831.8 1277.6 830.1 1276.6 829.5C1276.3 829.4 1276.1 829.2 1275.8 829C1275.7 828.9 1275.5 828.8 1275.4 828.6C1274.5 827.7 1273.4 828 1272.5 829.5L1263.9 843L1261.1 847.5L1260.1 849.1C1259 845.3 1258.1 841.1 1257.4 836.5L1258.3 834.3L1260.8 828.4L1268.6 810C1269.4 808.1 1269.9 805.4 1270.1 802.7C1270.1 801.6 1270.2 800.6 1270.3 799.5C1270.5 796.7 1270.3 794 1269.6 792.2L1263.8 775.8L1262 770.6L1261.3 768.6C1262.5 763.7 1264 759.2 1265.5 755.1L1265.6 755.3L1266.4 756.5L1268.7 760.2L1276.2 772C1277 773.2 1278 773.3 1279 772.3C1279.2 772 1279.5 771.8 1279.7 771.6C1280.7 770.8 1281.6 768.9 1282.1 766.4L1287.2 742.9L1288.9 735L1289.5 732.2C1290.4 732.6 1291.3 733.2 1292.2 734C1293.1 734.8 1294 735.7 1294.8 736.7L1294.4 739.7L1293.3 748.4L1290 773C1289.7 775.7 1289.8 778.4 1290.3 780.5C1290.4 780.8 1290.4 781 1290.5 781.3C1291 783.4 1291.8 784.8 1292.7 784.9L1301.5 786.1L1304.8 786.6L1305.9 786.8C1305.8 792.1 1305.6 797.6 1305.1 803.1Z" fill="#35393a" fill-rule="nonzero" opacity="1" stroke="none"/>
<path d="M1300.6 805.3L1291.7 809.7C1290.7 810.2 1289.7 811.9 1289.1 814.4C1288.9 815.3 1288.6 816.2 1288.3 817.1C1287.7 819 1287.3 821.3 1287.3 823.5C1287.3 823.9 1287.3 824.4 1287.3 824.8L1287.9 848.9C1285.8 852.2 1283.5 854.6 1281.2 856L1278.6 834.2C1278.3 831.7 1277.6 830 1276.6 829.4C1276.3 829.3 1276.1 829.1 1275.8 828.9C1275.7 828.8 1275.5 828.7 1275.4 828.5C1274.5 827.6 1273.4 827.9 1272.5 829.4L1263.9 842.9C1262.5 838.7 1261.4 833.8 1260.7 828.4L1268.5 810C1269.3 808.1 1269.8 805.4 1270 802.7C1270 801.6 1270.1 800.6 1270.2 799.5C1270.4 796.7 1270.2 794 1269.5 792.2L1263.7 775.8C1264.7 771.5 1265.9 767.5 1267.2 764C1267.7 762.7 1268.1 761.5 1268.6 760.3L1276.1 772.1C1276.9 773.3 1277.9 773.4 1278.9 772.4C1279.1 772.1 1279.4 771.9 1279.6 771.7C1280.6 770.9 1281.5 769 1282 766.5L1287.1 743C1288.1 743.4 1289.1 743.9 1290.1 744.8C1291.2 745.7 1292.3 746.9 1293.2 748.4L1290 773C1289.7 775.7 1289.8 778.4 1290.3 780.5C1290.4 780.8 1290.4 781 1290.5 781.3C1291 783.4 1291.8 784.8 1292.7 784.9L1301.5 786.1C1301.6 792.4 1301.3 798.8 1300.6 805.3Z" fill="#242627" fill-rule="nonzero" opacity="1" stroke="none"/>
<path d="M1297.5 837.201C1294.8 845.701 1291.6 852.701 1288 857.601L1287.8 848.801L1287.2 824.701C1287.2 824.301 1287.2 823.901 1287.2 823.401C1286 821.301 1284.8 819.101 1283.7 816.901C1283.3 816.001 1282.9 815.201 1282.5 814.301C1282.4 814.201 1282.4 814.001 1282.3 813.801C1281.9 813.001 1281.6 812.201 1281.2 811.401C1281.1 811.101 1280.9 810.801 1280.8 810.501C1279.7 808.001 1278.7 805.401 1277.7 802.801C1277.6 802.501 1277.5 802.201 1277.4 801.901C1277.2 801.301 1277 800.701 1276.7 800.101C1276.6 799.801 1276.5 799.401 1276.4 799.101C1276.1 798.201 1275.8 797.201 1275.4 796.301C1275.1 795.401 1274.8 794.601 1274.6 793.701C1272.1 785.901 1270.1 778.101 1268.4 771.001C1267.9 768.601 1267.3 766.301 1266.9 764.001C1266.4 761.801 1266 759.601 1265.6 757.601C1265.5 756.901 1265.3 756.201 1265.2 755.501C1265.2 755.401 1265.2 755.301 1265.1 755.101C1265.1 755.201 1265.1 755.201 1265 755.301C1263.5 759.401 1262.1 763.901 1260.8 768.801C1259.8 772.801 1258.9 777.001 1258.1 781.501C1254.8 800.901 1254.6 820.801 1257 836.701C1257.7 841.201 1258.6 845.501 1259.7 849.301C1262 857.201 1265.2 863.301 1269.1 866.601C1273.3 870.101 1277.8 870.001 1282.1 866.801C1284.1 865.401 1286 863.401 1287.9 860.801C1291.8 855.501 1295.4 847.901 1298.3 838.401C1298.2 837.901 1297.9 837.501 1297.5 837.201ZM1259.3 782.101C1260 778.101 1260.8 774.201 1261.7 770.601L1263.5 775.801L1269.3 792.201C1269.9 794.001 1270.2 796.701 1270 799.501C1269.9 800.601 1269.8 801.701 1269.8 802.701C1269.7 805.401 1269.2 808.101 1268.3 810.001L1260.5 828.401L1258 834.301C1256 819.201 1256.2 800.401 1259.3 782.101ZM1269.8 863.401C1266.1 860.301 1263.2 854.701 1261 847.401L1263.8 842.901L1272.4 829.401C1273.4 827.901 1274.4 827.601 1275.3 828.501C1275.4 828.601 1275.6 828.801 1275.7 828.901C1275.9 829.101 1276.2 829.301 1276.5 829.401C1277.5 830.001 1278.2 831.701 1278.5 834.201L1281.1 856.001L1282 863.901C1278 866.601 1273.8 866.701 1269.8 863.401Z" fill="#35393a" fill-rule="nonzero" opacity="0.4" stroke="none"/>
<path d="M1286.23 800.554C1286.93 791.912 1285 784.704 1281.92 784.455C1278.83 784.205 1275.77 791.009 1275.07 799.652C1274.37 808.294 1276.3 815.502 1279.39 815.751C1282.47 816 1285.53 809.197 1286.23 800.554Z" fill="#35393a" fill-rule="nonzero" opacity="1" stroke="none"/>
<path d="M1282.9 788.6C1282.8 788.5 1282.8 788.501 1282.7 788.401C1282.6 788.301 1282.6 788.301 1282.5 788.301C1280.4 786.901 1277.9 790.601 1276.8 796.701C1276.7 797.501 1276.6 798.201 1276.5 799.001C1276.4 800.301 1276.3 801.501 1276.3 802.701C1276.3 803.101 1276.3 803.501 1276.3 803.801C1276.5 807.401 1277.3 810.401 1278.7 811.501C1279.5 812.201 1280.4 812.101 1281.3 811.301C1281.8 810.801 1282.3 810.101 1282.8 809.201C1282.9 808.901 1283.1 808.701 1283.2 808.401C1283.8 807.001 1284.3 805.201 1284.6 803.201C1285.7 797.101 1284.9 790.7 1282.9 788.6ZM1276.8 800.001C1276.9 799.001 1277 798 1277.2 797.1C1278.1 791.5 1280.4 788.201 1282.3 789.501L1280.6 799.6L1277.5 801.901L1276.8 802.401C1276.8 801.601 1276.8 800.801 1276.8 800.001ZM1280.9 810.501C1280.2 811.001 1279.5 811.001 1278.9 810.401C1277.7 809.401 1277 806.701 1276.8 803.501L1277.8 802.701L1280.6 800.6L1282.6 808.301C1282.1 809.401 1281.5 810.101 1280.9 810.501ZM1284.2 803.001C1283.9 804.801 1283.4 806.4 1282.9 807.6L1280.9 799.901L1282.6 789.801C1284.5 791.601 1285.2 797.401 1284.2 803.001Z" fill="#000000" fill-rule="nonzero" opacity="1" stroke="none"/>
<path d="M1285.7 781.801L1290.1 748.601L1289.8 748.301L1289.6 748.101L1289.4 747.901L1289.1 747.601L1282.5 779.001C1282.2 780.601 1282.2 782.501 1282.7 783.501C1283 784.201 1283.3 784.701 1283.4 784.801C1283.5 784.801 1283.9 784.901 1284.3 784.901C1284.9 784.901 1285.5 783.601 1285.7 781.801Z" fill="#575a67" fill-rule="nonzero" opacity="1" stroke="none"/>
<path d="M1285.7 781.801L1290.1 748.601L1289.8 748.301L1289.6 748.101L1289.4 747.901L1289.1 747.601L1282.5 779.001C1282.2 780.601 1282.2 782.501 1282.7 783.501C1283 784.201 1283.3 784.701 1283.4 784.801C1283.5 784.801 1283.9 784.901 1284.3 784.901C1284.9 784.901 1285.5 783.601 1285.7 781.801Z" fill="#1c1e1e" fill-rule="nonzero" opacity="1" stroke="none"/>
<path d="M1276.8 784.5L1267.3 768.7L1267 769.5L1266.9 770L1266.8 770.5L1266.5 771.3L1274.3 792.8C1274.7 793.9 1275.4 794 1276 792.9C1276.4 792.2 1276.7 791.4 1276.8 791.2C1276.9 791 1277.1 790 1277.3 788.8C1277.4 787.1 1277.3 785.4 1276.8 784.5Z" fill="#1c1e1e" fill-rule="nonzero" opacity="1" stroke="none"/>
<path d="M1273.3 808.701L1263 832.101L1263.2 832.901L1263.3 833.301L1263.4 833.701L1263.6 834.501L1275.1 816.401C1275.7 815.501 1276.1 813.601 1276 812.001C1275.9 810.901 1275.8 809.901 1275.8 809.701C1275.7 809.501 1275.5 808.801 1275.2 808.201C1274.5 807.201 1273.8 807.401 1273.3 808.701Z" fill="#1c1e1e" fill-rule="nonzero" opacity="1" stroke="none"/>
<path d="M1280.3 820.801L1283.7 850.701L1284.1 850.301L1284.3 850.101L1284.5 849.901L1284.9 849.501L1283.9 817.101C1283.8 815.401 1283.4 814.201 1282.7 814.301C1282.3 814.301 1281.9 814.601 1281.8 814.601C1281.7 814.701 1281.3 815.301 1281 816.101C1280.3 817.301 1280.1 819.201 1280.3 820.801Z" fill="#1c1e1e" fill-rule="nonzero" opacity="1" stroke="none"/>
<path d="M1287.9 803.4L1300.2 797.3L1300.2 796.3L1300.2 795.7L1300.2 795.1L1300.2 794.1L1288.2 793.4C1287.6 793.4 1286.9 794.5 1286.6 796.2C1286.4 797.4 1286.3 798.5 1286.3 798.7C1286.3 798.9 1286.3 800 1286.4 801.1C1286.7 802.8 1287.2 803.7 1287.9 803.4Z" fill="#1c1e1e" fill-rule="nonzero" opacity="1" stroke="none"/>
<path d="M1285.11 779.955C1285.23 778.414 1284.89 777.129 1284.34 777.084C1283.79 777.04 1283.24 778.253 1283.12 779.794C1282.99 781.336 1283.34 782.621 1283.89 782.666C1284.44 782.71 1284.99 781.497 1285.11 779.955Z" fill="#6e7284" fill-rule="nonzero" opacity="1" stroke="none"/>
<path d="M1285.11 779.955C1285.23 778.414 1284.89 777.129 1284.34 777.084C1283.79 777.04 1283.24 778.253 1283.12 779.794C1282.99 781.336 1283.34 782.621 1283.89 782.666C1284.44 782.71 1284.99 781.497 1285.11 779.955Z" fill="#6e7284" fill-rule="nonzero" opacity="1" stroke="none"/>
<path d="M1285.11 779.955C1285.23 778.414 1284.89 777.129 1284.34 777.084C1283.79 777.04 1283.24 778.253 1283.12 779.794C1282.99 781.336 1283.34 782.621 1283.89 782.666C1284.44 782.71 1284.99 781.497 1285.11 779.955Z" fill="#35393a" fill-rule="nonzero" opacity="1" stroke="none"/>
<path d="M1276.24 788.489C1276.36 786.947 1276.02 785.662 1275.46 785.617C1274.91 785.573 1274.37 786.786 1274.24 788.327C1274.12 789.869 1274.46 791.154 1275.01 791.199C1275.56 791.243 1276.11 790.03 1276.24 788.489Z" fill="#35393a" fill-rule="nonzero" opacity="1" stroke="none"/>
<path d="M1274.89 813.108C1275.02 811.566 1274.67 810.281 1274.12 810.236C1273.57 810.192 1273.02 811.405 1272.9 812.946C1272.77 814.488 1273.12 815.773 1273.67 815.818C1274.22 815.862 1274.77 814.649 1274.89 813.108Z" fill="#35393a" fill-rule="nonzero" opacity="1" stroke="none"/>
<path d="M1283.02 819.676C1283.15 818.135 1282.8 816.849 1282.25 816.805C1281.7 816.76 1281.15 817.974 1281.03 819.515C1280.9 821.056 1281.25 822.342 1281.8 822.386C1282.35 822.431 1282.9 821.217 1283.02 819.676Z" fill="#35393a" fill-rule="nonzero" opacity="1" stroke="none"/>
<path d="M1289.27 798.642C1289.39 797.101 1289.05 795.815 1288.5 795.771C1287.95 795.726 1287.4 796.939 1287.28 798.481C1287.15 800.022 1287.5 801.308 1288.05 801.352C1288.6 801.397 1289.15 800.183 1289.27 798.642Z" fill="#35393a" fill-rule="nonzero" opacity="1" stroke="none"/>
</g>
</svg>
