<svg height="512" viewBox="0 0 58 58" width="512" xmlns="http://www.w3.org/2000/svg"><g id="Page-1" fill="none" fill-rule="evenodd"><g id="001---House-Cleaning" fill-rule="nonzero"><path id="Shape" d="m39.04 21v36c0 .5522847-.4477153 1-1 1h-34c-.55228475 0-1-.4477153-1-1v-36z" fill="#f29c1f"/><path id="Shape" d="m31.54 13.77c-.1373302.1082311-.2675962.2251365-.39.35l-.71.71c-.2698616.2694797-.3629516.668991-.24 1.03l-4.26 1.13-2.57.67c-.93.93-1.23 2.96-.78 5.34h-21.51c-.43043041 0-.81256925-.2754301-.9486833-.6837722-.13611404-.4083422.00433897-.8579696.3486833-1.1162278l19.96-14.76c.353503-.26169907.836497-.26169907 1.19 0z" fill="#805333"/><rect id="Rectangle-path" fill="#2fa8cc" height="10" rx="1" width="10" x="8.035" y="43"/><rect id="Rectangle-path" fill="#2fa8cc" height="10" rx="1" width="10" x="8.035" y="28"/><path id="Shape" d="m14.035 43h-2v4h-4v2h4v4h2v-4h4v-2h-4z" fill="#fff"/><path id="Shape" d="m14.035 32v-4h-2v4h-4v2h4v4h2v-4h4v-2z" fill="#fff"/><path id="Shape" d="m29.035 43c2.7614237 0 5 2.2385763 5 5v10h-10v-10c0-1.3260824.5267842-2.597852 1.4644661-3.5355339s2.2094515-1.4644661 3.5355339-1.4644661z" fill="#a56a43"/><path id="Shape" d="m30.035 53c-.5522847 0-1-.4477153-1-1v-2c0-.3572656.1905989-.6873926.5-.8660255.3094011-.1786328.6905989-.1786328 1 0 .3094011.1786329.5.5087599.5.8660255v2c0 .5522847-.4477153 1-1 1z" fill="#805333"/><path id="Shape" d="m42.14 27.79v.01l-1.13 4.26-.67 2.57c-.3684644.3441424-.8143585.5945291-1.3.73-1.5312223.3724575-3.1324959.3449087-4.65-.08-.6549331-.1443034-1.2970487-.3416202-1.92-.59-1.7714199-.6726291-3.4074531-1.6583136-4.83-2.91-.25-.22-.49-.45-.73-.69s-.47-.49-.68-.74c-1.2577825-1.4161444-2.2472474-3.0494391-2.92-4.82-.2424778-.6250154-.4396539-1.2666733-.59-1.92-.05-.21-.09-.41-.13-.61-.45-2.38-.15-4.41.78-5.34l2.57-.67 4.26-1.13h.01c.0365317.1498359.116553.2855244.23.39l11.31 11.31c.1044756.113447.2401641.1934683.39.23z" fill="#f3d55b"/><path id="Shape" d="m43.88 26.85-.71.71c-.2694797.2698616-.668991.3629516-1.03.24v-.01c-.1498359-.0365317-.2855244-.116553-.39-.23l-11.31-11.31c-.113447-.1044756-.1934683-.2401641-.23-.39h-.01c-.1229516-.361009-.0298616-.7605203.24-1.03l.71-.71c.1224038-.1248635.2526698-.2417689.39-.35 2.3807492-1.9949366 5.8904389-1.8430959 8.09.35l4.25 4.25c2.339627 2.3425404 2.339627 6.1374596 0 8.48z" fill="#3b97d3"/><path id="Shape" d="m58 4.77c.0013569 1.34406885-.5652273 2.62614708-1.56 3.53l-11.86 10.77-5.65-5.65 10.77-11.86c.877698-.96440312 2.1120858-1.52724795 3.4157396-1.55747761 1.3036539-.03022965 2.5628039.47479402 3.4842604 1.39747761.9000801.88988713 1.4045798 2.10428977 1.4 3.37z" fill="#2980ba"/><path id="Shape" d="m27.88 24.28-4.57 1.25c-.2424778-.6250154-.4396539-1.2666733-.59-1.92l4.63-1.26c.3447613-.0946754.7138426.0017689.9682145.2530033.2543719.2512343.3553894.6190902.265.965-.0903893.3459097-.3584532.6173213-.7032145.7119967z" fill="#b19046"/><path id="Shape" d="m35.65 30.65-1.26 4.63c-.6549331-.1443034-1.2970487-.3416202-1.92-.59l1.25-4.57c.0946754-.3447613.366087-.6128252.7119967-.7032146.3459098-.0903893.7137657.0106281.9650001.265.2512343.254372.3476786.6234533.2530032.9682146z" fill="#b19046"/><path id="Shape" d="m31.71 27.71-4.07 4.07c-.25-.22-.49-.45-.73-.69s-.47-.49-.68-.74l4.06-4.06c.3921222-.3921221 1.0278778-.3921221 1.42 0 .3921221.3921222.3921221 1.0278778 0 1.42z" fill="#b19046"/><circle id="Oval" cx="47.5" cy="37.5" fill="#ff5364" r="2.5"/><circle id="Oval" cx="30.5" cy="3.5" fill="#ff5364" r="2.5"/><g fill="#f0c419"><path id="Shape" d="m53 27c-.5522847 0-1-.4477153-1-1v-2c0-.5522847.4477153-1 1-1s1 .4477153 1 1v2c0 .5522847-.4477153 1-1 1z"/><path id="Shape" d="m53 33c-.5522847 0-1-.4477153-1-1v-2c0-.5522847.4477153-1 1-1s1 .4477153 1 1v2c0 .5522847-.4477153 1-1 1z"/><path id="Shape" d="m57 29h-2c-.5522847 0-1-.4477153-1-1s.4477153-1 1-1h2c.5522847 0 1 .4477153 1 1s-.4477153 1-1 1z"/><path id="Shape" d="m51 29h-2c-.5522847 0-1-.4477153-1-1s.4477153-1 1-1h2c.5522847 0 1 .4477153 1 1s-.4477153 1-1 1z"/></g><path id="Shape" d="m13 8c-.2651948-.00005664-.5195073-.10545063-.707-.293l-1.5-1.5c-.3789722-.39237889-.3735524-1.01608478.0121814-1.40181858.3857338-.38573379 1.0094397-.39115363 1.4018186-.01218142l1.5 1.5c.2859079.28599425.3714219.71603662.216678 1.08965456s-.5192821.61725909-.923678.61734544z" fill="#955ba5"/><path id="Shape" d="m8.5 3.5c-.26519481-.00005664-.51950727-.10545063-.707-.293l-1.5-1.5c-.37897221-.39237889-.37355237-1.01608478.01218142-1.40181857.3857338-.3857338 1.00943969-.39115364 1.40181858-.01218143l1.5 1.5c.28590792.28599425.37142191.71603662.21667798 1.08965456s-.51928208.61725909-.92367798.61734544z" fill="#955ba5"/><path id="Shape" d="m7 8c-.4043959-.00008635-.76893405-.2437275-.92367798-.61734544s-.06922994-.80366031.21667798-1.08965456l1.5-1.5c.25107447-.25995658.62287789-.3642126.97250732-.27269716.34962944.09151544.6226744.3645604.71418984.71418984.09151544.34962943-.01274058.72143285-.27269716.97250732l-1.5 1.5c-.18749273.18754937-.44180519.29294336-.707.293z" fill="#955ba5"/><path id="Shape" d="m11.5 3.5c-.4043959-.00008635-.7689341-.2437275-.923678-.61734544s-.0692299-.80366031.216678-1.08965456l1.5-1.5c.3923789-.37897221 1.0160848-.37355237 1.4018186.01218143.3857338.38573379.3911536 1.00943968.0121814 1.40181857l-1.5 1.5c-.1874927.18754937-.4418052.29294336-.707.293z" fill="#955ba5"/></g></g></svg>