<svg id="Layer_1" enable-background="new 0 0 511.996 511.996" height="512" viewBox="0 0 511.996 511.996" width="512" xmlns="http://www.w3.org/2000/svg"><g><g><path d="m276.985 15.847h-41.718c-38.395 9.429-67.1 44.24-67.1 85.437v5.985l3.219 3.696h170.169l2.529-3.696v-5.985c.001-41.196-28.704-76.008-67.099-85.437z" fill="#ffba7e"/><path d="m197.167 101.283c0-41.196 28.705-76.007 67.098-85.436h-28.999c-38.395 9.429-67.1 44.24-67.1 85.437v5.985l3.219 3.696h29l-3.219-3.696v-5.986z" fill="#ffaa5b"/><path d="m245.066 306.495h24.972l31.984-28.354-3.789-1.396-.503-3.498c-1.054-1.264-1.685-2.87-1.689-4.593l-.02-23.726-4.955-3.517h-71.698l-3.198 3.41v23.788c0 2.066-.697 3.534-1.671 4.617l.901 4.601-4.01 1.428z" fill="#ffbc85"/><path d="m255.693 241.411h-36.325l-3.198 3.41v23.788c0 2.066-.697 3.534-1.671 4.617l.901 4.601-4.01 1.428 33.676 27.238h10.627z" fill="#f5a96c"/><path d="m127.399 434.182v64.907l4.505 5.57h93.092l2.57-1.665h56.982l2.708 1.665h93.091l6.385-4.07v-67.762h53.823c0-25.844 0-51.616 0-57.847 0-27.619-17.683-51.763-39.038-60.552-2.995-1.16-38.83-15.038-66.988-25.943l-3.964.175-28.544-10.52-31.984 28.354h-24.972l-33.676-27.238-25.49 9.081h-8.357l-66.807 26.092c-16.69 6.869-39.039 28.481-39.039 60.552v59.202h55.703z" fill="#fff5f5"/><path d="m102.826 415.34c0-26.659 0-51.126 0-56.36 0-22.51 11.012-39.857 23.347-50.581l-15.438 6.029c-16.69 6.869-39.039 28.481-39.039 60.552v40.36z" fill="#eee1dd"/><g fill="#90d8f9"><path d="m234.316 430.661 47.75 48.125 2.483-.139-4.77-45.82-1.629-3.416-39.334-39.833-1.884.402-3.87 37.181h.001z"/><path d="m267.896 504.659-.629-2.665-35.2-36.085-3.026-.106-4.044 38.855c14.152.001 28.574.001 42.899.001z"/><path d="m242.65 356.578 29.166 29.667 3.007-1.039-5.057-48.593-2.2-2.202h-22.852l-2.227 2.202-1.533 14.724z"/></g><path d="m242.65 356.578 23.293 23.693 4.183-40.193-.36-3.465-2.2-2.202h-22.852l-2.227 2.202-1.533 14.724z" fill="#75cef9"/><path d="m234.316 430.661 23.877 24.065 4.287-41.184-23.664-23.964-1.884.402-3.87 37.181h.001z" fill="#75cef9"/><path d="m232.066 465.91-3.026-.106-4.044 38.855h28l1.626-15.626z" fill="#75cef9"/><path d="m272.149 299.911-2.056-1.211c-9.701 0-18.234 0-27.936 0l-1.842.878-10 16.583.576 2.321 11.595 18.131h27.279l11.595-18.13v-2.821z" fill="#90d8f9"/><path d="m283.08 321.029c2.347 3.476 7.18 4.168 10.408 1.491l41.041-34.034c-17.512-6.782-32.056-12.415-33.877-13.12-1.167-.451-2.155-1.197-2.924-2.12l-25.126 20.835c-2.808 2.329-3.393 6.408-1.351 9.431z" fill="#eee1dd"/><path d="m218.763 322.52c3.228 2.677 8.062 1.985 10.408-1.491l11.827-17.516c2.042-3.023 1.458-7.103-1.351-9.431l-25.15-20.855c-.427.476-.903.885-1.405 1.226l-35.552 13.885z" fill="#eee1dd"/><path d="m229.04 465.804 38.855 38.855h19.36l-2.707-26.012-51.486-51.486z" fill="#b1e4f9"/><path d="m258.423 452.521-25.36-25.36-4.023 38.643 25.361 25.36z" fill="#90d8f9"/><path d="m236.932 389.98 42.848 42.847-4.957-47.621-33.869-33.869z" fill="#b1e4f9"/><path d="m266.315 376.697-25.361-25.36-4.022 38.643 25.361 25.36z" fill="#90d8f9"/><g fill="#ffbc85"><path d="m351.159 136.658-3.594-5.736h-26.25v48.917l6.979 7.383c18.32 1.948 33.5-11.468 33.5-27.87.001-8.802-4.07-17.202-10.635-22.694z"/><path d="m162.255 136.658c-6.972 5.338-11.798 13.732-11.798 22.79 0 16.358 15.161 29.777 33.498 27.764l8.361-8.873v-47.417h-25.11z"/><path d="m162.255 136.658c-6.972 5.338-11.798 13.732-11.798 22.79 0 16.358 15.161 29.777 33.498 27.764l8.361-8.873v-47.417h-25.11z"/></g><path d="m346.844 130.923h-25.528v48.917l6.979 7.383c6.827.726 13.217-.684 18.549-3.585z" fill="#f5a96c"/><path d="m171.319 159.448c0-9.058 4.826-17.452 11.798-22.79l4.951-5.736h-20.862l-4.951 5.736c-6.972 5.338-11.798 13.732-11.798 22.79 0 16.358 15.161 29.777 33.498 27.764l2.996-3.18c-9.355-4.764-15.632-14.062-15.632-24.584z" fill="#f5a96c"/><path d="m268.755 7.663h-25.258c-4.546 0-8.232 3.686-8.232 8.233v91.373l2.776 3.696h35.276l3.672-3.696v-91.373c-.001-4.547-3.688-8.233-8.234-8.233z" fill="#ff9838"/><path d="m256.126 15.896c0-4.547 3.686-8.233 8.232-8.233h-20.861c-4.546 0-8.232 3.686-8.232 8.233v91.373l2.776 3.696h20.862l-2.776-3.696v-91.373z" fill="#ff8706"/><path d="m319.399 130.923h-87.677l-3.394 4.036v50.125c0 30.031 18.453 58.009 48.296 68.707 29.815-8.492 51.718-35.956 51.718-68.457v-48.675z" fill="#fed1a3"/><path d="m229.805 185.334v-48.675l4.823-5.736h-45.896l-4.823 5.736v48.675c0 37.205 29.151 71.186 73.247 71.186 7.754 0 15.215-1.264 22.209-3.566-30.541-9.642-49.56-37.575-49.56-67.62z" fill="#ffbc85"/><path d="m131.904 440.398h-60.208v51.252c0 7.185 5.825 13.009 13.009 13.009h47.199z" fill="#ffbc85"/><path d="m102.829 491.651c0-4.632 0-28.404 0-51.252h-31.133v51.252c0 7.185 5.824 13.009 13.009 13.009h31.133c-7.184-.001-13.009-5.825-13.009-13.009z" fill="#f5a96c"/><path d="m380.348 504.659h47.199c7.185 0 13.009-5.824 13.009-13.009 0-4.732 0-28.455 0-51.252h-60.208z" fill="#ffbc85"/><path d="m443.623 408.232h-60.112c-1.747 0-3.163 1.416-3.163 3.163v32.004h63.275c2.831 0 5.125-2.295 5.125-5.125v-24.917c0-2.831-2.295-5.125-5.125-5.125z" fill="#eee1dd"/><path d="m128.741 408.232h-60.112c-2.83 0-5.125 2.294-5.125 5.125v24.917c0 2.83 2.295 5.125 5.125 5.125h63.275v-32.004c0-1.747-1.416-3.163-3.163-3.163z" fill="#eee1dd"/><path d="m97.704 438.273v-24.917c0-2.831 2.295-5.125 5.125-5.125h-34.2c-2.83 0-5.125 2.294-5.125 5.125v24.917c0 2.83 2.295 5.125 5.125 5.125h34.2c-2.83 0-5.125-2.294-5.125-5.125z" fill="#e1d3ce"/><path d="m353.83 107.269h-195.409c-4.547 0-8.232 3.686-8.232 8.232v12.924c0 4.547 3.686 8.233 8.232 8.233h195.409c4.547 0 8.233-3.686 8.233-8.233v-12.924c0-4.546-3.686-8.232-8.233-8.232z" fill="#ff9838"/><path d="m189.856 128.425v-12.924c0-4.546 3.686-8.232 8.232-8.232h-39.667c-4.547 0-8.232 3.686-8.232 8.232v12.924c0 4.547 3.686 8.233 8.232 8.233h39.667c-4.547 0-8.232-3.686-8.232-8.233z" fill="#ff8706"/></g><g><path d="m447.928 401.387v-26.57c0-29.15-17.963-56.902-43.684-67.488-.049-.02-.098-.04-.146-.059-.265-.103-67.32-26.071-67.32-26.071l-33.365-12.922-.016-19.591c17.178-12.574 29.076-31.932 31.734-54.098 19.511-1.709 34.036-17.264 34.036-35.4 0-6.663-1.89-13.248-5.282-18.956 3.39-2.888 5.55-7.179 5.55-11.972v-12.924c0-8.675-7.058-15.732-15.732-15.732h-2.279c-.679-41.8-28.687-78.119-68.296-89.972-2.387-5.653-7.988-9.632-14.502-9.632h-25.256c-6.513 0-12.113 3.979-14.501 9.633-39.562 11.838-67.617 48.123-68.297 89.973h-2.279c-8.675 0-15.732 7.058-15.732 15.732v12.924c0 4.947 2.3 9.362 5.881 12.248-3.604 5.684-5.613 12.193-5.613 18.775 0 17.883 14.291 33.631 34.031 35.313 2.587 21.769 14.057 41.241 31.681 54.002v19.365c-20.471 7.995-79.501 31.05-100.662 39.314-.042.016-.084.033-.126.05-21.04 8.659-43.685 33.472-43.685 67.488v26.569c-4.778 1.8-8.192 6.406-8.192 11.806v24.917c0 5.4 3.414 10.006 8.192 11.806v41.571c0 11.309 9.2 20.509 20.509 20.509h226.138c4.143 0 7.5-3.358 7.5-7.5s-3.357-7.5-7.5-7.5h-16.638c-.794-7.626-6.043-58.057-6.8-65.336 0 0 0 0 0-.001-1.041-9.999-8.797-84.523-9.774-93.912l5.274-8.247c5.284 2.505 11.331 1.576 15.581-1.949l37.11-30.774 63.138 24.452c17.068 7.062 34.323 27.716 34.323 53.588v25.75h-45.209v-33.411c0-4.142-3.357-7.5-7.5-7.5s-7.5 3.358-7.5 7.5v40.911 35.167 53.761h-27.005c-4.143 0-7.5 3.358-7.5 7.5s3.357 7.5 7.5 7.5h81.703c11.309 0 20.509-9.2 20.509-20.509v-41.571c4.778-1.8 8.192-6.406 8.192-11.806v-24.917c.001-5.397-3.413-10.003-8.191-11.804zm-112.214-221.976v-35.416h12.359c3.851 4.081 6.093 9.596 6.093 15.195.001 10.249-8.144 18.513-18.452 20.221zm-93.077-163.562c.001-.042.001-.083.001-.123.004-.401.329-.726.731-.726h25.257c.401 0 .727.324.732.724 0 .02.001.041.002.061v33.891c0 4.142 3.357 7.5 7.5 7.5s7.5-3.358 7.5-7.5v-23.815c30.637 11.531 51.468 40.513 52.083 73.745h-52.083v-14.93c0-4.142-3.357-7.5-7.5-7.5s-7.5 3.358-7.5 7.5v14.93h-26.723zm-15 9.994v73.763h-52.084c.615-33.235 21.444-62.234 52.084-73.763zm-51.355 153.586c-10.305-1.668-18.452-9.918-18.452-20.144 0-5.57 2.593-11.139 7.032-15.29h11.42zm-17.989-50.434c-.404 0-.732-.329-.732-.733v-12.924c0-.404.328-.732.732-.732h195.409c.404 0 .732.329.732.732v12.924c0 .404-.328.733-.732.733-6.579 0-189.161 0-195.409 0zm32.989 56.175v-41.175h129.433v41.175c0 34.847-28.367 63.647-63.622 63.684-.021 0-.043.001-.064.001-.022 0-.043-.001-.065-.001-38.309-.032-65.682-29.637-65.682-63.684zm22.831 96.723 20.389 16.908-11.434 16.934-30.611-25.385zm-89.836 215.103h-39.699c-3.037 0-5.509-2.471-5.509-5.509v-40.752h45.208zm0-61.261h-52.708-.692v-20.167h.692 52.708zm100.125.711c-.778 7.478-5.289 50.818-6.302 60.55h-78.823c0-4.779 0-125.489 0-129.839 0-4.142-3.357-7.5-7.5-7.5s-7.5 3.358-7.5 7.5v33.411h-45.208v-25.75c0-28.91 20.509-47.872 34.334-53.592l63.081-24.637 37.336 30.962c4.199 3.484 10.235 4.484 15.581 1.95l5.273 8.246c-3.756 36.092-6.484 62.303-10.272 98.699zm8.779 60.55 1.565-15.041 15.042 15.041zm45.815 0h-7.994l-34.255-34.255c1.568-15.064 1.251-12.017 2.035-19.553l38.635 38.636zm-11.336-108.911 2.508 24.096-25.505-25.505c1.239-11.903.796-7.65 2.036-19.554zm-18.962-40.176.468-4.493h13.846l2.185 20.991zm23.935 87.95 2.32 22.287-34.171-34.171 1.882-18.085zm-6.968-107.443h-19.152l-6.765-10.577c.814-1.206 6.591-9.76 7.382-10.931.011-.017.02-.036.031-.053.298-.445.562-.903.806-1.367.019-.036.044-.069.062-.106h16.119c.018.034.041.065.059.099.254.484.528.962.841 1.426l7.382 10.932zm2.167-40.939c-1.043.865-1.931 1.847-2.672 2.906h-18.142c-.741-1.06-1.629-2.042-2.672-2.906l-20.901-17.332c.06-.557.097-1.122.097-1.698v-11.325c20.202 8.688 44.297 9.157 64.862.192l.009 11.196c.001.609.05 1.207.122 1.799zm21.276 28.258-11.435-16.934 20.062-16.636c.027.011.055.021.082.032l21.632 8.377zm143.819 175.752c0 3.038-2.472 5.509-5.509 5.509h-39.698v-46.261h45.207zm8.193-55.752h-.692-52.708v-20.167h52.708.691v20.167z"/></g></g></svg>