<svg id="Layer_1" enable-background="new 0 0 1550 1550" height="512" viewBox="0 0 1550 1550" width="512" xmlns="http://www.w3.org/2000/svg"><g><g><g><g id="XMLID_2_"><path d="m1027.3 618.4h421.8v564.6h-421.8z" fill="#d4f3f6"/><g fill="#b2a6b3"><path d="m1519 568.5v705.6c0 11.1-9 20-20.1 20h-474.6-47.1c-11.1 0-20.1-9-20.1-20v-83.3-124.7-178.8-318.8c0-11.1 9-20 20.1-20h328.5 193.1c11.2-.1 20.2 8.9 20.2 20zm-70 614.5v-564.6h-421.8v564.6z"/><path d="m352.4 1207.6v70.5c0 8.8-7.1 15.9-15.9 15.9h-289.6c-8.8 0-15.9-7.1-15.9-15.9v-70.5z"/><path d="m352.4 717v70.5h-321.4v-70.5c0-8.8 7.1-16 15.9-16h91.5 198.1c8.8 0 15.9 7.1 15.9 16z"/></g><path d="m352.4 1066.1v141.5h-321.4v-420.1h321.4v99.7z" fill="#d4f3f6"/><path d="m636.1 1066.1h172.1v120.9h-172.1z" fill="#cdc2ca"/><path d="m636.1 1187h172.1 122.5c9.3 0 18.2 1.3 26.6 3.8v83.3c0 11.1 9 20 20.1 20h-557.5v-13.4c0-51.8 42-93.8 93.8-93.8z" fill="#e5e0e6"/><path d="m957.3 887.2v178.9h-149.1-172.1-283.7v-178.9z" fill="#e5e0e4"/><path d="m1305.8 309.4v239h-328.5c-11.1 0-20.1 9-20.1 20v318.8h-604.8v-99.7-70.5c0-8.8-7.1-16-15.9-16h-198.1v-391.6c0-29.6 24-53.6 53.6-53.6h1060.3c29.5.1 53.5 24.1 53.5 53.6z" fill="#d4f3f6"/></g></g></g><g><g><g><g><g><g><path d="m957.3 1087.1h-604.9c-11.6 0-21-9.4-21-21s9.4-21 21-21h604.9c11.6 0 21 9.4 21 21s-9.5 21-21 21z"/></g><g><path d="m138.4 722c-11.6 0-21-9.4-21-21v-391.6c0-41.1 33.5-74.6 74.6-74.6h1060.3c41.1 0 74.6 33.5 74.6 74.6v239c0 11.6-9.4 21-21 21s-21-9.4-21-21v-239c0-18-14.6-32.6-32.6-32.6h-1060.3c-18 0-32.6 14.6-32.6 32.6v391.6c0 11.6-9.4 21-21 21z"/></g><g><path d="m957.3 908.2h-604.9c-11.6 0-21-9.4-21-21s9.4-21 21-21h604.9c11.6 0 21 9.4 21 21s-9.5 21-21 21z"/></g><g><circle cx="722.1" cy="976.6" r="25.9"/></g></g><g><g><path d="m636.1 1201.7c-11.6 0-21-9.4-21-21v-114.6c0-11.6 9.4-21 21-21s21 9.4 21 21v114.6c0 11.6-9.4 21-21 21z"/></g><g><path d="m808.2 1201.7c-11.6 0-21-9.4-21-21v-114.6c0-11.6 9.4-21 21-21s21 9.4 21 21v114.6c0 11.6-9.4 21-21 21z"/></g></g><g><path d="m1024.4 1315.1h-604.5c-11.6 0-21-9.4-21-21v-13.4c0-63.3 51.5-114.8 114.8-114.8h417c11.1 0 22.1 1.6 32.6 4.7 11.1 3.3 17.5 15 14.2 26.1s-15 17.5-26.1 14.2c-6.7-2-13.6-3-20.7-3h-417c-37.6 0-68.6 28.6-72.4 65.2h583.1c11.6 0 21 9.4 21 21s-9.4 21-21 21z"/></g></g></g></g><g><g><g><g><g><path d="m336.5 1315.1h-289.6c-20.4 0-36.9-16.6-36.9-36.9v-561.3c0-20.4 16.6-36.9 36.9-36.9h289.5c20.4 0 36.9 16.6 36.9 36.9v561.2c.1 20.5-16.5 37-36.8 37zm-284.5-42h279.4v-551.1h-279.4z"/></g><g><g><path d="m352.4 808.5h-321.4c-11.6 0-21-9.4-21-21s9.4-21 21-21h321.4c11.6 0 21 9.4 21 21s-9.4 21-21 21z"/></g><g><path d="m352.4 1228.6h-321.4c-11.6 0-21-9.4-21-21s9.4-21 21-21h321.4c11.6 0 21 9.4 21 21s-9.4 21-21 21z"/></g></g></g></g></g></g><g><g><path d="m1499 1315.1h-521.7c-22.6 0-41-18.4-41-41v-705.6c0-22.6 18.4-41 41-41h521.7c22.6 0 41 18.4 41 41v705.6c0 22.6-18.4 41-41 41zm-520.7-42h519.7v-703.7h-519.8v703.7z"/></g><g><path d="m1449 1204h-421.8c-11.6 0-21-9.4-21-21v-564.6c0-11.6 9.4-21 21-21h421.8c11.6 0 21 9.4 21 21v564.6c0 11.6-9.4 21-21 21zm-400.7-42h379.7v-522.6h-379.8v522.6z"/></g><g><circle cx="1238.1" cy="1238.6" r="19.9"/></g></g></g></g></svg>