<svg id="Layer_1_2_" enable-background="new 0 0 48 48" height="512" viewBox="0 0 48 48" width="512" xmlns="http://www.w3.org/2000/svg"><path d="m25 13c-2.209 0-4-1.791-4-4s1.791-4 4-4 4 1.791 4 4-1.791 4-4 4zm3.929 5.585-6.757-6.757c-1.562-1.562-4.095-1.562-5.657 0l-8.515 8.515c-1.562 1.562-1.562 4.095 0 5.657s4.095 1.562 5.657 0l8.515-8.515 3.928 3.928c.781.781 2.047.781 2.828 0s.782-2.047.001-2.828z" fill="#ccc"/><path d="m8 26c-1.562-1.562-1.562-4.095 0-5.657l8.515-8.515c1.562-1.562 4.095-1.562 5.657 0 0 0-3.865 2.431-7.301 7.301s-6.871 6.871-6.871 6.871zm14.172-14.172s.049-1.129 2.578-2.578 3.079-3.079 3.079-3.079c-.724-.723-1.724-1.171-2.829-1.171-2.209 0-4 1.791-4 4 0 1.105.448 2.105 1.172 2.828z" fill="#efefef"/><path d="m43 30c-2.209 0-4-1.791-4-4s1.791-4 4-4 4 1.791 4 4-1.791 4-4 4zm-8-8h-12c-2.209 0-4 1.791-4 4h-16c-1.105 0-2 .895-2 2s.895 2 2 2h32c2.209 0 4-1.791 4-4s-1.791-4-4-4z" fill="#ccc"/><path d="m40.172 28.828c-.724-.723-1.172-1.723-1.172-2.828 0-2.209 1.791-4 4-4 1.105 0 2.105.448 2.828 1.172 0 0-.83 1.631-2.815 2.815s-2.841 2.841-2.841 2.841zm-17.172-.828c0-1.105.895-2 2-2h3s.436-1.092 2-2 2-2 2-2h-9c-2.209 0-4 1.791-4 4h-16c-1.105 0-2 .895-2 2s.895 2 2 2h21l.18-.18c-.694-.313-1.18-1.009-1.18-1.82z" fill="#efefef"/><path d="m3 33h42v10h-42z" fill="#f2d6ad"/><path d="m29 33h-26v10h16s.747-2.144 4.464-4.464c3.716-2.32 5.536-5.536 5.536-5.536z" fill="#fcf6f2"/><path d="m1 30h46v4h-46z" fill="#bc9c73"/><path d="m26 30h-25v4h21s.482-1.182 2-2c1.519-.818 2-2 2-2z" fill="#ccb9ae"/><path d="m46.998 29.136c-.058-.001-.116 0-.173-.001.839-1.036 1.139-2.097 1.153-3.095.059-4.373-6.506-7.536-9.03-2.059-1.911-3.606-4.662-2.475-8.905-2.844 1.217-2.184-1.144-3.739-2.463-5.138 0 0-1.216-1.207-2.35-2.332 4.224.235 6.348-5.471 3.298-8.281-3.29-3.392-9.615-.079-8.024 4.566-1.261-.351-2.623-.244-3.774.541-.833.528-1.626 1.541-2.331 2.211-1.341 1.37-4.864 5.095-6.223 6.534-1.623 1.421-2.594 3.933-1.547 5.986-1.169.038-2.33.077-3.46.122-2.277-.085-3.401 2.358-2.337 4-.239.056-.421.266-.408.523l.096 1.938c.046 1.191.217 2.016.404 2.334.071.122.153.178.226.127.237.075.674.155 1.308.24-.203 2.799-.132 5.67-.197 8.482-.005.417.339.759.756.756 13.962.437 27.924.427 41.885-.022.412-.013.737-.356.727-.768-.064-2.657-.148-5.314-.252-7.971.911-.051 2.523.369 2.572-.985 0 0 .05-3.865.05-3.865.007-.554-.447-1.007-1.001-.999zm-7.395-3.604c.997-3.83 6.266-3.379 6.382.465-.116 3.84-5.427 4.199-6.412.407-.059-.183-.097-.299-.254-.424.127-.099.231-.258.284-.448zm-.377 3.038c.104.179.215.353.343.518-.223-.001-.446-.003-.67-.004.124-.163.232-.335.327-.514zm-16.283-21.99c1.217-.959 3.139-.837 4.187.238 2.457 2.483-.375 6.417-3.496 5.267-.601-.604-.899-1.001-1.581-1.432-.678-1.478-.285-3.233.89-4.073zm-15.359 15.798c.325-.899.912-1.418 1.64-2.09 1.433-1.367 5.136-4.907 6.501-6.256.353-.324 1.25-1.263 1.59-1.553 1.492-1.378 3.405-.731 4.581.7 1.383 1.348 5.057 4.923 6.402 6.217.766.928-.653 2.382-1.694 1.097-2.192-1.93-4.615-4.039-6.843-5.906-.486-.409-.992-.647-1.223-.552-.281.116-.05.679.515 1.259.722.74 1.457 1.467 2.186 2.2-2.839 2.169-5.327 4.694-7.462 7.551-2.025.038-4.067.086-6.088.147-.414-.876-.46-1.91-.105-2.814zm17.166-1.388c-3.351-.297-5.894.794-6.672 3.993-.719.007-1.445.016-2.18.026 2.317-1.973 4.372-4.207 6.171-6.683 1.056 1.068 1.267 1.277 2.681 2.664zm-23.048 6.599c.24-.552.764-.85 1.466-.779 5.104.13 10.721.188 15.799.156 1.12-.043.928-1.102 1.135-1.881.461-1.432 1.816-2.283 3.348-2.164 2.777-.002 8.356-.071 11.134-.14 1.683-.19 3.154.781 3.722 2.358.137.365.262.701.417.883-.002.003-.003.008-.006.012-.115.023-.204.058-.219.105-.71 1.395-1.42 2.204-2.606 2.927-3.881-.003-7.761.012-11.642.04-.851-.577-.545-1.859.375-2.107.365-.104 2.287.009 2.734-.012 2.74-.025 5.458-.154 8.186-.543.615-.124.719-.899-.001-1-2.732-.4-5.473-.451-8.193-.457-.944.073-2.428-.124-3.377.25-1.718.631-2.171 2.586-1.459 3.883-6.778.053-13.556.132-20.333.192-.514-.423-.708-1.182-.48-1.723zm42.413 14.59c-13.46-.164-26.921-.154-40.381.047-.135-2.528-.184-5.094-.413-7.613 13.677.329 27.355.261 41.033.365-.097 2.401-.174 4.801-.239 7.201zm1.855-9.175c-6.678.08-36-.113-44.651.947.201-.461.219-2.607.199-3.517 14.823.548 29.648.484 44.471.688z"/></svg>