<?xml version="1.0" encoding="UTF-8"?>
<!-- Generated by Pixelmator Pro 3.3.2 -->
<svg width="1400" height="980" viewBox="0 0 1400 980" xmlns="http://www.w3.org/2000/svg" xmlns:xlink="http://www.w3.org/1999/xlink">
    <g id="Object">
        <g id="Group">
            <path id="Path" fill="#f16522" stroke="none" d="M 85.71933 268.219299 L 85.71933 278.080017 C 85.71933 280.831787 87.89785 283.010376 90.649689 283.010376 L 90.649689 263.28894 C 88.01252 263.28894 85.71933 265.582153 85.71933 268.219299 Z"/>
            <path id="path1" fill="#282f39" stroke="none" d="M 90.879005 260.3078 C 90.19104 260.3078 89.732414 260.881104 89.732414 261.454407 L 89.732414 284.84491 C 89.732414 285.532898 90.30571 285.991516 90.879005 285.991516 L 93.057526 285.991516 L 93.057526 260.3078 L 90.879005 260.3078 Z"/>
            <path id="path2" fill="#f16522" stroke="none" d="M 77.463852 525.85907 L 77.463852 546.727112 C 77.463852 552.460083 82.050232 557.046448 87.783203 557.046448 L 87.783203 515.539734 C 82.164879 515.539734 77.463852 520.126099 77.463852 525.85907 Z"/>
            <path id="path3" fill="#f8bb15" stroke="none" d="M 1292.624756 440.781799 L 1113.985229 425.990723 C 1111.233398 425.761414 1109.169556 423.582886 1109.054932 420.831055 L 1104.927124 262.830322 C 1104.583252 247.924622 1092.314575 236 1077.408813 236 L 118.855904 236 C 104.408821 236 92.828217 247.695251 92.828217 262.02771 L 92.828217 628.593994 C 92.828217 642.238403 103.376877 653.704346 117.021362 654.736328 L 286.602692 667.463501 L 1048.170776 667.463501 L 1115.47583 667.463501 L 1281.502686 667.463501 C 1302.714722 667.463501 1320.02832 650.264587 1320.02832 628.937988 L 1320.02832 470.478577 C 1320.02832 454.999573 1308.10376 442.04303 1292.624756 440.781799 Z"/>
            <path id="path4" fill="#273232" stroke="none" d="M 1064.452393 264.664856 C 1064.452393 267.767761 1061.937012 270.283203 1058.834106 270.283203 C 1055.731201 270.283203 1053.215698 267.767761 1053.215698 264.664856 C 1053.215698 261.561951 1055.731201 259.046509 1058.834106 259.046509 C 1061.937012 259.046509 1064.452393 261.561951 1064.452393 264.664856 Z"/>
            <path id="path5" fill="#ffcc52" stroke="none" d="M 1292.624756 440.781799 L 1113.985229 425.990723 C 1111.233398 425.761414 1109.169556 423.582886 1109.054932 420.831055 L 1109.054932 419.225769 C 1074.771729 422.321594 1050.119995 424.614807 1050.119995 424.614807 C 1050.119995 424.614807 1296.408447 474.03299 1308.218384 484.581665 C 1313.6073 489.397369 1317.391113 495.932983 1320.02832 501.55127 L 1320.02832 470.478577 C 1320.02832 454.999573 1308.10376 442.04303 1292.624756 440.781799 Z"/>
            <path id="path6" fill="#cc8429" stroke="none" d="M 92.828217 568.971069 L 92.828217 628.593994 C 92.828217 642.238403 103.376877 653.704346 117.021362 654.736328 L 286.602692 667.463501 L 1048.170776 667.463501 L 1115.47583 667.463501 L 1281.502686 667.463501 C 1302.714722 667.463501 1320.02832 650.264587 1320.02832 628.937988 L 1320.02832 568.627075 C 1065.025757 568.971069 292.106323 569.773621 92.828217 568.971069 Z"/>
            <g id="g1">
                <g id="g2">
                    <path id="path7" fill="#3c4648" stroke="none" d="M 838.343933 431.494385 L 682.177795 431.494385 L 682.177795 287.023438 L 838.343933 287.023438 L 838.343933 431.494385 Z M 699.720642 414.066101 L 820.91571 414.066101 L 820.91571 304.451721 L 699.720642 304.451721 L 699.720642 414.066101 Z"/>
                </g>
            </g>
            <g id="g3">
                <path id="path8" fill="#282f39" stroke="none" d="M 670.941162 431.494385 L 514.774963 431.494385 L 514.774963 287.023438 L 670.941162 287.023438 L 670.941162 431.494385 Z M 532.203247 414.066101 L 653.398315 414.066101 L 653.398315 304.451721 L 532.203247 304.451721 L 532.203247 414.066101 Z"/>
            </g>
            <g id="g4">
                <g id="g5">
                    <path id="path9" fill="#3c4648" stroke="none" d="M 503.423676 431.494385 L 347.257538 431.494385 L 347.257538 287.023438 L 503.423676 287.023438 L 503.423676 431.494385 Z M 364.800446 414.066101 L 485.995483 414.066101 L 485.995483 304.451721 L 364.800446 304.451721 L 364.800446 414.066101 Z"/>
                </g>
            </g>
            <g id="g6">
                <g id="g7">
                    <path id="path10" fill="#3c4648" stroke="none" d="M 336.020905 431.494385 L 179.854721 431.494385 L 179.854721 287.023438 L 336.020905 287.023438 L 336.020905 431.494385 Z M 197.282974 414.066101 L 318.477997 414.066101 L 318.477997 304.451721 L 197.282974 304.451721 L 197.282974 414.066101 Z"/>
                </g>
            </g>
            <path id="path11" fill="#3c4648" stroke="none" d="M 92.828217 431.494385 L 164.719681 431.494385 L 164.719681 287.023438 L 92.828217 287.023438 L 92.828217 431.494385 Z M 147.291458 304.451721 L 147.291458 414.066101 L 100.854378 414.066101 L 100.854378 304.451721 L 147.291458 304.451721 Z"/>
            <path id="path12" fill="#bae3ee" stroke="none" d="M 691.006592 295.737549 L 829.629822 295.737549 L 829.629822 422.780212 L 691.006592 422.780212 Z"/>
            <path id="path13" fill="#bae3ee" stroke="none" d="M 523.489075 295.737549 L 662.112366 295.737549 L 662.112366 422.780212 L 523.489075 422.780212 Z"/>
            <path id="path14" fill="#bae3ee" stroke="none" d="M 356.086304 295.737549 L 494.709595 295.737549 L 494.709595 422.780212 L 356.086304 422.780212 Z"/>
            <path id="path15" fill="#bae3ee" stroke="none" d="M 188.568848 295.737549 L 327.192108 295.737549 L 327.192108 422.780212 L 188.568848 422.780212 Z"/>
            <path id="path16" fill="#bae3ee" stroke="none" d="M 92.140251 295.737549 L 156.005569 295.737549 L 156.005569 422.780212 L 92.140251 422.780212 Z"/>
            <path id="path17" fill="#3c4648" stroke="none" d="M 1109.169556 420.831055 L 1109.054932 414.295471 L 1062.044556 414.295471 L 1062.044556 299.177307 L 1106.07373 299.177307 L 1105.844482 288.972656 L 1050.349243 288.972656 L 1050.349243 424.729431 L 1111.00415 424.729431 C 1109.857544 423.69751 1109.169556 422.321594 1109.169556 420.831055 Z"/>
            <path id="path18" fill="#bae3ee" stroke="none" d="M 1105.844482 295.737549 L 1057.802124 295.737549 L 1057.802124 417.735229 L 1109.054932 417.735229 Z"/>
            <path id="path19" fill="#cc8429" stroke="none" d="M 1029.939819 295.737549 L 866.550171 295.737549 C 862.193115 295.737549 858.753357 299.177307 858.753357 303.534424 L 858.753357 655.424255 L 1037.736694 655.424255 L 1037.736694 303.534424 C 1037.736694 299.177307 1034.182251 295.737549 1029.939819 295.737549 Z"/>
            <path id="path20" fill="#f8bb15" stroke="none" d="M 1022.945679 302.617126 L 873.429749 302.617126 C 869.531372 302.617126 866.320801 305.827637 866.320801 309.726013 L 866.320801 655.997559 L 1030.054565 655.997559 L 1030.054565 309.726013 C 1030.054565 305.827637 1026.95874 302.617126 1022.945679 302.617126 Z"/>
            <g id="g8">
                <path id="path21" fill="#3c4648" stroke="none" d="M 933.625916 309.267395 L 886.042236 309.267395 C 877.901489 309.267395 871.251221 315.917664 871.251221 324.058472 L 871.251221 511.641357 C 871.251221 519.782104 877.901489 526.432373 886.042236 526.432373 L 933.625916 526.432373 C 941.766785 526.432373 948.417053 519.782104 948.417053 511.641357 L 948.417053 323.943787 C 948.417053 315.802979 941.766785 309.267395 933.625916 309.267395 Z M 930.874146 508.774872 L 888.794128 508.774872 L 888.794128 326.695618 L 930.874146 326.695618 L 930.874146 508.774872 Z"/>
                <path id="path22" fill="#3c4648" stroke="none" d="M 1011.479736 309.267395 L 963.896057 309.267395 C 955.755188 309.267395 949.10498 315.917664 949.10498 324.058472 L 949.10498 511.641357 C 949.10498 519.782104 955.755188 526.432373 963.896057 526.432373 L 1011.479736 526.432373 C 1019.620544 526.432373 1026.270752 519.782104 1026.270752 511.641357 L 1026.270752 323.943787 C 1026.156128 315.802979 1019.50592 309.267395 1011.479736 309.267395 Z M 1008.727905 508.774872 L 966.647827 508.774872 L 966.647827 326.695618 L 1008.727905 326.695618 L 1008.727905 508.774872 Z"/>
            </g>
            <path id="path23" fill="#cc8429" stroke="none" d="M 92.828217 444.106873 L 858.753357 444.106873 L 858.753357 459.585938 L 92.828217 459.585938 Z"/>
            <path id="path24" fill="#cc8429" stroke="none" d="M 92.828217 520.814087 L 858.753357 520.814087 L 858.753357 536.293091 L 92.828217 536.293091 Z"/>
            <path id="path25" fill="#cc8429" stroke="none" d="M 92.828217 282.781067 L 1105.500366 282.781067 L 1105.271118 273.149719 L 92.828217 273.149719 Z"/>
            <path id="path26" fill="#282f39" stroke="none" d="M 1169.939087 548.447021 C 1111.806641 548.447021 1064.681641 595.572021 1064.681641 653.704346 C 1064.681641 660.927856 1065.369629 668.036804 1066.860229 674.916382 L 1115.590454 674.916382 L 1273.247192 674.916382 C 1274.623047 668.036804 1275.425781 660.927856 1275.425781 653.704346 C 1275.311157 595.686707 1228.186035 548.447021 1169.939087 548.447021 Z"/>
            <path id="path27" fill="#231f20" stroke="none" d="M 1169.939087 561.976807 C 1119.259521 561.976807 1078.096924 603.139526 1078.096924 653.819092 C 1078.096924 661.157227 1079.01416 668.151489 1080.619385 675.031067 L 1115.590454 675.031067 L 1259.373413 675.031067 C 1260.97876 668.266113 1261.895874 661.157227 1261.895874 653.819092 C 1261.78125 603.024902 1220.733154 561.976807 1169.939087 561.976807 Z"/>
            <path id="path28" fill="#282f39" stroke="none" d="M 1255.933716 658.405396 C 1255.933716 705.898926 1217.432617 744.400024 1169.939087 744.400024 C 1122.445557 744.400024 1083.944458 705.898926 1083.944458 658.405396 C 1083.944458 610.911865 1122.445557 572.410889 1169.939087 572.410889 C 1217.432617 572.410889 1255.933716 610.911865 1255.933716 658.405396 Z"/>
            <path id="path29" fill="#58595b" stroke="none" d="M 1092.199951 658.405396 C 1091.626587 648.200684 1093.461182 637.881348 1097.015747 628.249939 C 1100.684814 618.618591 1106.303101 609.675171 1113.641357 602.107605 C 1120.864746 594.5401 1129.693726 588.57782 1139.324951 584.450073 C 1148.956421 580.322266 1159.505127 578.258423 1169.939087 578.258423 C 1180.487671 578.258423 1190.921753 580.437012 1200.553101 584.450073 C 1210.18457 588.57782 1219.013306 594.5401 1226.236816 602.107605 C 1233.460449 609.560425 1239.193481 618.618591 1242.862427 628.249939 C 1246.41687 637.995972 1248.251465 648.315308 1247.678101 658.405396 C 1246.760986 637.995972 1237.817383 618.618591 1223.484985 604.859497 C 1209.152588 591.100342 1189.660522 583.074158 1169.939087 583.188843 C 1150.217651 583.074158 1130.61084 590.985596 1116.393066 604.859497 C 1102.060669 618.503906 1093.11731 637.995972 1092.199951 658.405396 Z"/>
            <path id="path30" fill="#231f20" stroke="none" d="M 1218.325317 658.405396 C 1218.325317 685.128418 1196.662109 706.791626 1169.939087 706.791626 C 1143.216064 706.791626 1121.552734 685.128418 1121.552734 658.405396 C 1121.552734 631.682373 1143.216064 610.019165 1169.939087 610.019165 C 1196.662109 610.019165 1218.325317 631.682373 1218.325317 658.405396 Z"/>
            <path id="path31" fill="#929497" stroke="none" d="M 1211.560425 658.405396 C 1211.560425 681.392273 1192.925903 700.026794 1169.939087 700.026794 C 1146.952148 700.026794 1128.317627 681.392273 1128.317627 658.405396 C 1128.317627 635.418579 1146.952148 616.783997 1169.939087 616.783997 C 1192.925903 616.783997 1211.560425 635.418579 1211.560425 658.405396 Z"/>
            <path id="path32" fill="#e6e7e8" stroke="none" d="M 1188.170044 658.405396 C 1188.170044 668.473999 1180.00769 676.63623 1169.939087 676.63623 C 1159.870483 676.63623 1151.708252 668.473999 1151.708252 658.405396 C 1151.708252 648.336792 1159.870483 640.174561 1169.939087 640.174561 C 1180.00769 640.174561 1188.170044 648.336792 1188.170044 658.405396 Z"/>
            <path id="path33" fill="#282f39" stroke="none" d="M 1174.410889 658.405396 C 1174.410889 660.875061 1172.408813 662.877075 1169.939087 662.877075 C 1167.46936 662.877075 1165.467407 660.875061 1165.467407 658.405396 C 1165.467407 655.935791 1167.46936 653.933716 1169.939087 653.933716 C 1172.408813 653.933716 1174.410889 655.935791 1174.410889 658.405396 Z"/>
            <g id="g9">
                <g id="g10">
                    <path id="path34" fill="#282f39" stroke="none" d="M 1173.264282 632.72168 C 1173.264282 634.558105 1171.775391 636.046875 1169.939087 636.046875 C 1168.102661 636.046875 1166.613892 634.558105 1166.613892 632.72168 C 1166.613892 630.885254 1168.102661 629.396545 1169.939087 629.396545 C 1171.775391 629.396545 1173.264282 630.885254 1173.264282 632.72168 Z"/>
                    <path id="path35" fill="#282f39" stroke="none" d="M 1173.264282 685.006348 C 1173.264282 686.842773 1171.775391 688.331543 1169.939087 688.331543 C 1168.102661 688.331543 1166.613892 686.842773 1166.613892 685.006348 C 1166.613892 683.169922 1168.102661 681.681274 1169.939087 681.681274 C 1171.775391 681.681274 1173.264282 683.169922 1173.264282 685.006348 Z"/>
                </g>
                <g id="g11">
                    <path id="path36" fill="#282f39" stroke="none" d="M 1199.406494 658.864014 C 1199.406494 660.700439 1197.917847 662.189209 1196.081421 662.189209 C 1194.244995 662.189209 1192.756348 660.700439 1192.756348 658.864014 C 1192.756348 657.027588 1194.244995 655.53894 1196.081421 655.53894 C 1197.917847 655.53894 1199.406494 657.027588 1199.406494 658.864014 Z"/>
                    <path id="path37" fill="#282f39" stroke="none" d="M 1147.121826 658.864014 C 1147.121826 660.700439 1145.633179 662.189209 1143.796753 662.189209 C 1141.960327 662.189209 1140.471558 660.700439 1140.471558 658.864014 C 1140.471558 657.027588 1141.960327 655.53894 1143.796753 655.53894 C 1145.633179 655.53894 1147.121826 657.027588 1147.121826 658.864014 Z"/>
                </g>
                <g id="g12">
                    <path id="path38" fill="#282f39" stroke="none" d="M 1190.825806 638.023865 C 1192.12439 639.322388 1192.12439 641.427673 1190.825806 642.726257 C 1189.527344 644.024719 1187.421997 644.02478 1186.123413 642.726318 C 1184.824951 641.427734 1184.824951 639.322388 1186.123413 638.023865 C 1187.421997 636.725281 1189.527344 636.725342 1190.825806 638.023865 Z"/>
                    <path id="path39" fill="#282f39" stroke="none" d="M 1153.848511 675.082397 C 1155.147217 676.380859 1155.147217 678.486206 1153.848755 679.784668 C 1152.550171 681.083252 1150.444702 681.083252 1149.146362 679.784668 C 1147.847656 678.486206 1147.847656 676.380859 1149.146362 675.082275 C 1150.444702 673.783813 1152.550171 673.783813 1153.848511 675.082397 Z"/>
                </g>
                <g id="g13">
                    <path id="path40" fill="#282f39" stroke="none" d="M 1190.866577 675.041687 C 1192.165039 676.34021 1192.165039 678.445557 1190.866577 679.744141 C 1189.567993 681.042603 1187.462646 681.042664 1186.164063 679.744141 C 1184.865601 678.445618 1184.865601 676.34021 1186.164063 675.041687 C 1187.462646 673.743164 1189.567993 673.743164 1190.866577 675.041687 Z"/>
                    <path id="path41" fill="#282f39" stroke="none" d="M 1153.807983 638.064514 C 1155.106567 639.363037 1155.106567 641.468323 1153.807983 642.766846 C 1152.509521 644.065369 1150.404175 644.065369 1149.105713 642.766846 C 1147.807129 641.468323 1147.807129 639.363037 1149.105713 638.064453 C 1150.404175 636.765991 1152.509521 636.765991 1153.807983 638.064514 Z"/>
                </g>
            </g>
            <g id="g14">
                <g id="g15">
                    <path id="path42" fill="#282f39" stroke="none" d="M 1175.052734 645.829041 C 1175.880249 646.147461 1176.292847 647.076172 1175.974487 647.903564 C 1175.656128 648.730957 1174.727295 649.143677 1173.900024 648.825317 C 1173.07251 648.506958 1172.659912 647.578125 1172.978149 646.750671 C 1173.296631 645.923279 1174.225342 645.510681 1175.052734 645.829041 Z"/>
                    <path id="path43" fill="#282f39" stroke="none" d="M 1166.079712 669.099121 C 1166.906982 669.41748 1167.319824 670.346313 1167.001343 671.173706 C 1166.683105 672.001099 1165.75415 672.413818 1164.926758 672.095459 C 1164.099365 671.7771 1163.686768 670.848267 1164.005005 670.020874 C 1164.323364 669.193359 1165.252197 668.780701 1166.079712 669.099121 Z"/>
                </g>
                <g id="g16">
                    <path id="path44" fill="#282f39" stroke="none" d="M 1182.168579 661.876526 C 1182.99585 662.194885 1183.408569 663.123718 1183.09021 663.951172 C 1182.771851 664.778564 1181.843018 665.191284 1181.015625 664.872925 C 1180.188232 664.554565 1179.775635 663.625671 1180.093872 662.798279 C 1180.412231 661.970825 1181.341064 661.558167 1182.168579 661.876526 Z"/>
                    <path id="path45" fill="#282f39" stroke="none" d="M 1158.898193 652.903442 C 1159.725586 653.221802 1160.138184 654.150513 1159.819946 654.977905 C 1159.501465 655.805298 1158.572632 656.218018 1157.745361 655.899719 C 1156.917847 655.58136 1156.505249 654.652466 1156.823486 653.825073 C 1157.141968 652.997681 1158.070801 652.585083 1158.898193 652.903442 Z"/>
                </g>
                <g id="g17">
                    <path id="path46" fill="#282f39" stroke="none" d="M 1182.888062 653.236206 C 1183.248169 654.046387 1182.883057 654.994934 1182.072876 655.354858 C 1181.262573 655.714844 1180.313965 655.349854 1179.953979 654.539673 C 1179.594238 653.729492 1179.959229 652.780762 1180.769287 652.420898 C 1181.57959 652.060913 1182.52832 652.425964 1182.888062 653.236206 Z"/>
                    <path id="path47" fill="#282f39" stroke="none" d="M 1160.098877 663.437744 C 1160.458862 664.247925 1160.093872 665.196655 1159.283569 665.556519 C 1158.473267 665.916443 1157.52478 665.551392 1157.164795 664.741211 C 1156.80481 663.93103 1157.169922 662.982422 1157.980103 662.622559 C 1158.790283 662.262573 1159.738892 662.627563 1160.098877 663.437744 Z"/>
                </g>
                <g id="g18">
                    <path id="path48" fill="#282f39" stroke="none" d="M 1176.489502 669.778198 C 1176.849365 670.588379 1176.484375 671.536987 1175.674316 671.896851 C 1174.864014 672.256836 1173.915405 671.891785 1173.555542 671.081604 C 1173.195557 670.271362 1173.560547 669.322754 1174.37085 668.962891 C 1175.18103 668.602905 1176.129517 668.968018 1176.489502 669.778198 Z"/>
                    <path id="path49" fill="#282f39" stroke="none" d="M 1166.3927 646.942383 C 1166.752686 647.752563 1166.387573 648.701172 1165.577393 649.061096 C 1164.76709 649.421021 1163.818604 649.05603 1163.458618 648.24585 C 1163.098755 647.435669 1163.463745 646.487 1164.273926 646.127075 C 1165.084106 645.76709 1166.032837 646.132141 1166.3927 646.942383 Z"/>
                </g>
            </g>
            <path id="path50" fill="#282f39" stroke="none" d="M 398.166321 548.447021 C 340.033997 548.447021 292.908966 595.572021 292.908966 653.704346 C 292.908966 660.927856 293.596924 668.036804 295.087463 674.916382 L 343.817749 674.916382 L 501.474518 674.916382 C 502.850372 668.036804 503.653015 660.927856 503.653015 653.704346 C 503.423676 595.686707 456.298676 548.447021 398.166321 548.447021 Z"/>
            <path id="path51" fill="#231f20" stroke="none" d="M 398.166321 561.976807 C 347.486847 561.976807 306.324127 603.139526 306.324127 653.819092 C 306.324127 661.157227 307.241394 668.151489 308.846619 675.031067 L 343.817749 675.031067 L 487.600677 675.031067 C 489.205933 668.266113 490.123199 661.157227 490.123199 653.819092 C 490.008575 603.024902 448.845795 561.976807 398.166321 561.976807 Z"/>
            <path id="path52" fill="#282f39" stroke="none" d="M 484.160889 658.405396 C 484.160889 705.898926 445.659821 744.400024 398.166321 744.400024 C 350.672821 744.400024 312.171722 705.898926 312.171722 658.405396 C 312.171722 610.911865 350.672821 572.410889 398.166321 572.410889 C 445.659821 572.410889 484.160889 610.911865 484.160889 658.405396 Z"/>
            <path id="path53" fill="#58595b" stroke="none" d="M 320.427216 658.405396 C 319.853912 648.200684 321.688477 637.881348 325.24292 628.249939 C 328.912018 618.618591 334.530304 609.675171 341.868561 602.107605 C 349.092072 594.5401 357.920868 588.57782 367.552246 584.450073 C 377.183655 580.322266 387.73233 578.258423 398.166321 578.258423 C 408.714996 578.258423 419.149017 580.437012 428.780396 584.450073 C 438.411774 588.57782 447.24057 594.5401 454.464111 602.107605 C 461.687683 609.560425 467.420654 618.618591 471.089722 628.249939 C 474.644165 637.995972 476.478729 648.315308 475.905426 658.405396 C 474.988129 637.995972 466.044708 618.618591 451.71228 604.859497 C 437.379852 591.100342 417.887756 583.074158 398.166321 583.188843 C 378.444916 583.074158 358.838135 590.985596 344.620361 604.859497 C 330.173279 618.503906 321.344482 637.995972 320.427216 658.405396 Z"/>
            <path id="path54" fill="#231f20" stroke="none" d="M 446.552612 658.405396 C 446.552612 685.128418 424.889343 706.791626 398.166321 706.791626 C 371.443329 706.791626 349.78006 685.128418 349.78006 658.405396 C 349.78006 631.682373 371.443329 610.019165 398.166321 610.019165 C 424.889343 610.019165 446.552612 631.682373 446.552612 658.405396 Z"/>
            <path id="path55" fill="#929497" stroke="none" d="M 439.78772 658.405396 C 439.78772 681.392273 421.153168 700.026794 398.166321 700.026794 C 375.179474 700.026794 356.544952 681.392273 356.544952 658.405396 C 356.544952 635.418579 375.179474 616.783997 398.166321 616.783997 C 421.153168 616.783997 439.78772 635.418579 439.78772 658.405396 Z"/>
            <path id="path56" fill="#e6e7e8" stroke="none" d="M 416.397186 658.405396 C 416.397186 668.473999 408.234955 676.63623 398.166321 676.63623 C 388.097717 676.63623 379.935455 668.473999 379.935455 658.405396 C 379.935455 648.336792 388.097717 640.174561 398.166321 640.174561 C 408.234955 640.174561 416.397186 648.336792 416.397186 658.405396 Z"/>
            <path id="path57" fill="#282f39" stroke="none" d="M 402.638062 658.405396 C 402.638062 660.875061 400.635986 662.877075 398.166321 662.877075 C 395.696655 662.877075 393.694611 660.875061 393.694611 658.405396 C 393.694611 655.935791 395.696655 653.933716 398.166321 653.933716 C 400.635986 653.933716 402.638062 655.935791 402.638062 658.405396 Z"/>
            <g id="g19">
                <g id="g20">
                    <path id="path58" fill="#282f39" stroke="none" d="M 401.491455 632.72168 C 401.491455 634.558105 400.002716 636.046875 398.166321 636.046875 C 396.329895 636.046875 394.841187 634.558105 394.841187 632.72168 C 394.841187 630.885254 396.329895 629.396545 398.166321 629.396545 C 400.002716 629.396545 401.491455 630.885254 401.491455 632.72168 Z"/>
                    <path id="path59" fill="#282f39" stroke="none" d="M 401.491455 685.006348 C 401.491455 686.842773 400.002716 688.331543 398.166321 688.331543 C 396.329895 688.331543 394.841187 686.842773 394.841187 685.006348 C 394.841187 683.169922 396.329895 681.681274 398.166321 681.681274 C 400.002716 681.681274 401.491455 683.169922 401.491455 685.006348 Z"/>
                </g>
                <g id="g21">
                    <path id="path60" fill="#282f39" stroke="none" d="M 427.633789 658.864014 C 427.633789 660.700439 426.145111 662.189209 424.308685 662.189209 C 422.47226 662.189209 420.983582 660.700439 420.983582 658.864014 C 420.983582 657.027588 422.47226 655.53894 424.308685 655.53894 C 426.145111 655.53894 427.633789 657.027588 427.633789 658.864014 Z"/>
                    <path id="path61" fill="#282f39" stroke="none" d="M 375.349091 658.864014 C 375.349091 660.700439 373.860382 662.189209 372.023956 662.189209 C 370.187561 662.189209 368.698853 660.700439 368.698853 658.864014 C 368.698853 657.027588 370.187561 655.53894 372.023956 655.53894 C 373.860382 655.53894 375.349091 657.027588 375.349091 658.864014 Z"/>
                </g>
                <g id="g22">
                    <path id="path62" fill="#282f39" stroke="none" d="M 418.956421 638.049561 C 420.254944 639.348083 420.254944 641.45343 418.956421 642.751953 C 417.657898 644.050476 415.552582 644.050537 414.254059 642.751953 C 412.955505 641.45343 412.955505 639.348083 414.254059 638.049561 C 415.552582 636.751038 417.657898 636.751038 418.956421 638.049561 Z"/>
                    <path id="path63" fill="#282f39" stroke="none" d="M 381.979248 675.10791 C 383.277771 676.406433 383.277771 678.51178 381.979248 679.810303 C 380.680725 681.108826 378.575348 681.108765 377.276825 679.810303 C 375.978302 678.511719 375.978302 676.406433 377.276825 675.10791 C 378.575348 673.809387 380.680664 673.809387 381.979248 675.10791 Z"/>
                </g>
                <g id="g23">
                    <path id="path64" fill="#282f39" stroke="none" d="M 418.99704 675.067383 C 420.295563 676.365967 420.295593 678.471313 418.99707 679.769836 C 417.698547 681.068359 415.593201 681.068359 414.294678 679.769775 C 412.996155 678.471252 412.996094 676.365906 414.294647 675.067383 C 415.59317 673.76886 417.698517 673.768921 418.99704 675.067383 Z"/>
                    <path id="path65" fill="#282f39" stroke="none" d="M 381.938599 638.090088 C 383.237152 639.388611 383.237091 641.493896 381.938568 642.792419 C 380.640045 644.090942 378.53476 644.091003 377.236237 642.79248 C 375.937714 641.493896 375.937683 639.38855 377.236206 638.090088 C 378.534729 636.791504 380.640076 636.791565 381.938599 638.090088 Z"/>
                </g>
            </g>
            <g id="g24">
                <g id="g25">
                    <path id="path66" fill="#282f39" stroke="none" d="M 403.223175 645.759033 C 404.050598 646.077332 404.463226 647.006165 404.144897 647.833557 C 403.826508 648.661011 402.897736 649.073669 402.070282 648.755371 C 401.242889 648.437012 400.8302 647.508179 401.14856 646.680664 C 401.466949 645.853271 402.395782 645.440613 403.223175 645.759033 Z"/>
                    <path id="path67" fill="#282f39" stroke="none" d="M 394.250153 669.029175 C 395.077545 669.347534 395.490295 670.276367 395.171906 671.103821 C 394.853546 671.931213 393.924713 672.343872 393.09729 672.025513 C 392.269897 671.707153 391.857178 670.77832 392.175537 669.950928 C 392.493896 669.123535 393.42276 668.710876 394.250153 669.029175 Z"/>
                </g>
                <g id="g26">
                    <path id="path68" fill="#282f39" stroke="none" d="M 410.297791 661.913635 C 411.125244 662.231995 411.537842 663.160828 411.219482 663.98822 C 410.901154 664.815674 409.972351 665.228333 409.144928 664.909973 C 408.317535 664.591553 407.904846 663.66272 408.223206 662.835327 C 408.541534 662.007935 409.470398 661.595276 410.297791 661.913635 Z"/>
                    <path id="path69" fill="#282f39" stroke="none" d="M 387.027496 652.940491 C 387.854889 653.25885 388.267548 654.187683 387.949158 655.015137 C 387.630829 655.842529 386.702057 656.255188 385.874603 655.936829 C 385.047211 655.618408 384.634521 654.689575 384.952881 653.862183 C 385.27121 653.03479 386.200104 652.622192 387.027496 652.940491 Z"/>
                </g>
                <g id="g27">
                    <path id="path70" fill="#282f39" stroke="none" d="M 410.971832 653.227356 C 411.331787 654.037598 410.966766 654.986084 410.156525 655.346069 C 409.346313 655.706055 408.397736 655.341064 408.037781 654.530823 C 407.677856 653.720642 408.042847 652.771973 408.853119 652.411987 C 409.6633 652.052124 410.611908 652.417175 410.971832 653.227356 Z"/>
                    <path id="path71" fill="#282f39" stroke="none" d="M 388.182556 663.428955 C 388.542511 664.239136 388.17749 665.187744 387.367279 665.547729 C 386.557037 665.907654 385.608429 665.542603 385.248505 664.732422 C 384.88855 663.922119 385.253632 662.973633 386.063812 662.613708 C 386.874054 662.253784 387.822632 662.618774 388.182556 663.428955 Z"/>
                </g>
                <g id="g28">
                    <path id="path72" fill="#282f39" stroke="none" d="M 404.677979 669.722778 C 405.037933 670.532959 404.672943 671.481567 403.862732 671.841553 C 403.05246 672.201477 402.103882 671.836426 401.743927 671.026245 C 401.384003 670.216003 401.749023 669.267456 402.559265 668.907471 C 403.369476 668.547546 404.318054 668.912537 404.677979 669.722778 Z"/>
                    <path id="path73" fill="#282f39" stroke="none" d="M 394.47641 646.933533 C 394.836365 647.743774 394.471313 648.692322 393.661072 649.052246 C 392.850861 649.412231 391.902283 649.04718 391.542358 648.237 C 391.182404 647.426758 391.547424 646.478149 392.357605 646.118225 C 393.167877 645.758301 394.116486 646.123291 394.47641 646.933533 Z"/>
                </g>
            </g>
            <path id="path74" fill="#ffcc52" stroke="none" d="M 1178.882446 511.068054 C 1228.644653 511.068054 1273.132568 530.904114 1302.256104 561.976807 C 1278.177612 519.782104 1231.969849 491.231903 1178.882446 491.231903 C 1125.795166 491.231903 1079.702026 519.782104 1055.508911 561.976807 C 1084.632446 530.904114 1129.120361 511.068054 1178.882446 511.068054 Z"/>
            <path id="path75" fill="#ffcc52" stroke="none" d="M 1103.55127 254.804199 C 1099.882202 243.91156 1089.562866 236.114624 1077.52356 236.114624 L 118.855904 236.114624 C 107.045975 236.114624 97.07061 244.026184 93.860138 254.804199 L 1103.55127 254.804199 Z"/>
            <path id="path76" fill="#f1f1f2" stroke="none" d="M 1304.319946 514.163818 L 1320.02832 514.163818 L 1320.02832 554.638672 L 1304.319946 554.638672 Z"/>
            <path id="path77" fill="#282f39" stroke="none" d="M 1310.855591 552.116089 C 1309.479614 552.116089 1308.447632 551.084106 1308.447632 549.708252 L 1308.447632 521.502014 C 1308.447632 519.66748 1309.938232 518.17688 1311.772827 518.17688 L 1322.436157 518.17688 L 1322.436157 511.870605 L 1305.581177 511.870605 C 1303.746582 511.870605 1302.256104 513.361206 1302.256104 515.195801 L 1302.256104 553.950623 C 1302.256104 555.326538 1303.287964 556.358521 1304.66394 556.358521 L 1308.562378 556.358521 L 1321.633423 556.358521 L 1321.633423 552.116089 L 1310.855591 552.116089 Z"/>
            <g id="g29">
                <path id="path78" fill="#f16522" stroke="none" d="M 1287.923706 613.458923 L 1304.319946 613.458923 L 1304.319946 619.879822 L 1287.923706 619.879822 Z"/>
                <g id="g30">
                    <path id="path79" fill="#282f39" stroke="none" d="M 1305.581177 621.141113 L 1286.7771 621.141113 L 1286.7771 612.312317 L 1305.581177 612.312317 L 1305.581177 621.141113 Z M 1289.184937 618.618591 L 1303.058716 618.618591 L 1303.058716 614.720154 L 1289.184937 614.720154 L 1289.184937 618.618591 Z"/>
                </g>
            </g>
            <g id="g31">
                <path id="path80" fill="#f16522" stroke="none" d="M 259.199066 613.458923 L 275.595367 613.458923 L 275.595367 619.879822 L 259.199066 619.879822 Z"/>
                <g id="g32">
                    <path id="path81" fill="#282f39" stroke="none" d="M 276.741974 621.141113 L 257.937805 621.141113 L 257.937805 612.312317 L 276.741974 612.312317 L 276.741974 621.141113 Z M 260.460327 618.618591 L 274.334106 618.618591 L 274.334106 614.720154 L 260.460327 614.720154 L 260.460327 618.618591 Z"/>
                </g>
            </g>
            <path id="path82" fill="#282f39" stroke="none" d="M 88.241837 509.118835 C 86.865929 509.118835 85.71933 510.265411 85.71933 511.641357 L 85.71933 560.944946 C 85.71933 562.320801 86.865929 563.467346 88.241837 563.467346 L 92.828217 563.467346 L 92.828217 509.233459 L 88.241837 509.233459 Z"/>
            <g id="g33">
                <g id="g34">
                    <path id="path83" fill="#bae3ee" stroke="none" d="M 933.625916 317.981506 L 886.042236 317.981506 C 882.717163 317.981506 880.079956 320.618652 880.079956 323.943787 L 880.079956 511.526642 C 880.079956 514.851807 882.717163 517.488953 886.042236 517.488953 L 933.625916 517.488953 C 936.951111 517.488953 939.588257 514.851807 939.588257 511.526642 L 939.588257 323.943787 C 939.588257 320.618652 936.951111 317.981506 933.625916 317.981506 Z"/>
                    <path id="path84" fill="#bae3ee" stroke="none" d="M 1011.479736 317.981506 L 963.896057 317.981506 C 960.570923 317.981506 957.933777 320.618652 957.933777 323.943787 L 957.933777 511.526642 C 957.933777 514.851807 960.570923 517.488953 963.896057 517.488953 L 1011.479736 517.488953 C 1014.80481 517.488953 1017.442017 514.851807 1017.442017 511.526642 L 1017.442017 323.943787 C 1017.442017 320.618652 1014.80481 317.981506 1011.479736 317.981506 Z"/>
                </g>
            </g>
            <path id="path85" fill="#cc8429" stroke="none" d="M 946.353149 302.617126 L 950.022217 302.617126 L 950.022217 655.997559 L 946.353149 655.997559 Z"/>
            <path id="path86" fill="#3c4648" stroke="none" d="M 1107.105713 279.799927 L 1101.372681 279.799927 L 1101.372681 338.734863 L 1107.105713 338.734863 C 1111.00415 338.734863 1114.099854 335.639099 1114.099854 331.740662 L 1114.099854 286.794128 C 1114.2146 282.895752 1111.00415 279.799927 1107.105713 279.799927 Z"/>
            <path id="path87" fill="#ffffff" stroke="none" d="M 1097.130371 287.023438 L 1097.130371 330.250061 C 1097.130371 332.657898 1099.079468 334.492493 1101.372681 334.492493 L 1101.372681 282.666382 C 1099.079468 282.781067 1097.130371 284.730286 1097.130371 287.023438 Z"/>
            <path id="path88" fill="#273232" stroke="none" d="M 1102.633911 261.683716 L 1062.503174 261.683716 C 1060.668579 261.683716 1059.292725 263.174316 1059.292725 264.894165 C 1059.292725 266.040771 1060.209961 266.958069 1061.356567 266.958069 L 1101.831421 266.958069 C 1102.404663 266.958069 1102.977905 267.416687 1102.977905 268.104675 L 1102.977905 279.799927 L 1108.252319 279.799927 L 1108.252319 267.302002 C 1108.137573 264.206177 1105.729858 261.683716 1102.633911 261.683716 Z"/>
            <text id="SCHOOL-BUS" xml:space="preserve" x="557" y="507" font-family="Helvetica" font-size="43.221567" fill="#282f39">SCHOOL BUS</text>
        </g>
    </g>
    <g id="text"/>
</svg>
