<?xml version="1.0" encoding="UTF-8" standalone="no"?>
<!-- Generator: Adobe Illustrator 16.0.0, SVG Export Plug-In . SVG Version: 6.00 Build 0)  -->

<svg
   xmlns:dc="http://purl.org/dc/elements/1.1/"
   xmlns:cc="http://creativecommons.org/ns#"
   xmlns:rdf="http://www.w3.org/1999/02/22-rdf-syntax-ns#"
   xmlns:svg="http://www.w3.org/2000/svg"
   xmlns="http://www.w3.org/2000/svg"
   xmlns:sodipodi="http://sodipodi.sourceforge.net/DTD/sodipodi-0.dtd"
   xmlns:inkscape="http://www.inkscape.org/namespaces/inkscape"
   version="1.1"
   id="truck"
   x="0px"
   y="0px"
   width="660px"
   height="285.417px"
   viewBox="0 0 660 285.417"
   enable-background="new 0 0 660 285.417"
   xml:space="preserve"
   sodipodi:docname="seventies truck.svg"
   inkscape:version="0.92.0 r15299"><title
     id="title4176">late seventies truck</title><metadata
     id="metadata4174"><rdf:RDF><cc:Work
         rdf:about=""><dc:format>image/svg+xml</dc:format><dc:type
           rdf:resource="http://purl.org/dc/dcmitype/StillImage" /><dc:title>late seventies truck</dc:title><dc:date>8/5/2017</dc:date><dc:creator><cc:Agent><dc:title>cactus cowboy</dc:title></cc:Agent></dc:creator></cc:Work></rdf:RDF></metadata><defs
     id="defs4172" /><sodipodi:namedview
     pagecolor="#ffffff"
     bordercolor="#666666"
     borderopacity="1"
     objecttolerance="10"
     gridtolerance="10"
     guidetolerance="10"
     inkscape:pageopacity="0"
     inkscape:pageshadow="2"
     inkscape:window-width="1920"
     inkscape:window-height="1052"
     id="namedview4170"
     showgrid="false"
     inkscape:zoom="1"
     inkscape:cx="330"
     inkscape:cy="142.7085"
     inkscape:window-x="-9"
     inkscape:window-y="-9"
     inkscape:window-maximized="1"
     inkscape:current-layer="truck" /><g
     id="truck_parts"><path
       stroke="#AEA09D"
       stroke-width="0.9401"
       stroke-linejoin="round"
       d="M594.468,177.503   c-22.118,4.201-44.234,8.404-66.351,12.607c-15.033,2.857-14.914,1.53-17.442-12.957c-2.185-12.508-4.65-24.973-6.485-37.537   c-0.813-5.57-6.309-24.065-2.607-29.223c2.418-3.372,22.297-4.243,26.242-4.994c14.179-2.698,28.355-5.396,42.532-8.094   c14.282-2.718,12.765,2.163,15.344,15.279C589.673,132.793,596.173,156.916,594.468,177.503z"
       id="path3934" /><polygon
       fill="#3A3A3A"
       points="516.191,236.992 541.135,240.019 550.319,194.098 548.649,150.994 525.897,149.011    524.332,149.011 522.871,149.011 520.053,149.324 517.132,150.264 514.521,151.203 511.494,152.664 509.094,154.542    506.484,156.421 504.188,159.03 501.997,161.848 499.91,164.979 498.031,168.214 496.57,172.076 495.109,175.833 493.962,180.112    493.021,184.6 492.5,189.296 492.291,191.697 492.291,194.098 492.291,198.794 492.5,203.281 493.021,207.352 493.962,211.318    494.9,215.18 496.049,218.729 497.719,221.755 499.388,225.095 501.267,227.705 503.25,230.104 505.547,232.4 507.946,233.861    510.555,235.322 513.373,236.262  "
       id="polygon3936" /><polygon
       stroke="#FFFFFF"
       stroke-width="0.9401"
       stroke-linejoin="round"
       points="539.675,240.019 540.822,240.019    542.283,240.019 545.101,239.289 547.711,238.558 550.319,237.201 552.72,235.322 555.329,233.13 557.416,230.835 559.607,227.912    561.486,224.886 563.156,221.546 564.826,217.998 566.183,213.927 567.436,210.169 568.375,205.891 568.793,201.403    569.314,196.916 569.314,194.515 569.314,192.428 569.105,187.939 568.584,183.869 568.166,179.589 566.914,175.833    565.766,172.076 564.305,168.527 562.635,165.188 560.966,162.057 559.087,159.447 557,157.151 554.598,155.167 552.197,153.604    549.59,152.142 547.084,151.412 544.161,150.994 543.014,150.994 541.344,150.994 538.525,151.621 536.125,152.664    533.308,154.021 530.907,155.69 528.507,157.777 526.42,160.387 524.332,162.996 522.349,166.126 520.47,169.676 519.113,173.225    517.652,176.981 516.505,181.052 515.564,185.33 515.044,189.609 514.521,194.098 514.521,196.185 514.521,198.794    514.521,203.073 515.253,207.352 515.773,211.318 516.923,215.389 517.861,219.146 519.322,222.485 520.992,225.826    522.662,228.852 524.75,231.46 526.941,233.861 529.237,236.053 531.638,237.619 534.038,238.871 536.855,239.811  "
       id="polygon3938" /><polygon
       stroke="#FFFFFF"
       stroke-width="0.9401"
       stroke-linejoin="round"
       points="542.491,234.07 543.744,234.07 545.101,233.861    547.502,233.652 549.901,232.712 551.989,231.46 554.39,229.896 556.268,227.912 558.355,225.826 560.025,223.425 561.695,220.815    563.156,217.789 564.617,214.658 565.766,211.318 566.914,207.77 567.645,204.221 568.166,200.464 568.375,196.394    568.584,194.515 568.584,192.428 568.375,188.669 568.166,184.809 567.436,181.26 566.496,177.919 565.557,174.686    564.305,171.555 562.947,168.736 561.277,165.917 559.607,163.727 557.729,161.848 555.851,159.969 553.659,158.298 551.26,157.36    549.172,156.628 546.771,156.421 545.414,156.421 544.161,156.421 541.865,156.837 539.675,157.568 537.273,159.03    535.186,160.387 533.099,162.369 531.115,164.457 529.237,166.857 527.567,169.676 525.897,172.494 524.54,175.833    523.288,178.859 522.349,182.513 521.723,186.27 520.992,190.027 520.783,194.098 520.783,195.977 520.783,197.854    520.783,201.612 521.201,205.474 521.932,209.021 522.662,212.57 523.81,215.91 524.959,218.937 526.42,221.755 527.881,224.364    529.76,226.765 531.638,228.643 533.308,230.521 535.709,231.982 537.796,233.13 540.195,233.652  "
       id="polygon3940" /><polygon
       stroke="#000000"
       stroke-width="0.9401"
       stroke-linejoin="round"
       points="543.744,231.774 544.684,231.774    545.831,231.774 548.231,231.251 550.319,230.521 552.511,229.373 554.39,227.912 556.477,226.035 558.355,223.946    560.339,221.755 561.695,219.146 563.156,216.537 564.305,213.51 565.557,210.378 566.496,206.83 567.436,203.595 567.645,199.733    568.166,196.185 568.375,194.515 568.375,192.428 568.166,188.878 567.645,185.539 566.914,181.99 566.183,178.859    565.244,175.625 564.096,172.703 562.635,170.093 561.277,167.587 559.816,165.396 557.938,163.518 556.06,161.848    554.181,160.387 551.989,159.447 549.901,158.821 547.502,158.298 546.354,158.298 545.414,158.507 543.014,159.03    540.613,159.761 538.525,160.908 536.646,162.369 534.664,164.248 532.785,166.126 531.115,168.527 529.237,170.824    527.881,173.433 526.629,176.772 525.479,179.903 524.54,183.139 523.81,186.688 523.288,190.236 522.871,193.785 522.662,195.768    522.662,197.854 523.079,201.194 523.288,204.744 524.019,208.291 524.75,211.318 525.897,214.658 526.941,217.476    528.299,220.085 529.969,222.485 531.429,224.677 533.099,226.765 534.978,228.435 537.064,229.896 539.257,230.835    541.344,231.46  "
       id="polygon3942" /><polygon
       fill="#FFFFFF"
       stroke="#000000"
       stroke-width="0.9401"
       stroke-linejoin="round"
       points="542.283,222.276 543.223,222.276    545.623,221.755 547.294,221.337 548.964,220.398 550.319,219.458 551.78,218.207 553.45,216.537 554.39,214.658 555.851,212.988    556.79,210.9 557.729,208.5 558.669,206.414 559.087,203.804 559.816,201.194 560.339,198.585 560.548,195.768 560.548,194.515    560.548,192.846 560.339,190.236 560.339,187.417 559.816,184.809 559.087,182.721 558.355,180.529 557.416,178.233    556.477,176.042 555.537,174.373 554.39,172.703 552.72,171.346 551.571,170.093 550.11,168.945 548.44,168.214 547.084,167.796    545.414,167.587 544.161,167.587 541.865,168.005 540.195,168.527 538.525,169.466 537.064,170.406 535.709,171.763    534.246,173.225 532.785,174.895 531.638,176.772 530.698,178.859 529.76,181.26 528.819,183.453 528.09,186.061 527.567,188.669    527.149,191.279 526.941,194.098 526.941,195.455 526.941,196.707 526.941,199.524 527.149,202.134 527.567,204.535    528.299,207.144 529.028,209.439 529.969,211.63 530.698,213.51 531.846,215.389 533.308,216.85 534.455,218.52 535.916,219.667    537.587,220.815 538.943,221.546 540.613,221.755  "
       id="polygon3944" /><polygon
       fill="#FFFFFF"
       stroke="#000000"
       stroke-width="0.9401"
       stroke-linejoin="round"
       points="542.491,219.876 543.223,219.876    545.414,219.458 547.084,218.937 548.44,218.207 549.901,217.267 551.051,216.119 552.197,214.658 553.45,213.301 554.39,211.318    555.537,209.439 556.268,207.77 557,205.683 557.729,203.281 558.146,201.194 558.355,198.585 558.878,195.977 558.878,194.828    558.878,193.576 558.669,191.279 558.355,188.878 557.938,186.688 557.416,184.391 556.79,182.199 556.06,180.529 555.329,178.65    554.39,176.981 553.241,175.625 551.989,174.164 550.633,173.225 549.172,172.285 548.023,171.555 546.354,171.137    545.101,170.824 544.161,170.824 541.865,171.346 540.613,171.763 539.257,172.494 537.587,173.433 536.334,174.895    535.186,176.042 534.038,177.503 532.785,179.382 531.846,181.26 531.115,183.139 530.489,185.123 529.969,187.417    529.237,189.818 529.028,191.906 528.819,194.515 528.507,195.977 528.507,197.125 528.819,199.524 529.028,201.925    529.237,204.013 529.969,206.414 530.489,208.291 531.429,210.378 532.368,212.048 533.099,213.719 534.246,215.18    535.395,216.537 536.646,217.476 538.005,218.52 539.466,219.146 540.822,219.458  "
       id="polygon3946" /><polygon
       fill="#FFFFFF"
       stroke="#010203"
       stroke-width="1.6699"
       stroke-linecap="round"
       stroke-linejoin="round"
       points="   540.613,215.597 541.865,215.597 543.014,215.389 544.161,214.658 545.414,214.24 546.562,213.301 547.711,212.57 548.649,211.109    549.901,209.96 550.633,208.5 551.26,206.83 551.989,205.474 552.72,203.595 553.45,201.612 553.659,199.733 553.867,197.854    554.181,195.455 554.181,194.515 554.181,193.576 554.181,191.697 553.867,189.609 553.45,187.626 553.241,185.748    552.511,183.869 551.78,182.513 551.051,181.052 550.319,179.903 549.59,178.442 548.44,177.503 547.502,176.563 546.354,175.833    545.101,175.103 543.744,174.895 542.491,174.686 542.074,174.686 539.884,174.895 538.734,175.312 537.587,175.833    536.334,176.772 535.395,177.712 534.246,178.859 533.308,180.112 532.576,181.469 531.638,183.139 530.698,184.6 530.177,186.479    529.969,188.357 529.237,190.236 529.028,192.219 529.028,194.515 528.819,195.455 528.819,196.707 529.028,198.585    529.237,200.464 529.551,202.343 529.969,204.221 530.489,205.891 531.115,207.561 531.846,209.021 532.785,210.378    533.516,211.839 534.664,212.779 535.709,213.719 536.855,214.449 538.005,214.971 539.257,215.389  "
       id="polygon3948" /><polygon
       fill="#91866E"
       points="536.125,175.625 537.273,174.373 538.525,173.433 539.884,172.494 541.344,172.076    543.014,171.555 545.101,171.555 546.562,171.555 548.231,172.285 549.901,173.225 551.051,174.164 552.197,175.312    553.45,176.981 554.39,178.233 555.12,179.382 555.851,181.052 556.268,182.199 556.79,183.139 557,184.809 557.416,186.27    557.729,187.417 557.729,188.878 558.146,190.236 558.355,191.697 558.355,192.846 558.355,194.098 558.355,196.185    557.207,195.455 555.537,195.246 554.39,195.455 554.39,193.785 554.39,191.906 554.39,190.236 554.181,188.669 553.867,187.417    553.45,185.539 552.72,183.869 552.197,182.199 551.78,180.843 550.633,179.382 549.172,177.503 547.711,176.355 546.04,175.103    544.684,174.686 543.014,174.164 541.865,174.164 540.613,174.373 539.257,174.895 537.796,175.312 536.334,176.042  "
       id="polygon3950" /><polygon
       fill="#93807D"
       points="531.846,191.279 532.785,192.637 534.246,193.785 535.916,194.515 537.796,195.037    539.675,195.455 541.344,195.455 541.344,197.438 541.553,198.794 542.074,200.673 542.491,202.134 543.431,203.804    544.684,204.951 545.831,205.683 547.084,205.891 548.44,205.891 549.59,205.683 550.842,204.744 551.78,203.804 552.72,202.134    552.72,203.595 551.989,205.474 551.26,206.83 550.319,208.5 549.59,210.378 548.44,211.318 547.294,211.839 546.04,212.57    544.684,212.988 543.223,213.301 541.865,213.301 540.195,212.988 538.525,212.779 536.646,214.658 535.186,213.301    533.725,211.839 532.576,210.378 531.638,208.708 531.115,206.83 530.489,204.951 529.969,203.073 531.638,201.612    531.846,200.673 531.846,199.315 531.638,197.854 531.638,195.455 531.638,193.576  "
       id="polygon3952" /><polygon
       fill="#FFFFFF"
       stroke="#010203"
       stroke-width="1.6699"
       stroke-linecap="round"
       stroke-linejoin="round"
       points="   547.711,205.474 548.964,205.16 550.11,204.535 551.051,203.804 551.989,202.551 552.72,201.194 553.45,199.524 553.867,197.854    554.181,196.916 554.39,195.768 554.39,194.828 554.181,192.846 553.659,191.279 553.241,189.609 552.511,188.148 551.571,187.208    550.319,186.479 549.172,186.061 548.44,185.748 547.084,186.27 545.831,186.688 544.684,187.939 543.744,189.087 543.223,190.548    542.491,192.428 542.283,194.098 542.283,195.246 542.074,196.185 542.283,197.438 542.491,198.794 543.014,200.673    543.744,202.134 544.475,203.281 545.414,204.535 546.562,204.951  "
       id="polygon3954" /><polygon
       fill="#363639"
       stroke="#363639"
       stroke-width="0.9401"
       stroke-linejoin="round"
       points="549.172,178.233 547.711,176.772    545.414,175.312 543.744,174.895 542.074,174.895 540.613,174.895 538.734,175.312 537.587,176.042 538.734,176.772    540.404,176.981 541.553,176.772 543.014,176.563 543.953,176.563 545.414,176.772 546.04,176.981 547.084,177.503    548.649,178.442  "
       id="polygon3956" /><polygon
       points="539.257,178.442 538.005,177.919 536.646,178.859 535.709,180.112 537.064,180.843 538.005,181.26    539.466,182.199 540.822,182.93 542.074,183.869 543.223,184.809 544.684,186.27 544.684,183.869 543.744,182.721 543.014,181.469    541.865,180.529 540.613,179.382  "
       id="polygon3958" /><polygon
       points="530.489,186.479 531.638,183.869 532.576,184.809 532.368,186.479 531.846,188.357 531.115,191.279    530.907,194.828 530.907,198.376 531.115,199.733 531.115,201.403 529.76,202.343 529.028,197.438 529.237,193.158    529.551,189.609  "
       id="polygon3960" /><polygon
       points="537.273,214.658 538.525,213.719 539.675,213.51 541.135,213.719 542.491,213.927 544.161,213.719    545.414,213.301 546.771,212.779 548.231,211.839 546.562,213.301 545.101,214.658 543.431,215.18 541.865,215.597    539.466,215.597  "
       id="polygon3962" /><polygon
       points="540.822,216.85 543.223,209.753 543.223,217.267 542.491,218.207 541.135,217.789  "
       id="polygon3964" /><polygon
       fill="#363639"
       stroke="#010203"
       stroke-width="1.6699"
       stroke-linecap="round"
       stroke-linejoin="round"
       points="   547.084,203.804 548.231,203.595 549.59,202.551 550.319,201.612 551.051,200.464 551.571,198.794 551.78,197.438 551.989,195.768    551.989,194.098 551.78,192.428 551.571,190.966 550.842,189.818 550.319,188.669 549.172,187.417 547.711,187 546.771,187.208    545.414,187.939 544.161,189.296 543.431,190.548 543.014,191.906 542.805,193.576 542.491,195.246 542.491,196.916    542.805,198.585 543.223,199.733 543.431,201.194 544.161,202.343 545.414,203.281  "
       id="polygon3966" /><path
       fill="#343434"
       stroke="#AEA09D"
       stroke-width="0.9401"
       stroke-linejoin="round"
       d="M351.082,229.582   c-23.286,0-46.573,0-69.859,0c-14.802,0-12.19-5.158-12.799-18.682c-0.577-12.827-0.487-25.768-0.313-38.615   c0.075-5.486-2.188-26.178,2.191-30.371c2.975-2.848,22.669,0,26.655,0c14.401,0,28.803,0,43.203,0   c14.657,0,12.171,5.238,12.592,18.785C353.434,182.71,355.699,208.021,351.082,229.582z"
       id="path3968" /><polygon
       fill="#6D6D6D"
       points="263.622,277.486 290.653,280.305 303.908,223.216 302.238,166.126 272.39,166.126 270.72,166.126    268.841,166.335 265.292,167.066 261.744,168.005 258.717,169.676 255.586,171.555 252.246,174.164 249.429,176.772    246.819,179.903 244.21,183.139 241.81,187.208 239.723,191.279 237.844,195.977 236.383,200.673 235.234,205.891 234.295,211.318    233.564,217.059 233.356,220.085 233.043,223.216 233.043,228.643 233.564,234.07 234.295,239.811 235.234,244.507    236.904,249.726 238.262,254.212 240.453,258.492 242.54,262.25 244.94,265.902 247.759,268.929 250.368,271.746 253.708,273.625    256.839,275.817 260.387,276.755  "
       id="polygon3970" /><polygon
       stroke="#FFFFFF"
       stroke-width="0.9401"
       stroke-linejoin="round"
       points="289.923,280.305 291.802,280.305    293.784,280.305 297.333,280.096 300.883,278.635 304.222,276.964 307.457,275.085 310.38,272.269 313.405,269.451    316.537,265.902 319.146,261.832 321.233,257.762 323.635,253.064 325.512,248.369 327.182,243.15 328.539,237.619    329.479,231.982 330.209,226.035 330.521,223.216 330.521,220.398 330.521,214.658 330,209.021 329.27,203.804 328.539,198.585    327.182,193.576 325.304,189.087 323.635,184.809 321.233,181.052 318.834,177.503 316.015,174.164 313.405,171.555    310.38,169.154 307.039,167.587 303.699,166.335 300.151,165.605 298.272,165.605 296.603,165.605 292.846,166.335    289.506,167.587 285.957,169.154 282.617,171.346 279.486,174.164 276.668,176.981 273.851,180.529 271.032,184.078    268.841,188.669 266.231,193.158 264.562,197.854 262.996,203.281 261.535,208.5 260.387,214.24 259.656,219.876 259.656,223.216    259.656,225.826 259.656,231.774 259.865,237.201 260.596,242.419 261.744,247.638 262.996,252.542 264.875,257.344    266.545,261.623 268.841,265.38 271.241,268.929 274.06,272.06 276.668,274.669 279.8,276.964 283.035,278.635 286.375,280.096     "
       id="polygon3972" /><polygon
       fill="#FFFFFF"
       stroke="#FFFFFF"
       stroke-width="0.9401"
       stroke-linejoin="round"
       points="294.202,273 295.663,273    297.333,273 300.151,272.478 303.49,271.33 306.309,269.869 309.336,268.198 311.944,265.902 314.554,263.292 317.163,259.953    319.354,256.613 321.233,253.064 323.32,248.994 324.99,244.82 326.451,240.228 327.6,235.531 328.539,230.521 329.27,225.303    329.27,223.216 329.27,220.398 329.27,215.389 329.061,210.378 328.539,205.891 327.391,201.403 326.451,197.438 324.781,193.158    323.111,189.296 321.233,186.061 319.354,182.93 316.745,180.112 314.345,177.919 311.735,175.833 308.71,174.373 305.787,173.433    302.76,172.703 301.091,172.703 299.63,172.703 296.603,173.433 293.472,174.373 290.653,175.833 287.627,177.712 285.018,179.903    282.408,182.721 279.8,185.539 277.607,189.087 275.521,192.637 273.328,196.707 271.764,200.985 270.302,205.474 269.154,210.169    268.11,215.18 267.692,220.085 267.484,222.694 267.484,225.095 267.484,230.313 267.692,235.322 268.424,239.811 269.362,244.298    270.511,248.578 271.972,252.542 273.642,256.404 275.521,259.744 277.607,262.979 280.008,265.38 282.408,267.989    285.227,269.869 288.045,271.33 290.862,272.478  "
       id="polygon3974" /><polygon
       stroke="#000000"
       stroke-width="0.9401"
       stroke-linejoin="round"
       points="295.663,269.869 297.02,270.078 298.689,270.078    301.612,269.66 304.43,268.72 307.248,267.259 310.066,265.38 312.468,263.292 315.075,260.684 317.476,258.074 319.354,254.734    321.441,251.187 323.111,247.324 324.781,243.567 326.243,239.08 327.391,234.801 328.121,230.104 328.852,225.095    328.852,223.216 329.061,220.398 329.061,215.91 328.539,211.109 328.121,206.83 327.182,202.551 325.93,198.585 324.573,194.515    323.111,191.279 321.233,187.939 319.354,184.809 317.163,182.513 314.554,180.32 312.259,178.442 309.648,176.981 306.83,176.042    303.908,175.312 302.552,175.312 300.883,175.312 298.063,176.042 295.142,176.981 292.115,178.233 289.506,180.112    286.896,182.199 284.496,184.809 282.096,187.417 280.008,190.757 278.13,194.098 276.251,198.063 274.581,202.134    273.328,206.414 272.181,210.9 271.241,215.597 270.72,220.398 270.511,222.485 270.511,225.095 270.511,229.896 270.72,234.382    271.45,238.871 272.39,243.15 273.328,247.324 274.79,250.978 276.251,254.212 278.13,257.762 280.217,260.371 282.408,263.292    284.705,265.171 287.313,267.259 289.714,268.72 292.532,269.66  "
       id="polygon3976" /><polygon
       fill="#FFFFFF"
       stroke="#000000"
       stroke-width="0.9401"
       stroke-linejoin="round"
       points="294.411,257.762 295.454,257.762    296.603,257.762 298.689,257.344 300.883,256.613 302.969,255.673 305.16,254.212 307.039,252.542 308.71,250.664 310.38,248.578    312.259,246.386 313.614,243.567 315.075,240.958 316.015,237.932 317.163,234.591 317.894,231.251 318.625,227.912    319.146,224.364 319.354,222.485 319.354,220.815 319.354,217.267 318.834,213.719 318.416,210.378 317.894,207.352    317.163,204.535 316.015,201.612 314.554,198.794 313.405,196.707 311.944,194.098 310.38,192.428 308.71,190.548 306.83,189.296    304.639,188.357 302.552,187.417 300.359,187.208 299.421,187.208 298.063,187.208 296.081,187.417 293.784,188.357    291.802,189.296 289.714,190.548 287.627,192.219 285.957,194.098 284.287,196.185 282.617,198.794 281.156,201.194 279.8,204.013    278.547,206.83 277.607,210.169 276.668,213.51 276.251,216.85 275.729,220.398 275.521,222.276 275.521,224.155 275.521,227.496    275.729,231.042 276.251,234.382 276.877,237.41 277.607,240.541 278.86,243.15 280.008,245.968 281.156,248.369 282.826,250.457    284.287,252.333 286.166,254.212 288.045,255.464 289.923,256.404 292.115,257.344  "
       id="polygon3978" /><polygon
       fill="#FFFFFF"
       stroke="#000000"
       stroke-width="0.9401"
       stroke-linejoin="round"
       points="294.411,254.526 295.454,254.526    296.603,254.526 298.481,254.212 300.359,253.796 302.238,252.542 304.222,251.395 305.787,250.248 307.457,248.369    308.919,246.698 310.38,244.507 311.735,241.897 312.988,239.602 313.928,236.992 315.075,233.861 315.806,231.042    316.224,227.912 316.745,224.677 316.745,223.216 316.745,221.546 316.745,218.207 316.745,215.389 316.015,212.361    315.806,209.439 314.554,206.83 313.928,204.221 312.988,202.134 311.735,199.733 310.38,197.854 308.71,196.185 307.457,194.515    305.578,193.158 303.699,192.428 302.029,191.906 300.151,191.279 299.004,191.279 298.063,191.279 296.081,191.906    294.202,192.428 292.115,193.158 290.445,194.515 288.775,195.977 287.105,197.854 285.436,199.524 284.078,201.612    282.617,204.013 281.678,206.621 280.53,209.23 279.486,212.048 278.86,215.18 278.338,218.207 277.921,221.337 277.607,223.216    277.607,224.677 277.607,227.705 277.921,230.835 278.338,233.652 279.068,236.471 279.8,239.08 280.738,241.897 281.678,244.089    282.826,246.386 284.287,248.369 285.436,249.934 287.313,251.395 288.983,252.542 290.653,253.587 292.532,254.212  "
       id="polygon3980" /><polygon
       fill="#FFFFFF"
       stroke="#000000"
       stroke-width="0.9401"
       stroke-linejoin="round"
       points="292.115,248.994 293.054,248.994    295.663,248.578 297.333,248.369 298.689,247.324 300.151,246.698 301.612,245.237 302.969,243.776 304.43,242.21 305.578,240.541    306.83,238.558 307.77,236.262 308.71,234.07 309.336,231.774 310.066,229.166 310.38,226.556 310.798,223.946 310.798,222.485    310.798,221.337 310.798,218.52 310.798,216.119 310.38,213.51 309.857,211.109 309.336,209.021 308.71,206.83 307.77,204.744    306.518,203.073 305.369,201.403 304.43,199.733 302.969,198.794 301.612,197.854 300.151,196.916 298.481,196.185    296.812,195.977 296.081,195.977 293.472,196.185 291.802,196.916 290.445,197.854 288.775,198.794 287.313,199.733    285.957,201.194 284.705,202.864 283.348,204.535 282.408,206.83 281.156,208.5 280.53,211.109 279.8,213.301 279.068,215.91    278.86,218.207 278.338,221.128 278.13,222.485 278.13,223.946 278.13,226.556 278.338,229.166 278.86,231.46 279.068,233.861    279.8,236.262 280.53,238.349 281.469,240.019 282.408,241.897 283.557,243.567 284.705,245.028 286.166,246.386 287.627,247.324    288.983,248.369 290.653,248.578  "
       id="polygon3982" /><polygon
       fill="#C0B7AF"
       points="288.253,197.438 289.923,195.768 291.593,194.515 293.472,193.158 295.454,192.637    297.543,192.219 300.151,192.219 302.029,192.637 304.222,193.158 306.1,194.515 307.77,196.185 309.336,197.854 310.798,199.733    311.735,201.403 312.676,203.073 313.405,204.951 314.137,206.83 314.554,208.291 315.075,210.169 315.284,211.839    315.806,213.719 316.015,215.597 316.015,217.059 316.015,218.937 316.015,220.398 316.015,222.485 316.015,224.677    314.554,223.634 313.928,223.425 312.676,223.425 311.006,223.946 311.318,221.546 311.318,219.458 311.318,217.059    311.006,214.971 310.798,213.301 310.38,210.691 309.648,208.5 308.919,206.621 307.979,204.535 307.039,202.551 305.16,200.464    303.49,198.794 301.3,197.125 299.421,196.185 297.333,195.977 295.663,195.455 293.993,195.977 292.115,196.185 290.653,196.916    288.775,197.854 288.045,198.063  "
       id="polygon3984" /><polygon
       fill="#AEA09D"
       points="281.887,217.476 283.035,219.146 285.227,220.606 287.313,221.546 289.714,222.276    292.115,222.694 294.411,223.007 294.202,225.095 294.411,227.705 294.724,229.896 295.454,231.774 296.603,233.861    298.063,235.322 299.421,236.262 301.091,236.992 302.969,236.992 304.43,236.471 306.1,235.74 307.457,234.07 308.71,232.4    308.71,234.07 307.77,236.262 306.83,238.349 305.369,240.541 304.222,242.628 302.552,243.776 301.3,244.507 299.421,245.446    298.063,245.759 295.663,245.968 293.784,245.968 291.802,245.446 289.714,245.446 287.627,247.324 285.436,245.759    283.766,244.089 282.408,241.897 281.156,239.811 280.53,237.41 279.8,234.801 279.068,232.4 280.008,231.774 281.469,230.835    281.887,229.373 281.678,227.705 281.678,225.303 281.469,222.694 281.678,220.398  "
       id="polygon3986" /><polygon
       points="304.639,200.985 303.178,199.315 302.029,198.376 300.568,197.438 298.063,196.707 296.081,196.185    293.993,196.707 291.593,197.438 290.236,197.854 291.593,198.794 292.846,199.315 295.142,198.794 296.812,198.585    298.689,198.585 300.151,198.794 301.3,199.315 302.552,199.733 304.43,201.194 305.787,201.612  "
       id="polygon3988" /><polygon
       points="292.323,201.194 290.862,200.464 289.923,200.673 288.775,201.194 287.313,203.281 289.297,203.804    290.653,204.535 292.323,205.683 294.202,206.83 295.872,208.291 297.333,209.439 299.004,211.109 299.942,210.691 299.004,208.5    298.063,206.83 296.812,205.16 295.454,203.804 293.784,202.343  "
       id="polygon3990" /><polygon
       points="280.738,210.9 281.887,207.561 283.348,209.23 283.035,211.109 282.408,213.51 281.469,217.476 280.947,221.755    280.738,226.035 280.947,228.435 280.738,230.313 278.86,231.46 278.13,224.886 278.338,219.667 279.277,215.18  "
       id="polygon3992" /><polygon
       points="288.045,247.847 289.506,246.386 291.176,246.386 293.054,246.698 295.142,246.698 296.812,246.698    298.689,246.386 300.359,245.759 302.238,244.507 300.151,246.698 298.063,247.847 296.081,248.578 293.784,249.308    290.862,248.994  "
       id="polygon3994" /><polygon
       points="292.846,250.664 296.081,241.688 296.812,242.21 295.663,251.395 294.724,252.542 293.784,252.542  "
       id="polygon3996" /><polygon
       fill="#FFFFFF"
       stroke="#010203"
       stroke-width="1.6699"
       stroke-linecap="round"
       stroke-linejoin="round"
       points="   302.029,236.053 303.49,235.74 305.16,235.322 306.518,234.07 307.77,232.712 308.71,230.835 309.336,230.104 309.648,228.852    310.066,227.912 310.38,226.765 310.798,225.095 310.798,223.946 310.798,223.007 310.798,221.546 310.798,220.398 310.38,219.146    310.38,218.207 310.066,216.85 309.648,216.119 309.336,215.18 308.188,213.51 307.039,212.048 305.787,211.318 304.222,210.9    302.552,211.109 301.091,211.839 299.63,212.779 298.481,214.24 297.333,215.91 296.812,216.85 296.394,217.998 296.081,219.146    295.663,220.398 295.663,221.546 295.454,222.694 295.454,223.425 295.454,225.095 295.454,226.556 295.663,227.705    295.872,228.643 296.081,229.896 296.603,230.835 297.333,232.712 298.481,234.07 299.63,235.322 301.091,235.74  "
       id="polygon3998" /><polygon
       fill="#363639"
       stroke="#010203"
       stroke-width="1.6699"
       stroke-linecap="round"
       stroke-linejoin="round"
       points="   300.883,234.07 302.029,234.07 303.49,233.652 304.43,232.712 305.578,231.251 306.518,229.896 307.248,227.912 307.457,226.973    307.77,226.035 307.77,224.886 307.979,223.946 307.979,222.694 307.979,221.755 307.979,220.606 307.979,219.458 307.77,218.52    307.248,216.85 306.518,215.389 305.578,213.927 304.639,212.988 303.49,212.57 302.552,212.57 300.883,212.779 299.942,213.51    298.689,214.658 297.752,216.119 296.812,217.789 296.394,219.458 296.081,220.606 295.872,221.755 295.663,222.694    295.663,223.946 295.663,224.886 295.663,226.035 295.872,226.973 296.081,227.912 296.603,229.896 297.333,231.46    298.063,232.712 299.004,233.652 300.151,234.07  "
       id="polygon4000" /><polygon
       fill="#353535"
       points="81.188,266.11 106.55,268.929 118.865,214.971 117.508,161.117 89.225,161.117 87.659,161.117    85.99,161.639 82.65,162.057 79.519,162.996 76.283,164.666 73.152,166.335 70.334,168.527 67.517,171.137 65.116,174.164    62.716,177.503 60.628,181.052 58.437,184.809 57.08,189.087 55.619,193.785 54.158,198.794 53.218,203.804 52.801,209.23    52.279,211.839 52.279,214.658 52.279,220.085 52.801,225.095 53.531,230.313 54.471,235.322 55.828,239.811 57.289,244.089    58.958,248.056 61.046,251.604 63.446,254.943 65.847,258.074 68.665,260.371 71.482,262.563 74.613,264.44 77.849,265.38  "
       id="polygon4002" /><polygon
       points="105.819,268.72 107.489,268.929 109.368,268.929 112.708,268.198 116.047,267.259 119.178,265.589 122.205,263.71    125.336,261.102 128.154,258.283 130.763,255.152 133.372,251.395 135.251,247.324 137.338,243.15 139.217,238.558    140.678,233.652 142.139,228.435 143.079,223.216 143.809,217.789 144.018,214.971 144.018,212.048 144.018,206.83    143.496,201.612 143.079,196.707 142.139,191.697 140.678,187.208 139.008,182.721 137.338,178.859 135.251,175.103    132.851,171.763 130.45,168.736 127.945,166.126 125.023,164.248 121.996,162.578 118.656,161.639 115.317,160.908    113.647,160.908 111.977,160.908 108.742,161.431 105.402,162.578 102.062,163.936 99.244,165.917 95.904,168.527 93.295,171.555    90.478,174.895 88.286,178.442 85.676,182.199 83.798,186.688 81.919,191.279 80.25,195.977 79.102,201.194 78.162,206.621    77.432,211.839 77.223,214.658 77.223,217.476 77.223,222.694 77.64,227.912 78.371,233.13 79.102,238.141 80.458,242.419    81.919,246.698 84.111,250.978 85.99,254.526 88.286,258.074 90.895,260.684 93.504,263.292 96.426,265.38 99.453,267.259    102.584,268.198  "
       id="polygon4004" /><polygon
       fill="#FFFFFF"
       stroke="#000000"
       stroke-width="1.6699"
       stroke-linecap="round"
       stroke-linejoin="round"
       points="   192.861,91.921 188.583,90.356 187.852,87.434 189.208,76.057 190.461,74.388 191.609,74.179 192.861,73.761 211.021,75.849    211.961,76.371 212.691,78.458 211.335,92.235 209.352,93.591 208.412,93.905 197.976,92.235 198.706,95.992 191.818,97.871  "
       id="polygon4006" /><polygon
       points="191.192,74.91 208.203,76.998 207.265,81.276 207.056,79.606 206.325,78.25 191.609,75.849 190.461,76.057    189.73,76.057 190.461,75.119  "
       id="polygon4008" /><polygon
       fill="#AEA09D"
       points="189,80.858 191.192,81.276 192.548,82.528 193.801,82.216 192.861,90.982 189.522,90.356    189.208,89.104 188.583,87.434 188.583,86.494  "
       id="polygon4010" /><line
       fill="none"
       stroke="#363639"
       stroke-width="0.9401"
       stroke-linejoin="round"
       x1="169.588"
       y1="6.966"
       x2="161.551"
       y2="102.358"
       id="line4012" /><line
       fill="none"
       stroke="#000000"
       x1="170.527"
       y1="6.445"
       x2="163.221"
       y2="102.358"
       id="line4014" /><path
       fill="#FFFFFF"
       stroke="#000000"
       stroke-width="3.3398"
       d="M221.979,224.155c-23.621-1.946-47.188-3.13-70.855-4.364   c-28.08-1.465-51.479-7.035-78.821-14.098c-12.841-3.316-25.682-6.634-38.523-9.951c-3.875-0.998-3.816-29.729-4.197-33.889   c-2.486-27.18-6.282-35.332,22.488-41.022c26.021-5.146,52.501-8.545,78.676-12.795c18.746-3.045,53.873-7.834,59.977-16.253   c9.522-13.141,20.479-25.954,30.801-38.478c5.473-6.641,11.318-16.421,19.398-20.352c15.392-7.486,40.846-5.731,57.532-6.405   c46.466-1.878,93.627-2.831,139.932,1.917c17.721,1.817,23.492,28.467,30.012,41.978c3.813,7.903,7.417,15.303,12.328,22.526   c1.845,2.713,14.698,0.576,17.744,0.477c31.73-1.039,63.462-2.078,95.191-3.117c10.101-0.331,20.199-0.662,30.298-0.992   c4.898-0.161,6.699,20.805,7.289,24.188c2.916,16.725,14.408,45.543,6.321,62.1c-6.706,13.724-43.578,12.806-57.401,15.342   c1.254-15.991,5.389-51.287-20.456-54.219c-34.5-3.915-32.563,26.254-37.909,50.963c-1.354,6.242-2.767,12.469-4.15,18.701   c-0.686,3.075-20.818,3.963-24.184,4.459c-11.28,1.654-22.793,2.06-34.348,3.828c-38.553,5.9-77.105,11.801-115.658,17.7   c3.575-37.008,3.119-95.102-49.471-84.381c-10.456,2.131-17.421,7.067-22.178,16.803c-2.868,5.867-9.028,23.022-6.731,29.224   c2.563,6.918-5.626,19.33-10.646,23.951C245.965,225.796,232.734,223.849,221.979,224.155z"
       id="path4016" /><polygon
       fill="#002827"
       stroke="#AEA09D"
       stroke-width="0.9401"
       stroke-linejoin="round"
       points="385.42,106.429 382.81,106.22    380.932,105.28 379.053,104.028 377.593,102.358 376.443,99.541 375.923,96.722 375.923,93.382 384.479,46.522 385.42,43.391    386.881,40.781 389.28,39.425 392.099,38.902 398.257,38.173 414.12,37.233 423.826,36.815 431.862,36.815 434.681,36.815    436.663,37.024 438.02,37.755 438.752,38.382 439.689,40.051 440.422,41.513 458.163,95.784 458.372,97.14 458.685,98.81    458.163,100.062 457.433,100.688 456.075,101.628  "
       id="polygon4018" /><polygon
       fill="#004E4D"
       points="202.046,96.931 187.852,97.871 234.295,42.242 235.652,40.781 236.695,39.843 237.844,38.902    239.514,37.964 241.393,37.441 244.732,37.024 271.45,36.294 289.297,35.563 314.554,35.563 340.229,36.294 368.824,37.964    373.104,38.173 374.356,39.425 374.564,40.781 361.728,93.173 361.311,95.052 360.58,96.931 359.432,98.81 358.18,100.688    356.51,102.149 354.841,102.358 352.962,102.358 327.391,99.75 297.752,97.662 270.094,96.513 243.479,96.201 219.788,96.201  "
       id="polygon4020" /><polygon
       fill="#917A64"
       points="620.036,106.429 620.245,104.968 620.767,104.028 623.795,103.089 626.402,102.672    627.552,102.149 493.021,109.978 471.73,111.647 429.046,114.987 339.706,122.084 319.354,124.171 302.238,125.841    286.375,128.241 271.764,130.537 261.952,132.207 254.438,133.668 247.759,134.817 241.81,136.487 236.904,137.948    234.504,139.095 232.417,140.556 231.164,142.226 236.383,140.765 242.54,139.618 254.646,137.739 269.362,135.338    284.705,133.147 303.699,130.851 325.721,129.181 351.291,127.302 620.454,110.916 620.245,108.099  "
       id="polygon4022" /><polygon
       fill="#917A64"
       points="185.243,127.302 190.461,125.841 194.74,124.901 202.567,122.814 213.213,120.206 224.798,118.013    238.783,115.196 252.769,112.794 271.241,110.186 289.506,107.89 299.942,106.638 309.648,105.906 311.735,106.22 295.454,108.099    280.53,110.395 261.535,113.526 243.793,116.657 231.687,119.474 220.728,121.562 211.335,123.963 203.716,126.571 197.767,128.45    194.219,130.12 191.192,131.581 188.583,132.938 186.391,132.938 184.095,132.729 181.903,131.998 180.442,131.581    179.085,130.537 177.415,130.328 180.024,129.39  "
       id="polygon4024" /><polygon
       fill="#3F77BC"
       stroke="#000000"
       stroke-width="0.9401"
       stroke-linejoin="round"
       points="213.213,95.47 204.446,95.47    194.427,96.201 238.053,42.974 239.723,40.99 241.393,39.843 243.063,39.634 245.149,39.425 264.145,38.173 273.851,38.173    273.328,39.425 271.972,40.572 271.032,40.99 267.901,41.304 267.171,42.974 265.084,43.183 264.145,43.6 262.996,44.33    262.996,45.791 264.145,46.208 261.014,49.339 260.596,50.488 260.596,52.679 257.465,54.349 254.855,55.498 252.56,57.897    251.308,59.464 251.099,61.863 251.308,64.265 252.246,67.604 248.071,70.213 245.88,71.779 243.793,73.761 241.601,75.431    240.87,77.31 240.453,78.979 240.453,81.276 241.184,83.677 242.123,84.824 241.601,86.494 242.854,87.747 244.21,88.687    247.759,90.774 256.525,95.261 249.011,95.052 237.113,95.052 222.188,95.052  "
       id="polygon4026" /><polygon
       fill="#3F77BC"
       stroke="#000000"
       stroke-width="0.9401"
       stroke-linejoin="round"
       points="372.164,40.051 369.764,39.634    357.762,38.902 349.203,38.382 341.586,37.964 343.985,40.572 345.134,42.974 345.863,44.539 345.863,46.208 345.446,47.878    344.717,48.818 343.464,49.757 340.646,51.009 339.497,52.158 338.767,53.828 338.559,55.498 339.916,66.664 339.916,68.022    339.497,69.9 336.158,77.727 334.279,82.737 332.089,87.017 329.27,90.042 326.451,92.444 322.903,94.322 315.075,97.453    322.174,97.662 330,98.392 335.219,99.123 339.706,100.062 338.976,94.322 339.497,92.965 340.229,91.295 343.464,88.164    350.666,81.276 352.962,77.727 357.24,71.362 354.632,84.198 352.753,86.703 350.873,91.712 350.143,94.531 349.621,100.688    353.691,101.002 355.152,100.688 356.51,100.479 357.24,99.332 357.971,98.08 358.388,96.722  "
       id="polygon4028" /><polygon
       fill="#6B92CC"
       stroke="#000000"
       stroke-width="1.6699"
       points="380.723,76.998 386.673,43.6 388.237,41.513    391.159,40.051 402.744,39.425 415.06,38.382 426.227,37.964 433.115,37.964 435.411,38.173 436.872,38.694 438.543,40.572    446.996,66.664 443.76,66.873 439.481,67.813 433.323,73.449 429.983,74.91 427.166,75.119 424.766,75.119 416.938,74.179    411.511,74.388 408.901,75.119 405.771,75.849 402.222,76.58 396.064,76.057 394.395,75.64 393.455,74.179 387.819,76.998    385.003,77.727 382.81,77.727  "
       id="polygon4030" /><polygon
       fill="#FFFFFF"
       points="247.341,41.721 244.419,44.33 204.655,95.052 217.492,94.843 216.762,92.652 216.971,90.774    217.909,88.373 219.788,85.764 223.128,82.007 251.308,39.843  "
       id="polygon4032" /><polygon
       fill="#FFFFFF"
       points="352.753,44.121 352.962,46 352.753,48.192 350.666,52.367 348.473,55.707 347.533,58.106    347.012,60.193 346.595,65.412 345.863,70.421 345.134,72.823 343.985,75.119 343.047,77.727 341.586,79.606 338.036,84.824    333.341,90.774 329.791,94.843 325.93,97.14 336.68,98.08 335.219,96.201 334.696,95.261 335.01,94.114 335.636,92.235    337.306,90.042 341.377,85.764 346.386,79.606 352.753,70.839 357.762,62.804 358.388,61.134 361.311,53.828 361.519,52.367    362.25,50.071 362.668,48.818 367.154,46.939 367.469,44.121 368.824,42.974 370.286,41.513 360.058,40.572 349.934,39.843    351.291,41.304 352.23,42.451  "
       id="polygon4034" /><polygon
       fill="#FFFFFF"
       stroke="#FFFFFF"
       stroke-width="0.9401"
       stroke-linejoin="round"
       points="73.152,122.293 84.737,119.892    92.356,118.013 98.305,117.074 108.011,114.987 124.605,111.647 147.357,107.159 173.136,102.672 168.857,104.55 142.139,109.769    129.511,112.377 121.057,114.047 111.56,116.134 102.271,118.222 85.05,122.084 75.97,124.171 72.004,125.11 69.813,125.841    68.874,126.988 69.813,128.45 71.691,129.599 55.41,129.599 52.279,129.911 53.949,128.658 56.558,127.302 59.689,125.841    63.237,124.901 67.517,123.754  "
       id="polygon4036" /><polygon
       fill="#FFFFFF"
       stroke="#000000"
       stroke-width="1.6699"
       stroke-linecap="round"
       stroke-linejoin="round"
       points="   340.646,101.628 338.559,101.628 336.68,101.21 282.408,91.921 281.887,92.965 274.06,92.235 272.911,91.295 252.977,90.356    252.977,88.896 254.646,88.164 264.145,88.164 277.607,88.373 289.506,89.313 303.699,90.565 312.676,91.504 312.676,92.652    342.524,96.513 343.464,97.453 343.985,98.392 343.985,99.332 343.464,100.479 342.106,101.628  "
       id="polygon4038" /><polygon
       fill="#FFFFFF"
       stroke="#000000"
       stroke-width="1.6699"
       stroke-linecap="round"
       stroke-linejoin="round"
       points="   278.13,97.662 276.668,97.662 274.998,97.662 222.711,91.921 214.883,92.965 213.422,91.921 196.41,92.235 196.097,90.774    197.558,89.834 206.325,89.313 218.641,88.687 229.808,88.896 242.54,88.896 251.099,89.313 251.308,90.774 279.068,93.591    280.217,94.531 280.217,95.784 279.486,97.453  "
       id="polygon4040" /><path
       fill="none"
       stroke="#000000"
       stroke-width="3.3398"
       d="M349.203,104.968c11,12.536,11.029,40.218,11.844,56.632   c0.55,11.083,0.003,29.819,0.003,29.819s0.024,16.229-0.47,27.727c29.865-4.148,89.593-12.449,89.593-12.449l22.812-3.415   l2.296-30.057c0,0,0.559-19.907,0.209-29.851c-0.306-8.686,1.255-24.423-0.938-31.937c-1.911-6.541-7.982-10.868-10.297-17.295   c-4.853-13.471-9.701-26.943-14.554-40.414c-7.224-20.065-6.637-23.044-28.69-22.654c-11.372,0.202-40.662-4.067-46.651,9.706"
       id="path4042" /><path
       fill="none"
       stroke="#000000"
       stroke-width="3.3398"
       stroke-linecap="round"
       stroke-linejoin="round"
       d="M226.259,134.085   c12.014-15.742,48.78-16.854,66.785-20.091c14.059-2.527,62.234-1.143,67.536-17.272"
       id="path4044" /><polyline
       fill="none"
       stroke="#363639"
       stroke-width="0.9401"
       stroke-linejoin="round"
       points="379.053,102.358 388.237,91.921    386.673,90.774 385.003,91.295 380.201,94.322  "
       id="polyline4046" /><polyline
       fill="none"
       stroke="#363639"
       stroke-width="0.9401"
       stroke-linejoin="round"
       points="388.237,91.921 387.819,96.931    388.028,97.871 388.551,99.123 389.698,100.062 391.159,100.688 393.455,100.688  "
       id="polyline4048" /><polygon
       fill="#FFFFFF"
       stroke="#000000"
       stroke-width="0.9401"
       stroke-linejoin="round"
       points="381.662,105.698 379.053,104.028    377.593,102.358 376.652,100.479 375.923,97.453 379.992,94.531 379.992,92.965 380.514,82.945 380.932,81.798 382.079,80.858    383.332,80.128 384.688,79.92 405.562,81.59 406.502,82.007 407.755,84.198 406.814,100.062 404.623,101.94 403.475,102.149    393.977,101.002 392.829,102.358 392.099,106.22 383.75,106.429  "
       id="polygon4050" /><polyline
       fill="none"
       stroke="#363639"
       stroke-width="0.9401"
       stroke-linejoin="round"
       points="405.562,82.007 404.414,82.216    403.161,82.945 401.596,98.392 401.805,100.062 402.535,100.688 403.892,101.419  "
       id="polyline4052" /><polygon
       fill="#AEA09D"
       stroke="#000000"
       stroke-width="0.9401"
       stroke-linejoin="round"
       points="380.514,90.356 383.123,90.982    384.271,91.712 380.201,94.322  "
       id="polygon4054" /><polygon
       fill="#AEA09D"
       stroke="#000000"
       stroke-width="0.9401"
       stroke-linejoin="round"
       points="388.551,92.235 390.429,92.965    391.89,92.652 393.246,92.444 394.709,93.173 396.064,93.591 398.048,93.905 400.656,93.382 401.283,95.784 401.074,97.871    401.074,99.541 401.805,100.688 391.576,100.271 390.22,100.062 388.969,98.81 388.551,97.871 388.237,96.722  "
       id="polygon4056" /><polygon
       fill="#AEA09D"
       stroke="#000000"
       stroke-width="0.9401"
       stroke-linejoin="round"
       points="403.161,84.198 403.892,83.468    404.831,82.737 406.084,82.737 406.814,84.615 406.084,100.062 404.205,101.419 402.222,100.062 402.014,98.81  "
       id="polygon4058" /><polygon
       stroke="#000000"
       stroke-width="0.9401"
       stroke-linejoin="round"
       points="382.602,81.276 402.222,82.945 401.596,87.955    401.074,86.285 400.344,84.198 398.986,83.886 383.332,82.528 382.079,82.528 380.932,82.945 381.87,81.798  "
       id="polygon4060" /><polygon
       fill="#363639"
       stroke="#000000"
       stroke-width="0.9401"
       stroke-linejoin="round"
       points="388.028,92.652 387.61,94.531    387.61,95.47 387.299,96.931 387.61,98.392 385.003,99.123 384.063,101.002 384.063,102.358 384.271,103.819 385.629,105.698    384.479,105.906 382.602,105.698 381.453,104.759 379.992,103.819  "
       id="polygon4062" /><polygon
       fill="#FFFFFF"
       stroke="#000000"
       stroke-width="1.6699"
       stroke-linecap="round"
       stroke-linejoin="round"
       points="   630.891,106.22 630.16,102.88 624.524,104.759 623.586,105.28 622.854,106.22 622.646,107.576 622.646,109.246 626.926,133.459    627.135,134.817 627.864,135.547 628.803,136.278 629.951,136.487 635.691,135.338 634.962,132.207 629.534,133.147    625.882,109.037  "
       id="polygon4064" /><polygon
       fill="#FF0000"
       stroke="#000000"
       stroke-width="0.9401"
       stroke-linejoin="round"
       points="625.256,110.707 625.256,109.769    625.256,108.308 626.926,107.368 630.16,106.429 634.647,132.207 629.951,133.147 629.221,132.729 628.49,131.06  "
       id="polygon4066" /><polygon
       fill="#F4851F"
       stroke="#000000"
       stroke-linecap="round"
       stroke-linejoin="round"
       points="627.864,126.988    626.926,119.892 632.143,118.222 633.291,125.318  "
       id="polygon4068" /><polygon
       fill="#FFFFFF"
       stroke="#000000"
       stroke-width="1.6699"
       stroke-linecap="round"
       stroke-linejoin="round"
       points="   629.951,133.459 629.221,132.729 628.281,130.328 627.864,126.988 633.5,125.633 634.439,132.207  "
       id="polygon4070" /><polygon
       points="231.687,188.357 262.562,187.626 264.231,188.357 265.171,189.818 265.171,199.315 264.545,202.343    262.875,203.281 229.286,203.281 228.555,191.279 229.286,189.296  "
       id="polygon4072" /><polygon
       stroke="#000000"
       stroke-width="0.9401"
       stroke-linejoin="round"
       points="345.072,194.098 345.134,190.236    344.717,187.417 522.662,167.587 524.228,169.154 523.81,178.859 522.662,181.052 346.012,204.013 345.803,198.585  "
       id="polygon4074" /><polygon
       stroke="#000000"
       stroke-width="0.9401"
       stroke-linejoin="round"
       points="580.169,164.979 579.752,160.908    636.632,152.873 640.91,156.837 640.597,159.969 638.302,162.787 581.839,171.763 580.689,169.154  "
       id="polygon4076" /><polygon
       fill="#ED1649"
       stroke="#ED1649"
       stroke-width="0.9401"
       stroke-linejoin="round"
       points="233.564,197.854 264.145,197.854    264.145,193.158 233.356,193.367  "
       id="polygon4078" /><polygon
       fill="#ED1649"
       stroke="#ED1649"
       stroke-width="0.9401"
       stroke-linejoin="round"
       points="348.995,197.854 348.056,192.428    523.602,172.703 523.288,177.503  "
       id="polygon4080" /><polygon
       fill="#ED1649"
       stroke="#ED2123"
       stroke-width="0.9401"
       stroke-linejoin="round"
       points="584.029,167.796 583.092,163.936    641.536,155.481 641.85,158.298  "
       id="polygon4082" /><polygon
       points="39.024,220.398 38.294,221.546 37.354,223.425 36.415,224.677 36.937,225.616 208.726,235.322 211.021,235.322    213.005,234.801 214.152,234.07 215.092,233.13 216.031,231.774 216.971,230.104 220.519,222.276 205.595,223.946 39.755,215.597    39.755,217.267  "
       id="polygon4084" /><polygon
       fill="#FFFFFF"
       stroke="#000000"
       stroke-width="3"
       stroke-linecap="round"
       stroke-linejoin="round"
       points="   28.587,174.895 27.439,173.433 26.918,172.494 24.1,135.338 24.309,133.877 26.5,132.729 28.379,132.207 30.988,131.998    33.597,131.581 47.061,131.581 49.043,131.581 50.4,130.537 51.653,130.12 53.531,129.599 55.828,129.599 171.257,130.12    173.345,130.12 176.267,130.328 178.876,130.851 181.485,132.207 184.095,132.938 186.182,133.459 221.249,133.877    223.337,134.399 225.007,135.129 226.469,136.278 227.198,137.008 227.929,138.886 229.494,169.154 229.494,171.346    229.494,173.225 228.868,174.686 227.929,176.042 226.677,176.981 225.319,177.919 223.128,178.442 221.041,178.859    186.182,178.233 184.095,178.233 181.903,178.859 180.233,180.112 178.563,181.99 176.894,183.139 175.015,184.6 172.406,185.539    55.619,182.199 54.158,180.843 53.218,179.903 51.34,176.981 49.461,175.312 48,175.312  "
       id="polygon4086" /><polygon
       fill="#FFFFFF"
       stroke="#000000"
       stroke-width="1.6699"
       stroke-linecap="round"
       stroke-linejoin="round"
       points="   7.818,184.6 8.758,183.139 9.906,182.721 18.464,181.26 222.919,186.688 229.494,189.296 232.417,190.548 233.773,191.906    234.504,194.098 233.773,204.013 233.564,205.683 231.687,206.83 228.868,207.352 227.616,208.5 225.319,216.537 224.798,218.52    224.276,220.085 223.128,221.337 221.458,222.276 206.116,223.634 26.292,215.18 23.161,214.449 21.491,212.988 20.134,210.9    16.063,201.403 11.785,200.673 9.906,199.733 8.445,198.585 8.027,195.977  "
       id="polygon4088" /><polygon
       points="222.711,159.447 223.337,168.527 223.337,169.676 223.337,171.137 223.128,172.703 222.397,174.164    221.458,175.312 220.311,176.042 217.909,176.981 221.249,176.981 222.919,176.563 224.276,175.833 225.528,174.686    226.469,173.433 226.885,171.763 226.885,170.406 226.469,157.568 225.007,158.298 224.276,159.761  "
       id="polygon4090" /><polygon
       fill="#3E3E48"
       points="55.201,131.851 53.531,132.06 52.07,132.581 51.131,133.729 50.4,135.085 50.4,137.487    51.861,135.817 53.01,135.399 55.201,135.085 103.001,135.608 102.792,133.207 103.21,132.06 58.228,131.851  "
       id="polygon4092" /><path
       fill="#001F1E"
       d="M51.131,169.466l0.522,2.089l0.938,2.19l0.939,1.566c0,0,0.969,1.813,2.052,2.729s3.083,1.417,3.083,1.417   l2.083,0.417l2.148,0.177l45.518,1.323l-0.014-1.847l-44.043-1.67l-2.192-0.209l-3.083-0.108c0,0-1.667-0.334-2.25-0.75   s-1.423-1.479-1.423-1.479l-1.461-1.879l-0.731-1.67l-0.417-1.67l-0.521-2.818l-0.613-13.983l-2-0.083L51.131,169.466z"
       id="path4094" /><polygon
       points="202.985,211.839 201.837,207.77 16.063,201.194 18.151,205.683 22.43,206.205 25.039,206.205 33.806,206.621    41.633,206.83 60.106,207.561 68.143,207.561 72.213,207.77 74.3,208.083 101.854,209.021 108.95,209.753 110.829,209.439    119.596,209.753 130.033,210.378 132.433,210.378 134.521,209.96 157.794,211.839 163.221,211.318 168.126,212.048    173.345,212.048 188.791,212.57 194.01,213.301 196.097,212.57  "
       id="polygon4096" /><polygon
       fill="#AEA09D"
       stroke="#000000"
       stroke-width="1.6699"
       stroke-linecap="round"
       stroke-linejoin="round"
       points="   225.528,213.301 224.798,216.85 224.276,218.207 223.649,219.876 221.979,221.546 219.788,221.755 207.786,220.085    203.507,212.048 202.255,207.77 228.138,207.352 227.198,208.291  "
       id="polygon4098" /><polygon
       fill="#AEA09D"
       stroke="#000000"
       stroke-width="1.6699"
       stroke-linecap="round"
       stroke-linejoin="round"
       points="   231.164,206.205 232.625,204.535 233.564,194.515 232.834,192.219 231.687,191.279 223.128,187.939 204.446,187.417    201.628,187.939 199.228,189.087 198.706,190.548 199.437,200.046 199.958,202.343 199.958,204.535 200.897,206.83  "
       id="polygon4100" /><path
       fill="#707084"
       d="M28.587,165.396l0.522,1.461l1.879,1.357l1.461,0.313l13.255,0.209l1.357-0.209c0,0,1.565-0.394,1.96-0.939   s0.209-1.461,0.209-1.461v-1.147l-1.669-25.152l-0.209-1.462l-0.417-1.357l-1.544-0.73h-1.566l-13.776-0.523   c0,0-1.752,0.177-2.4,0.732s-0.73,2.191-0.73,2.191L28.587,165.396z"
       id="path4102" /><polygon
       fill="#65657F"
       points="192.861,172.494 215.509,173.016 217.909,172.703 219.371,172.285 220.519,170.615    220.728,169.676 218.849,141.496 217.909,140.035 216.762,139.618 214.883,139.095 212.482,139.095 185.973,138.678    184.512,138.886 183.364,139.618 182.425,141.496 184.095,166.335 185.034,168.214 185.973,170.093 187.643,171.555    190.252,172.285  "
       id="polygon4104" /><polygon
       fill="#003639"
       points="193.279,136.278 219.579,136.695 220.728,137.008 221.771,137.425 222.919,139.827    223.858,152.664 224.798,149.533 224.798,140.556 224.276,138.678 223.858,137.739 221.979,136.278 221.041,136.278    219.579,136.069 218.118,136.069 212.482,135.755 204.237,135.547 202.255,135.755  "
       id="polygon4106" /><polygon
       fill="#917A64"
       points="180.964,133.668 179.085,132.729 177.415,131.998 174.806,131.581 173.867,131.581    172.719,131.998 171.257,133.459 171.049,134.817 172.406,135.547 174.076,136.069 175.328,136.695 175.954,137.948    177.415,157.777 178.876,148.071 179.815,147.132 180.442,145.462 180.233,139.618 180.442,137.948 181.172,136.695    182.112,135.547 183.573,135.338 187.122,134.817 183.364,134.399  "
       id="polygon4108" /><polygon
       fill="#9B8380"
       points="104.462,134.399 165.517,135.338 166.77,135.129 167.187,133.877 165.831,133.147 103.941,132.729     "
       id="polygon4110" /><polygon
       points="169.17,181.26 171.257,180.32 172.927,179.382 174.806,177.919 175.745,176.772 176.267,175.103 176.894,172.703    177.415,170.615 177.415,168.527 178.563,167.587 179.294,169.676 179.815,171.346 180.442,173.225 181.903,174.164    184.095,174.895 186.704,175.625 190.67,176.355 183.051,176.042 180.233,176.563 178.876,177.503 176.894,179.382 174.597,181.26    173.136,182.199 170.527,182.513 167.709,182.721 165.1,182.721 163.43,182.513 162.282,181.782 165.831,181.26  "
       id="polygon4112" /><polygon
       stroke="#000000"
       stroke-width="0.9401"
       stroke-linejoin="round"
       points="62.924,176.042 164.891,178.233 167.187,178.233    169.17,177.712 170.527,176.772 171.988,175.312 172.927,173.433 173.658,171.763 174.076,169.885 174.284,168.005    174.597,166.126 173.136,142.853 173.136,141.288 172.927,139.827 172.197,138.678 171.049,137.739 169.17,137.216 55.619,135.547    53.949,136.069 52.801,136.487 52.07,137.739 51.653,138.678 51.861,139.827 53.74,164.457 53.74,166.857 53.949,168.736    54.471,170.615 55.201,172.285 55.828,173.433 57.08,174.686 58.958,175.833 60.628,176.042  "
       id="polygon4114" /><path
       d="M191.192,189.087l-5.74-0.73l-166.619-5.231c0,0-4.5,0.666-7.167,1.5c0,1.166,63.156,2.063,63.156,2.063l120.858,3.548   L191.192,189.087z"
       id="path4116" /><polygon
       fill="#FFFFFF"
       stroke="#000000"
       stroke-width="1.6699"
       stroke-linejoin="round"
       points="219.788,221.755 217.909,220.398    216.762,219.458 211.021,219.146 209.352,218.729 208.726,217.267 206.533,216.328 205.386,214.658 203.925,211.839    202.255,208.083 204.863,220.085 205.595,221.755 207.786,223.007  "
       id="polygon4118" /><polygon
       fill="#F4851F"
       stroke="#000000"
       stroke-width="1.6699"
       stroke-linecap="round"
       stroke-linejoin="round"
       points="   33.075,156.628 32.136,157.777 32.449,161.117 32.658,162.369 33.806,163.518 35.059,163.936 48.521,164.248 48,158.298    48,157.151 34.537,156.628  "
       id="polygon4120" /><polygon
       fill="#F4851F"
       stroke="#000000"
       stroke-width="1.6699"
       stroke-linecap="round"
       stroke-linejoin="round"
       points="   194.74,161.117 193.279,162.369 193.488,165.605 194.01,166.857 195.158,168.005 196.41,168.527 215.509,168.736 216.971,168.527    217.909,168.005 218.641,166.126 218.432,162.787 216.971,161.117 215.092,161.117 195.888,160.908  "
       id="polygon4122" /><polygon
       fill="#AEA09D"
       stroke="#000000"
       stroke-width="1.6699"
       stroke-linecap="round"
       stroke-linejoin="round"
       points="   46.435,137.216 32.658,137.008 31.51,137.425 30.779,139.618 31.51,152.873 32.449,154.751 34.537,155.481 47.791,155.69    46.852,140.556 46.852,139.095 46.852,137.948  "
       id="polygon4124" /><polygon
       fill="#999999"
       stroke="#000000"
       stroke-width="1.6699"
       stroke-linecap="round"
       stroke-linejoin="round"
       points="   215.822,140.556 195.158,140.035 193.801,140.244 192.548,140.765 191.609,142.435 191.4,144.104 192.34,155.69 193.07,157.568    195.158,158.298 215.509,158.507 216.971,158.298 218.641,156.421 218.641,155.167 217.909,144.313 217.909,142.853    217.909,141.914  "
       id="polygon4126" /><polygon
       stroke="#363639"
       stroke-width="0.9401"
       stroke-linejoin="round"
       points="5.835,185.748 202.255,191.906 224.276,191.697    226.469,191.906 227.198,192.846 226.885,198.063 226.469,199.315 225.319,199.733 202.567,200.255 5.835,191.906 4.896,190.548    4.688,188.878 4.896,187  "
       id="polygon4128" /><polygon
       fill="#FFFFFF"
       stroke="#000000"
       stroke-width="1.6699"
       stroke-linecap="round"
       stroke-linejoin="round"
       points="   32.136,149.011 35.059,146.923 41.425,145.775 46.852,145.775 47.061,144.104 46.852,138.157 33.806,138.157 32.449,138.365    31.51,140.556  "
       id="polygon4130" /><polygon
       fill="#FFFFFF"
       stroke="#000000"
       stroke-width="1.6699"
       stroke-linejoin="round"
       points="193.07,152.142 196.097,150.264    202.255,148.803 207.786,148.803 212.273,149.533 216.031,150.472 217.909,152.142 217.179,142.853 216.031,141.496    194.74,141.288 193.279,141.496 192.548,143.583  "
       id="polygon4132" /><line
       fill="none"
       stroke="#FFFFFF"
       stroke-width="0.9401"
       stroke-linejoin="round"
       x1="53.218"
       y1="139.618"
       x2="171.257"
       y2="142.226"
       id="line4134" /><line
       fill="none"
       stroke="#FFFFFF"
       stroke-width="0.9401"
       stroke-linejoin="round"
       x1="53.531"
       y1="144.104"
       x2="171.466"
       y2="146.714"
       id="line4136" /><line
       fill="none"
       stroke="#FFFFFF"
       stroke-width="0.9401"
       stroke-linejoin="round"
       x1="53.74"
       y1="148.803"
       x2="171.675"
       y2="151.412"
       id="line4138" /><line
       fill="none"
       stroke="#FFFFFF"
       stroke-width="0.9401"
       stroke-linejoin="round"
       x1="53.949"
       y1="153.604"
       x2="171.988"
       y2="156.212"
       id="line4140" /><line
       fill="none"
       stroke="#FFFFFF"
       stroke-width="0.9401"
       stroke-linejoin="round"
       x1="54.679"
       y1="158.298"
       x2="172.719"
       y2="160.908"
       id="line4142" /><line
       fill="none"
       stroke="#FFFFFF"
       stroke-width="0.9401"
       stroke-linejoin="round"
       x1="54.888"
       y1="162.787"
       x2="172.927"
       y2="165.188"
       id="line4144" /><line
       fill="none"
       stroke="#FFFFFF"
       stroke-width="0.9401"
       stroke-linejoin="round"
       x1="55.201"
       y1="167.587"
       x2="173.136"
       y2="170.093"
       id="line4146" /><line
       fill="none"
       stroke="#FFFFFF"
       stroke-width="0.9401"
       stroke-linejoin="round"
       x1="57.08"
       y1="172.076"
       x2="171.257"
       y2="174.164"
       id="line4148" /><polygon
       fill="#FFFFFF"
       stroke="#000000"
       stroke-width="1.6699"
       stroke-linecap="round"
       stroke-linejoin="round"
       points="   629.534,146.505 647.067,144.104 649.155,144.104 650.824,144.835 651.973,145.775 652.494,147.445 653.434,153.604    653.226,155.167 652.703,156.421 652.182,157.568 651.556,159.238 651.033,169.154 650.824,171.555 649.363,172.703    635.38,176.563 632.77,176.772 631.412,176.042 628.281,154.96 627.864,153.291 627.552,150.264 628.072,147.654  "
       id="polygon4150" /><polygon
       fill="#AEA09D"
       stroke="#363639"
       stroke-width="0.9401"
       stroke-linejoin="round"
       points="652.494,156.212 634.962,158.298    633.291,159.761 632.77,161.639 632.352,162.996 634.021,175.312 634.962,175.833 636.109,175.625 649.363,172.494    650.094,171.555 650.303,170.093 650.824,168.945 650.824,161.848 650.824,160.699 651.033,159.447 651.242,158.298    651.764,157.36  "
       id="polygon4152" /><polygon
       stroke="#000000"
       points="629.742,147.863 630.891,148.385 633.082,158.298 632.143,159.447 631.1,161.117 631.1,162.369    633.291,176.042 629.012,151.203 628.803,150.264 628.803,149.011  "
       id="polygon4154" /><polygon
       points="632.143,148.071 648.008,146.193 648.946,145.775 649.155,144.835 650.094,145.253 651.556,146.714    635.691,149.011 634.021,149.324 632.561,151.412  "
       id="polygon4156" /><polygon
       points="633.291,159.969 634.962,158.298 652.494,156.212 650.824,159.969 634.647,162.578 633.291,163.518    632.561,165.396 632.143,162.787 632.352,161.639  "
       id="polygon4158" /><polygon
       points="653.852,147.132 652.494,147.445 639.657,149.011 637.987,149.741 637.57,150.994 637.987,154.229    638.302,155.481 639.24,156.628 640.388,156.628 653.852,154.751 655.104,154.542 655.313,153.604 654.791,148.594  "
       id="polygon4160" /><polygon
       stroke="#000000"
       stroke-width="1.6699"
       stroke-linecap="round"
       stroke-linejoin="round"
       points="483.524,207.77    484.256,202.551 484.985,197.438 485.926,189.818 486.134,180.529 486.134,148.594 483.524,119.474 487.281,109.769    486.134,105.698 484.464,100.688 482.586,95.992 481.646,94.531 484.464,93.905 485.402,95.052 488.325,101.419 489.473,104.968    490.83,109.769 487.072,118.953 489.473,148.594 489.473,172.076 489.891,177.294 489.473,182.721 489.473,187.208    488.951,195.037 488.534,202.551 487.595,208.083 486.655,211.839 482.586,211.109  "
       id="polygon4162" /><path
       fill="#FFFFFF"
       stroke="#000000"
       stroke-width="2.5048"
       stroke-linecap="round"
       stroke-linejoin="round"
       d="M469.851,128.187   c0.159,2.762-1.949,5.131-4.712,5.291l-11.113,0.643c-2.762,0.161-5.13-1.949-5.29-4.711l0,0c-0.159-2.762,1.949-5.131,4.712-5.291   l11.113-0.644C467.322,123.315,469.69,125.425,469.851,128.187L469.851,128.187z"
       id="path4164" /><path
       fill="none"
       stroke="#000000"
       stroke-width="2.5048"
       stroke-linecap="round"
       stroke-linejoin="round"
       d="M515.357,136.607   c0.242,2.755-1.797,5.186-4.553,5.427l-5.13,0.449c-2.757,0.241-5.188-1.797-5.429-4.554l-0.859-9.843   c-0.242-2.755,1.797-5.186,4.553-5.428l5.129-0.448c2.756-0.241,5.187,1.798,5.427,4.553L515.357,136.607z"
       id="path4166" /></g></svg>