<svg id="Layer_3" height="512" viewBox="0 0 64 64" width="512" xmlns="http://www.w3.org/2000/svg" data-name="Layer 3"><path d="m53 42a8.971 8.971 0 0 1 2 .231v-13.231h-4v13.231a8.971 8.971 0 0 1 2-.231z" fill="#cbccca"/><path d="m2 2h60v6h-60z" fill="#cbccca"/><path d="m3 2.375a4.625 4.625 0 0 0 4.625 4.625h54.375v-5h-59z" fill="#e0e0df"/><path d="m27 44h10a3 3 0 0 1 3 3v14a1 1 0 0 1 -1 1h-14a1 1 0 0 1 -1-1v-14a3 3 0 0 1 3-3z" fill="#e3e8f6"/><path d="m37 44h-10a2.978 2.978 0 0 0 -2 .779v.721a15.489 15.489 0 0 0 15 15.475v-13.975a3 3 0 0 0 -3-3z" fill="#f8f7fe"/><path d="m62 51c0 4.971-4.029 11-9 11s-9-6.029-9-11a9 9 0 0 1 18 0z" fill="#e3e8f6"/><path d="m53 42a8.993 8.993 0 0 0 -8 4.889v.593a13.51 13.51 0 0 0 11.68 13.379 12.438 12.438 0 0 0 5.32-9.861 9 9 0 0 0 -9-9z" fill="#f8f7fe"/><circle cx="11" cy="53" fill="#e3e8f6" r="9"/><path d="m11 44a8.971 8.971 0 0 1 2 .231v-15.231h-4v15.231a8.971 8.971 0 0 1 2-.231z" fill="#cbccca"/><path d="m3.071 48.741a13.666 13.666 0 0 0 12.188 12.188 9 9 0 1 0 -12.188-12.188z" fill="#f8f7fe"/><path d="m13 29h-4a1 1 0 0 1 -1-1v-19a3 3 0 0 1 3-3 3 3 0 0 1 3 3v19a1 1 0 0 1 -1 1z" fill="#a78966"/><path d="m34 29h-4a1 1 0 0 1 -1-1v-19a3 3 0 0 1 3-3 3 3 0 0 1 3 3v19a1 1 0 0 1 -1 1z" fill="#a78966"/><path d="m30 29h4v15h-4z" fill="#cbccca"/><path d="m55 29h-4a1 1 0 0 1 -1-1v-19a3 3 0 0 1 3-3 3 3 0 0 1 3 3v19a1 1 0 0 1 -1 1z" fill="#a78966"/><path d="m11 49a4 4 0 0 1 4 4h2a6.006 6.006 0 0 0 -6-6z"/><path d="m53 47a4.219 4.219 0 0 1 4 4.4h2a6.216 6.216 0 0 0 -6-6.4z"/><path d="m57 28v-19h5a1 1 0 0 0 1-1v-6a1 1 0 0 0 -1-1h-60a1 1 0 0 0 -1 1v6a1 1 0 0 0 1 1h5v19a1.993 1.993 0 0 0 1 1.722v13.739a10 10 0 1 0 6 0v-13.739a1.993 1.993 0 0 0 1-1.722v-19h13v19a1.993 1.993 0 0 0 1 1.722v13.278h-2a4 4 0 0 0 -4 4v14a2 2 0 0 0 2 2h14a2 2 0 0 0 2-2v-14a4 4 0 0 0 -4-4h-2v-13.278a1.993 1.993 0 0 0 1-1.722v-19h13v19a1.993 1.993 0 0 0 1 1.722v11.739a10.018 10.018 0 0 0 -7 9.539c0 5.436 4.461 12 10 12s10-6.564 10-12a10.018 10.018 0 0 0 -7-9.539v-11.739a1.993 1.993 0 0 0 1-1.722zm-6 0v-19a2 2 0 0 1 4 0v19zm-42 0v-19a2 2 0 0 1 4 0v19zm10 25a8 8 0 1 1 -8-8 8.009 8.009 0 0 1 8 8zm-8-10a10.007 10.007 0 0 0 -1 .051v-13.051h2v13.051a10.007 10.007 0 0 0 -1-.051zm19-15v-19a2 2 0 0 1 4 0v19zm9 19v14h-14v-14a2 2 0 0 1 2-2h10a2 2 0 0 1 2 2zm-8-4v-13h2v13zm4.444-36a3.965 3.965 0 0 0 -6.888 0h-14.112a3.965 3.965 0 0 0 -6.888 0h-4.556v-4h58v4h-4.556a3.965 3.965 0 0 0 -6.888 0zm25.556 44c0 4.5-3.691 10-8 10s-8-5.5-8-10a8 8 0 0 1 16 0zm-8-10a10.007 10.007 0 0 0 -1 .051v-11.051h2v11.051a10.007 10.007 0 0 0 -1-.051z"/><path d="m31 47h2v12h-2z"/><path d="m35 50h2v9h-2z"/><path d="m27 50h2v9h-2z"/></svg>