<svg id="Layer_3" height="512" viewBox="0 0 64 64" width="512" xmlns="http://www.w3.org/2000/svg" data-name="Layer 3"><g fill="#e2e7f6"><path d="m31 45h2v7h-2z"/><path d="m18 43h2v7h-2z"/><path d="m5 36h2v8h-2z"/><path d="m44 43h2v7h-2z"/><path d="m57 36h2v8h-2z"/></g><path d="m62 34-.508.469a43.482 43.482 0 0 1 -29.492 11.531 43.482 43.482 0 0 1 -29.492-11.531l-.508-.469v-3h3l.943.864a38.563 38.563 0 0 0 26.057 10.136 38.563 38.563 0 0 0 26.057-10.136l.943-.864h3z" fill="#3279ea"/><path d="m28 52v10l4-4 4 4v-10z" fill="#4fb5dc"/><path d="m2 44v10l4-4 4 4v-10z" fill="#4fb5dc"/><path d="m62 44v10l-4-4-4 4v-10z" fill="#4fb5dc"/><path d="m14 50h10l-5 9z" fill="#f4a93c"/><path d="m24 50-5 9-.144-.258a5.885 5.885 0 0 1 5.144-8.742z" fill="#f6b940"/><path d="m40 50h10l-5 9z" fill="#f4a93c"/><path d="m50 50-5 9-.144-.258a5.885 5.885 0 0 1 5.144-8.742z" fill="#f6b940"/><path d="m6 50 4 4v-10h-4z" fill="#5ed3f2"/><path d="m32 58 4 4v-10h-4z" fill="#5ed3f2"/><path d="m58 50 4 4v-10h-4z" fill="#5ed3f2"/><path d="m31 16h2v7h-2z" fill="#e2e7f6"/><path d="m18 14h2v7h-2z" fill="#e2e7f6"/><path d="m5 7h2v8h-2z" fill="#e2e7f6"/><path d="m44 14h2v7h-2z" fill="#e2e7f6"/><path d="m57 7h2v8h-2z" fill="#e2e7f6"/><path d="m62 5-.508.469a43.482 43.482 0 0 1 -29.492 11.531 43.482 43.482 0 0 1 -29.492-11.531l-.508-.469v-3h3l.943.864a38.563 38.563 0 0 0 26.057 10.136 38.563 38.563 0 0 0 26.057-10.136l.943-.864h3z" fill="#3279ea"/><path d="m28 23v10l4-4 4 4v-10z" fill="#4fb5dc"/><path d="m2 15v10l4-4 4 4v-10z" fill="#4fb5dc"/><path d="m62 15v10l-4-4-4 4v-10z" fill="#4fb5dc"/><path d="m14 21h10l-5 9z" fill="#f4a93c"/><path d="m24 21-5 9-.144-.258a5.885 5.885 0 0 1 5.144-8.742z" fill="#f6b940"/><path d="m40 21h10l-5 9z" fill="#f4a93c"/><path d="m50 21-5 9-.144-.258a5.885 5.885 0 0 1 5.144-8.742z" fill="#f6b940"/><path d="m6 21 4 4v-10h-4z" fill="#5ed3f2"/><path d="m32 29 4 4v-10h-4z" fill="#5ed3f2"/><path d="m58 21 4 4v-10h-4z" fill="#5ed3f2"/><path d="m62.169 6.2.509-.469a1 1 0 0 0 .322-.731v-3a1 1 0 0 0 -1-1h-3a1 1 0 0 0 -.676.263l-.942.864a37.472 37.472 0 0 1 -25.382 9.873 37.472 37.472 0 0 1 -25.382-9.873l-.942-.864a1 1 0 0 0 -.676-.263h-3a1 1 0 0 0 -1 1v3a1 1 0 0 0 .322.735l.508.465q1.53 1.417 3.17 2.669v5.131h-3a1 1 0 0 0 -1 1v10a1 1 0 0 0 1.707.707l3.293-3.293 3.293 3.293a1 1 0 0 0 1.707-.707v-10a1 1 0 0 0 -1-1h-3v-3.694a44.282 44.282 0 0 0 11 5.436v4.258h-4a1 1 0 0 0 -.874 1.486l5 9a1 1 0 0 0 1.748 0l5-9a1 1 0 0 0 -.874-1.486h-4v-3.648a44.508 44.508 0 0 0 11 1.625v4.023h-3a1 1 0 0 0 -1 1v10a1 1 0 0 0 1.707.707l3.293-3.293 3.293 3.293a1 1 0 0 0 1.707-.707v-10a1 1 0 0 0 -1-1h-3v-4.023a44.508 44.508 0 0 0 11-1.625v3.648h-4a1 1 0 0 0 -.874 1.486l5 9a1 1 0 0 0 1.748 0l5-9a1 1 0 0 0 -.874-1.486h-4v-4.258a44.282 44.282 0 0 0 11-5.436v3.694h-3a1 1 0 0 0 -1 1v10a1 1 0 0 0 1.707.707l3.293-3.293 3.293 3.293a1 1 0 0 0 1.707-.707v-10a1 1 0 0 0 -1-1h-3v-5.132q1.638-1.253 3.169-2.668zm-53.169 16.386-2.293-2.293a1 1 0 0 0 -1.414 0l-2.293 2.293v-6.586h6zm10 5.355-3.3-5.941h6.6zm16 2.645-2.293-2.293a1 1 0 0 0 -1.414 0l-2.293 2.293v-6.586h6zm10-2.645-3.3-5.941h6.6zm16-5.355-2.293-2.293a1 1 0 0 0 -1.414 0l-2.293 2.293v-6.586h6zm-58-18.024v-1.562h1.611l.656.6a39.47 39.47 0 0 0 26.733 10.4 39.466 39.466 0 0 0 26.733-10.4l.656-.6h1.611v1.562l-.188.172a42.357 42.357 0 0 1 -28.812 11.266 42.361 42.361 0 0 1 -28.813-11.266z"/><path d="m62 30h-3a1 1 0 0 0 -.676.263l-.942.864a37.563 37.563 0 0 1 -50.764 0l-.942-.864a1 1 0 0 0 -.676-.263h-3a1 1 0 0 0 -1 1v3a1 1 0 0 0 .322.735l.508.469q1.53 1.413 3.17 2.665v5.131h-3a1 1 0 0 0 -1 1v10a1 1 0 0 0 1.707.707l3.293-3.293 3.293 3.293a1 1 0 0 0 1.707-.707v-10a1 1 0 0 0 -1-1h-3v-3.694a44.282 44.282 0 0 0 11 5.436v4.258h-4a1 1 0 0 0 -.874 1.486l5 9a1 1 0 0 0 1.748 0l5-9a1 1 0 0 0 -.874-1.486h-4v-3.648a44.508 44.508 0 0 0 11 1.625v4.023h-3a1 1 0 0 0 -1 1v10a1 1 0 0 0 1.707.707l3.293-3.293 3.293 3.293a1 1 0 0 0 1.707-.707v-10a1 1 0 0 0 -1-1h-3v-4.023a44.508 44.508 0 0 0 11-1.625v3.648h-4a1 1 0 0 0 -.874 1.486l5 9a1 1 0 0 0 1.748 0l5-9a1 1 0 0 0 -.874-1.486h-4v-4.258a44.282 44.282 0 0 0 11-5.436v3.694h-3a1 1 0 0 0 -1 1v10a1 1 0 0 0 1.707.707l3.293-3.293 3.293 3.293a1 1 0 0 0 1.707-.707v-10a1 1 0 0 0 -1-1h-3v-5.132q1.638-1.253 3.169-2.664l.509-.469a1 1 0 0 0 .322-.735v-3a1 1 0 0 0 -1-1zm-53 21.586-2.293-2.293a1 1 0 0 0 -1.414 0l-2.293 2.293v-6.586h6zm10 5.355-3.3-5.941h6.6zm16 2.645-2.293-2.293a1 1 0 0 0 -1.414 0l-2.293 2.293v-6.586h6zm10-2.645-3.3-5.941h6.6zm16-5.355-2.293-2.293a1 1 0 0 0 -1.414 0l-2.293 2.293v-6.586h6zm0-18.024-.188.172a42.477 42.477 0 0 1 -57.625 0l-.187-.172v-1.562h1.611l.656.6a39.563 39.563 0 0 0 53.466 0l.656-.6h1.611z"/></svg>