<svg id="_x33_0" enable-background="new 0 0 64 64" height="512" viewBox="0 0 64 64" width="512" xmlns="http://www.w3.org/2000/svg"><g><g><g><path d="m42.96 28.52c-.53-.14-1.08-.25-1.63-.33-.13-.02-.25-.05-.36-.09l-1.51 4.53c-.28.82-1.04 1.37-1.9 1.37h-3.12c-.86 0-1.62-.55-1.9-1.37l-1.46-4.39c-.06.03-.14.05-.21.07-.62.17-1.22.36-1.8.6-2.34.9-4.44 2.27-6.19 4-.97.96-1.83 2.03-2.56 3.19-.93 1.45-1.65 3.04-2.13 4.74l-.65 2.28 6.52 1.45h.01c.06.66.18 1.31.36 1.95.38 1.32.69 2.65.92 4 .43 2.37.65 4.77.65 7.18v4.3h20v-4.3c0-3.78.53-7.54 1.57-11.18.05-.17.09-.35.13-.52h4.3 2v-3.2c0-6.79-4.61-12.61-11.04-14.28z" fill="#75b1f2"/></g><g><path d="m40 49.37v4.63c0 1.1-.9 2-2 2-.55 0-1.05-.22-1.41-.59-.37-.36-.59-.86-.59-1.41 0-.59-.4-1.1-.97-1.24l-.48-.12c-1.5-.38-2.55-1.72-2.55-3.27 0-.93.38-1.77.99-2.38.39-.39.87-.68 1.41-.85.31-.09.63-.14.97-.14h1.26c.34 0 .66.05.97.14 1.39.42 2.4 1.71 2.4 3.23z" fill="#ef7385"/></g><g><path d="m11.83 30h4.17v4h-5l.68-1.37c.21-.41.32-.87.32-1.34v-.29c0-.35-.06-.69-.18-1z" fill="#ccd1d9"/></g><g><path d="m20 29v6c0 .28-.11.52-.29.71-.19.18-.43.29-.71.29h-2c-.55 0-1-.45-1-1v-1-4-1c0-.55.45-1 1-1h2c.55 0 1 .45 1 1z" fill="#aab2bd"/></g><g><path d="m6 31v4c0 .55-.45 1-1 1h-2c-.55 0-1-.45-1-1v-6c0-.55.45-1 1-1h2c.55 0 1 .45 1 1z" fill="#aab2bd"/></g><g><path d="m39 9-9.53 2.6c-.87.24-1.47 1.03-1.47 1.93v2.47h-2v-.34c0-3.63-1.44-7.1-4-9.66 2.3-1.31 4.74-2.31 7.27-2.98 2.53-.68 5.15-1.02 7.79-1.02h2.85c4.47 0 8.09 3.62 8.09 8.09 0 1.26-.29 2.49-.85 3.62l-1.15 2.29h-2v-2.87c0-.7-.37-1.35-.97-1.71z" fill="#fcd770"/></g><g><path d="m46 16c1.1 0 2 .9 2 2 0 .55-.22 1.05-.59 1.41-.36.37-.86.59-1.41.59h-2.25c.16-.64.25-1.31.25-2v-2z" fill="#f0d0b4"/></g><g><path d="m40.97 28.1-1.51 4.53c-.28.82-1.04 1.37-1.9 1.37h-3.12c-.86 0-1.62-.55-1.9-1.37l-1.46-4.39c.6-.24 1.05-.74 1.2-1.38l.4-1.58c1.01.46 2.14.72 3.32.72s2.31-.26 3.32-.72l.35 1.42c.17.66.66 1.19 1.3 1.4z" fill="#f0d0b4"/></g><g><path d="m44 16v2c0 .69-.09 1.36-.25 2-.61 2.36-2.26 4.29-4.43 5.28-1.01.46-2.14.72-3.32.72s-2.31-.26-3.32-.72c-.88-.4-1.67-.95-2.34-1.62-.99-1-1.72-2.25-2.09-3.66-.16-.64-.25-1.31-.25-2v-2-2.47c0-.9.6-1.69 1.47-1.93l9.53-2.6 4.03 2.42c.6.36.97 1.01.97 1.71z" fill="#f0d0b4"/></g><g><path d="m28.25 20h-2.25c-.55 0-1.05-.22-1.41-.59-.37-.36-.59-.86-.59-1.41 0-1.1.9-2 2-2h2v2c0 .69.09 1.36.25 2z" fill="#f0d0b4"/></g><g><path d="m52 46v16h-6v-4.3c0-3.78.53-7.54 1.57-11.18.05-.17.09-.35.13-.52z" fill="#f0d0b4"/></g><g><path d="m17.54 43.12 6.52 1.45h.01c.06.66.18 1.31.36 1.95.38 1.32.69 2.65.92 4l-.55 1.28c-.54 1.28-1.44 2.32-2.55 3.06-1.11.73-2.43 1.14-3.81 1.14-2.67 0-5.05-1.67-5.96-4.17l-5.45-15.01c-.68-1.87-1.03-3.84-1.03-5.82 0-.83.34-1.58.88-2.12s1.29-.88 2.12-.88c1.31 0 2.42.83 2.82 2 .12.31.18.65.18 1v.29c0 .47-.11.93-.32 1.34l-.68 1.37 6.19 10.32z" fill="#f0d0b4"/></g></g><g><circle cx="32" cy="16" r="1"/><circle cx="40" cy="16" r="1"/><path d="m39.789 20.658.105-.211-1.789-.895-.105.212c-.381.762-1.147 1.236-2 1.236s-1.619-.474-2-1.236l-.105-.211-1.789.895.105.211c.722 1.444 2.174 2.341 3.789 2.341s3.067-.897 3.789-2.342z"/><path d="m55 42.797c0-7.79-5.815-14.495-13.527-15.597-.404-.058-.729-.352-.829-.747l-.164-.658c1.845-1.064 3.274-2.761 3.996-4.795h1.524c1.654 0 3-1.346 3-3 0-1.134-.64-2.112-1.571-2.621l.611-1.222c.628-1.256.96-2.662.96-4.067 0-5.012-4.078-9.09-9.09-9.09h-2.848c-5.448 0-10.828 1.429-15.559 4.132l-1.137.649.926.926c2.28 2.28 3.568 5.279 3.684 8.484-1.149.421-1.976 1.515-1.976 2.809 0 1.654 1.346 3 3 3h1.525c.722 2.034 2.151 3.731 3.996 4.795l-.206.825c-.088.352-.359.629-.707.724-3.795 1.035-7.13 3.233-9.607 6.173v-4.517c0-1.103-.897-2-2-2h-2c-1.103 0-2 .897-2 2h-2.556c-.694-1.19-1.97-2-3.444-2-.902 0-1.726.311-2.396.817-.366-.493-.946-.817-1.605-.817h-2c-1.103 0-2 .897-2 2v6c0 1.103.897 2 2 2h2c.348 0 .67-.097.955-.254.046.138.081.278.131.415l5.459 15.012c1.05 2.888 3.819 4.827 6.891 4.827 2.547 0 4.875-1.228 6.347-3.215.129 1.3.217 2.605.217 3.914v5.301h28v-16h2zm-19.631 4.203h1.262c1.307 0 2.369 1.063 2.369 2.369v4.631c0 .552-.448 1-1 1s-1-.448-1-1c0-1.048-.71-1.957-1.727-2.212l-.479-.12c-1.056-.265-1.794-1.21-1.794-2.299 0-1.306 1.063-2.369 2.369-2.369zm1.262-2h-1.262c-.159 0-.309.03-.464.047-2.615-4.118-4.218-8.838-4.624-13.702l-.146-1.763c.101-.034.205-.062.307-.095l1.154 3.462c.409 1.227 1.552 2.051 2.845 2.051h3.117c1.293 0 2.437-.824 2.846-2.051l1.228-3.684c.086.015.171.032.256.049l-.169 2.031c-.406 4.864-2.01 9.583-4.625 13.702-.154-.017-.305-.047-.463-.047zm9.369-26h-1.059c.037-.329.059-.662.059-1v-1h1c.552 0 1 .448 1 1s-.448 1-1 1zm-8.937-16h2.848c3.908 0 7.089 3.181 7.089 7.09 0 1.097-.259 2.192-.749 3.171l-.869 1.739h-.382v-1.867c0-1.047-.558-2.033-1.456-2.573l-3.544-2.126v-2.434h-2v2.236l-8.789 2.397c-1.302.355-2.211 1.545-2.211 2.894v1.473h-.028c-.142-3.227-1.31-6.269-3.371-8.731 4.152-2.142 8.78-3.269 13.462-3.269zm-11.063 16c-.552 0-1-.448-1-1s.448-1 1-1h1v1c0 .338.022.671.059 1zm3-1v-4.473c0-.45.303-.847.736-.965l9.115-2.485 3.662 2.197c.3.18.486.509.486.858v4.868c0 3.859-3.141 7-7 7s-6.999-3.141-6.999-7zm7 9c.912 0 1.792-.139 2.622-.392l.082.329c.165.661.546 1.221 1.055 1.623l-1.251 3.756c-.137.41-.519.684-.949.684h-3.117c-.431 0-.813-.274-.949-.684l-1.223-3.669c.47-.399.83-.923.985-1.542l.124-.497c.829.253 1.709.392 2.621.392zm-19 2h2v6l-2 .002zm1.655 8c-.589 1.128-1.072 2.319-1.428 3.563l-.363 1.269-4.098-6.832h2.234c0 1.103.897 2 2 2zm-3.655-6v2h-2.393c.252-.533.393-1.119.393-1.708v-.292zm-10 4-2 .002v-6.002h2zm18.879 16.411c-.935 2.18-3.071 3.589-5.443 3.589-2.233 0-4.248-1.411-5.012-3.511l-5.459-15.011c-.64-1.76-.965-3.603-.965-5.478 0-1.103.897-2 2-2s2 .897 2 2v.292c0 .309-.073.618-.211.895l-.929 1.857 9.282 15.471 1.715-1.029-2.495-4.158 4.804 1.068c.077.471.175.94.306 1.4.341 1.194.604 2.406.832 3.623zm27.121 9.589h-4v-3.301c0-3.616.501-7.214 1.476-10.699h2.524zm2-16h-4.106c.068-.524.106-1.052.106-1.581 0-2.434-.714-4.791-2.064-6.818l-.104-.155-1.664 1.109.104.155c1.13 1.697 1.728 3.671 1.728 5.709 0 .955-.133 1.906-.396 2.827-1.064 3.728-1.604 7.581-1.604 11.453v3.301h-18v-3.301c0-3.872-.54-7.726-1.604-11.453-.263-.921-.396-1.872-.396-2.827 0-2.038.598-4.012 1.729-5.709l.104-.155-1.664-1.109-.104.155c-1.33 1.997-2.039 4.314-2.06 6.709l-4.213-.936.361-1.262c1.347-4.717 4.697-8.619 9.044-10.729l.094 1.129c.419 5.032 2.042 9.916 4.683 14.212-1.188.781-1.974 2.122-1.974 3.645 0 2.009 1.36 3.752 3.309 4.238l.479.12c.124.032.212.144.212.273 0 1.654 1.346 3 3 3s3-1.346 3-3v-4.631c0-1.524-.787-2.864-1.972-3.646 2.64-4.297 4.264-9.181 4.683-14.212l.138-1.663c5.365 1.922 9.151 7.079 9.151 12.949z"/><path d="m35 49h2v2h-2z"/></g></g></svg>