<?xml version="1.0" encoding="UTF-8"?>
<svg xmlns="http://www.w3.org/2000/svg" xmlns:xlink="http://www.w3.org/1999/xlink" version="1.1" id="Capa_1" x="0px" y="0px" viewBox="0 0 512 512" style="enable-background:new 0 0 512 512;" xml:space="preserve" width="512" height="512">
<g>
	<g>
		<g>
			<g>
				<path style="fill:#D4D4FF;" d="M198.5,271.291c12.444-12.62,31.642-22.554,51.902-24.278&#10;&#9;&#9;&#9;&#9;&#9;c19.981-2.168,40.885,4.025,50.714,12.959c15.729,14.297,10.221,30.52-0.472,42.167c-10.892,11.926-26.75,19.032-35.663,20.803&#10;&#9;&#9;&#9;&#9;&#9;l-73.871,6.364c-5.327-2.036-11.279-8.507-11.151-19.516C179.835,299.086,185.791,283.843,198.5,271.291z"/>
				<g>
					<path style="fill:#D4D4FF;" d="M353.38,337.391c7.027-10.573,20.789-14.329,32.225-8.816&#10;&#9;&#9;&#9;&#9;&#9;&#9;c10.79,5.202,16.49,17.227,13.685,28.872l-5.749,23.869l5.749,23.869c2.805,11.646-2.894,23.67-13.685,28.872&#10;&#9;&#9;&#9;&#9;&#9;&#9;c-11.436,5.513-25.198,1.756-32.225-8.816c-11.002-16.553-19.37-32.799-19.37-43.925&#10;&#9;&#9;&#9;&#9;&#9;&#9;C334.011,370.191,342.378,353.945,353.38,337.391z"/>
					<g>
						<path style="fill:#9EA2E3;" d="M352.592,362.662c-16.403-34.44-48.054-60.59-87.263-69.136h-40.268v175.904h38.843&#10;&#9;&#9;&#9;&#9;&#9;&#9;&#9;c39.266-8.001,71.903-34.221,88.687-69.459c10.136-0.199,18.293-8.471,18.292-18.654&#10;&#9;&#9;&#9;&#9;&#9;&#9;&#9;C370.884,371.134,362.727,362.861,352.592,362.662z"/>
						<path style="fill:#8288CB;" d="M265.329,293.526c-2.189-0.477-4.396-0.911-6.63-1.277&#10;&#9;&#9;&#9;&#9;&#9;&#9;&#9;c-62.525-10.23-123.38,28.054-141.259,89.067c17.823,60.823,78.248,99.17,141.26,89.075c1.749-0.28,3.481-0.61,5.206-0.961&#10;&#9;&#9;&#9;&#9;&#9;&#9;&#9;c-21.609-23.814-33.66-54.878-33.66-87.185C230.245,349.238,242.828,317.533,265.329,293.526z"/>
					</g>
					<path style="fill:#D4D4FF;" d="M212.956,401.442c0,17.36,16.918,31.432,30.516,31.432c13.598,0,18.728-14.073,18.728-31.432&#10;&#9;&#9;&#9;&#9;&#9;&#9;s-11.024-20.823-24.622-20.823C223.98,380.619,212.956,384.083,212.956,401.442z"/>
				</g>
			</g>
			<path style="fill:#D4D4FF;" d="M148.707,381.317c0-12.033-14.194-26.363-26.363-26.363c-7.531,0-13.636,6.105-13.636,13.636&#10;&#9;&#9;&#9;&#9;c0,5.802,3.624,10.758,8.731,12.727c-5.621,2.162-9.321,7.893-8.655,14.167c0.743,6.999,6.659,12.198,13.543,12.198&#10;&#9;&#9;&#9;&#9;C133.381,407.681,148.707,393.974,148.707,381.317z"/>
		</g>
		<g>
			<g>
				<g>
					<path style="fill:#EA5B70;" d="M102.785,48.001c-5.315-3.009-11.431-4.737-17.924-4.737c-15.808,0-29.414,10.212-34.538,24.342&#10;&#9;&#9;&#9;&#9;&#9;&#9;c-2.647-1.225-5.594-1.913-8.702-1.913c-11.463,0-20.756,9.293-20.756,20.756s9.293,20.757,20.756,20.757&#10;&#9;&#9;&#9;&#9;&#9;&#9;c5.331,0,10.19-2.011,13.866-5.314c6.721,8.959,17.419,14.799,29.375,14.799c8.549,0,16.497-3.018,22.788-8.02L102.785,48.001z&#10;&#9;&#9;&#9;&#9;&#9;&#9;"/>
					<path style="fill:#FF8E9E;" d="M125.654,40c-8.649,0-16.595,2.997-22.869,8.001C93.95,55.056,88.49,66.026,89.022,78.292&#10;&#9;&#9;&#9;&#9;&#9;&#9;c0.566,13.038,7.914,24.338,18.627,30.379c5.324,3.007,11.454,4.757,18.005,4.757c20.277,0,36.714-16.437,36.714-36.714&#10;&#9;&#9;&#9;&#9;&#9;&#9;C162.368,56.437,145.931,40,125.654,40z"/>
				</g>
				<g>
					<path style="fill:#EFEDFF;" d="M97.181,86.451l-55.502,22.051v131.954l47.407,35.169c4.331,3.877,10.047,6.237,16.317,6.237&#10;&#9;&#9;&#9;&#9;&#9;&#9;c10.503,0,19.458-6.617,22.931-15.909c4.486,4.789,10.871,7.777,17.956,7.751c13.567-0.051,24.382-11.431,24.382-24.998&#10;&#9;&#9;&#9;&#9;&#9;&#9;v-81.065C170.673,125.312,138.444,90.51,97.181,86.451z"/>
					<path style="fill:#D4D4FF;" d="M87.93,86.063c-43.621,0.604-79.36,35.963-80.406,79.576&#10;&#9;&#9;&#9;&#9;&#9;&#9;c-0.29,12.102,2.057,23.624,6.506,34.033c5.095,11.919,4.015,25.63-2.841,36.63c-2.646,4.245-4.028,9.36-3.618,14.818&#10;&#9;&#9;&#9;&#9;&#9;&#9;c0.916,12.191,10.972,21.96,23.183,22.555c7.534,0.367,14.361-2.679,19.083-7.721c3.473,9.292,12.428,15.909,22.931,15.909&#10;&#9;&#9;&#9;&#9;&#9;&#9;c6.27,0,11.987-2.36,16.317-6.237c-25.13-25.13-39.249-59.215-39.249-94.754V167.95c0-33.697,18.071-64.806,47.343-81.499&#10;&#9;&#9;&#9;&#9;&#9;&#9;C94.146,86.153,91.053,86.02,87.93,86.063z"/>
				</g>
				<path style="fill:#FFCE71;" d="M159.58,201.811l11.093,11.093l20.737-12.049c8.12-4.718,8.12-16.445,0-21.163l-20.737-12.05&#10;&#9;&#9;&#9;&#9;&#9;l-11.093,11.093C153.208,185.107,153.208,195.439,159.58,201.811z"/>
			</g>
			<path style="fill:#FF8E9E;" d="M103.659,169.875c-13.067,0-23.66,8.401-23.66,18.765c0,10.364,10.593,18.765,23.66,18.765&#10;&#9;&#9;&#9;&#9;c13.067,0,23.66-8.401,23.66-18.765C127.319,178.277,116.726,169.875,103.659,169.875z"/>
		</g>
		<g>
			<g>
				<g>
					<g>
						<path style="fill:#676FB2;" d="M440.194,109.526h-91.445v102.502h50.025c12.63-17.152,26.027-38.323,35.331-54.528&#10;&#9;&#9;&#9;&#9;&#9;&#9;&#9;l0.879-0.585c8.924-0.105,16.964-2.733,23.345-7.193c4.154-2.904,6.897-8.01,8.236-13.824L440.194,109.526z"/>
						<g>
							<path style="fill:#EFEDFF;" d="M397.58,212.028h1.193C398.908,211.846,398.245,211.937,397.58,212.028z"/>
							<path style="fill:#EFEDFF;" d="M458.329,104.843c-6.465-4.519-14.658-7.206-23.898-7.206&#10;&#9;&#9;&#9;&#9;&#9;&#9;&#9;&#9;c-2.151-10.233-9.628-18.098-19.15-21.265c-10.771-3.583-21.906-6.374-33.313-8.195h-57.538v143.851h71.947&#10;&#9;&#9;&#9;&#9;&#9;&#9;&#9;&#9;c-25.975-1.44-43.39-24.053-43.39-50.387c0-27.266,22.103-49.369,49.369-49.369c17.83,0,33.441,9.458,42.116,23.626h22.092&#10;&#9;&#9;&#9;&#9;&#9;&#9;&#9;&#9;C469.178,124.553,466.436,110.509,458.329,104.843z"/>
							<path style="fill:#EFEDFF;" d="M397.58,212.028h-1.202C396.243,212.212,396.912,212.12,397.58,212.028z"/>
						</g>
					</g>
					<path style="fill:#D4D4FF;" d="M381.968,68.177c4.791-10.081-5.073-18.473-13.567-14.436l-6.763,3.215l-2.509-7.055&#10;&#9;&#9;&#9;&#9;&#9;&#9;c-3.281-9.226-16.328-9.226-19.609,0l-2.509,7.055l-6.763-3.215c-8.603-4.089-18.26,4.796-13.679,14.436&#10;&#9;&#9;&#9;&#9;&#9;&#9;c-11.945,1.817-23.597,4.451-34.852,8.195c-9.493,3.157-16.993,11.002-19.15,21.265c-9.239,0-17.432,2.687-23.898,7.206&#10;&#9;&#9;&#9;&#9;&#9;&#9;c-12.261,8.57-12.262,36.309,0,44.878c6.466,4.519,14.659,7.206,23.898,7.206c0,0,16.831,29.64,35.658,55.1h57.592&#10;&#9;&#9;&#9;&#9;&#9;&#9;c-10.125-17.002-15.641-36.619-15.646-56.892C340.165,121.321,355.546,89.281,381.968,68.177z"/>
				</g>
				<g>
					<path style="fill:#FFDBE0;" d="M386.392,196.395c-9.167-10.644-26.476-15.366-42.872-14.172v53.915h31.707&#10;&#9;&#9;&#9;&#9;&#9;&#9;c4.369-2.205,8.195-5.029,11.164-8.476c4.12-4.784,8.297-10.111,12.381-15.633&#10;&#9;&#9;&#9;&#9;&#9;&#9;C394.689,206.506,390.512,201.179,386.392,196.395z"/>
					<path style="fill:#FFB5C0;" d="M359.258,217.444c-7.254-10.717-12.581-22.639-15.737-35.221&#10;&#9;&#9;&#9;&#9;&#9;&#9;c-13.088,0.953-25.594,5.675-32.912,14.172c-4.12,4.784-8.297,10.111-12.381,15.634c4.084,5.522,8.261,10.85,12.381,15.633&#10;&#9;&#9;&#9;&#9;&#9;&#9;c13.516,15.694,44.728,18.517,64.62,8.476C369.188,230.473,363.832,224.202,359.258,217.444z"/>
				</g>
			</g>
			<path style="fill:#E8B5B1;" d="M257.495,129.304c-0.46-11.551-8.308-21.091-18.823-24.461c-2.647-0.849-5.464-1.306-8.374-1.306&#10;&#9;&#9;&#9;&#9;c-4.447,0-8.226-2.809-11.256-6.676c-2.586-3.302-6.607-5.155-10.8-5.076c-5.719,0.107-10.818,3.784-12.558,9.233&#10;&#9;&#9;&#9;&#9;c-1.835,5.746-3.183,12.625-3.183,20.665c0,14.922,11.667,27.508,26.58,28.033h23.542c6.143,0,11.641-3.951,13.461-9.818&#10;&#9;&#9;&#9;&#9;C257.185,136.347,257.633,132.781,257.495,129.304z"/>
			<path style="fill:#F2D4D3;" d="M501.317,101.018c-1.74-5.449-6.839-9.126-12.559-9.233c-4.193-0.078-8.213,1.774-10.8,5.076&#10;&#9;&#9;&#9;&#9;c-3.03,3.867-6.809,6.676-11.256,6.676c-14.471,0-26.621,11.307-27.197,25.767c-0.139,3.478,0.309,7.042,1.411,10.593&#10;&#9;&#9;&#9;&#9;c1.82,5.867,7.319,9.819,13.462,9.819h23.542c14.913-0.525,26.58-13.11,26.58-28.032&#10;&#9;&#9;&#9;&#9;C504.5,113.643,503.152,106.764,501.317,101.018z"/>
		</g>
	</g>
	<g>
		<g>
			<g>
				<g>
					<path style="fill:none;stroke:#000000;stroke-width:15;stroke-linecap:round;stroke-linejoin:round;stroke-miterlimit:10;" d="&#10;&#9;&#9;&#9;&#9;&#9;&#9;M345.582,412.73c2.367,4.098,4.995,8.295,7.799,12.512c7.027,10.573,20.79,14.33,32.225,8.816&#10;&#9;&#9;&#9;&#9;&#9;&#9;c10.79-5.202,16.49-17.227,13.685-28.872l-5.749-23.869l5.749-23.869c2.805-11.646-2.895-23.67-13.685-28.872&#10;&#9;&#9;&#9;&#9;&#9;&#9;c-11.436-5.513-25.198-1.756-32.225,8.816c-2.804,4.218-5.433,8.415-7.799,12.514"/>
					<path style="fill:none;stroke:#000000;stroke-width:15;stroke-linecap:round;stroke-linejoin:round;stroke-miterlimit:10;" d="&#10;&#9;&#9;&#9;&#9;&#9;&#9;M127.972,406.653c25.161,45.731,77,72.346,130.727,63.739c1.749-0.28,3.481-0.61,5.206-0.961&#10;&#9;&#9;&#9;&#9;&#9;&#9;c39.087-7.964,71.826-34.056,88.687-69.459 M352.592,362.662c-44.446-93.33-175.432-95.84-224.571-6.756 M212.956,401.442&#10;&#9;&#9;&#9;&#9;&#9;&#9;c0-17.359,11.024-20.823,24.622-20.823c13.599,0,24.622,3.463,24.622,20.823c0,17.36-5.13,31.432-18.728,31.432&#10;&#9;&#9;&#9;&#9;&#9;&#9;C229.874,432.875,212.956,418.802,212.956,401.442z"/>
					<path style="fill:none;stroke:#000000;stroke-width:15;stroke-linecap:round;stroke-linejoin:round;stroke-miterlimit:10;" d="&#10;&#9;&#9;&#9;&#9;&#9;&#9;M148.707,381.317c0-10.189-10.179-22.023-20.687-25.411c-1.901-0.613-3.812-0.952-5.676-0.952&#10;&#9;&#9;&#9;&#9;&#9;&#9;c-7.531,0-13.636,6.105-13.636,13.636c0,5.802,3.624,10.758,8.731,12.727c-5.621,2.163-9.321,7.893-8.655,14.167&#10;&#9;&#9;&#9;&#9;&#9;&#9;c0.743,6.999,6.659,12.198,13.543,12.198c1.797,0,3.707-0.368,5.645-1.028C137.959,403.248,148.707,391.917,148.707,381.317z"/>
				</g>
			</g>
			<g>
				<g>
					<g>
						
							<path style="fill:none;stroke:#000000;stroke-width:15;stroke-linecap:round;stroke-linejoin:round;stroke-miterlimit:10;" d="&#10;&#9;&#9;&#9;&#9;&#9;&#9;&#9;M238.671,149.722c6.466,4.519,14.659,7.206,23.898,7.206c0,0,24.924,43.895,48.039,70.734&#10;&#9;&#9;&#9;&#9;&#9;&#9;&#9;c16.485,19.141,59.299,19.141,75.784,0c23.115-26.839,48.039-70.734,48.039-70.734c9.24,0,17.432-2.688,23.898-7.207"/>
						
							<path style="fill:none;stroke:#000000;stroke-width:15;stroke-linecap:round;stroke-linejoin:round;stroke-miterlimit:10;" d="&#10;&#9;&#9;&#9;&#9;&#9;&#9;&#9;M257.495,129.304c-0.46-11.551-8.308-21.091-18.823-24.461c-2.647-0.849-5.464-1.306-8.374-1.306&#10;&#9;&#9;&#9;&#9;&#9;&#9;&#9;c-4.447,0-8.226-2.809-11.256-6.676c-6.523-8.327-20.106-6.028-23.358,4.157c-1.834,5.746-3.183,12.625-3.183,20.665&#10;&#9;&#9;&#9;&#9;&#9;&#9;&#9;c0,14.922,11.667,27.508,26.58,28.033h23.542c6.143,0,11.64-3.952,13.461-9.818&#10;&#9;&#9;&#9;&#9;&#9;&#9;&#9;C257.186,136.346,257.634,132.781,257.495,129.304z"/>
						
							<path style="fill:none;stroke:#000000;stroke-width:15;stroke-linecap:round;stroke-linejoin:round;stroke-miterlimit:10;" d="&#10;&#9;&#9;&#9;&#9;&#9;&#9;&#9;M501.317,101.018c-1.74-5.449-6.839-9.126-12.559-9.233c-4.193-0.078-8.213,1.774-10.8,5.076&#10;&#9;&#9;&#9;&#9;&#9;&#9;&#9;c-3.03,3.867-6.809,6.676-11.256,6.676c-14.471,0-26.621,11.308-27.197,25.767c-0.139,3.477,0.309,7.042,1.411,10.593&#10;&#9;&#9;&#9;&#9;&#9;&#9;&#9;c1.82,5.867,7.318,9.819,13.462,9.819h23.542c14.913-0.525,26.58-13.11,26.58-28.032&#10;&#9;&#9;&#9;&#9;&#9;&#9;&#9;C504.5,113.643,503.152,106.764,501.317,101.018z"/>
					</g>
					<path style="fill:none;stroke:#000000;stroke-width:15;stroke-linecap:round;stroke-linejoin:round;stroke-miterlimit:10;" d="&#10;&#9;&#9;&#9;&#9;&#9;&#9;M398.773,212.028c-4.084-5.523-8.261-10.85-12.381-15.634c-16.485-19.141-59.299-19.141-75.784,0&#10;&#9;&#9;&#9;&#9;&#9;&#9;c-4.12,4.784-8.297,10.111-12.381,15.634"/>
					<path style="fill:none;stroke:#000000;stroke-width:15;stroke-linecap:round;stroke-linejoin:round;stroke-miterlimit:10;" d="&#10;&#9;&#9;&#9;&#9;&#9;&#9;M458.329,104.843c-6.465-4.519-14.658-7.206-23.898-7.206c-2.151-10.233-9.628-18.098-19.15-21.265&#10;&#9;&#9;&#9;&#9;&#9;&#9;c-10.771-3.583-21.906-6.315-33.313-8.136l0.299-0.629c4.204-8.844-5.022-18.069-13.866-13.866l-6.763,3.215l-2.509-7.055&#10;&#9;&#9;&#9;&#9;&#9;&#9;c-3.281-9.226-16.328-9.226-19.609,0l-2.509,7.055l-6.763-3.215c-8.844-4.204-18.07,5.022-13.866,13.866l0.187,0.394&#10;&#9;&#9;&#9;&#9;&#9;&#9;c-11.945,1.817-23.597,4.628-34.852,8.371c-9.493,3.157-16.993,11.002-19.15,21.265c-9.239,0-17.432,2.687-23.898,7.206"/>
				</g>
				<g>
					
						<line style="fill:none;stroke:#000000;stroke-width:15;stroke-linecap:round;stroke-linejoin:round;stroke-miterlimit:10;" x1="302.071" y1="149.755" x2="302.071" y2="158.67"/>
					
						<line style="fill:none;stroke:#000000;stroke-width:15;stroke-linecap:round;stroke-linejoin:round;stroke-miterlimit:10;" x1="394.929" y1="149.755" x2="394.929" y2="158.67"/>
				</g>
				<g>
					
						<line style="fill:none;stroke:#000000;stroke-width:15;stroke-linecap:round;stroke-linejoin:round;stroke-miterlimit:10;" x1="332.929" y1="211.65" x2="332.929" y2="211.65"/>
					
						<line style="fill:none;stroke:#000000;stroke-width:15;stroke-linecap:round;stroke-linejoin:round;stroke-miterlimit:10;" x1="364.071" y1="211.65" x2="364.071" y2="211.65"/>
				</g>
			</g>
			
				<line style="fill:none;stroke:#000000;stroke-width:15;stroke-linecap:round;stroke-linejoin:round;stroke-miterlimit:10;" x1="183.896" y1="357.718" x2="183.896" y2="366.837"/>
			<path style="fill:none;stroke:#000000;stroke-width:15;stroke-linecap:round;stroke-linejoin:round;stroke-miterlimit:10;" d="&#10;&#9;&#9;&#9;&#9;M297.523,305.282c15.065-14.207,18.985-31.318,3.593-45.309c-9.829-8.934-30.733-15.128-50.714-12.959&#10;&#9;&#9;&#9;&#9;c-37.237,3.167-66.494,31.706-70.104,57.905"/>
		</g>
		<g>
			<g>
				<g>
					
						<path style="fill:none;stroke:#000000;stroke-width:15;stroke-linecap:round;stroke-linejoin:round;stroke-miterlimit:10;stroke-dasharray:202,30,1000,0,1000,0;" d="&#10;&#9;&#9;&#9;&#9;&#9;&#9;M170.673,167.642c0-19.399-6.773-37.217-18.082-51.221C137.416,97.628,114.07,85.703,87.93,86.063&#10;&#9;&#9;&#9;&#9;&#9;&#9;c-43.388,0.601-79.356,35.758-80.406,79.576c-0.29,12.102,2.057,23.624,6.506,34.033c5.095,11.919,4.015,25.63-2.841,36.63&#10;&#9;&#9;&#9;&#9;&#9;&#9;c-2.646,4.245-4.028,9.36-3.618,14.818c0.916,12.191,10.972,21.96,23.183,22.555c7.534,0.367,14.361-2.679,19.083-7.721&#10;&#9;&#9;&#9;&#9;&#9;&#9;c3.473,9.292,12.428,15.909,22.931,15.909c6.27,0,11.987-2.36,16.317-6.237c4.331,3.877,10.047,6.237,16.317,6.237&#10;&#9;&#9;&#9;&#9;&#9;&#9;c10.503,0,19.458-6.617,22.931-15.909c4.486,4.789,10.871,7.777,17.956,7.751c6.633-0.025,12.604-2.763,16.979-7.135&#10;&#9;&#9;&#9;&#9;&#9;&#9;c4.574-4.571,7.403-10.929,7.403-17.863v-35.803"/>
					<path style="fill:none;stroke:#000000;stroke-width:15;stroke-linejoin:round;stroke-miterlimit:10;" d="M191.41,179.691&#10;&#9;&#9;&#9;&#9;&#9;&#9;l-20.737-12.05l-11.093,11.093c-6.372,6.372-6.372,16.704,0,23.076l11.093,11.093l20.737-12.049&#10;&#9;&#9;&#9;&#9;&#9;&#9;C199.53,196.137,199.53,184.409,191.41,179.691z"/>
				</g>
				
					<line style="fill:none;stroke:#000000;stroke-width:15;stroke-linecap:round;stroke-linejoin:round;stroke-miterlimit:10;" x1="123.095" y1="167.682" x2="123.095" y2="175.801"/>
			</g>
			<path style="fill:none;stroke:#000000;stroke-width:15;stroke-linejoin:round;stroke-miterlimit:10;" d="M144.801,108.043&#10;&#9;&#9;&#9;&#9;c10.536-6.453,17.567-18.069,17.567-31.329c0-20.277-16.437-36.714-36.714-36.714c-8.649,0-16.595,2.997-22.869,8.001&#10;&#9;&#9;&#9;&#9;C82.94,36.768,58.016,46.388,50.323,67.606c-13.601-6.293-29.459,3.573-29.459,18.843c0,9.322,6.145,17.208,14.606,19.829"/>
		</g>
	</g>
</g>















</svg>
