<?xml version="1.0" encoding="UTF-8" standalone="no"?>
<!DOCTYPE svg PUBLIC "-//W3C//DTD SVG 1.1//EN" "http://www.w3.org/Graphics/SVG/1.1/DTD/svg11.dtd">
<!-- Created with Vectornator (http://vectornator.io/) -->
<svg height="100%" stroke-miterlimit="10" style="fill-rule:nonzero;clip-rule:evenodd;stroke-linecap:round;stroke-linejoin:round;" version="1.1" viewBox="0 0 682.667 682.665" width="100%" xml:space="preserve" xmlns="http://www.w3.org/2000/svg" xmlns:vectornator="http://vectornator.io" xmlns:xlink="http://www.w3.org/1999/xlink">
<defs>
<linearGradient gradientTransform="matrix(6.49276 0 0 6.59417 -22.7952 -119.255)" gradientUnits="userSpaceOnUse" id="LinearGradient" x1="14.148" x2="11.257" y1="43.031" y2="25.836">
<stop offset="0" stop-color="#f57900"/>
<stop offset="1" stop-color="#f57900" stop-opacity="0"/>
</linearGradient>
</defs>
<clipPath id="ArtboardFrame">
<rect height="682.665" width="682.667" x="0" y="0"/>
</clipPath>
<g clip-path="url(#ArtboardFrame)" id="g4890" vectornator:layerName="g4890">
<path d="M341.764 72.1328L111.246 296.365L111.246 625.757L572.282 625.757L572.282 296.365L341.764 72.1328Z" fill="#dfebfa" fill-rule="nonzero" opacity="1" stroke="none" vectornator:layerName="path"/>
<g opacity="1" vectornator:layerName="path">
<clipPath id="ClipPath">
<path d="M0 5.1595e-05L682.667 5.1595e-05L682.667 682.665L0 682.665L0 5.1595e-05Z"/>
</clipPath>
<g clip-path="url(#ClipPath)">
<path d="M165.916 329.996C165.916 322.133 169.096 314.604 174.732 309.123L380.064 109.389L341.764 72.1334L111.247 296.364L111.247 625.756L165.916 625.756L165.916 329.996Z" fill="#b1dbfc" fill-rule="nonzero" opacity="1" stroke="none" vectornator:layerName="path"/>
<path d="M483.036 56.9088L483.036 140.51L556.852 212.313L556.852 56.9088L483.036 56.9088Z" fill="#695d67" fill-rule="nonzero" opacity="1" stroke="none" vectornator:layerName="path"/>
<path d="M525.784 146.191C522.05 142.559 519.943 137.571 519.943 132.362L519.943 56.9087L483.035 56.9087L483.035 140.51L556.851 212.313L556.851 176.411L525.784 146.191Z" fill="#544e55" fill-rule="nonzero" opacity="1" stroke="none" vectornator:layerName="path"/>
<path d="M633.438 282.811L361.017 17.8191C350.298 7.39114 333.229 7.39114 322.51 17.8191L50.0888 282.811C39.1581 293.443 38.9155 310.924 49.5501 321.856C60.1835 332.788 77.6648 333.03 88.5955 322.395L337.974 79.8178C340.083 77.7671 343.443 77.7671 345.553 79.8178L594.931 322.395C605.867 333.032 623.349 332.784 633.977 321.856C644.611 310.924 644.37 293.443 633.438 282.811" fill="#ff656f" fill-rule="nonzero" opacity="1" stroke="none" vectornator:layerName="path"/>
<path d="M337.975 79.8183C338.921 78.897 340.123 78.413 341.348 78.3183L365.621 54.7076C372.789 47.7343 382.792 45.4503 391.841 47.8036L361.017 17.8183C350.299 7.39163 333.229 7.39163 322.511 17.8183L50.0892 282.812C39.1572 293.442 38.9159 310.925 49.5505 321.857C60.1839 332.789 77.6652 333.03 88.5959 322.396L337.975 79.8183Z" fill="#ff4756" fill-rule="nonzero" opacity="1" stroke="none" vectornator:layerName="path"/>
<path d="M578.265 51.2669L578.265 19.6402C578.265 14.3149 573.948 9.99753 568.622 9.99753L471.265 9.99753C465.94 9.99753 461.624 14.3149 461.624 19.6402L461.624 51.2669C461.624 56.5922 465.94 60.9082 471.265 60.9082L568.622 60.9082C573.948 60.9082 578.265 56.5922 578.265 51.2669" fill="#7b6c79" fill-rule="nonzero" opacity="1" stroke="none" vectornator:layerName="path"/>
<path d="M498.53 51.2669L498.53 19.6402C498.53 14.3149 502.846 9.99753 508.172 9.99753L471.264 9.99753C465.94 9.99753 461.622 14.3149 461.622 19.6402L461.622 51.2669C461.622 56.5922 465.94 60.9082 471.264 60.9082L508.172 60.9082C502.846 60.9082 498.53 56.5922 498.53 51.2669" fill="#695d67" fill-rule="nonzero" opacity="1" stroke="none" vectornator:layerName="path"/>
<path d="M164.583 625.756L319.213 625.756L319.213 376.099L164.583 376.099L164.583 625.756Z" fill="#ab6b51" fill-rule="nonzero" opacity="1" stroke="none" vectornator:layerName="path"/>
<path d="M164.583 625.756L214.661 625.756L214.661 376.099L164.583 376.099L164.583 625.756Z" fill="#965a44" fill-rule="nonzero" opacity="1" stroke="none" vectornator:layerName="path"/>
<path d="M364.314 377.432L364.314 564.138C364.314 568.255 367.652 571.594 371.77 571.594L511.489 571.594C515.606 571.594 518.945 568.255 518.945 564.138L518.945 377.432L364.314 377.432Z" fill="#60b8fe" fill-rule="nonzero" opacity="1" stroke="none" vectornator:layerName="path"/>
<path d="M414.393 564.138L414.393 377.433L364.314 377.433L364.314 564.138C364.314 568.255 367.653 571.594 371.77 571.594L421.849 571.594C417.73 571.594 414.393 568.255 414.393 564.138" fill="#23a8fe" fill-rule="nonzero" opacity="1" stroke="none" vectornator:layerName="path"/>
<path d="M511.489 330.216L371.77 330.216C367.653 330.216 364.314 333.555 364.314 337.672L364.314 378.765L518.945 378.765L518.945 337.672C518.945 333.555 515.606 330.216 511.489 330.216" fill="#23a8fe" fill-rule="nonzero" opacity="1" stroke="none" vectornator:layerName="path"/>
<path d="M421.848 330.216L371.77 330.216C367.652 330.216 364.315 333.555 364.315 337.672L364.315 378.765L414.392 378.765L414.392 337.672C414.392 333.555 417.731 330.216 421.848 330.216" fill="#0193fa" fill-rule="nonzero" opacity="1" stroke="none" vectornator:layerName="path"/>
<path d="M311.758 330.216L172.039 330.216C167.922 330.216 164.583 333.555 164.583 337.672L164.583 378.765L319.214 378.765L319.214 337.672C319.214 333.555 315.875 330.216 311.758 330.216" fill="#bc7c63" fill-rule="nonzero" opacity="1" stroke="none" vectornator:layerName="path"/>
<path d="M222.117 330.216L172.039 330.216C167.921 330.216 164.583 333.555 164.583 337.672L164.583 378.765L214.661 378.765L214.661 337.672C214.661 333.555 218 330.216 222.117 330.216" fill="#ab6b51" fill-rule="nonzero" opacity="1" stroke="none" vectornator:layerName="path"/>
<path d="M265.324 466.206C254.268 466.206 245.305 475.168 245.305 486.226C245.305 497.282 254.268 506.243 265.324 506.243C276.38 506.243 285.344 497.282 285.344 486.226C285.344 475.168 276.38 466.206 265.324 466.206" fill="#dfebfa" fill-rule="nonzero" opacity="1" stroke="none" vectornator:layerName="path"/>
<path d="M582.016 621.756L101.512 621.756C96.1862 621.756 91.8702 626.074 91.8702 631.398L91.8702 663.024C91.8702 668.35 96.1862 672.668 101.512 672.668L582.016 672.668C587.341 672.668 591.658 668.35 591.658 663.024L591.658 631.398C591.658 626.074 587.341 621.756 582.016 621.756" fill="#43cb8e" fill-rule="nonzero" opacity="1" stroke="none" vectornator:layerName="path"/>
<path d="M152.87 663.025L152.87 631.398C152.87 626.073 157.186 621.757 162.511 621.757L101.511 621.757C96.1857 621.757 91.8697 626.073 91.8697 631.398L91.8697 663.025C91.8697 668.35 96.1857 672.666 101.511 672.666L162.511 672.666C157.186 672.666 152.87 668.35 152.87 663.025" fill="#00ba66" fill-rule="nonzero" opacity="1" stroke="none" vectornator:layerName="path"/>
<path d="M594.501 322.396L341.333 76.1331L88.1665 322.396C77.2345 333.03 59.7532 332.789 49.1198 321.857C38.4852 310.924 38.7265 293.442 49.6585 282.812L322.08 17.8184C332.798 7.39177 349.868 7.39177 360.586 17.8184L633.008 282.812C643.94 293.442 644.181 310.924 633.546 321.857C622.917 332.785 605.437 333.033 594.501 322.396Z" fill="none" opacity="1" stroke="#000000" stroke-linecap="round" stroke-linejoin="round" stroke-width="20" vectornator:layerName="path"/>
<path d="M581.585 621.756L101.081 621.756C95.7559 621.756 91.4399 626.074 91.4399 631.398L91.4399 663.024C91.4399 668.35 95.7559 672.668 101.081 672.668L581.585 672.668C586.911 672.668 591.228 668.35 591.228 663.024L591.228 631.398C591.228 626.074 586.911 621.756 581.585 621.756Z" fill="none" opacity="1" stroke="#000000" stroke-linecap="round" stroke-linejoin="round" stroke-width="20" vectornator:layerName="path"/>
<path d="M577.834 51.2669L577.834 19.6402C577.834 14.3149 573.517 9.99753 568.192 9.99753L470.834 9.99753C465.509 9.99753 461.193 14.3149 461.193 19.6402L461.193 51.2669C461.193 56.5922 465.509 60.9082 470.834 60.9082L568.192 60.9082C573.517 60.9082 577.834 56.5922 577.834 51.2669Z" fill="none" opacity="1" stroke="#000000" stroke-linecap="round" stroke-linejoin="round" stroke-width="20" vectornator:layerName="path"/>
<path d="M571.851 621.756L571.851 300.364" fill="none" opacity="1" stroke="#000000" stroke-linecap="round" stroke-linejoin="round" stroke-width="20" vectornator:layerName="path"/>
<path d="M110.816 300.365L110.816 621.757" fill="none" opacity="1" stroke="#000000" stroke-linecap="round" stroke-linejoin="round" stroke-width="20" vectornator:layerName="path"/>
<path d="M511.059 330.216L371.34 330.216C367.223 330.216 363.884 333.555 363.884 337.672L363.884 564.137C363.884 568.255 367.223 571.593 371.34 571.593L511.059 571.593C515.176 571.593 518.515 568.255 518.515 564.137L518.515 337.672C518.515 333.555 515.176 330.216 511.059 330.216Z" fill="none" opacity="1" stroke="#000000" stroke-linecap="round" stroke-linejoin="round" stroke-width="20" vectornator:layerName="path"/>
<path d="M164.152 378.766L318.783 378.766" fill="none" opacity="1" stroke="#000000" stroke-linecap="round" stroke-linejoin="round" stroke-width="20" vectornator:layerName="path"/>
<path d="M363.884 378.766L518.515 378.766" fill="none" opacity="1" stroke="#000000" stroke-linecap="round" stroke-linejoin="round" stroke-width="20" vectornator:layerName="path"/>
<path d="M264.893 466.206C253.837 466.206 244.875 475.168 244.875 486.226C244.875 497.282 253.837 506.243 264.893 506.243C275.949 506.243 284.913 497.282 284.913 486.226C284.913 475.168 275.949 466.206 264.893 466.206Z" fill="none" opacity="1" stroke="#000000" stroke-linecap="round" stroke-linejoin="round" stroke-width="20" vectornator:layerName="path"/>
<path d="M441.199 378.766L441.199 571.594" fill="none" opacity="1" stroke="#000000" stroke-linecap="round" stroke-linejoin="round" stroke-width="20" vectornator:layerName="path"/>
<path d="M363.884 475.181L518.515 475.181" fill="none" opacity="1" stroke="#000000" stroke-linecap="round" stroke-linejoin="round" stroke-width="20" vectornator:layerName="path"/>
<path d="M318.783 621.756L318.783 337.672C318.783 333.555 315.445 330.216 311.327 330.216L264.802 330.216" fill="none" opacity="1" stroke="#000000" stroke-linecap="round" stroke-linejoin="round" stroke-width="20" vectornator:layerName="path"/>
<path d="M218.135 330.216L171.608 330.216C167.491 330.216 164.152 333.555 164.152 337.672L164.152 621.756" fill="none" opacity="1" stroke="#000000" stroke-linecap="round" stroke-linejoin="round" stroke-width="20" vectornator:layerName="path"/>
<path d="M482.605 60.9088L482.605 136.51" fill="none" opacity="1" stroke="#000000" stroke-linecap="round" stroke-linejoin="round" stroke-width="20" vectornator:layerName="path"/>
<path d="M556.421 94.5703L556.421 60.909" fill="none" opacity="1" stroke="#000000" stroke-linecap="round" stroke-linejoin="round" stroke-width="20" vectornator:layerName="path"/>
<path d="M556.421 208.313L556.421 141.237" fill="none" opacity="1" stroke="#000000" stroke-linecap="round" stroke-linejoin="round" stroke-width="20" vectornator:layerName="path"/>
</g>
</g>
<g opacity="1" vectornator:layerName="g4215">
<path d="M85.0566 65.3909L292.815 65.3909C315.023 65.3909 333.026 82.3528 333.026 103.276L333.026 189.57C333.026 210.493 315.023 227.455 292.815 227.455L85.0566 227.455C62.8483 227.455 44.8449 210.493 44.8449 189.57L44.8449 103.276C44.8449 82.3528 62.8483 65.3909 85.0566 65.3909Z" fill="#000000" fill-rule="nonzero" opacity="0.94444" stroke="none" vectornator:layerName="rect"/>
<path d="M53.7805 44.3457L324.091 44.3457C329.026 44.3457 333.026 48.1149 333.026 52.7644L333.026 197.991C333.026 202.641 329.026 206.41 324.091 206.41L53.7805 206.41C48.8455 206.41 44.8449 202.641 44.8449 197.991L44.8449 52.7644C44.8449 48.1149 48.8455 44.3457 53.7805 44.3457Z" fill="#000000" fill-rule="nonzero" opacity="0.94444" stroke="none" vectornator:layerName="rect"/>
</g>
<path d="M32.2696 13.1032L361.29 13.1032C366.445 13.1032 370.624 17.0402 370.624 21.8968L370.624 21.8974C370.624 26.754 366.445 30.691 361.29 30.691L32.2696 30.691C27.1148 30.691 22.936 26.754 22.936 21.8974L22.936 21.8968C22.936 17.0402 27.1148 13.1032 32.2696 13.1032Z" fill="#000000" fill-rule="nonzero" opacity="0.94444" stroke="none" vectornator:layerName="rect"/>
<path d="M144.2 20.2502C144.239 26.6036 140.274 32.4886 133.809 35.6748C127.344 38.8611 119.367 38.8611 112.902 35.6748C106.437 32.4886 102.472 26.6036 102.511 20.2502C102.472 13.8967 106.437 8.01178 112.902 4.82552C119.367 1.63926 127.344 1.63926 133.809 4.82552C140.274 8.01178 144.239 13.8967 144.2 20.2502Z" fill="#000000" fill-rule="nonzero" opacity="0.94444" stroke="none" vectornator:layerName="path"/>
<path d="M256.046 20.2502C256.085 26.6036 252.121 32.4886 245.656 35.6748C239.19 38.8611 231.214 38.8611 224.749 35.6748C218.283 32.4886 214.319 26.6036 214.358 20.2502C214.319 13.8967 218.283 8.01178 224.749 4.82552C231.214 1.63926 239.19 1.63926 245.656 4.82552C252.121 8.01178 256.085 13.8967 256.046 20.2502Z" fill="#000000" fill-rule="nonzero" opacity="0.94444" stroke="none" vectornator:layerName="path"/>
<g opacity="1" vectornator:layerName="g2179">
<path d="M85.0566 65.3909L292.815 65.3909C315.023 65.3909 333.026 82.3528 333.026 103.276L333.026 189.57C333.026 210.493 315.023 227.455 292.815 227.455L85.0566 227.455C62.8483 227.455 44.8449 210.493 44.8449 189.57L44.8449 103.276C44.8449 82.3528 62.8483 65.3909 85.0566 65.3909Z" fill="#000000" fill-rule="nonzero" opacity="0.94444" stroke="none" vectornator:layerName="rect"/>
<path d="M53.7805 44.3457L324.091 44.3457C329.026 44.3457 333.026 48.1149 333.026 52.7644L333.026 197.991C333.026 202.641 329.026 206.41 324.091 206.41L53.7805 206.41C48.8455 206.41 44.8449 202.641 44.8449 197.991L44.8449 52.7644C44.8449 48.1149 48.8455 44.3457 53.7805 44.3457Z" fill="#000000" fill-rule="nonzero" opacity="0.94444" stroke="none" vectornator:layerName="rect"/>
</g>
<g opacity="1" vectornator:layerName="text4277">
<path d="M87.6398 176.817L87.6398 108.49L121.11 108.49C128.101 108.49 133.261 109.127 136.589 110.401C139.917 111.675 142.648 113.795 144.784 116.763C146.919 119.73 147.986 123.171 147.987 127.086C147.986 132.245 146.176 136.424 142.555 139.624C138.933 142.824 133.669 144.86 126.761 145.729C129.566 146.972 131.701 148.231 133.166 149.505C136.139 152.115 138.755 155.02 141.016 158.22L154.203 176.817L141.644 176.817L131.597 162.601C127.703 157.04 124.762 153.295 122.774 151.369C120.785 149.443 118.86 148.145 116.997 147.477C115.134 146.809 112.528 146.475 109.179 146.475L97.6247 146.475L97.6247 176.817L87.6398 176.817ZM97.6243 138.645L119.101 138.645C123.789 138.645 127.348 138.226 129.776 137.387C132.204 136.548 134.13 135.227 135.553 133.425C136.976 131.623 137.688 129.526 137.688 127.133C137.688 123.684 136.327 120.973 133.606 119C130.885 117.027 126.845 116.041 121.487 116.041L97.6242 116.041L97.6243 138.645Z" fill="#000000" fill-rule="nonzero" opacity="1" stroke="none" vectornator:layerName="path"/>
<path d="M199.855 160.878L209.4 161.95C207.81 167.232 204.931 171.217 200.766 173.905C196.6 176.592 191.441 177.936 185.287 177.936C177.542 177.936 171.273 175.754 166.479 171.388C161.686 167.022 159.289 160.723 159.289 152.488C159.289 143.944 161.707 137.427 166.542 132.937C171.378 128.447 177.5 126.202 184.91 126.202C191.985 126.202 197.888 128.408 202.619 132.82C207.349 137.233 209.715 143.618 209.715 151.976L209.652 154.213L168.835 154.213C169.212 159.775 170.949 163.97 174.047 166.798C177.145 169.625 180.912 171.039 185.35 171.039C192.299 171.039 197.134 167.652 199.856 160.879L199.855 160.878ZM169.4 147.315L199.918 147.315C199.5 143.027 198.265 139.827 196.213 137.714C193.241 134.638 189.453 133.1 184.848 133.1C180.703 133.1 177.166 134.381 174.235 136.945C171.305 139.508 169.693 142.965 169.4 147.315L169.4 147.315Z" fill="#000000" fill-rule="nonzero" opacity="1" stroke="none" vectornator:layerName="path"/>
<path d="M221.206 176.817L221.206 127.32L229.558 127.32L229.558 134.358C231.567 131.624 234.027 129.581 236.936 128.229C239.846 126.878 243.184 126.202 246.952 126.202C249.883 126.202 252.593 126.629 255.084 127.484C257.575 128.338 259.585 129.457 261.113 130.839C262.641 132.222 263.782 134.017 264.535 136.223C265.289 138.429 265.665 141.816 265.665 146.383L265.665 176.818L256.372 176.818L256.372 146.709C256.372 143.074 255.953 140.417 255.116 138.739C254.278 137.061 252.97 135.764 251.191 134.847C249.412 133.931 247.35 133.473 245.006 133.473C240.568 133.473 237.03 134.7 234.393 137.155C231.756 139.609 230.437 143.819 230.437 149.785L230.437 176.818L221.206 176.817Z" fill="#000000" fill-rule="nonzero" opacity="1" stroke="none" vectornator:layerName="path"/>
<path d="M300.645 169.315L301.9 176.725C299.347 177.223 297.044 177.471 294.993 177.471C291.769 177.471 289.174 176.997 287.206 176.05C285.239 175.102 283.889 173.805 283.156 172.158C282.423 170.511 282.057 167.233 282.057 162.324L282.057 133.846L275.275 133.846L275.275 127.321L282.057 127.321L282.057 115.063L291.288 110.029L291.288 127.321L300.645 127.321L300.645 133.846L291.288 133.846L291.288 162.789C291.288 165.461 291.56 167.186 292.104 167.963C292.9 169.081 294.386 169.641 296.563 169.641C297.609 169.641 298.97 169.532 300.645 169.315Z" fill="#000000" fill-rule="nonzero" opacity="1" stroke="none" vectornator:layerName="path"/>
</g>
<path d="M52.9293 45.5148C49.3012 46.1756 46.5637 49.1435 46.5637 52.5902L46.5637 175.115C46.5637 176.635 47.398 178.103 48.2998 179.256L48.2998 185.123C48.2998 204.294 65.45 219.637 86.8784 219.637L286.718 219.637C308.146 219.637 325.49 204.294 325.49 185.123L325.49 106.262C325.49 102.919 324.926 99.652 323.946 96.5983L323.946 52.5939C323.946 48.655 320.248 45.5184 315.845 45.5184L54.665 45.5184C54.1147 45.5184 53.4472 45.424 52.9289 45.5184L52.9293 45.5148Z" fill="#fcaf3e" fill-rule="nonzero" opacity="1" stroke="#b3570b" stroke-linecap="butt" stroke-linejoin="miter" stroke-width="1" vectornator:layerName="path"/>
<path d="M24.5076 5.17711L353.528 5.17711C358.683 5.17711 362.862 9.11415 362.862 13.9707L362.862 13.9713C362.862 18.8279 358.683 22.765 353.528 22.765L24.5076 22.765C19.3528 22.765 15.174 18.8279 15.174 13.9713L15.174 13.9707C15.174 9.11415 19.3528 5.17711 24.5076 5.17711Z" fill="#2e3436" fill-rule="nonzero" opacity="0.94444" stroke="none" vectornator:layerName="rect"/>
<path d="M137.435 13.3378C137.474 19.6912 133.51 25.5761 127.044 28.7624C120.579 31.9487 112.602 31.9487 106.137 28.7624C99.6721 25.5761 95.7077 19.6912 95.7464 13.3378C95.7077 6.98431 99.6721 1.09936 106.137-2.0869C112.602-5.27316 120.579-5.27316 127.044-2.0869C133.51 1.09936 137.474 6.98431 137.435 13.3378Z" fill="#888a85" fill-rule="nonzero" opacity="0.94444" stroke="none" vectornator:layerName="path"/>
<path d="M249.283 13.3378C249.322 19.6912 245.357 25.5761 238.892 28.7624C232.427 31.9487 224.45 31.9487 217.985 28.7624C211.52 25.5761 207.555 19.6912 207.594 13.3378C207.555 6.98431 211.52 1.09936 217.985-2.0869C224.45-5.27316 232.427-5.27316 238.892-2.0869C245.357 1.09936 249.322 6.98431 249.283 13.3378Z" fill="#888a85" fill-rule="nonzero" opacity="0.94444" stroke="none" vectornator:layerName="path"/>
<path d="M58.7798 53.5843C55.3112 54.1897 52.694 56.9085 52.694 60.0657L52.694 172.305C52.694 173.698 53.4916 175.042 54.3538 176.099L54.3538 181.474C54.3538 199.035 70.7506 213.09 91.2379 213.09L282.294 213.09C302.781 213.09 319.362 199.035 319.362 181.474L319.362 109.228C319.362 106.166 318.824 103.173 317.887 100.375L317.887 60.0646C317.887 56.4563 314.351 53.5832 310.141 53.5832L60.436 53.5832C59.91 53.5832 59.2717 53.4967 58.7762 53.5832L58.7798 53.5843Z" fill="url(#LinearGradient)" fill-rule="nonzero" opacity="1" stroke="#ce5c00" stroke-dasharray="0.6256055235862732,0.3128027617931366" stroke-linecap="butt" stroke-linejoin="miter" stroke-width="0.312799" vectornator:layerName="path"/>
<g opacity="1" vectornator:layerName="text2193">
<path d="M96.2186 94.3226L96.2186 71.129L91.9733 71.129L91.9733 67.6072L96.2186 67.6072L96.2186 64.7647C96.2186 62.9703 96.3877 61.6371 96.7259 60.765C97.1887 59.591 98.003 58.6394 99.169 57.9098C100.335 57.1803 101.968 56.8155 104.068 56.8155C105.421 56.8155 106.916 56.9664 108.554 57.2683L107.833 61.2177C106.836 61.0501 105.893 60.9662 105.003 60.9662C103.543 60.9662 102.511 61.2597 101.906 61.8466C101.301 62.4336 100.998 63.5321 100.998 65.142L100.998 67.6072L106.525 67.6072L106.525 71.129L100.998 71.129L100.998 94.3226L96.2186 94.3226Z" fill="#8f5902" fill-rule="nonzero" opacity="1" stroke="none" vectornator:layerName="path"/>
<path d="M108.443 80.9613C108.443 76.0141 109.903 72.3497 112.822 69.9682C115.261 67.9893 118.233 66.9999 121.74 66.9999C125.638 66.9999 128.824 68.2032 131.298 70.6097C133.773 73.0163 135.01 76.341 135.01 80.5841C135.01 84.022 134.462 86.726 133.368 88.697C132.273 90.6675 130.68 92.1978 128.588 93.2878C126.497 94.3779 124.214 94.9229 121.74 94.9229C117.77 94.9229 114.561 93.7239 112.114 91.3257C109.669 88.9315 108.443 85.4733 108.443 80.9632L108.443 80.9613ZM113.383 80.9613C113.383 84.3825 114.175 86.9442 115.759 88.6462C117.343 90.3484 119.337 91.1994 121.74 91.1994C124.125 91.1994 126.11 90.3441 127.694 88.6336C129.278 86.923 130.07 84.3152 130.07 80.8103C130.07 77.5066 129.274 75.0036 127.681 73.3014C126.087 71.5992 124.107 70.7482 121.74 70.7482C119.337 70.7482 117.343 71.5951 115.759 73.2888C114.175 74.9827 113.383 77.5401 113.383 80.9613Z" fill="#8f5902" fill-rule="nonzero" opacity="1" stroke="none" vectornator:layerName="path"/>
<path d="M140.618 94.3226L140.618 67.6074L144.944 67.6074L144.944 71.6574C146.047 69.7624 147.066 68.513 148.001 67.9092C148.935 67.3055 149.963 67.0037 151.085 67.0036C152.704 67.0037 154.351 67.49 156.024 68.4627L154.369 72.6637C153.194 72.0096 152.019 71.6826 150.844 71.6826C149.794 71.6826 148.851 71.9803 148.014 72.5756C147.178 73.171 146.581 73.9969 146.225 75.0534C145.691 76.6634 145.424 78.4243 145.424 80.3361L145.424 94.3225L140.618 94.3226Z" fill="#8f5902" fill-rule="nonzero" opacity="1" stroke="none" vectornator:layerName="path"/>
</g>
<g opacity="1" vectornator:layerName="text2197">
<path d="M84.3793 174.19L84.3793 105.863L117.849 105.863C124.84 105.863 130 106.5 133.328 107.773C136.656 109.048 139.388 111.168 141.523 114.135C143.658 117.103 144.726 120.544 144.726 124.459C144.726 129.617 142.915 133.797 139.294 136.997C135.673 140.197 130.408 142.233 123.501 143.102C126.306 144.345 128.441 145.604 129.906 146.877C132.878 149.488 135.495 152.393 137.755 155.593L150.943 174.19L138.384 174.19L128.336 159.974C124.443 154.412 121.502 150.668 119.513 148.742C117.525 146.816 115.599 145.518 113.736 144.85C111.873 144.182 109.267 143.848 105.918 143.848L94.3642 143.848L94.3642 174.19L84.3793 174.19ZM94.3638 136.018L115.84 136.018C120.529 136.018 124.087 135.599 126.515 134.76C128.943 133.921 130.869 132.6 132.292 130.798C133.716 128.996 134.427 126.899 134.427 124.506C134.427 121.057 133.067 118.346 130.346 116.373C127.625 114.4 123.585 113.414 118.226 113.413L94.3638 113.413L94.3638 136.018Z" fill="#000000" fill-rule="nonzero" opacity="1" stroke="none" vectornator:layerName="path"/>
<path d="M196.595 158.247L206.14 159.318C204.549 164.601 201.671 168.586 197.505 171.273C193.34 173.961 188.18 175.305 182.026 175.305C174.281 175.305 168.012 173.122 163.219 168.756C158.425 164.391 156.029 158.091 156.029 149.857C156.029 141.312 158.446 134.795 163.282 130.305C168.117 125.815 174.24 123.57 181.65 123.57C188.725 123.57 194.627 125.776 199.358 130.189C204.089 134.601 206.454 140.986 206.454 149.345L206.391 151.582L165.574 151.582C165.951 157.144 167.689 161.338 170.786 164.166C173.884 166.994 177.652 168.407 182.089 168.407C189.039 168.407 193.874 165.021 196.595 158.247L196.595 158.247ZM166.139 144.684L196.658 144.684C196.239 140.396 195.004 137.196 192.953 135.082C189.981 132.006 186.192 130.468 181.587 130.468C177.443 130.468 173.905 131.75 170.975 134.313C168.044 136.877 166.433 140.334 166.14 144.683L166.139 144.684Z" fill="#000000" fill-rule="nonzero" opacity="1" stroke="none" vectornator:layerName="path"/>
<path d="M217.951 174.19L217.951 124.693L226.303 124.693L226.303 131.731C228.313 128.997 230.772 126.954 233.682 125.602C236.591 124.251 239.93 123.575 243.698 123.575C246.628 123.575 249.339 124.002 251.83 124.856C254.321 125.711 256.33 126.83 257.858 128.212C259.386 129.595 260.527 131.389 261.281 133.596C262.034 135.802 262.411 139.188 262.411 143.756L262.411 174.191L253.117 174.191L253.117 144.082C253.117 140.447 252.698 137.79 251.861 136.112C251.024 134.434 249.716 133.137 247.937 132.22C246.157 131.304 244.095 130.845 241.751 130.845C237.314 130.845 233.776 132.073 231.139 134.527C228.502 136.982 227.183 141.192 227.183 147.158L227.183 174.191L217.951 174.19Z" fill="#000000" fill-rule="nonzero" opacity="1" stroke="none" vectornator:layerName="path"/>
<path d="M297.384 166.683L298.64 174.094C296.086 174.591 293.784 174.84 291.732 174.84C288.509 174.84 285.913 174.366 283.946 173.418C281.98 172.47 280.632 171.174 279.896 169.526C279.163 167.879 278.797 164.601 278.797 159.692L278.797 131.214L272.014 131.214L272.014 124.689L278.797 124.689L278.797 112.431L288.028 107.397L288.028 124.689L297.384 124.689L297.384 131.214L288.028 131.214L288.028 160.157C288.027 162.829 288.3 164.554 288.844 165.331C289.639 166.449 291.125 167.009 293.302 167.009C294.349 167.009 295.71 166.9 297.384 166.683L297.384 166.683Z" fill="#000000" fill-rule="nonzero" opacity="1" stroke="none" vectornator:layerName="path"/>
</g>
<g opacity="1" vectornator:layerName="text3266">
<path d="M77.1992 168.407L77.1992 100.079L110.669 100.079C117.66 100.079 122.82 100.716 126.148 101.99C129.476 103.264 132.208 105.385 134.343 108.352C136.478 111.32 137.546 114.761 137.546 118.676C137.546 123.834 135.735 128.013 132.114 131.214C128.493 134.414 123.228 136.449 116.321 137.319C119.126 138.562 121.261 139.82 122.726 141.094C125.698 143.704 128.315 146.609 130.575 149.81L143.763 168.407L131.204 168.407L121.156 154.191C117.263 148.629 114.322 144.885 112.333 142.959C110.345 141.032 108.419 139.735 106.556 139.067C104.693 138.399 102.087 138.065 98.7382 138.065L87.184 138.065L87.184 168.407L77.1992 168.407ZM87.1837 130.235L108.66 130.235C113.349 130.235 116.907 129.816 119.335 128.977C121.763 128.138 123.689 126.817 125.112 125.015C126.536 123.213 127.247 121.115 127.247 118.723C127.247 115.274 125.887 112.563 123.166 110.59C120.444 108.617 116.405 107.63 111.046 107.63L87.1836 107.63L87.1837 130.235Z" fill="#ce5c00" fill-rule="nonzero" opacity="1" stroke="none" vectornator:layerName="path"/>
<path d="M189.415 152.468L198.96 153.54C197.369 158.822 194.491 162.807 190.325 165.494C186.16 168.182 181 169.526 174.846 169.526C167.101 169.526 160.832 167.343 156.039 162.978C151.245 158.612 148.849 152.312 148.849 144.078C148.849 135.533 151.266 129.016 156.102 124.526C160.937 120.036 167.06 117.791 174.47 117.791C181.545 117.791 187.447 119.998 192.178 124.41C196.909 128.822 199.274 135.208 199.274 143.566L199.211 145.803L158.394 145.803C158.771 151.365 160.508 155.56 163.606 158.387C166.704 161.215 170.472 162.629 174.91 162.629C181.859 162.629 186.694 159.242 189.416 152.468L189.415 152.468ZM158.959 138.905L189.478 138.905C189.059 134.617 187.824 131.417 185.773 129.304C182.8 126.227 179.012 124.689 174.407 124.689C170.262 124.689 166.725 125.971 163.795 128.534C160.864 131.098 159.252 134.555 158.959 138.905L158.959 138.905Z" fill="#ce5c00" fill-rule="nonzero" opacity="1" stroke="none" vectornator:layerName="path"/>
<path d="M210.765 168.407L210.765 118.91L219.117 118.91L219.117 125.948C221.126 123.213 223.586 121.17 226.496 119.819C229.405 118.467 232.744 117.792 236.511 117.792C239.442 117.792 242.153 118.219 244.644 119.073C247.134 119.928 249.144 121.046 250.672 122.429C252.2 123.812 253.341 125.606 254.095 127.812C254.848 130.019 255.225 133.405 255.225 137.973L255.225 168.408L245.931 168.408L245.931 138.299C245.931 134.664 245.512 132.007 244.675 130.329C243.838 128.651 242.53 127.354 240.75 126.437C238.971 125.521 236.909 125.062 234.565 125.062C230.127 125.062 226.59 126.29 223.953 128.744C221.315 131.199 219.997 135.409 219.997 141.375L219.997 168.407L210.765 168.407Z" fill="#ce5c00" fill-rule="nonzero" opacity="1" stroke="none" vectornator:layerName="path"/>
<path d="M290.204 160.9L291.46 168.311C288.906 168.808 286.604 169.056 284.552 169.056C281.329 169.056 278.733 168.583 276.766 167.635C274.798 166.687 273.448 165.39 272.715 163.743C271.983 162.096 271.617 158.818 271.617 153.909L271.617 125.432L264.834 125.432L264.834 118.906L271.617 118.906L271.617 106.648L280.847 101.615L280.847 118.906L290.204 118.906L290.204 125.431L280.847 125.431L280.847 154.374C280.847 157.047 281.119 158.771 281.664 159.548C282.459 160.667 283.945 161.226 286.122 161.226C287.169 161.226 288.529 161.117 290.204 160.9Z" fill="#ce5c00" fill-rule="nonzero" opacity="1" stroke="none" vectornator:layerName="path"/>
</g>
<g opacity="1" vectornator:layerName="text3274">
<path d="M96.9758 93.0469L96.9758 69.8534L92.7305 69.8534L92.7305 66.3316L96.9758 66.3316L96.9758 63.489C96.9758 61.6946 97.1449 60.3614 97.4831 59.4893C97.9459 58.3154 98.7603 57.3637 99.9262 56.6342C101.092 55.9047 102.725 55.5399 104.826 55.5399C106.178 55.5399 107.674 55.6908 109.311 55.9927L108.59 59.9421C107.594 59.7745 106.65 59.6906 105.76 59.6906C104.301 59.6906 103.268 59.9841 102.663 60.571C102.058 61.158 101.755 62.2565 101.755 63.8664L101.755 66.3316L107.282 66.3316L107.282 69.8534L101.755 69.8534L101.755 93.047L96.9758 93.0469Z" fill="#ffffff" fill-rule="nonzero" opacity="1" stroke="none" vectornator:layerName="path"/>
<path d="M109.207 79.6917C109.207 74.7444 110.666 71.0801 113.586 68.6986C116.024 66.7197 118.997 65.7303 122.503 65.7303C126.402 65.7303 129.588 66.9336 132.062 69.3401C134.536 71.7467 135.773 75.0714 135.773 79.3145C135.773 82.7524 135.226 85.4564 134.131 87.4273C133.037 89.3978 131.444 90.9282 129.352 92.0182C127.26 93.1083 124.978 93.6534 122.503 93.6534C118.534 93.6534 115.325 92.4543 112.878 90.0561C110.43 87.658 109.206 84.2032 109.207 79.6917ZM114.146 79.6917C114.146 83.1129 114.938 85.6746 116.522 87.3766C118.107 89.0788 120.1 89.9299 122.503 89.9298C124.889 89.9298 126.873 89.0745 128.458 87.364C130.042 85.6534 130.834 83.0456 130.834 79.5407C130.834 76.237 130.037 73.7339 128.444 72.0318C126.851 70.3296 124.871 69.4785 122.503 69.4785C120.1 69.4786 118.107 70.3254 116.522 72.0192C114.938 73.7131 114.146 76.2705 114.146 79.6917Z" fill="#ffffff" fill-rule="nonzero" opacity="1" stroke="none" vectornator:layerName="path"/>
<path d="M141.382 93.0469L141.382 66.3317L145.707 66.3317L145.707 70.3818C146.811 68.4867 147.83 67.2374 148.764 66.6336C149.699 66.0299 150.727 65.7281 151.848 65.728C153.468 65.728 155.115 66.2144 156.788 67.1871L155.132 71.388C153.958 70.734 152.783 70.407 151.608 70.407C150.558 70.407 149.614 70.7047 148.778 71.3C147.941 71.8954 147.345 72.7213 146.989 73.7778C146.455 75.3878 146.188 77.1487 146.188 79.0605L146.188 93.0469L141.382 93.0469Z" fill="#ffffff" fill-rule="nonzero" opacity="1" stroke="none" vectornator:layerName="path"/>
</g>
<g opacity="1" vectornator:layerName="text3278">
<path d="M79.086 171.448L79.086 103.121L112.557 103.121C119.548 103.121 124.709 103.758 128.037 105.032C131.365 106.306 134.096 108.426 136.232 111.394C138.367 114.361 139.434 117.803 139.435 121.718C139.434 126.876 137.624 131.055 134.002 134.255C130.381 137.456 125.117 139.491 118.209 140.361C121.014 141.604 123.149 142.862 124.614 144.136C127.587 146.746 130.203 149.651 132.464 152.852L145.652 171.449L133.092 171.449L123.045 157.233C119.162 151.679 116.22 147.934 114.231 146.007C112.243 144.081 110.313 142.782 108.454 142.117C106.589 141.446 103.979 141.113 100.632 141.113L89.0764 141.113L89.0764 171.455L79.086 171.448ZM89.0707 133.276L110.548 133.276C115.237 133.276 118.795 132.856 121.224 132.017C123.652 131.178 125.578 129.858 127.001 128.056C128.424 126.253 129.136 124.156 129.136 121.763C129.136 118.314 127.775 115.604 125.054 113.63C122.333 111.657 118.293 110.671 112.934 110.671L89.0716 110.671L89.0707 133.276Z" fill="#ffffff" fill-rule="nonzero" opacity="1" stroke="none" vectornator:layerName="path"/>
<path d="M191.304 155.51L200.849 156.582C199.258 161.865 196.38 165.85 192.214 168.538C188.049 171.225 182.889 172.569 176.735 172.569C168.99 172.569 162.721 170.386 157.927 166.021C153.134 161.655 150.737 155.355 150.737 147.121C150.737 138.576 153.155 132.059 157.99 127.569C162.825 123.079 168.948 120.834 176.358 120.834C183.433 120.834 189.336 123.04 194.067 127.453C198.797 131.865 201.163 138.251 201.163 146.609L201.1 148.846L160.281 148.846C160.658 154.408 162.395 158.603 165.493 161.43C168.591 164.258 172.359 165.672 176.797 165.672C183.746 165.672 188.582 162.285 191.303 155.511L191.304 155.51ZM160.847 141.947L191.367 141.947C190.948 137.66 189.713 134.459 187.662 132.346C184.689 129.27 180.901 127.732 176.295 127.732C172.151 127.732 168.614 129.014 165.682 131.577C162.752 134.141 161.14 137.598 160.847 141.947Z" fill="#ffffff" fill-rule="nonzero" opacity="1" stroke="none" vectornator:layerName="path"/>
<path d="M212.654 171.448L212.654 121.95L221.007 121.95L221.007 128.988C223.016 126.253 225.476 124.21 228.386 122.858C231.295 121.507 234.634 120.831 238.402 120.831C241.333 120.831 244.043 121.258 246.535 122.113C249.025 122.967 251.035 124.086 252.563 125.469C254.091 126.851 255.232 128.646 255.986 130.852C256.739 133.058 257.116 136.445 257.116 141.013L257.116 171.448L247.822 171.448L247.822 141.339C247.822 137.704 247.403 135.047 246.566 133.369C245.728 131.691 244.42 130.394 242.641 129.477C240.862 128.561 238.8 128.102 236.455 128.102C232.018 128.102 228.48 129.33 225.842 131.784C223.205 134.239 221.886 138.45 221.886 144.415L221.886 171.448L212.654 171.448Z" fill="#ffffff" fill-rule="nonzero" opacity="1" stroke="none" vectornator:layerName="path"/>
<path d="M292.099 163.946L293.354 171.357C290.801 171.854 288.498 172.102 286.447 172.102C283.223 172.102 280.627 171.628 278.66 170.681C276.692 169.733 275.342 168.436 274.609 166.789C273.877 165.142 273.51 161.864 273.51 156.954L273.51 128.477L266.728 128.477L266.728 121.952L273.51 121.952L273.51 109.694L282.742 104.66L282.742 121.952L292.099 121.952L292.099 128.477L282.742 128.477L282.742 157.421C282.742 160.093 283.014 161.818 283.558 162.595C284.354 163.713 285.84 164.272 288.017 164.272C289.063 164.272 290.424 164.164 292.099 163.946Z" fill="#ffffff" fill-rule="nonzero" opacity="1" stroke="none" vectornator:layerName="path"/>
</g>
</g>
</svg>
