<?xml version="1.0" encoding="UTF-8"?>
<svg xmlns="http://www.w3.org/2000/svg" xmlns:xlink="http://www.w3.org/1999/xlink" version="1.1" id="Capa_1" x="0px" y="0px" viewBox="0 0 512 512" style="enable-background:new 0 0 512 512;" xml:space="preserve" width="512" height="512">
<g>
	<g>
		<path style="fill:#FE93BB;" d="M412.667,182.022C411.982,96.076,342.108,26.612,256,26.612S100.018,96.076,99.333,182.022H412.667&#10;&#9;&#9;&#9;z"/>
		<path style="fill:#CB97E7;" d="M361.014,182.022C360.332,124.603,313.582,78.264,256,78.264s-104.332,46.339-105.014,103.758&#10;&#9;&#9;&#9;H361.014z"/>
		<path style="fill:#FAF7F7;" d="M312.105,182.022c-0.678-30.414-25.528-54.865-56.105-54.865s-55.427,24.451-56.105,54.865H312.105&#10;&#9;&#9;&#9;z"/>
		<rect x="149.527" y="174.733" style="fill:#FFF6CE;" width="212.946" height="310.656"/>
		<rect x="149.527" y="174.733" style="fill:#FFE177;" width="212.946" height="310.656"/>
		<path style="fill:#F3F0F3;" d="M149.527,485.388H21.167c-7.548,0-13.667-6.119-13.667-13.667V160.385&#10;&#9;&#9;&#9;c0-13.211,10.71-23.921,23.92-23.921h94.186c13.211,0,23.921,10.71,23.921,23.921V485.388z"/>
		<path style="fill:#F3F0F3;" d="M490.833,485.388h-128.36V160.385c0-13.211,10.71-23.921,23.92-23.921h94.186&#10;&#9;&#9;&#9;c13.211,0,23.921,10.71,23.921,23.921v311.336C504.5,479.27,498.381,485.388,490.833,485.388z"/>
		<path style="fill:#C8EFFE;" d="M149.527,485.388H21.167c-7.548,0-13.667-6.119-13.667-13.667V160.385&#10;&#9;&#9;&#9;c0-13.211,10.71-23.921,23.92-23.921h94.186c13.211,0,23.921,10.71,23.921,23.921V485.388z"/>
		<path style="fill:#C8EFFE;" d="M490.833,485.388h-128.36V160.385c0-13.211,10.71-23.921,23.92-23.921h94.186&#10;&#9;&#9;&#9;c13.211,0,23.921,10.71,23.921,23.921v311.336C504.5,479.27,498.381,485.388,490.833,485.388z"/>
		<path style="fill:#99E6FC;" d="M125.606,136.465h-6.079v318.924H7.5v16.333c0,7.548,6.119,13.667,13.667,13.667h128.36V160.385&#10;&#9;&#9;&#9;C149.527,147.174,138.817,136.465,125.606,136.465z"/>
		<path style="fill:#99E6FC;" d="M480.579,136.465H474.5v305.257c0,7.548-6.119,13.667-13.667,13.667h-98.36v30h128.36&#10;&#9;&#9;&#9;c7.548,0,13.667-6.119,13.667-13.667V160.385C504.5,147.174,493.79,136.465,480.579,136.465z"/>
		<path style="fill:#FAF7F7;" d="M94.729,281.86h-39.64c-2.255,0-4.083-1.828-4.083-4.083V205.07c0-2.255,1.828-4.083,4.083-4.083&#10;&#9;&#9;&#9;h39.64c2.255,0,4.083,1.828,4.083,4.083v72.707C98.812,280.032,96.984,281.86,94.729,281.86z"/>
		<path style="fill:#FAF7F7;" d="M94.729,410.812h-39.64c-2.255,0-4.083-1.828-4.083-4.083v-72.707c0-2.255,1.828-4.083,4.083-4.083&#10;&#9;&#9;&#9;h39.64c2.255,0,4.083,1.828,4.083,4.083v72.707C98.812,408.984,96.984,410.812,94.729,410.812z"/>
		<path style="fill:#FAF7F7;" d="M94.729,281.86h-39.64c-2.255,0-4.083-1.828-4.083-4.083V205.07c0-2.255,1.828-4.083,4.083-4.083&#10;&#9;&#9;&#9;h39.64c2.255,0,4.083,1.828,4.083,4.083v72.707C98.812,280.032,96.984,281.86,94.729,281.86z"/>
		<path style="fill:#FAF7F7;" d="M94.729,410.812h-39.64c-2.255,0-4.083-1.828-4.083-4.083v-72.707c0-2.255,1.828-4.083,4.083-4.083&#10;&#9;&#9;&#9;h39.64c2.255,0,4.083,1.828,4.083,4.083v72.707C98.812,408.984,96.984,410.812,94.729,410.812z"/>
		<path style="fill:#FAF7F7;" d="M222.625,284.88h-33.011c-2.255,0-4.083-1.828-4.083-4.083v-61.494&#10;&#9;&#9;&#9;c0-2.255,1.828-4.083,4.083-4.083h33.011c2.255,0,4.083,1.828,4.083,4.083v61.494C226.708,283.052,224.88,284.88,222.625,284.88z"/>
		<path style="fill:#FAF7F7;" d="M313.434,284.88h-33.011c-2.255,0-4.083-1.828-4.083-4.083v-61.494&#10;&#9;&#9;&#9;c0-2.255,1.828-4.083,4.083-4.083h33.011c2.255,0,4.083,1.828,4.083,4.083v61.494C317.517,283.052,315.689,284.88,313.434,284.88z&#10;&#9;&#9;&#9;"/>
		<path style="fill:#FAF7F7;" d="M453.306,281.86h-39.64c-2.255,0-4.083-1.828-4.083-4.083V205.07c0-2.255,1.828-4.083,4.083-4.083&#10;&#9;&#9;&#9;h39.64c2.255,0,4.083,1.828,4.083,4.083v72.707C457.39,280.032,455.561,281.86,453.306,281.86z"/>
		<path style="fill:#FAF7F7;" d="M453.306,410.812h-39.64c-2.255,0-4.083-1.828-4.083-4.083v-72.707&#10;&#9;&#9;&#9;c0-2.255,1.828-4.083,4.083-4.083h39.64c2.255,0,4.083,1.828,4.083,4.083v72.707C457.39,408.984,455.561,410.812,453.306,410.812z&#10;&#9;&#9;&#9;"/>
		<rect x="149.527" y="407.727" style="fill:#FEA3C6;" width="212.946" height="77.661"/>
		<rect x="149.527" y="455.388" style="fill:#FE93BB;" width="212.946" height="30"/>
		<path style="fill:#E19974;" d="M212.532,480.491V342.693c0-10.769,8.73-19.499,19.499-19.499h45.399&#10;&#9;&#9;&#9;c10.769,0,19.499,8.73,19.499,19.499v139.652"/>
		<polygon style="fill:#DC8758;" points="212.532,480.491 296.928,482.345 296.928,452.345 212.532,450.491 &#9;&#9;"/>
	</g>
	<g>
		<path style="fill:none;stroke:#000000;stroke-width:15;stroke-linecap:round;stroke-linejoin:round;stroke-miterlimit:10;" d="&#10;&#9;&#9;&#9;M94.729,281.86h-39.64c-2.255,0-4.083-1.828-4.083-4.083V205.07c0-2.255,1.828-4.083,4.083-4.083h39.64&#10;&#9;&#9;&#9;c2.255,0,4.083,1.828,4.083,4.083v72.707C98.812,280.032,96.984,281.86,94.729,281.86z"/>
		
			<line style="fill:none;stroke:#000000;stroke-width:15;stroke-linecap:round;stroke-linejoin:round;stroke-miterlimit:10;" x1="39.474" y1="281.86" x2="110.344" y2="281.86"/>
		
			<line style="fill:none;stroke:#000000;stroke-width:15;stroke-linecap:round;stroke-linejoin:round;stroke-miterlimit:10;" x1="54.103" y1="241.423" x2="95.715" y2="241.423"/>
		<path style="fill:none;stroke:#000000;stroke-width:15;stroke-linecap:round;stroke-linejoin:round;stroke-miterlimit:10;" d="&#10;&#9;&#9;&#9;M94.729,410.812h-39.64c-2.255,0-4.083-1.828-4.083-4.083v-72.707c0-2.255,1.828-4.083,4.083-4.083h39.64&#10;&#9;&#9;&#9;c2.255,0,4.083,1.828,4.083,4.083v72.707C98.812,408.984,96.984,410.812,94.729,410.812z"/>
		
			<line style="fill:none;stroke:#000000;stroke-width:15;stroke-linecap:round;stroke-linejoin:round;stroke-miterlimit:10;" x1="39.474" y1="410.812" x2="110.344" y2="410.812"/>
		
			<line style="fill:none;stroke:#000000;stroke-width:15;stroke-linecap:round;stroke-linejoin:round;stroke-miterlimit:10;" x1="54.103" y1="370.375" x2="95.715" y2="370.375"/>
		<path style="fill:none;stroke:#000000;stroke-width:15;stroke-linecap:round;stroke-linejoin:round;stroke-miterlimit:10;" d="&#10;&#9;&#9;&#9;M222.625,284.88h-33.011c-2.255,0-4.083-1.828-4.083-4.083v-61.494c0-2.255,1.828-4.083,4.083-4.083h33.011&#10;&#9;&#9;&#9;c2.255,0,4.083,1.828,4.083,4.083v61.494C226.708,283.052,224.88,284.88,222.625,284.88z"/>
		
			<line style="fill:none;stroke:#000000;stroke-width:15;stroke-linecap:round;stroke-linejoin:round;stroke-miterlimit:10;" x1="188.198" y1="250.05" x2="224.04" y2="250.05"/>
		<path style="fill:none;stroke:#000000;stroke-width:15;stroke-linecap:round;stroke-linejoin:round;stroke-miterlimit:10;" d="&#10;&#9;&#9;&#9;M313.434,284.88h-33.011c-2.255,0-4.083-1.828-4.083-4.083v-61.494c0-2.255,1.828-4.083,4.083-4.083h33.011&#10;&#9;&#9;&#9;c2.255,0,4.083,1.828,4.083,4.083v61.494C317.517,283.052,315.689,284.88,313.434,284.88z"/>
		
			<line style="fill:none;stroke:#000000;stroke-width:15;stroke-linecap:round;stroke-linejoin:round;stroke-miterlimit:10;" x1="279.007" y1="250.05" x2="314.85" y2="250.05"/>
		<path style="fill:none;stroke:#000000;stroke-width:15;stroke-linecap:round;stroke-linejoin:round;stroke-miterlimit:10;" d="&#10;&#9;&#9;&#9;M453.306,281.86h-39.64c-2.255,0-4.083-1.828-4.083-4.083V205.07c0-2.255,1.828-4.083,4.083-4.083h39.64&#10;&#9;&#9;&#9;c2.255,0,4.083,1.828,4.083,4.083v72.707C457.39,280.032,455.561,281.86,453.306,281.86z"/>
		
			<line style="fill:none;stroke:#000000;stroke-width:15;stroke-linecap:round;stroke-linejoin:round;stroke-miterlimit:10;" x1="398.051" y1="281.86" x2="468.922" y2="281.86"/>
		
			<line style="fill:none;stroke:#000000;stroke-width:15;stroke-linecap:round;stroke-linejoin:round;stroke-miterlimit:10;" x1="412.681" y1="241.423" x2="454.293" y2="241.423"/>
		<path style="fill:none;stroke:#000000;stroke-width:15;stroke-linecap:round;stroke-linejoin:round;stroke-miterlimit:10;" d="&#10;&#9;&#9;&#9;M453.306,410.812h-39.64c-2.255,0-4.083-1.828-4.083-4.083v-72.707c0-2.255,1.828-4.083,4.083-4.083h39.64&#10;&#9;&#9;&#9;c2.255,0,4.083,1.828,4.083,4.083v72.707C457.39,408.984,455.561,410.812,453.306,410.812z"/>
		
			<line style="fill:none;stroke:#000000;stroke-width:15;stroke-linecap:round;stroke-linejoin:round;stroke-miterlimit:10;" x1="398.051" y1="410.812" x2="468.922" y2="410.812"/>
		
			<line style="fill:none;stroke:#000000;stroke-width:15;stroke-linecap:round;stroke-linejoin:round;stroke-miterlimit:10;" x1="412.681" y1="370.375" x2="454.293" y2="370.375"/>
		<path style="fill:none;stroke:#000000;stroke-width:15;stroke-linecap:round;stroke-linejoin:round;stroke-miterlimit:10;" d="&#10;&#9;&#9;&#9;M404.028,131.811C382.732,70.568,324.508,26.612,256.01,26.612c-68.52,0-126.76,43.984-148.038,105.259"/>
		<path style="fill:none;stroke:#000000;stroke-width:15;stroke-linecap:round;stroke-linejoin:round;stroke-miterlimit:10;" d="&#10;&#9;&#9;&#9;M360.316,171.052C354.252,118.814,309.865,78.264,256,78.264c-54.516,0-99.323,41.536-104.519,94.687"/>
		<path style="fill:none;stroke:#000000;stroke-width:15;stroke-linecap:round;stroke-linejoin:round;stroke-miterlimit:10;" d="&#10;&#9;&#9;&#9;M311.168,172.95c-4.853-26.061-27.699-45.793-55.168-45.793s-50.315,19.732-55.168,45.793"/>
		<path style="fill:none;stroke:#000000;stroke-width:15;stroke-linecap:round;stroke-linejoin:round;stroke-miterlimit:10;" d="&#10;&#9;&#9;&#9;M94.729,281.86h-39.64c-2.255,0-4.083-1.828-4.083-4.083V205.07c0-2.255,1.828-4.083,4.083-4.083h39.64&#10;&#9;&#9;&#9;c2.255,0,4.083,1.828,4.083,4.083v72.707C98.812,280.032,96.984,281.86,94.729,281.86z"/>
		
			<line style="fill:none;stroke:#000000;stroke-width:15;stroke-linecap:round;stroke-linejoin:round;stroke-miterlimit:10;" x1="39.474" y1="281.86" x2="110.344" y2="281.86"/>
		
			<line style="fill:none;stroke:#000000;stroke-width:15;stroke-linecap:round;stroke-linejoin:round;stroke-miterlimit:10;" x1="54.103" y1="241.423" x2="95.715" y2="241.423"/>
		<path style="fill:none;stroke:#000000;stroke-width:15;stroke-linecap:round;stroke-linejoin:round;stroke-miterlimit:10;" d="&#10;&#9;&#9;&#9;M94.729,410.812h-39.64c-2.255,0-4.083-1.828-4.083-4.083v-72.707c0-2.255,1.828-4.083,4.083-4.083h39.64&#10;&#9;&#9;&#9;c2.255,0,4.083,1.828,4.083,4.083v72.707C98.812,408.984,96.984,410.812,94.729,410.812z"/>
		
			<line style="fill:none;stroke:#000000;stroke-width:15;stroke-linecap:round;stroke-linejoin:round;stroke-miterlimit:10;" x1="39.474" y1="410.812" x2="110.344" y2="410.812"/>
		
			<line style="fill:none;stroke:#000000;stroke-width:15;stroke-linecap:round;stroke-linejoin:round;stroke-miterlimit:10;" x1="54.103" y1="370.375" x2="95.715" y2="370.375"/>
		<path style="fill:none;stroke:#000000;stroke-width:15;stroke-linecap:round;stroke-linejoin:round;stroke-miterlimit:10;" d="&#10;&#9;&#9;&#9;M504.5,405.375v66.346c0,7.548-6.119,13.667-13.667,13.667h-128.36V160.385c0-13.211,10.71-23.921,23.92-23.921h94.186&#10;&#9;&#9;&#9;c13.211,0,23.921,10.71,23.921,23.921v209.99"/>
		
			<rect x="149.527" y="174.733" style="fill:none;stroke:#000000;stroke-width:15;stroke-linecap:round;stroke-linejoin:round;stroke-miterlimit:10;" width="212.946" height="310.656"/>
		<path style="fill:none;stroke:#000000;stroke-width:15;stroke-linecap:round;stroke-linejoin:round;stroke-miterlimit:10;" d="&#10;&#9;&#9;&#9;M7.5,188.84v-28.455c0-13.211,10.71-23.921,23.92-23.921h94.186c13.211,0,23.921,10.71,23.921,23.921v325.003H21.167&#10;&#9;&#9;&#9;c-7.548,0-13.667-6.119-13.667-13.667V223.84"/>
		
			<polyline style="fill:none;stroke:#000000;stroke-width:15;stroke-linecap:round;stroke-linejoin:round;stroke-miterlimit:10;" points="&#10;&#9;&#9;&#9;301.739,407.727 362.473,407.727 362.473,485.388 149.527,485.388 149.527,407.727 209.825,407.727 &#9;&#9;"/>
		<path style="fill:none;stroke:#000000;stroke-width:15;stroke-linecap:round;stroke-linejoin:round;stroke-miterlimit:10;" d="&#10;&#9;&#9;&#9;M212.532,483.432v-140.74c0-10.769,8.73-19.499,19.499-19.499h45.399c10.769,0,19.499,8.73,19.499,19.499v140.74"/>
		
			<line style="fill:none;stroke:#000000;stroke-width:15;stroke-linecap:round;stroke-linejoin:round;stroke-miterlimit:10;" x1="249.679" y1="396.796" x2="259.781" y2="396.796"/>
	</g>
</g>















</svg>
