<svg id="Layer_1" enable-background="new 0 0 90 90" height="512" viewBox="0 0 90 90" width="512" xmlns="http://www.w3.org/2000/svg"><path d="m28.051 7.945c-3.541 0-6.422 2.887-6.422 6.422v61.313c-.004.078 0 .152.012.229.125 3.439 2.947 6.189 6.41 6.189h33.959c3.51 0 6.375-2.828 6.422-6.328.006-.033.006-.063 0-.094v-61.309c0-3.535-2.885-6.422-6.428-6.422zm16.98 43.366c.578 0 1.047.479 1.047 1.057l-.016 4.693c-.059 1.328-2.031 1.322-2.084-.016l.022-4.678c-.016-.568.453-1.047 1.02-1.057h.011zm3.354 1.494c.281.012.547.131.734.34 1.65 1.66 2.141 4.16 1.25 6.328-.891 2.166-3 3.594-5.338 3.594-2.334 0-4.443-1.428-5.334-3.594-.891-2.168-.406-4.668 1.244-6.328.188-.193.443-.309.719-.313.943-.033 1.434 1.113.756 1.775-1.057 1.063-1.381 2.678-.803 4.076.574 1.398 1.922 2.299 3.418 2.299 1.494 0 2.844-.9 3.416-2.299.578-1.398.26-3.014-.803-4.076-.691-.65-.212-1.822.741-1.802zm-20.334 18.527h33.959c2.428 0 4.344 1.916 4.344 4.348 0 2.428-1.916 4.344-4.344 4.344h-33.959c-2.426 0-4.348-1.916-4.348-4.344 0-2.432 1.926-4.348 4.348-4.348z" fill="#262833"/><g fill="#5d80c0"><path d="m31.035 73.992h8.871c.691 0 1.25.559 1.25 1.25v.875c0 .693-.559 1.25-1.25 1.25h-8.871c-.688 0-1.25-.557-1.25-1.25v-.875c0-.691.559-1.25 1.25-1.25z"/><path d="m50.16 73.992h8.871c.691 0 1.25.559 1.25 1.25v.875c0 .693-.559 1.25-1.25 1.25h-8.871c-.688 0-1.25-.557-1.25-1.25v-.875c0-.691.559-1.25 1.25-1.25z"/></g></svg>