<?xml version="1.0" encoding="UTF-8"?>
<svg xmlns="http://www.w3.org/2000/svg" xmlns:xlink="http://www.w3.org/1999/xlink" version="1.1" id="Capa_1" x="0px" y="0px" viewBox="0 0 512 512" style="enable-background:new 0 0 512 512;" xml:space="preserve" width="512" height="512">
<g>
	<g>
		<g>
			<path style="fill:#FFDCD0;" d="M486.098,454.606l-4.009-12.53c-5.129-16.04-6.049-33.14-2.669-49.64&#10;&#9;&#9;&#9;&#9;c3.339-16.36,5.029-32.99,5.029-49.67c0-3.44-0.08-6.88-0.22-10.32L485.7,221.21c6.319-14.06,9.648-29.37,9.648-44.96V147.9&#10;&#9;&#9;&#9;&#9;c0-27.74-9.651-50.614-36.555-57.324l-8.075-3.302L350.897,62.34c-17.816-4.16-35.149-17.512-37.269-35.682l-0.141-13.694&#10;&#9;&#9;&#9;&#9;c-0.24-2.02-1.939-3.54-3.969-3.54L285.103,7.5h-85.169c-2.03,0-3.729,1.52-3.969,3.54l-1.639,14.07&#10;&#9;&#9;&#9;&#9;c-0.168,1.442-0.411,2.864-0.716,4.261c-3.539,16.21-16.1,29.139-32.506,32.969L67.456,85.731L53.289,89.27&#10;&#9;&#9;&#9;&#9;C26.385,95.98,7.5,120.16,7.5,147.9v28.35c0,15.331,3.517,31.094,9.638,44.96l6.302,22.577l-6.314,9.373l-0.029,80.63&#10;&#9;&#9;&#9;&#9;c-0.84,20.12,0.78,40.26,4.809,59.99c1.33,6.51,2,13.12,2,19.71c0,10.12-1.56,20.22-4.669,29.93l-4.009,12.53&#10;&#9;&#9;&#9;&#9;c-4.599,14.39-7.168,29.33-7.648,44.39c-0.07,2.27,1.729,4.16,4.009,4.16h74.762c2.209,0,3.999-1.79,3.999-4v-40.94&#10;&#9;&#9;&#9;&#9;c0-24.397,2.746-48.738,8.193-72.561c0.217-0.95,0.982-36.993,1.208-37.942l10.404-9.677c0,0,2.759,16.31,4.609,24.38&#10;&#9;&#9;&#9;&#9;l7.428,32.41c0.04,0.15,0.07,0.31,0.1,0.46c4.799,21.11,5.199,42.98,1.42,64.29l-2.729,15.34l-4.179,23.54&#10;&#9;&#9;&#9;&#9;c-0.43,2.45,1.45,4.7,3.939,4.7h266.346h4.169c0.8,0,1.53-0.23,2.149-0.63c1.31-0.83,2.08-2.41,1.79-4.07l-6.908-38.88&#10;&#9;&#9;&#9;&#9;c-3.779-21.31-3.379-43.18,1.419-64.29c0.03-0.15,0.06-0.31,0.1-0.46l0.32-1.41c-0.71-3.55,12.557-51.85,11.717-55.38&#10;&#9;&#9;&#9;&#9;l10.677,12.03c0.226,0.949,0.718,34.639,0.935,35.589c5.447,23.823,8.193,48.165,8.193,72.561v40.94c0,2.21,1.79,4,3.999,4&#10;&#9;&#9;&#9;&#9;h53.587l14.244-6.577c2.279,0,4.079-1.89,4.009-4.16C497.01,478.703,490.697,468.996,486.098,454.606z"/>
			<path style="fill:#FFC7B6;" d="M349.157,61.9l-30.253-7.56c-17.816-4.16-31.102-19.06-33.222-37.23l-0.58-9.61h26.964&#10;&#9;&#9;&#9;&#9;c2.029,0,3.729,1.52,3.969,3.54l1.639,14.07C319.725,42.68,332.222,57.2,349.157,61.9z"/>
			<path style="fill:#FFC7B6;" d="M504.5,176.25c0,15.59-3.329,30.9-9.648,44.96l-3.009,22.107l3.023,9.843l0.036,80.63&#10;&#9;&#9;&#9;&#9;c0.14,3.44,0.22,6.88,0.22,10.32c0,16.68-1.69,33.31-5.029,49.67c-3.379,16.5-2.459,33.6,2.669,49.64l4.009,12.53&#10;&#9;&#9;&#9;&#9;c4.599,14.39,7.168,29.33,7.648,44.39c0.07,2.27-1.73,4.16-4.009,4.16h-21.175c-0.88-15.07-3.409-35.89-7.458-48.55l-4.009-12.53&#10;&#9;&#9;&#9;&#9;c-5.129-16.04-6.049-33.14-2.669-49.64c3.339-16.36,5.029-32.99,5.029-49.67c0-3.44-0.08-6.88-0.22-10.32l-0.049-109.301&#10;&#9;&#9;&#9;&#9;c-0.001-2.032,0.364-4.055,1.148-5.93c5.572-13.324,8.498-27.694,8.498-42.309V138.9c0-21.58-11.427-41-29.163-51.72l8.368,2.09&#10;&#9;&#9;&#9;&#9;c26.903,6.71,45.789,30.89,45.789,58.63V176.25z"/>
			<g>
				<path style="fill:#FFC7B6;" d="M110.135,339.24l-10.927,44.91c-0.23,0.95-0.45,1.9-0.66,2.85l-4.249-18.55&#10;&#9;&#9;&#9;&#9;&#9;c-5.799-25.32-8.748-51.32-8.758-77.28v-71.05c0-5.799,4.7-10.5,10.497-10.5h0c5.798,0,10.497,4.701,10.497,10.5v71.04&#10;&#9;&#9;&#9;&#9;&#9;C106.546,307.25,107.736,323.32,110.135,339.24z"/>
				<path style="fill:#FFC7B6;" d="M415.961,209.62c5.798,0,10.497,4.701,10.497,10.5v71.04c-0.01,25.98-2.959,51.98-8.758,77.29&#10;&#9;&#9;&#9;&#9;&#9;L413.452,387c-0.21-0.95-0.43-1.9-0.66-2.85l-10.867-45.32c2.36-15.79,3.529-31.72,3.539-47.67v-71.04&#10;&#9;&#9;&#9;&#9;&#9;C405.464,214.321,410.164,209.62,415.961,209.62L415.961,209.62z"/>
			</g>
		</g>
		<g>
			<path style="fill:#FFC7B6;" d="M227.386,230c0,19.33-11.867,32.282-31.197,32.282c-14.197,0-23.054-6.818-31.91-17.882&#10;&#9;&#9;&#9;&#9;c-1.985-4.392-3.09-9.267-3.09-14.4c0-19.33,15.67-35,35-35c4.832,0,10.213,1.319,14.4,3.09&#10;&#9;&#9;&#9;&#9;C222.703,206.198,227.386,215.503,227.386,230z"/>
			<path style="fill:#FFB5A5;" d="M231.188,230c0,19.33-15.67,35-35,35c-14.2,0-26.42-8.45-31.91-20.6&#10;&#9;&#9;&#9;&#9;c4.39,1.98,9.26,3.09,14.4,3.09c19.33,0,35-15.67,35-35c0-5.14-1.11-10.01-3.09-14.4C222.738,203.58,231.188,215.8,231.188,230z"/>
		</g>
		<g>
			<path style="fill:#FFC7B6;" d="M227.386,340c0,19.33-11.867,32.282-31.197,32.282c-14.197,0-23.054-6.818-31.91-17.882&#10;&#9;&#9;&#9;&#9;c-1.985-4.392-3.09-9.267-3.09-14.4c0-19.33,15.67-35,35-35c4.832,0,10.213,1.319,14.4,3.09&#10;&#9;&#9;&#9;&#9;C222.703,316.198,227.386,325.503,227.386,340z"/>
			<path style="fill:#FFB5A5;" d="M231.188,340c0,19.33-15.67,35-35,35c-14.2,0-26.42-8.45-31.91-20.6&#10;&#9;&#9;&#9;&#9;c4.39,1.98,9.26,3.09,14.4,3.09c19.33,0,35-15.67,35-35c0-5.14-1.11-10.01-3.09-14.4C222.738,313.58,231.188,325.8,231.188,340z"/>
		</g>
		<g>
			<path style="fill:#FFC7B6;" d="M227.386,450c0,19.33-11.867,32.282-31.197,32.282c-14.197,0-23.054-6.818-31.91-17.882&#10;&#9;&#9;&#9;&#9;c-1.985-4.392-3.09-9.267-3.09-14.4c0-19.33,15.67-35,35-35c4.832,0,10.213,1.319,14.4,3.09&#10;&#9;&#9;&#9;&#9;C222.703,426.198,227.386,435.503,227.386,450z"/>
			<path style="fill:#FFB5A5;" d="M231.188,450c0,19.33-15.67,35-35,35c-14.2,0-26.42-8.45-31.91-20.6&#10;&#9;&#9;&#9;&#9;c4.39,1.98,9.26,3.09,14.4,3.09c19.33,0,35-15.67,35-35c0-5.14-1.11-10.01-3.09-14.4C222.738,423.58,231.188,435.8,231.188,450z"/>
		</g>
		<g>
			<path style="fill:#FFC7B6;" d="M347.009,230c0,19.33-11.867,32.282-31.197,32.282c-14.197,0-23.054-6.818-31.91-17.882&#10;&#9;&#9;&#9;&#9;c-1.985-4.392-3.09-9.267-3.09-14.4c0-19.33,15.67-35,35-35c4.832,0,10.213,1.319,14.4,3.09&#10;&#9;&#9;&#9;&#9;C342.327,206.198,347.009,215.503,347.009,230z"/>
			<path style="fill:#FFB5A5;" d="M350.812,230c0,19.33-15.67,35-35,35c-14.2,0-26.42-8.45-31.91-20.6&#10;&#9;&#9;&#9;&#9;c4.39,1.98,9.26,3.09,14.4,3.09c19.33,0,35-15.67,35-35c0-5.14-1.11-10.01-3.09-14.4C342.362,203.58,350.812,215.8,350.812,230z"/>
		</g>
		<g>
			<path style="fill:#FFC7B6;" d="M347.009,340c0,19.33-11.867,32.282-31.197,32.282c-14.197,0-23.054-6.818-31.91-17.882&#10;&#9;&#9;&#9;&#9;c-1.985-4.392-3.09-9.267-3.09-14.4c0-19.33,15.67-35,35-35c4.832,0,10.213,1.319,14.4,3.09&#10;&#9;&#9;&#9;&#9;C342.327,316.198,347.009,325.503,347.009,340z"/>
			<path style="fill:#FFB5A5;" d="M350.812,340c0,19.33-15.67,35-35,35c-14.2,0-26.42-8.45-31.91-20.6&#10;&#9;&#9;&#9;&#9;c4.39,1.98,9.26,3.09,14.4,3.09c19.33,0,35-15.67,35-35c0-5.14-1.11-10.01-3.09-14.4C342.362,313.58,350.812,325.8,350.812,340z"/>
		</g>
		<g>
			<path style="fill:#FFC7B6;" d="M347.009,450c0,19.33-11.867,32.282-31.197,32.282c-14.197,0-23.054-6.818-31.91-17.882&#10;&#9;&#9;&#9;&#9;c-1.985-4.392-3.09-9.267-3.09-14.4c0-19.33,15.67-35,35-35c4.832,0,10.213,1.319,14.4,3.09&#10;&#9;&#9;&#9;&#9;C342.327,426.198,347.009,435.503,347.009,450z"/>
			<path style="fill:#FFB5A5;" d="M350.812,450c0,19.33-15.67,35-35,35c-14.2,0-26.42-8.45-31.91-20.6&#10;&#9;&#9;&#9;&#9;c4.39,1.98,9.26,3.09,14.4,3.09c19.33,0,35-15.67,35-35c0-5.14-1.11-10.01-3.09-14.4C342.362,423.58,350.812,435.8,350.812,450z"/>
		</g>
		<g>
			<path style="fill:#FFC7B6;" d="M287.197,110c0,19.33-11.867,32.282-31.197,32.282c-14.197,0-23.054-6.818-31.91-17.882&#10;&#9;&#9;&#9;&#9;c-1.985-4.392-3.09-9.267-3.09-14.4c0-19.33,15.67-35,35-35c4.832,0,10.213,1.319,14.4,3.09&#10;&#9;&#9;&#9;&#9;C282.515,86.198,287.197,95.503,287.197,110z"/>
			<path style="fill:#FFB5A5;" d="M291,110c0,19.33-15.67,35-35,35c-14.2,0-26.42-8.45-31.91-20.6c4.39,1.98,9.26,3.09,14.4,3.09&#10;&#9;&#9;&#9;&#9;c19.33,0,35-15.67,35-35c0-5.14-1.11-10.01-3.09-14.4C282.55,83.58,291,95.8,291,110z"/>
		</g>
		<g>
			<path style="fill:#FFC7B6;" d="M172.731,140c0,19.33-11.867,32.282-31.197,32.282c-14.197,0-23.054-6.818-31.91-17.882&#10;&#9;&#9;&#9;&#9;c-1.985-4.392-3.09-9.267-3.09-14.4c0-19.33,15.67-35,35-35c4.832,0,10.213,1.319,14.4,3.09&#10;&#9;&#9;&#9;&#9;C168.049,116.198,172.731,125.503,172.731,140z"/>
			<path style="fill:#FFB5A5;" d="M176.534,140c0,19.33-15.67,35-35,35c-14.2,0-26.42-8.45-31.91-20.6&#10;&#9;&#9;&#9;&#9;c4.39,1.98,9.26,3.09,14.4,3.09c19.33,0,35-15.67,35-35c0-5.14-1.11-10.01-3.09-14.4C168.084,113.58,176.534,125.8,176.534,140z"/>
		</g>
		<path style="fill:#00E0EB;" d="M382.966,75h-25V43.622c0-6.904,5.596-12.5,12.5-12.5l0,0c6.904,0,12.5,5.596,12.5,12.5V75z"/>
		<path style="fill:#C2F6F8;" d="M401.664,140l-66.197-0.675V96.553c0-15.706,10.436-29.022,24.684-33.453&#10;&#9;&#9;&#9;c0,0,6.692-0.018,10.316-0.018l0,0c19.33,0,31.197,14.141,31.197,33.471V140z"/>
		<path style="fill:#72ECF4;" d="M405.47,96.55V140l-20.65-0.2V96.55c0-9.67-3.92-18.41-10.25-24.75c-3.98-3.98-8.91-7-14.42-8.7&#10;&#9;&#9;&#9;c3.26-1.01,6.73-1.55,10.32-1.55c9.67,0,18.41,3.92,24.75,10.25C401.55,78.14,405.47,86.88,405.47,96.55z"/>
		<g>
			<path style="fill:#FFC7B6;" d="M401.664,140c0,19.33-11.867,32.282-31.197,32.282c-14.197,0-23.054-6.818-31.91-17.882&#10;&#9;&#9;&#9;&#9;c-1.985-4.392-3.09-9.267-3.09-14.4c0-19.33,15.67-35,35-35c4.832,0,10.213,1.319,14.4,3.09&#10;&#9;&#9;&#9;&#9;C396.981,116.198,401.664,125.503,401.664,140z"/>
			<path style="fill:#FFB5A5;" d="M405.466,140c0,19.33-15.67,35-35,35c-14.2,0-26.42-8.45-31.91-20.6&#10;&#9;&#9;&#9;&#9;c4.39,1.98,9.26,3.09,14.4,3.09c19.33,0,35-15.67,35-35c0-5.14-1.11-10.01-3.09-14.4C397.016,113.58,405.466,125.8,405.466,140z"/>
		</g>
	</g>
	<g>
		<g>
			<path style="fill:none;stroke:#000000;stroke-width:15;stroke-linecap:round;stroke-linejoin:round;stroke-miterlimit:10;" d="&#10;&#9;&#9;&#9;&#9;M29.227,241.751C15.12,222.826,7.5,199.851,7.5,176.246v-28.349c0-27.737,18.878-51.913,45.783-58.631l107.816-26.921&#10;&#9;&#9;&#9;&#9;c17.815-4.167,31.104-19.061,33.224-37.238L196.376,7.5"/>
			
				<line style="fill:none;stroke:#000000;stroke-width:15;stroke-linecap:round;stroke-linejoin:round;stroke-miterlimit:10;" x1="17.09" y1="292.91" x2="17.09" y2="222.79"/>
			<path style="fill:none;stroke:#000000;stroke-width:15;stroke-linecap:round;stroke-linejoin:round;stroke-miterlimit:10;" d="&#10;&#9;&#9;&#9;&#9;M17.09,327.96v5.83c-0.14,3.42-0.21,6.85-0.21,10.27c0,16.69,1.68,33.35,5.03,49.72c3.37,16.5,2.45,33.6-2.68,49.64l-4,12.53&#10;&#9;&#9;&#9;&#9;c-5.02,15.71-7.63,32.08-7.73,48.55"/>
			<path style="fill:none;stroke:#000000;stroke-width:15;stroke-linecap:round;stroke-linejoin:round;stroke-miterlimit:10;" d="&#10;&#9;&#9;&#9;&#9;M90.348,504.5v-44.94c0-25.37,2.969-50.68,8.858-75.41l10.94-44.768"/>
			<path style="fill:none;stroke:#000000;stroke-width:15;stroke-linecap:round;stroke-linejoin:round;stroke-miterlimit:10;" d="&#10;&#9;&#9;&#9;&#9;M106.534,209.618l0,81.542c0.009,24.392,2.762,48.746,8.229,72.6l7.428,32.41c0.035,0.153,0.07,0.306,0.105,0.459&#10;&#9;&#9;&#9;&#9;c4.793,21.112,5.197,42.98,1.412,64.296l-7.736,43.575"/>
			<path style="fill:none;stroke:#000000;stroke-width:15;stroke-linecap:round;stroke-linejoin:round;stroke-miterlimit:10;" d="&#10;&#9;&#9;&#9;&#9;M355.262,63.433l-4.362-1.089c-17.815-4.167-31.104-19.061-33.224-37.238L315.624,7.5"/>
			
				<line style="fill:none;stroke:#000000;stroke-width:15;stroke-linecap:round;stroke-linejoin:round;stroke-miterlimit:10;" x1="426.23" y1="81.16" x2="398.78" y2="74.3"/>
			<path style="fill:none;stroke:#000000;stroke-width:15;stroke-linecap:round;stroke-linejoin:round;stroke-miterlimit:10;" d="&#10;&#9;&#9;&#9;&#9;M460.51,89.75c25.94,7.31,43.99,31.03,43.99,58.15v28.35c0,23.6-7.62,46.58-21.73,65.5"/>
			<path style="fill:none;stroke:#000000;stroke-width:15;stroke-linecap:round;stroke-linejoin:round;stroke-miterlimit:10;" d="&#10;&#9;&#9;&#9;&#9;M504.5,504.5c-0.104-16.466-2.705-32.837-7.729-48.55l-4.004-12.526c-5.13-16.047-6.051-33.143-2.675-49.648v0&#10;&#9;&#9;&#9;&#9;c4.035-19.724,5.652-39.866,4.815-59.981v-111"/>
			<path style="fill:none;stroke:#000000;stroke-width:15;stroke-linecap:round;stroke-linejoin:round;stroke-miterlimit:10;" d="&#10;&#9;&#9;&#9;&#9;M401.854,339.382l10.94,44.768c5.889,24.73,8.858,50.04,8.858,75.41v44.94"/>
			<path style="fill:none;stroke:#000000;stroke-width:15;stroke-linecap:round;stroke-linejoin:round;stroke-miterlimit:10;" d="&#10;&#9;&#9;&#9;&#9;M405.466,209.618l0,81.542c-0.009,24.392-2.762,48.746-8.229,72.6l-7.428,32.41c-0.035,0.153-0.07,0.306-0.105,0.459&#10;&#9;&#9;&#9;&#9;c-4.793,21.112-5.197,42.98-1.412,64.296l7.736,43.575"/>
		</g>
		
			<circle style="fill:none;stroke:#000000;stroke-width:15;stroke-linecap:round;stroke-linejoin:round;stroke-miterlimit:10;" cx="196.188" cy="450" r="35"/>
		
			<circle style="fill:none;stroke:#000000;stroke-width:15;stroke-linecap:round;stroke-linejoin:round;stroke-miterlimit:10;" cx="315.812" cy="450" r="35"/>
		
			<circle style="fill:none;stroke:#000000;stroke-width:15;stroke-linecap:round;stroke-linejoin:round;stroke-miterlimit:10;" cx="196.188" cy="340" r="35"/>
		<path style="fill:none;stroke:#000000;stroke-width:15;stroke-linecap:round;stroke-linejoin:round;stroke-miterlimit:10;" d="&#10;&#9;&#9;&#9;M305.88,373.57c-14.49-4.28-25.07-17.69-25.07-33.57c0-19.33,15.67-35,35-35s35,15.67,35,35c0,9.83-4.05,18.71-10.57,25.06"/>
		<path style="fill:none;stroke:#000000;stroke-width:15;stroke-linecap:round;stroke-linejoin:round;stroke-miterlimit:10;" d="&#10;&#9;&#9;&#9;M230.72,224.25c0.31,1.87,0.47,3.79,0.47,5.75c0,19.33-15.67,35-35,35s-35-15.67-35-35s15.67-35,35-35&#10;&#9;&#9;&#9;c4.33,0,8.47,0.78,12.29,2.22"/>
		
			<circle style="fill:none;stroke:#000000;stroke-width:15;stroke-linecap:round;stroke-linejoin:round;stroke-miterlimit:10;" cx="315.812" cy="230" r="35"/>
		
			<circle style="fill:none;stroke:#000000;stroke-width:15;stroke-linecap:round;stroke-linejoin:round;stroke-miterlimit:10;" cx="256" cy="110" r="35"/>
		
			<circle style="fill:none;stroke:#000000;stroke-width:15;stroke-linecap:round;stroke-linejoin:round;stroke-miterlimit:10;" cx="141.534" cy="140" r="35"/>
		<path style="fill:none;stroke:#000000;stroke-width:15;stroke-linecap:round;stroke-linejoin:round;stroke-miterlimit:10;" d="&#10;&#9;&#9;&#9;M357.966,62.899V43.622c0-6.904,5.596-12.5,12.5-12.5l0,0c6.904,0,12.5,5.596,12.5,12.5v19.277"/>
		<path style="fill:none;stroke:#000000;stroke-width:15;stroke-linecap:round;stroke-linejoin:round;stroke-miterlimit:10;" d="&#10;&#9;&#9;&#9;M405.466,140c0,20.047-17.224,36.387-37.559,34.907c-18.411-1.34-32.441-17.123-32.441-35.582V96.553c0-19.33,15.67-35,35-35h0&#10;&#9;&#9;&#9;c19.33,0,35,15.67,35,35V140z"/>
		<path style="fill:none;stroke:#000000;stroke-width:15;stroke-linecap:round;stroke-linejoin:round;stroke-miterlimit:10;" d="&#10;&#9;&#9;&#9;M335.466,140c0-19.33,15.67-35,35-35s35,15.67,35,35"/>
		<path style="fill:none;stroke:#000000;stroke-width:15;stroke-linecap:round;stroke-linejoin:round;stroke-miterlimit:10;" d="&#10;&#9;&#9;&#9;M504.5,47.511h-51.069c-11.049,0-20.005-8.957-20.005-20.005v0c0-11.049-8.957-20.005-20.005-20.005h-22.949&#10;&#9;&#9;&#9;c-11.049,0-20.005,8.957-20.005,20.005v3.617"/>
	</g>
</g>















</svg>
