<?xml version="1.0" encoding="UTF-8" standalone="no"?>
<!-- Created with Inkscape (http://www.inkscape.org/) -->

<svg
   version="1.1"
   id="svg4503"
   xml:space="preserve"
   width="682.66669"
   height="682.66669"
   viewBox="0 0 682.66669 682.66669"
   xmlns="http://www.w3.org/2000/svg"
   xmlns:svg="http://www.w3.org/2000/svg"><defs
     id="defs4507"><clipPath
       clipPathUnits="userSpaceOnUse"
       id="clipPath4517"><path
         d="M 0,512 H 512 V 0 H 0 Z"
         id="path4515" /></clipPath></defs><g
     id="g4509"
     transform="matrix(1.3333333,0,0,-1.3333333,0,682.66667)"><g
       id="g4511"><g
         id="g4513"
         clip-path="url(#clipPath4517)"><g
           id="g4519"
           transform="translate(420.5991,394.2061)"><path
             d="m 0,0 c -1.697,3.755 -4.241,7 -7.373,9.533 l -54.236,-38.303 -7.724,-13.62 c 7.373,-11.714 49.611,-86.394 65.768,-282.635 1.365,-16.588 2.626,-31.893 3.789,-46.022 0.399,-4.847 4.449,-8.575 9.312,-8.575 h 35.235 c 5.161,0 9.344,4.184 9.344,9.344 v 57.632 C 54.115,-136.396 14.579,-32.369 0,0"
             style="fill:#b1abb5;fill-opacity:1;fill-rule:nonzero;stroke:none"
             id="path4521" /></g><g
           id="g4523"
           transform="translate(420.5991,394.2061)"><path
             d="M 0,0 C -1.697,3.755 -4.241,7 -7.373,9.533 L -32.418,-8.154 c 16.56,-39.642 50.585,-140.98 50.585,-304.492 l 0.252,-66.976 h 26.352 c 5.161,0 9.344,4.184 9.344,9.344 v 57.632 C 54.115,-136.396 14.579,-32.369 0,0"
             style="fill:#a698a6;fill-opacity:1;fill-rule:nonzero;stroke:none"
             id="path4525" /></g><g
           id="g4527"
           transform="translate(153.0103,365.4365)"><path
             d="m 0,0 -54.237,38.303 c -3.132,-2.533 -5.675,-5.779 -7.372,-9.533 -14.579,-32.37 -54.116,-136.396 -54.116,-312.647 v -57.632 c 0,-5.16 4.184,-9.344 9.345,-9.344 h 35.234 c 4.864,0 8.914,3.729 9.313,8.576 1.163,14.129 2.423,29.433 3.789,46.021 16.157,196.241 58.395,270.921 65.768,282.636 z"
             style="fill:#b1abb5;fill-opacity:1;fill-rule:nonzero;stroke:none"
             id="path4529" /></g><g
           id="g4531"
           transform="translate(160.7339,351.8164)"><path
             d="M 0,0 -7.724,13.62 -61.96,51.923 c -3.132,-2.533 -5.676,-5.778 -7.373,-9.533 -0.74,-1.645 -1.548,-3.483 -2.409,-5.497 2.785,-8.74 6.307,-20.688 9.952,-34.536 5.824,-22.124 5.513,-45.437 -0.969,-67.377 -16.116,-54.552 -32.299,-128.045 -39.673,-217.616 -1.647,-20.002 -3.14,-38.138 -4.495,-54.596 h 28.059 c 4.863,0 8.912,3.727 9.311,8.574 1.163,14.129 2.424,29.433 3.789,46.022 5.689,69.098 14.612,123.107 24.108,164.62 C -33.901,-84.093 -18.437,-29.286 0,0"
             style="fill:#a698a6;fill-opacity:1;fill-rule:nonzero;stroke:none"
             id="path4533" /></g><g
           id="g4535"
           transform="translate(127.9438,268.7334)"><path
             d="m 0,0 c 17.966,-46.788 21.231,-97.896 9.633,-146.655 -6.618,-27.824 -12.709,-63.186 -14.658,-103.787 -0.282,-5.869 4.389,-10.791 10.264,-10.791 h 245.634 c 5.876,0 10.546,4.922 10.264,10.791 -1.949,40.601 -8.04,75.963 -14.658,103.787 -11.598,48.759 -8.333,99.867 9.633,146.655 1.548,65.424 24.943,122.202 30.184,134.144 -2.848,2.554 -6.252,4.489 -10.004,5.608 l -86.853,25.923 -61.383,21.416 -61.383,-21.416 -86.852,-25.922 c -3.753,-1.12 -7.156,-3.054 -10.005,-5.609 C -24.942,122.202 -1.547,65.424 0,0"
             style="fill:#b1abb5;fill-opacity:1;fill-rule:nonzero;stroke:none"
             id="path4537" /></g><g
           id="g4539"
           transform="translate(257.1982,255.6631)"><path
             d="m 0,0 c 2.027,-0.055 3.891,1.126 4.696,2.986 7.75,17.91 14.548,35.97 19.966,55.764 13.122,47.94 20.253,95.656 23.712,124.116 L -1.198,200.161 -52.152,182.384 C -48.985,143.986 -38.569,70.527 -4.302,2.717 -3.48,1.09 -1.822,0.05 0,0"
             style="fill:#f0f0f3;fill-opacity:1;fill-rule:nonzero;stroke:none"
             id="path4541" /></g><g
           id="g4543"
           transform="translate(384.0562,268.7334)"><path
             d="m 0,0 v 0 c 1.547,65.424 24.942,122.202 30.184,134.144 -2.849,2.554 -6.252,4.489 -10.004,5.608 l -86.852,25.923 -61.384,21.416 -17.458,-6.091 43.926,-15.325 c 0,0 43.446,-17.968 71.078,-29.854 12.193,-5.245 18.287,-18.978 14.015,-31.545 -5.396,-15.871 -12.315,-61.005 -15.944,-86.384 -1.503,-10.51 -3.847,-20.884 -7.088,-30.994 -13.831,-43.13 -15.545,-89.309 -5.021,-133.553 6.618,-27.824 12.709,-63.186 14.658,-103.787 0.282,-5.869 -4.389,-10.791 -10.264,-10.791 h 34.915 c 5.875,0 10.546,4.922 10.264,10.791 -1.949,40.601 -8.04,75.963 -14.658,103.787 C -21.231,-97.896 -17.966,-46.788 0,0"
             style="fill:#a698a6;fill-opacity:1;fill-rule:nonzero;stroke:none"
             id="path4545" /></g><g
           id="g4547"
           transform="translate(287.2646,324.9365)"><path
             d="M 0,0 -19.635,83.796 H -43.088 L -63.265,0 -31.956,-69.275 Z"
             style="fill:#f8636f;fill-opacity:1;fill-rule:nonzero;stroke:none"
             id="path4549" /></g><g
           id="g4551"
           transform="translate(207.686,441.0879)"><path
             d="m 0,0 h 96.628 v 49.167 c 0,7.867 -6.378,14.245 -14.246,14.245 H 14.246 C 6.378,63.412 0,57.034 0,49.167 Z"
             style="fill:#ffe2ca;fill-opacity:1;fill-rule:nonzero;stroke:none"
             id="path4553" /></g><g
           id="g4555"
           transform="translate(290.0684,504.5)"><path
             d="m 0,0 h -35.165 c 7.868,0 14.246,-6.378 14.246,-14.245 v -49.167 h 35.165 v 49.167 C 14.246,-6.378 7.868,0 0,0"
             style="fill:#fdd8bb;fill-opacity:1;fill-rule:nonzero;stroke:none"
             id="path4557" /></g><g
           id="g4559"
           transform="translate(197.6685,427.7627)"><path
             d="m 0,0 10.018,28.062 v 19.443 c 0,0 28.44,-27.153 48.314,-27.153 L 10.018,-9.107 Z"
             style="fill:#e0dde2;fill-opacity:1;fill-rule:nonzero;stroke:none"
             id="path4561" /></g><g
           id="g4563"
           transform="translate(314.3315,427.7627)"><path
             d="m 0,0 -10.018,28.062 v 19.443 c 0,0 -28.44,-27.153 -48.314,-27.153 l 48.314,-29.459 z"
             style="fill:#e0dde2;fill-opacity:1;fill-rule:nonzero;stroke:none"
             id="path4565" /></g><g
           id="g4567"
           transform="translate(256,448.1143)"><path
             d="m 0,0 -25.425,-15.503 13.601,-23.879 h 23.453 l 13.796,23.879 z"
             style="fill:#fa8084;fill-opacity:1;fill-rule:nonzero;stroke:none"
             id="path4569" /></g><g
           id="g4571"
           transform="translate(279.7349,189.5332)"><path
             d="m 0,0 c 0,-4.041 -3.275,-7.316 -7.315,-7.316 -4.04,0 -7.316,3.275 -7.316,7.316 0,4.04 3.276,7.315 7.316,7.315 C -3.275,7.315 0,4.04 0,0"
             style="fill:#000000;fill-opacity:1;fill-rule:nonzero;stroke:none"
             id="path4573" /></g><g
           id="g4575"
           transform="translate(279.7349,147.2646)"><path
             d="m 0,0 c 0,-4.04 -3.275,-7.315 -7.315,-7.315 -4.04,0 -7.316,3.275 -7.316,7.315 0,4.04 3.276,7.315 7.316,7.315 C -3.275,7.315 0,4.04 0,0"
             style="fill:#000000;fill-opacity:1;fill-rule:nonzero;stroke:none"
             id="path4577" /></g><g
           id="g4579"
           transform="translate(279.7349,107.0293)"><path
             d="m 0,0 c 0,-4.04 -3.275,-7.315 -7.315,-7.315 -4.04,0 -7.316,3.275 -7.316,7.315 0,4.04 3.276,7.315 7.316,7.315 C -3.275,7.315 0,4.04 0,0"
             style="fill:#000000;fill-opacity:1;fill-rule:nonzero;stroke:none"
             id="path4581" /></g><g
           id="g4583"
           transform="translate(257.6387,256.8193)"><path
             d="m 0,0 c -0.75,1.351 -1.639,2.817 -1.639,2.817 -48.313,91.289 -48.314,196.188 -48.314,196.188 l -33.433,-29.112 c -2.092,-1.823 -3.793,-4.05 -4.998,-6.549 l -6.851,-14.196 c -2.2,-4.557 0.363,-9.983 5.28,-11.179 l 17.741,-4.316 c 4.026,-0.98 6.078,-5.466 4.186,-9.153 l -7.942,-15.468 c -2.816,-5.484 -2.607,-12.061 0.659,-17.291 C -62.903,71.88 -19.788,15.263 -1.587,-3.498 -1.054,-2.331 -0.525,-1.165 0,0"
             style="fill:#8f818f;fill-opacity:1;fill-rule:nonzero;stroke:none"
             id="path4585" /></g><g
           id="g4587"
           transform="translate(242.2686,7.5)"><path
             d="m 0,0 v 204.743 c 0,8.284 0.504,16.56 1.511,24.782"
             style="fill:none;stroke:#000000;stroke-width:15;stroke-linecap:round;stroke-linejoin:round;stroke-miterlimit:10;stroke-dasharray:none;stroke-opacity:1"
             id="path4589" /></g><g
           id="g4591"
           transform="translate(37.2856,81.5596)"><path
             d="m 0,0 v -57.632 c 0,-5.16 4.184,-9.344 9.344,-9.344 h 35.235 c 4.863,0 8.914,3.729 9.313,8.576 1.163,14.129 2.423,29.433 3.789,46.021 7.444,90.416 20.423,155.01 32.98,199.546 -0.001,0.002 -0.002,0.005 -0.002,0.007"
             style="fill:none;stroke:#000000;stroke-width:15;stroke-linecap:round;stroke-linejoin:round;stroke-miterlimit:10;stroke-dasharray:none;stroke-opacity:1"
             id="path4593" /></g><g
           id="g4595"
           transform="translate(97.7617,402.8721)"><path
             d="M 0,0 C -2.668,-2.392 -4.851,-5.325 -6.361,-8.666 -19.936,-38.807 -55.15,-131.075 -59.935,-285.931"
             style="fill:none;stroke:#000000;stroke-width:15;stroke-linecap:round;stroke-linejoin:round;stroke-miterlimit:10;stroke-dasharray:none;stroke-opacity:1"
             id="path4597" /></g><g
           id="g4599"
           transform="translate(384.0562,268.7334)"><path
             d="m 0,0 v 0 c -0.001,-0.002 -0.002,-0.005 -0.003,-0.007 12.557,-44.537 25.537,-109.13 32.981,-199.546 1.365,-16.588 2.626,-31.892 3.789,-46.021 0.399,-4.847 4.449,-8.575 9.312,-8.575 h 35.235 c 5.161,0 9.344,4.183 9.344,9.343 v 57.632 c 0,176.251 -39.536,280.278 -54.115,312.647 -1.51,3.34 -3.693,6.274 -6.361,8.666"
             style="fill:none;stroke:#000000;stroke-width:15;stroke-linecap:round;stroke-linejoin:round;stroke-miterlimit:10;stroke-dasharray:none;stroke-opacity:1"
             id="path4601" /></g><g
           id="g4603"
           transform="translate(177.0815,429.1748)"><path
             d="m 0,0 -69.316,-20.688 c -3.753,-1.121 -7.157,-3.054 -10.006,-5.61 5.242,-11.941 28.637,-68.72 30.185,-134.143 17.965,-46.788 21.23,-97.897 9.633,-146.656 -6.619,-27.824 -12.71,-63.185 -14.659,-103.787 -0.281,-5.868 4.389,-10.791 10.265,-10.791 h 245.633 c 5.876,0 10.546,4.923 10.265,10.791 -1.949,40.602 -8.041,75.963 -14.659,103.787 -11.597,48.759 -8.332,99.868 9.634,146.656 1.547,65.423 24.942,122.202 30.184,134.143 -2.849,2.555 -6.252,4.489 -10.005,5.609 L 157.837,0"
             style="fill:none;stroke:#000000;stroke-width:15;stroke-linecap:round;stroke-linejoin:round;stroke-miterlimit:10;stroke-dasharray:none;stroke-opacity:1"
             id="path4605" /></g><g
           id="g4607"
           transform="translate(254.3613,256.8193)"><path
             d="m 0,0 c 0.75,1.351 1.639,2.817 1.639,2.817 48.313,91.289 48.314,196.188 48.314,196.188 l 33.433,-29.112 c 2.092,-1.823 3.793,-4.05 4.998,-6.549 l 6.851,-14.196 c 2.199,-4.557 -0.363,-9.983 -5.28,-11.179 l -17.741,-4.316 c -4.026,-0.98 -6.078,-5.466 -4.186,-9.153 L 75.97,109.032 C 78.786,103.548 78.577,96.971 75.311,91.741 63.72,73.187 26.043,21.911 6.202,0.032 c 0,0 -15.586,-18.592 -16.784,-19.826 z"
             style="fill:#8f818f;fill-opacity:1;fill-rule:nonzero;stroke:none"
             id="path4609" /></g><g
           id="g4611"
           transform="translate(257.6387,256.8193)"><path
             d="m 0,0 c -0.75,1.351 -1.639,2.817 -1.639,2.817 -48.313,91.289 -48.314,196.188 -48.314,196.188 l -33.433,-29.112 c -2.092,-1.823 -3.793,-4.05 -4.998,-6.549 l -6.851,-14.196 c -2.2,-4.557 0.363,-9.983 5.28,-11.179 l 17.741,-4.316 c 4.026,-0.98 6.078,-5.466 4.186,-9.153 l -7.942,-15.468 c -2.816,-5.484 -2.607,-12.061 0.659,-17.291 C -62.903,71.88 -19.788,15.263 -1.587,-3.498 -1.054,-2.331 -0.525,-1.165 0,0 Z"
             style="fill:none;stroke:#000000;stroke-width:15;stroke-linecap:round;stroke-linejoin:round;stroke-miterlimit:10;stroke-dasharray:none;stroke-opacity:1"
             id="path4613" /></g><g
           id="g4615"
           transform="translate(303.9429,311.6865)"><path
             d="m 0,0 c -0.448,-0.608 -0.897,-1.219 -1.349,-1.831 -14.496,-19.642 -31.013,-40.856 -42.03,-53.004 0,0 -15.586,-18.592 -16.784,-19.826 l 10.581,19.794 c 0.75,1.35 1.639,2.817 1.639,2.817 C 0.371,39.239 0.371,144.138 0.371,144.138 l 33.433,-29.113 c 2.092,-1.822 3.793,-4.049 4.999,-6.548 l 6.85,-14.196 c 2.2,-4.557 -0.363,-9.983 -5.28,-11.179 L 22.632,78.786 c -4.026,-0.98 -6.078,-5.467 -4.185,-9.153 l 7.942,-15.468 c 2.816,-5.484 2.607,-12.061 -0.66,-17.291 -1.43,-2.289 -3.257,-5.077 -5.399,-8.246"
             style="fill:none;stroke:#000000;stroke-width:15;stroke-linecap:round;stroke-linejoin:round;stroke-miterlimit:10;stroke-dasharray:none;stroke-opacity:1"
             id="path4617" /></g><g
           id="g4619"
           transform="translate(285.2808,333.4023)"><path
             d="M 0,0 -17.651,75.33"
             style="fill:none;stroke:#000000;stroke-width:15;stroke-linecap:round;stroke-linejoin:round;stroke-miterlimit:10;stroke-dasharray:none;stroke-opacity:1"
             id="path4621" /></g><g
           id="g4623"
           transform="translate(244.1763,408.7324)"><path
             d="M 0,0 -17.826,-74.032"
             style="fill:none;stroke:#000000;stroke-width:15;stroke-linecap:round;stroke-linejoin:round;stroke-miterlimit:10;stroke-dasharray:none;stroke-opacity:1"
             id="path4625" /></g><g
           id="g4627"
           transform="translate(304.314,455.8242)"><path
             d="m 0,0 v 19.443 c 0,0 -28.44,-27.153 -48.314,-27.153 l 46.005,-28.051"
             style="fill:none;stroke:#000000;stroke-width:15;stroke-linecap:round;stroke-linejoin:round;stroke-miterlimit:10;stroke-dasharray:none;stroke-opacity:1"
             id="path4629" /></g><g
           id="g4631"
           transform="translate(209.9946,420.0635)"><path
             d="m 0,0 46.005,28.051 c -19.873,0 -48.314,27.153 -48.314,27.153 V 35.761"
             style="fill:none;stroke:#000000;stroke-width:15;stroke-linecap:round;stroke-linejoin:round;stroke-miterlimit:10;stroke-dasharray:none;stroke-opacity:1"
             id="path4633" /></g><g
           id="g4635"
           transform="translate(230.5752,432.6113)"><path
             d="M 0,0 13.601,-23.879 H 37.054 L 50.85,0"
             style="fill:none;stroke:#000000;stroke-width:15;stroke-linecap:round;stroke-linejoin:round;stroke-miterlimit:10;stroke-dasharray:none;stroke-opacity:1"
             id="path4637" /></g><g
           id="g4639"
           transform="translate(304.314,475.2676)"><path
             d="m 0,0 v 14.987 c 0,7.867 -6.378,14.245 -14.246,14.245 h -68.136 c -7.868,0 -14.245,-6.378 -14.245,-14.245 V 0"
             style="fill:none;stroke:#000000;stroke-width:15;stroke-linecap:round;stroke-linejoin:round;stroke-miterlimit:10;stroke-dasharray:none;stroke-opacity:1"
             id="path4641" /></g></g></g></g></svg>
