<?xml version="1.0" encoding="UTF-8" standalone="no"?>
<!-- Creator: CorelDRAW -->

<svg
   xmlns:dc="http://purl.org/dc/elements/1.1/"
   xmlns:cc="http://creativecommons.org/ns#"
   xmlns:rdf="http://www.w3.org/1999/02/22-rdf-syntax-ns#"
   xmlns:svg="http://www.w3.org/2000/svg"
   xmlns="http://www.w3.org/2000/svg"
   xmlns:sodipodi="http://sodipodi.sourceforge.net/DTD/sodipodi-0.dtd"
   xmlns:inkscape="http://www.inkscape.org/namespaces/inkscape"
   xml:space="preserve"
   width="127.92013mm"
   height="63.932899mm"
   style="clip-rule:evenodd;fill-rule:evenodd;image-rendering:optimizeQuality;shape-rendering:geometricPrecision;text-rendering:geometricPrecision"
   viewBox="0 0 127.92013 63.932899"
   version="1.1"
   id="svg150"
   sodipodi:docname="car-2.svg"
   inkscape:version="0.92.3 (2405546, 2018-03-11)"><metadata
   id="metadata154"><rdf:RDF><cc:Work
       rdf:about=""><dc:format>image/svg+xml</dc:format><dc:type
         rdf:resource="http://purl.org/dc/dcmitype/StillImage" /><dc:title></dc:title></cc:Work></rdf:RDF></metadata><sodipodi:namedview
   pagecolor="#ffffff"
   bordercolor="#666666"
   borderopacity="1"
   objecttolerance="10"
   gridtolerance="10"
   guidetolerance="10"
   inkscape:pageopacity="0"
   inkscape:pageshadow="2"
   inkscape:window-width="1920"
   inkscape:window-height="1017"
   id="namedview152"
   showgrid="false"
   inkscape:zoom="3.5176855"
   inkscape:cx="241.73882"
   inkscape:cy="120.81808"
   inkscape:window-x="-4"
   inkscape:window-y="9"
   inkscape:window-maximized="1"
   inkscape:current-layer="svg150"
   showborder="false"
   fit-margin-top="0"
   fit-margin-left="0"
   fit-margin-right="0"
   fit-margin-bottom="0" />
 <defs
   id="defs4"><style
     type="text/css"
     id="style2">
   <![CDATA[
    .str1 {stroke:#1F1A17;stroke-width:0.0762}
    .str2 {stroke:#191919;stroke-width:0.0762}
    .str0 {stroke:black;stroke-width:2.8222}
    .fil0 {fill:black}
    .fil10 {fill:blue}
    .fil17 {fill:#333300}
    .fil5 {fill:#333333}
    .fil1 {fill:#666666}
    .fil2 {fill:#6666FF}
    .fil12 {fill:#7F7F7F}
    .fil7 {fill:#990000}
    .fil16 {fill:#B2B2B2}
    .fil18 {fill:#CC9933}
    .fil15 {fill:#CCCC33}
    .fil9 {fill:#CCCCCC}
    .fil6 {fill:#E5E5E5}
    .fil3 {fill:red}
    .fil13 {fill:#FF9933}
    .fil14 {fill:#FF9966}
    .fil8 {fill:yellow}
    .fil11 {fill:#FFFFF2}
    .fil4 {fill:white}
   ]]>
  </style></defs>
 <g
   id="_241899624"
   transform="translate(-4.8218,-160.7288)">
   <path
   style="fill:#000000;stroke:#000000;stroke-width:2.82220006"
   inkscape:connector-curvature="0"
   d="m 126.91,208.223 h 1.8246 l -0.47,2.3522 h -1.569 c -0.5753,2.2071 -2.2451,3.8152 -4.201,3.8152 h -3.2018 l -0.1823,0.8088 h -0.5398 c -0.004,0.0142 -0.008,0.0285 -0.0123,0.0427 h -1.748 c -1.5418,4.6434 -5.9302,8.0087 -11.0798,8.0087 -5.1496,0 -9.5373,-3.3653 -11.0791,-8.0087 h -1.7481 c -0.0041,-0.0142 -0.0078,-0.0285 -0.0118,-0.0427 h -0.5409 c -0.0375,-0.1383 -0.0731,-0.2776 -0.1064,-0.4175 -0.0333,0.1399 -0.0687,0.2792 -0.1062,0.4175 h -0.5398 c -0.004,0.0142 -0.0082,0.0285 -0.0123,0.0427 H 90.6562 90.197 89.838 c -1.5418,4.6434 -5.9302,8.0087 -11.0798,8.0087 -5.1496,0 -9.5373,-3.3653 -11.0791,-8.0087 h -1.7482 c -0.0041,-0.0142 -0.0078,-0.0285 -0.0118,-0.0427 h -0.5408 -21.795 -0.5398 c -0.004,0.0142 -0.0082,0.0285 -0.0123,0.0427 h -1.748 c -1.5418,4.6434 -5.9302,8.0087 -11.0798,8.0087 -5.1496,0 -9.5373,-3.3653 -11.0791,-8.0087 h -1.7481 c -0.0041,-0.0142 -0.0078,-0.0285 -0.0118,-0.0427 h -0.5409 c -0.0723,-0.2665 -0.1367,-0.5364 -0.1933,-0.8088 H 11.342 c -1.8921,0 -3.5166,-1.5043 -4.1414,-3.6006 -0.306,0.0952 -0.6311,0.1469 -0.9677,0.1469 v -3.2672 -3.2672 c 0.2379,0 0.47,0.026 0.6937,0.0747 v -6.2599 c 0,-3.0263 1.9869,-5.5023 4.4154,-5.5023 h 15.6207 l 9.6474,-15.1493 h -0.1123 c -0.2696,0 -0.4901,-0.2205 -0.4901,-0.4901 v -0.754 c 0,-0.2696 0.2205,-0.4901 0.4901,-0.4901 h 1.8994 l 1.2621,-3.3038 h 0.1585 v -2.3104 c 0,-1.3376 1.0944,-2.432 2.432,-2.432 v 0 c 1.3376,0 2.432,1.0944 2.432,2.432 v 2.3104 h 0.2801 l 1.2621,3.3038 h 10.4954 c 0.2696,0 0.4901,0.2211 0.4901,0.4901 v 0.754 c 0,0.2685 -0.5041,0.2219 -0.4901,0.4901 l 1.0464,20.0086 3.9393,-2.9785 c -0.0158,-0.063 -0.029,-0.1269 -0.0391,-0.1913 l -4.2275,-26.959 -6.4977,-0.2197 -1.3719,-2.6537 c -0.636,-1.2304 0.4386,-2.432 1.7762,-2.432 h 8.5388 l 9.11,10.16 54.6756,5.08 c 1.3319,0.1236 2.6818,1.1087 3.0878,2.432 l 4.4771,14.5924 c 0.406,1.3233 -0.4395,2.432 -1.7762,2.432 h -3.3642 c 0.0365,0.2326 0.0557,0.471 0.0557,0.7136 0,1.6327 -0.8574,3.0709 -2.1445,3.8888 0.0315,0.2071 0.0487,0.4264 0.0487,0.6528 v 2.7827 h 4.6807 l -0.47,2.3522 H 126.91 Z M 78.7582,197.7188 c 2.664,0 5.1566,0.7589 7.2731,2.0707 h 12.4265 c 2.1165,-1.3118 4.6088,-2.0707 7.2728,-2.0707 2.6636,0 5.1559,0.7592 7.2723,2.0707 h 4.5227 c -0.3716,-0.6636 -0.5843,-1.4274 -0.5843,-2.2396 0,-0.2426 0.0192,-0.481 0.0557,-0.7136 H 70.2589 l -3.9058,2.9532 h 5.1334 c 2.1164,-1.3115 4.6081,-2.0707 7.2717,-2.0707 z"
   class="fil0 str0"
   id="_243783384" />
   <g
   id="g111">
    <rect
   style="fill:#7f7f7f;stroke:#1f1a17;stroke-width:0.0762"
   y="0"
   x="0"
   ry="0.97280002"
   rx="0.97280002"
   height="3.5264001"
   width="55.8144"
   transform="matrix(0.216903,-0.164005,1.71232,1.17491,53.0369,201.149)"
   class="fil12 str1"
   id="_243783336" />
    <rect
   style="fill:#cccccc;stroke:#1f1a17;stroke-width:0.0762"
   ry="0.97280002"
   rx="0.97280002"
   height="8.3446999"
   width="67.470001"
   y="199.789"
   x="56.584202"
   class="fil9 str1"
   id="_243783288" />
    <rect
   style="fill:#ff9933;stroke:#1f1a17;stroke-width:0.0762"
   ry="2.4319999"
   rx="2.4319999"
   height="7.296"
   width="4.8639998"
   y="167.785"
   x="39.8181"
   class="fil13 str1"
   id="_243783240" />
    <polygon
   style="fill:#ff9966;stroke:#1f1a17;stroke-width:0.0762"
   points="39.6596,172.527 44.9622,172.527 46.2629,175.932 38.3589,175.932 "
   class="fil14 str1"
   id="_243783192" />
    <rect
   style="fill:#666666;stroke:#1f1a17;stroke-width:0.0762"
   y="0"
   x="0"
   height="2.9435999"
   width="2.8097999"
   transform="matrix(1.12446,0,-0.159656,0.79909,125.575,208.223)"
   class="fil1 str1"
   id="_243783144" />
    <polygon
   style="fill:#666666;stroke:#1f1a17;stroke-width:0.0762"
   points="115.415,204.874 128.735,204.874 128.265,207.226 114.945,207.226 "
   class="fil1 str1"
   id="_243783096" />
    <polygon
   style="fill:#6666ff;stroke:#1f1a17;stroke-width:0.0762"
   points="55.8121,196.257 24.7071,196.257 37.4071,176.314 55.8121,176.314 "
   class="fil2 str1"
   id="_243783048" />
    <path
   style="fill:#ff9966;stroke:#1f1a17;stroke-width:0.0762"
   inkscape:connector-curvature="0"
   d="m 36.4981,175.831 h 20.2216 c 0.2696,0 0.4901,0.2211 0.4901,0.4901 v 0.754 c 0,0.2685 -0.5041,0.2219 -0.4901,0.4901 l 1.5824,30.2577 -8.5073,-0.3868 1.3244,-29.8709 H 36.4981 c -0.2696,0 -0.4901,-0.2205 -0.4901,-0.4901 v -0.754 c 0,-0.2696 0.2205,-0.4901 0.4901,-0.4901 z"
   class="fil14 str1"
   id="_239448176" />
    <path
   style="fill:#cccc33;stroke:#1f1a17;stroke-width:0.0762"
   inkscape:connector-curvature="0"
   d="m 11.3423,192.715 h 40.0326 c 1.2142,0 2.3192,0.6203 3.1183,1.6165 0.7993,0.9964 1.2971,2.3753 1.2971,3.8858 v 7.4871 l 71.12,-0.17 v 3.3539 c 0,3.0255 -1.9877,5.5023 -4.4154,5.5023 H 11.3419 c -2.4277,0 -4.4154,-2.476 -4.4154,-5.5023 v -10.671 c 0,-3.0263 1.9869,-5.5023 4.4154,-5.5023 z"
   class="fil15 str1"
   id="_239448104" />
    <path
   style="fill:#ffffff"
   inkscape:connector-curvature="0"
   d="m 43.5438,211.58 c 0,1.2689 -0.1787,2.4972 -0.5123,3.6614 h -25.655 c -0.3336,-1.1642 -0.5129,-2.3924 -0.5129,-3.6612 -1e-4,-7.3469 5.9933,-13.3404 13.34,-13.3402 7.3469,-1e-4 13.3404,5.9933 13.3402,13.34 z"
   class="fil4"
   id="_239448032" />
    <circle
   style="fill:#333333;stroke:#1f1a17;stroke-width:0.0762"
   r="11.67"
   cy="211.58"
   cx="30.203699"
   class="fil5 str1"
   id="_239448800" />
    <circle
   style="fill:#e5e5e5;stroke:#1f1a17;stroke-width:0.0762"
   r="5.4825702"
   cy="213.067"
   cx="31.6905"
   class="fil6 str1"
   id="_241750600" />
    <circle
   style="fill:#ff0000;stroke:#1f1a17;stroke-width:0.0762"
   r="2.2713499"
   cy="211.58"
   cx="30.203699"
   class="fil3 str1"
   id="_241732912" />
    <path
   style="fill:#ffffff"
   inkscape:connector-curvature="0"
   d="m 92.0987,211.58 c 0,1.269 -0.1787,2.4971 -0.5124,3.6613 H 90.6565 90.1973 65.9312 c -0.3336,-1.1642 -0.5129,-2.3924 -0.5129,-3.6613 0,-7.3468 5.9934,-13.3402 13.3402,-13.3402 7.3468,0 13.3402,5.9934 13.3402,13.3402 z"
   class="fil4"
   id="_241732840" />
    <circle
   style="fill:#333333;stroke:#1f1a17;stroke-width:0.0762"
   r="11.67"
   cy="211.58"
   cx="78.758499"
   class="fil5 str1"
   id="_241732792" />
    <circle
   style="fill:#e5e5e5;stroke:#1f1a17;stroke-width:0.0762"
   r="5.4825702"
   cy="213.067"
   cx="80.2453"
   class="fil6 str1"
   id="_241732744" />
    <circle
   style="fill:#ff0000;stroke:#1f1a17;stroke-width:0.0762"
   r="2.2713499"
   cy="211.58"
   cx="78.758499"
   class="fil3 str1"
   id="_241732696" />
    <path
   style="fill:#ffff00;stroke:#1f1a17;stroke-width:0.0762"
   inkscape:connector-curvature="0"
   d="m 6.2332,207.669 v 3.2672 c 1.8041,0 3.2672,-1.4631 3.2672,-3.2672 0,-1.8041 -1.4631,-3.2672 -3.2672,-3.2672 z"
   class="fil8 str1"
   id="_241732648" />
    <path
   style="fill:#ffffff"
   inkscape:connector-curvature="0"
   d="m 119.071,211.58 c 0,1.2689 -0.1787,2.4972 -0.5123,3.6614 h -25.655 c -0.3336,-1.1642 -0.5129,-2.3924 -0.5129,-3.6612 -1e-4,-7.3469 5.9933,-13.3404 13.34,-13.3402 7.3469,-1e-4 13.3404,5.9933 13.3402,13.34 z"
   class="fil4"
   id="_241732576" />
    <circle
   style="fill:#333333;stroke:#1f1a17;stroke-width:0.0762"
   r="11.67"
   cy="211.58"
   cx="105.731"
   class="fil5 str1"
   id="_241732528" />
    <circle
   style="fill:#e5e5e5;stroke:#1f1a17;stroke-width:0.0762"
   r="5.4825702"
   cy="213.067"
   cx="107.218"
   class="fil6 str1"
   id="_241899960" />
    <circle
   style="fill:#ff0000;stroke:#1f1a17;stroke-width:0.0762"
   r="2.2713499"
   cy="211.58"
   cx="105.731"
   class="fil3 str1"
   id="_241899912" />
    <path
   style="fill:#ff9966;stroke:#1f1a17;stroke-width:0.0762"
   inkscape:connector-curvature="0"
   d="m 78.7585,197.719 c 6.5319,0 12.0334,4.5592 13.486,10.6577 1.4526,-6.0985 6.9545,-10.6577 13.4864,-10.6577 7.6341,0 13.8618,6.2277 13.8618,13.8618 0,0.8388 -0.0761,1.6599 -0.2204,2.4581 l -0.2615,1.1605 h -1.3513 c 0.3465,-1.1469 0.534,-2.3614 0.534,-3.6186 0,-6.9186 -5.644,-12.5626 -12.5626,-12.5626 -6.9186,0 -12.5626,5.644 -12.5626,12.5626 0,1.2572 0.1875,2.4717 0.534,3.6186 H 92.351 c -0.0375,-0.1383 -0.0731,-0.2776 -0.1064,-0.4175 -0.0333,0.1399 -0.0687,0.2792 -0.1062,0.4175 h -1.3513 c 0.3465,-1.1469 0.534,-2.3614 0.534,-3.6186 0,-6.9186 -5.644,-12.5626 -12.5626,-12.5626 -6.9186,0 -12.5626,5.644 -12.5626,12.5626 0,1.2572 0.1875,2.4717 0.534,3.6186 H 65.974 65.3786 43.5836 42.2323 c 0.3465,-1.1469 0.534,-2.3614 0.534,-3.6186 0,-6.9186 -5.644,-12.5626 -12.5626,-12.5626 -6.9186,0 -12.5626,5.644 -12.5626,12.5626 0,1.2572 0.1875,2.4717 0.534,3.6186 h -1.3513 c -0.3134,-1.1545 -0.4819,-2.3673 -0.4819,-3.6186 0,-7.6341 6.2277,-13.8618 13.8618,-13.8618 7.6341,0 13.8618,6.2277 13.8618,13.8618 0,0.8388 -0.0761,1.6599 -0.2204,2.4581 h 21.272 c -0.1443,-0.7982 -0.2204,-1.6193 -0.2204,-2.4581 0,-7.6341 6.2277,-13.8618 13.8618,-13.8618 z"
   class="fil14 str1"
   id="_241899864" />
    <path
   style="fill:#b2b2b2;stroke:#1f1a17;stroke-width:0.0762"
   inkscape:connector-curvature="0"
   d="M 129.459,196.836 H 64.7546 c -1.335,0 -2.8734,-1.0639 -3.0878,-2.432 l -4.2275,-26.959 -6.4977,-0.2197 -1.3719,-2.6537 c -0.636,-1.2304 0.4386,-2.432 1.7762,-2.432 h 8.5388 l 9.11,10.16 54.6756,5.08 c 1.3319,0.1236 2.6818,1.1087 3.0878,2.432 l 4.4771,14.5924 c 0.406,1.3233 -0.4395,2.432 -1.7762,2.432 z"
   class="fil16 str1"
   id="_241899816" />
    <circle
   style="fill:#cccccc;stroke:#1f1a17;stroke-width:0.0762"
   r="4.60427"
   cy="197.55"
   cx="121.546"
   class="fil9 str1"
   id="_241899768" />
    <circle
   style="fill:#333300;stroke:#1f1a17;stroke-width:0.0762"
   r="2.2642801"
   cy="197.55"
   cx="121.546"
   class="fil17 str1"
   id="_241899720" />
    <circle
   style="fill:#333300;stroke:#1f1a17;stroke-width:0.0762"
   r="0.87153202"
   cy="180.78"
   cx="123.366"
   class="fil17 str1"
   id="_241899672" />
   </g>
  </g>
</svg>