<svg id="Icons" height="512" viewBox="0 0 60 60" width="512" xmlns="http://www.w3.org/2000/svg"><path d="m25 46h10v6h-10z" fill="#607d8b"/><path d="m32 46h3v6h-3z" fill="#37474f"/><path d="m11.2 5.44c-2.4.86-6.01 3.23-3.2 9.56 3.47 7.81 7 16 7 16h8z" fill="#825a2c"/><path d="m16 55h28a2 2 0 0 1 2 2v1a1 1 0 0 1 -1 1h-30a1 1 0 0 1 -1-1v-1a2 2 0 0 1 2-2z" fill="#9e9e9e"/><path d="m44 55h-3a2 2 0 0 1 2 2v1a1 1 0 0 1 -1 1h3a1 1 0 0 0 1-1v-1a2 2 0 0 0 -2-2z" fill="#707070"/><path d="m25 51h10a3 3 0 0 1 3 3v1a0 0 0 0 1 0 0h-16a0 0 0 0 1 0 0v-1a3 3 0 0 1 3-3z" fill="#7f8e94"/><path d="m35 51h-3a3 3 0 0 1 3 3v1h3v-1a3 3 0 0 0 -3-3z" fill="#545c60"/><path d="m22 43h16a0 0 0 0 1 0 0v1a3 3 0 0 1 -3 3h-10a3 3 0 0 1 -3-3v-1a0 0 0 0 1 0 0z" fill="#7f8e94"/><path d="m35 43v1a3 3 0 0 1 -3 3h3a3 3 0 0 0 3-3v-1z" fill="#545c60"/><path d="m45 37.75v.25a5 5 0 0 1 -5 5h-20a5 5 0 0 1 -5-5v-7h4.1l22.9 5.97z" fill="#825a2c"/><path d="m45 37.75v.25a5 5 0 0 1 -5 5h-3a5 5 0 0 0 5-5v-1.03z" fill="#624421"/><path d="m20.11 26.86-9.38-22.55a2.017 2.017 0 0 1 1.17-2.66c2.62-.95 7.32-1.66 10.1 3.89 4 8 9 19.46 9 19.46s15 4 22 6c4.63 1.32 6.07 4.69 6.05 7.54a2.008 2.008 0 0 1 -2.46 1.97l-29.11-6.92z" fill="#a0522d"/><path d="m53 31c-7-2-22-6-22-6s-5-11.46-9-19.46c-2.2-4.382-5.583-4.857-8.2-4.4 1.88.377 3.79 1.576 5.2 4.4 4 8 9 19.46 9 19.46s15 4 22 6c4.63 1.32 6.07 4.69 6.05 7.54a2.015 2.015 0 0 1 -.845 1.641l1.385.329a2.008 2.008 0 0 0 2.46-1.97c.02-2.85-1.42-6.22-6.05-7.54z" fill="#783e22"/><circle cx="24" cy="30" fill="#607d8b" r="5"/><path d="m24 25a4.966 4.966 0 0 0 -1.5.254 4.968 4.968 0 0 1 0 9.492 4.99 4.99 0 1 0 1.5-9.746z" fill="#37474f"/><path d="m53.274 30.039c-6.235-1.782-18.962-5.189-21.551-5.881-.961-2.188-5.3-12.019-8.828-19.066-2.29-4.566-6.419-6.166-11.344-4.379a3.053 3.053 0 0 0 -1.725 1.635 2.965 2.965 0 0 0 -.018 2.346l.089.215a6.748 6.748 0 0 0 -3.418 3.364c-.833 1.948-.629 4.347.607 7.133 3.152 7.1 6.386 14.576 6.914 15.8v6.794a6.006 6.006 0 0 0 6 6h1a4 4 0 0 0 3 3.858v2.284a4 4 0 0 0 -3 3.858h-5a3 3 0 0 0 -3 3v1a2 2 0 0 0 2 2h30a2 2 0 0 0 2-2v-1a3 3 0 0 0 -3-3h-5a4 4 0 0 0 -3-3.858v-2.284a4 4 0 0 0 3-3.858h1a6 6 0 0 0 5.91-5l10.448 2.483a2.959 2.959 0 0 0 2.54-.562 3.009 3.009 0 0 0 1.152-2.373c.029-4.111-2.503-7.292-6.776-8.509zm-44.957-20.978a4.786 4.786 0 0 1 2.347-2.307l8.311 19.978a5.955 5.955 0 0 0 -.975 3.268h-2.343c-.87-2.013-3.84-8.87-6.743-15.406-1.002-2.256-1.202-4.118-.597-5.533zm15.683 24.939a4 4 0 1 1 4-4 4 4 0 0 1 -4 4zm10 16h-8v-2h8zm10 6a1 1 0 0 1 1 1v1h-30v-1a1 1 0 0 1 1-1zm-7-2h-14a2 2 0 0 1 2-2h10a2 2 0 0 1 2 2zm-2-8h-10a2 2 0 0 1 -2-2h14a2 2 0 0 1 -2 2zm5-4h-20a4 4 0 0 1 -4-4v-6h2.35a5.984 5.984 0 0 0 9.4 2.68l16.2 3.852a3.992 3.992 0 0 1 -3.95 3.468zm17.659-2.649a.979.979 0 0 1 -.838.186l-27.616-6.565a5.989 5.989 0 0 0 -8.723-7.822l-8.828-21.224a.993.993 0 0 1 .006-.782 1.023 1.023 0 0 1 .581-.554c2.765-1 6.547-1.228 8.864 3.4 3.943 7.885 8.928 19.3 8.978 19.413a1 1 0 0 0 .659.566c.151.04 15.071 4.021 21.984 6 4.837 1.379 5.335 5.055 5.324 6.578a1.028 1.028 0 0 1 -.391.804z"/><path d="m43 25a1 1 0 0 0 1-1v-2a3 3 0 0 0 -3-3 1 1 0 0 1 -1-1 3 3 0 0 0 -3-3 1 1 0 0 1 -1-1 3 3 0 0 0 -3-3h-2a1 1 0 0 0 0 2h2a1 1 0 0 1 1 1 3 3 0 0 0 3 3 1 1 0 0 1 1 1 3 3 0 0 0 3 3 1 1 0 0 1 1 1v2a1 1 0 0 0 1 1z"/><path d="m48 20a1 1 0 0 0 1-1v-2a3 3 0 0 0 -3-3 1 1 0 0 1 -1-1 3 3 0 0 0 -3-3 1 1 0 0 1 -1-1 3 3 0 0 0 -3-3h-2a1 1 0 0 0 0 2h2a1 1 0 0 1 1 1 3 3 0 0 0 3 3 1 1 0 0 1 1 1 3 3 0 0 0 3 3 1 1 0 0 1 1 1v2a1 1 0 0 0 1 1z"/></svg>