<?xml version="1.0" encoding="UTF-8" standalone="no"?>
<!-- Created with Inkscape (http://www.inkscape.org/) -->

<svg
   version="1.1"
   id="svg4713"
   xml:space="preserve"
   width="682.66669"
   height="682.66669"
   viewBox="0 0 682.66669 682.66669"
   xmlns="http://www.w3.org/2000/svg"
   xmlns:svg="http://www.w3.org/2000/svg"><defs
     id="defs4717"><clipPath
       clipPathUnits="userSpaceOnUse"
       id="clipPath4727"><path
         d="M 0,512 H 512 V 0 H 0 Z"
         id="path4725" /></clipPath></defs><g
     id="g4719"
     transform="matrix(1.3333333,0,0,-1.3333333,0,682.66667)"><g
       id="g4721"><g
         id="g4723"
         clip-path="url(#clipPath4727)"><g
           id="g4729"
           transform="translate(184.623,113.868)"><path
             d="m 0,0 c 0,0 0.886,-64.433 -24.232,-98.621 -7.544,-10.27 -22.875,-10.274 -30.857,-0.34 -8.108,10.091 -17.284,24.509 -20.323,40.783 -5.844,31.292 -15.695,37.859 -15.695,37.859 0,0 -6.568,9.851 -37.86,15.695 -16.268,3.038 -30.682,12.21 -40.773,20.316 -10.149,8.154 -9.696,23.648 0.868,31.256 34.322,24.717 98.084,23.84 98.084,23.84 z"
             style="fill:#a6b6c4;fill-opacity:1;fill-rule:nonzero;stroke:none"
             id="path4731" /></g><g
           id="g4733"
           transform="translate(157.623,120.868)"><path
             d="m 0,0 c 0,0 0.886,-64.433 -24.232,-98.621 -1.577,-2.148 -3.499,-3.84 -5.619,-5.093 0.591,-0.769 1.18,-1.522 1.762,-2.247 7.982,-9.934 23.313,-9.93 30.857,0.34 C 27.886,-71.433 27,-7 27,-7 Z"
             style="fill:#96a9ba;fill-opacity:1;fill-rule:nonzero;stroke:none"
             id="path4735" /></g><g
           id="g4737"
           transform="translate(262.657,435.3521)"><path
             d="m 0,0 c 0,0 -77.146,9.417 -134.482,-41.326 -5.859,-5.185 -4.714,-14.625 2.259,-18.173 16.852,-8.574 44.601,-24.49 57.844,-42.137 z"
             style="fill:#96a9ba;fill-opacity:1;fill-rule:nonzero;stroke:none"
             id="path4739" /></g><g
           id="g4741"
           transform="translate(140.7286,296.8283)"><path
             d="m 0,0 c 0,0 -39.131,-9.628 -64.537,-38.356 -5.539,-6.263 -3.46,-16.116 4.17,-19.532 8.971,-4.017 20.217,-11.09 28.305,-23.154 z"
             style="fill:#a6b6c4;fill-opacity:1;fill-rule:nonzero;stroke:none"
             id="path4743" /></g><g
           id="g4745"
           transform="translate(296.7951,140.7619)"><path
             d="m 0,0 c 0,0 -9.628,-39.131 -38.356,-64.537 -6.263,-5.539 -16.116,-3.46 -19.533,4.17 -4.016,8.971 -11.089,20.217 -23.153,28.305 z"
             style="fill:#69829a;fill-opacity:1;fill-rule:nonzero;stroke:none"
             id="path4747" /></g><g
           id="g4749"
           transform="translate(311.3187,468.1451)"><path
             d="m 0,0 c 49.492,28.461 97.277,41.16 133.135,34.708 2.438,-0.435 4.383,-2.282 4.999,-4.687 l 6.937,-27.115 c 1.576,-6.19 8.225,-9.588 14.168,-7.24 l 16.64,6.559 c 3.038,1.198 6.485,-0.099 7.988,-2.997 20.104,-38.574 6.756,-101.094 -32.656,-165.412 L 77.587,-192.765 -32.736,-82.443 Z"
             style="fill:#96a9ba;fill-opacity:1;fill-rule:nonzero;stroke:none"
             id="path4751" /></g><g
           id="g4753"
           transform="translate(126.352,126.3853)"><path
             d="m 0,0 c -49.189,49.189 -9.128,169.008 89.479,267.616 30.702,30.701 63.456,55.723 95.488,74.144 3.768,-32.533 15.81,-64.294 36.136,-91.86 z"
             style="fill:#69829a;fill-opacity:1;fill-rule:nonzero;stroke:none"
             id="path4755" /></g><g
           id="g4757"
           transform="translate(495.1854,467.3736)"><path
             d="M 0,0 C -0.376,0.724 -0.873,1.349 -1.455,1.859 -1.746,2.114 -2.058,2.341 -2.387,2.538 -2.715,2.734 -3.061,2.9 -3.418,3.034 -3.775,3.168 -4.145,3.271 -4.521,3.339 -4.71,3.373 -4.9,3.399 -5.092,3.416 -6.049,3.502 -7.038,3.371 -7.987,2.996 l -5.182,-2.042 c 8.634,-38.46 -6.027,-91.762 -39.487,-146.367 -7.381,-12.053 -15.693,-24.165 -24.858,-36.195 0,0 44.858,16.195 44.858,16.195 15.534,25.351 28.648,52.67 36.143,81.531 C 12.033,-50.973 11.309,-21.698 0,0"
             style="fill:#69829a;fill-opacity:1;fill-rule:nonzero;stroke:none"
             id="path4759" /></g><g
           id="g4761"
           transform="translate(462.5297,301.9608)"><path
             d="m 0,0 c -17.773,-29.019 -40.857,-58.391 -68.562,-86.097 -98.607,-98.607 -218.427,-138.667 -267.616,-89.479 101.382,201.812 221.103,249.901 221.103,249.901 5.681,-7.717 12.027,-15.113 19.012,-22.099 C -68.718,24.882 -35.201,7.47 0,0"
             style="fill:#a6b6c4;fill-opacity:1;fill-rule:nonzero;stroke:none"
             id="path4763" /></g><g
           id="g4765"
           transform="translate(434.9222,310.0249)"><path
             d="m 0,0 c -16.583,-25.096 -37.043,-50.249 -60.955,-74.161 -85.737,-85.737 -187.501,-127.199 -244.94,-104.232 -0.892,-1.746 -1.786,-3.477 -2.675,-5.247 18.446,-18.445 46.824,-24.34 80.291,-19.304 59.515,8.956 114.25,44.116 159.107,82.619 37.534,32.216 70.916,70.032 96.779,112.261 C 18.258,-6.08 9.028,-3.387 0,0"
             style="fill:#96a9ba;fill-opacity:1;fill-rule:nonzero;stroke:none"
             id="path4767" /></g><g
           id="g4769"
           transform="translate(415.9225,266.7757)"><path
             d="m 0,0 c -11.134,-7.092 -25.931,-17.99 -42.689,-34.078 -5.947,-5.709 -3.997,-15.671 3.68,-18.675 19,-7.436 52.877,-15.779 84.13,1.704 6.093,3.409 9.816,9.935 9.713,16.916 -0.106,7.215 -2.359,16.97 -10.891,27.245 C 33.125,6.138 14.28,9.097 0,0"
             style="fill:#69829a;fill-opacity:1;fill-rule:nonzero;stroke:none"
             id="path4771" /></g><g
           id="g4773"
           transform="translate(403.5246,455.1434)"><path
             d="M 0,0 10.184,-10.184"
             style="fill:none;stroke:#000000;stroke-width:15;stroke-linecap:round;stroke-linejoin:round;stroke-miterlimit:10;stroke-dasharray:none;stroke-opacity:1"
             id="path4775" /></g><g
           id="g4777"
           transform="translate(495.1857,467.3735)"><path
             d="m 0,0 c -1.502,2.898 -4.95,4.195 -7.988,2.996 l -16.639,-6.559 c -5.944,-2.348 -12.593,1.051 -14.169,7.241 l -6.937,27.114 c -0.616,2.405 -2.561,4.252 -4.999,4.687 -35.857,6.453 -83.643,-6.247 -133.135,-34.708 3.768,-32.532 15.811,-64.293 36.137,-91.859 5.68,-7.716 12.026,-15.113 19.012,-22.099 27.344,-27.344 60.862,-44.755 96.062,-52.226 C 6.756,-101.095 20.104,-38.574 0,0 Z"
             style="fill:none;stroke:#000000;stroke-width:15;stroke-linecap:round;stroke-linejoin:round;stroke-miterlimit:10;stroke-dasharray:none;stroke-opacity:1"
             id="path4779" /></g><g
           id="g4781"
           transform="translate(130.4347,375.853)"><path
             d="m 0,0 c 12.28,-6.248 30.343,-16.397 44.367,-28.272 12.235,15.75 25.943,31.334 41.029,46.42 15.215,15.215 30.935,29.03 46.821,41.343 l 0.006,0.008 c 0,0 -77.147,9.417 -134.483,-41.326 C -8.118,12.988 -6.973,3.548 0,0 Z"
             style="fill:none;stroke:#000000;stroke-width:15;stroke-linecap:round;stroke-linejoin:round;stroke-miterlimit:10;stroke-dasharray:none;stroke-opacity:1"
             id="path4783" /></g><g
           id="g4785"
           transform="translate(108.6711,215.7974)"><path
             d="m 0,0 c 5.112,25.14 16.008,52.772 32.046,81.001 l 0.012,0.03 c 0,0 -39.131,-9.628 -64.537,-38.356 -5.54,-6.263 -3.461,-16.116 4.17,-19.532 8.971,-4.018 20.217,-11.09 28.305,-23.154 z"
             style="fill:none;stroke:#000000;stroke-width:15;stroke-linecap:round;stroke-linejoin:round;stroke-miterlimit:10;stroke-dasharray:none;stroke-opacity:1"
             id="path4787" /></g><g
           id="g4789"
           transform="translate(302.5885,349.2268)"><path
             d="M 0,0 C 27.324,20.001 44.867,27.059 44.867,27.059 24.541,54.625 12.498,86.386 8.73,118.918 -23.301,100.497 -56.056,75.476 -86.757,44.774 c -98.608,-98.607 -138.668,-218.427 -89.479,-267.616 52.467,104.443 109.842,167.706 152.997,204.446"
             style="fill:none;stroke:#000000;stroke-width:15;stroke-linecap:round;stroke-linejoin:round;stroke-miterlimit:10;stroke-dasharray:none;stroke-opacity:1"
             id="path4791" /></g><g
           id="g4793"
           transform="translate(177.4098,54.3218)"><path
             d="m 0,0 c 5.129,20.061 6.624,40.101 7.05,51.053 -23.785,0.053 -43.898,6.801 -58.108,21.01 -14.21,14.21 -20.957,34.323 -21.01,58.108 -18.5,-0.72 -62.927,-4.474 -89.591,-23.677 -10.564,-7.608 -11.017,-23.102 -0.868,-31.255 10.091,-8.107 24.505,-17.279 40.774,-20.317 31.292,-5.844 37.859,-15.695 37.859,-15.695 0,0 9.851,-6.567 15.695,-37.859 3.039,-16.274 12.216,-30.692 20.324,-40.783 7.981,-9.934 23.312,-9.93 30.857,0.34 2.541,3.459 4.811,7.233 6.848,11.214"
             style="fill:none;stroke:#000000;stroke-width:15;stroke-linecap:round;stroke-linejoin:round;stroke-miterlimit:10;stroke-dasharray:none;stroke-opacity:1"
             id="path4795" /></g><g
           id="g4797"
           transform="translate(215.7643,108.7046)"><path
             d="m 0,0 -0.011,-0.005 c 12.064,-8.088 19.136,-19.333 23.154,-28.304 3.416,-7.631 13.269,-9.71 19.531,-4.171 28.728,25.406 38.357,64.537 38.357,64.537 l -0.03,-0.012 C 52.772,16.007 25.14,5.112 0,0 Z"
             style="fill:none;stroke:#000000;stroke-width:15;stroke-linecap:round;stroke-linejoin:round;stroke-miterlimit:10;stroke-dasharray:none;stroke-opacity:1"
             id="path4799" /></g><g
           id="g4801"
           transform="translate(279.3493,330.8311)"><path
             d="m 0,0 c -43.155,-36.741 -100.53,-100.004 -152.997,-204.446 48.231,-48.23 164.366,-10.647 261.829,83.793 -4.147,1.214 -7.94,2.542 -11.268,3.844 -7.676,3.005 -9.627,12.967 -3.68,18.676 16.758,16.088 31.555,26.985 42.689,34.078 7.906,5.036 17.209,6.37 25.776,4.354 7.583,10.262 14.546,20.568 20.832,30.831 -35.201,7.47 -68.719,24.881 -96.063,52.226 -6.986,6.986 -13.331,14.382 -19.012,22.099 0,0 -17.543,-7.058 -44.867,-27.059"
             style="fill:none;stroke:#000000;stroke-width:15;stroke-linecap:round;stroke-linejoin:round;stroke-miterlimit:10;stroke-dasharray:none;stroke-opacity:1"
             id="path4803" /></g><g
           id="g4805"
           transform="translate(415.9226,266.7757)"><path
             d="m 0,0 c -11.134,-7.092 -25.931,-17.99 -42.689,-34.078 -5.947,-5.709 -3.997,-15.671 3.68,-18.675 19,-7.436 52.877,-15.779 84.13,1.704 6.093,3.409 9.816,9.935 9.713,16.916 -0.106,7.215 -2.359,16.97 -10.891,27.245 C 33.125,6.138 14.28,9.097 0,0 Z"
             style="fill:none;stroke:#000000;stroke-width:15;stroke-linecap:round;stroke-linejoin:round;stroke-miterlimit:10;stroke-dasharray:none;stroke-opacity:1"
             id="path4807" /></g></g></g></g></svg>
