<?xml version="1.0" encoding="UTF-8" standalone="no"?>
<!-- Created with Inkscape (http://www.inkscape.org/) -->

<svg
   version="1.1"
   id="svg747"
   xml:space="preserve"
   width="682.66669"
   height="682.66669"
   viewBox="0 0 682.66669 682.66669"
   xmlns="http://www.w3.org/2000/svg"
   xmlns:svg="http://www.w3.org/2000/svg"><defs
     id="defs751"><clipPath
       clipPathUnits="userSpaceOnUse"
       id="clipPath761"><path
         d="M 0,512 H 512 V 0 H 0 Z"
         id="path759" /></clipPath></defs><g
     id="g753"
     transform="matrix(1.3333333,0,0,-1.3333333,0,682.66667)"><g
       id="g755"><g
         id="g757"
         clip-path="url(#clipPath761)"><g
           id="g763"
           transform="translate(333.6558,401.7524)"><path
             d="m 0,0 21.628,-25.775 c 2.112,-2.518 5.865,-2.846 8.382,-0.734 l 110.802,92.975 c 2.517,2.113 2.844,5.864 0.731,8.382 l -21.628,25.772 c -2.113,2.517 -5.864,2.849 -8.381,0.737 L 0.733,8.382 C -1.784,6.27 -2.112,2.517 0,0"
             style="fill:#717ed4;fill-opacity:1;fill-rule:nonzero;stroke:none"
             id="path765" /></g><g
           id="g767"
           transform="translate(351.4209,388.8906)"><path
             d="m 0,0 62.12,-352.298 43.894,7.74 L 43.895,7.74 Z"
             style="fill:#ddebfd;fill-opacity:1;fill-rule:nonzero;stroke:none"
             id="path769" /></g><g
           id="g771"
           transform="translate(436.0811,40.5674)"><path
             d="m 0,0 21.354,3.765 -62.12,352.298 -21.354,-3.765 z"
             style="fill:#bed9fd;fill-opacity:1;fill-rule:nonzero;stroke:none"
             id="path773" /></g><g
           id="g775"
           transform="translate(37.6279,44.3623)"><path
             d="m 0,0 v -31.427 c 0,-3.002 2.434,-5.435 5.436,-5.435 h 22.961 c 3.3,0 6.485,1.207 8.956,3.394 L 75.167,0 Z"
             style="fill:#75cff9;fill-opacity:1;fill-rule:nonzero;stroke:none"
             id="path777" /></g><g
           id="g779"
           transform="translate(14.3667,85.5503)"><path
             d="m 0,0 v -32.859 c 0,-4.601 3.729,-8.329 8.33,-8.329 H 394.933 V 8.33 H 8.33 C 3.729,8.33 0,4.6 0,0"
             style="fill:#738c96;fill-opacity:1;fill-rule:nonzero;stroke:none"
             id="path781" /></g><g
           id="g783"
           transform="translate(373.4575,91.3379)"><path
             d="m 0,0 v -24.128 c 0,-3.417 -2.771,-6.188 -6.188,-6.188 h -45.287 c -14.775,0 -26.753,-11.978 -26.753,-26.753 v -26.769 h 188.323 c 7.777,0 14.081,6.304 14.081,14.081 v 42.164 c 0,39.549 -39.555,66.883 -76.548,52.899 L 6.83,9.884 C 2.72,8.33 0,4.395 0,0"
             style="fill:#75cff9;fill-opacity:1;fill-rule:nonzero;stroke:none"
             id="path785" /></g><g
           id="g787"
           transform="translate(426.1255,118.2896)"><path
             d="m 0,0 c 23.28,-6.486 41.509,-27.698 41.509,-54.544 v -42.164 c 0,-7.777 -6.305,-14.082 -14.082,-14.082 h 30 c 7.777,0 14.081,6.305 14.081,14.082 v 42.164 C 71.508,-16.788 35.457,9.834 0,0"
             style="fill:#6cbff8;fill-opacity:1;fill-rule:nonzero;stroke:none"
             id="path789" /></g><g
           id="g791"
           transform="translate(438.6191,456.478)"><path
             d="m 0,0 -44.184,-37.075 h -68.042 c -3.285,0 -5.949,-2.664 -5.949,-5.949 v -33.653 c 0,-3.285 2.664,-5.949 5.949,-5.949 h 75.859 c 5.659,0 11.136,1.993 15.47,5.63 l 50.181,42.105 c 2.517,2.113 2.845,5.866 0.733,8.383 L 8.382,-0.732 C 6.269,1.784 2.517,2.112 0,0"
             style="fill:#75cff9;fill-opacity:1;fill-rule:nonzero;stroke:none"
             id="path793" /></g><g
           id="g795"
           transform="translate(468.6357,429.9702)"><path
             d="M 0,0 -9.565,11.396 C -9.76,9.986 -10.452,8.639 -11.628,7.652 l -69.285,-58.141 c -4.335,-3.636 -9.812,-5.63 -15.469,-5.63 h 29.999 c 5.658,0 11.135,1.994 15.469,5.631 L -0.733,-8.383 C 1.785,-6.271 2.113,-2.517 0,0"
             style="fill:#6cbff8;fill-opacity:1;fill-rule:nonzero;stroke:none"
             id="path797" /></g><g
           id="g799"
           transform="translate(345.438,419.4004)"><path
             d="m 0,0 99.751,83.709 c 2.52,2.11 6.271,1.783 8.381,-0.737 L 129.761,57.2 c 2.111,-2.52 1.779,-6.272 -0.731,-8.382 L 106.77,30.14"
             style="fill:none;stroke:#000000;stroke-width:15;stroke-linecap:round;stroke-linejoin:round;stroke-miterlimit:10;stroke-dasharray:none;stroke-opacity:1"
             id="path801" /></g><g
           id="g803"
           transform="translate(179.458,378.4604)"><path
             d="m 0,0 14.31,12.48 c 3.83,3.34 8.73,5.18 13.81,5.18 h 112.86"
             style="fill:none;stroke:#000000;stroke-width:15;stroke-linecap:round;stroke-linejoin:round;stroke-miterlimit:10;stroke-dasharray:none;stroke-opacity:1"
             id="path805" /></g><g
           id="g807"
           transform="translate(444.0483,120.27)"><path
             d="M 0,0 -28.49,161.541"
             style="fill:none;stroke:#000000;stroke-width:15;stroke-linecap:round;stroke-linejoin:round;stroke-miterlimit:10;stroke-dasharray:none;stroke-opacity:1"
             id="path809" /></g><g
           id="g811"
           transform="translate(409.478,316.2803)"><path
             d="M 0,0 -10.15,57.57"
             style="fill:none;stroke:#000000;stroke-width:15;stroke-linecap:round;stroke-linejoin:round;stroke-miterlimit:10;stroke-dasharray:none;stroke-opacity:1"
             id="path813" /></g><g
           id="g815"
           transform="translate(400.7783,108.96)"><path
             d="M 0,0 -46.71,264.891"
             style="fill:none;stroke:#000000;stroke-width:15;stroke-linecap:round;stroke-linejoin:round;stroke-miterlimit:10;stroke-dasharray:none;stroke-opacity:1"
             id="path817" /></g><g
           id="g819"
           transform="translate(37.6279,44.3623)"><path
             d="m 0,0 v -31.427 c 0,-3.002 2.434,-5.435 5.436,-5.435 h 22.961 c 3.3,0 6.485,1.207 8.956,3.394 L 75.167,0"
             style="fill:none;stroke:#000000;stroke-width:15;stroke-linecap:round;stroke-linejoin:round;stroke-miterlimit:10;stroke-dasharray:none;stroke-opacity:1"
             id="path821" /></g><g
           id="g823"
           transform="translate(373.7783,93.8799)"><path
             d="M 0,0 H -240.67"
             style="fill:none;stroke:#000000;stroke-width:15;stroke-linecap:round;stroke-linejoin:round;stroke-miterlimit:10;stroke-dasharray:none;stroke-opacity:1"
             id="path825" /></g><g
           id="g827"
           transform="translate(98.1079,93.8799)"><path
             d="m 0,0 h -75.411 c -4.6,0 -8.33,-3.729 -8.33,-8.33 v -32.859 c 0,-4.6 3.73,-8.329 8.33,-8.329 H 199.09"
             style="fill:none;stroke:#000000;stroke-width:15;stroke-linecap:round;stroke-linejoin:round;stroke-miterlimit:10;stroke-dasharray:none;stroke-opacity:1"
             id="path829" /></g><g
           id="g831"
           transform="translate(373.4575,91.3379)"><path
             d="m 0,0 v -24.128 c 0,-3.417 -2.771,-6.188 -6.188,-6.188 h -45.287 c -14.775,0 -26.753,-11.978 -26.753,-26.753 v -26.769 h 188.323 c 7.777,0 14.081,6.304 14.081,14.081 v 42.164 c 0,39.549 -39.555,66.883 -76.548,52.899 L 6.83,9.884 C 2.72,8.33 0,4.395 0,0 Z"
             style="fill:none;stroke:#000000;stroke-width:15;stroke-linecap:round;stroke-linejoin:round;stroke-miterlimit:10;stroke-dasharray:none;stroke-opacity:1"
             id="path833" /></g><g
           id="g835"
           transform="translate(426.0854,82.2534)"><path
             d="M 0,0 H 14.917"
             style="fill:none;stroke:#000000;stroke-width:15;stroke-linecap:round;stroke-linejoin:round;stroke-miterlimit:10;stroke-dasharray:none;stroke-opacity:1"
             id="path837" /></g><g
           id="g839"
           transform="translate(426.0854,45.5952)"><path
             d="M 0,0 H 14.917"
             style="fill:none;stroke:#000000;stroke-width:15;stroke-linecap:round;stroke-linejoin:round;stroke-miterlimit:10;stroke-dasharray:none;stroke-opacity:1"
             id="path841" /></g><g
           id="g843"
           transform="translate(438.6191,456.478)"><path
             d="m 0,0 -44.184,-37.075 h -68.042 c -3.285,0 -5.949,-2.664 -5.949,-5.949 v -33.653 c 0,-3.285 2.664,-5.949 5.949,-5.949 h 75.859 c 5.659,0 11.136,1.993 15.47,5.63 l 50.181,42.105 c 2.517,2.113 2.845,5.866 0.733,8.383 L 8.382,-0.732 C 6.269,1.784 2.517,2.112 0,0 Z"
             style="fill:none;stroke:#000000;stroke-width:15;stroke-linecap:round;stroke-linejoin:round;stroke-miterlimit:10;stroke-dasharray:none;stroke-opacity:1"
             id="path845" /></g></g></g></g></svg>
