<svg clip-rule="evenodd" fill-rule="evenodd" height="512" image-rendering="optimizeQuality" shape-rendering="geometricPrecision" text-rendering="geometricPrecision" viewBox="0 0 1707 1707" width="512" xmlns="http://www.w3.org/2000/svg"><g id="Layer_x0020_1"><path d="m1686 1377c-4 0-8-2-12-5l-209-164c-20-16 5-47 25-31l209 164c14 12 6 36-13 36z" fill="#af6652"/><path d="m20 1377c-19 0-27-25-12-36l209-164c20-16 45 15 24 31l-208 164c-4 3-8 5-13 5z" fill="#af6652"/><path d="m1349 1322c-2 0-4 0-6-1-180-65-494-583-507-605-14-23 20-43 34-21 3 6 320 528 486 588 21 8 15 39-7 39z"/><path d="m1180 1379c-16 0-142-11-122-53 4-10 16-14 26-9 131 62 252-30 253-31 22-16 45 16 25 32-5 3-80 61-182 61z"/><path d="m1426 1480h-262c-27 0-82-89-106-136-9-17 9-35 26-27 94 45 181 11 225-13-154-92-375-431-449-548-40 146-173 601-305 719-4 3-8 5-13 5h-261c-94 0-105-20-96-94l34-267c0-7 5-13 12-16 336-144 602-657 605-662 7-14 28-14 35 0 3 5 269 518 606 662 6 3 11 9 12 16l33 267c10 74-2 94-96 94z" fill="#ffd252"/><path d="m1686 1457c-11 0-20-9-20-20v-119c0-26 40-26 40 0v119c0 11-9 20-20 20z" fill="#af6652"/><path d="m20 1457c-11 0-20-9-20-20v-119c0-26 40-26 40 0v119c0 11-8 20-20 20z" fill="#af6652"/><path d=""/><path d="m61 1214c-17 0-26-20-15-33l792-948c8-9 23-9 31 0l793 948c13 16-4 39-23 32l-178-73c-303-130-541-529-607-648-66 119-305 518-607 648-13 3-174 74-186 74z" fill="#ffbd4a"/><path d="m542 1480c-19 0-28-22-14-35 147-130 304-738 305-744 7-26 45-16 39 10-7 25-162 626-317 764-4 3-9 5-13 5z"/><path d="m1163 1480c-4 0-9-2-13-5-155-138-310-739-317-764-6-26 33-36 39-10 1 6 159 614 305 744 13 12 5 35-14 35z"/><path d="m1180 1379c-23 0-110-11-122-35-120-226-220-617-225-633-5-22 25-35 37-16 3 5 320 528 486 588 15 5 19 24 6 35-5 3-80 61-182 61z" fill="#ffbd4a"/><path d="m522 1480c0-18 2-31 6-35 147-130 304-738 305-744 6-21 34-20 39 0 0 0 159 614 305 744 4 4 6 18 7 35z" fill="#757474"/></g></svg>