<svg height="512pt" viewBox="0 0 512.00406 512" width="512pt" xmlns="http://www.w3.org/2000/svg"><path d="m255.582031 504.386719c-19.210937-.027344-35.839843-11.046875-43.941406-27.105469-13.683594 11.71875-33.308594 15.503906-51.074219 8.101562-17.761718-7.394531-28.902344-23.972656-30.222656-41.933593-17.101562 5.578125-36.652344 1.554687-50.226562-12.046875-13.570313-13.613282-17.535157-33.171875-11.90625-50.265625-17.960938-1.367188-34.511719-12.558594-41.855469-30.339844-7.355469-17.78125-3.519531-37.410156 8.25-51.050781-16.039063-8.144532-27.019531-24.8125-27-44.023438.019531-19.222656 11.042969-35.855468 27.089843-43.964844-11.730468-13.675781-15.515624-33.300781-8.132812-51.074218 7.382812-17.761719 23.964844-28.914063 41.914062-30.242188-5.589843-17.101562-1.578124-36.652344 12.027344-50.226562 13.601563-13.582032 33.160156-17.566406 50.253906-11.945313 1.359376-17.953125 12.539063-34.511719 30.308594-41.867187 17.796875-7.363282 37.410156-3.539063 51.066406 8.222656 8.128907-16.039062 24.789063-27.03125 44.011719-27.019531 19.210938.007812 35.851563 11.011719 43.976563 27.058593 13.660156-11.738281 33.289062-15.535156 51.0625-8.164062 17.773437 7.386719 28.929687 23.945312 30.269531 41.90625 17.09375-5.601562 36.652344-1.597656 50.234375 11.996094 13.585938 13.59375 17.578125 33.152344 11.96875 50.246094 17.960938 1.339843 34.519531 12.515624 41.882812 30.289062h.011719c7.363281 17.785156 3.558594 37.410156-8.203125 51.0625 16.046875 8.132812 27.046875 24.785156 27.046875 43.996094v.195312.355469c-.039062 19.222656-11.078125 35.84375-27.136719 43.933594 11.722657 13.683593 15.488282 33.320312 8.074219 51.085937-7.402343 17.75-23.984375 28.890625-41.945312 30.191406 5.558593 17.105469 1.539062 36.652344-12.082031 50.214844-13.617188 13.574219-33.183594 17.527344-50.265626 11.886719-1.378906 17.953125-12.578124 34.503906-30.363281 41.835937-17.800781 7.347657-37.417969 3.5-51.050781-8.277343-8.140625 16.007812-24.773438 26.980469-43.953125 26.96875-.027344 0-.058594 0-.089844 0zm0 0" fill="#e6e6e6"/><path d="m232.566406 463.914062c0-7.929687 2.007813-16.078124 6.742188-23.5625-4.964844 1.621094-10.148438 2.433594-15.328125 2.433594-12.632813 0-25.265625-4.824218-34.886719-14.476562-9.589844-9.621094-14.386719-22.214844-14.386719-34.804688 0-5.222656.824219-10.453125 2.476563-15.460937-8.984375-.679688-17.613282-3.824219-24.910156-9.015625-7.300782-5.191406-13.273438-12.429688-16.941407-21.320313-2.546875-6.152343-3.753906-12.53125-3.753906-18.796875 0-11.851562 4.300781-23.339844 11.996094-32.261718-16.019531-8.128907-27-24.777344-27-43.96875v-.050782c.011719-9.609375 2.769531-18.574218 7.53125-26.148437 4.765625-7.570313 11.539062-13.765625 19.558593-17.820313-7.644531-8.914062-11.914062-20.359375-11.914062-32.171875 0-6.304687 1.21875-12.710937 3.785156-18.898437 3.6875-8.878906 9.679688-16.109375 16.988282-21.277344 7.3125-5.183594 15.949218-8.292969 24.921874-8.964844-1.621093-4.976562-2.433593-10.15625-2.433593-15.347656 0-12.625 4.816406-25.253906 14.457031-34.878906 9.621094-9.609375 22.222656-14.414063 34.828125-14.414063 5.210937 0 10.421875.832031 15.429687 2.472657-5.464843-5.464844-7.726562-12.265626-7.726562-19.28125 0-16.019532 11.792969-33.183594 24.148438-38.292969h-.027344c-19.214844 0-35.851563 10.988281-43.980469 27.015625-8.921875-7.683594-20.398437-11.980469-32.242187-11.980469-6.273438 0-12.664063 1.203125-18.828126 3.761719-8.878906 3.679687-16.117187 9.648437-21.308593 16.960937-5.191407 7.296875-8.324219 15.925781-9.003907 24.898438-4.996093-1.640625-10.210937-2.464844-15.421874-2.464844-12.601563 0-25.210938 4.808594-34.832032 14.417969-9.644531 9.621094-14.460937 22.253906-14.460937 34.875 0 5.191406.8125 10.371094 2.433593 15.351562-8.972656.660156-17.609374 3.78125-24.917968 8.960938-7.3125 5.171875-13.300782 12.398437-16.992188 21.28125-2.566406 6.183594-3.78125 12.59375-3.78125 18.898437 0 11.8125 4.265625 23.257813 11.910156 32.167969-8.019531 4.054688-14.789062 10.242188-19.554687 17.8125-4.765625 7.585938-7.523437 16.546875-7.535156 26.160156v.050782c0 19.191406 10.972656 35.835937 27 43.96875-7.695313 8.921874-11.992188 20.398437-11.992188 32.238281 0 6.277343 1.203125 12.65625 3.75 18.808593 3.667969 8.890626 9.640625 16.128907 16.941407 21.332032 7.300781 5.191406 15.925781 8.324218 24.910156 9.011718-1.652344 5.007813-2.472656 10.242188-2.472656 15.460938 0 12.59375 4.785156 25.183594 14.375 34.804688 9.632812 9.652343 22.261718 14.480468 34.894531 14.480468 5.183593 0 10.363281-.8125 15.332031-2.433594.65625 8.980469 3.78125 17.621094 8.949219 24.929688 5.171875 7.308594 12.390625 13.3125 21.273437 17 6.191406 2.578125 12.609375 3.804688 18.925782 3.804688 11.800781 0 23.238281-4.269532 32.148437-11.902344 8.101563 16.058594 24.730469 27.078125 43.941406 27.109375-12.390625-5.152344-23.015625-22.222657-23.015625-40.472657zm0 0" fill="#ccc"/><path d="m394.195312 237.679688c0 31.648437-10.644531 60.800781-28.558593 84.082031-9.679688 12.589843-16.648438 26.980469-20.683594 42.339843-12.292969 46.753907-47.40625 80.507813-88.804687 80.507813-41.398438 0-76.515626-33.753906-88.804688-80.507813-4.015625-15.285156-10.902344-29.648437-20.554688-42.164062-18-23.316406-28.699218-52.554688-28.691406-84.292969.011719-25.578125 7.066406-49.601562 19.328125-70.203125 1.125-.269531 2.25-.585937 3.355469-.945312.605469 8.238281 3.46875 16.15625 8.210938 22.859375 4.742187 6.703125 11.359374 12.207031 19.503906 15.589843 5.683594 2.363282 11.566406 3.488282 17.359375 3.488282 10.820312 0 21.308593-3.914063 29.480469-10.914063 7.425781 14.726563 22.675781 24.832031 40.292968 24.859375h.109375c17.582031 0 32.820313-10.058594 40.285157-24.730468 8.171874 7.066406 18.703124 11.015624 29.574218 11.015624 5.742188 0 11.589844-1.097656 17.234375-3.429687 8.152344-3.355469 14.800781-8.832031 19.558594-15.527344 4.769531-6.691406 7.652344-14.605469 8.285156-22.832031 1.5625.511719 3.152344.949219 4.761719 1.273438 11.925781 20.417968 18.757812 44.179687 18.757812 69.53125zm0 0" fill="#fce98d"/><path d="m256.148438 444.609375c-41.394532 0-76.515626-33.75-88.804688-80.507813-4.011719-15.28125-10.90625-29.644531-20.558594-42.15625-17.996094-23.320312-28.691406-52.558593-28.683594-84.300781 0-25.570312 7.058594-49.597656 19.324219-70.199219 1.125-.273437 2.253907-.589843 3.355469-.953124.609375 8.242187 3.46875 16.160156 8.214844 22.863281 4.734375 6.710937 11.355468 12.207031 19.503906 15.589843 4.644531 1.929688 9.421875 3.03125 14.175781 3.378907-1.136719 9.457031-1.734375 19.273437-1.734375 29.320312 0 31.742188 5.828125 60.980469 15.632813 84.300781 5.253906 12.511719 9.011719 26.875 11.191406 42.15625 6.703125 46.757813 25.835937 80.507813 48.382813 80.507813zm0 0" fill="#e5cc61"/><path d="m193.839844 259.6875c0 12.480469-10.117188 22.597656-22.59375 22.597656-12.480469 0-22.59375-10.117187-22.59375-22.597656 0-12.476562 10.113281-22.59375 22.59375-22.59375 12.476562 0 22.59375 10.117188 22.59375 22.59375zm0 0" fill="#384649"/><path d="m363.644531 259.6875c0 12.480469-10.117187 22.597656-22.59375 22.597656-12.480469 0-22.59375-10.117187-22.59375-22.597656 0-12.476562 10.113281-22.59375 22.59375-22.59375 12.476563 0 22.59375 10.117188 22.59375 22.59375zm0 0" fill="#384649"/><path d="m185.226562 256.140625c0 5.253906-4.261718 9.515625-9.515624 9.515625-5.253907 0-9.515626-4.261719-9.515626-9.515625s4.261719-9.515625 9.515626-9.515625c5.253906 0 9.515624 4.261719 9.515624 9.515625zm0 0" fill="#fff"/><path d="m355.585938 256.140625c0 5.253906-4.261719 9.515625-9.515626 9.515625-5.253906 0-9.515624-4.261719-9.515624-9.515625s4.261718-9.515625 9.515624-9.515625c5.253907 0 9.515626 4.261719 9.515626 9.515625zm0 0" fill="#fff"/><path d="m107.210938 80.644531c-26.269532-26.269531-63.113282-35.484375-96.824219-27.695312-7.792969 33.714843 1.421875 70.558593 27.691406 96.828125 2.613281 2.609375 5.328125 5.054687 8.132813 7.328125 45.753906 37.074219 105.402343-22.574219 68.328124-68.328125-2.273437-2.808594-4.714843-5.523438-7.328124-8.132813zm0 0" fill="#fce98d"/><path d="m88.171875 167.332031c32.21875-11.738281 5.179687-81.59375-37.640625-81.59375.003906 0 3.472656 54.003907 37.640625 81.59375zm0 0" fill="#e5cc61"/><path d="m404.792969 80.644531c26.269531-26.269531 63.113281-35.484375 96.828125-27.695312 7.789062 33.714843-1.425782 70.558593-27.695313 96.828125-2.609375 2.609375-5.324219 5.054687-8.132812 7.328125-45.753907 37.074219-105.402344-22.574219-68.328125-68.328125 2.273437-2.808594 4.71875-5.523438 7.328125-8.132813zm0 0" fill="#fce98d"/><path d="m423.832031 167.332031c-32.21875-11.738281-5.179687-81.59375 37.640625-81.59375 0 0-3.46875 54.003907-37.640625 81.59375zm0 0" fill="#e5cc61"/><path d="m503.332031 225.804688c-3.9375-6.269532-9.03125-11.683594-14.972656-15.972657 9.632813-15.445312 11.339844-34.59375 4.214844-51.804687-.050781-.125-.105469-.25-.164063-.371094-1.582031-3.730469-3.53125-7.25-5.820312-10.519531 21.964844-26.625 30.339844-61.71875 22.4375-95.898438-.65625-2.832031-2.863282-5.042969-5.695313-5.695312-30.675781-7.089844-62.082031-1.074219-87.445312 16.109375-6.09375-2.175782-12.480469-3.296875-19.058594-3.296875-3.074219 0-6.125.246093-9.132813.730469-1.675781-7.152344-4.726562-13.949219-9.015624-19.996094-6.171876-8.710938-14.667969-15.492188-24.578126-19.609375-6.953124-2.886719-14.289062-4.351563-21.796874-4.351563-10.648438 0-21.039063 2.988282-30.003907 8.539063-4.285156-5.949219-9.699219-11.046875-15.964843-14.988281-9.023438-5.667969-19.460938-8.6679692-30.21875-8.67578175-18.566407 0-35.570313 8.86328175-46.164063 23.61328175-8.980469-5.574219-19.390625-8.578126-30.058594-8.578126-6.832031 0-13.566406 1.230469-20.007812 3.660157-3.929688 1.484375-5.914063 5.871093-4.433594 9.800781 1.484375 3.925781 5.871094 5.910156 9.800781 4.429688 4.71875-1.78125 9.648438-2.683594 14.640625-2.683594 9.996094 0 19.6875 3.601562 27.277344 10.140625 1.773437 1.523437 4.152344 2.148437 6.4375 1.699219 2.292969-.453126 4.25-1.9375 5.308594-4.019532 7.152343-14.097656 21.402343-22.855468 37.21875-22.855468 7.867187.007812 15.511719 2.203124 22.105469 6.34375 6.445312 4.054687 11.664062 9.773437 15.089843 16.546874 1.054688 2.082032 3.011719 3.566407 5.300781 4.023438 2.292969.453125 4.664063-.167969 6.4375-1.691406 7.582032-6.511719 17.253907-10.097656 27.234376-10.097656 5.496093 0 10.867187 1.074218 15.960937 3.191406 7.265625 3.019531 13.488281 7.980468 18.003906 14.355468 4.414063 6.222657 7.039063 13.515626 7.605469 21.089844.171875 2.332032 1.410156 4.453125 3.351562 5.753906 1.945313 1.300782 4.378907 1.632813 6.601563.90625 4.175781-1.371093 8.554687-2.066406 13-2.066406 1.390625 0 2.765625.074219 4.132813.207032-.515626.496093-1.035157.988281-1.546876 1.496093-2.765624 2.765625-5.40625 5.699219-7.855468 8.722657-22.066406 27.234374-13.585938 58.167968 3.632812 75.386718 9.886719 9.886719 24.289063 16.890625 39.917969 16.890625 11.597656 0 23.871094-3.855469 35.46875-13.253906 1.785156-1.445313 3.53125-2.964844 5.238281-4.53125 1.019532 1.710937 1.925782 3.503906 2.699219 5.371094.042969.101562.089844.207031.136719.308593 5.890625 14.558594 3.199218 30.960938-7.066406 42.882813-1.527344 1.769531-2.152344 4.144531-1.699219 6.4375.457031 2.292969 1.941406 4.25 4.027343 5.308594 6.765626 3.425781 12.484376 8.648437 16.539063 15.101562 4.148437 6.605469 6.339844 14.25 6.339844 22.105469v.542969c-.015625 7.855469-2.226563 15.496093-6.390625 22.09375-4.058594 6.4375-9.785156 11.644531-16.566406 15.058593-2.089844 1.050782-3.574219 3.003907-4.035157 5.296876-.460937 2.289062.160157 4.664062 1.679688 6.441406 6.488281 7.574218 10.0625 17.226562 10.0625 27.179687 0 5.5-1.085938 10.894531-3.226563 16.035157-3.023437 7.257812-7.996094 13.472656-14.378906 17.976562-6.226562 4.394531-13.519531 7.007812-21.09375 7.554688-2.332031.171874-4.457031 1.402343-5.761719 3.34375-1.304687 1.9375-1.644531 4.371093-.921875 6.59375 1.355469 4.164062 2.042969 8.515624 2.042969 12.9375 0 11.175781-4.355469 21.667968-12.265625 29.542968-7.855469 7.832032-18.304688 12.144532-29.417969 12.144532-4.453125 0-8.863281-.707032-13.101562-2.101563-2.214844-.730469-4.652344-.402344-6.59375.898437-1.945313 1.296876-3.1875 3.414063-3.363281 5.742188-.585938 7.582031-3.226563 14.867188-7.652344 21.078125-4.523438 6.363281-10.761719 11.316406-18.027344 14.316406-5.105469 2.101563-10.453125 3.167969-15.890625 3.167969-10.011719 0-19.703125-3.613281-27.285156-10.171875-1.769531-1.53125-4.140625-2.160156-6.4375-1.710937-2.296875.449218-4.253907 1.929687-5.316407 4.011718-7.160156 14.074219-21.394531 22.816406-37.152343 22.816406v7.601563l-.109375-7.601563c-15.800782-.027343-30.039063-8.8125-37.164063-22.933593-1.050781-2.085938-3.003906-3.570313-5.292969-4.03125-2.292968-.457031-4.664062.160156-6.4375 1.679687-7.601562 6.503906-17.269531 10.085938-27.21875 10.085938-5.476562 0-10.859374-1.082032-15.992187-3.21875-7.253906-3.019532-13.472656-7.996094-17.988281-14.382813-4.398438-6.222656-7.019532-13.515625-7.574219-21.097656-.171875-2.332031-1.40625-4.453125-3.347656-5.757813-1.941407-1.300781-4.375-1.636718-6.597657-.914062-4.179687 1.367188-8.546874 2.058594-12.96875 2.058594-11.152343 0-21.636718-4.347656-29.511718-12.242188-7.839844-7.863281-12.15625-18.320312-12.15625-29.4375 0-4.472656.703125-8.875 2.089844-13.078125.734374-2.21875.402343-4.652343-.894532-6.597656-1.292968-1.945313-3.414062-3.1875-5.742187-3.367187-7.597657-.582032-14.890625-3.21875-21.085938-7.625-6.371093-4.53125-11.324219-10.765626-14.320312-18.03125-2.109375-5.09375-3.175781-10.445313-3.175781-15.902344 0-10.003906 3.605468-19.695313 10.148437-27.28125 1.527344-1.773438 2.152344-4.144532 1.703125-6.441406-.453125-2.292969-1.9375-4.25-4.023438-5.308594-14.082031-7.148438-22.832031-21.398438-22.832031-37.238282.007813-7.855468 2.210938-15.5 6.363281-22.101562 4.046876-6.433594 9.777344-11.652344 16.5625-15.09375 2.082032-1.054688 3.5625-3.007812 4.019532-5.296875.453125-2.292969-.167969-4.664063-1.6875-6.433594-6.5-7.578125-10.078125-17.246093-10.078125-27.21875 0-5.484375 1.074219-10.863281 3.199219-15.980469.738281-1.785156 1.601562-3.5 2.570312-5.148437 1.71875 1.574219 3.476562 3.105469 5.269531 4.558594 11.601563 9.398437 23.871094 13.257812 35.46875 13.253906 15.628907 0 30.035157-7.003906 39.917969-16.886719 17.21875-17.21875 25.699219-48.15625 3.636719-75.390625-2.453125-3.023437-5.09375-5.957031-7.859375-8.722656-.554688-.550781-1.121094-1.089844-1.683594-1.628906 1.46875-.15625 2.945312-.234375 4.417969-.234375 4.425781 0 8.820312.703125 13.058593 2.09375 2.222657.730468 4.65625.394531 6.597657-.902344 1.941406-1.300781 3.179687-3.421875 3.355469-5.75.546874-7.257812 3-14.28125 7.09375-20.308594 2.359374-3.472656 1.457031-8.203125-2.019532-10.5625-3.476562-2.359375-8.203125-1.457031-10.558594 2.019532-3.917968 5.765624-6.734374 12.203124-8.324218 18.953124-9.496094-1.558593-19.464844-.617187-28.519532 2.632813-25.34375-17.125-56.707031-23.117187-87.332031-16.035156-2.832031.652343-5.042969 2.863281-5.699219 5.695312-7.894531 34.160157.464844 69.234375 22.40625 95.851563-2.3125 3.324218-4.269531 6.894531-5.84375 10.679687-2.894531 6.976563-4.363281 14.316407-4.363281 21.8125 0 10.636719 2.984375 21.019531 8.527344 29.980469-5.960937 4.289062-11.066406 9.703125-15.003906 15.960938-5.679688 9.03125-8.6875002 19.46875-8.699219 30.25 0 18.5625 8.855469 35.558593 23.59375 46.148437-5.582031 8.980469-8.589844 19.394531-8.589844 30.070313 0 7.460937 1.457032 14.765624 4.328125 21.707031 4.089844 9.914062 10.855469 18.425781 19.5625 24.617187 6.035157 4.292969 12.828125 7.351563 19.988281 9.039063-.496093 3.042969-.75 6.128906-.75 9.238281 0 15.171875 5.894532 29.441406 16.597657 40.179688 10.753906 10.773437 25.058593 16.707031 40.28125 16.707031 3.054687 0 6.085937-.242188 9.078125-.722657 1.671875 7.15625 4.714844 13.953126 8.992187 20.003907 6.164063 8.726562 14.65625 15.519531 24.5625 19.648437 6.996094 2.90625 14.34375 4.382813 21.835938 4.382813 10.613281 0 20.980469-2.980469 29.949219-8.515625 10.566406 14.78125 27.5625 23.683594 46.140624 23.714844h.132813c18.519531 0 35.5-8.84375 46.097656-23.558594 8.984375 5.597656 19.402344 8.613281 30.09375 8.613281 7.433594 0 14.730469-1.453125 21.6875-4.316406 9.921875-4.09375 18.4375-10.859375 24.621094-19.558594 4.300781-6.035156 7.367187-12.824219 9.0625-19.980469 3.054687.503906 6.148437.757813 9.261719.757813 15.164062 0 29.421875-5.890625 40.148437-16.582031 10.796875-10.746094 16.738281-25.0625 16.738281-40.316407 0-3.035156-.238281-6.054687-.710937-9.027343 7.152344-1.664063 13.953125-4.703126 20.003906-8.976563 8.726563-6.152344 15.523438-14.640625 19.652344-24.550781 2.917969-7.003906 4.398437-14.367188 4.398437-21.882813 0-10.613281-2.980468-20.972656-8.503906-29.925781 5.960938-4.277344 11.066406-9.679688 15.011719-15.9375 5.695313-9.015625 8.71875-19.453125 8.738281-30.195312v-.558594c-.003906-10.722656-3-21.160156-8.671875-30.191406zm-34.78125-81.40625c-2.394531 2.394531-4.933593 4.683593-7.546875 6.796874-11.710937 9.492188-24.117187 11.433594-34.996094 8.816407-10.246093-4.101563-9.101562-17.398438-8.117187-22.980469 3.722656-21.101562 22.121094-43.691406 43.582031-43.691406 4.199219 0 7.601563-3.402344 7.601563-7.601563s-3.402344-7.605469-7.601563-7.605469c-30.039062 0-53.785156 29.199219-58.558594 56.253907-.601562 3.402343-.871093 6.675781-.84375 9.796875-10.085937-13.207032-13.203124-32.722656 1.300782-50.621094 2.117187-2.613281 4.40625-5.148438 6.796875-7.542969 22.460937-22.460937 53.933593-32.234375 85.011719-26.632812 5.605468 31.082031-4.167969 62.550781-26.628907 85.011719zm-451.726562-85.011719c31.082031-5.601563 62.550781 4.171875 85.011719 26.632812 2.390624 2.390625 4.679687 4.929688 6.796874 7.542969 14.503907 17.898438 11.386719 37.414062 1.300782 50.621094.027344-3.121094-.242188-6.394532-.84375-9.796875-4.773438-27.054688-28.515625-56.253907-58.554688-56.253907-4.199218 0-7.605468 3.402344-7.605468 7.601563s3.402343 7.605469 7.605468 7.605469c21.457032 0 39.855469 22.589844 43.578125 43.6875.988281 5.585937 2.128907 18.882812-8.121093 22.984375-10.875 2.617187-23.28125.675781-34.992188-8.816407-2.613281-2.113281-5.152344-4.402343-7.542969-6.796874-22.464843-22.460938-32.238281-53.929688-26.632812-85.011719zm0 0"/><path d="m370.28125 315.710938c3.589844 2.179687 8.265625 1.039062 10.449219-2.550782 13.78125-22.679687 21.066406-48.777344 21.066406-75.472656 0-25.828125-6.84375-51.199219-19.792969-73.375-1.09375-1.875-2.9375-3.191406-5.066406-3.621094-1.207031-.242187-2.496094-.585937-3.933594-1.050781-2.214844-.710937-4.636718-.371094-6.570312.925781-1.933594 1.300782-3.167969 3.414063-3.34375 5.734375-.523438 6.839844-2.90625 13.410157-6.898438 19.007813-4.078125 5.734375-9.695312 10.195312-16.261718 12.898437-4.597657 1.898438-9.417969 2.859375-14.332032 2.859375-9.027344 0-17.765625-3.253906-24.601562-9.167968-1.769532-1.527344-4.144532-2.160157-6.4375-1.710938-2.292969.449219-4.253906 1.929688-5.316406 4.015625-6.449219 12.6875-19.289063 20.570313-33.5 20.570313h-.097657c-14.257812-.023438-27.101562-7.949219-33.523437-20.679688-1.054688-2.085938-3.007813-3.574219-5.300782-4.03125-2.289062-.457031-4.667968.164062-6.441406 1.683594-6.835937 5.859375-15.542968 9.085937-24.523437 9.085937-4.945313 0-9.804688-.976562-14.4375-2.902343-6.535157-2.714844-12.144531-7.199219-16.21875-12.964844-3.964844-5.605469-6.328125-12.183594-6.835938-19.03125-.171875-2.335938-1.410156-4.460938-3.359375-5.761719-1.945312-1.300781-4.382812-1.632813-6.609375-.898437-.851562.28125-1.78125.546874-2.765625.785156-1.984375.484375-3.691406 1.742187-4.738281 3.5-13.339844 22.402344-20.390625 48.023437-20.390625 74.082031-.011719 32.515625 10.453125 63.269531 30.261719 88.9375 8.925781 11.578125 15.394531 24.851563 19.230469 39.457031 13.546874 51.546875 52.191406 86.179688 96.15625 86.179688 43.964843 0 82.605468-34.632813 96.15625-86.1875 2.5625-9.78125 6.417968-19.144532 11.453124-27.828125 2.105469-3.632813.863282-8.285157-2.769531-10.390625-3.632812-2.109375-8.285156-.867188-10.390625 2.765625-5.71875 9.863281-10.09375 20.496093-13 31.59375-10.953125 41.667969-40.070312 70.59375-73.847656 74.398437v-31.804687l30.542969-30.539063c2.96875-2.96875 2.96875-7.785156 0-10.753906-2.972657-2.96875-7.785157-2.96875-10.753907 0l-27.390624 27.390625-27.390626-27.390625c-2.972656-2.96875-7.785156-2.96875-10.753906 0-2.972656 2.96875-2.972656 7.78125 0 10.753906l30.539063 30.539063v31.804687c-33.773438-3.808594-62.890625-32.730468-73.84375-74.394531-4.355469-16.582031-11.71875-31.679687-21.894531-44.882813-17.738282-22.980468-27.109376-50.523437-27.097657-79.644531 0-18.542969 3.988281-36.839843 11.625-53.636719 1.464844 3.414063 3.289063 6.679688 5.453125 9.734376 5.726563 8.109374 13.609375 14.414062 22.792969 18.226562 6.492187 2.703125 13.316406 4.074219 20.277344 4.074219 9.65625 0 19.085937-2.65625 27.277343-7.59375 9.828126 13.433593 25.441407 21.503906 42.496094 21.53125h.113282c16.988281 0 32.582031-8.015625 42.433593-21.386719 8.21875 4.996094 17.699219 7.679688 27.417969 7.679688 6.914062 0 13.691406-1.347657 20.128906-4.007813 9.214844-3.792969 17.121094-10.070313 22.851563-18.136719 2.464843-3.453125 4.492187-7.175781 6.054687-11.082031 7.851563 17.035156 11.957032 35.699219 11.957032 54.640625 0 23.910156-6.519532 47.277344-18.855469 67.578125-2.179688 3.585937-1.039063 8.265625 2.550781 10.445313zm0 0"/><path d="m141.046875 259.6875c0 16.652344 13.546875 30.199219 30.199219 30.199219 16.648437 0 30.195312-13.546875 30.195312-30.199219 0-16.648438-13.546875-30.195312-30.195312-30.195312-16.652344 0-30.199219 13.546874-30.199219 30.195312zm45.1875 0c0 8.269531-6.722656 14.992188-14.988281 14.992188s-14.992188-6.722657-14.992188-14.992188c0-8.265625 6.726563-14.988281 14.992188-14.988281s14.988281 6.722656 14.988281 14.988281zm0 0"/><path d="m341.050781 229.492188c-16.652343 0-30.199219 13.546874-30.199219 30.195312 0 16.652344 13.546876 30.199219 30.199219 30.199219 16.652344 0 30.199219-13.546875 30.199219-30.199219 0-16.648438-13.546875-30.195312-30.199219-30.195312zm0 45.1875c-8.265625 0-14.992187-6.722657-14.992187-14.988282s6.726562-14.992187 14.992187-14.992187 14.992188 6.726562 14.992188 14.992187-6.726563 14.988282-14.992188 14.988282zm0 0"/></svg>