<?xml version="1.0" encoding="UTF-8" standalone="no"?>
<!DOCTYPE svg PUBLIC "-//W3C//DTD SVG 1.1//EN" "http://www.w3.org/Graphics/SVG/1.1/DTD/svg11.dtd">
<!-- Created with Vectornator (http://vectornator.io/) -->
<svg height="100%" stroke-miterlimit="10" style="fill-rule:nonzero;clip-rule:evenodd;stroke-linecap:round;stroke-linejoin:round;" version="1.1" viewBox="0 0 461.3 172.66" width="100%" xml:space="preserve" xmlns="http://www.w3.org/2000/svg" xmlns:vectornator="http://vectornator.io" xmlns:xlink="http://www.w3.org/1999/xlink">
<defs/>
<g id="layer2" vectornator:layerName="layer2">
<g opacity="1" vectornator:layerName="g3762">
<path d="M156.843 68.6178L246.631 45.8141L222.928 28.8645L182.958 27.3814L176.098 30.124L162.357 47.8844L156.843 68.6178Z" fill="#e8e8e8" fill-rule="evenodd" opacity="1" stroke="none" vectornator:layerName="path"/>
<path d="M287.885 69.628L250.744 46.1558L172.228 66.7735L174.676 68.3091L244.533 70.0271C244.533 70.0271 287.885 69.628 287.885 69.628Z" fill="#efefef" fill-rule="evenodd" opacity="1" stroke="#e0e0e0" stroke-linecap="butt" stroke-linejoin="miter" stroke-width="0.78196" vectornator:layerName="path"/>
<path d="M245.75 47.1825C245.75 47.1825 230.334 38.8204 228.634 37.2075C226.945 35.5936 222.658 31.1918 222.658 31.1918L184.229 29.7951L175.016 32.024L175.297 24.8511L184.336 23.4067L227.191 25.6138L254.127 44.2736C254.127 44.2736 245.75 47.1825 245.75 47.1825Z" fill="#012158" fill-rule="evenodd" opacity="1" stroke="none" vectornator:layerName="path"/>
<path d="M257.746 45.5408L280.724 40.8193L324.855 66.2228C324.855 66.2228 310.46 68.4266 309.216 68.5552C307.962 68.6847 293.781 67.6238 293.781 67.6238C293.781 67.6238 257.746 45.5408 257.746 45.5408Z" fill="#ececec" fill-rule="evenodd" opacity="1" stroke="none" vectornator:layerName="path"/>
<path d="M18.7427 149.032C18.7427 149.032 166.081 145.794 183.809 144.474C201.537 143.154 337.336 135.409 356.476 132.922C375.617 130.434 408.156 123.625 408.156 123.625C408.156 123.625 353.081 153.81 329.896 156.715C306.72 159.619 270.034 160.342 267.01 160.655C263.977 160.968 50.4207 164.136 50.4207 164.136C50.4207 164.136 42.5082 156.787 36.6442 154.337C30.7792 151.876 19.3527 149.991 18.7427 149.032Z" fill="#3c3c3e" fill-rule="evenodd" opacity="1" stroke="none" vectornator:layerName="path"/>
<path d="M6.99207 124.215C6.99207 124.215 29.4716 125.038 35.0233 124.464C40.5848 123.89 255.258 106.231 255.258 106.231C255.258 106.231 342.654 102.315 356.904 101.855C371.145 101.407 427.931 97.5861 433.535 97.5183C439.139 97.4506 444.299 97.9396 444.299 97.9396L406.64 123.781C406.64 123.781 376.855 131.957 359.737 134.236C342.618 136.515 200.603 145.236 186.882 145.965C166.709 147.026 19.8061 149.433 19.8061 149.433L19.4416 145.903L11.3001 146.233C11.3001 146.233 6.99207 124.215 6.99207 124.215Z" fill="#9c9ca0" fill-rule="evenodd" opacity="1" stroke="none" vectornator:layerName="path"/>
<path d="M9.46319 138.247C9.46319 138.247 182.909 137.188 188.008 137.172C193.116 137.156 323.097 130.365 332.693 129.374C342.29 128.383 414.302 118.902 414.302 118.902" fill="none" opacity="1" stroke="#2e2e2e" stroke-linecap="butt" stroke-linejoin="miter" stroke-width="0.78196" vectornator:layerName="path"/>
<path d="M6.93986 123.709L5.51557 104.97C5.51557 104.97 205.8 91.9408 210.402 91.9765C214.995 92.0132 355.147 89.793 363.331 89.9698C371.515 90.1465 455.24 90.1769 455.24 90.1769L445.31 97.8352C445.31 97.8352 260.419 106.72 250.822 107.711C241.226 108.702 98.4213 119.873 92.4684 121.509C86.5156 123.146 39.6761 124.416 34.1244 124.99C28.563 125.564 6.99207 124.215 6.93986 123.709Z" fill="#1f1f21" fill-rule="evenodd" opacity="1" stroke="none" vectornator:layerName="path"/>
<path d="M5.0622 105.528L5.55124 100.367L35.7797 91.6346C35.7797 91.6346 38.5522 88.7934 40.3656 86.5623C42.1801 84.3408 56.1961 76.7616 63.2124 75.526C70.2383 74.2895 79.6269 71.2858 79.6269 71.2858L145.3 69.6035L162.07 68.8936L167.631 68.3193L175.049 66.0203C175.049 66.0203 225.382 68.9881 231.945 68.3104C238.508 67.6326 284.546 68.4989 284.546 68.4989C284.546 68.4989 311.677 69.264 313.595 68.044C315.513 66.8239 326.277 67.2452 326.277 67.2452L333.205 70.1066C333.205 70.1066 377.664 70.6152 382.876 71.6098C388.079 72.6054 440.904 79.9147 443.537 80.6648C446.159 81.4159 456.757 90.0202 456.757 90.0202C456.757 90.0202 219.545 91.5433 208.38 92.1854C197.215 92.8275 4.60883 106.085 5.0622 105.528Z" fill="#d1d1d4" fill-rule="evenodd" opacity="1" stroke="none" vectornator:layerName="path"/>
<path d="M92.4244 91.3957C92.4244 91.3957 221.474 80.6234 268.574 81.8811C315.666 83.1496 413.423 80.7088 410.197 84.1078C406.98 87.4961 395.309 88.1904 395.309 88.1904C395.309 88.1904 264.703 88.9237 249.398 88.9713C234.083 89.0199 88.4485 97.4271 88.4485 97.4271C88.4485 97.4271 92.4244 91.3957 92.4244 91.3957Z" fill="#b7b7bc" fill-rule="evenodd" opacity="1" stroke="none" vectornator:layerName="path"/>
<path d="M44.7304 94.2871C44.7304 94.2871 115.183 84.4564 126.401 84.3199C137.618 84.1834 234.156 79.8247 239.212 79.3026C244.258 78.7814 368.449 80.2534 368.449 80.2534C368.449 80.2534 239.394 76.2178 229.693 76.1977C219.993 76.1873 113.092 79.0516 104.001 79.9904C94.9105 80.9293 58.6517 85.6958 54.2581 87.6824C49.8742 89.6681 44.7304 94.2871 44.7304 94.2871Z" fill="#b7b7bc" fill-rule="evenodd" opacity="1" stroke="#b8b8b8" stroke-linecap="butt" stroke-linejoin="miter" stroke-width="0.78196" vectornator:layerName="path"/>
<path d="M163.492 69.5329C163.492 69.5329 231.716 71.331 234.611 71.3859C237.497 71.4514 284.431 71.4784 286.93 71.2203C289.428 70.9622 313.642 69.5426 315.587 69.1648C317.543 68.7859 324.587 67.1544 324.587 67.1544" fill="none" opacity="1" stroke="#757575" stroke-linecap="butt" stroke-linejoin="miter" stroke-width="1.46618" vectornator:layerName="path"/>
<path d="M161.491 69.376L254.85 45.4763" fill="none" opacity="1" stroke="#0e0e0e" stroke-linecap="butt" stroke-linejoin="miter" stroke-width="0.78196" vectornator:layerName="path"/>
<path d="M285.584 68.657L250.36 47.3845L256.87 45.8082L294.39 68.2881C294.39 68.2881 285.584 68.657 285.584 68.657Z" fill="#b7b7b7" fill-rule="evenodd" opacity="1" stroke="none" vectornator:layerName="path"/>
<path d="M285.399 68.6761L250.728 47.5233" fill="#909090" fill-rule="evenodd" opacity="1" stroke="#e9e9e9" stroke-linecap="butt" stroke-linejoin="miter" stroke-width="0.78196" vectornator:layerName="path"/>
<path d="M293.993 67.9655L256.87 45.8082" fill="none" opacity="1" stroke="#404040" stroke-linecap="butt" stroke-linejoin="miter" stroke-width="1.66167" vectornator:layerName="path"/>
<path d="M325.822 66.8402C324.855 66.2228 280.917 40.9762 280.917 40.9762" fill="none" opacity="1" stroke="#404040" stroke-linecap="butt" stroke-linejoin="miter" stroke-width="1.66167" vectornator:layerName="path"/>
<path d="M251.347 44.7572L158.853 68.3808" fill="none" opacity="1" stroke="#404040" stroke-linecap="butt" stroke-linejoin="miter" stroke-width="1.66167" vectornator:layerName="path"/>
<path d="M199.794 55.8592L182.458 26.0573" fill="none" opacity="1" stroke="#aeaeae" stroke-linecap="butt" stroke-linejoin="miter" stroke-width="0.78196" vectornator:layerName="path"/>
<path d="M201.158 53.3697L184.109 26.2504" fill="none" opacity="1" stroke="#404040" stroke-linecap="butt" stroke-linejoin="miter" stroke-width="1.69519" vectornator:layerName="path"/>
<path d="M200.633 55.232L226.608 27.099" fill="none" opacity="1" stroke="#c7c7c7" stroke-linecap="butt" stroke-linejoin="miter" stroke-width="0.997195" vectornator:layerName="path"/>
<path d="M203.907 55.4344L221.554 34.1161" fill="none" opacity="1" stroke="#404040" stroke-linecap="butt" stroke-linejoin="miter" stroke-width="1.66167" vectornator:layerName="path"/>
<path d="M157.305 69.0909C157.212 68.1964 164.524 48.1322 164.524 48.1322L147.733 68.9887L157.305 69.0909Z" fill="#d4d4d4" fill-rule="evenodd" opacity="1" stroke="none" vectornator:layerName="path"/>
<path d="M146.701 69.4589L178.411 27.0255" fill="none" opacity="1" stroke="#404040" stroke-linecap="butt" stroke-linejoin="miter" stroke-width="1.66167" vectornator:layerName="path"/>
<path d="M155.82 56.4305L172.619 21.659" fill="none" opacity="1" stroke="#404040" stroke-linecap="butt" stroke-linejoin="miter" stroke-width="1.66167" vectornator:layerName="path"/>
<path d="M168.627 12.687C168.627 12.687 171.743 27.1638 175.137 26.8134C178.53 26.463 185.225 24.8773 185.225 24.8773C185.225 24.8773 203.132 26.998 205.99 26.7028C208.849 26.4076 227.298 26.8409 227.298 26.8409C227.298 26.8409 236.243 34.761 238.17 36.0065C240.106 37.251 253.974 45.7437 253.974 45.7437L282.01 40.2345L243.205 11.3036C243.205 11.3036 204.68 8.78677 200.504 8.50074C196.317 8.20598 172.583 3.79818 172.583 3.79818L167.946 11.3227C167.946 11.3227 168.627 12.687 168.627 12.687Z" fill="#021bbb" fill-rule="evenodd" opacity="1" stroke="none" vectornator:layerName="path"/>
<path d="M187.198 21.2441L228.295 18.9849C228.295 18.9849 236.906 15.0199 240.54 16.9932C244.173 18.9665 245.491 22.9772 249.106 26.5835C252.73 30.1792 269.429 34.5865 266.653 37.3985C263.878 40.2105 266.432 45.7247 257.571 42.1295C248.719 38.5332 240.429 26.3889 229.494 25.3564C218.558 24.3239 203.998 24.9235 192.389 24.3143C180.771 23.7062 187.714 21.0041 187.198 21.2441Z" fill="#01148c" fill-rule="evenodd" opacity="1" stroke="none" vectornator:layerName="path"/>
<path d="M183.131 23.8259L172.813 4.31486" fill="none" opacity="1" stroke="#3f64fe" stroke-linecap="butt" stroke-linejoin="miter" stroke-width="1.9549" vectornator:layerName="path"/>
<path d="M31.9024 151.525C31.9024 151.525 162.763 149.92 167.844 150.113C172.915 150.316 278.226 145.936 280.724 145.678C283.223 145.42 295.404 144.525 295.404 144.525" fill="none" opacity="1" stroke="#cacaca" stroke-linecap="butt" stroke-linejoin="miter" stroke-width="1.75941" vectornator:layerName="path"/>
<path d="M45.9631 158.366L171.468 157.324C171.468 157.324 236.704 156.356 244.597 155.904C252.49 155.452 310.571 151.616 310.571 151.616" fill="none" opacity="1" stroke="#cacaca" stroke-linecap="butt" stroke-linejoin="miter" stroke-width="1.75941" vectornator:layerName="path"/>
<path d="M313.232 65.4775L275.063 41.8559L271.576 42.727L310.033 66.5742L313.232 65.4775Z" fill="#fefefe" fill-rule="evenodd" opacity="1" stroke="#ffffff" stroke-linecap="butt" stroke-linejoin="miter" stroke-width="0.78196" vectornator:layerName="path"/>
<path d="M249.48 51.1309C249.48 51.1309 264.485 60.5574 261.861 62.3613C259.247 64.1642 250.774 68.6161 247.454 66.1486C244.133 63.6812 249.723 51.1058 249.48 51.1309Z" fill="#ffffff" fill-rule="evenodd" opacity="1" stroke="#fdfdfd" stroke-linecap="butt" stroke-linejoin="miter" stroke-width="0.78196" vectornator:layerName="path"/>
<path d="M240.431 52.5763L202.097 64.4554C202.097 64.4554 209.714 66.4693 212.406 65.4247C215.109 64.3792 240.518 55.8887 240.518 55.8887L240.431 52.5763Z" fill="#ffffff" fill-rule="evenodd" opacity="1" stroke="#fdfdfd" stroke-linecap="butt" stroke-linejoin="miter" stroke-width="0.78196" vectornator:layerName="path"/>
<path d="M176.829 37.2021C176.829 37.2021 169.644 49.1758 169.477 52.5046C169.31 55.8431 169.884 61.3948 169.884 61.3948L170.741 52.3741C170.741 52.3741 176.829 37.2021 176.829 37.2021Z" fill="#fefcfc" fill-rule="evenodd" opacity="1" stroke="#ffffff" stroke-linecap="butt" stroke-linejoin="miter" stroke-width="0.78196" vectornator:layerName="path"/>
<path d="M190.883 54.6372C190.883 54.6372 185.039 37.6317 184.079 38.232C183.12 38.842 177.346 57.0572 179.142 57.1272C180.937 57.1973 190.377 54.6895 190.883 54.6372Z" fill="#d8d8d8" fill-rule="evenodd" opacity="1" stroke="none" vectornator:layerName="path"/>
<path d="M210.184 34.0129C210.184 34.0129 205.055 48.5748 203.077 46.7352C201.1 44.9053 200.082 35.0562 200.082 35.0562L210.184 34.0129Z" fill="#ffffff" fill-rule="evenodd" opacity="1" stroke="#fefefe" stroke-linecap="butt" stroke-linejoin="miter" stroke-width="0.78196" vectornator:layerName="path"/>
<path d="M226.883 39.9432L211.225 51.5145L229.758 40.6683L226.883 39.9432Z" fill="#ffffff" fill-rule="evenodd" opacity="1" stroke="#fefefe" stroke-linecap="butt" stroke-linejoin="miter" stroke-width="0.78196" vectornator:layerName="path"/>
</g>
</g>
</svg>
