<?xml version="1.0" encoding="UTF-8" standalone="no"?>
<!DOCTYPE svg PUBLIC "-//W3C//DTD SVG 1.1//EN" "http://www.w3.org/Graphics/SVG/1.1/DTD/svg11.dtd">
<!-- Created with Vectornator (http://vectornator.io/) -->
<svg height="100%" stroke-miterlimit="10" style="fill-rule:nonzero;clip-rule:evenodd;stroke-linecap:round;stroke-linejoin:round;" version="1.1" viewBox="0 0 480 480" width="100%" xml:space="preserve" xmlns="http://www.w3.org/2000/svg" xmlns:vectornator="http://vectornator.io" xmlns:xlink="http://www.w3.org/1999/xlink">
<defs/>
<g id="Untitled" vectornator:layerName="Untitled">
<path d="M261.793 34.9654L445.539 34.9654L445.539 430.726L261.793 430.726L261.793 34.9654Z" fill="#e3584b" fill-rule="nonzero" opacity="1" stroke="none" vectornator:layerName="path"/>
<path d="M261.793 162.174L445.539 162.174L445.539 176.309L261.793 176.309L261.793 162.174Z" fill="#cc4f43" fill-rule="nonzero" opacity="1" stroke="none" vectornator:layerName="path"/>
<path d="M290.062 77.3683L304.196 77.3683L304.196 148.04L290.062 148.04L290.062 77.3683Z" fill="#d6d9db" fill-rule="nonzero" opacity="1" stroke="none" vectornator:layerName="path"/>
<path d="M290.062 190.443L304.196 190.443L304.196 289.383L290.062 289.383L290.062 190.443Z" fill="#d6d9db" fill-rule="nonzero" opacity="1" stroke="none" vectornator:layerName="path"/>
<path d="M268.86 430.726L282.995 430.726L282.995 451.928L268.86 451.928L268.86 430.726Z" fill="#0a4a7a" fill-rule="nonzero" opacity="1" stroke="none" vectornator:layerName="path"/>
<path d="M424.338 430.726L438.472 430.726L438.472 451.928L424.338 451.928L424.338 430.726Z" fill="#0a4a7a" fill-rule="nonzero" opacity="1" stroke="none" vectornator:layerName="path"/>
<path d="M35.6442 183.376L233.525 183.376L233.525 430.726L35.6442 430.726L35.6442 183.376Z" fill="#4398d1" fill-rule="nonzero" opacity="1" stroke="none" vectornator:layerName="path"/>
<g opacity="1" vectornator:layerName="g">
<path d="M35.6442 232.846L233.525 232.846L233.525 246.98L35.6442 246.98L35.6442 232.846Z" fill="#2d81ba" fill-rule="nonzero" opacity="1" stroke="none" vectornator:layerName="path"/>
<path d="M56.8456 204.577L70.98 204.577L70.98 218.711L56.8456 218.711L56.8456 204.577Z" fill="#2d81ba" fill-rule="nonzero" opacity="1" stroke="none" vectornator:layerName="path"/>
<path d="M85.1143 204.577L99.2486 204.577L99.2486 218.711L85.1143 218.711L85.1143 204.577Z" fill="#2d81ba" fill-rule="nonzero" opacity="1" stroke="none" vectornator:layerName="path"/>
<path d="M113.383 204.577L127.517 204.577L127.517 218.711L113.383 218.711L113.383 204.577Z" fill="#2d81ba" fill-rule="nonzero" opacity="1" stroke="none" vectornator:layerName="path"/>
<path d="M169.92 204.577L212.323 204.577L212.323 218.711L169.92 218.711L169.92 204.577Z" fill="#2d81ba" fill-rule="nonzero" opacity="1" stroke="none" vectornator:layerName="path"/>
</g>
<path d="M35.6442 34.9654L233.525 34.9654L233.525 155.107L35.6442 155.107L35.6442 34.9654Z" fill="#ffa217" fill-rule="nonzero" opacity="1" stroke="none" vectornator:layerName="path"/>
<path d="M63.9128 63.234L148.719 63.234L148.719 126.838L63.9128 126.838L63.9128 63.234Z" fill="#87ced9" fill-rule="nonzero" opacity="1" stroke="none" vectornator:layerName="path"/>
<path d="M42.7113 430.726L56.8456 430.726L56.8456 451.928L42.7113 451.928L42.7113 430.726Z" fill="#0a4a7a" fill-rule="nonzero" opacity="1" stroke="none" vectornator:layerName="path"/>
<path d="M212.323 430.726L226.457 430.726L226.457 451.928L212.323 451.928L212.323 430.726Z" fill="#0a4a7a" fill-rule="nonzero" opacity="1" stroke="none" vectornator:layerName="path"/>
<path d="M219.39 338.853C219.39 381.787 184.586 416.592 141.652 416.592C98.7172 416.592 63.9128 381.787 63.9128 338.853C63.9128 295.919 98.7172 261.114 141.652 261.114C184.586 261.114 219.39 295.919 219.39 338.853Z" fill="#3e8dc2" fill-rule="nonzero" opacity="1" stroke="none" vectornator:layerName="path"/>
<path d="M205.256 331.786C205.256 370.817 173.616 402.457 134.584 402.457C95.5528 402.457 63.9128 370.817 63.9128 331.786C63.9128 292.754 95.5528 261.114 134.584 261.114C173.616 261.114 205.256 292.754 205.256 331.786Z" fill="#d6d9db" fill-rule="nonzero" opacity="1" stroke="none" vectornator:layerName="path"/>
<path d="M184.054 331.786C184.054 359.109 161.907 381.256 134.584 381.256C107.261 381.256 85.1143 359.109 85.1143 331.786C85.1143 304.463 107.261 282.316 134.584 282.316C161.907 282.316 184.054 304.463 184.054 331.786Z" fill="#71c4d1" fill-rule="nonzero" opacity="1" stroke="none" vectornator:layerName="path"/>
<path d="M169.92 331.786C169.92 351.3 154.098 367.122 134.584 367.122C115.07 367.122 99.2486 351.3 99.2486 331.786C99.2486 312.272 115.07 296.45 134.584 296.45C154.098 296.45 169.92 312.272 169.92 331.786Z" fill="#87ced9" fill-rule="nonzero" opacity="1" stroke="none" vectornator:layerName="path"/>
<path d="M184.555 281.815L155.786 310.584L155.786 352.987L184.555 381.756C212.154 354.161 212.154 309.411 184.555 281.815Z" fill="#d6d9db" fill-rule="nonzero" opacity="1" stroke="none" vectornator:layerName="path"/>
<path d="M63.9128 63.234L148.719 63.234L148.719 77.3683L63.9128 77.3683L63.9128 63.234Z" fill="#71c4d1" fill-rule="nonzero" opacity="1" stroke="none" vectornator:layerName="path"/>
<path d="M198.189 56.1669L212.323 56.1669L212.323 70.3012L198.189 70.3012L198.189 56.1669Z" fill="#eb8b23" fill-rule="nonzero" opacity="1" stroke="none" vectornator:layerName="path"/>
<path d="M198.189 84.4355L212.323 84.4355L212.323 98.5698L198.189 98.5698L198.189 84.4355Z" fill="#eb8b23" fill-rule="nonzero" opacity="1" stroke="none" vectornator:layerName="path"/>
<path d="M205.256 116.238C199.4 116.238 194.655 120.982 194.655 126.838C194.655 132.694 199.4 137.439 205.256 137.439C211.112 137.439 215.857 132.694 215.857 126.838C215.857 120.982 211.112 116.238 205.256 116.238Z" fill="#eb8b23" fill-rule="nonzero" opacity="1" stroke="none" vectornator:layerName="path"/>
<path d="M169.92 34.9654L184.054 34.9654L184.054 155.107L169.92 155.107L169.92 34.9654Z" fill="#eb8b23" fill-rule="nonzero" opacity="1" stroke="none" vectornator:layerName="path"/>
<path d="M304.196 77.3683L304.196 148.04L290.062 148.04L290.062 162.174L318.33 162.174L318.33 77.3683L304.196 77.3683Z" fill="#cf4e42" fill-rule="nonzero" opacity="1" stroke="none" vectornator:layerName="path"/>
<path d="M304.196 190.443L304.196 289.383L290.062 289.383L290.062 303.517L318.33 303.517L318.33 190.443L304.196 190.443Z" fill="#cf4e42" fill-rule="nonzero" opacity="1" stroke="none" vectornator:layerName="path"/>
<path d="M445.539 27.8983L261.793 27.8983C257.89 27.8983 254.726 31.0626 254.726 34.9654L254.726 430.726C254.726 434.629 257.89 437.793 261.793 437.793L268.86 437.793L268.86 451.928L282.995 451.928L282.995 437.793L424.338 437.793L424.338 451.928L438.472 451.928L438.472 437.793L445.539 437.793C449.442 437.793 452.606 434.629 452.606 430.726L452.606 34.9654C452.606 31.0626 449.442 27.8983 445.539 27.8983ZM438.472 423.659L268.86 423.659L268.86 176.309L438.472 176.309L438.472 423.659ZM438.472 162.174L268.86 162.174L268.86 42.0326L438.472 42.0326L438.472 162.174Z" fill="#000000" fill-rule="nonzero" opacity="1" stroke="none" vectornator:layerName="path"/>
<path d="M290.062 77.3683L304.196 77.3683L304.196 148.04L290.062 148.04L290.062 77.3683Z" fill="#000000" fill-rule="nonzero" opacity="1" stroke="none" vectornator:layerName="path"/>
<path d="M290.062 190.443L304.196 190.443L304.196 289.383L290.062 289.383L290.062 190.443Z" fill="#000000" fill-rule="nonzero" opacity="1" stroke="none" vectornator:layerName="path"/>
<path d="M35.6442 437.793L42.7113 437.793L42.7113 451.928L56.8456 451.928L56.8456 437.793L212.323 437.793L212.323 451.928L226.457 451.928L226.457 437.793L233.525 437.793C237.427 437.793 240.592 434.629 240.592 430.726L240.592 183.376C240.592 179.473 237.427 176.309 233.525 176.309L35.6442 176.309C31.7414 176.309 28.577 179.473 28.577 183.376L28.577 430.726C28.577 434.629 31.7414 437.793 35.6442 437.793ZM42.7113 190.443L226.457 190.443L226.457 232.846L42.7113 232.846L42.7113 190.443ZM42.7113 246.98L226.457 246.98L226.457 423.659L42.7113 423.659L42.7113 246.98Z" fill="#000000" fill-rule="nonzero" opacity="1" stroke="none" vectornator:layerName="path"/>
<path d="M134.584 254.047C91.65 254.047 56.8456 288.852 56.8456 331.786C56.8456 374.72 91.65 409.525 134.584 409.525C177.519 409.525 212.323 374.72 212.323 331.786C212.271 288.872 177.498 254.099 134.584 254.047ZM134.584 395.39C106.65 395.435 81.9534 377.25 73.7095 350.558C65.4656 323.87 75.6005 294.921 98.693 279.203C121.785 263.488 152.432 264.679 174.237 282.14L164.195 292.209C143.788 276.729 114.946 279.345 97.6543 298.248C80.366 317.148 80.3212 346.107 97.5543 365.058C114.787 384.013 143.618 386.715 164.075 371.297L174.237 381.46C162.994 390.49 149.005 395.404 134.584 395.39ZM150.789 357.984L153.991 361.186C139.236 370.99 119.501 368.357 107.838 355.023C96.1705 341.69 96.1843 321.779 107.865 308.459C119.546 295.139 139.284 292.527 154.026 302.351L150.789 305.588C149.464 306.913 148.719 308.711 148.719 310.584L148.719 352.987C148.719 354.861 149.464 356.659 150.789 357.984ZM184.23 371.411L162.853 350.061L162.853 313.511L184.23 292.133C202.84 315.291 202.84 348.281 184.23 371.439L184.23 371.411Z" fill="#000000" fill-rule="nonzero" opacity="1" stroke="none" vectornator:layerName="path"/>
<path d="M56.8456 204.577L70.98 204.577L70.98 218.711L56.8456 218.711L56.8456 204.577Z" fill="#000000" fill-rule="nonzero" opacity="1" stroke="none" vectornator:layerName="path"/>
<path d="M85.1143 204.577L99.2486 204.577L99.2486 218.711L85.1143 218.711L85.1143 204.577Z" fill="#000000" fill-rule="nonzero" opacity="1" stroke="none" vectornator:layerName="path"/>
<path d="M113.383 204.577L127.517 204.577L127.517 218.711L113.383 218.711L113.383 204.577Z" fill="#000000" fill-rule="nonzero" opacity="1" stroke="none" vectornator:layerName="path"/>
<path d="M169.92 204.577L212.323 204.577L212.323 218.711L169.92 218.711L169.92 204.577Z" fill="#000000" fill-rule="nonzero" opacity="1" stroke="none" vectornator:layerName="path"/>
<path d="M35.6442 162.174L233.525 162.174C237.427 162.174 240.592 159.01 240.592 155.107L240.592 34.9654C240.592 31.0626 237.427 27.8983 233.525 27.8983L35.6442 27.8983C31.7414 27.8983 28.577 31.0626 28.577 34.9654L28.577 155.107C28.577 159.01 31.7414 162.174 35.6442 162.174ZM184.054 42.0326L226.457 42.0326L226.457 148.04L184.054 148.04L184.054 42.0326ZM42.7113 42.0326L169.92 42.0326L169.92 148.04L42.7113 148.04L42.7113 42.0326Z" fill="#000000" fill-rule="nonzero" opacity="1" stroke="none" vectornator:layerName="path"/>
<path d="M198.189 56.1669L212.323 56.1669L212.323 70.3012L198.189 70.3012L198.189 56.1669Z" fill="#000000" fill-rule="nonzero" opacity="1" stroke="none" vectornator:layerName="path"/>
<path d="M198.189 84.4355L212.323 84.4355L212.323 98.5698L198.189 98.5698L198.189 84.4355Z" fill="#000000" fill-rule="nonzero" opacity="1" stroke="none" vectornator:layerName="path"/>
<path d="M148.719 56.1669L63.9128 56.1669C60.01 56.1669 56.8456 59.3312 56.8456 63.234L56.8456 126.838C56.8456 130.741 60.01 133.906 63.9128 133.906L148.719 133.906C152.621 133.906 155.786 130.741 155.786 126.838L155.786 63.234C155.786 59.3312 152.621 56.1669 148.719 56.1669ZM141.652 119.771L70.98 119.771L70.98 70.3012L141.652 70.3012L141.652 119.771Z" fill="#000000" fill-rule="nonzero" opacity="1" stroke="none" vectornator:layerName="path"/>
<path d="M205.256 116.238C199.4 116.238 194.655 120.982 194.655 126.838C194.655 132.694 199.4 137.439 205.256 137.439C211.112 137.439 215.857 132.694 215.857 126.838C215.857 120.982 211.112 116.238 205.256 116.238ZM205.256 130.372C203.303 130.372 201.722 128.792 201.722 126.838C201.722 124.885 203.303 123.305 205.256 123.305C207.209 123.305 208.789 124.885 208.789 126.838C208.789 128.792 207.209 130.372 205.256 130.372Z" fill="#000000" fill-rule="nonzero" opacity="1" stroke="none" vectornator:layerName="path"/>
</g>
</svg>
