<?xml version="1.0" encoding="UTF-8" standalone="no"?>
<!DOCTYPE svg PUBLIC "-//W3C//DTD SVG 1.1//EN" "http://www.w3.org/Graphics/SVG/1.1/DTD/svg11.dtd">
<!-- Created with Vectornator (http://vectornator.io/) -->
<svg height="100%" stroke-miterlimit="10" style="fill-rule:nonzero;clip-rule:evenodd;stroke-linecap:round;stroke-linejoin:round;" version="1.1" viewBox="0 0 24 24" width="100%" xml:space="preserve" xmlns="http://www.w3.org/2000/svg" xmlns:vectornator="http://vectornator.io" xmlns:xlink="http://www.w3.org/1999/xlink">
<defs/>
<g id="Untitled" vectornator:layerName="Untitled">
<g opacity="1" vectornator:layerName="g">
<path d="M9.14717 11.2148L2.89892 11.2148C1.7534 11.2148 0.816164 10.2766 0.816164 9.13003L0.816164 2.87575C0.816164 1.72913 1.7534 0.790992 2.89892 0.790992L9.14717 0.790992C10.2927 0.790992 11.2299 1.72913 11.2299 2.87575L11.2299 9.13003C11.2299 10.2766 10.2927 11.2148 9.14717 11.2148ZM2.89892 2.87575L2.89892 9.13003L9.14717 9.13003L9.14717 2.87575L2.89892 2.87575Z" fill="#ffffff" fill-rule="nonzero" opacity="1" stroke="none" vectornator:layerName="path"/>
<path d="M8.71322 10.5611L3.22567 10.5611C2.21962 10.5611 1.39648 9.73711 1.39648 8.72999L1.39648 3.23657C1.39648 2.22945 2.21962 1.40544 3.22567 1.40544L8.71322 1.40544C9.71927 1.40544 10.5424 2.22945 10.5424 3.23657L10.5424 8.72999C10.5424 9.73711 9.71927 10.5611 8.71322 10.5611ZM3.22567 3.23657L3.22567 8.72999L8.71322 8.72999L8.71322 3.23657L3.22567 3.23657Z" fill="#ffffff" fill-rule="nonzero" opacity="1" stroke="none" vectornator:layerName="path"/>
<path d="M9 11L3 11C1.9 11 1 10.1 1 9L1 3C1 1.9 1.9 1 3 1L9 1C10.1 1 11 1.9 11 3L11 9C11 10.1 10.1 11 9 11ZM3 3L3 9L9 9L9 3L3 3Z" fill="#5c4db1" fill-rule="nonzero" opacity="1" stroke="none" vectornator:layerName="path"/>
<path d="M8.71322 22.5611L3.22567 22.5611C2.21962 22.5611 1.39648 21.7371 1.39648 20.73L1.39648 15.2366C1.39648 14.2294 2.21962 13.4054 3.22567 13.4054L8.71322 13.4054C9.71927 13.4054 10.5424 14.2294 10.5424 15.2366L10.5424 20.73C10.5424 21.7371 9.71927 22.5611 8.71322 22.5611ZM3.22567 15.2366L3.22567 20.73L8.71322 20.73L8.71322 15.2366L3.22567 15.2366Z" fill="#ffffff" fill-rule="nonzero" opacity="1" stroke="none" vectornator:layerName="path"/>
<path d="M9.14717 23.2148L2.89892 23.2148C1.7534 23.2148 0.816164 22.2766 0.816164 21.13L0.816164 14.8758C0.816164 13.7291 1.7534 12.791 2.89892 12.791L9.14717 12.791C10.2927 12.791 11.2299 13.7291 11.2299 14.8758L11.2299 21.13C11.2299 22.2766 10.2927 23.2148 9.14717 23.2148ZM2.89892 14.8758L2.89892 21.13L9.14717 21.13L9.14717 14.8758L2.89892 14.8758Z" fill="#ffffff" fill-rule="nonzero" opacity="1" stroke="none" vectornator:layerName="path"/>
<path d="M9 23L3 23C1.9 23 1 22.1 1 21L1 15C1 13.9 1.9 13 3 13L9 13C10.1 13 11 13.9 11 15L11 21C11 22.1 10.1 23 9 23ZM3 15L3 21L9 21L9 15L3 15Z" fill="#5c4db1" fill-rule="nonzero" opacity="1" stroke="none" vectornator:layerName="path"/>
<path d="M20.7132 10.5611L15.2257 10.5611C14.2196 10.5611 13.3965 9.73711 13.3965 8.72999L13.3965 3.23657C13.3965 2.22945 14.2196 1.40544 15.2257 1.40544L20.7132 1.40544C21.7193 1.40544 22.5424 2.22945 22.5424 3.23657L22.5424 8.72999C22.5424 9.73711 21.7193 10.5611 20.7132 10.5611ZM15.2257 3.23657L15.2257 8.72999L20.7132 8.72999L20.7132 3.23657L15.2257 3.23657Z" fill="#ffffff" fill-rule="nonzero" opacity="1" stroke="none" vectornator:layerName="path"/>
<path d="M21.1262 11.2148L14.8149 11.2148C13.6578 11.2148 12.7111 10.2742 12.7111 9.12463L12.7111 2.85416C12.7111 1.70457 13.6578 0.763997 14.8149 0.763997L21.1262 0.763997C22.2832 0.763997 23.2299 1.70457 23.2299 2.85416L23.2299 9.12463C23.2299 10.2742 22.2832 11.2148 21.1262 11.2148ZM14.8149 2.85416L14.8149 9.12463L21.1262 9.12463L21.1262 2.85416L14.8149 2.85416Z" fill="#ffffff" fill-rule="nonzero" opacity="1" stroke="none" vectornator:layerName="path"/>
<path d="M21 11L15 11C13.9 11 13 10.1 13 9L13 3C13 1.9 13.9 1 15 1L21 1C22.1 1 23 1.9 23 3L23 9C23 10.1 22.1 11 21 11ZM15 3L15 9L21 9L21 3L15 3Z" fill="#5c4db1" fill-rule="nonzero" opacity="1" stroke="none" vectornator:layerName="path"/>
<path d="M22.2218 23.2563L13.7949 23.2563C13.1629 23.2563 12.7416 22.7585 12.7416 22.0119C12.7416 21.2652 13.1629 20.7675 13.7949 20.7675L22.2218 20.7675C22.8538 20.7675 23.2752 21.2652 23.2752 22.0119C23.2752 22.7585 22.8538 23.2563 22.2218 23.2563Z" fill="#ffffff" fill-rule="nonzero" opacity="1" stroke="none" vectornator:layerName="path"/>
<path d="M22.1976 15.2399L13.8001 15.2399C13.1703 15.2399 12.7505 14.7427 12.7505 13.9969C12.7505 13.251 13.1703 12.7538 13.8001 12.7538L22.1976 12.7538C22.8274 12.7538 23.2472 13.251 23.2472 13.9969C23.2472 14.7427 22.8274 15.2399 22.1976 15.2399Z" fill="#ffffff" fill-rule="nonzero" opacity="1" stroke="none" vectornator:layerName="path"/>
<path d="M22.1673 19.2368L17.8263 19.2368C17.1752 19.2368 16.7411 18.7451 16.7411 18.0074C16.7411 17.2698 17.1752 16.7781 17.8263 16.7781L22.1673 16.7781C22.8184 16.7781 23.2525 17.2698 23.2525 18.0074C23.2525 18.7451 22.8184 19.2368 22.1673 19.2368Z" fill="#ffffff" fill-rule="nonzero" opacity="1" stroke="none" vectornator:layerName="path"/>
<path d="M22 15L14 15C13.4 15 13 14.6 13 14C13 13.4 13.4 13 14 13L22 13C22.6 13 23 13.4 23 14C23 14.6 22.6 15 22 15Z" fill="#5c4db1" fill-rule="nonzero" opacity="1" stroke="none" vectornator:layerName="path"/>
<path d="M22 19L18 19C17.4 19 17 18.6 17 18C17 17.4 17.4 17 18 17L22 17C22.6 17 23 17.4 23 18C23 18.6 22.6 19 22 19Z" fill="#5c4db1" fill-rule="nonzero" opacity="1" stroke="none" vectornator:layerName="path"/>
<path d="M22 23L14 23C13.4 23 13 22.6 13 22C13 21.4 13.4 21 14 21L22 21C22.6 21 23 21.4 23 22C23 22.6 22.6 23 22 23Z" fill="#5c4db1" fill-rule="nonzero" opacity="1" stroke="none" vectornator:layerName="path"/>
</g>
</g>
</svg>
