<svg id="Layer_5" enable-background="new 0 0 62 62" height="512" viewBox="0 0 62 62" width="512" xmlns="http://www.w3.org/2000/svg"><g><g><g><path d="m9.06 45.08c2.33.35 4.28 1.86 5.26 3.92h30.2c.91-2.57 2.95-4.61 5.53-5.5.92-.32 1.92-.5 2.95-.5 3.53 0 6.53 2.04 8 5v1l-9-1-2 4 2 4 9-1v1c-1.47 2.96-4.47 5-8 5-3.92 0-7.24-2.51-8.48-6h-30.2c-1.13 2.36-3.53 4-6.32 4-3.87 0-7-3.13-7-7s3.13-7 7-7c.36 0 .71.03 1.06.08zm1.94 6.92c0-1.66-1.34-3-3-3s-3 1.34-3 3 1.34 3 3 3 3-1.34 3-3z" fill="#fcd770"/></g><g><path d="m44 30c0-8.28-6.72-15-15-15s-15 6.72-15 15 6.72 15 15 15 15-6.72 15-15zm-15-25 25 25c0 4.97-1.45 9.6-3.95 13.5-2.58.89-4.62 2.93-5.53 5.5h-30.2c-.98-2.06-2.93-3.57-5.26-3.92-3.18-4.19-5.06-9.42-5.06-15.08 0-13.81 11.19-25 25-25z" fill="#969faa"/></g><g><path d="m55.63 15.37c1.52 3.22 2.37 6.83 2.37 10.63 0 .58-.13 1.14-.36 1.64l-26.28-26.28c.5-.23 1.06-.36 1.64-.36 3.8 0 7.41.85 10.63 2.37 1.33.62 2.6 1.36 3.79 2.21 1.16.82 2.26 1.74 3.26 2.74s1.92 2.1 2.74 3.26c.85 1.19 1.59 2.46 2.21 3.79z" fill="#ff826e"/></g><g><path d="m31.36 1.36 26.28 26.28c-.19.44-.47.85-.81 1.19-.73.72-1.73 1.17-2.83 1.17l-25-25c0-1.1.45-2.1 1.17-2.83.34-.34.75-.62 1.19-.81z" fill="#fc6e51"/></g><g><path d="m31.12 27.88c.54.54.88 1.29.88 2.12s-.34 1.58-.88 2.12-1.29.88-2.12.88-1.58-.34-2.12-.88-.88-1.29-.88-2.12.34-1.58.88-2.12 1.29-.88 2.12-.88 1.58.34 2.12.88z" fill="#aab2bd"/></g><g><path d="m29 15c8.28 0 15 6.72 15 15s-6.72 15-15 15-15-6.72-15-15 6.72-15 15-15zm11 15c0-6.08-4.92-11-11-11s-11 4.92-11 11 4.92 11 11 11 11-4.92 11-11z" fill="#ccd1d9"/></g></g><g><path d="m8 48c-2.206 0-4 1.794-4 4s1.794 4 4 4 4-1.794 4-4-1.794-4-4-4zm0 6c-1.103 0-2-.897-2-2s.897-2 2-2 2 .897 2 2-.897 2-2 2z"/><path d="m62 50.117v-2.352l-.104-.21c-1.703-3.427-5.112-5.555-8.896-5.555-.332 0-.655.041-.98.073 1.81-3.445 2.814-7.252 2.948-11.171 2.295-.452 4.032-2.477 4.032-4.902 0-14.336-11.663-26-26-26-2.422 0-4.445 1.733-4.901 4.023-13.921.477-25.099 11.943-25.099 25.977 0 5.047 1.423 9.863 4.125 14.05-4.001.438-7.125 3.835-7.125 7.95 0 4.411 3.589 8 8 8 2.85 0 5.5-1.551 6.92-4h28.924c1.579 3.617 5.173 6 9.156 6 3.784 0 7.193-2.128 8.896-5.555l.104-.21v-2.352l-9.417 1.046-1.465-2.929 1.465-2.929zm-52.341-5.923c-1.558-2.118-2.738-4.435-3.52-6.886.991-2.738 2.975-5.825 6.914-6.254.24 3.657 1.708 6.975 4.003 9.555-1.757 2.094-2.49 4.612-2.134 7.391h-.002c-1.138-1.964-3.072-3.333-5.261-3.806zm19.341-28.194c7.72 0 14 6.28 14 14s-6.28 14-14 14-14-6.28-14-14 6.28-14 14-14zm15.952 14.952c2.3-.196 4.268-1.104 5.864-2.723l2.17 2.17c-.061 3.711-.973 7.322-2.658 10.588-3.669 1.721-6.788 1.556-9.298-.474 2.267-2.589 3.705-5.909 3.922-9.561zm-28.003 17.048c-.356-2.273.151-4.28 1.523-5.981 2.593 2.274 5.92 3.717 9.578 3.933.062.714.199 1.396.401 2.048zm13.621 0c-.261-.638-.442-1.321-.52-2.053 3.653-.239 6.969-1.704 9.549-3.994 1.751 1.468 3.802 2.209 6.045 2.209.43 0 .869-.033 1.312-.088-1.328 1.014-2.422 2.341-3.113 3.926zm11.137-41.293 2.117-2.117c.693.352 1.367.736 2.02 1.152l-2.551 2.551 1.414 1.414 2.805-2.806c.598.455 1.174.937 1.726 1.446l-2.945 2.946 1.414 1.414 2.945-2.946c.508.552.99 1.128 1.446 1.726l-2.805 2.806 1.414 1.414 2.551-2.551c.415.653.8 1.327 1.152 2.021l-2.117 2.117 1.414 1.414 1.584-1.584c1.048 2.623 1.646 5.471 1.698 8.451l-23.565-23.564c2.981.052 5.83.65 8.453 1.698l-1.584 1.584zm-10.506-4.092 25.184 25.183c-.474.627-1.18 1.07-1.997 1.176l-24.363-24.363c.107-.816.549-1.522 1.176-1.996zm18.2 24.2c-1.219 1.233-2.712 1.946-4.454 2.133-.525-8.014-6.964-14.422-14.992-14.9-.288-3.264-2.074-5.905-5.153-7.673 1.235-.219 2.502-.343 3.794-.365zm-27.721-19.67c3.814 1.377 5.907 3.699 6.248 6.909-3.646.243-6.954 1.708-9.529 3.994-2.509-2.103-5.636-2.709-9.059-1.788 2.98-4.251 7.298-7.496 12.34-9.115zm-14.005 11.866c3.668-1.719 6.787-1.554 9.295.474-2.267 2.59-3.705 5.909-3.922 9.56-3.264.288-5.906 2.075-7.674 5.155-.241-1.374-.374-2.776-.374-4.2 0-3.959.97-7.694 2.675-10.989zm41.207 32.989 2.535 5.071 8.366-.929c-1.442 2.396-3.984 3.858-6.783 3.858-3.377 0-6.404-2.144-7.534-5.333l-.236-.667h-31.544l-.271.57c-.992 2.084-3.117 3.43-5.415 3.43-3.309 0-6-2.691-6-6s2.691-6 6-6c2.298 0 4.423 1.346 5.414 3.43l.272.57h31.544l.235-.667c1.131-3.189 4.158-5.333 7.535-5.333 2.799 0 5.341 1.462 6.783 3.858l-8.366-.929z"/><path d="m25 30c0 .74.215 1.424.567 2.019l-2.274 2.274 1.414 1.414 2.274-2.274c.595.352 1.279.567 2.019.567s1.424-.215 2.019-.567l2.272 2.272 1.414-1.414-2.272-2.273c.352-.594.567-1.278.567-2.018 0-.739-.215-1.424-.567-2.019l2.274-2.274-1.414-1.414-2.273 2.274c-.596-.351-1.28-.567-2.02-.567s-1.424.215-2.019.567l-2.276-2.275-1.414 1.414 2.276 2.275c-.352.595-.567 1.279-.567 2.019zm4-2c1.103 0 2 .897 2 2s-.897 2-2 2-2-.897-2-2 .897-2 2-2z"/><path d="m29 42c6.617 0 12-5.383 12-12s-5.383-12-12-12-12 5.383-12 12 5.383 12 12 12zm0-22c5.514 0 10 4.486 10 10s-4.486 10-10 10-10-4.486-10-10 4.486-10 10-10z"/></g></g></svg>