<svg id="Icons" height="512" viewBox="0 0 60 60" width="512" xmlns="http://www.w3.org/2000/svg"><path d="m24.415 59.47a.5.5 0 0 1 -.268-.922l.193-.122-1.646.949a.5.5 0 0 1 -.523-.852l6.863-4.472-8.3 4.791a.5.5 0 0 1 -.527-.849l11.165-7.458-12.34 7.124a.5.5 0 0 1 -.527-.848l11.9-7.936-12.5 7.216a.5.5 0 0 1 -.526-.85l11.351-7.519-11.38 6.578a.5.5 0 0 1 -.521-.853l7.389-4.764-6.939 4.005a.5.5 0 0 1 -.518-.855l3.705-2.353-3.187 1.838a.5.5 0 0 1 -.525-.85l7.878-5.186-7.354 4.245a.5.5 0 0 1 -.518-.854l1.819-1.16-1.3.751a.5.5 0 0 1 -.536-.843l8.685-6.064-7.65 4.416a.5.5 0 0 1 -.538-.841l5.6-3.949-3.666 2.116a.5.5 0 0 1 -.566-.822l4.5-3.655-2.3 1.324a.5.5 0 0 1 -.6-.792l1.492-1.434a.5.5 0 0 1 -.186-.929l2.886-1.668a.5.5 0 0 1 .6.792l-1.18 1.138 4.254-2.453a.5.5 0 0 1 .566.821l-4.5 3.655 7.75-4.476a.5.5 0 0 1 .538.84l-5.6 3.948 8.161-4.711a.5.5 0 0 1 .536.843l-8.685 6.065 10.834-6.255a.5.5 0 0 1 .518.855l-1.821 1.162 2.53-1.461a.5.5 0 0 1 .526.85l-7.872 5.182 8.816-5.09a.5.5 0 0 1 .519.855l-3.716 2.361 4.154-2.4a.5.5 0 0 1 .521.852l-7.376 4.757 7.843-4.528a.5.5 0 0 1 .527.849l-11.351 7.526 11.851-6.842a.5.5 0 0 1 .527.849l-11.9 7.935 12.16-7.026a.5.5 0 0 1 .527.848l-11.17 7.461 11.1-6.41a.5.5 0 0 1 .523.852l-6.862 4.471 6.465-3.732a.5.5 0 0 1 .517.854l-.419.267a.5.5 0 0 1 .444.883l-8.137 5.8 7.6-4.386a.5.5 0 0 1 .534.844l-3.71 2.56 3.176-1.833a.5.5 0 0 1 .54.84l-2.748 1.957 2.208-1.274a.5.5 0 0 1 .569.817l-3.327 2.765 2.546-1.47a.5.5 0 0 1 .6.791l-1.735 1.684a.5.5 0 0 1 .207.931l-2.934 1.7a.5.5 0 0 1 -.6-.791l1.474-1.43-4.143 2.385a.5.5 0 0 1 -.569-.817l3.328-2.767-6.208 3.584a.5.5 0 0 1 -.54-.839l2.747-1.957-4.844 2.8a.5.5 0 0 1 -.534-.843l3.711-2.561-5.9 3.405a.5.5 0 0 1 -.54-.839l8.137-5.8-11.498 6.634a.5.5 0 0 1 -.25.07z" fill="#3b7ac8"/><path d="m36.109 7.079a.5.5 0 0 1 -.431-.752l.285-.489-2.031 1.173a.5.5 0 0 1 -.628-.76l.896-1.034-3.1 1.792a.5.5 0 0 1 -.619-.771l1.931-2.107-4.991 2.877a.5.5 0 0 1 -.559-.826l.973-.764-2.753 1.589a.5.5 0 0 1 -.546-.835l.139-.1-.26.15a.5.5 0 0 1 -.6-.794l1.812-1.728a.477.477 0 0 1 -.475-.248.5.5 0 0 1 .183-.682l3.258-1.882a.5.5 0 0 1 .595.794l-1.661 1.586 4.459-2.575a.5.5 0 0 1 .546.835l-.137.1 1.021-.59a.5.5 0 0 1 .559.826l-.975.768 1.716-.99a.5.5 0 0 1 .619.77l-1.935 2.108 2.857-1.649a.5.5 0 0 1 .628.76l-.885 1.034 1.1-.636a.5.5 0 0 1 .681.685l-.285.488.05-.028a.5.5 0 1 1 .5.865l-1.684.973a.489.489 0 0 1 -.253.067z" fill="#774d40"/><path d="m23.3 19.478a.5.5 0 0 1 -.292-.906l7.885-5.678-10.869 6.274a.5.5 0 0 1 -.538-.841l8.574-6.044-8.78 5.069a.5.5 0 0 1 -.527-.849l4.05-2.7-3.523 2.028a.5.5 0 0 1 -.524-.851l.635-.416-.047.027a.5.5 0 0 1 -.531-.847l1.957-1.327-1.116.644a.5.5 0 0 1 -.535-.843l1.114-.775a.5.5 0 0 1 -.57-.814l2.469-2.161a.5.5 0 0 1 -.236-.933l3.866-2.235a.5.5 0 0 1 .579.808l-2.182 1.91 5.907-3.41a.5.5 0 0 1 .536.843l-1.118.776 2.722-1.57a.5.5 0 0 1 .53.847l-1.95 1.326 3.322-1.918a.5.5 0 0 1 .525.851l-.633.417 1.564-.9a.5.5 0 0 1 .527.849l-4.057 2.705 5.1-2.942a.5.5 0 0 1 .538.84l-8.572 6.043 9.9-5.717a.5.5 0 0 1 .542.838l-7.885 5.678 8.8-5.08a.5.5 0 0 1 .526.849l-1.928 1.283 2.072-1.2a.5.5 0 0 1 .553.83l-5.72 4.355 6.029-3.48a.5.5 0 0 1 .534.844l-.593.41.4-.232a.5.5 0 0 1 .554.83l-2.2 1.678 1.94-1.119a.5.5 0 0 1 .56.824l-.979.777.51-.293a.5.5 0 0 1 .615.774l-1.149 1.228.539-.31a.5.5 0 0 1 .5.865l-3.445 1.993a.5.5 0 0 1 -.615-.774l1.151-1.23-3.475 2a.5.5 0 0 1 -.561-.824l.979-.776-2.775 1.6a.5.5 0 0 1 -.554-.83l2.2-1.677-4.347 2.509a.5.5 0 0 1 -.534-.844l.591-.408-2.17 1.252a.5.5 0 0 1 -.553-.83l5.719-4.354-8.984 5.186a.5.5 0 0 1 -.527-.848l1.929-1.284-3.699 2.142a.493.493 0 0 1 -.25.068z" fill="#8f5c4a"/><path d="m31.339 38.447a.5.5 0 0 1 -.4-.8l1.11-1.451-2.673 1.543a.5.5 0 0 1 -.568-.818l.224-.186-.348.2a.5.5 0 0 1 -.576-.813l1.443-1.236-1.261.727a.5.5 0 0 1 -.653-.728l1.3-1.764-.655.377a.5.5 0 0 1 -.725-.587l.22-.681a.506.506 0 0 1 -.177-.179.5.5 0 0 1 .181-.684l.5-.292a.5.5 0 0 1 .727.587l-.1.32 1.591-.918a.5.5 0 0 1 .653.729l-1.295 1.764 3.865-2.232a.5.5 0 0 1 .575.813l-1.443 1.237.868-.5a.5.5 0 0 1 .568.818l-.39.322a.513.513 0 0 1 .448.165.5.5 0 0 1 .021.634l-1.129 1.475a.5.5 0 0 1 .4.91l-2.051 1.181a.489.489 0 0 1 -.25.067z" fill="#e7bda0"/><g fill="#f6d0b3"><path d="m39.316 17.488a.5.5 0 0 1 -.25-.932l1.656-.956a.5.5 0 0 1 .5.865l-1.656.956a.494.494 0 0 1 -.25.067z"/><path d="m23.437 17.158a.5.5 0 0 1 -.332-.875l1.736-1.534a.5.5 0 0 1 -.1-.909l3.287-1.9a.5.5 0 0 1 .581.808l-1.119.989 3.69-2.13a.5.5 0 0 1 .5.866l-7.995 4.616a.494.494 0 0 1 -.248.069z"/><path d="m29.719 32.374a.5.5 0 0 1 -.3-.9l4.058-3.106-5.741 3.315a.5.5 0 0 1 -.524-.851l.607-.4-1.183.683a.5.5 0 0 1 -.535-.843l6.862-4.772-7.808 4.507a.5.5 0 0 1 -.533-.845l7.565-5.212-8.2 4.738a.5.5 0 0 1 -.542-.838l7.03-5.064-7.416 4.281a.5.5 0 0 1 -.542-.838l7.14-5.135-7.183 4.146a.5.5 0 0 1 -.53-.846l3.227-2.177-2.878 1.661a.5.5 0 0 1 -.541-.839l5.692-4.079-6.836 3.94a.5.5 0 0 1 -.542-.838l5.674-4.076-6.228 3.6a.5.5 0 0 1 -.582-.806l.177-.159a.511.511 0 0 1 -.458-.18.5.5 0 0 1 .018-.65l1.133-1.264-.522.3a.5.5 0 0 1 -.636-.75l.507-.617a.5.5 0 0 1 -.086-.9l1.658-.956a.5.5 0 0 1 .636.75l-.194.236.871-.5a.5.5 0 0 1 .639.118.5.5 0 0 1 -.018.65l-1.136 1.26 1.188-.684a.5.5 0 0 1 .582.8l-.043.039 10.705-6.18a.5.5 0 0 1 .542.839l-5.673 4.074 6.936-4a.5.5 0 0 1 .541.839l-5.692 4.075 6.468-3.734a.5.5 0 0 1 .53.846l-3.229 2.178 3.438-1.984a.5.5 0 0 1 .542.838l-7.139 5.136 7.356-4.247a.5.5 0 0 1 .542.838l-7.027 5.063 10.475-6.048a.5.5 0 0 1 .533.844l-7.57 5.214 7.2-4.153a.5.5 0 0 1 .535.843l-6.866 4.779 6.035-3.484a.5.5 0 0 1 .524.85l-2.906 1.908a.5.5 0 0 1 .159.876l-4.056 3.105 2.932-1.693a.5.5 0 0 1 .564.822l-1.873 1.508a.5.5 0 0 1 .4.909l-5.445 3.143a.5.5 0 0 1 -.564-.822l1.814-1.46-4.006 2.313a.491.491 0 0 1 -.252.066z"/></g><path d="m21.33 50.286a.5.5 0 0 1 -.32-.885l2.984-2.482-4.108 2.371a.5.5 0 0 1 -.574-.814l3.566-3.015-4.328 2.5a.5.5 0 0 1 -.544-.837l.6-.434-.842.486a.5.5 0 0 1 -.561-.824l2.674-2.119-3.208 1.852a.5.5 0 0 1 -.559-.826l2.437-1.908-2.917 1.68a.5.5 0 0 1 -.58-.808l3.735-3.276-4.179 2.412a.5.5 0 0 1 -.548-.833l.919-.686-.653.376a.5.5 0 0 1 -.56-.824l1.551-1.233-.959.553a.5.5 0 0 1 -.611-.778l1.649-1.722a.522.522 0 0 1 -.478-.248.5.5 0 0 1 .183-.683l2.714-1.567a.5.5 0 0 1 .612.778l-1.534 1.6 3.775-2.18a.5.5 0 0 1 .561.824l-1.552 1.233 2.139-1.235a.5.5 0 0 1 .549.833l-.918.687 1.237-.714a.5.5 0 0 1 .58.809l-3.737 3.276 4.66-2.69a.5.5 0 0 1 .558.827l-2.437 1.908 2.975-1.717a.5.5 0 0 1 .561.824l-2.67 2.123 3.253-1.878a.5.5 0 0 1 .544.836l-.6.437.852-.491a.5.5 0 0 1 .573.814l-3.568 3.012 4.335-2.5a.5.5 0 0 1 .57.817l-2.985 2.484 3.632-2.1a.5.5 0 0 1 .579.81l-.852.744.219-.126a.5.5 0 0 1 .5.865l-4.662 2.691a.5.5 0 0 1 -.579-.809l.855-.745-4.258 2.458a.491.491 0 0 1 -.25.067z" fill="#fbdd4d"/><path d="m27.363 55.445a.5.5 0 0 1 -.461-.694l.667-1.58-2.329 1.345a.5.5 0 0 1 -.6-.789l.658-.649-1.027.593a.5.5 0 0 1 -.6-.793l1.213-1.164-1.632.941a.5.5 0 0 1 -.586-.8l1.467-1.332-1.912 1.1a.5.5 0 0 1 -.687-.189l-.5-.9a.5.5 0 0 1 -.432-.9l.375-.216a.5.5 0 0 1 .382-.05.5.5 0 0 1 .3.239l.5.893 5.51-3.181a.5.5 0 0 1 .586.8l-1.465 1.33 1.161-.67a.5.5 0 0 1 .6.793l-1.213 1.165.846-.488a.5.5 0 0 1 .6.789l-.658.648.232-.133a.5.5 0 0 1 .711.627l-.667 1.58.207-.12a.5.5 0 0 1 .5.866l-1.5.864a.5.5 0 0 1 -.246.075z" fill="#e1c53a"/><path d="m28.851 54.006a.5.5 0 0 1 -.345-.862l1.081-1.031-.659.38a.5.5 0 0 1 -.6-.794l1.011-.966-.6.348a.5.5 0 0 1 -.636-.749l1.576-1.932-1.256.725a.5.5 0 0 1 -.615-.774l1.651-1.766a.5.5 0 0 1 .183-.683l1.06-.612a.5.5 0 0 1 .615.774l-.479.513.707-.408a.5.5 0 0 1 .631.108.5.5 0 0 1 .006.641l-1.577 1.93 1.839-1.062a.5.5 0 0 1 .6.794l-1.012.968.682-.394a.5.5 0 0 1 .595.8l-1.078 1.028.3-.172a.5.5 0 1 1 .5.865l-3.931 2.263a.493.493 0 0 1 -.249.068z" fill="#c5ad2c"/><path d="m22.549 44.985a.5.5 0 0 1 -.339-.867l.441-.408-1.4.811a.5.5 0 0 1 -.619-.77l1.8-1.966-2.646 1.528a.5.5 0 0 1 -.627-.762l2.026-2.321-2.185 1.258a.5.5 0 0 1 -.586-.8l.513-.465a.508.508 0 0 1 -.566-.157.5.5 0 0 1 .024-.652l1.074-1.161a.488.488 0 0 1 -.234-.209.5.5 0 0 1 .182-.683l1.947-1.123a.5.5 0 0 1 .617.773l-.612.66 1.094-.631a.5.5 0 0 1 .586.8l-.485.44.729-.421a.5.5 0 0 1 .627.762l-2.026 2.321 2.845-1.642a.5.5 0 0 1 .619.769l-1.8 1.966 2.486-1.435a.5.5 0 0 1 .589.8l-.441.409a.5.5 0 0 1 .479.877l-3.861 2.232a.489.489 0 0 1 -.251.067z" fill="#e7bda0"/><path d="m31.552 59.47a.5.5 0 0 1 -.391-.812l.52-.651-1.816 1.048a.5.5 0 0 1 -.609-.781l1.83-1.888-2.463 1.422a.5.5 0 0 1 -.588-.8l1.391-1.272-1.144.661a.5.5 0 0 1 -.621-.768l.821-.908a.5.5 0 0 1 -.118-.915l2.05-1.184a.5.5 0 0 1 .621.768l-.5.55 2.365-1.365a.5.5 0 0 1 .588.8l-1.388 1.273 1.591-.919a.5.5 0 0 1 .61.781l-1.834 1.89 1.005-.58a.5.5 0 0 1 .64.745l-.7.872a.5.5 0 0 1 .186.928l-1.798 1.035a.49.49 0 0 1 -.248.07z" fill="#e7bda0"/><path d="m21.832 36.222c-6.792-2.587-11.932 5.858-5.556 10.256-.376 5.465-.345 13.522 7.234 12.897 5.485-.094 10.927.2 16.386-.1 5.42-.687 6.425-6.3 5.828-10.839.866-6.84-3.767-13.687-11-13.782.011-1.06 0-2.121 0-3.182a9.515 9.515 0 0 0 5.98-8.282c2.571-.457 3.352-2.958 3.027-5.259.386-4.389-.931-9.431-5.031-11.558-.829-7.773-14.248-7.249-15.362.079-4.11 2.184-5.427 7.2-5.069 11.614-.346 2.233.3 5.082 3.012 5.222a9.132 9.132 0 0 0 6 8.393v2.94a12.413 12.413 0 0 0 -5.242 1.638.432.432 0 0 0 -.207-.037zm-.738.778c1.85 1.278 3.27 3.124 4.913 4.656-2.319 6.599-10.08-1.164-4.913-4.656zm-5.324.878a3.8 3.8 0 0 1 4.683-1.191c-7.053 4.272 2.161 12.065 6.447 5.864q1.523 1.528 3.049 3.052a14.352 14.352 0 0 1 -8.84 3.853q-1.694-1.678-3.385-3.362c-2.458-1.931-4.195-5.394-1.954-8.215zm16.678 20.76c-5.456.364-4.645-6.667.817-5.317a16.578 16.578 0 0 1 -.817 5.317zm-5.123-10.187c.37 1.851.578 3.741.763 5.617a2.6 2.6 0 0 0 -.4.56c-2.406-.445-4.223-2.75-5.894-4.483a17.926 17.926 0 0 0 5.531-1.694zm4.159 4.241a6.1 6.1 0 0 0 -2.007.406 50.025 50.025 0 0 0 -.776-5.415 15.5 15.5 0 0 0 1.921-1.406 5.143 5.143 0 0 1 .862 6.415zm-10.97 5.126c-3.53-2.139-2.677-6.4-2.79-9.895 3.086 2.523 5.366 7.032 9.682 7.34a3.092 3.092 0 0 0 1.159 3.362c-2.696-.181-5.571.554-8.051-.807zm22.386-16.954c2.008 3.728 1.237 8.044 1.374 12.1.094 5.9-6 6.035-10.434 5.683a15.817 15.817 0 0 0 .877-5.33c2 .13 4.937-.016 5-2.627-.181-1.223.8-5.586-1.448-3.5-.149 3.43 1.121 6.236-3.657 5.485-.526-.366-1.235.148-1.861 0 3.748-6.553-6.412-11.4-9.888-15.9a9.7 9.7 0 0 1 4.437-1.316c.344 3.97 6.7 3.579 7.356 0a10.727 10.727 0 0 1 8.244 5.405zm-11.741-39.555a6.628 6.628 0 0 1 5.861 4.255 15.352 15.352 0 0 0 -6.03-1.023l.01-.031a16.338 16.338 0 0 0 -6.157 1.183 5.878 5.878 0 0 1 6.316-4.384zm-.412 4.185c6.047-.246 11.847 3.975 11.521 10.365a3.308 3.308 0 0 0 -2.929.507c-2.448-6.349-13.5-6.167-16.4-.129a3.031 3.031 0 0 0 -3.211-.131c-.522-6.372 4.872-10.874 11.019-10.612zm-8.023 17.312c-2.642-.062-3.163-2.613-3.01-4.817.036-2.481 2.35-1.74 2.562.2 2.456 1.133 1.074-6.32 9.129-5.847 7.451.527 5.97 7.994 8.319 5.459.047-2.231 2.615-1.412 2.552.388 0 1.465.276 4.491-1.969 4.491-.252 0-1.031.156-1.031.509-.154 11.454-16.476 10.721-16.552-.383zm8.476 9.494a10.6 10.6 0 0 0 2.079-.334c1.162 7.7-5.42 7.527-4.552.135a9.5 9.5 0 0 0 2.473.199z" fill="#262626"/></svg>