<svg height="512" viewBox="0 0 256 256" width="512" xmlns="http://www.w3.org/2000/svg"><g id="Layer_1"><g><g><path d="m68.68 35.64v180.68c0 5.52-4.48 10-10 10h-21.64c-5.52 0-10-4.48-10-10v-180.68c0-8.28 6.72-15 15-15h11.64c8.16 0 14.8 6.52 14.99 14.63.01.12.01.25.01.37z" fill="#efefef"/></g><g><path d="m68.67 35.27c.01.12.01.25.01.37v180.68c0 5.52-4.48 10-10 10h-16.88v-164.05c0-14.85 12.04-26.93 26.87-27z" fill="#afafaf"/></g><g><path d="m228.96 35.64v180.68c0 5.52-4.48 10-10 10h-21.64c-5.52 0-10-4.48-10-10v-180.68c0-.12 0-.25.01-.37.19-8.11 6.83-14.63 14.99-14.63h11.64c8.28 0 15 6.72 15 15z" fill="#efefef"/></g><g><path d="m214.2 62.27v164.05h-16.88c-5.52 0-10-4.48-10-10v-180.68c0-.12 0-.25.01-.37 14.83.07 26.87 12.15 26.87 27z" fill="#afafaf"/></g><g><path d="m187.2 246.89h-118.4c-11.046 0-20-8.954-20-20v-164.62c0-11.046 8.954-20 20-20h118.4c11.046 0 20 8.954 20 20v164.62c0 11.046-8.954 20-20 20z" fill="#71c1e8"/></g><g><circle cx="128" cy="131.097" fill="#4ba5c8" r="57.847"/></g><g><path d="m189.539 180.461c-3.729-1.228-6.641-2.022-8.591-10.421-.635-2.737-4.548-2.729-5.181 0-1.907 8.213-4.566 9.092-8.591 10.422-2.424.801-2.43 4.248 0 5.051 6.686 2.209 7.444 5.476 8.591 10.421.637 2.743 4.545 2.742 5.182 0 1.905-8.212 4.709-9.139 8.591-10.421 2.423-.802 2.429-4.25-.001-5.052z"/></g><g><path d="m182.408 183.069c-1.47 1.04-2.79 2.42-3.93 4.44-.95-1.59-2.25-3.09-4.17-4.4 1.55-1.06 2.94-2.51 4.12-4.64 1.2 2.16 2.569 3.59 3.98 4.6z" fill="#f0c020"/></g><g><path d="m88.824 180.461c-3.729-1.228-6.641-2.022-8.591-10.421-.635-2.737-4.548-2.729-5.181 0-1.907 8.213-4.566 9.092-8.591 10.422-2.424.801-2.43 4.248 0 5.051 6.686 2.209 7.444 5.476 8.591 10.421.637 2.743 4.545 2.742 5.182 0 1.905-8.212 4.709-9.139 8.591-10.421 2.423-.802 2.429-4.25-.001-5.052z"/></g><g><path d="m81.693 183.069c-1.47 1.04-2.79 2.42-3.93 4.44-.95-1.59-2.25-3.09-4.17-4.4 1.55-1.06 2.94-2.51 4.12-4.64 1.2 2.16 2.57 3.59 3.98 4.6z" fill="#f0c020"/></g><g><path d="m162.3 23.31v18.96h-12.39v-18.96c0-1.38-1.12-2.48-2.48-2.48h-38.86c-1.36 0-2.48 1.1-2.48 2.48v18.96h-12.39v-18.96c0-8.22 6.67-14.88 14.87-14.88h38.86c8.2 0 14.87 6.66 14.87 14.88z" fill="#fc5d3d"/></g><g><path d="m93.7 35.27h12.39v7h-12.39z" fill="#b25035"/></g><g><path d="m149.91 35.27h12.39v7h-12.39z" fill="#b25035"/></g><g><circle cx="128" cy="124.097" fill="#efefef" r="57.847"/></g><g><path d="m172.911 124.096c0 9.473-2.908 18.654-8.732 26.61-8.182 11.101-21.34 18.3-36.179 18.3-14.811 0-27.951-7.171-36.133-18.236-5.489-7.403-8.778-16.642-8.778-26.675 0-24.802 20.109-44.911 44.911-44.911s44.911 20.111 44.911 44.912z" fill="#afafaf"/></g><g><path d="m164.179 150.707c-8.182 11.101-21.34 18.3-36.179 18.3-14.811 0-27.951-7.171-36.133-18.236l.578-5.666 4.141-40.843c.23-2.222 2.865-3.26 4.554-1.8l9.348 8.145c8.007-5.794 27.024-5.785 35.022 0l9.357-8.145c1.68-1.469 4.316-.422 4.545 1.8l4.187 40.779z" fill="#f0c020"/></g><g><path d="m164.179 150.707c-8.182 11.101-21.34 18.3-36.179 18.3-14.811 0-27.951-7.171-36.133-18.236l.578-5.666c8.209 10.633 21.083 17.474 35.554 17.474 14.499 0 27.391-6.868 35.6-17.538z" fill="#e8a61e"/></g><g><path d="m173.5 214.08c0 1.22-.18 2.39-.51 3.5-1.506 5.116-6.247 8.74-11.73 8.74h-66.52c-5.54 0-10.23-3.69-11.73-8.74-.33-1.11-.51-2.28-.51-3.5 0-6.772 5.48-12.24 12.24-12.24h66.52c6.76 0 12.24 5.48 12.24 12.24z" fill="#f0c020"/></g><g><path d="m173.5 214.08c0 1.22-.18 2.39-.51 3.5-1.5-5.05-6.19-8.74-11.73-8.74h-66.52c-5.47 0-10.22 3.61-11.73 8.74-.33-1.11-.51-2.28-.51-3.5 0-6.772 5.48-12.24 12.24-12.24h66.52c6.76 0 12.24 5.48 12.24 12.24z" fill="#e8a61e"/></g><g><g><path d="m187.2 239.39h-3c-1.381 0-2.5-1.119-2.5-2.5s1.119-2.5 2.5-2.5h3c1.381 0 2.5 1.119 2.5 2.5s-1.119 2.5-2.5 2.5zm-13 0h-105.4c-6.893 0-12.5-5.607-12.5-12.5v-163.421c0-1.381 1.119-2.5 2.5-2.5s2.5 1.119 2.5 2.5v163.421c0 4.136 3.364 7.5 7.5 7.5h105.4c1.381 0 2.5 1.119 2.5 2.5s-1.119 2.5-2.5 2.5z" fill="#c5e5fe"/></g></g><g><g><path d="m103.294 98.166c-.881-1.063-.733-2.639.33-3.52.818-.678 1.677-1.332 2.554-1.942 1.133-.788 2.691-.51 3.48.622.789 1.133.511 2.691-.622 3.48-.763.531-1.51 1.1-2.222 1.689-1.061.88-2.637.735-3.52-.329zm44.103-1.053c-5.662-4.075-12.374-6.229-19.411-6.229-3.646 0-7.239.59-10.679 1.752-1.309.442-2.727-.259-3.169-1.567s.26-2.727 1.567-3.169c3.958-1.338 8.089-2.016 12.281-2.016 8.092 0 15.814 2.479 22.332 7.17 1.121.807 1.375 2.369.569 3.49-.807 1.122-2.37 1.375-3.49.569z" fill="#fff"/></g></g><g><g><path d="m122.185 122.486c-1.381 0-2.5-1.119-2.5-2.5v-1.531c0-1.381 1.119-2.5 2.5-2.5s2.5 1.119 2.5 2.5v1.531c0 1.381-1.12 2.5-2.5 2.5z" fill="#e8a61e"/></g></g><g><g><path d="m151.874 151.034c-1.381 0-2.5-1.119-2.5-2.5v-1.53c0-1.381 1.119-2.5 2.5-2.5s2.5 1.119 2.5 2.5v1.53c0 1.381-1.119 2.5-2.5 2.5z" fill="#e8a61e"/></g></g><g><g><path d="m111.25 217.414c-1.381 0-2.5-1.119-2.5-2.5v-1.667c0-1.381 1.119-2.5 2.5-2.5s2.5 1.119 2.5 2.5v1.667c0 1.38-1.119 2.5-2.5 2.5z" fill="#e8a61e"/></g></g><g><g><path d="m148 219.653c-1.381 0-2.5-1.119-2.5-2.5v-1.667c0-1.381 1.119-2.5 2.5-2.5s2.5 1.119 2.5 2.5v1.667c0 1.381-1.119 2.5-2.5 2.5z" fill="#e8a61e"/></g></g><g><g><path d="m101.167 140.281c-1.381 0-2.5-1.119-2.5-2.5v-1.667c0-1.381 1.119-2.5 2.5-2.5s2.5 1.119 2.5 2.5v1.667c0 1.381-1.12 2.5-2.5 2.5z" fill="#e8a61e"/></g></g><g><path d="m115.12 130.01v-2.066c0-1.381-1.119-2.5-2.5-2.5s-2.5 1.119-2.5 2.5v2.066c0 1.381 1.119 2.5 2.5 2.5s2.5-1.119 2.5-2.5z"/></g><g><path d="m143.38 125.444c-1.381 0-2.5 1.119-2.5 2.5v2.066c0 1.381 1.119 2.5 2.5 2.5s2.5-1.119 2.5-2.5v-2.066c0-1.381-1.119-2.5-2.5-2.5z"/></g><g><path d="m142.058 138.253c-1.381 0-2.5 1.119-2.5 2.5 0 2.461-1.985 4.516-4.515 4.516-2.49 0-4.516-2.026-4.516-4.516v-4.263h1.375c1.381 0 2.5-1.119 2.5-2.5s-1.119-2.5-2.5-2.5c-1.806 0-3.647 0-7.805 0-1.381 0-2.5 1.119-2.5 2.5s1.119 2.5 2.5 2.5h1.43v4.263c0 2.49-2.025 4.516-4.515 4.516-2.449 0-4.515-1.976-4.515-4.516 0-1.381-1.119-2.5-2.5-2.5s-2.5 1.119-2.5 2.5c0 5.32 4.311 9.516 9.515 9.516 2.778 0 5.274-1.204 7.015-3.109 1.741 1.905 4.237 3.109 7.016 3.109 5.317 0 9.515-4.309 9.515-9.516 0-1.381-1.119-2.5-2.5-2.5z"/></g><g><path d="m128 63.75c-33.264 0-60.327 27.053-60.346 60.312 0 .013-.004.025-.004.038 0 14.428 5.1 28.242 14.46 39.18.883 1.053 2.483 1.178 3.52.28 1.05-.89 1.17-2.48.28-3.52-8.545-10.005-13.254-22.756-13.259-35.918 0-.008.002-.016.002-.024 0-30.519 24.829-55.347 55.347-55.347s55.347 24.829 55.347 55.347c0 28.345-21.865 54.56-55.393 55.352-9.615-.018-19.088-2.527-27.385-7.269-1.16-.66-2.75-.22-3.41.93-.71 1.247-.221 2.755.93 3.41 9.049 5.173 19.374 7.912 29.86 7.919 30.347.87 60.397-25.053 60.397-60.342.001-33.276-27.071-60.348-60.346-60.348z"/></g><g><path d="m89.924 152.343c.003.004.006.008.01.012 8.917 11.994 23.136 19.153 38.066 19.153 14.953 0 29.185-7.18 38.11-19.214.005-.007.01-.013.016-.02.023-.031.048-.059.07-.09 6.029-8.236 9.215-17.948 9.215-28.087 0-26.143-21.269-47.411-47.411-47.411s-47.411 21.269-47.411 47.411c0 10.247 3.206 19.985 9.269 28.161.021.028.045.055.066.085zm38.076 14.164c-13.078 0-25.537-6.153-33.543-16.487l4.617-45.501c.021-.217.272-.302.425-.172l9.348 8.145c.877.765 2.166.822 3.108.141 7.196-5.207 24.892-5.207 32.09 0 .942.682 2.229.623 3.107-.14l9.361-8.149c.158-.135.391-.034.413.173l4.663 45.441c-8.006 10.373-20.483 16.549-33.589 16.549zm0-84.822c23.386 0 42.411 19.025 42.411 42.411 0 6.663-1.545 13.119-4.5 18.998l-4.011-39.089c-.439-4.235-5.478-6.225-8.674-3.428l-7.955 6.925c-8.932-4.974-25.612-4.975-34.542 0l-7.953-6.93c-3.212-2.774-8.237-.803-8.677 3.439l-3.977 39.194c-2.978-5.873-4.534-12.365-4.534-19.108.001-23.387 19.026-42.412 42.412-42.412z"/></g><g><path d="m231.46 35.64c0-.001 0-.001 0 0-.001-9.649-7.851-17.5-17.5-17.5h-11.64c-9.402 0-17.234 7.625-17.487 17.009-.01.163-.013.332-.013.491v4.13h-20.02v-16.46c0-9.583-7.792-17.38-17.37-17.38h-38.86c-9.578 0-17.37 7.796-17.37 17.38v16.46h-20.02v-4.13c0-.159-.002-.329-.013-.491-.253-9.384-8.084-17.009-17.487-17.009h-11.64c-9.649 0-17.5 7.851-17.5 17.5v180.68c0 6.893 5.607 12.5 12.5 12.5h9.348c.983 11.506 10.655 20.57 22.412 20.57h118.4c11.756 0 21.429-9.064 22.412-20.57h9.348c6.893 0 12.5-5.607 12.5-12.5v-148.68c0-1.38-1.12-2.5-2.5-2.5s-2.5 1.12-2.5 2.5v148.68c0 4.136-3.364 7.5-7.5 7.5h-9.26v-161.55c0-11.52-8.704-21.04-19.88-22.343l.001-4.445c.004-.051.007-.103.009-.154.157-6.721 5.76-12.188 12.49-12.188h11.64c6.893 0 12.5 5.607 12.5 12.5v12c0 1.38 1.12 2.5 2.5 2.5s2.5-1.12 2.5-2.5zm-135.26-12.33c0-6.826 5.549-12.38 12.37-12.38h38.86c6.821 0 12.37 5.554 12.37 12.38v16.46h-7.39v-16.46c0-2.746-2.234-4.98-4.98-4.98h-38.86c-2.746 0-4.98 2.234-4.98 4.98v16.46h-7.39zm12.387 16.46-.017-16.44 38.84-.02v16.46zm-79.047 176.55v-180.68c0-6.893 5.607-12.5 12.5-12.5h11.64c6.73 0 12.333 5.468 12.49 12.188.001.03.006.117.008.147l.001 4.452c-11.176 1.303-19.879 10.823-19.879 22.343v161.55h-9.26c-4.136 0-7.5-3.364-7.5-7.5zm175.16-154.05v164.62c0 9.649-7.851 17.5-17.5 17.5h-118.4c-9.649 0-17.5-7.851-17.5-17.5v-164.62c0-9.649 7.851-17.5 17.5-17.5h118.4c9.65 0 17.5 7.851 17.5 17.5z"/></g><g><circle cx="228.96" cy="57.64" r="2.5"/></g><g><path d="m89.53 170.59c1.101.905 2.653.717 3.52-.33.88-1.06.73-2.64-.33-3.52h-.01c-1.02-.85-2.67-.69-3.51.33-.903 1.093-.716 2.656.32 3.51 0 .01 0 .01.01.01z"/></g><g><path d="m174.276 65.969c1.381 0 2.5-1.119 2.5-2.5v-5.313c0-1.381-1.119-2.5-2.5-2.5s-2.5 1.119-2.5 2.5v5.313c0 1.381 1.119 2.5 2.5 2.5z"/></g><g><path d="m183.5 65.969c1.381 0 2.5-1.119 2.5-2.5v-5.313c0-1.381-1.119-2.5-2.5-2.5s-2.5 1.119-2.5 2.5v5.313c0 1.381 1.119 2.5 2.5 2.5z"/></g><g><path d="m72.5 65.969c1.381 0 2.5-1.119 2.5-2.5v-5.313c0-1.381-1.119-2.5-2.5-2.5s-2.5 1.119-2.5 2.5v5.313c0 1.381 1.119 2.5 2.5 2.5z"/></g><g><path d="m81.724 65.969c1.381 0 2.5-1.119 2.5-2.5v-5.313c0-1.381-1.119-2.5-2.5-2.5s-2.5 1.119-2.5 2.5v5.313c0 1.381 1.119 2.5 2.5 2.5z"/></g><g><path d="m161.26 199.34h-66.52c-8.128 0-14.74 6.612-14.74 14.74 0 1.424.207 2.841.613 4.212 1.841 6.199 7.65 10.528 14.127 10.528h66.52c6.493 0 12.303-4.332 14.127-10.528.407-1.371.613-2.788.613-4.212 0-8.128-6.612-14.74-14.74-14.74zm9.332 17.534c-1.204 4.09-5.042 6.946-9.332 6.946h-66.52c-4.28 0-8.118-2.859-9.334-6.952-.269-.908-.406-1.846-.406-2.788 0-5.371 4.37-9.74 9.74-9.74h66.52c5.371 0 9.74 4.37 9.74 9.74 0 .942-.137 1.88-.408 2.794z"/></g><g><path d="m153.71 110.599c-1.381 0-2.5 1.119-2.5 2.5v3.061c0 1.381 1.119 2.5 2.5 2.5s2.5-1.119 2.5-2.5v-3.061c0-1.381-1.119-2.5-2.5-2.5z"/></g><g><path d="m102.29 110.599c-1.381 0-2.5 1.119-2.5 2.5v3.061c0 1.381 1.119 2.5 2.5 2.5s2.5-1.119 2.5-2.5v-3.061c0-1.381-1.12-2.5-2.5-2.5z"/></g></g></g></svg>