<?xml version="1.0" encoding="UTF-8" standalone="no"?>
<svg xmlns:rdf="http://www.w3.org/1999/02/22-rdf-syntax-ns#" xmlns="http://www.w3.org/2000/svg" xml:space="preserve" height="558.5" width="1e3" version="1.1" xmlns:cc="http://creativecommons.org/ns#" xmlns:dc="http://purl.org/dc/elements/1.1/" viewBox="0 0 1000 558.50408"><g transform="matrix(1.25 0 0 -1.25 -102.82 665.62)"><g transform="matrix(1.3889 0 0 1.3889 -31.988 -33.325)"><path d="m575.63 298.72h-119.21v89.572h119.21v-89.572z" fill-rule="evenodd" fill="#fdf8b2"/><g><g transform="translate(573.44 300.26)"><path d="m0 0h-9.688l-0.411 32.492c-1.317 9.66-11.606 10.334-17.56 11.475-5.953 1.14-11.705-2.762-12.846-8.715l-9.111-34.813c-0.029-0.152-0.049-0.296-0.067-0.439h-31.108v83.865h80.791v-83.865zm-88.694 18.711-8.877 20.874c-0.723 1.701-2.395 2.619-3.734 2.049s-1.838-2.409-1.114-4.111l9.525-22.402c-0.173 0.013-0.345 0.027-0.52 0.027-1.867 0-3.583-0.628-4.964-1.675l-10.17 23.917c-0.723 1.701-2.394 2.618-3.733 2.048-0.566-0.239-1.899-0.783-3.197-1.457v45.884h26.784v-65.154zm-33.37 75.691v-1.316-9.221-92.207h3.073v-3.512h118.99 5.708v95.719h0.878v10.537h-128.65z" fill-rule="evenodd"/></g><g transform="translate(594.36 302.26)"><path d="m0 0c-2.359 2.569-3.905 6.805-3.905 11.605 0 4.691 1.48 8.84 3.751 11.425-1.103 0.828-2.337 1.307-3.645 1.307-4.608 0-8.343-5.767-8.343-12.879 0-3.92 1.138-7.424 2.928-9.787v-14.217h4.976v11.159c0.146-0.012 0.29-0.035 0.439-0.035 1.369 0 2.659 0.521 3.799 1.422" fill-rule="evenodd"/></g><g transform="translate(367.16 382.22)"><path d="m0 0c3.598 0 3.107 3.032 6.516 5.437 3.062 2.158-2.918 4.434-6.516 4.434h-4.242c-3.038 0-6.282-2.276-6.304-5.594-0.055-8.212-0.083-30.596-0.083-30.596h-4.83v-81.257h18.003v81.257h-5.269v26.319h2.725z" fill-rule="evenodd"/></g></g><g transform="translate(425.47 150.09)"><path d="m0 0v22.394h-5.269v-22.394h-8.343v-7.025h22.394v7.025h-8.782z" fill-rule="evenodd" fill="#fcf594"/></g><path d="m365.75 165.9h-90.89v41.273h90.89v-41.273z" fill-rule="evenodd" fill="#6d6500"/><g transform="translate(449.03 260.74)"><path d="m0 0c0 9.701 12.334 17.563 2.635 17.563h-180.32c-9.7 0-14.344-2.886-14.344-12.585l17.36-75.78c6.883 2.985 14.471 4.647 22.45 4.647 21.45 0 40.108-11.955 49.675-29.565h108.69c9.7 0 14.051 86.021 14.051 95.72h-20.201z" fill-rule="evenodd" fill="#bcae00"/></g><g transform="translate(445.23 266.6)"><path d="m0 0h-188.19c-0.009-0.293-0.027-0.573-0.027-0.878l2.749-12.003h185.47v12.881z" fill-rule="evenodd" fill="#fcf594"/></g><path d="m598.03 163.7h-156.31v128.65h156.31v-128.65z" fill-rule="evenodd" fill="#efdf00"/><g transform="translate(648.08 216.39)"><path d="m0 0 0.439-31.175-150.16 63.667v34.688h99.671l50.049-67.18z" fill-rule="evenodd" fill="#756d00"/></g><g transform="translate(277.64 203.22)"><path d="m0 0h-17.709v13.466h-30.443v-37.322h30.443l8.195 5.348 12.88 8.85-3.366 9.658z" fill-rule="evenodd" fill="#dacb04"/></g><g transform="translate(349.21 138.09)"><path d="m0 0c0 4.964-2.106 9.425-5.459 12.576 1.328 4.404 0.921 9.323-1.561 13.621-2.482 4.3-6.537 7.112-11.016 8.163-1.052 4.478-3.863 8.535-8.162 11.017-4.299 2.481-9.216 2.89-13.621 1.561-3.15 3.352-7.613 5.458-12.578 5.458-4.964 0-9.426-2.106-12.577-5.458-4.405 1.329-9.322 0.92-13.622-1.561-4.299-2.482-7.11-6.537-8.162-11.017-4.479-1.051-8.534-3.863-11.017-8.163-2.482-4.298-2.889-9.215-1.559-13.621-3.354-3.151-5.46-7.612-5.46-12.576 0-4.965 2.106-9.426 5.46-12.577-1.329-4.406-0.922-9.323 1.56-13.622 2.483-4.3 6.538-7.111 11.017-8.162 1.052-4.48 3.863-8.535 8.162-11.017 4.3-2.481 9.218-2.89 13.623-1.56 3.15-3.354 7.611-5.458 12.575-5.458s9.427 2.106 12.577 5.459c4.405-1.329 9.322-0.92 13.621 1.561s7.111 6.536 8.162 11.015c4.479 1.052 8.535 3.864 11.016 8.162 2.482 4.301 2.89 9.218 1.561 13.622 3.35 3.149 5.456 7.612 5.456 12.577" fill-rule="evenodd"/></g><g transform="translate(236.87 300.44)"><path d="m0 0-75.194-61.103-1.292 1.59l75.194 61.103 1.292-1.59z" fill-rule="evenodd" fill="#fcf594"/></g><g transform="translate(177.1 278.3)"><path d="m0 0-2.927-1.465s8.314-57.56-15.807-72.595c-20.198-12.586-65.862 36.298-65.862 36.298l-4.098-1.756-6.147 7.611 93.377 41.858c0 0.002 1.464-9.951 1.464-9.951" fill="#efdf00"/></g><g transform="translate(257.27 312.93)"><path d="m0 0-59.519-48.367-5.283 6.502l59.518 48.366 5.284-6.501z" fill-rule="evenodd" fill="#efdf00"/></g><g transform="translate(299.92 282.33)"><path d="m0 0 83.107-49.808-1.053-1.756-83.107 49.808 1.053 1.756z" fill-rule="evenodd" fill="#fcf594"/></g><g transform="translate(389.33 283.99)"><path d="m0 0-108.03 34.711-11.709-21.369 10.244-2.373-2.941-4.907 65.782-39.427 4.308 7.186l-58.72 35.194 93.734-21.724 7.336 12.709z" fill-rule="evenodd" fill="#d6c700"/></g><g transform="translate(280.72 294.11)"><path d="m0 0-122.36-89.866-4.97 13.466 101.86 91.62 25.47-15.22z" fill-rule="evenodd" fill="#bcae00"/></g><g transform="translate(278.08 330.12)"><path d="m0 0c10.245-8.782 17.568-18.779 21.661-23.419 5.428-6.15-0.717-8.79-3.512-10.245l-7.904-4.391c-9.738-5.923-11.709-6.147-22.832 0.878l-14.992-1.578-7.547 12.409c-5.922 9.738-4.391 9.66 2.341 14.636 0 0 14.902 9.361 19.905 12.294 3.243 1.902 7.389 4.122 12.88-0.584" fill-rule="evenodd" fill="#efdf00"/></g><g transform="translate(159.65 216.39)"><path d="m0 0c0-0.873-0.708-1.581-1.581-1.581s-1.58 0.708-1.58 1.581 0.707 1.58 1.58 1.58 1.581-0.707 1.581-1.58" fill-rule="evenodd" fill="#fcf594"/></g><g transform="translate(161.41 210.25)"><path d="m0 0c0-0.873-0.708-1.582-1.581-1.582s-1.58 0.709-1.58 1.582 0.707 1.579 1.58 1.579 1.581-0.706 1.581-1.579" fill-rule="evenodd" fill="#fcf594"/></g><g transform="translate(262.98 296.04)"><path d="m0 0c0-0.872-0.708-1.579-1.581-1.579-0.872 0-1.58 0.707-1.58 1.579 0 0.873 0.708 1.582 1.58 1.582 0.873 0 1.581-0.709 1.581-1.582" fill-rule="evenodd" fill="#fcf594"/></g><g transform="translate(272.64 294.29)"><path d="m0 0c0-0.873-0.708-1.58-1.581-1.58s-1.581 0.707-1.581 1.58 0.708 1.581 1.581 1.581 1.581-0.708 1.581-1.581" fill-rule="evenodd" fill="#fcf594"/></g><g transform="translate(254.2 296.04)"><path d="m0 0c0-0.872-0.708-1.579-1.581-1.579s-1.581 0.707-1.581 1.579c0 0.873 0.708 1.582 1.581 1.582s1.581-0.709 1.581-1.582" fill-rule="evenodd" fill="#fcf594"/></g><g transform="translate(382 287.96)"><path d="m0 0c-5.562-12.001-16.275-36.47-18.734-47.127-1.756-7.61 26.638-71.132 26.638-71.132h7.318v120.6h-7.318c0 0.003-6.789 0.066-7.904-2.34" fill-rule="evenodd" fill="#efdf00"/></g><g transform="translate(299.16 302.89)"><path d="m0 0c0-0.873-0.708-1.581-1.581-1.581s-1.58 0.708-1.58 1.581 0.707 1.58 1.58 1.58 1.581-0.707 1.581-1.58" fill-rule="evenodd" fill="#fcf594"/></g><g transform="translate(293.89 309.04)"><path d="m0 0c0-0.873-0.708-1.581-1.581-1.581s-1.581 0.708-1.581 1.581 0.708 1.579 1.581 1.579 1.581-0.706 1.581-1.579" fill-rule="evenodd" fill="#fcf594"/></g><g transform="translate(292.13 297.62)"><path d="m0 0c0-0.873-0.708-1.582-1.581-1.582s-1.581 0.709-1.581 1.582 0.708 1.579 1.581 1.579 1.581-0.706 1.581-1.579" fill-rule="evenodd" fill="#fcf594"/></g><g transform="translate(380.47 277.08)"><path d="m0 0c0.71 0.508 1.697 0.345 2.205-0.365 0.509-0.71 0.346-1.697-0.364-2.206-0.71-0.508-1.697-0.345-2.206 0.365-0.508 0.711-0.345 1.696 0.365 2.206" fill-rule="evenodd" fill="#fcf594"/></g><g transform="translate(382.68 282.97)"><path d="m0 0c0.71 0.508 1.697 0.345 2.206-0.365 0.508-0.71 0.345-1.698-0.365-2.206-0.71-0.51-1.697-0.345-2.205 0.365-0.509 0.71-0.346 1.696 0.364 2.206" fill-rule="evenodd" fill="#fcf594"/></g><g transform="translate(367.03 244.17)"><path d="m0 0c0.71 0.508 1.697 0.345 2.206-0.365 0.508-0.71 0.346-1.697-0.365-2.206-0.709-0.508-1.696-0.345-2.205 0.365-0.509 0.711-0.345 1.696 0.364 2.206" fill-rule="evenodd" fill="#fcf594"/></g><g transform="translate(345.95 244.17)"><path d="m0 0c0.71 0.508 1.697 0.345 2.206-0.365 0.508-0.71 0.345-1.697-0.365-2.206-0.709-0.508-1.696-0.345-2.205 0.365-0.509 0.711-0.346 1.696 0.364 2.206" fill-rule="evenodd" fill="#fcf594"/></g><g transform="translate(392.49 174.79)"><path d="m0 0c0.71 0.508 1.697 0.345 2.206-0.365 0.508-0.71 0.345-1.697-0.365-2.205-0.709-0.508-1.696-0.345-2.205 0.365s-0.346 1.696 0.364 2.205" fill-rule="evenodd" fill="#fcf594"/></g><g transform="translate(325.21 138.09)"><path d="m0 0c0-15.682-12.712-28.395-28.394-28.395-15.681 0-28.394 12.713-28.394 28.395 0 15.68 12.713 28.393 28.394 28.393 15.682 0 28.394-12.713 28.394-28.393" fill-rule="evenodd" fill="#feee0f"/></g><g transform="translate(314.67 138.09)"><path d="m0 0c0-9.862-7.994-17.856-17.856-17.856-9.861 0-17.856 7.994-17.856 17.856 0 9.86 7.995 17.854 17.856 17.854 9.862 0 17.856-7.994 17.856-17.854" fill-rule="evenodd" fill="#a09500"/></g><g transform="translate(309.11 138.09)"><path d="m0 0c0-6.79-5.504-12.294-12.294-12.294-6.789 0-12.293 5.504-12.293 12.294 0 6.789 5.504 12.293 12.293 12.293 6.79 0 12.294-5.504 12.294-12.293" fill-rule="evenodd" fill="#b6ab02"/></g><g transform="translate(635.2 180.53)"><path d="m0 0c0 8.874-3.765 16.85-9.76 22.482 2.376 7.874 1.648 16.668-2.789 24.352-4.437 7.686-11.686 12.711-19.694 14.591-1.88 8.009-6.905 15.259-14.591 19.695-7.685 4.438-16.476 5.166-24.352 2.791-5.631 5.994-13.609 9.761-22.484 9.761s-16.853-3.767-22.485-9.761c-7.875 2.375-16.666 1.647-24.352-2.789-7.685-4.437-12.711-11.687-14.59-19.697-8.008-1.88-15.258-6.905-19.696-14.591-4.437-7.684-5.164-16.476-2.788-24.352-5.994-5.632-9.76-13.608-9.76-22.482s3.766-16.852 9.761-22.483c-2.377-7.876-1.649-16.667 2.789-24.353 4.438-7.685 11.687-12.711 19.695-14.591 1.88-8.01 6.905-15.26 14.591-19.695 7.687-4.437 16.478-5.166 24.353-2.788 5.632-5.995 13.608-9.76 22.482-9.76s16.851 3.767 22.483 9.761c7.875-2.375 16.666-1.647 24.352 2.789 7.685 4.437 12.71 11.685 14.591 19.693 8.007 1.882 15.257 6.907 19.693 14.593 4.437 7.686 5.165 16.476 2.791 24.351 6.003 5.63 9.768 13.609 9.768 22.483" fill-rule="evenodd"/></g><g transform="translate(592.29 180.54)"><path d="m0 0c0-28.034-22.726-50.762-50.76-50.762-28.033 0-50.759 22.728-50.759 50.762 0 28.032 22.726 50.76 50.759 50.76 28.035 0 50.761-22.728 50.761-50.76" fill-rule="evenodd" fill="#feee0f"/></g><g transform="translate(573.45 180.54)"><path d="m0 0c0-17.632-14.291-31.923-31.921-31.923-17.629 0-31.921 14.291-31.921 31.923 0 17.628 14.292 31.921 31.921 31.921 17.63 0 31.921-14.293 31.921-31.921" fill-rule="evenodd" fill="#a09500"/></g><g transform="translate(563.51 180.54)"><path d="m0 0c0-12.141-9.84-21.979-21.978-21.979-12.137 0-21.977 9.838-21.977 21.979 0 12.136 9.84 21.976 21.977 21.976 12.138 0 21.978-9.84 21.978-21.976" fill-rule="evenodd" fill="#b6ab02"/></g><g transform="translate(351.56 138.09)"><path d="m0 0v-0.002h10.538v0.002c0 36.051-29.225 65.275-65.277 65.275-10.293 0-20.026-2.39-28.686-6.633v-12.022c8.343 5.144 18.166 8.117 28.686 8.117 30.232 0 54.739-24.506 54.739-54.737" fill-rule="evenodd" fill="#e4d400"/></g><g transform="translate(345.95 233.63)"><path d="m0 0c0.71 0.508 1.697 0.345 2.206-0.365 0.508-0.71 0.345-1.697-0.365-2.206-0.709-0.507-1.696-0.345-2.205 0.366-0.509 0.71-0.346 1.696 0.364 2.205" fill-rule="evenodd" fill="#fcf594"/></g><g transform="translate(345.95 222.22)"><path d="m0 0c0.71 0.508 1.697 0.345 2.206-0.365 0.508-0.71 0.345-1.697-0.365-2.206-0.709-0.507-1.696-0.345-2.205 0.365-0.509 0.711-0.346 1.696 0.364 2.206" fill-rule="evenodd" fill="#fcf594"/></g><g transform="translate(345.95 211.68)"><path d="m0 0c0.71 0.508 1.697 0.345 2.206-0.365 0.508-0.71 0.345-1.697-0.365-2.206-0.709-0.507-1.696-0.344-2.205 0.366s-0.346 1.696 0.364 2.205" fill-rule="evenodd" fill="#fcf594"/></g><g transform="translate(345.95 200.26)"><path d="m0 0c0.71 0.508 1.697 0.345 2.206-0.365 0.508-0.71 0.345-1.697-0.365-2.206-0.709-0.507-1.696-0.345-2.205 0.365-0.509 0.711-0.346 1.697 0.364 2.206" fill-rule="evenodd" fill="#fcf594"/></g><g transform="translate(345.95 189.72)"><path d="m0 0c0.71 0.508 1.697 0.345 2.206-0.365 0.508-0.71 0.345-1.697-0.365-2.205-0.709-0.508-1.696-0.345-2.205 0.365s-0.346 1.696 0.364 2.205" fill-rule="evenodd" fill="#fcf594"/></g><g transform="translate(437.28 248.56)"><path d="m0 0c0.71 0.508 1.697 0.345 2.206-0.365 0.508-0.71 0.345-1.697-0.365-2.206-0.709-0.507-1.696-0.345-2.205 0.366-0.509 0.71-0.345 1.696 0.364 2.205" fill-rule="evenodd" fill="#fcf594"/></g><g transform="translate(437.28 238.02)"><path d="m0 0c0.71 0.508 1.697 0.345 2.206-0.365 0.508-0.71 0.345-1.697-0.365-2.205-0.709-0.508-1.696-0.345-2.205 0.365s-0.345 1.696 0.364 2.205" fill-rule="evenodd" fill="#fcf594"/></g><g transform="translate(437.28 226.61)"><path d="m0 0c0.71 0.508 1.697 0.345 2.206-0.365 0.508-0.71 0.345-1.697-0.365-2.205-0.709-0.508-1.696-0.346-2.205 0.365-0.509 0.71-0.345 1.696 0.364 2.205" fill-rule="evenodd" fill="#fcf594"/></g><g transform="translate(437.28 216.07)"><path d="m0 0c0.71 0.508 1.697 0.345 2.206-0.365 0.508-0.71 0.345-1.697-0.365-2.205-0.709-0.508-1.696-0.345-2.205 0.365s-0.345 1.696 0.364 2.205" fill-rule="evenodd" fill="#fcf594"/></g><g transform="translate(455.72 281.93)"><path d="m0 0c0.71 0.508 1.697 0.345 2.206-0.365 0.508-0.71 0.345-1.697-0.365-2.206-0.709-0.507-1.696-0.345-2.205 0.366-0.509 0.71-0.346 1.696 0.364 2.205" fill-rule="evenodd" fill="#fcf594"/></g><g transform="translate(455.72 271.39)"><path d="m0 0c0.71 0.508 1.697 0.345 2.206-0.365 0.508-0.71 0.345-1.697-0.365-2.205-0.709-0.508-1.696-0.345-2.205 0.365s-0.346 1.696 0.364 2.205" fill-rule="evenodd" fill="#fcf594"/></g><g transform="translate(455.72 259.98)"><path d="m0 0c0.71 0.508 1.697 0.345 2.206-0.365 0.508-0.71 0.345-1.697-0.365-2.205-0.709-0.508-1.696-0.345-2.205 0.365s-0.346 1.696 0.364 2.205" fill-rule="evenodd" fill="#fcf594"/></g><g transform="translate(455.72 249.44)"><path d="m0 0c0.71 0.508 1.697 0.345 2.206-0.365 0.508-0.71 0.345-1.697-0.365-2.205-0.709-0.508-1.696-0.345-2.205 0.365s-0.346 1.696 0.364 2.205" fill-rule="evenodd" fill="#fcf594"/></g><g transform="translate(437.28 204.65)"><path d="m0 0c0.71 0.508 1.697 0.345 2.206-0.365 0.508-0.71 0.345-1.697-0.365-2.205-0.709-0.508-1.696-0.345-2.205 0.365s-0.345 1.696 0.364 2.205" fill-rule="evenodd" fill="#fcf594"/></g><g transform="translate(437.28 193.24)"><path d="m0 0c0.71 0.508 1.697 0.345 2.206-0.365 0.508-0.71 0.345-1.697-0.365-2.205-0.709-0.508-1.696-0.345-2.205 0.365s-0.345 1.696 0.364 2.205" fill-rule="evenodd" fill="#fcf594"/></g><g transform="translate(437.28 182.7)"><path d="m0 0c0.71 0.508 1.697 0.345 2.206-0.365 0.508-0.71 0.345-1.697-0.365-2.205-0.709-0.508-1.696-0.345-2.205 0.365s-0.345 1.696 0.364 2.205" fill-rule="evenodd" fill="#fcf594"/></g><g transform="translate(273.9 248.37)"><path d="m0 0c-0.808 0-1.463-0.655-1.463-1.463v-35.127c0-0.809 0.655-1.465 1.463-1.465s1.464 0.656 1.464 1.465v35.127c0 0.808-0.656 1.463-1.464 1.463" fill-rule="evenodd" fill="#fcf594"/></g><g transform="translate(279.17 248.37)"><path d="m0 0c-0.808 0-1.463-0.655-1.463-1.463v-35.127c0-0.809 0.655-1.465 1.463-1.465s1.464 0.656 1.464 1.465v35.127c0 0.808-0.656 1.463-1.464 1.463" fill-rule="evenodd" fill="#fcf594"/></g><g transform="translate(284.44 248.37)"><path d="m0 0c-0.808 0-1.463-0.655-1.463-1.463v-35.127c0-0.809 0.655-1.465 1.463-1.465s1.463 0.656 1.463 1.465v35.127c0 0.808-0.655 1.463-1.463 1.463" fill-rule="evenodd" fill="#fcf594"/></g><g transform="translate(289.7 248.37)"><path d="m0 0c-0.808 0-1.464-0.655-1.464-1.463v-35.127c0-0.809 0.656-1.465 1.464-1.465s1.463 0.656 1.463 1.465v35.127c0 0.808-0.655 1.463-1.463 1.463" fill-rule="evenodd" fill="#fcf594"/></g><g transform="translate(294.97 248.37)"><path d="m0 0c-0.808 0-1.463-0.655-1.463-1.463v-35.127c0-0.809 0.655-1.465 1.463-1.465s1.464 0.656 1.464 1.465v35.127c0 0.808-0.656 1.463-1.464 1.463" fill-rule="evenodd" fill="#fcf594"/></g><g transform="translate(300.24 248.37)"><path d="m0 0c-0.808 0-1.463-0.655-1.463-1.463v-35.127c0-0.809 0.655-1.465 1.463-1.465s1.463 0.656 1.463 1.465v35.127c0 0.808-0.655 1.463-1.463 1.463" fill-rule="evenodd" fill="#fcf594"/></g><g transform="translate(305.51 248.37)"><path d="m0 0c-0.808 0-1.464-0.655-1.464-1.463v-35.127c0-0.809 0.656-1.465 1.464-1.465s1.463 0.656 1.463 1.465v35.127c0 0.808-0.655 1.463-1.463 1.463" fill-rule="evenodd" fill="#fcf594"/></g><g transform="translate(310.78 248.37)"><path d="m0 0c-0.808 0-1.463-0.655-1.463-1.463v-35.127c0-0.809 0.655-1.465 1.463-1.465s1.464 0.656 1.464 1.465v35.127c0 0.808-0.656 1.463-1.464 1.463" fill-rule="evenodd" fill="#fcf594"/></g><g transform="translate(316.05 248.37)"><path d="m0 0c-0.808 0-1.463-0.655-1.463-1.463v-35.127c0-0.809 0.655-1.465 1.463-1.465s1.463 0.656 1.463 1.465v35.127c0 0.808-0.655 1.463-1.463 1.463" fill-rule="evenodd" fill="#fcf594"/></g><g transform="translate(321.32 248.37)"><path d="m0 0c-0.808 0-1.464-0.655-1.464-1.463v-35.127c0-0.809 0.656-1.465 1.464-1.465s1.463 0.656 1.463 1.465v35.127c0 0.808-0.655 1.463-1.463 1.463" fill-rule="evenodd" fill="#fcf594"/></g><g transform="translate(326.59 248.37)"><path d="m0 0c-0.808 0-1.463-0.655-1.463-1.463v-35.127c0-0.809 0.655-1.465 1.463-1.465s1.464 0.656 1.464 1.465v35.127c0 0.808-0.656 1.463-1.464 1.463" fill-rule="evenodd" fill="#fcf594"/></g><g transform="translate(331.86 248.37)"><path d="m0 0c-0.808 0-1.463-0.655-1.463-1.463v-35.127c0-0.809 0.655-1.465 1.463-1.465s1.463 0.656 1.463 1.465v35.127c0 0.808-0.655 1.463-1.463 1.463" fill-rule="evenodd" fill="#fcf594"/></g><g transform="translate(265.91 189.02)"><path d="m0 0c0-0.873-0.708-1.58-1.581-1.58s-1.581 0.707-1.581 1.58 0.708 1.581 1.581 1.581 1.581-0.708 1.581-1.581" fill-rule="evenodd" fill="#fcf594"/></g><g transform="translate(265.91 197.8)"><path d="m0 0c0-0.873-0.708-1.579-1.581-1.579s-1.581 0.706-1.581 1.579 0.708 1.582 1.581 1.582 1.581-0.709 1.581-1.582" fill-rule="evenodd" fill="#fcf594"/></g><g transform="translate(639.52 182.58)"><path d="m0 0v-0.002h18.737v0.002c0 64.099-51.964 116.06-116.06 116.06-18.304 0-35.609-4.25-51.006-11.797v-21.376c14.833 9.149 32.299 14.436 51.006 14.436 53.749 0.006 97.324-43.569 97.324-97.32" fill-rule="evenodd" fill="#bcae00"/></g><g transform="translate(592.9 400.37)"><path d="m0 0c0 3.88-3.281 7.025-7.33 7.025h-137.94c-4.645 0-8.409-3.145-8.409-7.025 0-0.098 0.012-0.194 0.017-0.292h-0.017v-8.927h153.68v8.927h-0.016c0.008 0.098 0.02 0.194 0.02 0.292" fill-rule="evenodd" fill="#f1e100"/></g><g transform="translate(590.46 313.87)"><path d="m0 0c0-4.801 1.545-9.036 3.905-11.605 2.695 2.135 4.543 6.459 4.543 11.458 0 5.091-1.919 9.481-4.698 11.572-2.271-2.585-3.75-6.735-3.75-11.425" fill-rule="evenodd" fill="#fdf9c6"/></g></g></g></svg>
