<?xml version="1.0" encoding="UTF-8"?>
<!-- Generated by Pixelmator Pro 3.3.2 -->
<svg width="1500" height="1200" viewBox="0 0 1500 1200" xmlns="http://www.w3.org/2000/svg" xmlns:xlink="http://www.w3.org/1999/xlink">
    <path id="Path" fill="#000000" stroke="none" d="M 962.672974 988.572021 C 1202.550049 963.536987 1394.72998 921.377991 1391.920044 894.406982 C 1389.099976 867.437012 1192.359985 865.867004 952.479004 890.901978 C 712.598999 915.937012 520.419983 958.096008 523.234009 985.065979 C 526.049011 1012.039978 722.791992 1013.609985 962.672974 988.572021 Z"/>
    <path id="path1" fill="#000000" stroke="none" d="M 218.699997 912.400024 C 218.699997 912.400024 234.699997 988.799988 270.5 1019.099976 C 293.899994 1038.900024 322.600006 1049.199951 347.399994 1048.699951 C 372.200012 1048.199951 579 1066.900024 579 1066.900024 C 579 1066.900024 569.5 1005.5 561.299988 1000.299988 C 553.099976 995.200012 512.900024 925.900024 505.200012 927.299988 C 497.5 928.700012 218.699997 912.400024 218.699997 912.400024 Z"/>
    <path id="path2" fill="#181818" stroke="none" d="M 463.299988 763.299988 C 463.299988 763.299988 463.100006 765.700012 461.700012 768.700012 C 457.200012 773.5 451.200012 776.099976 443.5 776 C 377.700012 775.200012 352.700012 756.400024 362 755.799988 C 371.399994 755.200012 407.799988 734.5 407.799988 734.5 L 422.5 672.700012 L 426.100006 659.299988 C 433.600006 660.400024 439.799988 661.599976 443.5 663 C 457.5 668.299988 462.700012 674.400024 462.899994 696.400024 C 463.299988 718.400024 463.299988 763.299988 463.299988 763.299988 Z"/>
    <path id="path3" fill="#000000" stroke="none" d="M 744.200012 1106.599976 L 545.200012 1083.300049 C 545.200012 1083.300049 513.400024 1033.099976 515.400024 999.400024 C 517.400024 965.700012 599.900024 661.299988 599.900024 661.299988 L 868.900024 654.900024 L 1301.199951 580.700012 L 1326.800049 625 L 1322.699951 677.799988 C 1322.699951 677.799988 1333.199951 677.599976 1334.699951 680.400024 C 1336.199951 683.099976 1334.099976 697.799988 1334.099976 697.799988 L 1321.199951 720.400024 L 1273.599976 894.200012 L 1232.699951 895.299988 C 1216 894.700012 1201.099976 884.299988 1194.900024 868.799988 L 1194 857.599976 L 925.099976 938 L 845.799988 1009.5 L 744.200012 1106.599976 Z"/>
    <path id="path4" fill="#000000" stroke="none" d="M 558 1126.300049 C 804.870972 1126.300049 1005 1089.449951 1005 1044 C 1005 998.546997 804.870972 961.700012 558 961.700012 C 311.128998 961.700012 111 998.546997 111 1044 C 111 1089.449951 311.128998 1126.300049 558 1126.300049 Z"/>
    <path id="path5" fill="#181818" stroke="none" d="M 882.198975 953.823975 C 906.685974 861.013977 865.713989 769.72998 790.685974 749.935974 C 715.658997 730.140991 634.987 789.330994 610.5 882.140991 C 586.013977 974.950989 626.986023 1066.23999 702.013977 1086.030029 C 777.041016 1105.819946 857.713013 1046.630005 882.198975 953.823975 Z"/>
    <path id="path6" fill="#5b5e5f" stroke="none" d="M 1332.699951 548.599976 L 1322.599976 677.900024 C 1322.599976 677.900024 1320.599976 633.400024 1315.599976 628.200012 C 1310.599976 622.900024 1282.599976 628.599976 1278.099976 631.400024 C 1273.599976 634.200012 1219.300049 752.200012 1212.400024 754.200012 L 1214.699951 755.099976 C 1216 755.599976 1217 756.599976 1217.5 757.900024 L 1219.699951 763.599976 C 1222.400024 770.299988 1222.300049 777.799988 1219.5 784.5 L 1217.599976 789 C 1216.199951 792.299988 1213 794.599976 1209.400024 794.700012 L 1195.199951 795.200012 L 937.200012 895.200012 L 937 899.599976 L 934.299011 900.400024 C 932.499023 900.900024 930.5 900.400024 929.200012 899 L 902.098999 871 C 902.098999 871 902.198975 806 890.799011 765.200012 C 879.398987 724.400024 866.400024 701.400024 853.400024 699.299988 C 840.400024 697.200012 706.700012 713.799988 685.900024 739.299988 C 666.799988 762.700012 600.700012 902.900024 589.900024 925.900024 C 588.900024 928 588.400024 929.099976 588.400024 929.099976 L 589.700012 932.400024 C 590.299988 933.900024 590.200012 935.700012 589.400024 937.099976 L 542 1023.400024 C 538.5 1029.800049 532 1033.900024 524.700012 1034.400024 C 502.100006 1035.800049 453.700012 1038.699951 443.700012 1038.099976 C 430.600006 1037.400024 355.200012 1022.799988 332 1011.5 C 332 1011.5 315.100006 989.400024 314.899994 987.599976 C 314.700012 985.700012 314.799988 975.299988 313.600006 972 C 312.399994 968.700012 173.199997 895.299988 173.199997 895.299988 L 132.100006 895.299988 C 130.899994 895.299988 129.800003 895 128.699997 894.5 C 127.800003 894.099976 127 893.400024 126.400002 892.700012 C 123.599998 889.400024 119.400002 883.900024 119.300003 881.599976 C 119.199997 878.099976 117.599998 868.900024 117.599998 868.900024 L 118 858.5 C 118 857.900024 118.099998 857.299988 118.300003 856.700012 C 118.699997 855 119.699997 853.5 121.099998 852.400024 L 124.900002 849.400024 C 127.5 847.400024 128.699997 844 127.900002 840.799988 L 115.900002 788.200012 L 116.199997 780.400024 L 119 776.200012 C 119 776.200012 114.199997 761 115.699997 757.299988 C 116.5 755.200012 135.699997 745.700012 135.699997 745.700012 C 135.699997 745.700012 138.899994 738.799988 140.5 738.599976 C 142.100006 738.400024 156.699997 736 156.699997 736 L 155.800003 730.299988 L 153.199997 728.799988 C 150.600006 727.299988 148.899994 724.5 148.699997 721.5 C 147.5 700.400024 143.199997 618.900024 144.699997 615.700012 C 145.899994 613.099976 156.800003 599.5 168.100006 598 L 180.800003 596.599976 L 180.800003 595.599976 L 180.699997 593.099976 C 180.600006 590.799988 181.399994 588.599976 182.899994 586.900024 C 187.600006 581.700012 197.800003 570.599976 200.199997 570.5 C 202.800003 570.400024 222.699997 569.299988 230 568.900024 C 231.5 568.799988 232.800003 570 232.899994 571.400024 L 253.899994 568.700012 L 282.5 556.900024 C 282.5 556.900024 442.5 532.599976 521.5 529.599976 L 522.099976 528.299988 L 606.799988 352.5 C 608.200012 349.5 611 347.5 614.299988 346.900024 L 615.200012 346.799988 C 616.900024 342.400024 620.700012 339.099976 625.299988 338.200012 C 670 329.200012 902.799988 282.900024 980.400024 280.299988 C 982.400024 280.200012 984.5 280.200012 986.700012 280.200012 C 1074.699951 280.200012 1243.199951 338.200012 1243.199951 338.200012 C 1243.199951 338.200012 1263.800049 335 1272.300049 335.599976 C 1277.900024 336 1296.300049 342.599976 1305.400024 346 C 1308.599976 347.200012 1310.800049 350 1311.300049 353.299988 L 1312.5 362.5 L 1317 363.299988 L 1317.099976 363.299988 L 1317.199951 363.299988 C 1319.400024 363.700012 1321.199951 365.5 1321.599976 367.799988 L 1321.900024 369.599976 C 1322.5 372.700012 1320.900024 375.799988 1318 377.200012 L 1332.400024 547 C 1332.400024 547 1331.5 547.400024 1331.5 548.099976 L 1331.5 548.200012 C 1331.699951 548.5 1332.699951 548.599976 1332.699951 548.599976 Z"/>
    <path id="path7" fill="#000000" stroke="none" d="M 296 920.400024 L 155.399994 853.099976 L 140.600006 795.400024 L 284.899994 852 L 296 920.400024 Z"/>
    <path id="path8" fill="#000000" stroke="none" d="M 333.5 928.200012 L 322.799988 867 L 448.200012 885.700012 L 464.799988 971 L 450 982.299988 C 450 982.299988 409.299988 979.799988 406.100006 978.599976 C 402.899994 977.400024 355.799988 967.099976 355.200012 966 C 354.600006 964.900024 333.5 928.200012 333.5 928.200012 Z"/>
    <path id="path9" fill="#000000" stroke="none" d="M 463.299988 763.299988 C 463.299988 763.299988 463.100006 765.700012 461.700012 768.700012 C 459.5 773.5 454.5 779.799988 442.899994 779.400024 C 424.200012 778.700012 372.5 768.799988 372.5 768.799988 C 372.5 768.799988 351.100006 768.599976 351.299988 747.700012 C 351.5 726.799988 354.100006 671.599976 354.100006 671.599976 C 354.100006 671.599976 354.700012 655 366 654.900024 C 374.299988 654.799988 405.200012 656.400024 426.399994 659.400024 C 433.899994 660.5 440.100006 661.700012 443.799988 663.099976 C 457.799988 668.400024 463 674.5 463.200012 696.5 C 463.299988 718.400024 463.299988 763.299988 463.299988 763.299988 Z"/>
    <path id="path10" fill="#242627" stroke="none" d="M 291.399994 837.799988 L 253 823.799988 L 248.5 829.900024 C 248.5 829.900024 262.600006 839.5 289.5 847 L 291.399994 837.799988 Z"/>
    <path id="path11" fill="#000000" stroke="none" d="M 296 920.400024 C 296 920.400024 158.300003 859.900024 155.399994 853.099976 C 152.5 846.299988 138.5 776.5 138.5 776.5 L 136.199997 770.5 L 123.5 780.599976 L 143.800003 852.599976 C 143.800003 852.599976 229.600006 899.299988 297.100006 926.299988 L 296 920.400024 Z"/>
    <path id="path12" fill="#0b0b0b" stroke="none" d="M 474.399994 784.299988 L 473.799988 800.799988 C 473.799988 800.799988 455 807.900024 446.200012 806.900024 C 437.399994 805.900024 353.799988 791.799988 353.799988 791.799988 L 353.5 778.400024 L 364.799988 776.400024 L 448.299988 788.5 L 474.399994 784.299988 Z"/>
    <path id="path13" fill="#626467" stroke="none" d="M 937.200012 895.200012 L 1209.900024 790.299988 L 1211.300049 782.5 L 935.900024 885.099976 L 937.200012 895.200012 Z"/>
    <path id="path14" fill="#35393a" stroke="none" d="M 524.400024 674.5 L 523.5 698.599976 L 1329.599976 596.799988 L 1330.599976 585.799988 L 524.400024 674.5 Z"/>
    <path id="path15" fill="#35393a" stroke="none" d="M 860.39502 947.487 C 880.471985 871.390991 846.877014 796.546021 785.359985 780.315979 C 723.843018 764.085999 657.697998 812.616028 637.620972 888.711975 C 617.544983 964.807007 651.138977 1039.650024 712.656006 1055.880005 C 774.174011 1072.109985 840.31897 1023.580017 860.39502 947.487 Z"/>
    <path id="path16" fill="#35393a" stroke="none" d="M 536.5 681.599976 L 536.099976 692 L 1331.099976 592.400024 L 1331.300049 587.599976 L 536.5 681.599976 Z"/>
    <path id="path17" fill="#000000" stroke="none" d="M 957.599976 458.900024 L 956 531.799988 L 936.200012 540 L 957.599976 458.900024 Z"/>
    <path id="path18" fill="#35393a" stroke="none" d="M 1185.400024 756.599976 L 912.200012 846.599976 L 912.599976 854.200012 L 1185.300049 760.299988 L 1185.400024 756.599976 Z"/>
    <path id="path19" fill="#242627" stroke="none" d="M 1240.099976 629.799988 C 1240.099976 629.799988 1244.699951 621.900024 1253 622.200012 L 1267.400024 622.700012 C 1270.800049 622.799988 1273 626.400024 1271.599976 629.5 C 1259.199951 655.799988 1214.599976 748.700012 1210.099976 752 C 1208 753.5 1185.400024 760.200012 1185.400024 760.200012 L 1183.5 746.799988 L 1190.800049 744.599976 L 1240.099976 629.799988 Z"/>
    <path id="path20" fill="#242627" stroke="none" d="M 910.900024 830.5 L 1190.599976 744.700012 L 1183.900024 739.599976 L 909.5 821.400024 L 910.900024 830.5 Z"/>
    <path id="path21" fill="#242627" stroke="none" d="M 1332.5 546.700012 C 1332.5 546.700012 1331.599976 547.200012 1331.599976 547.799988 L 1331.599976 547.900024 L 936.099976 565.900024 L 934.700012 566 L 916.099976 566.799988 C 917.5 566.5 918.900024 566 920.299988 565.5 L 934.400024 564.900024 L 935.599976 564.799988 L 1332.5 546.700012 Z"/>
    <path id="path22" fill="#5b5e5f" stroke="none" d="M 999.400024 300.299988 L 931.400024 558.299988 C 931.400024 558.299988 920.799988 568.099976 910.700012 567.200012 L 911.200012 554.299988 L 883.5 533 C 883.5 533 594.200012 519.200012 521.5 529.5 L 606.900024 352.299988 C 608.299988 349.299988 611.099976 347.299988 614.400024 346.700012 L 615.299988 346.599976 C 617 342.200012 620.799988 338.900024 625.400024 338 C 670.099976 329 902.900024 282.700012 980.5 280.099976 C 982.5 280 984.599976 280 986.799988 280 C 995 283.599976 1002.200012 289.900024 999.400024 300.299988 Z"/>
    <path id="path23" fill="#35393a" stroke="none" d="M 997.900024 307.099976 L 1310.5 381.099976 L 1310.699951 377 L 999.400024 300.299988 L 997.900024 307.099976 Z"/>
    <path id="path24" fill="#000000" stroke="none" d="M 961 329 L 937 414.700012 L 920 475.5 C 917.200012 485.400024 909.5 492.799988 899.900024 495.5 C 897.700012 496.099976 895.299988 496.400024 893 496.5 L 871.5 496.900024 L 771.200012 499 L 729.799988 499.900024 L 590.599976 502.799988 L 562 503.400024 C 555 503.5 550.400024 496.200012 553.5 490 L 610.599976 374.200012 C 613 369.200012 617.799988 365.799988 623.299988 365 L 952.599976 319.400024 C 958.099976 318.5 962.599976 323.599976 961 329 Z"/>
    <path id="path25" fill="none" stroke="#000000" stroke-width="1.7072" d="M 910.700012 567.200012 L 976.700012 320 C 976.700012 320 980.5 300.599976 962.200012 303.200012 C 943.900024 305.799988 623.5 354.5 623.5 354.5 C 623.5 354.5 609.700012 357.200012 602.799988 369.400024 C 595.900024 381.599976 523.200012 535.900024 523.200012 535.900024"/>
    <path id="path26" fill="#000000" stroke="none" d="M 736.200012 394.700012 L 729.799988 499.799988 L 590.599976 502.700012 C 586.900024 499.200012 578.900024 491.599976 581.799988 483.400024 C 584.900024 474.700012 618.799988 400.5 628 380.599976 C 629.299988 377.700012 632.400024 376 635.599976 376.400024 L 731 388.299988 C 734.099976 388.700012 736.400024 391.5 736.200012 394.700012 Z"/>
    <path id="path27" fill="#000000" stroke="none" d="M 871.599976 496.900024 L 771.200012 499 L 774.799988 400.5 C 774.900024 397.099976 777.900024 394.5 781.299988 394.900024 L 866.400024 405.5 C 869.900024 405.900024 872.599976 408.900024 872.5 412.400024 L 872 458 L 871.599976 496.900024 Z"/>
    <path id="path28" fill="#000000" stroke="none" d="M 937.099976 414.700012 L 920.099976 475.5 C 917.299988 485.400024 909.599976 492.799988 900 495.5 L 901 415 C 901 412.400024 903.299988 410.400024 905.900024 410.799988 L 937.099976 414.700012 Z"/>
    <path id="path29" fill="#000000" stroke="none" d="M 874.599976 496.900024 L 767.799988 499.099976 L 768.299988 484.900024 C 782.799988 477.400024 799.200012 476.299988 799.200012 476.299988 C 799.200012 476.299988 779.099976 469.700012 778 454.599976 C 776.900024 439.599976 786.400024 429.200012 791.299988 427.200012 C 795.299988 425.599976 819.299988 425.400024 828 425.400024 C 830.299988 425.400024 832.599976 426 834.700012 427.099976 C 852.400024 436.5 857.299988 457.5 857.299988 457.5 L 874.700012 458.099976 L 874.599976 496.900024 Z"/>
    <path id="path30" fill="#242627" stroke="none" d="M 1319.5 371 C 1317.800049 374.599976 1314.800049 374.900024 1303.900024 372.299988 C 1293 369.799988 998.5 289.599976 998.5 289.599976 L 995.700012 285.799988 L 1304.199951 370.900024 C 1304.199951 370.900024 1316.400024 374.599976 1318.400024 370.700012 C 1319.5 368.5 1318.300049 365.200012 1317.199951 363 L 1317.300049 363 L 1317.400024 363 C 1318.699951 365.5 1320.400024 369 1319.5 371 Z"/>
    <path id="path31" fill="#000000" stroke="none" d="M 1252.300049 340.700012 C 1252.300049 340.700012 1271 338.200012 1273.800049 340.400024 C 1276.5 342.599976 1278.699951 352.799988 1281.5 354.900024 C 1284.199951 357 1312.699951 362.200012 1312.699951 362.200012 C 1312.699951 362.200012 1307.900024 364.700012 1306.800049 364.900024 C 1305.699951 365.099976 1279.400024 359.5 1277.900024 357.099976 C 1276.400024 354.799988 1271.300049 344 1261 341.900024 C 1250.599976 339.799988 1252.300049 340.700012 1252.300049 340.700012 Z"/>
    <path id="path32" fill="none" stroke="#000000" stroke-width="6.8288" d="M 952.5 319.299988 L 623.200012 364.900024 C 617.700012 365.700012 612.900024 369.099976 610.5 374.099976 L 553.5 489.900024 C 550.400024 496.200012 555.099976 503.5 562 503.299988 L 893.099976 496.400024 C 905.700012 496.099976 916.700012 487.599976 920.099976 475.400024 L 961 329 C 962.5 323.599976 958.099976 318.5 952.5 319.299988 Z"/>
    <path id="path33" fill="#242627" stroke="none" d="M 893.900024 730.099976 L 1218.800049 663.700012 L 1216.800049 658.200012 L 888.599976 722.900024 L 893.900024 730.099976 Z"/>
    <path id="path34" fill="none" stroke="#000000" stroke-width="1.7072" d="M 1123 336.700012 C 1123.300049 340 1129.400024 556.400024 1129.400024 556.400024 C 1129.400024 556.400024 1132.699951 558 1132.5 563.200012 C 1132.300049 568.400024 1128.400024 621 1128.400024 621 L 1125.900024 622.700012 L 1122.800049 676.299988 L 1125.199951 682.400024 L 1120.400024 706.799988 L 1116.400024 759.200012"/>
    <path id="path35" fill="none" stroke="#000000" stroke-width="1.7072" d="M 1115.699951 336.400024 C 1116 339.700012 1122.099976 556.099976 1122.099976 556.099976 C 1122.099976 556.099976 1125.400024 557.700012 1125.199951 562.900024 C 1125 568.099976 1121.099976 620.700012 1121.099976 620.700012 L 1118.599976 622.400024 L 1115.199951 678 L 1117.599976 684.099976 L 1106.099976 762.799988"/>
    <path id="path36" fill="#000000" stroke="none" d="M 933.799988 647.900024 L 930 714.5 L 933 721.599976 L 933 721.700012 L 926.299988 816.900024 L 925.099976 816.799988 L 931.799988 721.700012 L 928.799988 714.599976 L 928.799988 714.5 L 932.599976 647.400024 L 937.900024 641.200012 L 938.299988 628.900024 L 935.400024 626.700012 L 937.400024 570.299988 L 934.5 566 L 934.200012 565.599976 L 934.200012 565.400024 C 934.200012 565.299988 934.200012 565.099976 934.200012 564.799988 C 934.200012 562.099976 934.400024 552.700012 934.599976 545.299988 L 936 540 C 935.799988 546.099976 935.5 557.900024 935.400024 564.700012 C 935.400024 564.900024 935.400024 565 935.400024 565.200012 L 935.900024 565.900024 L 938.599976 569.900024 L 936.599976 626 L 939.5 628.200012 L 939 641.599976 L 933.799988 647.900024 Z"/>
    <path id="path37" fill="none" stroke="#35393a" stroke-width="1.7072" d="M 909.5 821.400024 L 1183.800049 739.599976 L 1218.699951 663.599976 L 1216.800049 658.200012 L 1232.900024 613.200012 L 1236 594.5 L 1237.300049 557.400024 C 1237.300049 557.400024 1239.599976 556.5 1239.599976 555.5 C 1239.599976 554.5 1239.300049 552.5 1238 551 L 1229.199951 360.200012"/>
    <path id="path38" fill="#242627" stroke="none" d="M 937.200012 895.200989 L 937 899.599976 L 934.299988 900.401001 C 932.5 900.901001 930.5 900.400024 929.200012 899 L 902.099976 871 C 902.099976 871 902.200012 806 890.799988 765.200989 C 879.400024 724.401001 866.400024 701.400024 853.400024 699.299988 C 840.400024 697.200012 706.700012 713.799988 685.900024 739.299988 C 666.799988 762.700012 599.200012 906.099976 588.400024 929.099976 L 570 930.599976 C 570 930.599976 641.799988 766.700012 666.400024 738.099976 C 691 709.5 713.799988 703.901001 713.799988 703.901001 C 713.799988 703.901001 786.299988 686.700012 823.5 681.599976 C 860.700012 676.5 871.599976 687.099976 871.599976 687.099976 C 906.400024 717.299988 912.700012 854.299988 912.700012 854.299988 L 934.900024 877.599976 L 937.200012 895.200989 Z"/>
    <path id="path39" fill="none" stroke="#000000" stroke-width="1.7072" d="M 961.599976 467.599976 L 997 330.900024 C 998.099976 326.5 1002.5 323.799988 1006.900024 324.799988 L 1103.099976 344.799988 C 1106.699951 345.599976 1109.400024 348.700012 1109.5 352.5 L 1113.099976 518.5 C 1113.199951 523.299988 1109.300049 527.200012 1104.5 527 L 959.700012 521.799988 L 961.599976 467.599976 Z"/>
    <path id="path40" fill="#242627" stroke="none" d="M 831.299988 669.700012 C 833.700012 669.5 671.700012 687.299988 644.299988 702.400024 C 617.799988 717 606 739.299988 590.400024 767.900024 C 574.900024 796.5 562.5 828.200012 556.599976 833.599976 L 548.299988 833.299988 C 548.299988 833.299988 576.700012 777.900024 584 764.900024 C 603.599976 730.400024 619.5 703.700012 641.400024 697 C 665.400024 689.599976 706.900024 678.900024 831.299988 669.700012 Z"/>
    <path id="path41" fill="#000000" stroke="none" d="M 964.700012 468.299988 L 1000.900024 337.400024 C 1002.099976 333.099976 1006.299988 330.5 1010.700012 331.400024 L 1097.099976 348.700012 C 1100.900024 349.5 1103.599976 352.799988 1103.5 356.700012 L 1100.199951 514.299988 C 1100.099976 518.900024 1096.199951 522.599976 1091.599976 522.400024 L 962.900024 517.700012 L 964.700012 468.299988 Z"/>
    <path id="path42" fill="#ffffff" stroke="none" opacity="0.1" d="M 1025.800049 393.900024 L 1032 502.5 L 1027 502.299988 L 1025.800049 393.900024 Z"/>
    <path id="path43" fill="#181818" stroke="none" d="M 1072.699951 510.099976 C 1072.599976 511.799988 1072.400024 513.5 1072.199951 515 C 1071.599976 518.700012 1070.400024 521.799988 1068.400024 523.099976 C 1068.300049 523.200012 1068.199951 523.200012 1068.099976 523.299988 C 1066.699951 524.099976 1060.400024 524.700012 1051.599976 525.299988 L 1051.5 525.299988 C 1027.099976 526.900024 984.200012 527.900024 978 528 L 977.299988 528 L 976.299988 554.599976 C 976.200012 557.400024 973.900024 559.700012 971.099976 559.700012 C 969 559.700012 966.599976 559.799988 964.200012 559.700012 C 960.400024 559.599976 956.900024 559.400024 955.799988 558.799988 C 953.400024 557.599976 947.200012 537.400024 945.299988 531 C 944.900024 529.799988 944.900024 528.5 945.099976 527.200012 L 946.400024 521 L 947 518.400024 C 947.099976 517.700012 947.400024 517.099976 947.700012 516.5 C 948.700012 514.599976 950.599976 513.200012 952.700012 512.700012 L 960 511.299988 L 960.799988 511.099976 L 961.700012 510.900024 C 961.700012 510.900024 963.299988 481.200012 963.799988 475 C 964.299988 468.799988 973.099976 456.299988 997.400024 456.900024 C 1015 457.299988 1041.900024 463 1055.599976 466.099976 C 1060.900024 467.299988 1065.199951 471.400024 1066.599976 476.700012 C 1068.199951 482.5 1070.199951 490 1071.300049 495 C 1072 498.299988 1072.5 502.400024 1072.599976 506.5 C 1072.599976 506.900024 1072.599976 507.299988 1072.599976 507.700012 C 1072.800049 508.700012 1072.699951 509.400024 1072.699951 510.099976 Z"/>
    <path id="path44" fill="#242627" stroke="none" d="M 1072.699951 510.099976 L 947.700012 516.700012 C 948.700012 514.799988 950.599976 513.400024 952.700012 512.900024 L 960.900024 511.299988 L 1072.699951 506.799988 C 1072.800049 507.900024 1072.800049 509 1072.699951 510.099976 Z"/>
    <path id="path45" fill="none" stroke="#000000" stroke-width="1.7072" d="M 1140.800049 524.900024 L 1131.5 355.599976 C 1131.400024 353.400024 1133.400024 351.599976 1135.599976 352.099976 L 1217.300049 369.700012 C 1219.800049 370.200012 1221.599976 372.400024 1221.699951 374.900024 L 1228.699951 520.900024 C 1228.900024 525 1225.599976 528.5 1221.5 528.5 L 1144.5 528.400024 C 1142.5 528.400024 1140.900024 526.799988 1140.800049 524.900024 Z"/>
    <path id="path46" fill="#000000" stroke="none" d="M 1143.199951 520.099976 L 1134.900024 361.700012 C 1134.800049 359.5 1136.800049 357.700012 1139 358.200012 L 1212.599976 374.099976 C 1215.099976 374.599976 1216.900024 376.799988 1217 379.299988 L 1222 516.599976 C 1222.199951 520.700012 1218.800049 524.099976 1214.699951 524.099976 L 1146.699951 523.5 C 1144.900024 523.599976 1143.300049 522.099976 1143.199951 520.099976 Z"/>
    <path id="path47" fill="none" stroke="#000000" stroke-width="1.7072" d="M 1246.900024 525 L 1239.699951 379.400024 C 1239.599976 377.5 1241.300049 376 1243 376.400024 L 1309.199951 391.400024 C 1311.199951 391.900024 1312.699951 393.700012 1312.800049 395.799988 L 1322.099976 521.400024 C 1322.300049 524.900024 1319.599976 527.900024 1316.199951 527.900024 L 1249.900024 527.900024 C 1248.300049 528 1247 526.700012 1246.900024 525 Z"/>
    <path id="path48" fill="#000000" stroke="none" d="M 1248.800049 520.5 L 1242.400024 384.799988 C 1242.300049 382.900024 1244 381.400024 1245.699951 381.799988 L 1305.400024 395.299988 C 1307.400024 395.799988 1308.900024 397.599976 1309 399.799988 L 1315.699951 518 C 1315.800049 521.5 1313.099976 524.400024 1309.800049 524.400024 L 1251.800049 523.400024 C 1250.199951 523.5 1248.900024 522.200012 1248.800049 520.5 Z"/>
    <path id="path49" fill="#626467" stroke="none" d="M 934.799988 877.599976 L 1214.900024 770.5 L 1209 770.299988 L 927 869.299988 L 934.799988 877.599976 Z"/>
    <path id="path50" fill="#242627" stroke="none" d="M 1190.599976 744.700012 C 1190.599976 744.700012 1244.699951 619.799988 1245.699951 618.900024 C 1253.300049 612.299988 1288.800049 609.299988 1288.800049 609.299988 C 1288.800049 609.299988 1249.900024 609.5 1243.400024 618.099976 C 1236.900024 626.700012 1187.900024 742.700012 1187.900024 742.700012 L 1190.599976 744.700012 Z"/>
    <path id="path51" fill="#35393a" stroke="none" d="M 911.700012 840.400024 L 1185.5 754.200012 L 1183.300049 746.900024 L 910.900024 830.5 L 911.700012 840.400024 Z"/>
    <path id="path52" fill="#000000" stroke="none" d="M 1072.199951 515 C 1071.599976 518.700012 1070.400024 521.799988 1068.400024 523.099976 C 1068.300049 523.200012 1068.199951 523.200012 1068.099976 523.299988 C 1066.699951 524.099976 1060.400024 524.700012 1051.599976 525.299988 L 1051.5 525.299988 C 1027.099976 526.900024 984.200012 527.900024 978 528 L 977.299988 528 L 976.299988 554.599976 C 976.200012 557.400024 973.900024 559.700012 971.099976 559.700012 C 969 559.700012 966.599976 559.799988 964.200012 559.700012 C 960.400024 559.599976 956.900024 559.400024 955.799988 558.799988 C 953.400024 557.599976 947.200012 537.400024 945.299988 531 C 944.900024 529.799988 944.900024 528.5 945.099976 527.200012 L 946.400024 521 C 979.799988 519.200012 1044.5 516.299988 1072.199951 515 Z"/>
    <path id="path53" fill="none" stroke="#000000" stroke-width="1.7072" d="M 883.200012 536.5 L 907.099976 555.799988 L 906.700012 566.5 L 913.299988 572.400024 L 891.799988 632.099976 L 895.400024 635.099976 L 891.299988 647.5 L 884.400024 648.400024 L 871.5 687"/>
    <path id="path54" fill="#0b0b0b" stroke="none" d="M 906.700012 566.5 L 455.5 630.700012 L 415.799988 624 L 906.900024 561.700012 L 906.700012 566.5 Z"/>
    <path id="path55" fill="#242627" stroke="none" d="M 455.5 630.700012 L 513.099976 638.900024 L 913.299988 572.400024 L 906.700012 566.5 L 455.5 630.700012 Z"/>
    <path id="path56" fill="#000000" stroke="none" d="M 937.099976 608.400024 C 935.299988 608.299988 933.799988 606.799988 933.900024 605 L 934.900024 576.5 C 935 574.700012 936.5 573.200012 938.299988 573.299988 C 940.099976 573.400024 941.599976 574.900024 941.5 576.700012 L 940.5 605.200012 C 940.400024 607 938.900024 608.5 937.099976 608.400024 Z"/>
    <path id="path57" fill="#000000" stroke="none" d="M 1130.099976 595.599976 C 1128.900024 595.5 1128 594.400024 1128 593.200012 L 1129.900024 568 C 1130 566.799988 1131.099976 565.900024 1132.300049 565.900024 C 1133.5 566 1134.400024 567.099976 1134.400024 568.299988 L 1132.5 593.5 C 1132.400024 594.799988 1131.300049 595.700012 1130.099976 595.599976 Z"/>
    <path id="path58" fill="#000000" stroke="none" d="M 1236.5 581.200012 C 1235.300049 581.200012 1234.300049 580.099976 1234.400024 578.900024 L 1235 561.900024 C 1235 560.700012 1236.099976 559.700012 1237.300049 559.799988 C 1238.5 559.799988 1239.5 560.900024 1239.400024 562.099976 L 1238.800049 579.099976 C 1238.800049 580.299988 1237.699951 581.200012 1236.5 581.200012 Z"/>
    <path id="path59" fill="#000000" stroke="none" d="M 931.400024 746.5 C 929.599976 746.400024 928.099976 744.900024 928.200012 743.099976 L 928.799988 727.200012 C 928.900024 725.400024 930.400024 723.900024 932.200012 724 C 934 724.099976 935.5 725.599976 935.400024 727.400024 L 934.799988 743.299988 C 934.799988 745.099976 933.299988 746.5 931.400024 746.5 Z"/>
    <path id="path60" fill="#000000" stroke="none" d="M 1121 704.900024 C 1119.199951 704.5 1118 702.799988 1118.400024 701 L 1121 688.099976 C 1121.400024 686.299988 1123.099976 685.099976 1124.900024 685.5 C 1126.699951 685.900024 1127.900024 687.599976 1127.5 689.400024 L 1124.900024 702.299988 C 1124.599976 704.099976 1122.800049 705.299988 1121 704.900024 Z"/>
    <path id="path61" fill="#000000" stroke="none" d="M 1092.099976 607.5 L 1090.099976 623.900024 C 1089.800049 626.799988 1092.199951 629.200012 1095 628.900024 L 1100.5 628.299988 C 1102.5 628.099976 1104.099976 626.5 1104.400024 624.5 L 1106.800049 608.299988 C 1107.199951 605.5 1104.900024 602.900024 1102 603.200012 L 1096.099976 603.700012 C 1094 603.700012 1092.300049 605.400024 1092.099976 607.5 Z"/>
    <path id="path62" fill="#626467" stroke="none" d="M 931.599976 634.900024 L 931.299988 642.400024 L 903.799988 646 C 903.799988 646 904.299988 638.099976 906.200012 637.900024 C 908.200012 637.599976 931.599976 634.900024 931.599976 634.900024 Z"/>
    <path id="path63" fill="#181818" stroke="none" d="M 1124.099976 615.5 L 1123.900024 622.099976 C 1123.900024 623.200012 1123 624.099976 1122 624.200012 L 1092.800049 628.099976 C 1092.400024 628.099976 1092 628.099976 1091.699951 628 L 1087 626.200012 C 1086.099976 625.900024 1085.5 625 1085.599976 624 L 1085.900024 615.299988 C 1085.900024 615.200012 1085.900024 615 1085.900024 614.900024 C 1086.099976 613.700012 1087.300049 612.900024 1088.599976 613.200012 L 1093.599976 614.299988 C 1093.900024 614.400024 1094.099976 614.400024 1094.400024 614.299988 L 1119.800049 611.299988 C 1122.099976 611.200012 1124.199951 613.099976 1124.099976 615.5 Z"/>
    <path id="path64" fill="#000000" stroke="none" d="M 1121.699951 613.799988 L 1093.699951 618.099976 L 1085.900024 615.799988 L 1085.900024 615.299988 C 1085.900024 615.200012 1085.900024 615 1085.900024 614.900024 C 1089 615.700012 1093.699951 617 1093.699951 617 L 1121.699951 613.799988 Z"/>
    <path id="path65" fill="#626467" stroke="none" d="M 1119.099976 621.599976 C 1117.900024 621.599976 1116.900024 620.5 1116.900024 619.299988 L 1116.900024 618 C 1116.900024 616.799988 1118 615.799988 1119.199951 615.799988 C 1120.400024 615.799988 1121.400024 616.900024 1121.400024 618.099976 L 1121.400024 619.400024 C 1121.400024 620.700012 1120.400024 621.700012 1119.099976 621.599976 Z"/>
    <path id="path66" fill="#000000" stroke="none" d="M 1217 595.5 L 1215.599976 608.299988 C 1215.400024 610.5 1217 612.400024 1219 612.200012 L 1222.699951 611.700012 C 1224.099976 611.5 1225.199951 610.299988 1225.400024 608.700012 L 1227.099976 596.099976 C 1227.400024 593.900024 1225.800049 591.900024 1223.800049 592.099976 L 1219.699951 592.5 C 1218.300049 592.599976 1217.099976 593.900024 1217 595.5 Z"/>
    <path id="path67" fill="#181818" stroke="none" d="M 1238.900024 600.5 L 1238.699951 605 C 1238.699951 605.799988 1238.099976 606.400024 1237.400024 606.5 L 1217.400024 609.200012 C 1217.199951 609.200012 1216.900024 609.200012 1216.599976 609.099976 L 1213.400024 607.900024 C 1212.800049 607.700012 1212.400024 607.099976 1212.400024 606.400024 L 1212.599976 600.5 C 1212.599976 600.400024 1212.599976 600.299988 1212.599976 600.200012 C 1212.800049 599.400024 1213.599976 598.799988 1214.400024 599 L 1217.800049 599.799988 C 1218 599.799988 1218.099976 599.900024 1218.300049 599.799988 L 1235.699951 597.799988 C 1237.599976 597.599976 1239 598.900024 1238.900024 600.5 Z"/>
    <path id="path68" fill="#000000" stroke="none" d="M 1237.199951 599.400024 L 1218 602.400024 L 1212.699951 600.900024 L 1212.699951 600.599976 C 1212.699951 600.5 1212.699951 600.400024 1212.699951 600.299988 C 1214.800049 600.900024 1218.099976 601.700012 1218.099976 601.700012 L 1237.199951 599.400024 Z"/>
    <path id="path69" fill="#626467" stroke="none" d="M 1235.5 604.700012 C 1234.599976 604.700012 1234 603.900024 1234 603.099976 L 1234 602.200012 C 1234 601.299988 1234.800049 600.700012 1235.599976 600.700012 C 1236.5 600.700012 1237.099976 601.5 1237.099976 602.299988 L 1237.099976 603.200012 C 1237.099976 604.099976 1236.300049 604.799988 1235.5 604.700012 Z"/>
    <path id="path70" fill="#000000" stroke="none" d="M 816.700012 599.799988 L 809.5 629.099976 C 808.799988 632 811.200012 634.700012 814.200012 634.299988 L 874 625.799988 C 877.200012 625.299988 879.799988 623.099976 880.900024 620.099976 L 891.200012 589.599976 C 892.299988 586.200012 889.5 582.900024 886 583.400024 L 822.900024 594.099976 C 819.799988 594.700012 817.400024 596.900024 816.700012 599.799988 Z"/>
    <path id="path71" fill="#242627" stroke="none" d="M 817.5 600.5 L 810.599976 628.299988 C 809.900024 631.099976 812.200012 633.599976 815 633.200012 L 871.700012 625.099976 C 874.700012 624.700012 877.200012 622.599976 878.200012 619.700012 L 888 590.799988 C 889.099976 587.599976 886.400024 584.400024 883 585 L 823.299988 595 C 820.5 595.5 818.200012 597.700012 817.5 600.5 Z"/>
    <path id="path72" fill="#000000" stroke="none" d="M 819 604.200012 L 813.799988 624.700012 C 813.200012 627.200012 815.299988 629.599976 817.900024 629.200012 L 871 620.799988 C 873.799988 620.400024 876.099976 618.5 877 615.799988 L 884.099976 595.200012 C 885.099976 592.200012 882.599976 589.299988 879.5 589.799988 L 824.299988 599.099976 C 821.700012 599.700012 819.599976 601.700012 819 604.200012 Z"/>
    <path id="path73" fill="#242627" stroke="none" d="M 817.299988 606.5 L 884.299988 596 L 885.200012 594.299988 L 817.299988 604.799988 L 817.299988 606.5 Z"/>
    <path id="path74" fill="#242627" stroke="none" d="M 815.599976 613.299988 L 882.599976 602.799988 L 883.5 601 L 815.700012 611.599976 L 815.599976 613.299988 Z"/>
    <path id="path75" fill="#242627" stroke="none" d="M 814.5 619.299988 L 881.5 608.799988 L 882.400024 607 L 814.5 617.5 L 814.5 619.299988 Z"/>
    <path id="path76" fill="#242627" stroke="none" d="M 812.599976 625.900024 L 878.400024 615.599976 L 879.299988 613.799988 L 812.700012 624.099976 L 812.599976 625.900024 Z"/>
    <path id="path77" fill="#242627" stroke="none" d="M 733.799988 699.200012 C 733.799988 699.200012 682.299988 714.400024 633.5 709.299988 L 612.400024 719.799988 L 556.700012 833.5 L 561.400024 836.599976 L 562.5 850 L 573.5 857.900024 L 573.200012 865.900024 L 550.599976 931 L 569.900024 930.400024 L 681.5 741.099976 L 733.799988 699.200012 Z"/>
    <path id="path78" fill="#242627" stroke="none" d="M 561.400024 836.700012 C 561.400024 836.700012 485.399994 846.799988 464.600006 845 C 443.700012 843.200012 338.200012 825.700012 338.200012 825.700012 L 330.299988 836.900024 C 330.299988 836.900024 439 856.900024 463.600006 857.299988 C 488.200012 857.700012 562.5 850.200012 562.5 850.200012 L 561.400024 836.700012 Z"/>
    <path id="path79" fill="#242627" stroke="none" d="M 299.799988 850.200012 C 299.799988 850.200012 426.399994 879.099976 462.899994 877.200012 C 499.399994 875.299988 573.200012 866.200012 573.200012 866.200012 L 573.5 858.200012 C 573.5 858.200012 470.100006 870 463.200012 869.200012 C 456.299988 868.400024 340.399994 853.900024 316 845 L 330.200012 836.900024 L 338.100006 825.700012 L 299.799988 850.200012 Z"/>
    <path id="path80" fill="#242627" stroke="none" d="M 588.400024 929.099976 L 590 933.700012 C 590 933.700012 528 941.5 487.200012 939.599976 C 487.200012 939.599976 495.600006 931.099976 553 924.400024 L 552.299988 929.900024 L 588.400024 929.099976 Z"/>
    <path id="path81" fill="#5b5e5f" stroke="none" d="M 900.200012 531.099976 L 388.5 591.099976 L 201.199997 578.799988 L 183 591.799988 L 182.800003 597.700012 L 180.699997 595.599976 L 180.600006 593.099976 C 180.5 590.799988 181.300003 588.599976 182.800003 586.900024 C 187.5 581.700012 197.699997 570.599976 200.100006 570.5 C 202.699997 570.400024 222.600006 569.299988 229.899994 568.900024 C 231.399994 568.799988 232.699997 570 232.800003 571.400024 L 253.800003 568.700012 L 282.399994 556.900024 C 282.399994 556.900024 442.399994 532.599976 521.400024 529.599976 L 522 528.299988 L 526.400024 529 C 578.5 525 900.200012 531.099976 900.200012 531.099976 Z"/>
    <path id="path82" fill="#35393a" stroke="none" d="M 350.700012 584.200012 L 399.200012 563.700012 L 642.5 539.299988 L 399.600006 580.900024 L 350.700012 584.200012 Z"/>
    <path id="path83" fill="#5b5e5f" stroke="none" d="M 388.5 591.099976 L 378.100006 612.299988 L 183.100006 591.900024 L 201.300003 578.799988 L 388.5 591.099976 Z"/>
    <path id="path84" fill="#35393a" stroke="none" d="M 183.100006 591.900024 L 182.600006 605.200012 L 378.299988 627.900024 L 378.100006 612.299988 L 183.100006 591.900024 Z"/>
    <path id="path85" fill="#5b5e5f" stroke="none" d="M 378.100006 612.299988 L 906.900024 561.700012 L 455.5 630.700012 L 406.700012 623.299988 L 378.299988 627.900024 L 378.100006 612.299988 Z"/>
    <path id="path86" fill="#0b0b0b" stroke="none" d="M 303.759003 575.03302 C 309.776001 572.833984 314.039001 569.369019 313.281006 567.294006 C 312.522003 565.218994 307.029999 565.320007 301.013 567.52002 C 294.996002 569.718994 290.733002 573.184021 291.490997 575.258972 C 292.25 577.333984 297.742004 577.232971 303.759003 575.03302 Z"/>
    <path id="path87" fill="#181818" stroke="none" d="M 303.359009 573.749023 C 308.858002 571.739014 312.746002 568.554016 312.045013 566.63501 C 311.342987 564.715027 306.316986 564.789001 300.819 566.799011 C 295.321014 568.807983 291.432007 571.992981 292.132996 573.913025 C 292.834991 575.83197 297.860992 575.757996 303.359009 573.749023 Z"/>
    <path id="path88" fill="#242627" stroke="none" d="M 459.812012 711.726013 C 460.812012 684.075989 449.678009 661.229004 434.942993 660.695007 C 420.207001 660.161987 407.450012 682.143982 406.449005 709.794006 C 405.447998 737.445007 416.582001 760.291992 431.317993 760.825012 C 446.053986 761.359009 458.811005 739.375977 459.812012 711.726013 Z"/>
    <path id="path89" fill="#626467" stroke="none" d="M 459.84201 711.494995 C 460.751007 686.383972 450.661011 665.63501 437.304993 665.151978 C 423.949005 664.669006 412.38501 684.632996 411.476013 709.744995 C 410.566986 734.856018 420.657013 755.60498 434.013 756.088013 C 447.368988 756.572021 458.933014 736.606995 459.84201 711.494995 Z"/>
    <path id="path90" fill="#242627" stroke="none" d="M 445.872986 709.900024 C 446.303009 698.033997 442.445007 688.263 437.256989 688.075012 C 432.070007 687.887024 427.515991 697.354004 427.085999 709.219971 C 426.657013 721.085999 430.514008 730.856995 435.701996 731.044983 C 440.890015 731.232971 445.444 721.765991 445.872986 709.900024 Z"/>
    <path id="path91" fill="#626467" stroke="none" d="M 445.828003 710.494019 C 446.196991 700.283997 442.872986 691.875977 438.402008 691.713989 C 433.932007 691.552979 430.007996 699.697998 429.639008 709.90802 C 429.269012 720.119019 432.593994 728.526978 437.063995 728.689026 C 441.533997 728.849976 445.458008 720.705017 445.828003 710.494019 Z"/>
    <path id="path92" fill="none" stroke="#000000" stroke-width="1.7072" d="M 169 742.700012 L 202.300003 757.299988 C 218.800003 764.599976 235.899994 770.599976 253.300003 775.299988 L 352.299988 802 C 352.299988 802 433.200012 823 472.700012 819.200012 C 512.200012 815.400024 510 778.400024 510 778.400024 L 513.099976 638.799988 L 406.600006 623.200012 C 406.600006 623.200012 387 624.599976 378.299988 627.799988 C 378.299988 627.799988 351.299988 636.299988 348.399994 645.599976 C 345.5 654.900024 346.799988 800.200012 346.799988 800.200012"/>
    <path id="path93" fill="#0b0b0b" stroke="none" d="M 232.899994 737.700012 C 223.699997 735.900024 215.5 718.299988 214.100006 696.5 C 212.699997 674.700012 218.600006 656.299988 227.5 653.299988 C 236.699997 655.099976 244.899994 672.700012 246.300003 694.5 C 247.699997 716.299988 241.800003 734.799988 232.899994 737.700012 Z"/>
    <path id="path94" fill="none" stroke="#000000" stroke-width="1.7072" d="M 509.600006 751.400024 L 598.200012 740.700012"/>
    <path id="path95" fill="#000000" stroke="none" d="M 334.399994 765.400024 C 334.399994 769.200012 331.399994 772.200012 327.600006 772.099976 C 252.800003 770.700012 190.5 736.099976 172.100006 724.799988 C 168.300003 722.5 165.5 718.700012 164.5 714.400024 C 159.5 693.5 157.300003 650.400024 156.600006 633.299988 C 156.5 629.299988 159.800003 626.099976 163.800003 626.5 C 198.300003 629.599976 293.899994 646.400024 324 651.799988 C 329.299988 652.799988 333.299988 657.400024 333.299988 662.799988 L 333.299988 665.799988 L 333.5 681.099976 L 333.799988 704.700012 L 333.799988 706.900024 L 334 721.900024 L 334.200012 742.099976 L 334.399994 757.299988 L 334.399994 765.400024 Z"/>
    <path id="path96" fill="#626467" stroke="none" d="M 333.899994 721.900024 C 266.5 712.5 161.600006 681.299988 161.600006 681.299988 C 162.600006 672.700012 164.800003 670 164.800003 670 C 209.699997 684.400024 294.100006 698.5 333.700012 704.700012 L 333.700012 706.900024 L 333.899994 721.900024 Z"/>
    <path id="path97" fill="#626467" stroke="none" d="M 334.299988 757.299988 C 257.299988 752.5 168.100006 713.099976 168.100006 713.099976 C 166.300003 706.700012 170.5 701.299988 170.5 701.299988 C 215.300003 722.299988 309.399994 738.200012 334.100006 742.200012 L 334.299988 757.299988 Z"/>
    <path id="path98" fill="#626467" stroke="none" d="M 333.5 681.099976 C 261 675.200012 159.600006 649 159.600006 649 C 158.300003 641.299988 162 638.900024 162 638.900024 L 333.399994 665.799988 L 333.5 681.099976 Z"/>
    <path id="path99" fill="#000000" stroke="none" d="M 225.399994 734.700012 L 229.800003 738.099976 L 234.300003 739.200012 L 242.399994 732.900024 L 250.199997 712.700012 C 250.199997 712.700012 253.100006 692.900024 250.899994 693.400024 C 248.699997 693.900024 247.699997 675 247.600006 674.400024 C 247.399994 673.799988 242.399994 662.700012 242.399994 662.700012 L 236.300003 654.599976 L 229.5 651.5 L 225.100006 652 L 219.199997 658.900024 L 214.699997 668.5 L 212.199997 679.299988 C 212.199997 679.299988 210.899994 693.599976 211.100006 693.700012 C 211.300003 693.799988 214.5 708.200012 214.5 708.200012 L 214.100006 719.400024 L 225.399994 734.700012 Z"/>
    <path id="path100" fill="#35393a" stroke="none" d="M 225.100006 652.099976 L 220.899994 697.099976 L 246.899994 721.5 L 247.800003 716.299988 L 229.5 694.400024 L 229.5 651.599976 L 225.100006 652.099976 Z"/>
    <path id="path101" fill="#242627" stroke="none" d="M 220.899994 697.099976 L 214.399994 708.099976 C 214.399994 708.099976 215.199997 714.799988 215.600006 714.700012 C 216 714.599976 227.899994 703.599976 227.899994 703.599976 L 220.899994 697.099976 Z"/>
    <path id="path102" fill="#626467" stroke="none" d="M 234.100006 738.400024 C 233.600006 738.5 233.100006 738.599976 232.600006 738.599976 C 220.899994 739.299988 210.300003 720.299988 209 696.099976 C 207.699997 671.900024 216.100006 651.700012 227.899994 651 C 229.100006 650.900024 230.300003 651.099976 231.5 651.400024 C 220.5 653.599976 212.800003 673.099976 214.100006 696.299988 C 215.199997 718 223.800003 735.5 234.100006 738.400024 Z"/>
    <path id="path103" fill="#242627" stroke="none" d="M 234.300003 739.200012 C 232.5 739.299988 230.800003 738.900024 229 738.200012 C 229.300003 738.200012 229.5 738.200012 229.800003 738.200012 C 241.5 737.5 250 717.700012 248.699997 693.900024 C 247.399994 670.099976 236.800003 651.400024 225.100006 652.099976 C 224.300003 652.200012 223.399994 652.299988 222.600006 652.599976 C 224.699997 650.900024 227 649.900024 229.399994 649.799988 C 241.100006 649.099976 251.800003 668.599976 253.100006 693.299988 C 254.399994 717.900024 246 738.5 234.300003 739.200012 Z"/>
    <path id="path104" fill="#626467" stroke="none" d="M 338.200012 825.700012 L 307.600006 845.200012 C 302.899994 848.200012 300.399994 853.799988 301.299988 859.299988 L 313.399994 933.400024 L 297 926.400024 L 284.899994 852 C 284 846.400024 286.5 840.799988 291.399994 837.799988 L 320.200012 819.900024 L 338.200012 825.700012 Z"/>
    <path id="path105" fill="#626467" stroke="none" d="M 168.899994 763.599976 L 138.600006 781.099976 C 133.899994 783.799988 131.5 788.799988 132.5 793.700012 L 145.699997 859.299988 L 129.199997 853.200012 L 116 787.400024 C 115 782.400024 117.5 777.400024 122.300003 774.799988 L 150.800003 758.799988 L 168.899994 763.599976 Z"/>
    <path id="path106" fill="#000000" stroke="none" d="M 147.5 629.299988 L 151.399994 637.200012 C 151.699997 637.799988 151.800003 638.400024 151.899994 639 C 152.199997 646.5 154.399994 696.5 157.699997 714.700012 C 157.899994 715.700012 156.5 716.299988 155.899994 715.5 L 150.600006 708.700012 C 149.800003 707.599976 149.300003 706.400024 149.300003 705 L 146.100006 629.599976 C 146.100006 628.900024 147.199997 628.599976 147.5 629.299988 Z"/>
    <path id="path107" fill="#242627" stroke="none" d="M 352 767.799988 C 352 767.799988 443.5 783.599976 474.5 784.299988 C 474.5 784.299988 463.799988 794.400024 448.299988 792.200012 C 432.799988 790 353.600006 778.400024 353.600006 778.400024 L 352 767.799988 Z"/>
    <path id="path108" fill="#626467" stroke="none" d="M 359.299988 779.299988 L 451.600006 792.5 L 451.200012 804.099976 L 358.899994 790 L 359.299988 779.299988 Z"/>
    <path id="path109" fill="#0b0b0b" stroke="none" d="M 250.100006 873.799988 L 150.300003 829.299988 C 146.5 827.700012 143.899994 824.200012 143.399994 820.200012 L 138.399994 776.5 C 137.800003 771.700012 142.5 768 147 769.700012 L 246.899994 805.5 C 254.399994 807.900024 254.600006 812.900024 254.600006 813.5 L 258.799988 867.400024 C 259.299988 872.200012 254.5 875.700012 250.100006 873.799988 Z"/>
    <path id="path110" fill="#242627" stroke="none" d="M 242 865.299988 L 147.5 825.599976 C 143.699997 824 141.100006 820.5 140.600006 816.5 L 136 778.599976 C 135.399994 773.799988 140.100006 770.099976 144.600006 771.799988 L 239 806.900024 C 246.5 809.299988 246.699997 814.299988 246.699997 814.900024 L 250.699997 858.900024 C 251.199997 863.599976 246.399994 867.200012 242 865.299988 Z"/>
    <path id="path111" fill="#626467" stroke="none" d="M 239.899994 862.599976 L 145.899994 823.5 C 143 822.299988 141 819.700012 140.699997 816.599976 L 136 777.900024 C 135.600006 774.599976 138.899994 772 142 773.299988 L 236.399994 810.099976 C 239.300003 811.200012 241.300003 813.900024 241.600006 816.900024 L 246 858.200012 C 246.300003 861.400024 243 863.900024 239.899994 862.599976 Z"/>
    <path id="path112" fill="#181818" stroke="none" d="M 289.700012 896.799988 C 289.100006 902.900024 286.799988 907.400024 283.100006 908.200012 C 277.299988 909.5 270.5 901.299988 267.899994 889.900024 C 265.299988 878.400024 267.799988 868.099976 273.600006 866.799988 C 277.299988 866 281.299988 868.900024 284.5 874.200012 C 286.299988 877.200012 287.899994 881 288.799988 885.200012 C 289.700012 889.299988 290 893.299988 289.700012 896.799988 Z"/>
    <path id="path113" fill="#626467" stroke="none" d="M 289.700012 896.799988 C 287.899994 893.799988 286.299988 890 285.399994 885.900024 C 284.399994 881.700012 284.200012 877.700012 284.5 874.200012 C 286.299988 877.200012 287.899994 881 288.799988 885.200012 C 289.700012 889.299988 290 893.299988 289.700012 896.799988 Z"/>
    <path id="path114" fill="#242627" stroke="none" d="M 321.899994 933.700012 L 333.5 928.200012 C 333.5 928.200012 341.700012 951.599976 360.200012 958.700012 C 378.700012 965.799988 426.700012 976.700012 450.299988 974.799988 C 450.299988 974.799988 461.100006 970.900024 461.299988 965.5 C 461.5 960.099976 448.200012 885.700012 448.200012 885.700012 L 339.799988 869 L 453.600006 884.299988 L 469.5 968 C 470.799988 974.799988 468.899994 981.900024 464.299988 987.099976 C 460.899994 991 456.299988 993.599976 451.200012 994.400024 C 449.100006 994.700012 446.799988 994.799988 444.299988 994.5 C 437.200012 993.599976 387 983.5 361.399994 978.299988 C 351.899994 976.400024 343.700012 970.5 338.700012 962.099976 L 321.899994 933.700012 Z"/>
    <path id="path115" fill="#242627" stroke="none" d="M 315.299988 823 C 315.299988 823 225.199997 797.700012 192.100006 785.900024 C 192.100006 785.900024 277.200012 822.299988 307.5 827.799988 L 315.299988 823 Z"/>
    <path id="path116" fill="#242627" stroke="none" d="M 343.799988 815.599976 C 343.799988 815.599976 224.300003 782.200012 183.600006 762.200012 L 193 759.299988 C 193 759.299988 329.299988 808.099976 353.399994 811.799988 L 343.799988 815.599976 Z"/>
    <path id="path117" fill="#242627" stroke="none" d="M 313.600006 972 C 313.600006 972 409.399994 1000.400024 454.5 1004.5 C 499.600006 1008.599976 441 1016 434.799988 1015 C 428.600006 1014 314.899994 987.599976 314.899994 987.599976 L 313.600006 972 Z"/>
    <path id="path118" fill="#242627" stroke="none" d="M 349.799988 1001.299988 L 350.200012 1009.799988 C 350.200012 1010.5 349.5 1011 348.799988 1010.799988 L 338.100006 1008.299988 L 337.700012 1008.200012 C 337 1008 336.399994 1007.400024 336.399994 1006.700012 C 336.399994 1006.700012 336.100006 1002.299988 335.899994 998.200012 C 335.799988 997.299988 337.600006 997.799988 337.600006 997.799988 L 349 1000.299988 C 349.399994 1000.400024 349.799988 1000.799988 349.799988 1001.299988 Z"/>
    <path id="path119" fill="#626467" stroke="none" d="M 349.799988 1001.299988 L 350.200012 1009.700012 C 350.200012 1010.400024 349.5 1010.900024 348.799988 1010.700012 L 338.100006 1008.299988 L 337.5 997.799988 L 348.799988 1000.299988 C 349.399994 1000.400024 349.799988 1000.799988 349.799988 1001.299988 Z"/>
    <path id="path120" fill="#242627" stroke="none" d="M 366.600006 1005 L 366.899994 1013.599976 C 366.899994 1014.299988 366.200012 1014.799988 365.399994 1014.599976 L 354.299988 1012.099976 L 353.799988 1012 C 353 1011.799988 352.5 1011.200012 352.5 1010.5 C 352.5 1010.5 352.299988 1006 352.100006 1001.900024 C 352.100006 1001 353.899994 1001.5 353.899994 1001.5 L 365.700012 1004.099976 C 366.299988 1004.200012 366.600006 1004.599976 366.600006 1005 Z"/>
    <path id="path121" fill="#626467" stroke="none" d="M 366.600006 1005.099976 L 366.899994 1013.599976 C 366.899994 1014.299988 366.200012 1014.799988 365.399994 1014.599976 L 354.399994 1012.099976 L 353.899994 1001.5 L 365.600006 1004.099976 C 366.200012 1004.200012 366.600006 1004.599976 366.600006 1005.099976 Z"/>
    <path id="path122" fill="#242627" stroke="none" d="M 384.100006 1009 L 384.299988 1017.799988 C 384.299988 1018.5 383.5 1019 382.799988 1018.799988 L 371.299988 1016.200012 L 370.799988 1016.099976 C 370 1015.900024 369.399994 1015.299988 369.399994 1014.599976 C 369.399994 1014.599976 369.200012 1010.099976 369.100006 1005.799988 C 369.100006 1004.900024 370.899994 1005.400024 370.899994 1005.400024 L 383.200012 1008.099976 C 383.700012 1008.200012 384.100006 1008.599976 384.100006 1009 Z"/>
    <path id="path123" fill="#626467" stroke="none" d="M 384.100006 1009.099976 L 384.299988 1017.700012 C 384.299988 1018.400024 383.5 1018.900024 382.700012 1018.700012 L 371.299988 1016.099976 L 371 1005.299988 L 383.200012 1008 C 383.700012 1008.200012 384.100006 1008.599976 384.100006 1009.099976 Z"/>
    <path id="path124" fill="#242627" stroke="none" d="M 402.200012 1013.099976 L 402.299988 1022 C 402.299988 1022.700012 401.5 1023.200012 400.700012 1023 L 388.799988 1020.299988 L 388.299988 1020.200012 C 387.5 1020 386.899994 1019.400024 386.899994 1018.700012 C 386.899994 1018.700012 386.799988 1014.099976 386.700012 1009.799988 C 386.700012 1008.900024 388.600006 1009.400024 388.600006 1009.400024 L 401.299988 1012.200012 C 401.799988 1012.200012 402.200012 1012.599976 402.200012 1013.099976 Z"/>
    <path id="path125" fill="#626467" stroke="none" d="M 402.200012 1013.200012 L 402.299988 1022 C 402.299988 1022.700012 401.5 1023.200012 400.600006 1023.099976 L 388.700012 1020.400024 L 388.5 1009.400024 L 401.100006 1012.200012 C 401.799988 1012.200012 402.200012 1012.700012 402.200012 1013.200012 Z"/>
    <path id="path126" fill="#242627" stroke="none" d="M 421 1017.400024 L 420.899994 1026.400024 C 420.899994 1027.099976 420 1027.599976 419.200012 1027.400024 L 406.799988 1024.599976 L 406.299988 1024.5 C 405.399994 1024.300049 404.899994 1023.700012 404.799988 1022.900024 C 404.799988 1022.900024 404.700012 1018.200012 404.700012 1013.900024 C 404.700012 1013 406.700012 1013.5 406.700012 1013.5 L 419.899994 1016.400024 C 420.700012 1016.5 421 1016.900024 421 1017.400024 Z"/>
    <path id="path127" fill="#626467" stroke="none" d="M 421 1017.5 L 420.899994 1026.400024 C 420.899994 1027.099976 420 1027.699951 419.200012 1027.5 L 406.899994 1024.699951 L 406.899994 1013.599976 L 420 1016.5 C 420.600006 1016.5 421 1017 421 1017.5 Z"/>
    <path id="path128" fill="#242627" stroke="none" d="M 440.600006 1021.799988 L 440.399994 1031 C 440.399994 1031.699951 439.5 1032.199951 438.600006 1032 L 425.700012 1029 L 425.200012 1028.900024 C 424.299988 1028.699951 423.700012 1028 423.700012 1027.300049 C 423.700012 1027.300049 423.700012 1022.599976 423.799988 1018.099976 C 423.799988 1017.200012 425.899994 1017.700012 425.899994 1017.700012 L 439.700012 1020.700012 C 440.200012 1020.900024 440.600006 1021.299988 440.600006 1021.799988 Z"/>
    <path id="path129" fill="#626467" stroke="none" d="M 440.600006 1021.900024 L 440.399994 1030.900024 C 440.399994 1031.599976 439.5 1032.199951 438.600006 1032 L 425.799988 1029.099976 L 425.899994 1017.799988 L 439.5 1020.799988 C 440.200012 1020.900024 440.600006 1021.400024 440.600006 1021.900024 Z"/>
    <path id="path130" fill="#242627" stroke="none" d="M 536.5 681.599976 L 524.400024 674.5 L 523.5 698.599976 L 536.099976 692 L 536.5 681.599976 Z"/>
    <path id="path131" fill="none" stroke="#000000" stroke-width="1.7072" d="M 925.700012 510.900024 L 533 515.200012"/>
    <path id="path132" fill="#ffffff" stroke="none" opacity="0.3" d="M 715.099976 492.700012 L 762.299988 370.099976 L 721.5 492.900024 L 715.099976 492.700012 Z"/>
    <path id="path133" fill="#ffffff" stroke="none" opacity="0.3" d="M 735.5 492.400024 L 766.599976 410.099976 L 731.900024 492.5 L 735.5 492.400024 Z"/>
    <path id="path134" fill="#0b0b0b" stroke="none" d="M 776.400024 483.5 L 723.200012 479.400024 C 723.200012 479.400024 678.900024 487.700012 668.200012 495.200012 L 669 496.5 C 669 496.5 717.700012 484.099976 727.099976 484.5 C 736.5 485 776.400024 485.5 776.400024 485.5 L 776.400024 483.5 Z"/>
    <path id="path135" fill="#181818" stroke="none" d="M 795.799988 510.200012 L 723.099976 478.900024 C 723.099976 478.900024 707.5 481.099976 705.599976 482.599976 L 706.599976 485.900024 C 706.599976 485.900024 720.099976 482.599976 722.799988 483.5 C 725.400024 484.400024 789.900024 517.799988 789.900024 517.799988 C 789.900024 517.799988 793.099976 519.299988 795.599976 516.099976 C 798.099976 513 795.799988 510.200012 795.799988 510.200012 Z"/>
    <path id="path136" fill="#0b0b0b" stroke="none" d="M 645.400024 482.400024 L 602.5 478.599976 C 602.5 478.599976 566.700012 487.700012 558 495.700012 L 558.599976 497 C 558.599976 497 598 483.5 605.599976 483.900024 C 613.200012 484.299988 645.400024 484.5 645.400024 484.5 L 645.400024 482.400024 Z"/>
    <path id="path137" fill="#181818" stroke="none" d="M 654.799988 511.200012 L 597.299988 480.599976 C 596.5 480.200012 595.599976 480.099976 594.799988 480.299988 C 591.700012 481.099976 584 483.099976 582.799988 484.400024 L 583.900024 487.599976 C 583.900024 487.599976 595.200012 483.5 597.299988 484.400024 C 599.400024 485.299988 650 519.299988 650 519.299988 C 650 519.299988 652.5 520.799988 654.599976 517.5 C 656.599976 514.200012 654.799988 511.200012 654.799988 511.200012 Z"/>
    <path id="path138" fill="none" stroke="#000000" stroke-width="1.7072" d="M 133.199997 852.299988 L 319.5 941.599976 C 319.5 941.599976 335 971.299988 342.700012 976.799988 C 350.299988 982.299988 437.100006 1000.099976 449.399994 999.400024 C 449.399994 999.400024 461.600006 1002.200012 481.799988 971.099976"/>
    <path id="path139" fill="#ffffff" stroke="none" opacity="0.3" d="M 666.099976 367.700012 L 672.799988 366.900024 L 622.700012 467 L 666.099976 367.700012 Z"/>
    <path id="path140" fill="#ffffff" stroke="none" opacity="0.1" d="M 1037.800049 343.099976 L 1044.199951 344.099976 L 1044.800049 439 L 1037.800049 343.099976 Z"/>
    <path id="path141" fill="#ffffff" stroke="none" opacity="0.1" d="M 1167.900024 383.900024 L 1177.199951 517.799988 L 1180.800049 517.900024 L 1167.900024 383.900024 Z"/>
    <path id="path142" fill="#ffffff" stroke="none" opacity="0.1" d="M 1196.699951 378.5 L 1201.300049 451 L 1200.300049 378.599976 L 1196.699951 378.5 Z"/>
    <path id="path143" fill="#ffffff" stroke="none" opacity="0.1" d="M 1264.599976 390.099976 L 1270.300049 476.900024 L 1268.5 391.099976 L 1264.599976 390.099976 Z"/>
    <path id="path144" fill="#242627" stroke="none" d="M 857.195984 946.765015 C 876.440979 873.820007 844.20697 802.065979 785.200012 786.497986 C 726.192017 770.929993 662.755981 817.442993 643.510986 890.388 C 624.265015 963.333008 656.499023 1035.089966 715.507019 1050.660034 C 774.513977 1066.219971 837.950012 1019.710022 857.195984 946.765015 Z"/>
    <path id="path145" fill="#000000" stroke="none" d="M 823 938.299988 C 806.5 1001 752 1040.900024 701.299988 1027.599976 C 650.599976 1014.200012 642.200012 946.299988 656.400024 892.400024 C 672.799988 829.700012 716.599976 790.299988 761.200012 800.700012 C 812.200012 812.400024 839.5 875.599976 823 938.299988 Z"/>
    <path id="path146" fill="#35393a" stroke="none" d="M 853.900024 895.799988 C 852.099976 855.299988 833.599976 819.599976 803 802.5 C 799.5 800.5 795.799988 798.799988 792 797.299988 C 788.200012 795.799988 784.299988 794.700012 780.400024 793.900024 C 745.5 786.299988 708.200012 802.299988 681.799988 833.900024 C 681.700012 834 681.599976 834.099976 681.599976 834.200012 C 675.5 841.5 670 849.599976 665.200012 858.5 C 661.299988 865.700012 657.900024 873.400024 655.099976 881.5 C 642.799988 916.799988 643.799988 953.099976 655.299988 982.5 C 658.599976 990.900024 662.700012 998.700012 667.700012 1005.700012 C 678 1020.400024 691.700012 1031.800049 708.299988 1038.099976 C 726 1044.900024 744.799988 1045 762.799988 1039.599976 C 770.900024 1037.199951 778.799988 1033.699951 786.400024 1029.199951 C 802.099976 1019.799988 816.5 1006.099976 827.900024 989 C 834.900024 978.5 840.799988 966.700012 845.299988 953.799988 C 848.599976 944.299988 851 934.700012 852.400024 925.200012 C 853.799988 915.299988 854.299988 905.400024 853.900024 895.799988 Z M 841.099976 952.400024 C 836.599976 965.200012 830.700012 976.900024 823.599976 987.299988 C 813.099976 1002.700012 800.099976 1015.200012 785.799988 1023.900024 C 777.900024 1028.699951 769.599976 1032.400024 761.200012 1034.800049 C 744.299988 1039.599976 726.700012 1039.400024 710.099976 1033 C 694.5 1027.099976 681.599976 1016.5 671.799988 1002.900024 C 666.599976 995.599976 662.200012 987.400024 658.900024 978.599976 C 648.299988 950.700012 647.599976 916.400024 659.200012 883.099976 C 661.799988 875.700012 664.799988 868.799988 668.299988 862.200012 C 672.900024 853.599976 678.099976 845.599976 684 838.5 C 684.5 837.900024 684.900024 837.400024 685.400024 836.799988 C 710.400024 807.299988 745.299988 792.299988 778.099976 799 C 782.200012 799.799988 786.200012 801 790.200012 802.5 C 794.200012 804 798 805.799988 801.599976 807.900024 C 829.900024 824.299988 847.200012 857.5 849.299988 895.299988 C 849.900024 905.299988 849.299988 915.700012 847.599976 926.200012 C 846.299988 935 844.099976 943.700012 841.099976 952.400024 Z"/>
    <path id="path147" fill="#35393a" stroke="none" d="M 852.299988 925.400024 L 847.700012 926.299988 L 833.799988 929 L 797.099976 936.200012 C 792.900024 937 789 940.099976 786.400024 944.5 C 785.5 946.200012 784.400024 947.799988 783.299988 949.400024 C 781 952.799988 779.700012 956.900024 779.599976 961 C 779.599976 961.799988 779.599976 962.599976 779.700012 963.299988 L 784.099976 1007.5 L 785.700012 1023.599976 L 786.200012 1029.099976 C 778.599976 1033.599976 770.700012 1037.099976 762.599976 1039.5 L 761 1034.5 L 756.400024 1020 L 743.700012 979.799988 C 742.200012 975.200012 739 972 735 970.900024 C 733.900024 970.599976 732.900024 970.299988 731.799988 969.900024 C 731.200012 969.700012 730.599976 969.400024 730 969.200012 C 726.200012 967.5 721.700012 968 717.799988 970.700012 L 683.099976 994.799988 L 671.599976 1002.799988 L 667.400024 1005.700012 C 662.5 998.700012 658.299988 990.900024 655 982.5 L 658.700012 978.5 L 668.5 968 L 699.400024 934.900024 C 702.700012 931.400024 704.599976 926.5 704.900024 921.599976 C 705 919.599976 705.200012 917.700012 705.400024 915.700012 C 706.099976 910.599976 704.799988 905.700012 702 902.299988 L 676.200012 871.799988 L 668.099976 862.200012 L 665 858.5 C 669.799988 849.599976 675.299988 841.5 681.400024 834.200012 L 681.900024 834.599976 L 685.200012 836.799988 L 695.299988 843.700012 L 727.700012 865.900024 C 731.099976 868.200012 735.299988 868.400024 739.299988 866.599976 C 740.299988 866.200012 741.299988 865.700012 742.400024 865.400024 C 746.5 864 750.099976 860.599976 752.099976 856 L 771.5 813.299988 L 778 798.900024 L 780.299988 793.799988 C 784.200012 794.599976 788.099976 795.799988 791.900024 797.200012 C 795.700012 798.700012 799.400024 800.400024 802.900024 802.400024 L 801.5 807.900024 L 797.599976 823.700012 L 786.5 869 C 785.299988 873.900024 786 879 788.200012 882.799988 C 788.5 883.299988 788.700012 883.799988 789 884.299988 C 791.099976 888.299988 794.5 890.799988 798.599976 891.099976 L 835.700012 894.099976 L 849.400024 895.200012 L 854 895.599976 C 854.299988 905.400024 853.799988 915.299988 852.299988 925.400024 Z"/>
    <path id="path148" fill="#35393a" stroke="none" d="M 833.799988 928.999023 L 797.099976 936.198975 C 792.900024 936.999023 789 940.098999 786.400024 944.499023 C 785.5 946.198975 784.400024 947.799011 783.299988 949.398987 C 781 952.799011 779.700012 956.898987 779.599976 960.999023 C 779.599976 961.799011 779.599976 962.598999 779.700012 963.299011 L 784.099976 1007.5 C 775.400024 1013.400024 766.099976 1017.599976 756.5 1020 L 743.799988 979.799011 C 742.299988 975.198975 739.099976 971.999023 735.099976 970.898987 C 734 970.598999 733 970.299011 731.900024 969.898987 C 731.299988 969.698975 730.700012 969.398987 730.099976 969.198975 C 726.299988 967.499023 721.799988 967.999023 717.900024 970.698975 L 683.200012 994.799011 C 677 986.999023 672.099976 977.898987 668.700012 967.898987 L 699.599976 934.799011 C 702.900024 931.299011 704.799988 926.398987 705.099976 921.499023 C 705.200012 919.499023 705.400024 917.598999 705.599976 915.598999 C 706.299988 910.499023 705 905.598999 702.200012 902.198975 L 676.400024 871.698975 C 680.299988 863.898987 684.799988 856.799011 689.799988 850.299011 C 691.599976 847.999023 693.5 845.799011 695.400024 843.598999 L 727.799988 865.799011 C 731.200012 868.098999 735.400024 868.299011 739.400024 866.499023 C 740.400024 866.098999 741.400024 865.598999 742.5 865.299011 C 746.599976 863.898987 750.200012 860.499023 752.200012 855.898987 L 771.599976 813.198975 C 775.900024 813.898987 780.099976 815.098999 784.299988 816.698975 C 789.099976 818.499023 793.5 820.799011 797.700012 823.598999 L 786.5 868.999023 C 785.299988 873.898987 786 878.999023 788.200012 882.799011 C 788.5 883.299011 788.700012 883.799011 789 884.299011 C 791.099976 888.299011 794.5 890.799011 798.599976 891.098999 L 835.700012 894.098999 C 836.599976 905.499023 836 917.198975 833.799988 928.999023 Z"/>
    <path id="path149" fill="#35393a" stroke="none" opacity="0.4" d="M 823.599976 987.299988 C 813.099976 1002.700012 800.099976 1015.200012 785.799988 1023.900024 L 784.200012 1007.799988 L 779.799988 963.599976 C 779.700012 962.799988 779.700012 962 779.700012 961.299988 C 774.5 957.400024 769.5 953.299988 764.700012 949.099976 C 762.900024 947.5 761.099976 945.900024 759.299988 944.200012 C 759 943.900024 758.700012 943.599976 758.400024 943.299988 C 756.799988 941.799988 755.200012 940.299988 753.599976 938.700012 C 753.099976 938.200012 752.5 937.599976 752 937.099976 C 747.299988 932.400024 742.799988 927.5 738.5 922.700012 C 738 922.099976 737.5 921.599976 737 921 C 736 919.900024 735 918.700012 734.099976 917.599976 C 733.599976 917 733.099976 916.400024 732.599976 915.799988 C 731.200012 914.099976 729.799988 912.299988 728.400024 910.599976 C 727.099976 909 725.900024 907.400024 724.599976 905.700012 C 713.599976 891.299988 704.400024 876.799988 696.900024 863.5 C 694.400024 859.099976 692.099976 854.700012 690 850.599976 C 687.900024 846.5 685.900024 842.5 684.099976 838.700012 C 683.5 837.400024 682.900024 836 682.299988 834.799988 C 682.200012 834.599976 682.099976 834.400024 682 834.099976 C 681.900024 834.200012 681.799988 834.299988 681.799988 834.400024 C 675.700012 841.700012 670.200012 849.799988 665.400024 858.700012 C 661.5 865.900024 658.099976 873.599976 655.299988 881.700012 C 643 917 644 953.299988 655.5 982.700012 C 658.799988 991.099976 662.900024 998.900024 667.900024 1005.900024 C 678.200012 1020.599976 691.900024 1032 708.5 1038.300049 C 726.200012 1045.099976 745 1045.199951 763 1039.800049 C 771.099976 1037.400024 779 1033.900024 786.599976 1029.400024 C 802.299988 1020 816.700012 1006.299988 828.099976 989.200012 C 826.400024 988.5 825 987.900024 823.599976 987.299988 Z M 659.200012 883.099976 C 661.799988 875.700012 664.799988 868.799988 668.299988 862.200012 L 676.400024 871.799988 L 702.200012 902.299988 C 705 905.700012 706.299988 910.599976 705.599976 915.700012 C 705.299988 917.700012 705.200012 919.599976 705.099976 921.599976 C 704.900024 926.599976 702.900024 931.400024 699.599976 934.900024 L 668.700012 968 L 658.900024 978.5 C 648.400024 950.700012 647.599976 916.400024 659.200012 883.099976 Z M 710.099976 1033 C 694.5 1027.099976 681.599976 1016.5 671.799988 1002.900024 L 683.299988 994.900024 L 718 970.799988 C 721.900024 968.099976 726.299988 967.599976 730.200012 969.299988 C 730.799988 969.599976 731.400024 969.799988 732 970 C 733.099976 970.400024 734.099976 970.700012 735.200012 971 C 739.200012 972.099976 742.5 975.299988 743.900024 979.900024 L 756.599976 1020.099976 L 761.200012 1034.599976 C 744.299988 1039.599976 726.700012 1039.300049 710.099976 1033 Z"/>
    <path id="path150" fill="#35393a" stroke="none" d="M 772.330994 924.182983 C 776.830994 908.754028 770.551025 893.351013 758.302979 889.778992 C 746.05603 886.205994 732.479004 895.817993 727.979004 911.247009 C 723.479004 926.674988 729.76001 942.078003 742.007019 945.651001 C 754.255005 949.223022 767.830994 939.611023 772.330994 924.182983 Z"/>
    <path id="path151" fill="#000000" stroke="none" d="M 758.301025 897.099976 C 758.000977 897 757.801025 896.900024 757.500977 896.799988 C 757.200989 896.700012 757.000977 896.599976 756.700989 896.5 C 747.700989 893.700012 737.500977 900.200012 733.601013 911.5 C 733.101013 912.900024 732.700989 914.299988 732.500977 915.700012 C 732.101013 918 732.000977 920.299988 732.101013 922.5 C 732.101013 923.200012 732.200989 923.900024 732.301025 924.599976 C 733.401001 931.200012 737.101013 936.700012 742.801025 938.900024 C 746.301025 940.200012 750.000977 940.099976 753.500977 938.799988 C 755.700989 938 757.700989 936.700012 759.601013 935 C 760.101013 934.5 760.601013 934.099976 761.101013 933.599976 C 763.500977 931.099976 765.401001 927.900024 766.700989 924.200012 C 770.700989 912.799988 766.901001 900.900024 758.301025 897.099976 Z M 734.000977 917.400024 C 734.200989 915.599976 734.601013 913.799988 735.200989 912 C 738.700989 901.900024 747.901001 896 755.901001 898.5 L 749.500977 916.799988 L 736.901001 920.799988 L 733.901001 921.700012 C 733.801025 920.400024 733.801025 918.900024 734.000977 917.400024 Z M 751.901001 937 C 749.200989 937.799988 746.301025 937.700012 743.601013 936.700012 C 738.500977 934.799988 735.200989 929.799988 734.200989 923.900024 L 738.401001 922.599976 L 749.801025 919 L 758.700989 933.299988 C 756.601013 935 754.301025 936.299988 751.901001 937 Z M 765.101013 923.400024 C 764.000977 926.700012 762.200989 929.5 760.101013 931.700012 L 751.101013 917.400024 L 757.500977 899.099976 C 765.200989 902.700012 768.601013 913.299988 765.101013 923.400024 Z"/>
    <path id="path152" fill="#575a67" stroke="none" d="M 769.500977 884.799011 L 785.200989 824.299011 L 783.799988 823.799011 L 783.000977 823.499023 L 782.200989 823.198975 L 780.799988 822.698975 L 755.700989 879.598999 C 754.401001 882.598999 754.801025 885.999023 756.700989 887.898987 C 758.000977 889.198975 759.401001 890.098999 759.700989 890.299011 C 760.101013 890.398987 761.700989 890.598999 763.500977 890.499023 C 766.200989 890.299011 768.700989 887.999023 769.500977 884.799011 Z"/>
    <path id="path153" fill="#1c1e1e" stroke="none" d="M 769.500977 884.799011 L 785.200989 824.299011 L 783.799988 823.799011 L 783.000977 823.499023 L 782.200989 823.198975 L 780.799988 822.698975 L 755.700989 879.598999 C 754.401001 882.598999 754.801025 885.999023 756.700989 887.898987 C 758.000977 889.198975 759.401001 890.098999 759.700989 890.299011 C 760.101013 890.398987 761.700989 890.598999 763.500977 890.499023 C 766.200989 890.299011 768.700989 887.999023 769.500977 884.799011 Z"/>
    <path id="path154" fill="#1c1e1e" stroke="none" d="M 732.299988 888.999023 L 691.099976 859.198975 L 690.099976 860.698975 L 689.5 861.598999 L 688.900024 862.499023 L 687.900024 863.999023 L 722.200012 903.999023 C 724 906.098999 726.900024 906.299011 729.200012 904.398987 C 730.799988 903.098999 732.099976 901.698975 732.400024 901.398987 C 732.599976 900.999023 733.5 899.198975 734.200012 896.999023 C 735.299988 893.799011 734.5 890.598999 732.299988 888.999023 Z"/>
    <path id="path155" fill="#1c1e1e" stroke="none" d="M 719.801025 932.898987 L 678.601013 974.999023 L 679.401001 976.499023 L 679.801025 977.299011 L 680.200989 978.098999 L 681.000977 979.598999 L 727.301025 947.398987 C 729.700989 945.698975 731.101013 942.398987 730.601013 939.299011 C 730.301025 937.198975 729.700989 935.398987 729.601013 934.999023 C 729.401001 934.698975 728.301025 933.299011 726.901001 932.098999 C 724.901001 930.398987 722.000977 930.698975 719.801025 932.898987 Z"/>
    <path id="path156" fill="#1c1e1e" stroke="none" d="M 750.099976 955.700012 L 767.099976 1010.799988 L 768.599976 1010.099976 L 769.400024 1009.700012 L 770.200012 1009.299988 L 771.700012 1008.599976 L 764.700012 949.099976 C 764.299988 946 762.200012 943.799988 759.599976 943.900024 C 757.799988 943.900024 756.099976 944.299988 755.799988 944.400024 C 755.5 944.599976 753.900024 945.700012 752.400024 947.099976 C 750.099976 949.299988 749.200012 952.799988 750.099976 955.700012 Z"/>
    <path id="path157" fill="#1c1e1e" stroke="none" d="M 780.400024 924.499023 L 831.200012 914.299011 L 831.299988 912.398987 L 831.299988 911.398987 L 831.400024 910.398987 L 831.5 908.499023 L 781.299988 906.299011 C 778.700012 906.198975 776.099976 908.299011 775 911.299011 C 774.299988 913.398987 773.900024 915.398987 773.799988 915.898987 C 773.799988 915.898987 773.799988 915.898987 773.799988 915.999023 L 773.799988 916.098999 C 773.799988 916.499023 774 918.499023 774.5 920.499023 C 775.299988 923.299011 777.700012 924.999023 780.400024 924.499023 Z"/>
    <path id="path158" fill="#6e7284" stroke="none" d="M 766.846985 882.218994 C 767.651001 879.461975 766.539978 876.713013 764.367004 876.078979 C 762.192993 875.445007 759.778992 877.166016 758.974976 879.922974 C 758.169983 882.679993 759.281006 885.429016 761.455017 886.062988 C 763.627991 886.697021 766.041992 884.976013 766.846985 882.218994 Z"/>
    <path id="path159" fill="#6e7284" stroke="none" d="M 766.846985 882.218994 C 767.651001 879.461975 766.539978 876.713013 764.367004 876.078979 C 762.192993 875.445007 759.778992 877.166016 758.974976 879.922974 C 758.169983 882.679993 759.281006 885.429016 761.455017 886.062988 C 763.627991 886.697021 766.041992 884.976013 766.846985 882.218994 Z"/>
    <path id="path160" fill="#35393a" stroke="none" d="M 766.846985 882.218994 C 767.651001 879.461975 766.539978 876.713013 764.367004 876.078979 C 762.192993 875.445007 759.778992 877.166016 758.974976 879.922974 C 758.169983 882.679993 759.281006 885.429016 761.455017 886.062988 C 763.627991 886.697021 766.041992 884.976013 766.846985 882.218994 Z"/>
    <path id="path161" fill="#35393a" stroke="none" d="M 730.583984 897.02301 C 731.388 894.265991 730.278015 891.517029 728.104004 890.882996 C 725.929993 890.249023 723.515991 891.969971 722.711975 894.72699 C 721.90802 897.484009 723.018005 900.232971 725.192017 900.867004 C 727.366028 901.500977 729.780029 899.780029 730.583984 897.02301 Z"/>
    <path id="path162" fill="#35393a" stroke="none" d="M 726.76001 942.012024 C 727.564026 939.255005 726.453003 936.505981 724.280029 935.872009 C 722.106018 935.237976 719.692017 936.958984 718.888 939.716003 C 718.083984 942.473022 719.19397 945.221985 721.367981 945.856018 C 723.541016 946.48999 725.955994 944.768982 726.76001 942.012024 Z"/>
    <path id="path163" fill="#35393a" stroke="none" d="M 761.551025 954.78302 C 762.35498 952.026001 761.244019 949.276978 759.070984 948.643005 C 756.896973 948.008972 754.482971 949.72998 753.679016 952.487 C 752.875 955.244019 753.984985 957.992004 756.158997 958.627014 C 758.33197 959.260986 760.747009 957.539978 761.551025 954.78302 Z"/>
    <path id="path164" fill="#35393a" stroke="none" d="M 785.744019 916.705017 C 786.547974 913.947998 785.437988 911.198975 783.263977 910.565002 C 781.090027 909.93103 778.676025 911.651978 777.872009 914.408997 C 777.067993 917.166016 778.177979 919.914978 780.35199 920.549011 C 782.526001 921.182983 784.940002 919.461975 785.744019 916.705017 Z"/>
    <path id="path165" fill="#181818" stroke="none" d="M 1313.630005 802.679993 C 1317.48999 750.73999 1305.47998 707.510986 1286.810059 706.124023 C 1268.140015 704.737 1249.869995 745.718994 1246.02002 797.658997 C 1242.160034 849.598022 1254.170044 892.828003 1272.839966 894.215027 C 1291.51001 895.601013 1309.780029 854.619995 1313.630005 802.679993 Z"/>
    <path id="path166" fill="#35393a" stroke="none" d="M 1308.069946 802.260986 C 1311.22998 759.684021 1301.430054 724.250977 1286.170044 723.117981 C 1270.910034 721.984985 1255.97998 755.580994 1252.819946 798.15802 C 1249.660034 840.734009 1259.459961 876.16803 1274.719971 877.301025 C 1289.969971 878.434021 1304.910034 844.836975 1308.069946 802.260986 Z"/>
    <path id="path167" fill="#242627" stroke="none" d="M 1307.329956 802.372009 C 1310.359985 761.557983 1300.939941 727.590027 1286.290039 726.502014 C 1271.630005 725.414001 1257.300049 757.617981 1254.27002 798.432007 C 1251.23999 839.245972 1260.660034 873.213989 1275.310059 874.302002 C 1289.959961 875.390015 1304.290039 843.185974 1307.329956 802.372009 Z"/>
    <path id="path168" fill="#000000" stroke="none" d="M 1297.900024 810.401001 C 1293.199951 844.801025 1279.800049 867.301025 1267.800049 860.500977 C 1255.800049 853.700989 1254.599976 816.801025 1258.5 787.101013 C 1263.099976 752.700989 1274 730.700989 1284.599976 735.801025 C 1296.699951 741.801025 1302.599976 776.000977 1297.900024 810.401001 Z"/>
    <path id="path169" fill="#35393a" stroke="none" d="M 1305.800049 786.900024 C 1305.800049 764.799988 1301.800049 745.5 1294.699951 736.5 C 1293.900024 735.5 1293 734.599976 1292.099976 733.799988 C 1291.199951 733 1290.300049 732.5 1289.400024 732 C 1281.099976 728.200012 1272 737.400024 1265.300049 755 C 1265.300049 755.099976 1265.300049 755.099976 1265.199951 755.200012 C 1263.699951 759.299988 1262.300049 763.799988 1261 768.700012 C 1260 772.700012 1259.099976 776.900024 1258.300049 781.400024 C 1255 800.799988 1254.800049 820.700012 1257.199951 836.599976 C 1257.900024 841.099976 1258.800049 845.400024 1259.900024 849.200012 C 1262.199951 857.099976 1265.400024 863.200012 1269.300049 866.5 C 1273.5 870 1278 869.900024 1282.300049 866.700012 C 1284.300049 865.299988 1286.199951 863.299988 1288.099976 860.700012 C 1292 855.400024 1295.599976 847.799988 1298.5 838.299988 C 1300.300049 832.5 1301.800049 826 1303.099976 818.900024 C 1304 813.700012 1304.699951 808.400024 1305.099976 803.200012 C 1305.599976 797.599976 1305.800049 792.099976 1305.800049 786.900024 Z M 1302.099976 817.900024 C 1300.900024 825 1299.300049 831.400024 1297.5 837.200012 C 1294.800049 845.700012 1291.599976 852.700012 1288 857.599976 C 1286.099976 860.299988 1284 862.400024 1282 863.799988 C 1277.900024 866.599976 1273.699951 866.700012 1269.800049 863.400024 C 1266.099976 860.299988 1263.199951 854.700012 1261 847.400024 C 1259.800049 843.5 1258.900024 839.099976 1258.199951 834.299988 C 1256 819.200012 1256.199951 800.5 1259.300049 782.200012 C 1260 778.200012 1260.800049 774.299988 1261.699951 770.700012 C 1262.900024 765.900024 1264.199951 761.5 1265.699951 757.599976 C 1265.800049 757.299988 1265.900024 757 1266.099976 756.700012 C 1272.400024 740.299988 1280.900024 731.700012 1288.699951 735 C 1289.699951 735.400024 1290.599976 736 1291.599976 736.799988 C 1292.5 737.599976 1293.400024 738.5 1294.300049 739.599976 C 1300.900024 748.200012 1304.699951 766.200012 1304.699951 786.799988 C 1304.699951 792.299988 1304.5 798 1304 803.700012 C 1303.599976 808.400024 1302.900024 813.200012 1302.099976 817.900024 Z"/>
    <path id="path170" fill="#35393a" stroke="none" d="M 1305.099976 803.099976 L 1304 803.599976 L 1300.599976 805.299988 L 1291.699951 809.700012 C 1290.699951 810.200012 1289.699951 811.900024 1289.099976 814.400024 C 1288.900024 815.299988 1288.599976 816.200012 1288.300049 817.099976 C 1287.699951 819 1287.300049 821.299988 1287.300049 823.5 C 1287.300049 823.900024 1287.300049 824.400024 1287.300049 824.799988 L 1287.900024 848.900024 L 1288.099976 857.700012 L 1288.199951 860.700012 C 1286.300049 863.299988 1284.400024 865.299988 1282.400024 866.700012 L 1282.099976 864 L 1281.199951 856.099976 L 1278.599976 834.299988 C 1278.300049 831.799988 1277.599976 830.099976 1276.599976 829.5 C 1276.300049 829.400024 1276.099976 829.200012 1275.800049 829 C 1275.699951 828.900024 1275.5 828.799988 1275.400024 828.599976 C 1274.5 827.700012 1273.400024 828 1272.5 829.5 L 1263.900024 843 L 1261.099976 847.5 L 1260.099976 849.099976 C 1259 845.299988 1258.099976 841.099976 1257.400024 836.5 L 1258.300049 834.299988 L 1260.800049 828.400024 L 1268.599976 810 C 1269.400024 808.099976 1269.900024 805.400024 1270.099976 802.700012 C 1270.099976 801.599976 1270.199951 800.599976 1270.300049 799.5 C 1270.5 796.700012 1270.300049 794 1269.599976 792.200012 L 1263.800049 775.799988 L 1262 770.599976 L 1261.300049 768.599976 C 1262.5 763.700012 1264 759.200012 1265.5 755.099976 L 1265.599976 755.299988 L 1266.400024 756.5 L 1268.699951 760.200012 L 1276.199951 772 C 1277 773.200012 1278 773.299988 1279 772.299988 C 1279.199951 772 1279.5 771.799988 1279.699951 771.599976 C 1280.699951 770.799988 1281.599976 768.900024 1282.099976 766.400024 L 1287.199951 742.900024 L 1288.900024 735 L 1289.5 732.200012 C 1290.400024 732.599976 1291.300049 733.200012 1292.199951 734 C 1293.099976 734.799988 1294 735.700012 1294.800049 736.700012 L 1294.400024 739.700012 L 1293.300049 748.400024 L 1290 773 C 1289.699951 775.700012 1289.800049 778.400024 1290.300049 780.5 C 1290.400024 780.799988 1290.400024 781 1290.5 781.299988 C 1291 783.400024 1291.800049 784.799988 1292.699951 784.900024 L 1301.5 786.099976 L 1304.800049 786.599976 L 1305.900024 786.799988 C 1305.800049 792.099976 1305.599976 797.599976 1305.099976 803.099976 Z"/>
    <path id="path171" fill="#242627" stroke="none" d="M 1300.599976 805.299988 L 1291.699951 809.700012 C 1290.699951 810.200012 1289.699951 811.900024 1289.099976 814.400024 C 1288.900024 815.299988 1288.599976 816.200012 1288.300049 817.099976 C 1287.699951 819 1287.300049 821.299988 1287.300049 823.5 C 1287.300049 823.900024 1287.300049 824.400024 1287.300049 824.799988 L 1287.900024 848.900024 C 1285.800049 852.200012 1283.5 854.599976 1281.199951 856 L 1278.599976 834.200012 C 1278.300049 831.700012 1277.599976 830 1276.599976 829.400024 C 1276.300049 829.299988 1276.099976 829.099976 1275.800049 828.900024 C 1275.699951 828.799988 1275.5 828.700012 1275.400024 828.5 C 1274.5 827.599976 1273.400024 827.900024 1272.5 829.400024 L 1263.900024 842.900024 C 1262.5 838.700012 1261.400024 833.799988 1260.699951 828.400024 L 1268.5 810 C 1269.300049 808.099976 1269.800049 805.400024 1270 802.700012 C 1270 801.599976 1270.099976 800.599976 1270.199951 799.5 C 1270.400024 796.700012 1270.199951 794 1269.5 792.200012 L 1263.699951 775.799988 C 1264.699951 771.5 1265.900024 767.5 1267.199951 764 C 1267.699951 762.700012 1268.099976 761.5 1268.599976 760.299988 L 1276.099976 772.099976 C 1276.900024 773.299988 1277.900024 773.400024 1278.900024 772.400024 C 1279.099976 772.099976 1279.400024 771.900024 1279.599976 771.700012 C 1280.599976 770.900024 1281.5 769 1282 766.5 L 1287.099976 743 C 1288.099976 743.400024 1289.099976 743.900024 1290.099976 744.799988 C 1291.199951 745.700012 1292.300049 746.900024 1293.199951 748.400024 L 1290 773 C 1289.699951 775.700012 1289.800049 778.400024 1290.300049 780.5 C 1290.400024 780.799988 1290.400024 781 1290.5 781.299988 C 1291 783.400024 1291.800049 784.799988 1292.699951 784.900024 L 1301.5 786.099976 C 1301.599976 792.400024 1301.300049 798.799988 1300.599976 805.299988 Z"/>
    <path id="path172" fill="#35393a" stroke="none" opacity="0.4" d="M 1297.5 837.200989 C 1294.800049 845.700989 1291.599976 852.700989 1288 857.601013 L 1287.800049 848.801025 L 1287.199951 824.700989 C 1287.199951 824.301025 1287.199951 823.901001 1287.199951 823.401001 C 1286 821.301025 1284.800049 819.101013 1283.699951 816.901001 C 1283.300049 816.000977 1282.900024 815.200989 1282.5 814.301025 C 1282.400024 814.200989 1282.400024 814.000977 1282.300049 813.801025 C 1281.900024 813.000977 1281.599976 812.200989 1281.199951 811.401001 C 1281.099976 811.101013 1280.900024 810.801025 1280.800049 810.500977 C 1279.699951 808.000977 1278.699951 805.401001 1277.699951 802.801025 C 1277.599976 802.500977 1277.5 802.200989 1277.400024 801.901001 C 1277.199951 801.301025 1277 800.700989 1276.699951 800.101013 C 1276.599976 799.801025 1276.5 799.401001 1276.400024 799.101013 C 1276.099976 798.200989 1275.800049 797.200989 1275.400024 796.301025 C 1275.099976 795.401001 1274.800049 794.601013 1274.599976 793.700989 C 1272.099976 785.901001 1270.099976 778.101013 1268.400024 771.000977 C 1267.900024 768.601013 1267.300049 766.301025 1266.900024 764.000977 C 1266.400024 761.801025 1266 759.601013 1265.599976 757.601013 C 1265.5 756.901001 1265.300049 756.200989 1265.199951 755.500977 C 1265.199951 755.401001 1265.199951 755.301025 1265.099976 755.101013 C 1265.099976 755.200989 1265.099976 755.200989 1265 755.301025 C 1263.5 759.401001 1262.099976 763.901001 1260.800049 768.801025 C 1259.800049 772.801025 1258.900024 777.000977 1258.099976 781.500977 C 1254.800049 800.901001 1254.599976 820.801025 1257 836.700989 C 1257.699951 841.200989 1258.599976 845.500977 1259.699951 849.301025 C 1262 857.200989 1265.199951 863.301025 1269.099976 866.601013 C 1273.300049 870.101013 1277.800049 870.000977 1282.099976 866.801025 C 1284.099976 865.401001 1286 863.401001 1287.900024 860.801025 C 1291.800049 855.500977 1295.400024 847.901001 1298.300049 838.401001 C 1298.199951 837.901001 1297.900024 837.500977 1297.5 837.200989 Z M 1259.300049 782.101013 C 1260 778.101013 1260.800049 774.200989 1261.699951 770.601013 L 1263.5 775.801025 L 1269.300049 792.200989 C 1269.900024 794.000977 1270.199951 796.700989 1270 799.500977 C 1269.900024 800.601013 1269.800049 801.700989 1269.800049 802.700989 C 1269.699951 805.401001 1269.199951 808.101013 1268.300049 810.000977 L 1260.5 828.401001 L 1258 834.301025 C 1256 819.200989 1256.199951 800.401001 1259.300049 782.101013 Z M 1269.800049 863.401001 C 1266.099976 860.301025 1263.199951 854.700989 1261 847.401001 L 1263.800049 842.901001 L 1272.400024 829.401001 C 1273.400024 827.901001 1274.400024 827.601013 1275.300049 828.500977 C 1275.400024 828.601013 1275.599976 828.801025 1275.699951 828.901001 C 1275.900024 829.101013 1276.199951 829.301025 1276.5 829.401001 C 1277.5 830.000977 1278.199951 831.700989 1278.5 834.200989 L 1281.099976 856.000977 L 1282 863.901001 C 1278 866.601013 1273.800049 866.700989 1269.800049 863.401001 Z"/>
    <path id="path173" fill="#35393a" stroke="none" d="M 1286.22998 800.554016 C 1286.930054 791.911987 1285 784.703979 1281.920044 784.455017 C 1278.829956 784.205017 1275.77002 791.008972 1275.069946 799.651978 C 1274.369995 808.294006 1276.300049 815.502014 1279.390015 815.750977 C 1282.469971 816 1285.530029 809.197021 1286.22998 800.554016 Z"/>
    <path id="path174" fill="#000000" stroke="none" d="M 1282.900024 788.599976 C 1282.800049 788.5 1282.800049 788.500977 1282.699951 788.401001 C 1282.599976 788.301025 1282.599976 788.301025 1282.5 788.301025 C 1280.400024 786.901001 1277.900024 790.601013 1276.800049 796.700989 C 1276.699951 797.500977 1276.599976 798.200989 1276.5 799.000977 C 1276.400024 800.301025 1276.300049 801.500977 1276.300049 802.700989 C 1276.300049 803.101013 1276.300049 803.500977 1276.300049 803.801025 C 1276.5 807.401001 1277.300049 810.401001 1278.699951 811.500977 C 1279.5 812.200989 1280.400024 812.101013 1281.300049 811.301025 C 1281.800049 810.801025 1282.300049 810.101013 1282.800049 809.200989 C 1282.900024 808.901001 1283.099976 808.700989 1283.199951 808.401001 C 1283.800049 807.000977 1284.300049 805.200989 1284.599976 803.200989 C 1285.699951 797.101013 1284.900024 790.700012 1282.900024 788.599976 Z M 1276.800049 800.000977 C 1276.900024 799.000977 1277 798 1277.199951 797.099976 C 1278.099976 791.5 1280.400024 788.200989 1282.300049 789.500977 L 1280.599976 799.599976 L 1277.5 801.901001 L 1276.800049 802.401001 C 1276.800049 801.601013 1276.800049 800.801025 1276.800049 800.000977 Z M 1280.900024 810.500977 C 1280.199951 811.000977 1279.5 811.000977 1278.900024 810.401001 C 1277.699951 809.401001 1277 806.700989 1276.800049 803.500977 L 1277.800049 802.700989 L 1280.599976 800.599976 L 1282.599976 808.301025 C 1282.099976 809.401001 1281.5 810.101013 1280.900024 810.500977 Z M 1284.199951 803.000977 C 1283.900024 804.801025 1283.400024 806.400024 1282.900024 807.599976 L 1280.900024 799.901001 L 1282.599976 789.801025 C 1284.5 791.601013 1285.199951 797.401001 1284.199951 803.000977 Z"/>
    <path id="path175" fill="#575a67" stroke="none" d="M 1285.699951 781.801025 L 1290.099976 748.601013 L 1289.800049 748.301025 L 1289.599976 748.101013 L 1289.400024 747.901001 L 1289.099976 747.601013 L 1282.5 779.000977 C 1282.199951 780.601013 1282.199951 782.500977 1282.699951 783.500977 C 1283 784.200989 1283.300049 784.700989 1283.400024 784.801025 C 1283.5 784.801025 1283.900024 784.901001 1284.300049 784.901001 C 1284.900024 784.901001 1285.5 783.601013 1285.699951 781.801025 Z"/>
    <path id="path176" fill="#1c1e1e" stroke="none" d="M 1285.699951 781.801025 L 1290.099976 748.601013 L 1289.800049 748.301025 L 1289.599976 748.101013 L 1289.400024 747.901001 L 1289.099976 747.601013 L 1282.5 779.000977 C 1282.199951 780.601013 1282.199951 782.500977 1282.699951 783.500977 C 1283 784.200989 1283.300049 784.700989 1283.400024 784.801025 C 1283.5 784.801025 1283.900024 784.901001 1284.300049 784.901001 C 1284.900024 784.901001 1285.5 783.601013 1285.699951 781.801025 Z"/>
    <path id="path177" fill="#1c1e1e" stroke="none" d="M 1276.800049 784.5 L 1267.300049 768.700012 L 1267 769.5 L 1266.900024 770 L 1266.800049 770.5 L 1266.5 771.299988 L 1274.300049 792.799988 C 1274.699951 793.900024 1275.400024 794 1276 792.900024 C 1276.400024 792.200012 1276.699951 791.400024 1276.800049 791.200012 C 1276.900024 791 1277.099976 790 1277.300049 788.799988 C 1277.400024 787.099976 1277.300049 785.400024 1276.800049 784.5 Z"/>
    <path id="path178" fill="#1c1e1e" stroke="none" d="M 1273.300049 808.700989 L 1263 832.101013 L 1263.199951 832.901001 L 1263.300049 833.301025 L 1263.400024 833.700989 L 1263.599976 834.500977 L 1275.099976 816.401001 C 1275.699951 815.500977 1276.099976 813.601013 1276 812.000977 C 1275.900024 810.901001 1275.800049 809.901001 1275.800049 809.700989 C 1275.699951 809.500977 1275.5 808.801025 1275.199951 808.200989 C 1274.5 807.200989 1273.800049 807.401001 1273.300049 808.700989 Z"/>
    <path id="path179" fill="#1c1e1e" stroke="none" d="M 1280.300049 820.801025 L 1283.699951 850.700989 L 1284.099976 850.301025 L 1284.300049 850.101013 L 1284.5 849.901001 L 1284.900024 849.500977 L 1283.900024 817.101013 C 1283.800049 815.401001 1283.400024 814.200989 1282.699951 814.301025 C 1282.300049 814.301025 1281.900024 814.601013 1281.800049 814.601013 C 1281.699951 814.700989 1281.300049 815.301025 1281 816.101013 C 1280.300049 817.301025 1280.099976 819.200989 1280.300049 820.801025 Z"/>
    <path id="path180" fill="#1c1e1e" stroke="none" d="M 1287.900024 803.400024 L 1300.199951 797.299988 L 1300.199951 796.299988 L 1300.199951 795.700012 L 1300.199951 795.099976 L 1300.199951 794.099976 L 1288.199951 793.400024 C 1287.599976 793.400024 1286.900024 794.5 1286.599976 796.200012 C 1286.400024 797.400024 1286.300049 798.5 1286.300049 798.700012 C 1286.300049 798.900024 1286.300049 800 1286.400024 801.099976 C 1286.699951 802.799988 1287.199951 803.700012 1287.900024 803.400024 Z"/>
    <path id="path181" fill="#6e7284" stroke="none" d="M 1285.109985 779.955017 C 1285.22998 778.414001 1284.890015 777.129028 1284.339966 777.083984 C 1283.790039 777.039978 1283.23999 778.252991 1283.119995 779.794006 C 1282.98999 781.335999 1283.339966 782.620972 1283.890015 782.666016 C 1284.439941 782.710022 1284.98999 781.497009 1285.109985 779.955017 Z"/>
    <path id="path182" fill="#6e7284" stroke="none" d="M 1285.109985 779.955017 C 1285.22998 778.414001 1284.890015 777.129028 1284.339966 777.083984 C 1283.790039 777.039978 1283.23999 778.252991 1283.119995 779.794006 C 1282.98999 781.335999 1283.339966 782.620972 1283.890015 782.666016 C 1284.439941 782.710022 1284.98999 781.497009 1285.109985 779.955017 Z"/>
    <path id="path183" fill="#35393a" stroke="none" d="M 1285.109985 779.955017 C 1285.22998 778.414001 1284.890015 777.129028 1284.339966 777.083984 C 1283.790039 777.039978 1283.23999 778.252991 1283.119995 779.794006 C 1282.98999 781.335999 1283.339966 782.620972 1283.890015 782.666016 C 1284.439941 782.710022 1284.98999 781.497009 1285.109985 779.955017 Z"/>
    <path id="path184" fill="#35393a" stroke="none" d="M 1276.23999 788.489014 C 1276.359985 786.947021 1276.02002 785.661987 1275.459961 785.617004 C 1274.910034 785.572998 1274.369995 786.786011 1274.23999 788.327026 C 1274.119995 789.869019 1274.459961 791.153992 1275.01001 791.198975 C 1275.560059 791.242981 1276.109985 790.030029 1276.23999 788.489014 Z"/>
    <path id="path185" fill="#35393a" stroke="none" d="M 1274.890015 813.107971 C 1275.02002 811.565979 1274.670044 810.281006 1274.119995 810.236023 C 1273.569946 810.192017 1273.02002 811.405029 1272.900024 812.945984 C 1272.77002 814.487976 1273.119995 815.77301 1273.670044 815.817993 C 1274.219971 815.862 1274.77002 814.648987 1274.890015 813.107971 Z"/>
    <path id="path186" fill="#35393a" stroke="none" d="M 1283.02002 819.676025 C 1283.150024 818.13501 1282.800049 816.848999 1282.25 816.804993 C 1281.699951 816.76001 1281.150024 817.973999 1281.030029 819.515015 C 1280.900024 821.05603 1281.25 822.34198 1281.800049 822.385986 C 1282.349976 822.43103 1282.900024 821.21698 1283.02002 819.676025 Z"/>
    <path id="path187" fill="#35393a" stroke="none" d="M 1289.27002 798.642029 C 1289.390015 797.101013 1289.050049 795.815002 1288.5 795.770996 C 1287.949951 795.726013 1287.400024 796.939026 1287.280029 798.481018 C 1287.150024 800.021973 1287.5 801.307983 1288.050049 801.35199 C 1288.599976 801.396973 1289.150024 800.182983 1289.27002 798.642029 Z"/>
</svg>
