<?xml version="1.0" encoding="iso-8859-1"?>
<!-- Uploaded to: SVG Repo, www.svgrepo.com, Generator: SVG Repo Mixer Tools -->
<svg version="1.1" id="Layer_1" xmlns="http://www.w3.org/2000/svg" xmlns:xlink="http://www.w3.org/1999/xlink" 
	 viewBox="0 0 512 512" xml:space="preserve">
<path style="fill:#38ABEC;" d="M461.228,260.276H50.772v-51.307c0-28.336,22.971-51.307,51.307-51.307h307.841
	c28.336,0,51.307,22.971,51.307,51.307V260.276z"/>
<path style="fill:#3E92DD;" d="M127.733,157.662h-25.653c-28.336,0-51.307,22.971-51.307,51.307v51.307h25.653v-51.307
	C76.426,180.632,99.396,157.662,127.733,157.662z"/>
<g>
	<circle style="fill:#E7EBEC;" cx="409.921" cy="208.969" r="25.653"/>
	<circle style="fill:#E7EBEC;" cx="102.079" cy="208.969" r="25.653"/>
</g>
<rect x="153.386" y="157.662" style="fill:#FDD349;" width="205.228" height="102.614"/>
<polygon style="fill:#FCB82D;" points="196.142,80.701 315.858,80.701 358.614,157.662 153.386,157.662 "/>
<polygon style="fill:#FF8B1B;" points="196.142,80.701 153.386,157.662 179.04,157.662 221.795,80.701 "/>
<rect x="367.165" y="354.338" style="fill:#CED7D9;" width="51.307" height="68.409"/>
<path style="fill:#3C6168;" d="M495.432,499.708h-85.511c-4.722,0-8.551-3.829-8.551-8.551V294.48c0-4.722,3.829-8.551,8.551-8.551
	h85.511c4.722,0,8.551,3.829,8.551,8.551v196.676C503.983,495.879,500.155,499.708,495.432,499.708z"/>
<path style="fill:#234D55;" d="M495.432,474.054h-58.213c-5.631,0-10.196-4.565-10.196-10.196V294.48
	c0-4.722,3.829-8.551,8.551-8.551h-25.653c-4.722,0-8.551,3.829-8.551,8.551v196.676c0,4.722,3.829,8.551,8.551,8.551h85.511
	c4.722,0,8.551-3.829,8.551-8.551v-25.653C503.983,470.226,500.155,474.054,495.432,474.054z"/>
<rect x="93.528" y="354.338" style="fill:#CED7D9;" width="51.307" height="68.409"/>
<path style="fill:#3C6168;" d="M16.568,499.708h85.511c4.722,0,8.551-3.829,8.551-8.551V294.48c0-4.722-3.829-8.551-8.551-8.551
	H16.568c-4.722,0-8.551,3.829-8.551,8.551v196.676C8.017,495.879,11.845,499.708,16.568,499.708z"/>
<path style="fill:#234D55;" d="M102.079,474.054H43.866c-5.631,0-10.196-4.565-10.196-10.196V294.48
	c0-4.722,3.829-8.551,8.551-8.551H16.568c-4.722,0-8.551,3.829-8.551,8.551v196.676c0,4.722,3.829,8.551,8.551,8.551h85.511
	c4.722,0,8.551-3.829,8.551-8.551v-25.653C110.63,470.226,106.802,474.054,102.079,474.054z"/>
<polygon style="fill:#38ABEC;" points="153.386,260.276 358.614,260.276 324.409,388.543 187.591,388.543 "/>
<polygon style="fill:#CED7D9;" points="307.307,362.889 204.693,362.889 187.591,285.929 324.409,285.929 "/>
<polygon style="fill:#B6C4C6;" points="221.795,345.787 208.494,285.929 187.591,285.929 204.693,362.889 307.307,362.889 
	311.108,345.787 "/>
<g>
	<path style="fill:#54747B;" d="M375.716,37.946h-51.307c-4.722,0-8.551-3.829-8.551-8.551V12.292h59.858
		c4.722,0,8.551,3.829,8.551,8.551v8.551C384.267,34.117,380.438,37.946,375.716,37.946z"/>
	<path style="fill:#54747B;" d="M136.284,37.946h51.307c4.722,0,8.551-3.829,8.551-8.551V12.292h-59.858
		c-4.722,0-8.551,3.829-8.551,8.551v8.551C127.733,34.117,131.562,37.946,136.284,37.946z"/>
	<rect x="221.795" y="106.355" style="fill:#54747B;" width="68.409" height="25.653"/>
</g>
<path d="M409.921,175.299c-18.566,0-33.67,15.105-33.67,33.67s15.105,33.67,33.67,33.67c18.566,0,33.67-15.105,33.67-33.67
	S428.486,175.299,409.921,175.299z M409.921,226.605c-9.725,0-17.637-7.912-17.637-17.637s7.912-17.637,17.637-17.637
	s17.637,7.912,17.637,17.637S419.645,226.605,409.921,226.605z"/>
<path d="M102.079,175.299c-18.566,0-33.67,15.105-33.67,33.67s15.105,33.67,33.67,33.67s33.67-15.105,33.67-33.67
	S120.645,175.299,102.079,175.299z M102.079,226.605c-9.725,0-17.637-7.912-17.637-17.637s7.912-17.637,17.637-17.637
	s17.637,7.912,17.637,17.637S111.804,226.605,102.079,226.605z"/>
<path d="M495.432,277.912h-85.511c-9.136,0-16.568,7.432-16.568,16.568v51.841h-26.188c-4.428,0-8.017,3.588-8.017,8.017v18.171
	l-18.472-13.854l24.096-90.363h96.455c4.428,0,8.017-3.588,8.017-8.017v-51.307c0-32.711-26.612-59.324-59.324-59.324h-46.589
	l-40.465-72.838c-1.415-2.544-4.097-4.123-7.009-4.123h-17.637V20.309h9.62v9.086c0,9.136,7.432,16.568,16.568,16.568h51.307
	c9.136,0,16.568-7.432,16.568-16.568v-8.551c0-9.136-7.432-16.568-16.568-16.568h-85.512c-4.428,0-8.017,3.588-8.017,8.017v60.392
	h-52.376V12.292c0-4.428-3.589-8.017-8.017-8.017h-85.511c-9.136,0-16.568,7.432-16.568,16.568v8.551
	c0,9.136,7.432,16.568,16.568,16.568h51.307c9.136,0,16.568-7.432,16.568-16.568v-9.086h9.62v52.376h-17.637
	c-2.912,0-5.594,1.579-7.008,4.123l-40.465,72.838h-46.59c-32.711,0-59.324,26.612-59.324,59.324v51.307
	c0,4.428,3.589,8.017,8.017,8.017h96.455l24.097,90.363l-18.473,13.854v-18.171c0-4.428-3.589-8.017-8.017-8.017h-26.188V294.48
	c0-9.136-7.432-16.568-16.568-16.568H16.568C7.432,277.912,0,285.344,0,294.48v196.676c0,9.136,7.432,16.568,16.568,16.568h85.511
	c9.136,0,16.568-7.432,16.568-16.568v-60.392h26.188c4.427,0,8.017-3.588,8.017-8.017v-30.196l22.926-17.194l4.067,15.252
	c0.935,3.509,4.114,5.951,7.746,5.951h17.102c4.427,0,8.017-3.588,8.017-8.017s-3.589-8.017-8.017-8.017H193.75l-29.929-112.234
	h126.384c4.428,0,8.017-3.588,8.017-8.017c0-4.428-3.588-8.017-8.017-8.017H161.403v-86.58h189.194v86.58h-26.188
	c-4.428,0-8.017,3.588-8.017,8.017c0,4.428,3.588,8.017,8.017,8.017h23.77l-29.928,112.234h-79.354
	c-4.427,0-8.017,3.588-8.017,8.017s3.589,8.017,8.017,8.017h85.511c3.631,0,6.81-2.441,7.746-5.951l4.067-15.252l22.926,17.194
	v30.196c0,4.428,3.588,8.017,8.017,8.017h26.188v60.392c0,9.136,7.432,16.568,16.568,16.568h85.511
	c9.136,0,16.568-7.432,16.568-16.568V294.48C512,285.344,504.568,277.912,495.432,277.912z M358.614,20.309h17.102
	c0.294,0,0.534,0.241,0.534,0.534v8.551c0,0.294-0.241,0.534-0.534,0.534h-51.307c-0.294,0-0.534-0.241-0.534-0.534v-9.086H358.614z
	 M188.125,29.395c0,0.294-0.239,0.534-0.534,0.534h-51.307c-0.295,0-0.534-0.241-0.534-0.534v-8.551
	c0-0.294,0.239-0.534,0.534-0.534h17.102h34.739V29.395z M102.079,491.691H16.568c-0.295,0-0.534-0.241-0.534-0.534v-68.944h34.739
	c4.427,0,8.017-3.588,8.017-8.017s-3.589-8.017-8.017-8.017H16.033v-69.478h34.739c4.427,0,8.017-3.588,8.017-8.017
	c0-4.428-3.589-8.017-8.017-8.017H16.033V294.48c0-0.294,0.239-0.534,0.534-0.534h85.511c0.295,0,0.534,0.241,0.534,0.534v68.944
	H67.875c-4.427,0-8.017,3.588-8.017,8.017c0,4.428,3.589,8.017,8.017,8.017h34.739v69.478H67.875c-4.427,0-8.017,3.588-8.017,8.017
	s3.589,8.017,8.017,8.017h34.739v26.188C102.614,491.451,102.374,491.691,102.079,491.691z M136.818,414.731h-18.171v-52.376h18.171
	V414.731z M58.789,252.259v-43.29c0-23.871,19.42-43.29,43.29-43.29h43.29v86.58H58.789z M167.011,149.645l33.849-60.927h110.282
	l33.849,60.927H167.011z M366.63,165.678h43.29c23.871,0,43.29,19.42,43.29,43.29v43.29h-86.58V165.678z M375.182,414.731v-52.376
	h18.171v52.376H375.182z M495.432,491.691h-85.511c-0.294,0-0.534-0.241-0.534-0.534v-26.188h34.739
	c4.428,0,8.017-3.588,8.017-8.017s-3.588-8.017-8.017-8.017h-34.739v-69.478h34.739c4.428,0,8.017-3.588,8.017-8.017
	c0-4.428-3.588-8.017-8.017-8.017h-34.739V294.48c0-0.294,0.241-0.534,0.534-0.534h85.511c0.294,0,0.534,0.241,0.534,0.534v26.188
	h-34.739c-4.428,0-8.017,3.588-8.017,8.017c0,4.428,3.588,8.017,8.017,8.017h34.739v69.478h-34.739
	c-4.428,0-8.017,3.588-8.017,8.017s3.588,8.017,8.017,8.017h34.739v68.944C495.967,491.451,495.726,491.691,495.432,491.691z"/>
<path d="M187.591,216.985h136.818c4.428,0,8.017-3.588,8.017-8.017s-3.588-8.017-8.017-8.017H187.591
	c-4.427,0-8.017,3.588-8.017,8.017S183.163,216.985,187.591,216.985z"/>
<path d="M187.591,191.332h136.818c4.428,0,8.017-3.588,8.017-8.017s-3.588-8.017-8.017-8.017H187.591
	c-4.427,0-8.017,3.588-8.017,8.017S183.163,191.332,187.591,191.332z"/>
<path d="M187.591,242.639h136.818c4.428,0,8.017-3.588,8.017-8.017c0-4.428-3.588-8.017-8.017-8.017H187.591
	c-4.427,0-8.017,3.588-8.017,8.017C179.574,239.051,183.163,242.639,187.591,242.639z"/>
<path d="M315.132,364.628l17.102-76.96c1.095-4.931-2.778-9.756-7.825-9.756H187.591c-5.046,0-8.922,4.825-7.825,9.756l17.102,76.96
	c0.814,3.668,4.068,6.278,7.825,6.278h102.614C311.065,370.906,314.318,368.297,315.132,364.628z M211.124,354.873l-13.54-60.927
	h116.831l-13.54,60.927H211.124z"/>
<path d="M290.205,98.338h-68.409c-4.427,0-8.017,3.588-8.017,8.017v25.653c0,4.428,3.589,8.017,8.017,8.017h68.409
	c4.428,0,8.017-3.588,8.017-8.017v-25.653C298.221,101.926,294.633,98.338,290.205,98.338z M282.188,123.992h-52.376v-9.62h52.376
	V123.992z"/>
</svg>