<?xml version="1.0" encoding="UTF-8" standalone="no"?>
<!-- Created with Inkscape (http://www.inkscape.org/) -->

<svg
   version="1.1"
   id="svg8754"
   xml:space="preserve"
   width="682.66534"
   height="682.66669"
   viewBox="0 0 682.66534 682.66669"
   xmlns="http://www.w3.org/2000/svg"
   xmlns:svg="http://www.w3.org/2000/svg"><defs
     id="defs8758"><clipPath
       clipPathUnits="userSpaceOnUse"
       id="clipPath8768"><path
         d="M 0,512 H 511.999 V 0 H 0 Z"
         id="path8766" /></clipPath></defs><g
     id="g8760"
     transform="matrix(1.3333333,0,0,-1.3333333,0,682.66667)"><g
       id="g8762"><g
         id="g8764"
         clip-path="url(#clipPath8768)"><g
           id="g8770"
           transform="translate(247.9062,301.9424)"><path
             d="M 0,0 V 35.231 L -2.947,34.14 c -6.298,-2.333 -13.295,0.881 -15.627,7.179 l -6.411,17.309 C -22.653,52.329 -25.867,45.333 -32.165,43 l -7.104,-2.631 c -6.298,-2.333 -13.294,0.881 -15.627,7.179 l -6.224,16.804 c 2.333,-6.299 -0.882,-13.295 -7.18,-15.628 l -7.103,-2.631 c -5.843,-2.164 -12.279,0.45 -15.043,5.866 V 0 Z"
             style="fill:#fee55a;fill-opacity:1;fill-rule:nonzero;stroke:none"
             id="path8772" /></g><g
           id="g8774"
           transform="translate(172.5029,348.0352)"><path
             d="m 0,0 c -5.842,-2.164 -12.279,0.45 -15.043,5.866 v -51.959 h 21.5 V 2.392 Z"
             style="fill:#ffd301;fill-opacity:1;fill-rule:nonzero;stroke:none"
             id="path8776" /></g><g
           id="g8778"
           transform="translate(446.2343,503.4756)"><path
             d="m 0,0 -155.039,-57.428 11.079,-29.911 155.039,57.428 c 8.302,3.075 12.553,12.264 9.493,20.523 C 17.513,-1.128 8.302,3.075 0,0"
             style="fill:#ab6b51;fill-opacity:1;fill-rule:nonzero;stroke:none"
             id="path8780" /></g><g
           id="g8782"
           transform="translate(466.8066,494.0879)"><path
             d="m 0,0 v 0 c -3.06,8.26 -12.271,12.463 -20.572,9.388 l -155.039,-57.428 5.541,-14.959 155.039,57.428 c 6.541,2.423 12.863,2.396 16.004,0.26 C 0.95,-3.543 0.648,-1.751 0,0"
             style="fill:#965a44;fill-opacity:1;fill-rule:nonzero;stroke:none"
             id="path8784" /></g><g
           id="g8786"
           transform="translate(220.4873,158.5439)"><path
             d="m 0,0 c 91.081,-29.694 152.633,-4.067 169.604,4.989 -8.009,20.925 -22.25,38.712 -37.535,50.364 -36.953,28.168 -38.085,55.284 -38.085,55.284 H 0 -93.984 c 0,0 -1.133,-27.116 -38.086,-55.284 C -147.661,43.468 -162.166,25.197 -170.078,3.725 -148.262,11.78 -85.751,27.956 0,0"
             style="fill:#dfebfa;fill-opacity:1;fill-rule:nonzero;stroke:none"
             id="path8788" /></g><g
           id="g8790"
           transform="translate(91.7075,172.0683)"><path
             d="M 0,0 C 8.303,17.215 20.687,31.797 33.847,41.828 70.8,69.997 71.932,97.112 71.932,97.112 H 34.795 c 0,0 -1.132,-27.115 -38.085,-55.284 C -18.881,29.943 -33.386,11.673 -41.298,-9.8 -33.043,-6.752 -18.965,-2.543 0,0"
             style="fill:#b4dbff;fill-opacity:1;fill-rule:nonzero;stroke:none"
             id="path8792" /></g><g
           id="g8794"
           transform="translate(389.082,166.0693)"><path
             d="m 0,0 c -15.453,-8.521 -75.653,-35.826 -168.595,-5.525 -87.734,28.602 -149.148,11.006 -169.533,3.177 -16.199,-42.09 -7.174,-96.95 69.567,-140.189 18.834,-10.611 40.153,-16.033 61.771,-16.033 h 38.195 38.196 c 21.617,0 42.936,5.422 61.77,16.033 C 9.549,-98.488 17.449,-42.383 0,0"
             style="fill:#fee55a;fill-opacity:1;fill-rule:nonzero;stroke:none"
             id="path8796" /></g><g
           id="g8798"
           transform="translate(92.6733,174.0205)"><path
             d="m 0,0 c -19.568,-2.704 -33.767,-7.244 -41.719,-10.299 -22.877,-59.443 13.821,-108.77 69.548,-140.179 18.918,-10.662 40.252,-16.043 61.79,-16.043 h 37.137 c -21.618,0 -42.937,5.421 -61.771,16.033 C -18.19,-103.624 -21.818,-43.111 0,0"
             style="fill:#ffd301;fill-opacity:1;fill-rule:nonzero;stroke:none"
             id="path8800" /></g><g
           id="g8802"
           transform="translate(157.4599,269.1807)"><path
             d="m 0,0 v -39.764 c 0,-8.325 6.749,-15.074 15.074,-15.074 8.326,0 15.075,6.749 15.075,15.074 v -0.881 c 0,8.326 6.749,15.075 15.074,15.075 8.326,0 15.075,-6.749 15.075,-15.075 v -23.314 c 0,-8.325 6.749,-15.074 15.074,-15.074 8.326,0 15.074,6.749 15.074,15.074 V 0 Z"
             style="fill:#fee55a;fill-opacity:1;fill-rule:nonzero;stroke:none"
             id="path8804" /></g><g
           id="g8806"
           transform="translate(178.9594,229.417)"><path
             d="M 0,0 V 39.765 H -21.5 V 0 c 0,-8.325 6.75,-15.074 15.075,-15.074 4.211,0 8.015,1.73 10.75,4.514 C 1.652,-7.84 0,-4.114 0,0"
             style="fill:#ffd301;fill-opacity:1;fill-rule:nonzero;stroke:none"
             id="path8808" /></g><g
           id="g8810"
           transform="translate(239.2573,205.2217)"><path
             d="m 0,0 v 23.314 c 0,8.326 -6.749,15.075 -15.074,15.075 -4.212,0 -8.015,-1.731 -10.75,-4.515 2.672,-2.721 4.324,-6.445 4.324,-10.56 V 0 c 0,-8.325 6.75,-15.075 15.075,-15.075 4.211,0 8.015,1.731 10.75,4.515 C 1.652,-7.84 0,-4.114 0,0"
             style="fill:#ffd301;fill-opacity:1;fill-rule:nonzero;stroke:none"
             id="path8812" /></g><g
           id="g8814"
           transform="translate(228.5576,87.5439)"><path
             d="m 0,0 c 0,-7.934 -6.431,-14.364 -14.364,-14.364 -7.933,0 -14.365,6.43 -14.365,14.364 0,7.933 6.432,14.364 14.365,14.364 C -6.431,14.364 0,7.933 0,0"
             style="fill:#ffd301;fill-opacity:1;fill-rule:nonzero;stroke:none"
             id="path8816" /></g><g
           id="g8818"
           transform="translate(169.5166,120.873)"><path
             d="m 0,0 c 0,-12.353 -10.014,-22.366 -22.366,-22.366 -12.353,0 -22.366,10.013 -22.366,22.366 0,12.353 10.013,22.366 22.366,22.366 C -10.014,22.366 0,12.353 0,0"
             style="fill:#ffd301;fill-opacity:1;fill-rule:nonzero;stroke:none"
             id="path8820" /></g><g
           id="g8822"
           transform="translate(216.3291,87.543)"><path
             d="M 0,0 C 0,4.86 2.42,9.148 6.114,11.748 3.778,13.392 0.937,14.365 -2.136,14.365 -10.069,14.365 -16.5,7.934 -16.5,0 c 0,-7.933 6.431,-14.363 14.364,-14.363 3.073,0 5.914,0.972 8.25,2.616 C 2.42,-9.147 0,-4.859 0,0"
             style="fill:#ffc20c;fill-opacity:1;fill-rule:nonzero;stroke:none"
             id="path8824" /></g><g
           id="g8826"
           transform="translate(141.2841,120.873)"><path
             d="M 0,0 C 0,9.437 5.849,17.505 14.116,20.789 11.563,21.803 8.781,22.366 5.866,22.366 -6.486,22.366 -16.5,12.353 -16.5,0 c 0,-12.353 10.014,-22.366 22.366,-22.366 2.915,0 5.697,0.563 8.25,1.578 C 5.849,-17.504 0,-9.438 0,0"
             style="fill:#ffc20c;fill-opacity:1;fill-rule:nonzero;stroke:none"
             id="path8828" /></g><g
           id="g8830"
           transform="translate(320,302.9424)"><path
             d="m 0,0 h -199.026 c -6.898,0 -12.49,-5.592 -12.49,-12.49 v -9.781 c 0,-6.898 5.592,-12.491 12.49,-12.491 H 0 c 6.898,0 12.49,5.593 12.49,12.491 v 9.781 C 12.49,-5.592 6.898,0 0,0"
             style="fill:#ab6b51;fill-opacity:1;fill-rule:nonzero;stroke:none"
             id="path8832" /></g><g
           id="g8834"
           transform="translate(151.8174,280.6719)"><path
             d="m 0,0 v 9.78 c 0,6.899 5.592,12.491 12.49,12.491 h -43.333 c -6.898,0 -12.49,-5.592 -12.49,-12.491 V 0 c 0,-6.898 5.592,-12.491 12.49,-12.491 H 12.49 C 5.592,-12.491 0,-6.898 0,0"
             style="fill:#965a44;fill-opacity:1;fill-rule:nonzero;stroke:none"
             id="path8836" /></g><g
           id="g8838"
           transform="translate(306.8974,407.7842)"><path
             d="m 0,0 -17.636,47.613 c -2.425,6.546 -9.721,9.9 -16.27,7.475 l -7.104,-2.632 c -6.546,-2.425 -9.899,-9.724 -7.474,-16.269 l 17.635,-47.614 c 2.432,-6.561 9.709,-9.907 16.271,-7.474 l 7.103,2.63 C -0.929,-13.846 2.425,-6.547 0,0"
             style="fill:#ffd301;fill-opacity:1;fill-rule:nonzero;stroke:none"
             id="path8840" /></g><g
           id="g8842"
           transform="translate(291.3828,401.5713)"><path
             d="m 0,0 -17.637,47.613 c -1.977,5.338 -0.109,11.175 4.197,14.463 -1.639,0.074 -3.319,-0.171 -4.952,-0.775 l -7.103,-2.632 c -6.546,-2.425 -9.9,-9.724 -7.475,-16.27 l 17.636,-47.613 c 2.432,-6.56 9.709,-9.907 16.271,-7.474 l 7.103,2.63 c 1.205,0.447 2.3,1.061 3.273,1.802 C 6.38,-8.037 1.824,-4.925 0,0"
             style="fill:#ffc20c;fill-opacity:1;fill-rule:nonzero;stroke:none"
             id="path8844" /></g><g
           id="g8846"
           transform="translate(169.6186,411.0811)"><path
             d="m 0,0 c -2.429,6.558 -9.708,9.909 -16.27,7.474 l -7.104,-2.631 c -6.546,-2.425 -9.899,-9.724 -7.474,-16.271 l 17.636,-47.612 c 2.426,-6.549 9.695,-9.912 16.27,-7.475 l 7.104,2.631 c 6.563,2.432 9.905,9.709 7.474,16.271 z"
             style="fill:#ffd301;fill-opacity:1;fill-rule:nonzero;stroke:none"
             id="path8848" /></g><g
           id="g8850"
           transform="translate(171.0415,357.166)"><path
             d="m 0,0 -17.636,47.612 c -1.997,5.392 -0.069,11.286 4.327,14.556 -1.457,-0.002 -2.937,-0.242 -4.384,-0.779 l -7.103,-2.631 c -6.547,-2.425 -9.9,-9.724 -7.475,-16.271 l 17.636,-47.612 c 2.427,-6.549 9.696,-9.912 16.27,-7.475 l 7.104,2.631 c 1.158,0.429 2.209,1.016 3.152,1.715 C 6.733,-8.263 1.893,-5.108 0,0"
             style="fill:#ffc20c;fill-opacity:1;fill-rule:nonzero;stroke:none"
             id="path8852" /></g><g
           id="g8854"
           transform="translate(283.2109,379.9023)"><path
             d="m 0,0 -30.084,81.219 c -2.426,6.548 -9.726,9.899 -16.27,7.474 l -7.104,-2.631 c -6.562,-2.429 -9.905,-9.708 -7.474,-16.27 l 30.083,-81.219 c 2.431,-6.56 9.706,-9.908 16.271,-7.474 l 7.103,2.63 C -0.929,-13.846 2.425,-6.547 0,0"
             style="fill:#ffd301;fill-opacity:1;fill-rule:nonzero;stroke:none"
             id="path8856" /></g><g
           id="g8858"
           transform="translate(267.3623,374.7051)"><path
             d="m 0,0 -30.083,81.219 c -1.787,4.822 -0.447,10.024 2.989,13.411 -1.14,-0.088 -2.287,-0.322 -3.411,-0.739 l -7.104,-2.632 c -6.562,-2.429 -9.906,-9.708 -7.474,-16.27 L -15,-6.229 c 2.431,-6.561 9.706,-9.909 16.271,-7.475 l 7.103,2.631 c 1.734,0.642 3.235,1.633 4.473,2.854 C 7.346,-8.648 2.012,-5.432 0,0"
             style="fill:#ffc20c;fill-opacity:1;fill-rule:nonzero;stroke:none"
             id="path8860" /></g><g
           id="g8862"
           transform="translate(193.3056,438.9629)"><path
             d="m 0,0 c -2.425,6.547 -9.725,9.899 -16.27,7.475 l -7.104,-2.632 c -6.562,-2.429 -9.906,-9.708 -7.475,-16.27 l 30.085,-81.219 c 2.43,-6.562 9.71,-9.906 16.27,-7.474 l 7.103,2.631 c 6.562,2.43 9.906,9.707 7.475,16.269 z"
             style="fill:#ffd301;fill-opacity:1;fill-rule:nonzero;stroke:none"
             id="path8864" /></g><g
           id="g8866"
           transform="translate(207.5415,352.0391)"><path
             d="m 0,0 -30.084,81.22 c -1.885,5.088 -0.288,10.596 3.579,13.951 -1.334,-0.04 -2.682,-0.284 -4.001,-0.773 l -7.104,-2.631 c -6.561,-2.429 -9.906,-9.708 -7.474,-16.27 L -15,-5.723 c 2.43,-6.561 9.71,-9.905 16.27,-7.473 l 7.104,2.631 c 1.472,0.544 2.771,1.344 3.891,2.315 C 6.975,-8.417 1.94,-5.24 0,0"
             style="fill:#ffc20c;fill-opacity:1;fill-rule:nonzero;stroke:none"
             id="path8868" /></g><g
           id="g8870"
           transform="translate(216.8051,467.3506)"><path
             d="m 0,0 c -2.425,6.545 -9.722,9.9 -16.27,7.475 l -7.104,-2.632 c -6.546,-2.425 -9.899,-9.724 -7.475,-16.27 l 42.907,-115.836 c 2.424,-6.546 9.722,-9.899 16.27,-7.474 l 7.103,2.631 c 6.563,2.43 9.906,9.708 7.475,16.27 z"
             style="fill:#ffd301;fill-opacity:1;fill-rule:nonzero;stroke:none"
             id="path8872" /></g><g
           id="g8874"
           transform="translate(244.5302,344.9209)"><path
             d="m 0,0 -42.907,115.836 c -2.043,5.516 0.026,11.553 4.639,14.771 -1.881,0.203 -3.835,-0.002 -5.727,-0.703 l -7.104,-2.632 c -6.546,-2.424 -9.9,-9.723 -7.475,-16.269 L -15.667,-4.833 c 2.424,-6.546 9.722,-9.899 16.27,-7.475 l 7.103,2.631 c 1.034,0.383 1.977,0.898 2.841,1.499 C 5.915,-7.682 1.724,-4.655 0,0"
             style="fill:#ffc20c;fill-opacity:1;fill-rule:nonzero;stroke:none"
             id="path8876" /></g><g
           id="g8878"
           transform="translate(320.0107,301.9424)"><path
             d="m 0,0 h -199.026 c -6.898,0 -12.49,-5.592 -12.49,-12.49 v -7.781 c 0,-6.898 5.592,-12.491 12.49,-12.491 H 0 c 6.898,0 12.49,5.593 12.49,12.491 v 7.781 C 12.49,-5.592 6.898,0 0,0 Z"
             style="fill:none;stroke:#000000;stroke-width:15;stroke-linecap:round;stroke-linejoin:round;stroke-miterlimit:10;stroke-dasharray:none;stroke-opacity:1"
             id="path8880" /></g><g
           id="g8882"
           transform="translate(258.8925,444.1445)"><path
             d="m 0,0 17.637,-47.613 c 2.332,-6.298 9.329,-9.513 15.627,-7.18 l 7.103,2.631 c 6.298,2.333 9.513,9.33 7.18,15.628 L 29.911,11.079 c -2.333,6.298 -9.33,9.512 -15.628,7.18 L 7.18,15.627 C 0.882,13.294 -2.333,6.298 0,0 Z"
             style="fill:none;stroke:#000000;stroke-width:15;stroke-linecap:round;stroke-linejoin:round;stroke-miterlimit:10;stroke-dasharray:none;stroke-opacity:1"
             id="path8884" /></g><g
           id="g8886"
           transform="translate(186.436,456.0977)"><path
             d="m 0,0 42.907,-115.836 c 2.332,-6.298 9.329,-9.513 15.627,-7.18 l 7.104,2.631 c 6.298,2.333 9.512,9.33 7.179,15.628 L 29.911,11.079 c -2.333,6.298 -9.329,9.512 -15.628,7.18 L 7.18,15.627 C 0.882,13.294 -2.333,6.298 0,0 Z"
             style="fill:none;stroke:#000000;stroke-width:15;stroke-linecap:round;stroke-linejoin:round;stroke-miterlimit:10;stroke-dasharray:none;stroke-opacity:1"
             id="path8888" /></g><g
           id="g8890"
           transform="translate(222.7578,449.8682)"><path
             d="m 0,0 30.084,-81.219 c 2.333,-6.299 9.33,-9.512 15.628,-7.179 l 7.103,2.63 c 6.298,2.333 9.513,9.33 7.18,15.628 L 29.911,11.079 c -2.333,6.298 -9.329,9.513 -15.627,7.18 L 7.18,15.627 C 0.882,13.295 -2.333,6.298 0,0 Z"
             style="fill:none;stroke:#000000;stroke-width:15;stroke-linecap:round;stroke-linejoin:round;stroke-miterlimit:10;stroke-dasharray:none;stroke-opacity:1"
             id="path8892" /></g><g
           id="g8894"
           transform="translate(192.8471,438.7891)"><path
             d="m 0,0 30.084,-81.22 c 2.333,-6.298 -0.881,-13.294 -7.179,-15.627 l -7.104,-2.631 c -6.298,-2.333 -13.295,0.881 -15.628,7.179 l -30.084,81.22 c -2.332,6.298 0.882,13.295 7.18,15.627 l 7.104,2.632 C -9.329,9.513 -2.333,6.298 0,0 Z"
             style="fill:none;stroke:#000000;stroke-width:15;stroke-linecap:round;stroke-linejoin:round;stroke-miterlimit:10;stroke-dasharray:none;stroke-opacity:1"
             id="path8896" /></g><g
           id="g8898"
           transform="translate(169.1606,410.9072)"><path
             d="m 0,0 17.636,-47.613 c 2.333,-6.298 -0.882,-13.295 -7.179,-15.628 l -7.104,-2.631 c -6.298,-2.333 -13.295,0.882 -15.627,7.18 l -17.637,47.612 c -2.333,6.299 0.882,13.295 7.18,15.628 l 7.104,2.631 C -9.33,9.512 -2.333,6.298 0,0 Z"
             style="fill:none;stroke:#000000;stroke-width:15;stroke-linecap:round;stroke-linejoin:round;stroke-miterlimit:10;stroke-dasharray:none;stroke-opacity:1"
             id="path8900" /></g><g
           id="g8902"
           transform="translate(352.5674,213.8965)"><path
             d="m 0,0 c -36.953,28.169 -38.085,55.284 -38.085,55.284 h -93.984 -93.985 c 0,0 -1.132,-27.115 -38.085,-55.284 -46.009,-35.073 -82.642,-125.713 32.104,-190.364 18.834,-10.612 40.153,-16.033 61.77,-16.033 h 38.196 38.195 c 21.617,0 42.936,5.421 61.77,16.033 C 82.642,-125.713 46.01,-35.073 0,0 Z"
             style="fill:none;stroke:#000000;stroke-width:15;stroke-linecap:round;stroke-linejoin:round;stroke-miterlimit:10;stroke-dasharray:none;stroke-opacity:1"
             id="path8904" /></g><g
           id="g8906"
           transform="translate(247.917,301.9424)"><path
             d="M 0,0 V 32.231 L -2.947,31.14 c -6.298,-2.333 -13.295,0.881 -15.627,7.179 l -6.411,17.309 C -22.653,49.329 -25.867,42.333 -32.165,40 l -7.104,-2.631 c -6.298,-2.333 -13.294,0.881 -15.627,7.179 l -6.224,16.804 c 2.332,-6.299 -0.882,-13.295 -7.18,-15.628 l -7.103,-2.631 c -5.843,-2.164 -12.279,0.45 -15.043,5.866 V 0 Z"
             style="fill:none;stroke:#000000;stroke-width:15;stroke-linecap:round;stroke-linejoin:round;stroke-miterlimit:10;stroke-dasharray:none;stroke-opacity:1"
             id="path8908" /></g><g
           id="g8910"
           transform="translate(157.4707,269.1807)"><path
             d="m 0,0 v -39.764 c 0,-8.325 6.749,-15.074 15.074,-15.074 8.326,0 15.075,6.749 15.075,15.074 v -0.881 c 0,8.326 6.749,15.075 15.074,15.075 8.326,0 15.075,-6.749 15.075,-15.075 v -23.314 c 0,-8.325 6.749,-15.074 15.074,-15.074 8.326,0 15.074,6.749 15.074,15.074 V 0 Z"
             style="fill:none;stroke:#000000;stroke-width:15;stroke-linecap:round;stroke-linejoin:round;stroke-miterlimit:10;stroke-dasharray:none;stroke-opacity:1"
             id="path8912" /></g><g
           id="g8914"
           transform="translate(228.5683,87.5439)"><path
             d="m 0,0 c 0,-7.934 -6.431,-14.364 -14.364,-14.364 -7.933,0 -14.365,6.43 -14.365,14.364 0,7.933 6.432,14.364 14.365,14.364 C -6.431,14.364 0,7.933 0,0 Z"
             style="fill:none;stroke:#000000;stroke-width:15;stroke-linecap:round;stroke-linejoin:round;stroke-miterlimit:10;stroke-dasharray:none;stroke-opacity:1"
             id="path8916" /></g><g
           id="g8918"
           transform="translate(169.5273,120.873)"><path
             d="m 0,0 c 0,-12.353 -10.014,-22.366 -22.366,-22.366 -12.353,0 -22.366,10.013 -22.366,22.366 0,12.353 10.013,22.366 22.366,22.366 C -10.014,22.366 0,12.353 0,0 Z"
             style="fill:none;stroke:#000000;stroke-width:15;stroke-linecap:round;stroke-linejoin:round;stroke-miterlimit:10;stroke-dasharray:none;stroke-opacity:1"
             id="path8920" /></g><g
           id="g8922"
           transform="translate(203.7402,134.1543)"><path
             d="M 0,0 V 0"
             style="fill:none;stroke:#000000;stroke-width:15;stroke-linecap:round;stroke-linejoin:round;stroke-miterlimit:10;stroke-dasharray:none;stroke-opacity:1"
             id="path8924" /></g><g
           id="g8926"
           transform="translate(260.0136,150.5566)"><path
             d="m 0,0 c -12.412,2.21 -25.594,5.448 -39.516,9.987 -87.734,28.603 -149.148,11.007 -169.533,3.178 -16.199,-42.091 -7.174,-96.95 69.568,-140.189 18.834,-10.613 40.152,-16.034 61.77,-16.034 h 38.195 38.196 c 21.617,0 42.936,5.421 61.77,16.034 78.178,44.048 86.078,100.155 68.629,142.537 C 118.265,9.55 85.53,-5.609 35,-3.789"
             style="fill:none;stroke:#000000;stroke-width:15;stroke-linecap:round;stroke-linejoin:round;stroke-miterlimit:10;stroke-dasharray:none;stroke-opacity:1"
             id="path8928" /></g><g
           id="g8930"
           transform="translate(395.8955,450.8115)"><path
             d="m 0,0 61.506,22.782 c 8.26,3.059 12.474,12.235 9.416,20.494 -3.06,8.26 -12.235,12.476 -20.495,9.416 l -154.24,-57.131 11.079,-29.911 59.872,22.177"
             style="fill:none;stroke:#000000;stroke-width:15;stroke-linecap:round;stroke-linejoin:round;stroke-miterlimit:10;stroke-dasharray:none;stroke-opacity:1"
             id="path8932" /></g></g></g></g></svg>
