<?xml version="1.0" encoding="UTF-8" standalone="no"?>
<!DOCTYPE svg PUBLIC "-//W3C//DTD SVG 1.1//EN" "http://www.w3.org/Graphics/SVG/1.1/DTD/svg11.dtd">
<!-- Created with Vectornator (http://vectornator.io/) -->
<svg height="100%" stroke-miterlimit="10" style="fill-rule:nonzero;clip-rule:evenodd;stroke-linecap:round;stroke-linejoin:round;" version="1.1" viewBox="0 0 512 512" width="100%" xml:space="preserve" xmlns="http://www.w3.org/2000/svg" xmlns:vectornator="http://vectornator.io" xmlns:xlink="http://www.w3.org/1999/xlink">
<defs/>
<clipPath id="ArtboardFrame">
<rect height="512" width="512" x="0" y="0"/>
</clipPath>
<g clip-path="url(#ArtboardFrame)" id="Untitled" vectornator:layerName="Untitled">
<g opacity="1" vectornator:layerName="g">
<g opacity="1" vectornator:layerName="g">
<path d="M271.162 367.531C271.162 363.199 267.651 359.689 263.319 359.689C258.988 359.689 255.477 363.2 255.477 367.531C255.477 371.556 253.926 373.297 250.419 376.849C246.376 380.945 240.838 386.554 240.838 397.187C240.838 407.82 246.375 413.43 250.419 417.525C253.927 421.079 255.477 422.82 255.477 426.846C255.477 430.872 253.926 432.613 250.419 436.167C246.376 440.263 240.838 445.872 240.838 456.506C240.838 467.139 246.375 472.749 250.418 476.845C253.926 480.399 255.477 482.14 255.477 486.167C255.477 490.193 253.926 491.935 250.419 495.488C246.959 498.993 242.416 503.617 241.174 511.539C246.08 511.834 251.02 512 256 512C256.411 512 256.819 511.987 257.23 511.984C257.999 510.207 259.415 508.702 261.581 506.507C265.624 502.411 271.162 496.802 271.162 486.168C271.162 475.534 265.624 469.924 261.581 465.828C258.073 462.274 256.523 460.533 256.523 456.507C256.523 452.481 258.074 450.74 261.581 447.186C265.624 443.09 271.162 437.481 271.162 426.847C271.162 416.213 265.624 410.604 261.581 406.508C258.073 402.954 256.523 401.214 256.523 397.188C256.523 393.163 258.074 391.423 261.581 387.87C265.624 383.774 271.162 378.165 271.162 367.531Z" fill="#cbd8fb" fill-rule="nonzero" opacity="1" stroke="none" vectornator:layerName="path"/>
<path d="M175.215 472.3C172.909 470.057 169.051 466.302 168.823 464.731C168.477 462.342 171.094 457.67 173.198 453.917C176.57 447.897 180.058 441.673 178.856 434.839C177.39 426.493 170.676 420.742 165.282 416.119C163.075 414.229 159.752 411.381 159.205 410.078C158.121 404.787 159.485 403.015 162.188 399.502C165.244 395.53 169.863 389.526 167.191 379.41C166.085 375.223 161.795 372.723 157.606 373.832C153.418 374.938 150.92 379.23 152.027 383.418C152.71 386.003 152.307 386.626 149.758 389.938C146.384 394.325 141.284 400.953 143.869 413.363C145.152 419.526 150.199 423.849 155.079 428.031C158.571 431.023 162.916 434.747 163.407 437.538C163.559 439.035 161.028 443.551 159.516 446.25C156.083 452.377 152.192 459.321 153.302 466.98C154.293 473.826 159.598 478.987 164.278 483.541C167.152 486.338 171.089 490.168 171.333 492.326C171.425 493.138 170.733 494.689 169.794 496.385C174.718 498.236 179.715 499.935 184.784 501.472C186.36 498.053 187.355 494.419 186.919 490.564C186.042 482.837 180.29 477.239 175.215 472.3Z" fill="#cbd8fb" fill-rule="nonzero" opacity="1" stroke="none" vectornator:layerName="path"/>
<path d="M368.549 377.57C364.359 376.459 360.07 378.962 358.963 383.149C358.253 385.836 357.366 386.362 353.721 388.157C348.701 390.63 341.113 394.367 338.446 407.18C337.121 413.544 340.277 419.595 343.33 425.448C345.439 429.49 348.063 434.521 347.564 437.364C347.233 438.827 343.431 442.304 341.159 444.381C335.849 449.238 329.831 454.74 328.688 462.632C327.665 469.694 331.578 476.201 335.03 481.941C337.077 485.343 339.879 490.003 339.629 492.208C339.463 493.678 336.559 496.86 334.314 499.212C341.465 496.801 348.462 494.059 355.301 491.024C354.992 484.711 351.556 478.988 348.471 473.859C346.905 471.255 343.99 466.407 344.21 464.882C344.55 462.535 348.539 458.888 351.744 455.957C356.709 451.416 361.844 446.721 363.01 440.088C364.434 431.99 360.443 424.341 357.237 418.193C355.885 415.601 353.85 411.702 353.824 410.271C354.934 405.045 356.736 404.156 360.652 402.227C364.998 400.087 371.567 396.852 374.128 387.154C375.235 382.968 372.737 378.676 368.549 377.57Z" fill="#cbd8fb" fill-rule="nonzero" opacity="1" stroke="none" vectornator:layerName="path"/>
</g>
<path d="M61.049 421.258C56.956 421.258 53.509 418.083 53.232 413.939C52.641 405.109 58.692 400.248 62.307 397.342C64.54 395.548 65.596 394.592 65.557 394.018C65.519 393.444 64.345 392.639 61.894 391.159C57.924 388.761 51.279 384.749 50.687 375.919C50.096 367.089 56.147 362.227 59.763 359.323C61.995 357.529 63.05 356.574 63.012 356.001C62.723 351.679 65.992 347.941 70.313 347.652C74.635 347.352 78.372 350.632 78.662 354.953C79.253 363.783 73.202 368.644 69.586 371.549C67.354 373.343 66.298 374.298 66.337 374.871C66.375 375.445 67.549 376.251 70.001 377.731C73.971 380.129 80.615 384.141 81.207 392.97C81.798 401.8 75.747 406.662 72.132 409.567C69.899 411.361 68.843 412.317 68.882 412.891C69.171 417.213 65.902 420.951 61.581 421.24C61.402 421.253 61.224 421.258 61.049 421.258Z" fill="#ff7186" fill-rule="nonzero" opacity="1" stroke="none" vectornator:layerName="path"/>
<path d="M184.23 78.523C180.137 78.523 176.69 75.348 176.413 71.204C175.822 62.374 181.873 57.512 185.488 54.607C187.72 52.813 188.776 51.858 188.737 51.284C188.699 50.71 187.525 49.904 185.073 48.424C181.103 46.026 174.459 42.014 173.867 33.184C173.276 24.355 179.327 19.493 182.942 16.588C185.174 14.795 186.23 13.84 186.191 13.266C185.902 8.944 189.17 5.207 193.492 4.917C197.815 4.605 201.552 7.896 201.841 12.218C202.432 21.048 196.381 25.91 192.766 28.815C190.534 30.608 189.478 31.563 189.517 32.136C189.555 32.71 190.729 33.515 193.181 34.996C197.151 37.394 203.795 41.406 204.387 50.236C204.978 59.066 198.927 63.927 195.312 66.833C193.08 68.627 192.024 69.582 192.063 70.156C192.353 74.478 189.084 78.215 184.762 78.505C184.584 78.518 184.406 78.523 184.23 78.523Z" fill="#ffdd40" fill-rule="nonzero" opacity="1" stroke="none" vectornator:layerName="path"/>
<path d="M307.196 71.172C304.045 71.172 301.074 69.259 299.875 66.144C298.32 62.101 300.336 57.563 304.379 56.008L315.843 51.598C319.882 50.04 324.422 52.06 325.978 56.101C327.533 60.144 325.517 64.682 321.474 66.237L310.01 70.647C309.085 71.003 308.133 71.172 307.196 71.172Z" fill="#ff7186" fill-rule="nonzero" opacity="1" stroke="none" vectornator:layerName="path"/>
<path d="M140.641 66.767C138.572 66.767 136.506 65.953 134.965 64.338L126.486 55.45C123.497 52.316 123.614 47.352 126.747 44.362C129.881 41.373 134.845 41.489 137.835 44.623L146.314 53.511C149.303 56.645 149.186 61.609 146.053 64.599C144.534 66.048 142.586 66.767 140.641 66.767Z" fill="#4fabf7" fill-rule="nonzero" opacity="1" stroke="none" vectornator:layerName="path"/>
<path d="M387.089 373.636L376.894 351.221C373.191 351.262 369.485 350.987 365.79 350.347C362.095 349.707 358.512 348.72 355.039 347.437L337.9 365.119C333.544 369.614 334.643 377.045 340.138 380.042C346.187 383.341 352.644 385.67 359.468 386.852C366.292 388.034 373.156 388.011 379.962 386.938C386.146 385.963 389.68 379.334 387.089 373.636Z" fill="#ffb332" fill-rule="nonzero" opacity="1" stroke="none" vectornator:layerName="path"/>
<path d="M381.935 362.305L376.894 351.221C373.191 351.262 369.485 350.986 365.79 350.347C362.095 349.707 358.512 348.72 355.039 347.437L337.9 365.119C333.544 369.614 334.643 377.046 340.138 380.042C346.187 383.341 352.643 385.67 359.468 386.852C359.524 386.862 359.581 386.868 359.638 386.878C350.818 357.985 372.432 360.121 381.935 362.305Z" fill="#ff9100" fill-rule="nonzero" opacity="1" stroke="none" vectornator:layerName="path"/>
<path d="M124.911 373.636L135.106 351.221C138.809 351.262 142.515 350.987 146.21 350.347C149.905 349.707 153.488 348.72 156.961 347.437L174.099 365.119C178.455 369.614 177.356 377.045 171.861 380.042C165.812 383.341 159.355 385.67 152.531 386.852C145.707 388.034 138.843 388.011 132.037 386.938C125.854 385.963 122.32 379.334 124.911 373.636Z" fill="#4fabf7" fill-rule="nonzero" opacity="1" stroke="none" vectornator:layerName="path"/>
<path d="M163.966 354.664L156.961 347.437C153.488 348.72 149.905 349.707 146.21 350.347C142.515 350.987 138.809 351.262 135.106 351.221L124.911 373.636C122.32 379.334 125.854 385.963 132.037 386.938C138.843 388.011 145.707 388.034 152.531 386.852C154.036 386.592 155.519 386.265 156.987 385.895C133.48 368.816 153.164 358.587 163.966 354.664Z" fill="#2e8be6" fill-rule="nonzero" opacity="1" stroke="none" vectornator:layerName="path"/>
<path d="M280.96 353.647L267.09 333.3C263.449 333.972 259.75 334.333 256 334.333C252.25 334.333 248.551 333.972 244.91 333.3L231.04 353.647C227.515 358.819 229.866 365.954 235.792 367.97C242.315 370.189 249.074 371.382 256 371.382C262.926 371.382 269.685 370.189 276.208 367.97C282.134 365.954 284.486 358.818 280.96 353.647Z" fill="#ff4155" fill-rule="nonzero" opacity="1" stroke="none" vectornator:layerName="path"/>
<path d="M273.599 342.848L267.09 333.3C263.449 333.972 259.75 334.333 256 334.333C252.25 334.333 248.551 333.972 244.91 333.3L231.04 353.647C227.515 358.819 229.866 365.954 235.792 367.97C242.315 370.189 249.074 371.382 256 371.382C243.715 344.916 265.558 342.782 273.599 342.848Z" fill="#e80054" fill-rule="nonzero" opacity="1" stroke="none" vectornator:layerName="path"/>
<path d="M385.293 53.107L370.978 46.561C368.697 45.518 366.001 46.521 364.958 48.803L358.411 63.119C357.368 65.4 358.372 68.095 360.653 69.138L374.968 75.684C377.249 76.727 379.945 75.724 380.988 73.443L387.535 59.127C388.578 56.845 387.574 54.15 385.293 53.107Z" fill="#ffdd40" fill-rule="nonzero" opacity="1" stroke="none" vectornator:layerName="path"/>
<path d="M243.68 6.959L257.995 0.413C260.276-0.63 262.972 0.373 264.015 2.655L270.562 16.97C271.605 19.251 270.601 21.946 268.32 22.989L254.005 29.536C251.724 30.579 249.028 29.576 247.985 27.295L241.438 12.979C240.395 10.697 241.399 8.002 243.68 6.959Z" fill="#4fabf7" fill-rule="nonzero" opacity="1" stroke="none" vectornator:layerName="path"/>
<path d="M407.663 108.518C379.696 103.675 352.733 109.51 331.658 125.53C345.165 142.807 353.184 166.09 353.184 194.514C353.184 235.075 336.453 279.767 310.46 307.425C323.59 330.856 342.454 347.932 365.516 351.925C419.324 361.242 475.576 295.844 487.073 229.449C498.57 163.053 461.472 117.836 407.663 108.518Z" fill="#ffdd40" fill-rule="nonzero" opacity="1" stroke="none" vectornator:layerName="path"/>
<path d="M444.841 122.29C433.868 115.554 421.304 110.881 407.664 108.519C379.697 103.676 352.734 109.511 331.659 125.531C345.166 142.808 353.185 166.092 353.185 194.514C353.185 235.075 336.454 279.767 310.461 307.425C323.591 330.856 342.455 347.932 365.517 351.925C368.182 352.387 370.854 352.657 373.526 352.761C354.428 326.416 356.011 260.868 374.577 206.115C391.597 155.917 418.519 127.7 444.841 122.29Z" fill="#ffb332" fill-rule="nonzero" opacity="1" stroke="none" vectornator:layerName="path"/>
<path d="M158.815 194.514C158.815 166.12 166.826 142.824 180.342 125.53C159.267 109.51 132.305 103.676 104.337 108.518C50.529 117.835 13.43 163.053 24.927 229.448C36.424 295.843 92.676 361.241 146.484 351.924C169.546 347.931 188.41 330.855 201.54 307.425C175.546 279.768 158.815 235.075 158.815 194.514Z" fill="#73c3f9" fill-rule="nonzero" opacity="1" stroke="none" vectornator:layerName="path"/>
<path d="M102.267 214.999C95.072 160.656 107.78 122.706 130.379 107.112C121.901 106.527 113.169 106.988 104.337 108.518C50.529 117.835 13.43 163.053 24.927 229.448C36.424 295.843 92.676 361.241 146.484 351.924C152.757 350.838 158.717 348.777 164.339 345.89C136.245 329.169 109.688 271.054 102.267 214.999Z" fill="#4fabf7" fill-rule="nonzero" opacity="1" stroke="none" vectornator:layerName="path"/>
<path d="M354.878 194.514C354.878 261.897 310.609 335.934 256 335.934C201.391 335.934 157.122 261.898 157.122 194.514C157.122 127.13 201.391 88.906 256 88.906C310.609 88.906 354.878 127.131 354.878 194.514Z" fill="#ff7186" fill-rule="nonzero" opacity="1" stroke="none" vectornator:layerName="path"/>
<path d="M233.364 194.514C233.364 137.158 253.077 100.947 279.637 91.435C272.063 89.763 264.148 88.906 256.001 88.906C201.392 88.906 157.123 127.131 157.123 194.515C157.123 261.898 201.392 335.935 256.001 335.935C264.14 335.935 272.046 334.279 279.613 331.257C253.063 314.002 233.364 251.855 233.364 194.514Z" fill="#ff4155" fill-rule="nonzero" opacity="1" stroke="none" vectornator:layerName="path"/>
<path d="M291.648 163.725C291.648 153.094 300.267 144.475 310.898 144.475C321.529 144.475 330.148 153.094 330.148 163.725C330.148 174.356 321.529 182.975 310.898 182.975C300.267 182.975 291.648 174.356 291.648 163.725Z" fill="#ff99ad" fill-rule="nonzero" opacity="1" stroke="none" vectornator:layerName="circle"/>
<path d="M268.898 192.85C268.898 186.568 273.991 181.475 280.273 181.475C286.555 181.475 291.648 186.568 291.648 192.85C291.648 199.132 286.555 204.225 280.273 204.225C273.991 204.225 268.898 199.132 268.898 192.85Z" fill="#ff99ad" fill-rule="nonzero" opacity="1" stroke="none" vectornator:layerName="circle"/>
</g>
</g>
</svg>
