<?xml version="1.0" encoding="UTF-8" standalone="no"?>
<!DOCTYPE svg PUBLIC "-//W3C//DTD SVG 1.1//EN" "http://www.w3.org/Graphics/SVG/1.1/DTD/svg11.dtd">
<!-- Created with Vectornator (http://vectornator.io/) -->
<svg height="100%" stroke-miterlimit="10" style="fill-rule:nonzero;clip-rule:evenodd;stroke-linecap:round;stroke-linejoin:round;" version="1.1" viewBox="0 0 800 800" width="100%" xml:space="preserve" xmlns="http://www.w3.org/2000/svg" xmlns:vectornator="http://vectornator.io" xmlns:xlink="http://www.w3.org/1999/xlink">
<defs/>
<g id="g64048" vectornator:layerName="g64048">
<g opacity="1" vectornator:layerName="path">
<clipPath id="ClipPath">
<path d="M0 4.76837e-05L800 4.76837e-05L800 800L0 800L0 4.76837e-05Z"/>
</clipPath>
<g clip-path="url(#ClipPath)">
<path d="M147.379 447.904C141.399 443.237 135.349 439.16 119.971 440.936C111.924 441.864 105.333 432.611 93.0293 433.039C90.5507 428.859 88.072 424.677 85.5933 420.495C92.5773 408.113 102.304 396.953 114.863 387.051C120.743 388.133 126.631 389.216 132.511 390.301C150.42 380.691 168.963 372.039 188.725 365.215C212.337 333.62 241.445 326.357 273.733 333.163C345.739 307.155 417.741 292.588 489.743 277.883C519.167 296.928 548.585 315.975 578.007 335.021C627.865 337.808 677.851 338.893 727.588 343.384C736.904 344.223 743.512 350.147 745.703 358.248C739.003 359.043 734.487 362.733 727.588 366.609C691.964 386.621 628.483 473.824 480.453 460.911C377.391 451.919 274.043 441.4 170.139 455.336C165.689 448.525 155.819 454.489 147.379 447.904" fill="#336699" fill-rule="evenodd" opacity="1" stroke="none" vectornator:layerName="path"/>
<path d="M132.511 390.301C150.42 380.691 168.963 372.039 188.725 365.215C212.337 333.62 241.445 326.357 273.733 333.163C345.739 307.155 417.741 292.588 489.743 277.883C519.167 296.928 548.585 315.975 578.007 335.021C425.349 333.597 248.955 364.441 132.511 390.301" fill="#efecec" fill-rule="evenodd" opacity="1" stroke="none" vectornator:layerName="path"/>
<path d="M188.725 365.215C212.337 333.62 241.445 326.357 273.733 333.163C244.476 342.152 216.127 352.82 188.725 365.215" fill="#336699" fill-rule="evenodd" opacity="1" stroke="none" vectornator:layerName="path"/>
<path d="M147.379 447.904C141.399 443.237 135.349 439.16 119.971 440.936C111.924 441.864 105.333 432.611 93.0293 433.039C90.5507 428.859 88.072 424.677 85.5933 420.495C109.571 427.051 139.461 417.027 169.679 406.097C365.873 353.309 555.783 355.837 745.703 358.248C739.003 359.043 734.487 362.733 727.588 366.609C691.964 386.621 628.483 473.824 480.453 460.911C377.391 451.919 274.043 441.4 170.139 455.336C165.689 448.525 155.819 454.489 147.379 447.904" fill="#efecec" fill-rule="evenodd" opacity="1" stroke="none" vectornator:layerName="path"/>
<path d="M743.485 358.631C737.94 359.888 733.696 363.176 727.588 366.609C691.964 386.621 628.483 473.824 480.453 460.911C420.881 455.712 361.211 450.005 301.396 448.805C426.843 434.673 515.551 459.289 633.988 410.047C671.492 394.455 674.279 370.681 743.485 358.631" fill="#336699" fill-rule="evenodd" opacity="1" stroke="none" vectornator:layerName="path"/>
<path d="M530.28 370.215C399.052 374.781 268.464 382.323 144.713 421.779C186.209 422.087 227.713 422.399 269.211 422.707C335.232 399.005 409.595 377.768 530.28 370.215" fill="#336699" fill-rule="evenodd" opacity="1" stroke="none" vectornator:layerName="path"/>
<path d="M456.804 294.999L513.971 330.413C529.32 329.701 544.751 328.939 560.131 328.173L496.836 287.295C483.076 289.764 469.755 292.337 456.804 294.999M310.553 330.961C351.336 319.753 392.936 308.744 438.916 298.776L489.709 331.491C423.72 334.271 360.483 335.533 310.553 330.961" fill="#71a8de" fill-rule="evenodd" opacity="1" stroke="none" vectornator:layerName="path"/>
<path d="M464.709 299.901L513.971 330.413C525.271 329.889 536.616 329.337 547.953 328.779L494.512 294.263C484.348 296.087 474.425 297.969 464.709 299.901M477.349 331.995C423.581 334.101 372.103 335.009 328.735 332.339C363.02 323.079 398.283 314.048 436.591 305.745L477.349 331.995Z" fill="#87baed" fill-rule="evenodd" opacity="1" stroke="none" vectornator:layerName="path"/>
<path d="M626.427 305.156L626.443 305.156C651.295 304.992 675.588 305.399 698.555 306.504C701.908 306.665 704.776 307.493 706.903 308.871C708.267 309.753 709.333 310.86 710.047 312.165C710.781 313.499 711.139 315.013 711.057 316.677C710.963 318.715 710.195 320.965 708.645 323.355L692.387 348.44C691.733 349.452 690.375 349.74 689.361 349.084C688.349 348.424 688.063 347.068 688.717 346.056L704.975 320.972C706.083 319.265 706.627 317.757 706.685 316.472C706.725 315.645 706.556 314.909 706.207 314.275C705.843 313.611 705.269 313.028 704.52 312.54C703.04 311.583 700.919 311 698.349 310.876C675.839 309.792 652.045 309.384 627.689 309.525L606.289 345.229C605.668 346.265 604.321 346.601 603.285 345.984C602.251 345.361 601.915 344.02 602.531 342.983L622.567 309.561C593.252 309.823 563.211 310.86 533.675 312.46C529.692 312.676 525.716 312.901 521.755 313.139L501.519 347.659C500.908 348.699 499.569 349.049 498.525 348.439C497.483 347.828 497.135 346.488 497.745 345.444L516.5 313.456C484.124 315.457 452.669 318.093 423.816 321.068L404.145 351.457C403.487 352.471 402.131 352.759 401.119 352.103C400.104 351.443 399.817 350.089 400.475 349.076L418.223 321.653C395.149 324.097 373.857 326.752 355.231 329.464C344.088 331.085 335.016 335.637 327.057 343.599L316.293 354.364C315.44 355.221 314.055 355.225 313.2 354.373C312.34 353.523 312.34 352.136 313.189 351.279L323.953 340.512C332.571 331.893 342.551 326.883 354.609 325.127C401.88 318.247 466.339 311.723 533.449 308.087C564.356 306.415 595.82 305.353 626.427 305.156" fill="#efecec" fill-rule="evenodd" opacity="1" stroke="none" vectornator:layerName="path"/>
<path d="M664.423 515.991C551.697 481.921 446.636 461.127 316.021 455.133C171.168 448.489 98.8987 490.229 15 443.985C132.82 537.291 225.971 489.331 320.203 481.149C437.481 470.964 543.953 490.593 664.423 515.991" fill="#51a5fb" fill-rule="evenodd" opacity="1" stroke="none" vectornator:layerName="path"/>
<path d="M629.817 525.625C404.535 477.089 352.771 484.605 202.443 511.692C309.443 503.023 425.265 492.489 629.817 525.625" fill="#51a6fa" fill-rule="evenodd" opacity="1" stroke="none" vectornator:layerName="path"/>
</g>
</g>
</g>
</svg>
