<?xml version="1.0" encoding="UTF-8" standalone="no"?>
<!DOCTYPE svg PUBLIC "-//W3C//DTD SVG 1.1//EN" "http://www.w3.org/Graphics/SVG/1.1/DTD/svg11.dtd">
<!-- Created with Vectornator (http://vectornator.io/) -->
<svg height="100%" stroke-miterlimit="10" style="fill-rule:nonzero;clip-rule:evenodd;stroke-linecap:round;stroke-linejoin:round;" version="1.1" viewBox="0 0 512 512" width="100%" xml:space="preserve" xmlns="http://www.w3.org/2000/svg" xmlns:vectornator="http://vectornator.io" xmlns:xlink="http://www.w3.org/1999/xlink">
<defs/>
<g id="Untitled" vectornator:layerName="Untitled">
<path d="M190.709 32.43C189.194 18.462 177.4 7.877 163.349 7.877L136.964 7.877C122.913 7.877 111.119 18.461 109.605 32.43L96.298 155.183C93.609 179.984 113.039 201.634 137.986 201.634L209.052 201.634L190.709 32.43Z" fill="#515262" fill-rule="nonzero" opacity="1" stroke="none" vectornator:layerName="path"/>
<path d="M190.709 32.43C189.194 18.462 177.4 7.877 163.349 7.877L139.194 7.877C153.245 7.877 165.039 18.462 166.553 32.43L184.896 201.633L209.051 201.633L190.709 32.43Z" fill="#494a59" fill-rule="nonzero" opacity="1" stroke="none" vectornator:layerName="path"/>
<path d="M331.297 102.354L180.702 102.354C127.337 102.354 85.713 148.558 91.262 201.633L112.31 402.93C118.324 460.443 166.808 504.123 224.635 504.123L287.364 504.123C345.191 504.123 393.675 460.444 399.689 402.93L420.737 201.633C426.286 148.558 384.662 102.354 331.297 102.354Z" fill="#65687a" fill-rule="nonzero" opacity="1" stroke="none" vectornator:layerName="path"/>
<path d="M148.995 349.806L363.006 349.806L378.956 197.265C380.385 183.587 376.105 170.426 366.899 160.209C357.694 149.991 345.05 144.364 331.298 144.364L180.702 144.364C166.949 144.364 154.306 149.991 145.1 160.209C135.895 170.427 131.613 183.587 133.043 197.265L148.995 349.806Z" fill="#b9e578" fill-rule="nonzero" opacity="1" stroke="none" vectornator:layerName="path"/>
<path d="M133.862 205.084C135.601 197.084 139.406 189.635 145.1 183.314C154.305 173.096 166.949 167.468 180.702 167.468L331.297 167.468C345.05 167.468 357.693 173.095 366.898 183.314C372.593 189.635 376.398 197.085 378.138 205.084L378.956 197.264C380.385 183.587 376.105 170.425 366.899 160.209C357.694 149.991 345.05 144.363 331.298 144.363L180.702 144.363C166.949 144.363 154.306 149.99 145.1 160.209C135.895 170.427 131.613 183.587 133.043 197.264L133.862 205.084Z" fill="#cfff86" fill-rule="nonzero" opacity="1" stroke="none" vectornator:layerName="path"/>
<path d="M141.042 390.497C145.282 405.847 159.248 416.479 175.172 416.479L189.283 416.479C190.952 406.998 194.598 398.189 199.781 390.497C199.781 390.497 141.042 390.497 141.042 390.497Z" fill="#b9e578" fill-rule="nonzero" opacity="1" stroke="none" vectornator:layerName="path"/>
<path d="M141.021 151.997L372.025 151.997L372.025 151.997L372.025 349.636L372.025 349.636L141.021 349.636L141.021 349.636L141.021 151.997L141.021 151.997Z" fill="#ffffff" fill-rule="nonzero" opacity="1" stroke="none" vectornator:layerName="rect"/>
<g opacity="1" vectornator:layerName="g">
<path d="M224.862 260.865L273.395 276.358L235.277 334.282L205.906 332.468L232.985 299.039L188.305 285.849L224.862 260.865Z" fill="#4cdbc4" fill-rule="nonzero" opacity="1" stroke="none" vectornator:layerName="polygon"/>
<path d="M195.075 217.248L218.404 215.922L262.356 190.519L252.461 151.997L169.245 151.997L195.075 217.248Z" fill="#4cdbc4" fill-rule="nonzero" opacity="1" stroke="none" vectornator:layerName="polygon"/>
</g>
<path d="M289.851 249.839C289.851 243.749 297.498 238.813 306.932 238.813C316.365 238.813 324.012 243.749 324.012 249.839C324.012 255.929 316.365 260.865 306.932 260.865C297.498 260.865 289.851 255.929 289.851 249.839Z" fill="#84dbff" fill-rule="nonzero" opacity="1" stroke="none" vectornator:layerName="ellipse"/>
<path d="M164.038 349.636L170.079 349.636L173.099 327.862L188.93 335.259L256.731 339.516L260.585 349.566L266.834 349.566L263.605 341.191L291.413 349.566L305.682 349.566L290.893 345.099L308.702 321.162L372.025 327.094L372.025 323.116L305.161 316.905L285.477 343.494L263.085 336.725L288.81 295.48L372.025 301.97L372.025 298.132L347.238 296.178L372.025 280.476L372.025 274.963L339.635 295.55L291.205 291.781L309.327 262.68C319.117 261.912 326.72 256.608 327.033 250.118L372.025 248.443L372.025 244.535L326.304 246.28C324.221 241.464 317.867 237.766 310.056 236.998L310.056 209.92L266.417 190.45L260.377 168.815L326.928 158.626L372.025 219.97L372.025 210.897L358.694 192.822L372.025 182.564L372.025 176.492L355.882 188.914L328.803 152.066L322.138 152.066L324.325 154.997L259.439 164.977L255.898 152.066L249.753 152.066L260.481 190.868L217.571 214.108L197.991 215.573L172.578 152.066L166.329 152.066L191.95 216.062L141.958 219.76L141.958 223.669L217.467 218.016L246.629 243.07L188.617 281.592L141.958 267.844L141.958 272.171L233.194 299.109L206.115 332.468L191.325 331.56L141.854 308.461L141.854 313.276L167.579 325.28L164.038 349.636ZM320.992 249.839C320.992 254.864 314.743 258.911 306.932 258.911C299.12 258.911 292.871 254.864 292.871 249.839C292.871 244.814 299.12 240.767 306.932 240.767C314.743 240.767 320.992 244.814 320.992 249.839ZM222.779 216.271L263.814 194.079L304.015 212.014L304.015 236.998C295.371 237.835 288.601 242.232 287.247 247.815L260.793 248.792L222.779 216.271ZM250.066 246.21L257.773 252.84L287.143 251.723C288.393 257.167 294.746 261.494 302.974 262.54L257.356 335.678L241.63 334.701L281.415 274.334L229.132 260.168L250.066 246.21ZM241.317 297.225L194.241 283.337L224.549 263.238L273.395 276.428L235.277 334.352L212.468 332.886L241.317 297.225Z" fill="#e6e9ee" fill-rule="nonzero" opacity="1" stroke="none" vectornator:layerName="path"/>
<path d="M272.562 219.97C272.562 236.37 228.298 270.357 228.298 270.357C228.298 270.357 184.035 236.37 184.035 219.97C184.035 203.57 203.823 190.31 228.298 190.31C252.774 190.31 272.562 203.639 272.562 219.97Z" fill="#ff7058" fill-rule="nonzero" opacity="1" stroke="none" vectornator:layerName="path"/>
<path d="M209.447 220.109C209.447 213.133 217.887 207.478 228.298 207.478C238.71 207.478 247.15 213.133 247.15 220.109C247.15 227.086 238.71 232.741 228.298 232.741C217.887 232.741 209.447 227.086 209.447 220.109Z" fill="#ffffff" fill-rule="nonzero" opacity="1" stroke="none" vectornator:layerName="circle"/>
<path d="M333.594 302.529C333.594 310.694 311.41 327.722 311.41 327.722C311.41 327.722 289.226 310.764 289.226 302.529C289.226 294.364 299.12 287.664 311.41 287.664C323.7 287.734 333.594 294.364 333.594 302.529Z" fill="#ff7058" fill-rule="nonzero" opacity="1" stroke="none" vectornator:layerName="path"/>
<path d="M301.933 302.599C301.933 299.091 306.176 296.248 311.41 296.248C316.645 296.248 320.888 299.091 320.888 302.599C320.888 306.106 316.645 308.949 311.41 308.949C306.176 308.949 301.933 306.106 301.933 302.599Z" fill="#ffffff" fill-rule="nonzero" opacity="1" stroke="none" vectornator:layerName="circle"/>
<path d="M189.105 438.951L151.295 438.951C159.255 454.837 175.5 464.867 193.268 464.867L199.033 464.867C194.058 457.156 190.607 448.375 189.105 438.951Z" fill="#a3a7c4" fill-rule="nonzero" opacity="1" stroke="none" vectornator:layerName="path"/>
<path d="M370.956 390.497C366.716 405.847 352.75 416.479 336.826 416.479L322.715 416.479C321.046 406.998 317.4 398.189 312.217 390.497C312.217 390.497 370.956 390.497 370.956 390.497Z" fill="#ff8080" fill-rule="nonzero" opacity="1" stroke="none" vectornator:layerName="path"/>
<g opacity="1" vectornator:layerName="g">
<path d="M322.895 438.951L360.705 438.951C352.745 454.837 336.5 464.867 318.732 464.867L312.967 464.867C317.941 457.156 321.393 448.375 322.895 438.951Z" fill="#a3a7c4" fill-rule="nonzero" opacity="1" stroke="none" vectornator:layerName="path"/>
<path d="M214.52 428.252C214.52 405.342 233.093 386.769 256.003 386.769C278.913 386.769 297.486 405.342 297.486 428.252C297.486 451.162 278.913 469.735 256.003 469.735C233.093 469.735 214.52 451.162 214.52 428.252Z" fill="#a3a7c4" fill-rule="nonzero" opacity="1" stroke="none" vectornator:layerName="circle"/>
</g>
<path d="M235.521 428.252C235.521 408.971 248.677 392.764 266.502 388.113C263.148 387.238 259.628 386.769 256 386.769C233.089 386.769 214.517 405.342 214.517 428.253C214.517 451.164 233.089 469.737 256 469.737C259.629 469.737 263.148 469.268 266.502 468.393C248.677 463.739 235.521 447.533 235.521 428.252Z" fill="#b6bbdb" fill-rule="nonzero" opacity="1" stroke="none" vectornator:layerName="path"/>
<path d="M372.75 154.937C362.031 143.039 347.31 136.487 331.296 136.487L180.702 136.487C164.689 136.487 149.967 143.039 139.247 154.937C128.528 166.834 123.543 182.157 125.209 198.084L141.159 350.625C141.578 354.636 144.96 357.683 148.993 357.683L174.016 357.683C178.366 357.683 181.893 354.156 181.893 349.806C181.893 345.456 178.366 341.929 174.016 341.929L156.09 341.929L140.878 196.445C139.682 185.015 143.26 174.018 150.952 165.481C158.645 156.943 169.21 152.24 180.702 152.24L331.297 152.24C342.789 152.24 353.354 156.943 361.047 165.481C368.739 174.017 372.316 185.014 371.122 196.445L355.909 341.929L205.523 341.929C201.173 341.929 197.646 345.456 197.646 349.806C197.646 354.156 201.173 357.683 205.523 357.683L363.005 357.683C367.038 357.683 370.42 354.636 370.839 350.625L386.79 198.084C388.454 182.156 383.469 166.833 372.75 154.937Z" fill="#000000" fill-rule="nonzero" opacity="1" stroke="none" vectornator:layerName="path"/>
<path d="M175.173 424.355L189.284 424.355C193.108 424.355 196.378 421.609 197.042 417.844C198.493 409.595 201.614 401.875 206.314 394.899C207.941 392.485 208.104 389.368 206.735 386.799C205.367 384.229 202.693 382.621 199.781 382.621L141.041 382.621C138.581 382.621 136.264 383.77 134.773 385.727C133.284 387.684 132.793 390.225 133.448 392.595C138.615 411.295 155.772 424.355 175.173 424.355ZM186.528 398.373C185.097 401.689 183.909 405.101 182.97 408.601L175.174 408.601C166.698 408.601 158.895 404.683 153.776 398.373L186.528 398.373Z" fill="#000000" fill-rule="nonzero" opacity="1" stroke="none" vectornator:layerName="path"/>
<path d="M193.267 472.745L199.032 472.745C201.916 472.745 204.569 471.17 205.948 468.638C207.328 466.106 207.215 463.022 205.651 460.6C201.138 453.603 198.188 445.903 196.883 437.713C196.274 433.889 192.976 431.076 189.104 431.076L151.294 431.076C148.562 431.076 146.027 432.491 144.592 434.815C143.157 437.139 143.028 440.04 144.252 442.482C153.605 461.148 172.386 472.745 193.267 472.745ZM182.688 446.828C183.502 450.05 184.526 453.202 185.757 456.276C178.674 454.909 172.187 451.627 166.939 446.828L182.688 446.828Z" fill="#000000" fill-rule="nonzero" opacity="1" stroke="none" vectornator:layerName="path"/>
<path d="M377.223 385.725C375.734 383.768 373.415 382.619 370.955 382.619L312.216 382.619C309.305 382.619 306.63 384.226 305.262 386.796C303.895 389.367 304.056 392.482 305.683 394.896C310.385 401.875 313.505 409.595 314.955 417.842C315.618 421.607 318.889 424.353 322.713 424.353L336.825 424.353C356.226 424.353 373.382 411.292 378.548 392.591C379.203 390.223 378.713 387.682 377.223 385.725ZM336.826 408.602L329.03 408.602C328.091 405.103 326.903 401.688 325.472 398.374L358.225 398.374C353.104 404.682 345.301 408.602 336.826 408.602Z" fill="#000000" fill-rule="nonzero" opacity="1" stroke="none" vectornator:layerName="path"/>
<path d="M312.967 472.745L318.732 472.745C339.612 472.745 358.394 461.148 367.747 442.481C368.971 440.039 368.841 437.138 367.408 434.814C365.973 432.491 363.437 431.075 360.705 431.075L322.895 431.075C319.023 431.075 315.725 433.889 315.116 437.712C313.812 445.901 310.862 453.6 306.348 460.599C304.785 463.022 304.671 466.105 306.051 468.637C307.43 471.169 310.083 472.745 312.967 472.745ZM329.309 446.828L345.058 446.828C339.811 451.625 333.323 454.907 326.241 456.276C327.471 453.202 328.495 450.049 329.309 446.828Z" fill="#000000" fill-rule="nonzero" opacity="1" stroke="none" vectornator:layerName="path"/>
<path d="M255.999 477.611C283.217 477.611 305.359 455.468 305.359 428.25C305.359 401.032 283.216 378.89 255.999 378.89C228.782 378.89 206.639 401.032 206.639 428.25C206.639 455.468 228.781 477.611 255.999 477.611ZM255.999 394.644C274.53 394.644 289.605 409.719 289.605 428.25C289.605 446.781 274.529 461.857 255.999 461.857C237.469 461.857 222.393 446.781 222.393 428.25C222.393 409.719 237.468 394.644 255.999 394.644Z" fill="#000000" fill-rule="nonzero" opacity="1" stroke="none" vectornator:layerName="path"/>
<path d="M285.856 94.477L205.357 94.477L198.539 31.581C196.587 13.577 181.459 0 163.349 0L136.963 0C118.854 0 103.725 13.577 101.773 31.581L88.467 154.334C88.244 156.392 88.157 158.495 88.194 160.602C83.637 173.91 81.937 188.187 83.429 202.452L104.477 403.749C110.93 465.462 162.587 512 224.635 512L287.364 512C349.414 512 401.07 465.462 407.523 403.749L428.571 202.452C431.448 174.939 422.479 147.372 403.962 126.819C385.445 106.266 358.961 94.478 331.298 94.478L317.364 94.478C313.014 94.478 309.487 98.005 309.487 102.355C309.487 106.705 313.014 110.232 317.364 110.232L331.298 110.232C354.506 110.232 376.725 120.121 392.259 137.364C407.793 154.606 415.318 177.733 412.903 200.816L391.855 402.113C386.244 455.779 341.322 496.248 287.365 496.248L224.636 496.248C170.678 496.248 125.757 455.779 120.146 402.113C120.146 402.113 99.099 200.823 99.098 200.816C94.98 161.437 120.768 123.788 158.873 113.212C165.957 111.246 173.35 110.233 180.703 110.233C180.703 110.233 198.289 110.233 198.31 110.233L285.857 110.233C290.207 110.233 293.734 106.706 293.734 102.356C293.734 98.006 290.206 94.477 285.856 94.477ZM180.702 94.477C153.224 94.481 126.425 106.405 108.037 126.818C107.75 127.136 107.473 127.461 107.192 127.782L117.437 33.278C118.52 23.287 126.914 15.753 136.964 15.753L163.35 15.753C173.4 15.753 181.795 23.287 182.878 33.278L189.512 94.477C186.579 94.477 183.647 94.477 180.702 94.477Z" fill="#000000" fill-rule="nonzero" opacity="1" stroke="none" vectornator:layerName="path"/>
</g>
</svg>
