<?xml version="1.0" encoding="UTF-8" standalone="no"?>
<!DOCTYPE svg PUBLIC "-//W3C//DTD SVG 1.1//EN" "http://www.w3.org/Graphics/SVG/1.1/DTD/svg11.dtd">
<!-- Created with Vectornator (http://vectornator.io/) -->
<svg height="100%" stroke-miterlimit="10" style="fill-rule:nonzero;clip-rule:evenodd;stroke-linecap:round;stroke-linejoin:round;" version="1.1" viewBox="0 0 512 512" width="100%" xml:space="preserve" xmlns="http://www.w3.org/2000/svg" xmlns:vectornator="http://vectornator.io" xmlns:xlink="http://www.w3.org/1999/xlink">
<defs/>
<clipPath id="ArtboardFrame">
<rect height="512" width="512" x="0" y="0"/>
</clipPath>
<g clip-path="url(#ArtboardFrame)" id="Untitled" vectornator:layerName="Untitled">
<path d="M343.996 112.003C343.996 94.3299 358.323 80.003 375.996 80.003C393.669 80.003 407.996 94.3299 407.996 112.003C407.996 129.676 393.669 144.003 375.996 144.003C358.323 144.003 343.996 129.676 343.996 112.003Z" fill="#ffffff" fill-rule="nonzero" opacity="1" stroke="none" vectornator:layerName="circle"/>
<path d="M376 80.001C371.749 80.001 367.711 80.869 364 82.374C375.717 87.125 384 98.578 384 112.001C384 125.424 375.718 136.877 364 141.628C367.71 143.133 371.75 144.001 376 144.001C393.673 144.001 408 129.673 408 112.001C408 94.327 393.674 80.001 376 80.001Z" fill="#f2f2f2" fill-rule="nonzero" opacity="1" stroke="none" vectornator:layerName="path"/>
<path d="M0 280.001L512 280.001L512 280.001L512 335.6L512 335.6L0 335.6L0 335.6L0 280.001L0 280.001Z" fill="#54bce8" fill-rule="nonzero" opacity="1" stroke="none" vectornator:layerName="rect"/>
<path d="M0 311.996L512 311.996L512 311.996L512 335.599L512 335.599L0 335.599L0 335.599L0 311.996L0 311.996Z" fill="#29abe2" fill-rule="nonzero" opacity="1" stroke="none" vectornator:layerName="rect"/>
<path d="M0 335.6L512 335.6L512 335.6L512 408.001L512 408.001L0 408.001L0 408.001L0 335.6L0 335.6Z" fill="#0071bc" fill-rule="nonzero" opacity="1" stroke="none" vectornator:layerName="rect"/>
<path d="M0 408.001L512 408.001L512 408.001L512 512L512 512L0 512L0 512L0 408.001L0 408.001Z" fill="#c69c6d" fill-rule="nonzero" opacity="1" stroke="none" vectornator:layerName="rect"/>
<g opacity="1" vectornator:layerName="g">
<path d="M280.001 479.995L336.001 479.995L336.001 479.995L336.001 503.995L336.001 503.995L280.001 503.995L280.001 503.995L280.001 479.995L280.001 479.995Z" fill="#f15a24" fill-rule="nonzero" opacity="1" stroke="none" vectornator:layerName="rect"/>
<path d="M280.001 456.004L312.001 456.004L312.001 456.004L312.001 480.004L312.001 480.004L280.001 480.004L280.001 480.004L280.001 456.004L280.001 456.004Z" fill="#f15a24" fill-rule="nonzero" opacity="1" stroke="none" vectornator:layerName="rect"/>
</g>
<path d="M240.001 248L48.001 248L48.001 184L144.001 160L240.001 184L240.001 248Z" fill="#ffffff" fill-rule="nonzero" opacity="1" stroke="none" vectornator:layerName="polygon"/>
<path d="M104 248L48.001 248L48.001 184L104 168L104 248Z" fill="#e6e6e6" fill-rule="nonzero" opacity="1" stroke="none" vectornator:layerName="polygon"/>
<path d="M256 440L32 440L32 256L144.001 232L256 256L256 440Z" fill="#ffffff" fill-rule="nonzero" opacity="1" stroke="none" vectornator:layerName="polygon"/>
<path d="M183.996 295.999L223.995 295.999L223.995 295.999L223.995 384L223.995 384L183.996 384L183.996 384L183.996 295.999L183.996 295.999Z" fill="#f15a24" fill-rule="nonzero" opacity="1" stroke="none" vectornator:layerName="rect"/>
<path d="M112.001 440L32 440L32 256L112.001 240.001L112.001 440Z" fill="#cccccc" fill-rule="nonzero" opacity="1" stroke="none" vectornator:layerName="polygon"/>
<path d="M64 295.999L152.001 295.999L152.001 295.999L152.001 335.998L152.001 335.998L64 335.998L64 335.998L64 295.999L64 295.999Z" fill="#ffffff" fill-rule="nonzero" opacity="1" stroke="none" vectornator:layerName="rect"/>
<path d="M8 440.393L280.259 440.393L280.259 440.393L280.259 512L280.259 512L8 512L8 512L8 440.393L8 440.393Z" fill="#6b7e87" fill-rule="nonzero" opacity="1" stroke="none" vectornator:layerName="rect"/>
<path d="M64 295.999L120 295.999L120 295.999L120 335.998L120 335.998L64 335.998L64 335.998L64 295.999L64 295.999Z" fill="#f15a24" fill-rule="nonzero" opacity="1" stroke="none" vectornator:layerName="rect"/>
<path d="M280.256 512L111.637 512L112.001 440.395L280.256 440.395L280.256 512Z" fill="#bdccd4" fill-rule="nonzero" opacity="1" stroke="none" vectornator:layerName="polygon"/>
<g opacity="1" vectornator:layerName="g">
<path d="M31.347 464.98L63.739 464.98L63.739 464.98L63.739 480.653L63.739 480.653L31.347 480.653L31.347 480.653L31.347 464.98L31.347 464.98Z" fill="#ffffff" fill-rule="nonzero" opacity="1" stroke="none" vectornator:layerName="rect"/>
<path d="M63.739 480.653L80.457 480.653L80.457 480.653L80.457 496.326L80.457 496.326L63.739 496.326L63.739 496.326L63.739 480.653L63.739 480.653Z" fill="#ffffff" fill-rule="nonzero" opacity="1" stroke="none" vectornator:layerName="rect"/>
</g>
<path d="M287.347 496.327L287.347 486.922L336.457 486.922L336.457 471.249L287.347 471.249L287.347 463.126L312.424 463.935L312.424 448.261L287.347 447.452L287.347 431.543L280.033 431.543L280.033 423.184L264.359 423.184L264.359 431.543L247.641 431.543L247.641 423.184L231.967 423.184L231.967 431.543L215.249 431.543L215.249 423.184L199.576 423.184L199.576 431.543L183.902 431.543L183.902 423.184L168.229 423.184L168.229 431.543L152.555 431.543L152.555 423.184L136.882 423.184L136.882 431.543L119.118 431.543L119.118 423.184L103.445 423.184L103.445 431.543L87.771 431.543L87.771 423.184L72.098 423.184L72.098 431.543L56.424 431.543L56.424 423.184L40.751 423.184L40.751 431.543L24.033 431.543L24.033 423.184L8.359 423.184L8.359 431.543L0 431.543L0 512L15.673 512L15.673 447.216L271.673 447.216L271.673 512L359.445 512L359.445 496.327L287.347 496.327Z" fill="#000000" fill-rule="nonzero" opacity="1" stroke="none" vectornator:layerName="polygon"/>
<path d="M8.359 414.824L24.033 414.824L24.033 391.837L40.751 391.837L40.751 414.824L56.424 414.824L56.424 391.837L72.098 391.837L72.098 414.824L87.771 414.824L87.771 391.837L103.445 391.837L103.445 414.824L119.118 414.824L119.118 391.837L136.882 391.837L136.882 414.824L152.555 414.824L152.555 391.837L168.229 391.837L168.229 414.824L183.902 414.824L183.902 391.837L199.576 391.837L199.576 414.824L215.249 414.824L215.249 391.837L231.967 391.837L231.967 414.824L247.641 414.824L247.641 391.837L264.359 391.837L264.359 415.869L280.033 415.869L280.033 391.837L287.347 391.837L287.347 376.163L0 376.163L0 391.837L8.359 391.837L8.359 414.824Z" fill="#000000" fill-rule="nonzero" opacity="1" stroke="none" vectornator:layerName="polygon"/>
<path d="M231.967 367.804L216.294 367.804L216.294 303.02L191.216 303.02L191.216 367.804L175.543 367.804L175.543 287.347L231.967 287.347L231.967 367.804Z" fill="#000000" fill-rule="nonzero" opacity="1" stroke="none" vectornator:layerName="polygon"/>
<path d="M56.163 288.163L56.163 343.836L159.837 343.836L159.837 288.163L56.163 288.163ZM71.837 303.836L111.804 303.836L111.804 328.162L71.837 328.162L71.837 303.836ZM144.164 328.164L127.478 328.164L127.478 303.838L144.164 303.838L144.164 328.164Z" fill="#000000" fill-rule="nonzero" opacity="1" stroke="none" vectornator:layerName="path"/>
<path d="M512 328.098L263.314 328.098L263.314 262.345L270.556 263.703L273.444 248.297L144.001 224.026L14.556 248.297L17.444 263.703L24.033 262.467L24.033 328.098L0 328.098L0 343.771L24.033 343.771L24.033 367.804L39.706 367.804L39.706 259.529L144.001 239.973L247.641 259.406L247.641 367.804L263.314 367.804L263.314 343.771L512 343.771L512 328.098Z" fill="#000000" fill-rule="nonzero" opacity="1" stroke="none" vectornator:layerName="polygon"/>
<path d="M136.882 183.902L152.555 183.902L152.555 183.902L152.555 207.935L152.555 207.935L136.882 207.935L136.882 207.935L136.882 183.902L136.882 183.902Z" fill="#f15a24" fill-rule="nonzero" opacity="1" stroke="none" vectornator:layerName="rect"/>
<path d="M287.347 400.196L512 400.196L512 400.196L512 415.869L512 415.869L287.347 415.869L287.347 415.869L287.347 400.196L287.347 400.196Z" fill="#000000" fill-rule="nonzero" opacity="1" stroke="none" vectornator:layerName="rect"/>
<g opacity="1" vectornator:layerName="g">
<path d="M304.065 352.131L367.804 352.131L367.804 352.131L367.804 367.804L367.804 367.804L304.065 367.804L304.065 367.804L304.065 352.131L304.065 352.131Z" fill="#ffffff" fill-rule="nonzero" opacity="1" stroke="none" vectornator:layerName="rect"/>
<path d="M343.771 377.208L447.216 377.208L447.216 377.208L447.216 392.881L447.216 392.881L343.771 392.881L343.771 392.881L343.771 377.208L343.771 377.208Z" fill="#ffffff" fill-rule="nonzero" opacity="1" stroke="none" vectornator:layerName="rect"/>
<path d="M439.902 352.131L463.935 352.131L463.935 352.131L463.935 367.804L463.935 367.804L439.902 367.804L439.902 367.804L439.902 352.131L439.902 352.131Z" fill="#ffffff" fill-rule="nonzero" opacity="1" stroke="none" vectornator:layerName="rect"/>
</g>
<path d="M319.739 431.543L336.457 431.543L336.457 431.543L336.457 447.216L336.457 447.216L319.739 447.216L319.739 447.216L319.739 431.543L319.739 431.543Z" fill="#000000" fill-rule="nonzero" opacity="1" stroke="none" vectornator:layerName="rect"/>
<path d="M359.445 448.261L375.118 448.261L375.118 448.261L375.118 463.934L375.118 463.934L359.445 463.934L359.445 463.934L359.445 448.261L359.445 448.261Z" fill="#000000" fill-rule="nonzero" opacity="1" stroke="none" vectornator:layerName="rect"/>
<path d="M375.118 431.543L392.881 431.543L392.881 431.543L392.881 447.216L392.881 447.216L375.118 447.216L375.118 447.216L375.118 431.543L375.118 431.543Z" fill="#000000" fill-rule="nonzero" opacity="1" stroke="none" vectornator:layerName="rect"/>
<path d="M431.543 464.98L447.216 464.98L447.216 464.98L447.216 480.653L447.216 480.653L431.543 480.653L431.543 480.653L431.543 464.98L431.543 464.98Z" fill="#000000" fill-rule="nonzero" opacity="1" stroke="none" vectornator:layerName="rect"/>
<path d="M472.294 448.261L487.967 448.261L487.967 448.261L487.967 463.934L487.967 463.934L472.294 463.934L472.294 463.934L472.294 448.261L472.294 448.261Z" fill="#000000" fill-rule="nonzero" opacity="1" stroke="none" vectornator:layerName="rect"/>
<path d="M439.902 439.902L455.575 439.902L455.575 439.902L455.575 455.575L455.575 455.575L439.902 455.575L439.902 455.575L439.902 439.902L439.902 439.902Z" fill="#000000" fill-rule="nonzero" opacity="1" stroke="none" vectornator:layerName="rect"/>
<path d="M487.967 424.229L503.64 424.229L503.64 424.229L503.64 439.902L503.64 439.902L487.967 439.902L487.967 439.902L487.967 424.229L487.967 424.229Z" fill="#000000" fill-rule="nonzero" opacity="1" stroke="none" vectornator:layerName="rect"/>
<path d="M487.967 487.967L503.64 487.967L503.64 487.967L503.64 503.64L503.64 503.64L487.967 503.64L487.967 503.64L487.967 487.967L487.967 487.967Z" fill="#000000" fill-rule="nonzero" opacity="1" stroke="none" vectornator:layerName="rect"/>
<path d="M408.555 496.327L424.228 496.327L424.228 496.327L424.228 512L424.228 512L408.555 512L408.555 512L408.555 496.327L408.555 496.327Z" fill="#000000" fill-rule="nonzero" opacity="1" stroke="none" vectornator:layerName="rect"/>
<path d="M392.882 480.653L408.555 480.653L408.555 480.653L408.555 496.326L408.555 496.326L392.882 496.326L392.882 496.326L392.882 480.653L392.882 480.653Z" fill="#000000" fill-rule="nonzero" opacity="1" stroke="none" vectornator:layerName="rect"/>
<path d="M257.642 176.337L152.555 153.818L152.555 136.882L136.882 136.882L136.882 153.51L30.358 176.337L33.642 191.662L40.751 190.139L40.751 231.967L56.424 231.967L56.424 186.781L144.001 168.014L231.967 186.864L231.967 231.967L247.641 231.967L247.641 190.224L254.358 191.662L257.642 176.337Z" fill="#000000" fill-rule="nonzero" opacity="1" stroke="none" vectornator:layerName="polygon"/>
<path d="M376 151.837C354.033 151.837 336.163 133.966 336.163 112C336.163 90.034 354.033 72.164 376 72.164C397.966 72.164 415.837 90.035 415.837 112.001C415.837 133.967 397.966 151.837 376 151.837ZM376 87.837C362.676 87.837 351.837 98.677 351.837 112C351.837 125.323 362.677 136.163 376 136.163C389.323 136.163 400.163 125.323 400.163 112C400.163 98.677 389.324 87.837 376 87.837Z" fill="#000000" fill-rule="nonzero" opacity="1" stroke="none" vectornator:layerName="path"/>
<g opacity="1" vectornator:layerName="g">
<path d="M431.543 152.555L447.216 152.555L447.216 152.555L447.216 168.228L447.216 168.228L431.543 168.228L431.543 168.228L431.543 152.555L431.543 152.555Z" fill="#ffffff" fill-rule="nonzero" opacity="1" stroke="none" vectornator:layerName="rect"/>
<path d="M271.673 87.771L287.346 87.771L287.346 87.771L287.346 103.444L287.346 103.444L271.673 103.444L271.673 103.444L271.673 87.771L271.673 87.771Z" fill="#ffffff" fill-rule="nonzero" opacity="1" stroke="none" vectornator:layerName="rect"/>
<path d="M312.424 192.261L328.097 192.261L328.097 192.261L328.097 207.934L328.097 207.934L312.424 207.934L312.424 207.934L312.424 192.261L312.424 192.261Z" fill="#ffffff" fill-rule="nonzero" opacity="1" stroke="none" vectornator:layerName="rect"/>
<path d="M463.935 72.098L480.653 72.098L480.653 72.098L480.653 87.771L480.653 87.771L463.935 87.771L463.935 87.771L463.935 72.098L463.935 72.098Z" fill="#ffffff" fill-rule="nonzero" opacity="1" stroke="none" vectornator:layerName="rect"/>
<path d="M127.403 123.068L120.602 108.946L120.602 108.946L228.609 56.9318L228.609 56.9318L235.41 71.0541L235.41 71.0541L127.403 123.068L127.403 123.068Z" fill="#ffffff" fill-rule="nonzero" opacity="1" stroke="none" vectornator:layerName="rect"/>
<path d="M400.196 240.327L415.869 240.327L415.869 240.327L415.869 256L415.869 256L400.196 256L400.196 256L400.196 240.327L400.196 240.327Z" fill="#ffffff" fill-rule="nonzero" opacity="1" stroke="none" vectornator:layerName="rect"/>
<path d="M247.641 136.882L264.359 136.882L264.359 136.882L264.359 152.555L264.359 152.555L247.641 152.555L247.641 152.555L247.641 136.882L247.641 136.882Z" fill="#ffffff" fill-rule="nonzero" opacity="1" stroke="none" vectornator:layerName="rect"/>
<path d="M408.555 31.347L424.228 31.347L424.228 31.347L424.228 47.02L424.228 47.02L408.555 47.02L408.555 47.02L408.555 31.347L408.555 31.347Z" fill="#ffffff" fill-rule="nonzero" opacity="1" stroke="none" vectornator:layerName="rect"/>
<path d="M39.706 31.347L56.424 31.347L56.424 31.347L56.424 47.02L56.424 47.02L39.706 47.02L39.706 47.02L39.706 31.347L39.706 31.347Z" fill="#ffffff" fill-rule="nonzero" opacity="1" stroke="none" vectornator:layerName="rect"/>
<path d="M72.098 87.771L87.771 87.771L87.771 87.771L87.771 103.444L87.771 103.444L72.098 103.444L72.098 103.444L72.098 87.771L72.098 87.771Z" fill="#ffffff" fill-rule="nonzero" opacity="1" stroke="none" vectornator:layerName="rect"/>
<path d="M240.327 15.673L256 15.673L256 15.673L256 31.346L256 31.346L240.327 31.346L240.327 31.346L240.327 15.673L240.327 15.673Z" fill="#ffffff" fill-rule="nonzero" opacity="1" stroke="none" vectornator:layerName="rect"/>
</g>
<path d="M275.757 30.2299L477.905 30.2299L477.905 30.2299L477.905 230.212L477.905 230.212L275.757 230.212L275.757 230.212L275.757 30.2299L275.757 30.2299Z" fill="#ffffff" fill-opacity="0.01" fill-rule="nonzero" opacity="1" stroke="none" vectornator:layerName="rect"/>
<path d="M377.127 227.063C431.131 227.063 474.91 183.775 474.91 130.377C474.91 76.978 431.131 33.6901 377.127 33.6901C323.122 33.6901 279.343 76.978 279.343 130.377C279.343 183.775 323.122 227.063 377.127 227.063Z" fill="#ffb2b7" fill-rule="nonzero" opacity="1" stroke="#000000" stroke-linecap="butt" stroke-linejoin="round" stroke-width="9.93" vectornator:layerName="path"/>
<g fill="#ffb2b7" opacity="1" stroke="none">
<path d="M305.175 932.218L305.175 803.019L253.906 803.019L253.906 787.687L376.952 787.687L376.952 803.019L325.683 803.019L325.683 932.218L305.175 932.218Z"/>
<path d="M475.585 928.8C462.695 932.706 451.659 934.66 442.48 934.66C426.855 934.66 414.111 929.468 404.247 919.083C394.384 908.699 389.452 895.239 389.452 878.703C389.452 862.622 393.798 849.438 402.489 839.152C411.181 828.865 422.297 823.722 435.839 823.722C448.665 823.722 458.577 828.279 465.575 837.394C472.574 846.509 476.073 859.464 476.073 876.261L475.976 882.218L409.081 882.218C411.881 907.413 424.218 920.011 446.093 920.011C454.101 920.011 463.932 917.863 475.585 913.566L475.585 928.8ZM409.96 867.765L456.738 867.765C456.738 848.038 449.381 838.175 434.667 838.175C419.889 838.175 411.653 848.038 409.96 867.765Z"/>
<path d="M498.632 932.218L538.964 877.433L499.804 826.163L522.656 826.163L553.613 866.984L581.64 826.163L600.39 826.163L563.671 879.972L603.613 932.218L580.761 932.218L548.827 890.226L517.968 932.218L498.632 932.218Z"/>
<path d="M663.769 934.66C654.003 934.66 646.386 931.86 640.917 926.261C635.448 920.662 632.714 912.882 632.714 902.921L632.714 840.617L619.433 840.617L619.433 826.163L632.714 826.163L632.714 806.925L651.952 805.07L651.952 826.163L679.687 826.163L679.687 840.617L651.952 840.617L651.952 899.406C651.952 913.273 657.942 920.206 669.921 920.206C672.46 920.206 675.553 919.783 679.198 918.937L679.198 932.218C673.274 933.846 668.131 934.66 663.769 934.66Z"/>
</g>
<path d="M331.659 198.183L331.659 53.6517L375.409 53.6517C389.277 53.6517 399.905 56.7116 407.294 62.8314C414.683 68.9512 418.378 77.8379 418.378 89.4916C418.378 108.762 408.645 122.434 389.179 130.507L437.421 198.183L412.226 198.183L371.112 137.05L351.972 137.05L351.972 198.183L331.659 198.183ZM351.972 121.718L358.612 121.718C384.394 121.718 397.284 111.594 397.284 91.347C397.284 76.4382 386.477 68.9838 364.862 68.9838L351.972 68.9838L351.972 121.718Z" fill="#000000" opacity="1" stroke="none"/>
</g>
</svg>
