<svg id="Layer_1" enable-background="new 0 0 512 512" height="512" viewBox="0 0 512 512" width="512" xmlns="http://www.w3.org/2000/svg"><g><path d="m256 22.002c-135.309 0-244.999 109.689-244.999 244.999 0 104.966 66.017 194.5 158.79 229.384l14.99 5.087c18.008 5.463 36.892 8.904 56.392 10.069l16.057.444c26.945-.133 52.864-4.606 77.086-12.772l20.986-8.188c85.829-38.102 145.697-124.066 145.697-224.023 0-135.31-109.69-245-244.999-245z" fill="#5c45bf"/><g fill="#e9efff"><path d="m271.162 367.531c0-4.332-3.511-7.842-7.843-7.842-4.331 0-7.842 3.511-7.842 7.842 0 4.025-1.551 5.766-5.058 9.318-4.043 4.096-9.581 9.705-9.581 20.338s5.537 16.243 9.581 20.338c3.508 3.554 5.058 5.295 5.058 9.321s-1.551 5.767-5.058 9.321c-4.043 4.096-9.581 9.705-9.581 20.339 0 10.633 5.537 16.243 9.58 20.339 3.508 3.554 5.059 5.295 5.059 9.322 0 4.026-1.551 5.768-5.058 9.321-3.46 3.505-8.003 8.129-9.245 16.051 4.906.295 9.846.461 14.826.461.411 0 .819-.013 1.23-.016.769-1.777 2.185-3.282 4.351-5.477 4.043-4.096 9.581-9.705 9.581-20.339s-5.538-16.244-9.581-20.34c-3.508-3.554-5.058-5.295-5.058-9.321s1.551-5.767 5.058-9.321c4.043-4.096 9.581-9.705 9.581-20.339s-5.538-16.243-9.581-20.339c-3.508-3.554-5.058-5.294-5.058-9.32 0-4.025 1.551-5.765 5.058-9.318 4.043-4.096 9.581-9.705 9.581-20.339z"/><path d="m175.215 472.3c-2.306-2.243-6.164-5.998-6.392-7.569-.346-2.389 2.271-7.061 4.375-10.814 3.372-6.02 6.86-12.244 5.658-19.078-1.466-8.346-8.18-14.097-13.574-18.72-2.207-1.89-5.53-4.738-6.077-6.041-1.084-5.291.28-7.063 2.983-10.576 3.056-3.972 7.675-9.976 5.003-20.092-1.106-4.187-5.396-6.687-9.585-5.578-4.188 1.106-6.686 5.398-5.579 9.586.683 2.585.28 3.208-2.269 6.52-3.374 4.387-8.474 11.015-5.889 23.425 1.283 6.163 6.33 10.486 11.21 14.668 3.492 2.992 7.837 6.716 8.328 9.507.152 1.497-2.379 6.013-3.891 8.712-3.433 6.127-7.324 13.071-6.214 20.73.991 6.846 6.296 12.007 10.976 16.561 2.874 2.797 6.811 6.627 7.055 8.785.092.812-.6 2.363-1.539 4.059 4.924 1.851 9.921 3.55 14.99 5.087 1.576-3.419 2.571-7.053 2.135-10.908-.877-7.727-6.629-13.325-11.704-18.264z"/><path d="m368.549 377.57c-4.19-1.111-8.479 1.392-9.586 5.579-.71 2.687-1.597 3.213-5.242 5.008-5.02 2.473-12.608 6.21-15.275 19.023-1.325 6.364 1.831 12.415 4.884 18.268 2.109 4.042 4.733 9.073 4.234 11.916-.331 1.463-4.133 4.94-6.405 7.017-5.31 4.857-11.328 10.359-12.471 18.251-1.023 7.062 2.89 13.569 6.342 19.309 2.047 3.402 4.849 8.062 4.599 10.267-.166 1.47-3.07 4.652-5.315 7.004 7.151-2.411 14.148-5.153 20.987-8.188-.309-6.313-3.745-12.036-6.83-17.165-1.566-2.604-4.481-7.452-4.261-8.977.34-2.347 4.329-5.994 7.534-8.925 4.965-4.541 10.1-9.236 11.266-15.869 1.424-8.098-2.567-15.747-5.773-21.895-1.352-2.592-3.387-6.491-3.413-7.922 1.11-5.226 2.912-6.115 6.828-8.044 4.346-2.14 10.915-5.375 13.476-15.073 1.107-4.186-1.391-8.478-5.579-9.584z"/></g><g><path d="m61.049 421.258c-4.093 0-7.54-3.175-7.817-7.319-.591-8.83 5.46-13.691 9.075-16.597 2.233-1.794 3.289-2.75 3.25-3.324-.038-.574-1.212-1.379-3.663-2.859-3.97-2.398-10.615-6.41-11.207-15.24-.591-8.83 5.46-13.692 9.076-16.596 2.232-1.794 3.287-2.749 3.249-3.322-.289-4.322 2.98-8.06 7.301-8.349 4.322-.3 8.059 2.98 8.349 7.301.591 8.83-5.46 13.691-9.076 16.596-2.232 1.794-3.288 2.749-3.249 3.322.038.574 1.212 1.38 3.664 2.86 3.97 2.398 10.614 6.41 11.206 15.239.591 8.83-5.46 13.692-9.075 16.597-2.233 1.794-3.289 2.75-3.25 3.324.289 4.322-2.98 8.06-7.301 8.349-.179.013-.357.018-.532.018z" fill="#ff7186"/></g><g><path d="m184.23 78.523c-4.093 0-7.54-3.175-7.817-7.319-.591-8.83 5.46-13.692 9.075-16.597 2.232-1.794 3.288-2.749 3.249-3.323-.038-.574-1.212-1.38-3.664-2.86-3.97-2.398-10.614-6.41-11.206-15.24-.591-8.829 5.46-13.691 9.075-16.596 2.232-1.793 3.288-2.748 3.249-3.322-.289-4.322 2.979-8.059 7.301-8.349 4.323-.312 8.06 2.979 8.349 7.301.591 8.83-5.46 13.692-9.075 16.597-2.232 1.793-3.288 2.748-3.249 3.321.038.574 1.212 1.379 3.664 2.86 3.97 2.398 10.614 6.41 11.206 15.24.591 8.83-5.46 13.691-9.075 16.597-2.232 1.794-3.288 2.749-3.249 3.323.29 4.322-2.979 8.059-7.301 8.349-.178.013-.356.018-.532.018z" fill="#ffdd40"/></g><g><path d="m307.196 71.172c-3.151 0-6.122-1.913-7.321-5.028-1.555-4.043.461-8.581 4.504-10.136l11.464-4.41c4.039-1.558 8.579.462 10.135 4.503 1.555 4.043-.461 8.581-4.504 10.136l-11.464 4.41c-.925.356-1.877.525-2.814.525z" fill="#ff7186"/></g><g><path d="m140.641 66.767c-2.069 0-4.135-.814-5.676-2.429l-8.479-8.888c-2.989-3.134-2.872-8.098.261-11.088 3.134-2.989 8.098-2.873 11.088.261l8.479 8.888c2.989 3.134 2.872 8.098-.261 11.088-1.519 1.449-3.467 2.168-5.412 2.168z" fill="#4fabf7"/></g><path d="m387.089 373.636-10.195-22.415c-3.703.041-7.409-.234-11.104-.874s-7.278-1.627-10.751-2.91l-17.139 17.682c-4.356 4.495-3.257 11.926 2.238 14.923 6.049 3.299 12.506 5.628 19.33 6.81s13.688 1.159 20.494.086c6.184-.975 9.718-7.604 7.127-13.302z" fill="#ffb332"/><path d="m381.935 362.305-5.041-11.084c-3.703.041-7.409-.235-11.104-.874-3.695-.64-7.278-1.627-10.751-2.91l-17.139 17.682c-4.356 4.495-3.257 11.927 2.238 14.923 6.049 3.299 12.505 5.628 19.33 6.81.056.01.113.016.17.026-8.82-28.893 12.794-26.757 22.297-24.573z" fill="#ff9100"/><path d="m124.911 373.636 10.195-22.415c3.703.041 7.409-.234 11.104-.874s7.278-1.627 10.751-2.91l17.138 17.682c4.356 4.495 3.257 11.926-2.238 14.923-6.049 3.299-12.506 5.628-19.33 6.81s-13.688 1.159-20.494.086c-6.183-.975-9.717-7.604-7.126-13.302z" fill="#4fabf7"/><path d="m163.966 354.664-7.005-7.227c-3.473 1.283-7.056 2.27-10.751 2.91s-7.401.915-11.104.874l-10.195 22.415c-2.591 5.698.943 12.327 7.126 13.302 6.806 1.073 13.67 1.096 20.494-.086 1.505-.26 2.988-.587 4.456-.957-23.507-17.079-3.823-27.308 6.979-31.231z" fill="#2e8be6"/><path d="m280.96 353.647-13.87-20.347c-3.641.672-7.34 1.033-11.09 1.033s-7.449-.361-11.09-1.033l-13.87 20.347c-3.525 5.172-1.174 12.307 4.752 14.323 6.523 2.219 13.282 3.412 20.208 3.412s13.685-1.193 20.208-3.412c5.926-2.016 8.278-9.152 4.752-14.323z" fill="#ff4155"/><path d="m273.599 342.848-6.509-9.548c-3.641.672-7.34 1.033-11.09 1.033s-7.449-.361-11.09-1.033l-13.87 20.347c-3.525 5.172-1.174 12.307 4.752 14.323 6.523 2.219 13.282 3.412 20.208 3.412-12.285-26.466 9.558-28.6 17.599-28.534z" fill="#e80054"/><path d="m385.293 53.107-14.315-6.546c-2.281-1.043-4.977-.04-6.02 2.242l-6.547 14.316c-1.043 2.281-.039 4.976 2.242 6.019l14.315 6.546c2.281 1.043 4.977.04 6.02-2.241l6.547-14.316c1.043-2.282.039-4.977-2.242-6.02z" fill="#ffdd40"/><path d="m243.68 6.959 14.315-6.546c2.281-1.043 4.977-.04 6.02 2.242l6.547 14.315c1.043 2.281.039 4.976-2.242 6.019l-14.315 6.547c-2.281 1.043-4.977.04-6.02-2.241l-6.547-14.316c-1.043-2.282-.039-4.977 2.242-6.02z" fill="#4fabf7"/><path d="m407.663 108.518c-27.967-4.843-54.93.992-76.005 17.012 13.507 17.277 21.526 40.56 21.526 68.984 0 40.561-16.731 85.253-42.724 112.911 13.13 23.431 31.994 40.507 55.056 44.5 53.808 9.317 110.06-56.081 121.557-122.476 11.497-66.396-25.601-111.613-79.41-120.931z" fill="#ffdd40"/><path d="m444.841 122.29c-10.973-6.736-23.537-11.409-37.177-13.771-27.967-4.843-54.93.992-76.005 17.012 13.507 17.277 21.526 40.561 21.526 68.983 0 40.561-16.731 85.253-42.724 112.911 13.13 23.431 31.994 40.507 55.056 44.5 2.665.462 5.337.732 8.009.836-19.098-26.345-17.515-91.893 1.051-146.646 17.02-50.198 43.942-78.415 70.264-83.825z" fill="#ffb332"/><path d="m158.815 194.514c0-28.394 8.011-51.69 21.527-68.984-21.075-16.02-48.037-21.854-76.005-17.012-53.808 9.317-90.907 54.535-79.41 120.93s67.749 131.793 121.557 122.476c23.062-3.993 41.926-21.069 55.056-44.499-25.994-27.657-42.725-72.35-42.725-112.911z" fill="#73c3f9"/><path d="m102.267 214.999c-7.195-54.343 5.513-92.293 28.112-107.887-8.478-.585-17.21-.124-26.042 1.406-53.808 9.317-90.907 54.535-79.41 120.93s67.749 131.793 121.557 122.476c6.273-1.086 12.233-3.147 17.855-6.034-28.094-16.721-54.651-74.836-62.072-130.891z" fill="#4fabf7"/><path d="m354.878 194.514c0 67.383-44.269 141.42-98.878 141.42s-98.878-74.036-98.878-141.42 44.269-105.608 98.878-105.608 98.878 38.225 98.878 105.608z" fill="#ff7186"/><g><path d="m233.364 194.514c0-57.356 19.713-93.567 46.273-103.079-7.574-1.672-15.489-2.529-23.636-2.529-54.609 0-98.878 38.225-98.878 105.609 0 67.383 44.269 141.42 98.878 141.42 8.139 0 16.045-1.656 23.612-4.678-26.55-17.255-46.249-79.402-46.249-136.743z" fill="#ff4155"/></g><circle cx="310.898" cy="163.725" fill="#ff99ad" r="19.25"/><circle cx="280.273" cy="192.85" fill="#ff99ad" r="11.375"/></g></svg>