<?xml version="1.0" encoding="UTF-8" standalone="no"?>
<!DOCTYPE svg PUBLIC "-//W3C//DTD SVG 1.1//EN" "http://www.w3.org/Graphics/SVG/1.1/DTD/svg11.dtd">
<!-- Created with Vectornator (http://vectornator.io/) -->
<svg height="100%" stroke-miterlimit="10" style="fill-rule:nonzero;clip-rule:evenodd;stroke-linecap:round;stroke-linejoin:round;" version="1.1" viewBox="0 0 74.981 48.002" width="100%" xml:space="preserve" xmlns="http://www.w3.org/2000/svg" xmlns:vectornator="http://vectornator.io" xmlns:xlink="http://www.w3.org/1999/xlink">
<defs/>
<clipPath id="ArtboardFrame">
<rect height="48.002" width="74.981" x="0" y="0"/>
</clipPath>
<g clip-path="url(#ArtboardFrame)" id="Untitled" vectornator:layerName="Untitled">
<g opacity="1" vectornator:layerName="path">
<clipPath id="ClipPath">
<path d="M-10.8137-27.6111L78.2673-34.4543L83.5565 80.8002L-5.52453 87.6433L-10.8137-27.6111Z"/>
</clipPath>
<g clip-path="url(#ClipPath)">
<path d="M8.55842 35.6334C7.86167 34.9958 7.16108 34.4458 5.46049 34.8435C4.57058 35.0514 3.77547 33.7408 2.40826 33.9122C2.10463 33.3157 1.80098 32.719 1.49733 32.1222C2.19314 30.2295 3.20244 28.4935 4.53542 26.9187C5.19736 27.027 5.86008 27.1355 6.52202 27.2444C8.45272 25.6657 10.4603 24.2232 12.6157 23.0403C15.036 18.1599 18.2292 16.8301 21.8695 17.5532C29.7156 13.0742 37.6367 10.2872 45.5571 7.48012C48.9594 10.0385 52.361 12.5973 55.7631 15.1559C61.3333 15.1303 66.9065 14.8518 72.4744 15.0793C73.5172 15.1215 74.2923 15.9397 74.5898 17.1187C73.849 17.295 73.3705 17.8804 72.6279 18.5143C68.7934 21.7871 62.3013 35.2423 45.7326 34.6323C34.1971 34.2074 22.6197 33.5591 11.1419 36.5328C10.6014 35.5646 9.54175 36.5333 8.55842 35.6334" fill="#323b44" fill-rule="evenodd" opacity="1" stroke="none" vectornator:layerName="path"/>
<path d="M6.52202 27.4853C8.45272 25.9476 10.4603 24.5425 12.6157 23.3902C15.036 18.6365 18.2292 17.3412 21.8695 18.0455C29.7156 13.6827 37.6367 10.968 45.5571 8.23371C48.9594 10.7257 52.361 13.2181 55.7631 15.7104C38.755 16.8111 19.3173 22.7636 6.52202 27.4853" fill="#ffffff" fill-rule="evenodd" opacity="1" stroke="none" vectornator:layerName="path"/>
<path d="M12.6157 23.3902C15.036 18.6365 18.2292 17.3412 21.8695 18.0455C18.6711 19.5907 15.585 21.3702 12.6157 23.3902" fill="#323b44" fill-rule="evenodd" opacity="1" stroke="none" vectornator:layerName="path"/>
<path d="M8.55842 35.6567C7.86167 35.0356 7.16108 34.5 5.46049 34.8874C4.57058 35.0899 3.77547 33.8133 2.40826 33.9802C2.10463 33.3992 1.80098 32.8179 1.49733 32.2366C4.21065 32.9759 7.47266 31.2762 10.7652 29.4429C32.2626 20.1598 53.426 18.8995 74.5898 17.6223C73.849 17.794 73.3705 18.3643 72.6279 18.9817C68.7934 22.1696 62.3013 35.2758 45.7326 34.6816C34.1971 34.2677 22.6197 33.6363 11.1419 36.5328C10.6014 35.5897 9.54175 36.5333 8.55842 35.6567" fill="#e7eaef" fill-rule="evenodd" opacity="1" stroke="none" vectornator:layerName="path"/>
<path d="M74.3454 17.6964C73.7362 17.925 73.2854 18.4348 72.6279 18.9817C68.7934 22.1696 62.3013 35.2758 45.7326 34.6816C39.0648 34.4422 32.3828 34.1304 25.7144 34.4692C39.5896 31.3602 49.6301 34.1477 62.4926 26.0404C66.5657 23.4733 66.7188 20.0243 74.3454 17.6964" fill="#323b44" fill-rule="evenodd" opacity="1" stroke="none" vectornator:layerName="path"/>
<path d="M50.6813 21.189C36.0991 22.9693 21.6078 25.1729 8.08885 31.9158C12.7116 31.6053 17.3351 31.2952 21.9581 30.9846C29.1528 27.0052 37.2928 23.3095 50.6813 21.189" fill="#323b44" fill-rule="evenodd" opacity="1" stroke="none" vectornator:layerName="path"/>
<path d="M42.0024 10.9813L48.6021 15.5944C50.3066 15.3605 52.0198 15.1186 53.7272 14.8767L46.4091 9.52899C44.8932 10.0024 43.4269 10.487 42.0024 10.9813M25.9549 17.4134C30.422 15.4497 34.9815 13.5078 40.0355 11.6785L45.9076 15.9571C38.5781 16.9222 31.545 17.6449 25.9549 17.4134" fill="#228af4" fill-rule="evenodd" opacity="1" stroke="none" vectornator:layerName="path"/>
<path d="M42.9151 11.6199L48.6021 15.5944C49.8569 15.4222 51.1166 15.2456 52.3753 15.0682L46.1963 10.5526C45.0767 10.9024 43.9841 11.2585 42.9151 11.6199M44.5347 16.1354C38.5614 16.8988 32.8354 17.4699 27.9886 17.4562C31.7451 15.829 35.6119 14.2262 39.8227 12.7023L44.5347 16.1354Z" fill="#79bcff" fill-rule="evenodd" opacity="1" stroke="none" vectornator:layerName="path"/>
<path d="M65.0767 38.6109C53.6817 34.498 43.0717 32.1197 29.8996 31.7996C15.2917 31.4449 8.04561 37.2498-0.454822 31.4156C11.5088 43.3747 20.8542 36.6679 30.3455 35.2384C42.158 33.4592 52.9091 35.6776 65.0767 38.6109" fill="#228af4" fill-rule="evenodd" opacity="1" stroke="none" vectornator:layerName="path"/>
<path d="M68.7644 41.0095C40.226 33.4031 33.4415 35.0175 13.6748 40.6528C27.6152 38.5526 42.719 36.0722 68.7644 41.0095" fill="#228af4" fill-rule="evenodd" opacity="1" stroke="none" vectornator:layerName="path"/>
</g>
</g>
</g>
</svg>
