<svg height="491pt" viewBox="-4 0 491 491.526" width="491pt" xmlns="http://www.w3.org/2000/svg"><path d="m222.207031 181.476562 177.476563-177.476562h-28.28125l-161.226563 161.222656c2.558594 4.1875 6.785157 10.503906 12.03125 16.253906zm0 0" fill="#e0ebfc"/><path d="m476.667969 369.597656c-2.566407-1.707031-6.351563-7.195312-9.164063-11.65625-1.289062-1.769531-2.511718-3.839844-3.6875-6.140625-.039062-.070312-.066406-.113281-.066406-.113281l.003906-.007812c-6.773437-13.351563-11.84375-34.414063-17.425781-50.753907-8-23.410156-21.097656-35.453125-21.097656-35.457031-3.179688-2.351562-5.101563-3.132812-5.101563-3.132812l-9.375 35.449218c16.542969 63.574219 49.207032 75.691406 65.878906 77.558594.890626.097656 1.5625-.554688 1.894532-1.46875.511718-1.417969-.125-3.011719-1.347656-3.898438-.320313-.234374-.511719-.378906-.511719-.378906zm0 0" fill="#f9a7a7"/><path d="m476.808594 379.351562c-.207032 0-.410156-.011718-.617188-.035156-18.601562-2.082031-52.335937-15.304687-69.308594-80.523437-.171874-.667969-.171874-1.367188.003907-2.03125l9.375-35.453125c.292969-1.109375 1.050781-2.042969 2.082031-2.554688 1.03125-.515625 2.230469-.558594 3.296875-.125.242187.097656 2.488281 1.046875 5.96875 3.625.117187.085938.226563.179688.332031.277344.566406.523438 13.96875 13.09375 22.171875 37.101562 1.835938 5.375 3.644531 11.347657 5.398438 17.125 3.636719 12 7.394531 24.410157 11.808593 33.109376.007813.015624.015626.03125.023438.046874.015625.027344.027344.050782.039062.066407 1.117188 2.195312 2.25 4.082031 3.355469 5.609375.050781.070312.101563.140625.152344.21875 5.304687 8.421875 7.589844 10.1875 7.992187 10.457031.066407.042969.132813.089844.195313.136719l.453125.332031c2.71875 1.976563 3.855469 5.46875 2.757812 8.496094-.910156 2.53125-3.066406 4.121093-5.480468 4.121093zm-61.917969-81.5625c14.222656 53.617188 39.777344 68.789063 56.765625 72.65625-1.65625-1.796874-4.0625-4.871093-7.464844-10.261718-1.34375-1.863282-2.625-4.003906-3.925781-6.550782-.023437-.046874-.046875-.097656-.074219-.144531-4.734375-9.328125-8.597656-22.078125-12.332031-34.410156-1.808594-5.972656-3.519531-11.617187-5.3125-16.859375-7.105469-20.796875-18.507813-32.332031-19.890625-33.679688-.007812-.003906-.015625-.011718-.023438-.015624zm0 0" fill="#3762cc"/><path d="m426.394531 275.351562-4.070312-9.710937c-10.078125-24.046875-31.859375-40.5-56.894531-42.964844l-24.21875-2.390625-18.285157-1.804687.015625.152343-28.921875-2.609374-48.46875-6.914063c-.421875-.0625-.84375-.179687-1.234375-.351563-39.6875-17.199218-48.566406-33.175781-50.257812-41.386718-.0625-.3125-.089844-.621094-.089844-.9375v-40.613282c0-9.328124-3.582031-17.871093-9.542969-24.585937-14.609375-13.429687-51.914062-18.84375-51.914062-18.84375h-27.890625c-7.484375 0-14.511719 2.390625-20.292969 6.507813-.25.179687-.515625.328124-.800781.449218-11.898438 5.027344-20.320313 17.210938-20.320313 31.507813v2.121093c0 2.230469-1.566406 4.15625-3.75 4.613282l-41.355469 8.613281c-8.0625 1.679687-13.839843 8.789063-13.839843 17.023437v22.601563c0 9.605469 5.628906 18.382813 14.441406 22.1875.46875.203125.945313.402344 1.417969.59375.476562.195313.914062.476563 1.304687.8125 2.941407 2.515625 6.6875 4.03125 10.777344 4.03125h53.421875c.9375 0 1.855469.265625 2.625.800781.90625.625 2.222656 1.671875 3.765625 3.300782 0 0 11.433594 27.910156 15.003906 100.652343l-.015625 8.078125c.011719 2.785156.242188 5.511719.65625 8.175782v.003906c3.769532 24.164062 23.53125 42.691406 47.285156 42.792968l45.558594.195313s40.726563 7.265625 75.59375 13.175781l31.074219 5.328125s44.273437 5.726563 67.753906 9.511719c2.925781.472656 5.550781-1.851562 5.445313-4.816406-.101563-2.957032 2.511718-5.277344 5.4375-4.816406l24.792968 3.871093c2.457032.386719 4.789063-1.207031 5.328126-3.636719l14.488281-65.496093c3.351562-15.136719 1.9375-30.996094-4.023438-45.222657zm0 0" fill="#f9a7a7"/><path d="m92.390625 135.429688h-.75c-4.1875 0-7.582031-3.394532-7.582031-7.582032v-9.128906c0-4.1875 3.394531-7.582031 7.582031-7.582031h.75c4.1875 0 7.582031 3.394531 7.582031 7.582031v9.128906c.003906 4.1875-3.394531 7.582032-7.582031 7.582032zm0 0" fill="#3762cc"/><path d="m17.253906 157.703125 4.742188-3.273437c3.105468-2.148438 4.960937-5.683594 4.960937-9.460938v-10.609375l-13.667969 2.847656c-5.261718 1.097657-9.027343 5.734375-9.027343 11.105469v10.339844l4.128906.855468c3.074219.632813 6.277344-.019531 8.863281-1.804687zm0 0" fill="#4671c6"/><path d="m183.480469 99.617188c-.160157-.4375-.265625-.898438-.289063-1.375-1.835937-39.722657-16.996094-41.976563-21.671875-41.71875-.78125.042968-1.546875.28125-2.214843.691406-10.699219 6.558594-17.917969 14.886718-22.792969 22.941406l-4.972657 5.507812s16.546876 29.570313 51.941407 13.953126zm0 0" fill="#f9a7a7"/><path d="m375.683594 399.527344c-.460938 0-.929688-.039063-1.394532-.113282-23.148437-3.730468-67.191406-9.4375-67.628906-9.492187l-31.238281-5.355469c-32.800781-5.558594-71.261719-12.40625-75.277344-13.121094l-45.214843-.191406c-25.523438-.109375-47.066407-19.527344-51.21875-46.175781-.457032-2.921875-.695313-5.875-.707032-8.777344l.015625-8c-3.203125-65.089843-12.753906-93.90625-14.445312-98.554687-1.101563-1.09375-2.003907-1.792969-2.597657-2.207032-.082031-.054687-.207031-.085937-.347656-.085937h-53.421875c-4.859375 0-9.609375-1.773437-13.375-4.996094-.125-.105469-.199219-.136719-.214843-.144531-.5-.199219-.996094-.410156-1.496094-.625-10.242188-4.421875-16.859375-14.570312-16.859375-25.859375v-22.601563c0-10.078124 7.164062-18.882812 17.027343-20.941406l41.355469-8.613281c.328125-.070313.566407-.363281.566407-.699219v-2.121094c0-15.535156 8.933593-29.347656 22.761718-35.191406 6.695313-4.765625 14.515625-7.273437 22.648438-7.273437h27.894531c.070313 0 .136719 0 .207031.003906l.574219-.632813c6.039063-9.871093 14.085937-17.929687 23.921875-23.957031 1.234375-.753906 2.648438-1.195312 4.085938-1.273437 2.628906-.140625 7.792968.289062 12.871093 4.878906 7.710938 6.964844 12.089844 20.640625 13.015625 40.648438 0 0 .003906.0625.054688.203124.023437.0625.046875.128907.066406.195313.039062.039063.078125.082031.113281.121094 6.804688 7.664062 10.550781 17.339843 10.550781 27.242187v40.613282c1.210938 5.996093 8.300782 21.480468 47.933594 38.65625.0625.027343.140625.046874.203125.058593l48.375 6.902344 27.761719 2.507813c.351562-.070313.710938-.09375 1.074219-.058594l42.503906 4.195312c26.484375 2.613282 49.550781 20.011719 60.191406 45.40625l4.066407 9.707032c6.238281 14.882812 7.746093 31.800781 4.246093 47.628906l-14.492187 65.496094c-.992188 4.476562-5.316406 7.429687-9.851563 6.722656l-24.792969-3.871094c-.273437-.046875-.46875.066406-.582031.167969-.117187.101562-.25.28125-.242187.558593.09375 2.617188-.980469 5.109376-2.941406 6.839844-1.605469 1.417969-3.644532 2.179688-5.746094 2.179688zm-271.0625-313.140625c-6.460938 0-12.675782 1.996093-17.96875 5.769531-.496094.351562-1.015625.640625-1.5625.871094-10.863282 4.59375-17.882813 15.511718-17.882813 27.824218v2.121094c0 4.105469-2.917969 7.691406-6.933593 8.53125l-41.351563 8.613282c-6.175781 1.289062-10.660156 6.800781-10.660156 13.109374v22.601563c0 8.09375 4.71875 15.359375 12.027343 18.511719.441407.191406.886719.375 1.335938.558594.851562.34375 1.65625.839843 2.398438 1.472656 2.359374 2.015625 5.1875 3.078125 8.179687 3.078125h53.421875c1.777344 0 3.472656.523437 4.898438 1.507812 1.460937 1.007813 2.9375 2.300781 4.394531 3.839844.339843.359375.609375.777344.800781 1.234375.476562 1.167969 11.730469 29.382812 15.292969 101.976562.003906.066407.003906.132813.003906.203126l-.015625 8.078124c.011719 2.476563.214844 5.023438.609375 7.550782 3.546875 22.746094 21.78125 39.316406 43.351563 39.410156l45.558593.195312c.230469 0 .460938.019532.683594.0625.410156.070313 41.113281 7.328126 75.5625 13.167969l31.078125 5.328125c.28125.035156 44.441406 5.753906 67.714844 9.503906.261718.042969.457031-.066406.574218-.164062.113282-.105469.25-.285156.238282-.566406-.089844-2.605469.976562-5.09375 2.929687-6.824219 1.953125-1.726563 4.550781-2.484375 7.125-2.085937l24.792969 3.875c.371094.0625.722656-.183594.804688-.546876l14.492187-65.5c3.148437-14.230468 1.792969-29.433593-3.8125-42.808593l-4.066406-9.707031c-9.503907-22.679688-30.042969-38.210938-53.597657-40.535157l-41.445312-4.089843c-.328125.066406-.671875.085937-1.007812.054687l-28.921876-2.613281c-.070312-.007813-.136718-.015625-.203124-.023438l-48.472657-6.917968c-.765625-.105469-1.527343-.320313-2.253906-.632813-39.453125-17.097656-50.375-33.5-52.589844-44.253906-.117187-.558594-.167969-1.128907-.167969-1.746094v-40.601563c0-7.992187-2.902343-15.515624-8.398437-21.773437-.394531-.355469-.808594-.703125-1.234375-1.042969-1.097656-.882812-1.65625-2.273437-1.460938-3.667968.050782-.378907.15625-.742188.308594-1.082032-1.042968-22.042968-6.214844-31.148437-10.375-34.902344-2.929687-2.644531-5.691406-2.914062-7.070312-2.832031-.125.003907-.242188.042969-.351563.109375-8.84375 5.417969-16.0625 12.6875-21.457031 21.601563-.128906.21875-.28125.421875-.453125.613281l-2.261719 2.503906c-.914062 1.011719-2.277344 1.492188-3.628906 1.261719-.632812-.105469-1.105469-.179687-1.378906-.222656zm0 0" fill="#3762cc"/><path d="m107.332031 316.242188c1.113281 9.289062 5.566407 38.265624 19.867188 64.035156l10.742187 62.292968h-15.1875c-12.082031 0-21.875 10.773438-21.875 24.0625v10.851563c0 4.066406 2.996094 7.367187 6.695313 7.367187h45.867187c10.050782 0 18.09375-9.175781 17.730469-20.226562l-.390625-11.71875.402344.816406 7.65625-86.367187v-66.824219zm0 0" fill="#f9a7a7"/><path d="m153.445312 488.851562h-45.867187c-5.898437 0-10.695313-5.097656-10.695313-11.367187v-10.851563c0-15.472656 11.605469-28.0625 25.875-28.0625h10.433594l-9.820312-56.949218c-14.511719-26.476563-18.984375-56.328125-20.011719-64.898438-.246094-2.054687-.335937-3.191406-.335937-3.191406-.175782-2.203125 1.464843-4.128906 3.664062-4.304688 2.210938-.179687 4.128906 1.460938 4.308594 3.660157.003906.046875.089844 1.070312.308594 2.882812.992187 8.265625 5.324218 37.210938 19.394531 62.566407.21875.390624.367187.816406.445312 1.261718l10.742188 62.289063c.199219 1.164062-.125 2.355469-.882813 3.257812-.761718.902344-1.882812 1.421875-3.0625 1.421875h-15.183594c-9.859374 0-17.875 9-17.875 20.0625v10.851563c0 1.824219 1.230469 3.367187 2.695313 3.367187h45.867187c3.441407 0 6.730469-1.449218 9.273438-4.070312 2.984375-3.085938 4.609375-7.46875 4.457031-12.019532l-.386719-11.71875c-.027343-.84375.210938-1.648437.648438-2.320312l7.40625-83.539062v-66.648438c0-2.210938 1.792969-4 4-4s4 1.789062 4 4v66.824219c0 .117187-.003906.238281-.015625.355469l-7.65625 86.367187c-.039063.425781-.144531.832031-.304687 1.210937l.304687 9.203126c.222656 6.710937-2.222656 13.214843-6.707031 17.847656-4.058594 4.199218-9.390625 6.511718-15.019532 6.511718zm0 0" fill="#3762cc"/><path d="m394.503906 331.25-40.171875 19.984375-32.320312 15.878906 67.433593 52 .714844 4.601563 3.027344 21.53125h-12.378906c-9.847656 0-17.832032 10.777344-17.832032 24.066406v10.847656c0 3.761719 2.09375 6.828125 4.789063 7.277344l-.078125.089844h47.386719c4.324219 0 7.824219-4.6875 7.824219-10.472656v-67.664063l-5.1875-14.28125c-.171876-.652344-.363282-1.289063-.589844-1.910156zm0 0" fill="#f9a7a7"/><path d="m347.277344 390.59375c-.0625 0-.128906 0-.199219-.003906-66.425781-3.261719-65.71875-89.257813-65.707031-90.125.039062-2.207032 1.851562-4.027344 4.066406-3.929688 2.210938.035156 3.96875 1.855469 3.933594 4.0625-.050782 3.230469-.589844 79.121094 58.101562 82.003906 2.203125.105469 3.90625 1.984376 3.796875 4.191407-.101562 2.136719-1.871093 3.800781-3.992187 3.800781zm0 0" fill="#3762cc"/><path d="m415.074219 491.527344h-47.386719c-.675781 0-1.320312-.167969-1.890625-.476563-4.023437-1.367187-6.820313-5.722656-6.820313-10.890625v-10.851562c0-15.472656 9.792969-28.0625 21.832032-28.0625h7.777344l-2.847657-19.941406-40.902343-31.542969c-1.75-1.351563-2.074219-3.863281-.726563-5.609375 1.351563-1.75 3.863281-2.074219 5.609375-.726563l42.167969 32.519531c.8125.625 1.351562 1.542969 1.511719 2.554688l.710937 4.601562 3.039063 21.585938c.160156 1.148438-.183594 2.304688-.945313 3.179688-.757813.875-1.859375 1.375-3.015625 1.375h-12.375c-7.5 0-13.832031 9.191406-13.832031 20.066406v10.847656c0 2.039062 1.011719 3.257812 1.445312 3.332031.066407.007813.128907.023438.191407.035157h46.460937c1.804687 0 3.824219-2.765626 3.824219-6.472657v-66.960937l-4.953125-13.621094c-.039063-.113281-.078125-.234375-.109375-.355469-.136719-.527343-.289063-1.046875-.476563-1.550781l-2.429687-6.683594c-.753906-2.078125.320312-4.371094 2.394531-5.125 2.078125-.753906 4.371094.316406 5.125 2.394532l2.429687 6.679687c.246094.675781.457032 1.371094.648438 2.078125l5.128906 14.117188c.160156.4375.238282.898437.238282 1.363281v67.664062c0 8.117188-5.191407 14.476563-11.824219 14.476563zm0 0" fill="#3762cc"/><path d="m218.136719 376.84375-21.140625-2.609375c-2.191406-.269531-3.75-2.269531-3.480469-4.460937l21.53125-174.378907c.269531-2.191406 2.265625-3.75 4.457031-3.480469l21.140625 2.613282c2.191407.269531 3.75 2.265625 3.480469 4.457031l-21.527344 174.378906c-.273437 2.195313-2.269531 3.753907-4.460937 3.480469zm0 0" fill="#6bdddd"/><path d="m87.457031 237.214844-7.441406-17.253906c-.875-2.027344.058594-4.382813 2.085937-5.257813l121.480469-52.394531c2.027344-.871094 4.382813.0625 5.257813 2.089844l7.441406 17.25c.875 2.03125-.058594 4.382812-2.085938 5.257812l-121.480468 52.394531c-2.027344.878907-4.382813-.058593-5.257813-2.085937zm0 0" fill="#6bdddd"/><path d="m218.644531 380.875c-.332031 0-.664062-.019531-.996093-.0625l-21.144532-2.609375c-4.375-.539063-7.5-4.542969-6.957031-8.917969l21.53125-174.378906c.261719-2.121094 1.332031-4.011719 3.015625-5.328125 1.683594-1.3125 3.777344-1.890625 5.902344-1.632813l21.140625 2.609376c4.375.542968 7.5 4.542968 6.957031 8.921874l-21.527344 174.375c-.261718 2.121094-1.332031 4.011719-3.015625 5.328126-1.421875 1.109374-3.136719 1.695312-4.90625 1.695312zm-.015625-8h.003906l21.523438-174.378906-21.140625-2.609375-21.53125 174.378906zm0 0" fill="#3762cc"/><path d="m91.140625 243.628906c-3.097656 0-6.050781-1.808594-7.355469-4.832031l-7.441406-17.25c-1.75-4.050781.125-8.765625 4.175781-10.515625l121.480469-52.394531c1.960938-.84375 4.136719-.875 6.121094-.085938 1.988281.789063 3.546875 2.304688 4.394531 4.265625l7.441406 17.25c.847657 1.964844.878907 4.136719.089844 6.125-.792969 1.984375-2.304687 3.542969-4.269531 4.390625l-121.476563 52.394531c-1.03125.445313-2.105469.652344-3.160156.652344zm-.007813-8v.003906l121.476563-52.398437-7.441406-17.25-121.480469 52.394531zm0 0" fill="#3762cc"/><path d="m209.191406 163.582031c-1.027344-1.746093-3.191406-2.441406-5.050781-1.621093l-10.167969 4.472656.089844.941406 13.542969 18.527344c.898437 1.230468 1.910156 2.378906 3.019531 3.421875 0 0 6.957031 9.132812 32.144531 20.65625l1.433594-11.101563c.261719-1.988281-.980469-3.910156-2.929687-4.371094-14.667969-3.453124-27.542969-23.214843-32.082032-30.925781zm0 0" fill="#6bdddd"/><g fill="#3762cc"><path d="m242.769531 213.976562c-.566406 0-1.132812-.121093-1.664062-.363281-23.59375-10.792969-31.925781-19.792969-33.417969-21.5625-1.210938-1.164062-2.324219-2.441406-3.3125-3.792969l-13.542969-18.527343c-.421875-.582031-.683593-1.265625-.75-1.984375l-.089843-.9375c-.160157-1.714844.792968-3.34375 2.371093-4.039063l10.171875-4.472656c3.710938-1.632813 8.054688-.230469 10.109375 3.253906 3.539063 6.019531 16.132813 25.90625 29.546875 29.0625 3.941406.921875 6.511719 4.699219 5.980469 8.777344l-1.433594 11.097656c-.164062 1.261719-.917969 2.371094-2.027343 2.984375-.605469.335938-1.273438.503906-1.941407.503906zm-43.089843-45.691406 11.152343 15.253906c.753907 1.03125 1.605469 2 2.535157 2.875.160156.152344.304687.3125.4375.488282.042968.050781 6.03125 7.425781 25.703124 17.105468l.730469-5.640624c-15.933593-3.742188-29.433593-24.152344-34.496093-32.753907v-.003906zm0 0"/><path d="m222.207031 185.476562c-.03125 0-.058593 0-.09375 0-1.089843-.023437-2.125-.496093-2.863281-1.300781-5.472656-6-9.8125-12.484375-12.488281-16.867187-.960938-1.578125-.71875-3.605469.585937-4.914063l161.222656-161.21875c.753907-.753906 1.769532-1.175781 2.832032-1.175781h28.28125c1.621094 0 3.078125.972656 3.699218 2.46875.617188 1.496094.277344 3.214844-.871093 4.359375l-177.476563 177.476563c-.753906.753906-1.769531 1.171874-2.828125 1.171874zm-6.945312-19.683593c1.890625 2.914062 4.3125 6.375 7.152343 9.820312l167.613282-167.613281h-16.96875zm0 0"/></g></svg>