<svg height="512" viewBox="0 0 128 128" width="512" xmlns="http://www.w3.org/2000/svg"><g><g><path d="m104.885 22.469 16.115 91.392-16.042 2.828-10.084-57.187h-61.748l-10.084 57.187-16.042-2.828 16.115-91.392z" fill="#2b4177"/><path d="m23.115 22.469 23.854-7.546 6.231-7.923h21.6l6.235 7.923 23.854 7.546-11.1 41.056a40 40 0 0 0 -1.179 14.506l4.39 42.969h-21.938a10 10 0 0 1 -9.772-7.878l-1.29-5.941-1.29 5.941a10 10 0 0 1 -9.772 7.878h-21.938l4.392-42.969a40 40 0 0 0 -1.179-14.506z" fill="#44538c"/><path d="m91.856 18.347s-9.566 33.299-27.856 49.762c-18.29-16.463-27.856-49.762-27.856-49.762l10.825-3.424h34.062z" fill="#2b4177"/><path d="m81.031 14.923-17.031 53.186-17.031-53.186 6.235-7.923h21.592z" fill="#d6dde5"/><path d="m52.741 32.948 11.259-7.912 11.259 7.912 5.772-18.025-6.235-7.923h-21.592l-6.235 7.923z" fill="#eaeef4"/><path d="m74.796 7-10.796 18.036-10.796-18.036z" fill="#d6dde5"/><g><path d="m67.3 31.828a17.505 17.505 0 0 0 8.921 5.051 3.72 3.72 0 0 0 1.679-3.611c-.263-2.5 1.1-2.553 1.1-4.547s-1.361-2.049-1.1-4.548a3.718 3.718 0 0 0 -1.677-3.61 17.5 17.5 0 0 0 -8.923 5.051h-6.6a17.5 17.5 0 0 0 -8.922-5.051 3.718 3.718 0 0 0 -1.677 3.61c.263 2.5-1.1 2.554-1.1 4.548s1.361 2.048 1.1 4.547a3.72 3.72 0 0 0 1.677 3.611 17.505 17.505 0 0 0 8.922-5.051z" fill="#fe5f96"/><rect fill="#f93a88" height="7.368" rx="1.154" width="6.923" x="60.538" y="25.036"/></g></g><g><path d="m114.823 78.828a1.751 1.751 0 0 0 -1.42 2.027l.864 4.9a1.749 1.749 0 0 0 1.721 1.446 1.773 1.773 0 0 0 .306-.026 1.751 1.751 0 0 0 1.42-2.027l-.863-4.9a1.754 1.754 0 0 0 -2.028-1.42z"/><path d="m122.724 113.557-3.424-19.436a1.75 1.75 0 0 0 -3.447.607l3.124 17.712-12.6 2.222-9.711-55.08 7.86-29.076 7.294 41.373a1.751 1.751 0 0 0 1.722 1.446 1.878 1.878 0 0 0 .306-.026 1.751 1.751 0 0 0 1.42-2.027l-8.659-49.107a1.749 1.749 0 0 0 -1.2-1.365l-23.34-7.383-5.9-7.5a1.748 1.748 0 0 0 -1.369-.667h-21.6a1.748 1.748 0 0 0 -1.375.668l-5.9 7.5-23.338 7.382a1.749 1.749 0 0 0 -1.2 1.365l-5.349 30.361a1.75 1.75 0 1 0 3.447.608l3.99-22.628 7.859 29.076-9.711 55.08-12.6-2.222 8.877-50.33a1.75 1.75 0 0 0 -3.447-.607l-9.177 52.054a1.751 1.751 0 0 0 1.42 2.027l16.042 2.829a1.735 1.735 0 0 0 .3.027 1.752 1.752 0 0 0 1.724-1.447l8.622-48.9a38.12 38.12 0 0 1 .263 9.76l-.912 8.919a1.75 1.75 0 0 0 1.565 1.918q.09.009.18.009a1.75 1.75 0 0 0 1.739-1.572l.911-8.919a41.589 41.589 0 0 0 -1.23-15.14l-10.658-39.437 9.745-3.082a163.576 163.576 0 0 0 6.631 17.224c6.151 13.653 13.09 24.1 20.632 31.095v38.132l-1.25 5.751a8.3 8.3 0 0 1 -8.063 6.5h-20l2.357-23.051a1.75 1.75 0 1 0 -3.481-.355l-2.554 24.98a1.75 1.75 0 0 0 1.741 1.925h21.938a11.831 11.831 0 0 0 11.062-7.792 11.827 11.827 0 0 0 11.062 7.792h21.938a1.75 1.75 0 0 0 1.741-1.928l-4.392-42.969a38.12 38.12 0 0 1 .263-9.76l8.622 48.9a1.752 1.752 0 0 0 1.724 1.447 1.735 1.735 0 0 0 .3-.027l16.042-2.829a1.751 1.751 0 0 0 1.424-2.027zm-71.634-83.763a1.865 1.865 0 0 1 0-2.147 5.529 5.529 0 0 0 .748-3.658 2.05 2.05 0 0 1 .391-1.517 15.7 15.7 0 0 1 6.56 3.713v5.072a15.685 15.685 0 0 1 -6.559 3.713 2.066 2.066 0 0 1 -.392-1.519 5.527 5.527 0 0 0 -.748-3.657zm25.072 3.657a2.056 2.056 0 0 1 -.391 1.519 15.686 15.686 0 0 1 -6.56-3.713v-5.072a15.684 15.684 0 0 1 6.559-3.713 2.059 2.059 0 0 1 .392 1.517 5.529 5.529 0 0 0 .748 3.658 1.865 1.865 0 0 1 0 2.147 5.527 5.527 0 0 0 -.748 3.657zm-10.451-6.665v3.869h-3.422v-3.869zm.039 7.369h.558a2.84 2.84 0 0 0 .764-.115 19.673 19.673 0 0 0 4.954 3.266l-6.276 19.6zm11.978-14.655a4.527 4.527 0 0 0 -.643-.463 1.753 1.753 0 0 0 -1.222-.187 19.092 19.092 0 0 0 -8.791 4.55l-.046-.014 7.966-13.308 4.089 5.195zm-13.728 2.129-7.709-12.879h15.418zm-3.026 1.758-.046.014a19.092 19.092 0 0 0 -8.791-4.55 1.737 1.737 0 0 0 -1.222.187 4.527 4.527 0 0 0 -.643.463l-1.353-4.227 4.089-5.195zm-.046 10.653a2.84 2.84 0 0 0 .764.115h.558v22.75l-6.276-19.6a19.673 19.673 0 0 0 4.954-3.265zm14.406 4.409c.18.044.345.1.529.142a1.781 1.781 0 0 0 .362.038 1.745 1.745 0 0 0 .861-.227 5.448 5.448 0 0 0 2.557-5.318 2.17 2.17 0 0 1 .338-1.612 5.305 5.305 0 0 0 0-5.5 2.343 2.343 0 0 1 -.345-.954l2.529-7.9 7.506 2.374c-1.923 6.019-9.362 27.49-21.713 41.992zm-37.005-18.957 7.506-2.374 2.529 7.9a2.343 2.343 0 0 1 -.345.954 5.305 5.305 0 0 0 0 5.5 2.17 2.17 0 0 1 .338 1.612 5.448 5.448 0 0 0 2.557 5.316 1.745 1.745 0 0 0 .861.227 1.781 1.781 0 0 0 .362-.038c.184-.039.349-.1.529-.142l7.376 23.035c-12.351-14.5-19.79-35.971-21.713-41.99zm56.733 99.758h-20a8.3 8.3 0 0 1 -8.063-6.5l-1.249-5.75v-38.132c7.542-6.993 14.481-17.442 20.632-31.095a163.576 163.576 0 0 0 6.631-17.224l9.745 3.082-10.658 39.437a41.589 41.589 0 0 0 -1.229 15.14z"/><path d="m55.756 92.179a1.75 1.75 0 0 0 0-3.5h-13.387a1.75 1.75 0 0 0 0 3.5z"/><path d="m85.631 88.679h-13.387a1.75 1.75 0 0 0 0 3.5h13.387a1.75 1.75 0 0 0 0-3.5z"/></g></g></svg>