<?xml version="1.0" encoding="UTF-8"?>
<svg xmlns="http://www.w3.org/2000/svg" xmlns:xlink="http://www.w3.org/1999/xlink" version="1.1" id="Capa_1" x="0px" y="0px" viewBox="0 0 512 512" style="enable-background:new 0 0 512 512;" xml:space="preserve" width="512" height="512">
<g>
	<g>
		<g>
			<g>
				<path style="fill:#E2E2E2;" d="M380.745,84.703c29.198-8.889,54.756-27.939,71.585-54.38l7.35-11.566&#10;&#9;&#9;&#9;&#9;&#9;c4.528-7.119,12.36-11.255,20.512-11.255c13.424,0,24.308,10.884,24.308,24.308v34.087c0,41.451-28.482,76.238-66.944,85.872&#10;&#9;&#9;&#9;&#9;&#9;C397.933,149.572,353.141,94.602,380.745,84.703z"/>
				<path style="fill:#D0CFD1;" d="M343.532,90.324c2.199-0.173,17.34,0.428,37.212-5.621c23.639,18.197,42.932,41.256,56.81,67.065&#10;&#9;&#9;&#9;&#9;&#9;c-6.908,1.73-14.137,2.654-21.582,2.654c-0.1,0-5.746,0-5.623,0C336.887,159.311,286.875,86.82,343.532,90.324z"/>
				<path style="fill:#F38241;" d="M492.501,189.513c14.93,11.767,16.125,33.987,2.48,47.22c-0.09,0.09-0.181,0.171-0.271,0.261&#10;&#9;&#9;&#9;&#9;&#9;l-33.627-10.411c-23.527-10.911-42.094-66.635-17.676-63.075C460.842,169.617,477.901,177.999,492.501,189.513z"/>
				<path style="fill:#EA6C2D;" d="M410.35,154.422c2.834,0.671,16.393,3.247,33.055,9.085&#10;&#9;&#9;&#9;&#9;&#9;c9.185,19.952,15.228,41.274,17.676,63.075c-6.871-2.127-27.022-8.359-26.893-8.325&#10;&#9;&#9;&#9;&#9;&#9;C385.768,205.531,372.36,150.112,410.35,154.422z"/>
				<path style="fill:#FCDDB4;" d="M458.854,211.757c12.349,6.492,24.562,14.744,35.855,25.237&#10;&#9;&#9;&#9;&#9;&#9;c-8.714,8.449-19.907,18.538-33.18,28.959C435.716,275.411,432.489,203.456,458.854,211.757z"/>
				<path style="fill:#FCCE95;" d="M429.999,199.527c9.832,3.549,17.036,6.017,28.855,12.23c3.353,17.769,4.329,36,2.675,54.195&#10;&#9;&#9;&#9;&#9;&#9;c-16.011,12.571-29.144,20.849-29.04,20.778C388.388,303.901,388.387,184.506,429.999,199.527z"/>
				<path style="fill:#E2E2E2;" d="M131.256,84.703c-29.198-8.889-54.756-27.939-71.585-54.38l-7.35-11.566&#10;&#9;&#9;&#9;&#9;&#9;c-4.528-7.119-12.36-11.255-20.512-11.255c-13.424,0-24.308,10.884-24.308,24.308v34.087c0,41.451,28.482,76.238,66.944,85.872&#10;&#9;&#9;&#9;&#9;&#9;C114.067,149.572,158.86,94.602,131.256,84.703z"/>
				<path style="fill:#D0CFD1;" d="M168.468,90.324c-2.199-0.173-17.34,0.428-37.212-5.621&#10;&#9;&#9;&#9;&#9;&#9;c-23.639,18.197-42.932,41.256-56.81,67.065c6.908,1.73,14.137,2.654,21.582,2.654c0.1,0,5.746,0,5.623,0&#10;&#9;&#9;&#9;&#9;&#9;C175.113,159.311,225.126,86.82,168.468,90.324z"/>
				<path style="fill:#F38241;" d="M19.5,189.513c-14.93,11.767-16.125,33.987-2.48,47.22c0.09,0.09,0.181,0.171,0.271,0.261&#10;&#9;&#9;&#9;&#9;&#9;l33.627-10.411c23.527-10.911,42.094-66.635,17.676-63.075C51.158,169.617,34.099,177.999,19.5,189.513z"/>
				<path style="fill:#EA6C2D;" d="M101.65,154.422c-2.834,0.671-16.393,3.247-33.055,9.085&#10;&#9;&#9;&#9;&#9;&#9;c-9.185,19.952-15.228,41.274-17.676,63.075c6.871-2.127,27.022-8.359,26.893-8.325&#10;&#9;&#9;&#9;&#9;&#9;C126.232,205.531,139.641,150.112,101.65,154.422z"/>
				<path style="fill:#FCDDB4;" d="M53.146,211.757c-12.349,6.492-24.562,14.744-35.855,25.237&#10;&#9;&#9;&#9;&#9;&#9;c8.714,8.449,19.907,18.538,33.18,28.959C76.284,275.411,79.511,203.456,53.146,211.757z"/>
				<path style="fill:#FCCE95;" d="M82.001,199.527c-9.832,3.549-17.036,6.017-28.855,12.23c-3.353,17.769-4.329,36-2.675,54.195&#10;&#9;&#9;&#9;&#9;&#9;c16.011,12.571,29.144,20.849,29.04,20.778C123.613,303.901,123.613,184.506,82.001,199.527z"/>
				<path style="fill:#FFF1CF;" d="M314.148,325.559c71.372-52.993,105.509-141.348,66.242-208.196&#10;&#9;&#9;&#9;&#9;&#9;c-23.342-22.155-51.116-36.874-80.348-44.192c-92.987-5.427-134.405,242.737-50.336,275.005&#10;&#9;&#9;&#9;&#9;&#9;C270.392,349.66,291.843,342.457,314.148,325.559z"/>
				<path style="fill:#FCDDB4;" d="M300.042,73.171c-58.151-14.559-122.081,0.199-168.432,44.192&#10;&#9;&#9;&#9;&#9;&#9;c-43.625,68.355,0,165.746,66.237,208.196c16.752,13.596,34.021,21.335,51.859,22.616&#10;&#9;&#9;&#9;&#9;&#9;C246.717,259.669,262.765,154.57,300.042,73.171z"/>
				<path style="fill:#FF9A69;" d="M436.726,248.47c0,62.425-31.771,112.608-82.06,140.926&#10;&#9;&#9;&#9;&#9;&#9;c-21.356,15.703-53.485-23.287-53.485-52.571v-75.694c0-46.386,19.759-90.584,54.328-121.508l24.88-22.259&#10;&#9;&#9;&#9;&#9;&#9;C415.22,150.405,436.726,197.08,436.726,248.47z"/>
				<path style="fill:#F38241;" d="M210.818,261.131v75.694c0,32.128-26.356,63.756-53.485,52.571&#10;&#9;&#9;&#9;&#9;&#9;c-50.288-28.318-82.06-78.489-82.06-140.926c0-49.986,20.453-97.066,56.336-131.107l24.88,22.259&#10;&#9;&#9;&#9;&#9;&#9;C191.059,170.547,210.818,214.744,210.818,261.131z"/>
				<path style="fill:#F38241;" d="M356.454,405.099c0-27.409-15.947-51.041-39.167-65.865c-7.025-4.486-13.386-9.969-18.464-16.536&#10;&#9;&#9;&#9;&#9;&#9;c-12.54-16.208-31.151-23.249-48.973-21.15c-73.837,38.456-74.507,161.618,19.981,172.308&#10;&#9;&#9;&#9;&#9;&#9;C314.636,470.442,356.454,449.997,356.454,405.099z"/>
				<path style="fill:#EA6C2D;" d="M249.849,301.548c-13.741,1.618-27.014,8.667-36.671,21.15&#10;&#9;&#9;&#9;&#9;&#9;c-5.053,6.534-11.395,12.014-18.464,16.536c-23.262,14.842-39.167,38.493-39.167,65.865c0,49.572,50.952,69.278,100.454,69.278&#10;&#9;&#9;&#9;&#9;&#9;c4.614,0,9.238-0.172,13.83-0.522C254.754,427.926,247.299,367.87,249.849,301.548z"/>
				<path style="fill:#516980;" d="M307.949,377.779c7.339,8.584,8.183,20.181,2.42,27.32c-0.592,0.743-1.265,1.446-2.018,2.088&#10;&#9;&#9;&#9;&#9;&#9;c-7.892,6.767-20.874,4.568-28.997-4.9c-8.113-9.478-8.303-22.641-0.402-29.408&#10;&#9;&#9;&#9;&#9;&#9;C286.844,366.112,299.826,368.311,307.949,377.779z"/>
				<path style="fill:#485C70;" d="M233.048,372.88c7.892,6.767,7.711,19.93-0.402,29.408c-8.123,9.468-21.105,11.667-28.997,4.9&#10;&#9;&#9;&#9;&#9;&#9;c-0.753-0.643-1.426-1.345-2.018-2.088c-5.773-7.139-4.92-18.735,2.42-27.32C212.174,368.311,225.156,366.112,233.048,372.88z"/>
			</g>
		</g>
	</g>
	<g>
		<path style="fill:none;stroke:#000000;stroke-width:15;stroke-linecap:round;stroke-linejoin:round;stroke-miterlimit:10;" d="&#10;&#9;&#9;&#9;M317.286,339.234c-7.024-4.486-13.386-9.969-18.464-16.536c-10.161-13.133-25.573-21.516-42.822-21.516&#10;&#9;&#9;&#9;s-32.661,8.384-42.822,21.516c-5.052,6.534-11.395,12.014-18.464,16.536c-23.262,14.842-39.167,38.493-39.167,65.865&#10;&#9;&#9;&#9;c0,23.494,11.777,41.085,30.713,52.662c18.073,11.044,42.651,16.617,69.74,16.617s51.668-5.572,69.74-16.617&#10;&#9;&#9;&#9;c18.936-11.577,30.713-29.167,30.713-52.662C356.454,377.69,340.507,354.058,317.286,339.234z"/>
		<path style="fill:none;stroke:#000000;stroke-width:15;stroke-linecap:round;stroke-linejoin:round;stroke-miterlimit:10;" d="&#10;&#9;&#9;&#9;M301.182,325.559v-64.429c0-46.386,19.759-90.584,54.328-121.508l24.88-22.259"/>
		<path style="fill:none;stroke:#000000;stroke-width:15;stroke-linecap:round;stroke-linejoin:round;stroke-miterlimit:10;" d="&#10;&#9;&#9;&#9;M131.61,117.363l24.88,22.259c34.569,30.924,54.328,75.122,54.328,121.508v64.429"/>
		
			<line style="fill:none;stroke:#000000;stroke-width:15;stroke-linecap:round;stroke-linejoin:round;stroke-miterlimit:10;" x1="165.637" y1="233.409" x2="165.637" y2="245.458"/>
		
			<line style="fill:none;stroke:#000000;stroke-width:15;stroke-linecap:round;stroke-linejoin:round;stroke-miterlimit:10;" x1="346.363" y1="233.409" x2="346.363" y2="245.458"/>
		<path style="fill:none;stroke:#000000;stroke-width:15;stroke-linecap:round;stroke-linejoin:round;stroke-miterlimit:10;" d="&#10;&#9;&#9;&#9;M232.646,402.288c-8.123,9.468-21.105,11.667-28.997,4.9c-0.753-0.643-1.426-1.345-2.018-2.088&#10;&#9;&#9;&#9;c-5.773-7.139-4.92-18.735,2.42-27.32c8.123-9.468,21.105-11.667,28.997-4.9C240.939,379.647,240.759,392.81,232.646,402.288z"/>
		<path style="fill:none;stroke:#000000;stroke-width:15;stroke-linecap:round;stroke-linejoin:round;stroke-miterlimit:10;" d="&#10;&#9;&#9;&#9;M279.354,402.288c8.123,9.468,21.105,11.667,28.997,4.9c0.753-0.643,1.426-1.345,2.018-2.088c5.763-7.139,4.92-18.735-2.42-27.32&#10;&#9;&#9;&#9;c-8.123-9.468-21.105-11.667-28.997-4.9C271.05,379.647,271.241,392.81,279.354,402.288z"/>
		<path style="fill:none;stroke:#000000;stroke-width:15;stroke-linecap:round;stroke-linejoin:round;stroke-miterlimit:10;" d="&#10;&#9;&#9;&#9;M410.35,154.422c27.902,5.803,58.304,16.285,82.15,35.091c14.93,11.767,16.125,33.987,2.48,47.22&#10;&#9;&#9;&#9;c-0.09,0.09-0.181,0.171-0.271,0.261c-14.488,14.046-35.784,32.621-62.2,49.73"/>
		<path style="fill:none;stroke:#000000;stroke-width:15;stroke-linecap:round;stroke-linejoin:round;stroke-miterlimit:10;" d="&#10;&#9;&#9;&#9;M310.368,405.099c15.059,14.819,20.323,34.381,15.372,52.662c-7.289,26.768-35.744,46.738-69.74,46.738&#10;&#9;&#9;&#9;s-62.451-19.97-69.74-46.738c-4.949-18.273,0.306-37.836,15.372-52.662"/>
		<path style="fill:none;stroke:#000000;stroke-width:15;stroke-linecap:round;stroke-linejoin:round;stroke-miterlimit:10;" d="&#10;&#9;&#9;&#9;M157.334,389.396C38.844,322.673,53.646,153.962,168.468,90.324c54.247-30.095,120.709-30.155,175.063,0&#10;&#9;&#9;&#9;c96.044,53.23,121.223,179.152,60.081,257.364"/>
		<path style="fill:none;stroke:#000000;stroke-width:15;stroke-linecap:round;stroke-linejoin:round;stroke-miterlimit:10;" d="&#10;&#9;&#9;&#9;M379.064,372.749c-7.55,6.195-15.713,11.757-24.398,16.647"/>
		<path style="fill:none;stroke:#000000;stroke-width:15;stroke-linecap:round;stroke-linejoin:round;stroke-miterlimit:10;" d="&#10;&#9;&#9;&#9;M494.709,236.994c-20.121-18.695-43.163-30.282-64.69-37.461"/>
		<path style="fill:none;stroke:#000000;stroke-width:15;stroke-linecap:round;stroke-linejoin:round;stroke-miterlimit:10;" d="&#10;&#9;&#9;&#9;M79.491,286.723c-26.416-17.109-47.712-35.683-62.2-49.73c-0.09-0.09-0.181-0.171-0.271-0.261&#10;&#9;&#9;&#9;c-13.645-13.233-12.45-35.452,2.48-47.22c23.846-18.806,54.248-29.288,82.15-35.091"/>
		<path style="fill:none;stroke:#000000;stroke-width:15;stroke-linecap:round;stroke-linejoin:round;stroke-miterlimit:10;" d="&#10;&#9;&#9;&#9;M81.981,199.533c-21.526,7.179-44.569,18.765-64.69,37.461"/>
		<path style="fill:none;stroke:#000000;stroke-width:15;stroke-linecap:round;stroke-linejoin:round;stroke-miterlimit:10;" d="&#10;&#9;&#9;&#9;M343.532,90.324c44.107-0.171,85.102-22.771,108.797-60.001l7.35-11.566c4.378-6.878,12.068-11.255,20.512-11.255&#10;&#9;&#9;&#9;c13.424,0,24.308,10.884,24.308,24.308v34.087c0,48.896-39.629,88.526-88.526,88.526h-5.623"/>
		<path style="fill:none;stroke:#000000;stroke-width:15;stroke-linecap:round;stroke-linejoin:round;stroke-miterlimit:10;" d="&#10;&#9;&#9;&#9;M12.984,96.63C9.439,87.051,7.502,76.7,7.502,65.896V31.809c0-13.424,10.884-24.308,24.308-24.308&#10;&#9;&#9;&#9;c8.153,0,15.984,4.137,20.512,11.255l7.35,11.566c23.695,37.23,64.69,59.83,108.797,60.001"/>
		<path style="fill:none;stroke:#000000;stroke-width:15;stroke-linecap:round;stroke-linejoin:round;stroke-miterlimit:10;" d="&#10;&#9;&#9;&#9;M31.378,126.379c30.304,32.375,68.137,27.617,70.272,28.043"/>
	</g>
</g>















</svg>
