<?xml version="1.0" encoding="UTF-8"?>
<svg xmlns="http://www.w3.org/2000/svg" xmlns:xlink="http://www.w3.org/1999/xlink" version="1.1" id="Capa_1" x="0px" y="0px" viewBox="0 0 512 512" style="enable-background:new 0 0 512 512;" xml:space="preserve" width="512" height="512">
<g>
	<g>
		<rect x="230.387" y="347.654" style="fill:#B98080;" width="51.227" height="156.846"/>
		<g>
			<path style="fill:#F9F7F8;" d="M457.824,183.133H345.379v-45.094c12.381-2.495,23.216-10.326,29.409-21.668&#10;&#9;&#9;&#9;&#9;c5.544-10.148,6.808-21.85,3.561-32.95c-3.247-11.1-10.618-20.269-20.753-25.819l-81.807-44.793&#10;&#9;&#9;&#9;&#9;c-6.345-3.473-13.52-5.309-20.75-5.309c-7.231,0-14.406,1.836-20.751,5.309l-81.806,44.793&#10;&#9;&#9;&#9;&#9;c-10.135,5.55-17.506,14.719-20.753,25.819c-3.247,11.1-1.983,22.802,3.559,32.948c6.196,11.345,17.031,19.176,29.411,21.671&#10;&#9;&#9;&#9;&#9;v45.095H54.176c-15.924,0-28.832,12.924-28.832,28.867v139.526c0,15.943,12.908,28.867,28.832,28.867h403.648&#10;&#9;&#9;&#9;&#9;c15.924,0,28.832-12.924,28.832-28.867V212.001C486.656,196.058,473.747,183.133,457.824,183.133z"/>
			<g>
				<path style="fill:#DEDBEE;" d="M235.789,12.809l81.807,44.793c10.135,5.55,17.506,14.719,20.753,25.819&#10;&#9;&#9;&#9;&#9;&#9;c3.247,11.1-32.97-7.754-32.97-7.754v107.467h40v-45.094c12.381-2.495,23.216-10.326,29.409-21.668&#10;&#9;&#9;&#9;&#9;&#9;c5.544-10.148,6.808-21.85,3.561-32.95c-3.247-11.1-10.618-20.269-20.753-25.819l-81.807-44.793&#10;&#9;&#9;&#9;&#9;&#9;c-6.344-3.473-13.52-5.309-20.75-5.309c-6.95,0-13.84,1.712-20,4.928C235.288,12.558,235.543,12.674,235.789,12.809z"/>
				<path style="fill:#DEDBEE;" d="M457.824,183.133h-40c15.924,0,28.832,12.924,28.832,28.867v139.526&#10;&#9;&#9;&#9;&#9;&#9;c0,15.943-12.908,28.867-28.832,28.867h40c15.924,0,28.832-12.924,28.832-28.867V212.001&#10;&#9;&#9;&#9;&#9;&#9;C486.656,196.058,473.747,183.133,457.824,183.133z"/>
			</g>
			<polygon style="fill:#FFE589;" points="316.547,183.133 193.531,183.133 193.531,91.72 255.039,58.041 316.547,91.72 &#9;&#9;&#9;"/>
			<path style="fill:#FE93D3;" d="M336.832,110.029c-2.338,0-4.708-0.57-6.904-1.773l-74.889-41.005l-74.889,41.005&#10;&#9;&#9;&#9;&#9;c-6.987,3.824-15.746,1.254-19.565-5.738c-3.821-6.994-1.255-15.764,5.731-19.589l81.806-44.792c4.31-2.36,9.524-2.36,13.834,0&#10;&#9;&#9;&#9;&#9;l81.806,44.792c6.986,3.825,9.552,12.595,5.731,19.589C346.874,107.314,341.932,110.029,336.832,110.029z"/>
		</g>
	</g>
	<g>
		
			<polyline style="fill:none;stroke:#000000;stroke-width:15;stroke-linecap:round;stroke-linejoin:round;stroke-miterlimit:10;" points="&#10;&#9;&#9;&#9;230.387,504.5 230.387,380.394 281.613,380.394 281.613,504.5 &#9;&#9;"/>
		<g>
			<path style="fill:none;stroke:#000000;stroke-width:15;stroke-linecap:round;stroke-linejoin:round;stroke-miterlimit:10;" d="&#10;&#9;&#9;&#9;&#9;M431.236,380.394h26.587c15.924,0,28.832-12.924,28.832-28.867V212.001c0-15.943-12.908-28.867-28.832-28.867H345.379v-45.094&#10;&#9;&#9;&#9;&#9;c12.381-2.495,23.216-10.326,29.409-21.668c5.544-10.148,6.808-21.85,3.561-32.95c-3.247-11.1-10.618-20.269-20.753-25.819&#10;&#9;&#9;&#9;&#9;l-81.807-44.793c-6.344-3.473-13.52-5.309-20.75-5.309c-7.231,0-14.406,1.836-20.751,5.309l-81.806,44.793&#10;&#9;&#9;&#9;&#9;c-10.135,5.55-17.506,14.719-20.753,25.819c-3.247,11.1-1.983,22.802,3.559,32.948c6.196,11.345,17.031,19.176,29.411,21.671&#10;&#9;&#9;&#9;&#9;v45.095H54.176c-15.923,0-28.832,12.924-28.832,28.867v139.526c0,15.943,12.908,28.867,28.832,28.867H401.57"/>
			
				<polyline style="fill:none;stroke:#000000;stroke-width:15;stroke-linecap:round;stroke-linejoin:round;stroke-miterlimit:10;" points="&#10;&#9;&#9;&#9;&#9;316.547,100.72 316.547,183.133 193.531,183.133 193.531,100.72 &#9;&#9;&#9;"/>
			<path style="fill:none;stroke:#000000;stroke-width:15;stroke-linecap:round;stroke-linejoin:round;stroke-miterlimit:10;" d="&#10;&#9;&#9;&#9;&#9;M192.128,68.796l-25.812,14.133c-6.986,3.825-9.552,12.595-5.731,19.589c3.819,6.993,12.577,9.562,19.565,5.738l74.889-41.005&#10;&#9;&#9;&#9;&#9;l74.889,41.005c6.63,3.63,15.931,0.916,19.565-5.738c3.821-6.994,1.255-15.764-5.731-19.589l-81.806-44.792&#10;&#9;&#9;&#9;&#9;c-4.31-2.36-9.524-2.36-13.834,0L218.037,54.61"/>
		</g>
		<g>
			<g>
				<path style="fill:none;stroke:#000000;stroke-width:15;stroke-linecap:round;stroke-linejoin:round;stroke-miterlimit:10;" d="&#10;&#9;&#9;&#9;&#9;&#9;M172.253,337.149l41.138-108.145c0.841-2.058,3.75-2.061,4.595-0.005l40.764,108.15"/>
				
					<line style="fill:none;stroke:#000000;stroke-width:15;stroke-linecap:round;stroke-linejoin:round;stroke-miterlimit:10;" x1="185.082" y1="310.215" x2="246.127" y2="310.215"/>
			</g>
			<g>
				<path style="fill:none;stroke:#000000;stroke-width:15;stroke-linecap:round;stroke-linejoin:round;stroke-miterlimit:10;" d="&#10;&#9;&#9;&#9;&#9;&#9;M306.605,227.459v109.598c1.211,0.208,38.363,0,38.363,0"/>
			</g>
			<g>
				
					<polyline style="fill:none;stroke:#000000;stroke-width:15;stroke-linecap:round;stroke-linejoin:round;stroke-miterlimit:10;" points="&#10;&#9;&#9;&#9;&#9;&#9;438.564,227.959 392.823,227.959 392.823,336.648 438.564,336.648 &#9;&#9;&#9;&#9;"/>
				
					<line style="fill:none;stroke:#000000;stroke-width:15;stroke-linecap:round;stroke-linejoin:round;stroke-miterlimit:10;" x1="435.191" y1="282.304" x2="392.823" y2="282.304"/>
			</g>
			<g>
				<path style="fill:none;stroke:#000000;stroke-width:15;stroke-linecap:round;stroke-linejoin:round;stroke-miterlimit:10;" d="&#10;&#9;&#9;&#9;&#9;&#9;M133.271,238.735c0,0-19.659-16.545-42.841-9.553c-13.513,4.076-23.061,18.957-16.408,32.552&#10;&#9;&#9;&#9;&#9;&#9;c6.376,13.029,27.463,17.019,39.417,21.434c40.346,14.9,22.966,53.98-9.513,53.98c-16.265,0-29.915-7.131-38.178-16.26"/>
			</g>
		</g>
	</g>
</g>















</svg>
