<svg height="512" viewBox="0 0 64 64" width="512" xmlns="http://www.w3.org/2000/svg"><g id="Layer_31" data-name="Layer 31"><rect fill="#f8c460" height="10" rx="2" width="18" x="1" y="13"/><path d="m8 20a4 4 0 0 1 -4-4v-3h-1a2 2 0 0 0 -2 2v6a2 2 0 0 0 2 2h14a2 2 0 0 0 2-2v-1z" fill="#faaf42"/><rect fill="#f8c460" height="10" rx="2" width="18" x="1" y="33"/><rect fill="#f8c460" height="10" rx="2" width="26" x="19" y="33"/><rect fill="#f8c460" height="10" rx="2" width="26" x="19" y="13"/><path d="m26 20a4 4 0 0 1 -4-4v-3h-1a2 2 0 0 0 -2 2v6a2 2 0 0 0 2 2h22a2 2 0 0 0 2-2v-1z" fill="#faaf42"/><path d="m8 40a4 4 0 0 1 -4-4v-3h-1a2 2 0 0 0 -2 2v6a2 2 0 0 0 2 2h14a2 2 0 0 0 2-2v-1z" fill="#faaf42"/><path d="m26 40a4 4 0 0 1 -4-4v-3h-1a2 2 0 0 0 -2 2v6a2 2 0 0 0 2 2h22a2 2 0 0 0 2-2v-1z" fill="#faaf42"/><rect fill="#f8c460" height="10" rx="2" width="18" x="45" y="33"/><path d="m52 40a4 4 0 0 1 -4-4v-3h-1a2 2 0 0 0 -2 2v6a2 2 0 0 0 2 2h14a2 2 0 0 0 2-2v-1z" fill="#faaf42"/><rect fill="#f8c460" height="10" rx="2" width="9" x="1" y="23"/><path d="m8 30a4 4 0 0 1 -4-4v-3h-1a2 2 0 0 0 -2 2v6a2 2 0 0 0 2 2h5a2 2 0 0 0 2-2v-1z" fill="#faaf42"/><rect fill="#f8c460" height="10" rx="2" width="26" x="10" y="23"/><path d="m17 30a4 4 0 0 1 -4-4v-3h-1a2 2 0 0 0 -2 2v6a2 2 0 0 0 2 2h22a2 2 0 0 0 2-2v-1z" fill="#faaf42"/><rect fill="#f8c460" height="10" rx="2" width="18" x="1" y="53"/><rect fill="#f8c460" height="10" rx="2" width="26" x="19" y="53"/><rect fill="#f8c460" height="10" rx="2" width="18" x="45" y="53"/><path d="m8 60a4 4 0 0 1 -4-4v-3h-1a2 2 0 0 0 -2 2v6a2 2 0 0 0 2 2h14a2 2 0 0 0 2-2v-1z" fill="#faaf42"/><path d="m26 60a4 4 0 0 1 -4-4v-3h-1a2 2 0 0 0 -2 2v6a2 2 0 0 0 2 2h22a2 2 0 0 0 2-2v-1z" fill="#faaf42"/><path d="m52 60a4 4 0 0 1 -4-4v-3h-1a2 2 0 0 0 -2 2v6a2 2 0 0 0 2 2h14a2 2 0 0 0 2-2v-1z" fill="#faaf42"/><rect fill="#f8c460" height="10" rx="2" width="9" x="1" y="43"/><rect fill="#f8c460" height="10" rx="2" width="26" x="10" y="43"/><rect fill="#f8c460" height="10" rx="2" width="9" x="54" y="43"/><rect fill="#f8c460" height="10" rx="2" width="18" x="36" y="43"/><rect fill="#f8c460" height="10" rx="2" width="18" x="36" y="23"/><g fill="#faaf42"><path d="m43 30a4 4 0 0 1 -4-4v-3h-1a2 2 0 0 0 -2 2v6a2 2 0 0 0 2 2h14a2 2 0 0 0 2-2v-1z"/><path d="m8 50a4 4 0 0 1 -4-4v-3h-1a2 2 0 0 0 -2 2v6a2 2 0 0 0 2 2h5a2 2 0 0 0 2-2v-1z"/><path d="m61 50a4 4 0 0 1 -4-4v-3h-1a2 2 0 0 0 -2 2v6a2 2 0 0 0 2 2h5a2 2 0 0 0 2-2v-1z"/><path d="m17 50a4 4 0 0 1 -4-4v-3h-1a2 2 0 0 0 -2 2v6a2 2 0 0 0 2 2h22a2 2 0 0 0 2-2v-1z"/><path d="m43 50a4 4 0 0 1 -4-4v-3h-1a2 2 0 0 0 -2 2v6a2 2 0 0 0 2 2h14a2 2 0 0 0 2-2v-1z"/><path d="m53.562 27.771-1.448 1.448-4.343-4.344 1.875-1.875h-11.646a2 2 0 0 0 -2 2v6a2 2 0 0 0 2 2h1.449a4.132 4.132 0 0 0 .848-.651l3.854-3.849a1.024 1.024 0 0 1 1.448 0l2.9 2.895a1.025 1.025 0 0 1 0 1.448.952.952 0 0 0 -.108.162h3.609a2 2 0 0 0 2-2v-2.796z"/><path d="m43 13h-17.923l4.737 10h13.186a2 2 0 0 0 2-2v-6a2 2 0 0 0 -2-2z"/></g><path d="m53.349 17.3-12.049 12.049a4.1 4.1 0 0 1 -6.6-1.143l-9.306-19.648a4.1 4.1 0 0 1 .806-4.649l1.71-1.71a4.1 4.1 0 0 1 4.649-.8l19.647 9.301a4.1 4.1 0 0 1 1.143 6.6z" fill="#e6e6e6"/><path d="m34 23h-4.186l3.886 8.206a4.068 4.068 0 0 0 1.259 1.538 1.99 1.99 0 0 0 1.041-1.744v-6a2 2 0 0 0 -2-2z" fill="#faaf42"/><path d="m60.637 34.846-1.846-1.846h-10.4a1.01 1.01 0 0 0 .108 1.286l6.511 6.514a4.1 4.1 0 0 0 5.942-.16 4.251 4.251 0 0 0 -.315-5.794z" fill="#faaf42"/><path d="m38 7.185a1 1 0 0 1 -.428-.1l-2.502-1.185a1 1 0 1 1 .856-1.8l2.5 1.185a1 1 0 0 1 -.426 1.9z" fill="#fff"/><path d="m54.349 13.3-8.133 8.13a8 8 0 0 1 -12.887-2.23l-6.935-14.642a4.062 4.062 0 0 1 -.23-.607 4.092 4.092 0 0 0 -.77 4.607l9.306 19.648a4.1 4.1 0 0 0 6.6 1.143l12.049-12.049a4.074 4.074 0 0 0 1.035-4.04c-.012.01-.022.025-.035.04z" fill="#cecece"/><path d="m53.114 26.219-2.895 2.895-7.239-7.239a2.046 2.046 0 0 1 0-2.895 2.046 2.046 0 0 1 2.9 0z" fill="#7a838b"/><path d="m61.8 37.8a4.1 4.1 0 0 1 -5.791 0l-7.239-7.239 5.791-5.791 7.239 7.24a4.1 4.1 0 0 1 0 5.79z" fill="#e6e6e6"/><path d="m61.8 34.8a4.1 4.1 0 0 1 -5.791 0l-5.739-5.739-1.5 1.5 7.24 7.239a4.093 4.093 0 0 0 6.7-4.4 4.074 4.074 0 0 1 -.91 1.4z" fill="#cecece"/><path d="m48.869 25.856h4.095v2.121h-4.095z" fill="#5d6972" transform="matrix(.707 -.707 .707 .707 -4.12 43.887)"/><path d="m63 40a1 1 0 0 0 -1 1 1 1 0 0 1 -1 1h-14a1 1 0 0 1 -1-1v-6a1 1 0 0 1 1-1 1 1 0 0 0 0-2 2.981 2.981 0 0 0 -2 .78 2.981 2.981 0 0 0 -2-.78h-31a1 1 0 0 1 -1-1v-6a1 1 0 0 1 1-1h17a1 1 0 0 0 0-2h-8a1 1 0 0 1 -1-1v-6a1 1 0 0 1 1-1h2a1 1 0 0 0 0-2h-2a2.981 2.981 0 0 0 -2 .78 2.981 2.981 0 0 0 -2-.78h-14a3 3 0 0 0 -3 3v6a2.981 2.981 0 0 0 .78 2 2.981 2.981 0 0 0 -.78 2v6a2.981 2.981 0 0 0 .78 2 2.981 2.981 0 0 0 -.78 2v6a2.981 2.981 0 0 0 .78 2 2.981 2.981 0 0 0 -.78 2v6a2.981 2.981 0 0 0 .78 2 2.981 2.981 0 0 0 -.78 2v6a3 3 0 0 0 3 3h14a2.981 2.981 0 0 0 2-.78 2.981 2.981 0 0 0 2 .78h22a2.981 2.981 0 0 0 2-.78 2.981 2.981 0 0 0 2 .78h14a3 3 0 0 0 3-3v-6a2.981 2.981 0 0 0 -.78-2 2.981 2.981 0 0 0 .78-2v-6a2.981 2.981 0 0 0 -.78-2 2.981 2.981 0 0 0 .78-2 1 1 0 0 0 -1-1zm-2 4a1 1 0 0 1 1 1v6a1 1 0 0 1 -1 1h-5a1 1 0 0 1 -1-1v-6a1 1 0 0 1 1-1zm-9 0a1 1 0 0 1 1 1v6a1 1 0 0 1 -1 1h-14a1 1 0 0 1 -1-1v-6a1 1 0 0 1 1-1zm-9-10a1 1 0 0 1 1 1v6a1 1 0 0 1 -1 1h-14a1 1 0 0 0 0 2h5a1 1 0 0 1 1 1v6a1 1 0 0 1 -1 1h-22a1 1 0 0 1 -1-1v-6a1 1 0 0 1 1-1h13a1 1 0 0 0 0-2h-4a1 1 0 0 1 -1-1v-6a1 1 0 0 1 1-1zm-41 17v-6a1 1 0 0 1 1-1h5a1 1 0 0 1 1 1v6a1 1 0 0 1 -1 1h-5a1 1 0 0 1 -1-1zm15-17a1 1 0 0 1 1 1v6a1 1 0 0 1 -1 1h-14a1 1 0 0 1 -1-1v-6a1 1 0 0 1 1-1zm-15-3v-6a1 1 0 0 1 1-1h5a1 1 0 0 1 1 1v6a1 1 0 0 1 -1 1h-5a1 1 0 0 1 -1-1zm0-16a1 1 0 0 1 1-1h14a1 1 0 0 1 1 1v6a1 1 0 0 1 -1 1h-14a1 1 0 0 1 -1-1zm15 47h-14a1 1 0 0 1 -1-1v-6a1 1 0 0 1 1-1h14a1 1 0 0 1 1 1v6a1 1 0 0 1 -1 1zm26 0h-22a1 1 0 0 1 -1-1v-6a1 1 0 0 1 1-1h22a1 1 0 0 1 1 1v6a1 1 0 0 1 -1 1zm19-1a1 1 0 0 1 -1 1h-14a1 1 0 0 1 -1-1v-6a1 1 0 0 1 1-1h14a1 1 0 0 1 1 1z"/><path d="m33.8 28.634a5.035 5.035 0 0 0 3.736 2.839 5.226 5.226 0 0 0 .894.078 5.025 5.025 0 0 0 3.57-1.495l3.871-3.871 2.93 2.929-.741.741a1 1 0 0 0 0 1.414l7.24 7.239a5.095 5.095 0 0 0 7.208-7.208l-7.239-7.239a1 1 0 0 0 -1.414 0l-.741.741-2.929-2.93 3.871-3.872a5.1 5.1 0 0 0 -1.422-8.2l-8.206-3.889a1 1 0 1 0 -.856 1.807l8.206 3.887a3.1 3.1 0 0 1 .864 4.985l-3.871 3.871-2.188-2.188a3.122 3.122 0 0 0 -4.31 0 3.048 3.048 0 0 0 0 4.311l2.188 2.188-3.871 3.87a3.1 3.1 0 0 1 -4.985-.864l-9.305-19.648a3.1 3.1 0 0 1 .609-3.513l1.71-1.71a3.094 3.094 0 0 1 3.511-.607l7.442 3.525a1 1 0 1 0 .856-1.807l-7.442-3.527a5.1 5.1 0 0 0 -5.783 1l-1.71 1.709a5.1 5.1 0 0 0 -1 5.783zm27.3 4.083a3.1 3.1 0 1 1 -4.377 4.377l-6.532-6.532 4.377-4.377zm-17.72-12.289a1.047 1.047 0 0 1 1.788-.741l6.532 6.532-1.481 1.481-6.532-6.532a1.039 1.039 0 0 1 -.307-.74z"/><path d="m17 16h-2a1 1 0 0 1 0-2h2a1 1 0 0 1 0 2z" fill="#fff"/><path d="m39 36h-2a1 1 0 0 1 0-2h2a1 1 0 0 1 0 2z" fill="#fff"/></g></svg>