<?xml version="1.0" encoding="UTF-8" standalone="no"?>
<!DOCTYPE svg PUBLIC "-//W3C//DTD SVG 1.1//EN" "http://www.w3.org/Graphics/SVG/1.1/DTD/svg11.dtd">
<!-- Created with Vectornator (http://vectornator.io/) -->
<svg height="100%" stroke-miterlimit="10" style="fill-rule:nonzero;clip-rule:evenodd;stroke-linecap:round;stroke-linejoin:round;" version="1.1" viewBox="0 0 511.995 511.995" width="100%" xml:space="preserve" xmlns="http://www.w3.org/2000/svg" xmlns:vectornator="http://vectornator.io" xmlns:xlink="http://www.w3.org/1999/xlink">
<defs>
<linearGradient gradientTransform="matrix(4.21419 0 0 3.99541 256.445 270.376)" gradientUnits="userSpaceOnUse" id="LinearGradient" x1="14.148" x2="11.257" y1="43.031" y2="25.836">
<stop offset="0" stop-color="#f57900"/>
<stop offset="1" stop-color="#f57900" stop-opacity="0"/>
</linearGradient>
</defs>
<g id="Untitled" vectornator:layerName="Untitled">
<g opacity="1" vectornator:layerName="g">
<g opacity="1" vectornator:layerName="g">
<path d="M93.272 90.356L77.277 100.376L77.277 208.521L104.939 218.356L162.939 218.356L162.939 90.356L93.272 90.356Z" fill="#00c2fb" fill-rule="nonzero" opacity="1" stroke="none" vectornator:layerName="polygon"/>
<path d="M90.606 234.69L77.277 244.993L77.277 353.138L92.272 366.69L162.939 366.69L162.939 234.69L90.606 234.69Z" fill="#00c2fb" fill-rule="nonzero" opacity="1" stroke="none" vectornator:layerName="polygon"/>
<path d="M94.272 377.247L77.277 389.61L77.277 504.495L148.766 504.495L162.939 487.023L162.939 377.247L94.272 377.247Z" fill="#00c2fb" fill-rule="nonzero" opacity="1" stroke="none" vectornator:layerName="polygon"/>
<path d="M162.939 90.356L148.766 100.376L148.766 208.521L162.939 218.356L231.272 218.356L231.272 90.356L162.939 90.356Z" fill="#62ddfc" fill-rule="nonzero" opacity="1" stroke="none" vectornator:layerName="polygon"/>
<path d="M162.939 234.69L148.766 244.894L148.766 353.138L162.939 366.69L236.939 366.69L236.939 234.69L162.939 234.69Z" fill="#62ddfc" fill-rule="nonzero" opacity="1" stroke="none" vectornator:layerName="polygon"/>
<path d="M162.939 403.523L148.766 416.356L148.766 504.495L220.254 504.495L232.606 478.69L232.606 403.523L162.939 403.523Z" fill="#62ddfc" fill-rule="nonzero" opacity="1" stroke="none" vectornator:layerName="polygon"/>
<path d="M235.606 88.023L220.254 100.376L220.254 208.521L238.939 222.356L304.606 222.356L304.606 88.023L235.606 88.023Z" fill="#00c2fb" fill-rule="nonzero" opacity="1" stroke="none" vectornator:layerName="polygon"/>
<path d="M234.939 234.69L220.254 244.993L220.254 353.138L234.272 366.69L304.606 366.69L304.606 234.69L234.939 234.69Z" fill="#00c2fb" fill-rule="nonzero" opacity="1" stroke="none" vectornator:layerName="polygon"/>
<path d="M231.272 377.247L220.254 389.61L220.254 504.495L291.742 504.495L306.606 494.023L306.606 377.247L231.272 377.247Z" fill="#00c2fb" fill-rule="nonzero" opacity="1" stroke="none" vectornator:layerName="polygon"/>
<path d="M307.939 88.023L291.742 100.376L291.742 208.521L304.606 222.356L380.606 222.356L380.606 88.023L307.939 88.023Z" fill="#62ddfc" fill-rule="nonzero" opacity="1" stroke="none" vectornator:layerName="polygon"/>
<path d="M304.606 234.69L291.742 244.894L291.742 353.138L319.272 364.356L376.186 364.356L376.186 234.69L304.606 234.69Z" fill="#62ddfc" fill-rule="nonzero" opacity="1" stroke="none" vectornator:layerName="polygon"/>
<path d="M304.606 403.523L291.742 416.356L291.742 504.495L363.23 504.495L376.186 483.773L376.186 403.523L304.606 403.523Z" fill="#62ddfc" fill-rule="nonzero" opacity="1" stroke="none" vectornator:layerName="polygon"/>
<path d="M434.717 100.376L426.939 92.023C426.939 92.023 371.939 91.773 371.334 92.023C370.729 92.273 363.229 100.376 363.229 100.376L363.229 208.521L376.185 222.357L420.438 222.357L434.717 208.521L434.717 100.376Z" fill="#00c2fb" fill-rule="nonzero" opacity="1" stroke="none" vectornator:layerName="path"/>
<path d="M434.717 244.993L424.939 231.023L371.92 231.023L363.23 244.993L363.23 353.138L376.186 364.356L418.939 364.356L434.718 353.138L434.717 244.993Z" fill="#00c2fb" fill-rule="nonzero" opacity="1" stroke="none" vectornator:layerName="polygon"/>
<path d="M434.717 389.61L421.189 377.247L380.439 377.247L363.23 389.61L363.23 504.495L434.718 504.495L434.717 389.61Z" fill="#00c2fb" fill-rule="nonzero" opacity="1" stroke="none" vectornator:layerName="polygon"/>
<path d="M90.606 51.356L77.277 63.904L77.277 100.376L148.766 100.376L162.272 85.023L162.272 51.356L90.606 51.356Z" fill="#b5dcff" fill-rule="nonzero" opacity="1" stroke="none" vectornator:layerName="polygon"/>
<path d="M434.718 63.904L414.272 53.69L168.939 53.69L148.766 63.904L148.766 100.376L434.718 100.376L434.718 63.904Z" fill="#dbedff" fill-rule="nonzero" opacity="1" stroke="none" vectornator:layerName="polygon"/>
<path d="M148.766 208.521L77.277 208.521L77.277 244.993L148.766 244.993L162.939 232.773L162.939 215.773L148.766 208.521Z" fill="#b5dcff" fill-rule="nonzero" opacity="1" stroke="none" vectornator:layerName="polygon"/>
<path d="M148.766 208.521L434.718 208.521L434.718 208.521L434.718 244.993L434.718 244.993L148.766 244.993L148.766 244.993L148.766 208.521L148.766 208.521Z" fill="#dbedff" fill-rule="nonzero" opacity="1" stroke="none" vectornator:layerName="rect"/>
<path d="M135.81 389.61L77.278 389.61L77.277 353.138L146.579 353.138L155.439 362.773L148.766 384.747L135.81 389.61Z" fill="#b5dcff" fill-rule="nonzero" opacity="1" stroke="none" vectornator:layerName="polygon"/>
<path d="M376.185 389.61L434.718 389.61L434.717 353.138L365.416 353.138L355.939 362.023L359.689 382.273L376.185 389.61Z" fill="#dbedff" fill-rule="nonzero" opacity="1" stroke="none" vectornator:layerName="polygon"/>
<path d="M209.111 416.356L146.579 416.356C140.631 416.356 135.81 411.534 135.81 405.586L135.81 363.906C135.81 357.958 140.632 353.137 146.579 353.137L209.111 353.137L224.106 362.856L224.106 408.023L209.111 416.356Z" fill="#fbc700" fill-rule="nonzero" opacity="1" stroke="none" vectornator:layerName="path"/>
<path d="M130.671 63.904L66.171 63.904C60.864 63.904 56.562 59.602 56.562 54.295L56.562 17.109C56.562 11.802 60.864 7.5 66.17 7.5L130.67 7.5L143.439 18.273L143.439 51.773L130.671 63.904Z" fill="#4d66d2" fill-rule="nonzero" opacity="1" stroke="none" vectornator:layerName="path"/>
<path d="M455.433 17.109C455.433 11.802 451.131 7.5 445.825 7.5L130.671 7.5C125.364 7.5 121.063 11.802 121.063 17.109L121.063 54.296C121.063 59.603 125.365 63.905 130.672 63.905L445.826 63.905C451.133 63.905 455.435 59.603 455.435 54.296L455.433 17.109Z" fill="#6b7ed9" fill-rule="nonzero" opacity="1" stroke="none" vectornator:layerName="path"/>
<path d="M376.185 363.907C376.185 357.959 371.363 353.138 365.416 353.138L209.111 353.138C203.163 353.138 198.341 357.96 198.341 363.907L198.341 405.587C198.341 411.535 203.163 416.357 209.11 416.357L365.415 416.357C371.363 416.357 376.185 411.535 376.185 405.587L376.185 363.907Z" fill="#ffe02f" fill-rule="nonzero" opacity="1" stroke="none" vectornator:layerName="path"/>
</g>
<g opacity="1" vectornator:layerName="g">
<path d="M135.81 363.907C135.81 357.959 140.632 353.138 146.579 353.138L77.277 353.138L77.277 389.61L135.809 389.61L135.81 363.907Z" fill="none" opacity="1" stroke="#000000" stroke-linecap="round" stroke-linejoin="round" stroke-width="15" vectornator:layerName="path"/>
<path d="M376.185 363.907L376.185 389.61L434.717 389.61L434.717 353.138L365.415 353.138C371.364 353.138 376.185 357.959 376.185 363.907Z" fill="none" opacity="1" stroke="#000000" stroke-linecap="round" stroke-linejoin="round" stroke-width="15" vectornator:layerName="path"/>
<path d="M376.186 405.587L376.186 363.907C376.186 357.959 371.364 353.138 365.417 353.138L146.579 353.138C140.631 353.138 135.81 357.96 135.81 363.908L135.81 405.588C135.81 411.536 140.632 416.358 146.579 416.358L365.416 416.358C371.364 416.356 376.186 411.535 376.186 405.587Z" fill="none" opacity="1" stroke="#000000" stroke-linecap="round" stroke-linejoin="round" stroke-width="15" vectornator:layerName="path"/>
<path d="M363.23 419.023L363.23 501.523" fill="none" opacity="1" stroke="#000000" stroke-linecap="round" stroke-linejoin="round" stroke-width="15" vectornator:layerName="line"/>
<path d="M291.742 419.023L291.742 501.523" fill="none" opacity="1" stroke="#000000" stroke-linecap="round" stroke-linejoin="round" stroke-width="15" vectornator:layerName="line"/>
<path d="M220.254 419.023L220.254 501.523" fill="none" opacity="1" stroke="#000000" stroke-linecap="round" stroke-linejoin="round" stroke-width="15" vectornator:layerName="line"/>
<path d="M148.766 419.023L148.766 501.523" fill="none" opacity="1" stroke="#000000" stroke-linecap="round" stroke-linejoin="round" stroke-width="15" vectornator:layerName="line"/>
<path d="M363.23 245.993L363.23 350.273" fill="none" opacity="1" stroke="#000000" stroke-linecap="round" stroke-linejoin="round" stroke-width="15" vectornator:layerName="line"/>
<path d="M291.742 245.993L291.742 350.273" fill="none" opacity="1" stroke="#000000" stroke-linecap="round" stroke-linejoin="round" stroke-width="15" vectornator:layerName="line"/>
<path d="M220.254 245.993L220.254 350.273" fill="none" opacity="1" stroke="#000000" stroke-linecap="round" stroke-linejoin="round" stroke-width="15" vectornator:layerName="line"/>
<path d="M148.766 245.993L148.766 350.273" fill="none" opacity="1" stroke="#000000" stroke-linecap="round" stroke-linejoin="round" stroke-width="15" vectornator:layerName="line"/>
<path d="M363.23 101.808L363.23 206.088" fill="none" opacity="1" stroke="#000000" stroke-linecap="round" stroke-linejoin="round" stroke-width="15" vectornator:layerName="line"/>
<path d="M291.742 101.808L291.742 206.088" fill="none" opacity="1" stroke="#000000" stroke-linecap="round" stroke-linejoin="round" stroke-width="15" vectornator:layerName="line"/>
<path d="M220.254 101.808L220.254 206.088" fill="none" opacity="1" stroke="#000000" stroke-linecap="round" stroke-linejoin="round" stroke-width="15" vectornator:layerName="line"/>
<path d="M148.766 101.808L148.766 206.088" fill="none" opacity="1" stroke="#000000" stroke-linecap="round" stroke-linejoin="round" stroke-width="15" vectornator:layerName="line"/>
<path d="M77.277 208.521L434.717 208.521L434.717 208.521L434.717 244.993L434.717 244.993L77.277 244.993L77.277 244.993L77.277 208.521L77.277 208.521Z" fill="none" opacity="1" stroke="#000000" stroke-linecap="round" stroke-linejoin="round" stroke-width="15" vectornator:layerName="rect"/>
<path d="M77.277 63.904L434.717 63.904L434.717 63.904L434.717 100.376L434.717 100.376L77.277 100.376L77.277 100.376L77.277 63.904L77.277 63.904Z" fill="none" opacity="1" stroke="#000000" stroke-linecap="round" stroke-linejoin="round" stroke-width="15" vectornator:layerName="rect"/>
<path d="M53.998 504.495L457.998 504.495" fill="none" opacity="1" stroke="#000000" stroke-linecap="round" stroke-linejoin="round" stroke-width="15" vectornator:layerName="line"/>
<path d="M174.664 384.747L337.331 384.747" fill="none" opacity="1" stroke="#000000" stroke-linecap="round" stroke-linejoin="round" stroke-width="15" vectornator:layerName="line"/>
<path d="M238.498 7.5L66.171 7.5C60.864 7.5 56.562 11.802 56.562 17.109L56.562 54.296C56.562 59.603 60.864 63.905 66.17 63.905L445.824 63.905C451.131 63.905 455.433 59.603 455.433 54.296L455.433 17.109C455.433 11.802 451.131 7.5 445.824 7.5L273.498 7.5" fill="none" opacity="1" stroke="#000000" stroke-linecap="round" stroke-linejoin="round" stroke-width="15" vectornator:layerName="path"/>
<path d="M434.717 140.404L434.717 63.904L77.277 63.904L77.278 504.495L434.718 504.495L434.717 175.404" fill="none" opacity="1" stroke="#000000" stroke-linecap="round" stroke-linejoin="round" stroke-width="15" vectornator:layerName="polyline"/>
</g>
</g>
<g opacity="1" vectornator:layerName="g4215">
<path d="M326.447 382.253L461.295 382.253C475.709 382.253 487.394 392.53 487.394 405.208L487.394 457.493C487.394 470.171 475.709 480.448 461.295 480.448L326.447 480.448C312.033 480.448 300.347 470.171 300.347 457.493L300.347 405.208C300.347 392.53 312.033 382.253 326.447 382.253Z" fill="#000000" fill-rule="nonzero" opacity="0.94444" stroke="none" vectornator:layerName="rect"/>
<path d="M306.147 369.502L481.595 369.502C484.798 369.502 487.394 371.785 487.394 374.603L487.394 462.596C487.394 465.413 484.798 467.697 481.595 467.697L306.147 467.697C302.944 467.697 300.347 465.413 300.347 462.596L300.347 374.603C300.347 371.785 302.944 369.502 306.147 369.502Z" fill="#000000" fill-rule="nonzero" opacity="0.94444" stroke="none" vectornator:layerName="rect"/>
</g>
<path d="M292.185 350.572L505.739 350.572C509.085 350.572 511.797 352.957 511.797 355.9L511.797 355.9C511.797 358.843 509.085 361.228 505.739 361.228L292.185 361.228C288.839 361.228 286.127 358.843 286.127 355.9L286.127 355.9C286.127 352.957 288.839 350.572 292.185 350.572Z" fill="#000000" fill-rule="nonzero" opacity="0.94444" stroke="none" vectornator:layerName="rect"/>
<path d="M364.835 354.902C364.86 358.752 362.287 362.317 358.09 364.248C353.894 366.178 348.717 366.178 344.52 364.248C340.324 362.317 337.751 358.752 337.776 354.902C337.751 351.053 340.324 347.487 344.52 345.556C348.717 343.626 353.894 343.626 358.09 345.556C362.287 347.487 364.86 351.053 364.835 354.902Z" fill="#000000" fill-rule="nonzero" opacity="0.94444" stroke="none" vectornator:layerName="path"/>
<path d="M437.43 354.902C437.455 358.752 434.882 362.317 430.685 364.248C426.489 366.178 421.312 366.178 417.116 364.248C412.919 362.317 410.346 358.752 410.371 354.902C410.346 351.053 412.919 347.487 417.116 345.556C421.312 343.626 426.489 343.626 430.685 345.556C434.882 347.487 437.455 351.053 437.43 354.902Z" fill="#000000" fill-rule="nonzero" opacity="0.94444" stroke="none" vectornator:layerName="path"/>
<g opacity="1" vectornator:layerName="g2179">
<path d="M326.447 382.253L461.295 382.253C475.709 382.253 487.394 392.53 487.394 405.208L487.394 457.493C487.394 470.171 475.709 480.448 461.295 480.448L326.447 480.448C312.033 480.448 300.347 470.171 300.347 457.493L300.347 405.208C300.347 392.53 312.033 382.253 326.447 382.253Z" fill="#000000" fill-rule="nonzero" opacity="0.94444" stroke="none" vectornator:layerName="rect"/>
<path d="M306.147 369.502L481.595 369.502C484.798 369.502 487.394 371.785 487.394 374.603L487.394 462.596C487.394 465.413 484.798 467.697 481.595 467.697L306.147 467.697C302.944 467.697 300.347 465.413 300.347 462.596L300.347 374.603C300.347 371.785 302.944 369.502 306.147 369.502Z" fill="#000000" fill-rule="nonzero" opacity="0.94444" stroke="none" vectornator:layerName="rect"/>
</g>
<g opacity="1" vectornator:layerName="text4277">
<path d="M328.124 449.766L328.124 408.367L349.848 408.367C354.385 408.367 357.734 408.753 359.895 409.524C362.055 410.296 363.828 411.581 365.214 413.379C366.599 415.177 367.292 417.262 367.292 419.634C367.292 422.76 366.117 425.292 363.767 427.231C361.416 429.17 357.999 430.403 353.516 430.93C355.336 431.683 356.722 432.446 357.673 433.218C359.602 434.799 361.301 436.559 362.768 438.498L371.327 449.766L363.176 449.766L356.654 441.153C354.127 437.783 352.218 435.514 350.928 434.347C349.637 433.18 348.387 432.394 347.178 431.989C345.969 431.585 344.278 431.382 342.104 431.382L334.605 431.382L334.605 449.766L328.124 449.766ZM334.604 426.638L348.544 426.638C351.587 426.638 353.897 426.384 355.472 425.875C357.048 425.367 358.298 424.567 359.222 423.475C360.146 422.383 360.608 421.112 360.608 419.663C360.608 417.573 359.725 415.93 357.959 414.735C356.192 413.539 353.571 412.942 350.092 412.942L334.604 412.942L334.604 426.638Z" fill="#000000" fill-rule="nonzero" opacity="1" stroke="none" vectornator:layerName="path"/>
<path d="M400.958 440.109L407.154 440.758C406.121 443.959 404.253 446.373 401.549 448.002C398.846 449.63 395.497 450.444 391.502 450.444C386.475 450.444 382.406 449.122 379.295 446.477C376.184 443.832 374.628 440.014 374.628 435.025C374.628 429.848 376.198 425.899 379.336 423.179C382.475 420.459 386.448 419.098 391.258 419.098C395.85 419.098 399.681 420.435 402.752 423.108C405.822 425.782 407.358 429.651 407.358 434.715L407.317 436.071L380.824 436.071C381.069 439.441 382.196 441.982 384.207 443.695C386.218 445.409 388.663 446.265 391.543 446.265C396.054 446.265 399.192 444.213 400.959 440.109L400.958 440.109ZM381.191 431.891L400.999 431.891C400.727 429.293 399.926 427.354 398.595 426.074C396.665 424.21 394.206 423.278 391.217 423.278C388.527 423.278 386.231 424.054 384.329 425.608C382.427 427.161 381.381 429.255 381.191 431.891L381.191 431.891Z" fill="#000000" fill-rule="nonzero" opacity="1" stroke="none" vectornator:layerName="path"/>
<path d="M414.816 449.766L414.816 419.776L420.237 419.776L420.237 424.04C421.541 422.384 423.138 421.146 425.026 420.327C426.914 419.508 429.082 419.098 431.527 419.098C433.429 419.098 435.188 419.357 436.805 419.875C438.422 420.393 439.726 421.071 440.718 421.908C441.71 422.746 442.45 423.833 442.939 425.17C443.428 426.507 443.673 428.559 443.673 431.326L443.673 449.767L437.641 449.767L437.641 431.524C437.641 429.321 437.369 427.712 436.826 426.695C436.282 425.678 435.433 424.892 434.278 424.337C433.123 423.781 431.785 423.504 430.264 423.504C427.383 423.504 425.087 424.247 423.376 425.735C421.664 427.222 420.808 429.773 420.808 433.388L420.808 449.767L414.816 449.766Z" fill="#000000" fill-rule="nonzero" opacity="1" stroke="none" vectornator:layerName="path"/>
<path d="M466.377 445.221L467.192 449.711C465.534 450.012 464.04 450.163 462.708 450.163C460.616 450.163 458.931 449.875 457.654 449.301C456.377 448.727 455.501 447.941 455.026 446.943C454.55 445.945 454.312 443.959 454.312 440.985L454.312 423.73L449.91 423.73L449.91 419.777L454.312 419.777L454.312 412.349L460.304 409.299L460.304 419.776L466.377 419.776L466.377 423.73L460.304 423.73L460.304 441.267C460.304 442.886 460.48 443.931 460.833 444.401C461.35 445.079 462.314 445.418 463.727 445.418C464.407 445.418 465.29 445.352 466.377 445.221Z" fill="#000000" fill-rule="nonzero" opacity="1" stroke="none" vectornator:layerName="path"/>
</g>
<path d="M305.594 370.21C303.24 370.61 301.463 372.409 301.463 374.497L301.463 448.735C301.463 449.656 302.004 450.545 302.59 451.244L302.59 454.799C302.59 466.415 313.721 475.711 327.63 475.711L457.337 475.711C471.246 475.711 482.502 466.414 482.502 454.799L482.502 407.017C482.502 404.991 482.137 403.012 481.501 401.162L481.501 374.499C481.501 372.113 479.1 370.212 476.243 370.212L306.721 370.212C306.364 370.212 305.931 370.155 305.594 370.212L305.594 370.21Z" fill="#fcaf3e" fill-rule="nonzero" opacity="1" stroke="#b3570b" stroke-linecap="butt" stroke-linejoin="miter" stroke-width="1" vectornator:layerName="path"/>
<path d="M287.147 345.769L500.701 345.769C504.047 345.769 506.759 348.155 506.759 351.097L506.759 351.098C506.759 354.04 504.047 356.426 500.701 356.426L287.147 356.426C283.801 356.426 281.089 354.04 281.089 351.098L281.089 351.097C281.089 348.155 283.801 345.769 287.147 345.769Z" fill="#2e3436" fill-rule="nonzero" opacity="0.94444" stroke="none" vectornator:layerName="rect"/>
<path d="M360.444 350.714C360.469 354.563 357.896 358.129 353.7 360.06C349.503 361.99 344.326 361.99 340.13 360.06C335.933 358.129 333.36 354.563 333.385 350.714C333.36 346.864 335.933 343.299 340.13 341.368C344.326 339.437 349.503 339.437 353.7 341.368C357.896 343.299 360.469 346.864 360.444 350.714Z" fill="#888a85" fill-rule="nonzero" opacity="0.94444" stroke="none" vectornator:layerName="path"/>
<path d="M433.04 350.714C433.065 354.563 430.492 358.129 426.295 360.06C422.099 361.99 416.922 361.99 412.726 360.06C408.529 358.129 405.956 354.563 405.981 350.714C405.956 346.864 408.529 343.299 412.726 341.368C416.922 339.437 422.099 339.437 426.295 341.368C430.492 343.299 433.065 346.864 433.04 350.714Z" fill="#888a85" fill-rule="nonzero" opacity="0.94444" stroke="none" vectornator:layerName="path"/>
<path d="M309.392 375.099C307.141 375.466 305.442 377.113 305.442 379.026L305.442 447.032C305.442 447.876 305.959 448.691 306.519 449.331L306.519 452.588C306.519 463.228 317.162 471.744 330.459 471.744L454.466 471.744C467.763 471.744 478.526 463.228 478.526 452.588L478.526 408.814C478.526 406.958 478.176 405.145 477.568 403.45L477.568 379.026C477.568 376.839 475.273 375.099 472.54 375.099L310.467 375.099C310.125 375.099 309.711 375.046 309.389 375.099L309.392 375.099Z" fill="url(#LinearGradient)" fill-rule="nonzero" opacity="1" stroke="#ce5c00" stroke-dasharray="0.6256055235862732,0.3128027617931366" stroke-linecap="butt" stroke-linejoin="miter" stroke-width="0.312799" vectornator:layerName="path"/>
<g opacity="1" vectornator:layerName="text2193">
<path d="M333.692 399.783L333.692 385.73L330.936 385.73L330.936 383.596L333.692 383.596L333.692 381.874C333.692 380.786 333.802 379.978 334.021 379.45C334.322 378.739 334.85 378.162 335.607 377.72C336.364 377.278 337.424 377.057 338.787 377.057C339.665 377.057 340.635 377.149 341.698 377.331L341.23 379.724C340.583 379.623 339.971 379.572 339.393 379.572C338.446 379.572 337.776 379.75 337.383 380.105C336.99 380.461 336.794 381.127 336.794 382.102L336.794 383.596L340.381 383.596L340.381 385.73L336.794 385.73L336.794 399.783L333.692 399.783Z" fill="#8f5902" fill-rule="nonzero" opacity="1" stroke="none" vectornator:layerName="path"/>
<path d="M341.626 391.687C341.626 388.69 342.574 386.469 344.468 385.026C346.051 383.827 347.981 383.228 350.257 383.228C352.787 383.228 354.855 383.957 356.461 385.415C358.067 386.873 358.87 388.888 358.87 391.459C358.87 393.542 358.514 395.18 357.804 396.374C357.093 397.568 356.059 398.495 354.702 399.156C353.344 399.816 351.863 400.146 350.256 400.146C347.68 400.146 345.597 399.42 344.009 397.967C342.422 396.516 341.627 394.421 341.627 391.688L341.626 391.687ZM344.832 391.687C344.832 393.76 345.346 395.312 346.375 396.343C347.403 397.375 348.697 397.89 350.257 397.89C351.805 397.89 353.093 397.372 354.121 396.336C355.149 395.299 355.664 393.719 355.664 391.596C355.664 389.594 355.147 388.077 354.113 387.046C353.079 386.015 351.793 385.499 350.257 385.499C348.697 385.499 347.403 386.012 346.375 387.038C345.346 388.065 344.832 389.614 344.832 391.687Z" fill="#8f5902" fill-rule="nonzero" opacity="1" stroke="none" vectornator:layerName="path"/>
<path d="M362.51 399.783L362.51 383.596L365.317 383.596L365.317 386.05C366.034 384.902 366.695 384.145 367.302 383.779C367.908 383.413 368.575 383.23 369.303 383.23C370.355 383.23 371.423 383.525 372.509 384.114L371.435 386.66C370.672 386.263 369.91 386.065 369.147 386.065C368.466 386.065 367.853 386.245 367.31 386.606C366.767 386.967 366.38 387.467 366.149 388.107C365.803 389.083 365.629 390.15 365.629 391.308L365.629 399.783L362.51 399.783Z" fill="#8f5902" fill-rule="nonzero" opacity="1" stroke="none" vectornator:layerName="path"/>
</g>
<g opacity="1" vectornator:layerName="text2197">
<path d="M326.007 448.174L326.007 406.775L347.731 406.775C352.269 406.775 355.618 407.161 357.778 407.933C359.938 408.705 361.711 409.989 363.097 411.787C364.483 413.585 365.176 415.67 365.176 418.043C365.176 421.168 364.001 423.7 361.651 425.639C359.3 427.578 355.883 428.811 351.4 429.338C353.22 430.091 354.606 430.854 355.557 431.626C357.486 433.207 359.184 434.967 360.652 436.907L369.211 448.174L361.06 448.174L354.538 439.561C352.011 436.191 350.102 433.923 348.812 432.756C347.521 431.588 346.271 430.802 345.062 430.397C343.853 429.993 342.161 429.79 339.988 429.79L332.488 429.79L332.488 448.174L326.007 448.174ZM332.488 425.046L346.427 425.046C349.471 425.046 351.78 424.792 353.356 424.284C354.932 423.775 356.182 422.975 357.106 421.883C358.03 420.791 358.492 419.521 358.492 418.071C358.492 415.981 357.609 414.339 355.842 413.143C354.076 411.948 351.454 411.35 347.976 411.35L332.488 411.35L332.488 425.046Z" fill="#000000" fill-rule="nonzero" opacity="1" stroke="none" vectornator:layerName="path"/>
<path d="M398.842 438.514L405.037 439.164C404.005 442.364 402.137 444.779 399.433 446.407C396.729 448.036 393.38 448.85 389.386 448.85C384.359 448.85 380.29 447.527 377.179 444.882C374.068 442.237 372.512 438.42 372.512 433.431C372.512 428.254 374.081 424.305 377.22 421.585C380.358 418.864 384.332 417.504 389.142 417.504C393.734 417.504 397.565 418.841 400.636 421.514C403.706 424.187 405.241 428.056 405.241 433.121L405.201 434.476L378.708 434.476C378.953 437.846 380.08 440.388 382.091 442.101C384.102 443.814 386.547 444.671 389.427 444.671C393.938 444.671 397.076 442.619 398.842 438.515L398.842 438.514ZM379.074 430.297L398.883 430.297C398.611 427.699 397.81 425.759 396.478 424.479C394.549 422.615 392.09 421.683 389.101 421.683C386.411 421.683 384.115 422.46 382.213 424.013C380.311 425.566 379.265 427.661 379.075 430.296L379.074 430.297Z" fill="#000000" fill-rule="nonzero" opacity="1" stroke="none" vectornator:layerName="path"/>
<path d="M412.704 448.174L412.704 418.184L418.125 418.184L418.125 422.448C419.429 420.792 421.025 419.554 422.914 418.735C424.802 417.916 426.969 417.507 429.415 417.507C431.317 417.507 433.076 417.766 434.693 418.283C436.31 418.801 437.614 419.479 438.606 420.316C439.597 421.154 440.338 422.242 440.827 423.578C441.316 424.915 441.561 426.967 441.561 429.734L441.561 448.175L435.528 448.175L435.528 429.932C435.528 427.729 435.257 426.12 434.713 425.103C434.17 424.086 433.321 423.3 432.166 422.745C431.011 422.19 429.673 421.912 428.151 421.912C425.271 421.912 422.975 422.656 421.263 424.143C419.551 425.63 418.696 428.181 418.696 431.796L418.696 448.175L412.704 448.174Z" fill="#000000" fill-rule="nonzero" opacity="1" stroke="none" vectornator:layerName="path"/>
<path d="M464.26 443.626L465.076 448.116C463.418 448.417 461.924 448.568 460.592 448.568C458.5 448.568 456.815 448.281 455.538 447.707C454.262 447.133 453.387 446.347 452.909 445.348C452.434 444.351 452.196 442.364 452.196 439.39L452.196 422.135L447.794 422.135L447.794 418.182L452.196 418.182L452.196 410.755L458.187 407.705L458.187 418.182L464.26 418.182L464.26 422.135L458.187 422.135L458.187 439.672C458.187 441.291 458.364 442.336 458.717 442.807C459.234 443.484 460.198 443.823 461.611 443.823C462.29 443.823 463.173 443.757 464.26 443.626L464.26 443.626Z" fill="#000000" fill-rule="nonzero" opacity="1" stroke="none" vectornator:layerName="path"/>
</g>
<g opacity="1" vectornator:layerName="text3266">
<path d="M321.347 444.67L321.347 403.271L343.071 403.271C347.609 403.271 350.958 403.657 353.118 404.429C355.278 405.2 357.051 406.485 358.437 408.283C359.823 410.081 360.516 412.166 360.516 414.539C360.516 417.664 359.341 420.196 356.99 422.135C354.64 424.074 351.223 425.307 346.739 425.834C348.56 426.587 349.946 427.35 350.897 428.122C352.826 429.703 354.524 431.463 355.991 433.403L364.551 444.67L356.399 444.67L349.878 436.057C347.351 432.687 345.442 430.419 344.151 429.251C342.861 428.084 341.611 427.298 340.402 426.893C339.192 426.489 337.501 426.286 335.327 426.286L327.828 426.286L327.828 444.67L321.347 444.67ZM327.828 421.542L341.767 421.542C344.81 421.542 347.12 421.288 348.696 420.78C350.272 420.271 351.522 419.471 352.446 418.379C353.369 417.287 353.831 416.016 353.831 414.567C353.831 412.477 352.948 410.834 351.182 409.639C349.416 408.444 346.794 407.846 343.316 407.846L327.828 407.846L327.828 421.542Z" fill="#ce5c00" fill-rule="nonzero" opacity="1" stroke="none" vectornator:layerName="path"/>
<path d="M394.182 435.013L400.377 435.662C399.345 438.863 397.476 441.277 394.773 442.906C392.069 444.534 388.72 445.349 384.726 445.349C379.699 445.349 375.63 444.026 372.519 441.381C369.408 438.736 367.852 434.919 367.852 429.93C367.852 424.752 369.421 420.804 372.56 418.083C375.698 415.363 379.672 414.002 384.481 414.002C389.074 414.002 392.905 415.339 395.975 418.013C399.046 420.686 400.581 424.555 400.581 429.619L400.54 430.975L374.048 430.975C374.292 434.345 375.42 436.886 377.431 438.6C379.441 440.313 381.887 441.169 384.767 441.169C389.278 441.169 392.416 439.117 394.182 435.013L394.182 435.013ZM374.414 426.795L394.223 426.795C393.951 424.197 393.149 422.258 391.818 420.978C389.889 419.114 387.43 418.182 384.441 418.182C381.751 418.182 379.455 418.959 377.553 420.512C375.651 422.065 374.605 424.159 374.414 426.795L374.414 426.795Z" fill="#ce5c00" fill-rule="nonzero" opacity="1" stroke="none" vectornator:layerName="path"/>
<path d="M408.039 444.67L408.039 414.68L413.46 414.68L413.46 418.944C414.765 417.288 416.361 416.05 418.249 415.231C420.138 414.412 422.305 414.003 424.75 414.003C426.652 414.003 428.412 414.261 430.029 414.779C431.645 415.297 432.95 415.975 433.942 416.812C434.933 417.65 435.674 418.737 436.163 420.074C436.652 421.411 436.896 423.463 436.896 426.23L436.896 444.671L430.864 444.671L430.864 426.428C430.864 424.225 430.593 422.616 430.049 421.599C429.506 420.582 428.657 419.796 427.502 419.241C426.347 418.686 425.009 418.408 423.487 418.408C420.607 418.408 418.311 419.152 416.599 420.639C414.887 422.126 414.031 424.677 414.031 428.292L414.031 444.671L408.039 444.67Z" fill="#ce5c00" fill-rule="nonzero" opacity="1" stroke="none" vectornator:layerName="path"/>
<path d="M459.6 440.122L460.415 444.612C458.758 444.913 457.263 445.064 455.932 445.064C453.84 445.064 452.155 444.777 450.878 444.203C449.601 443.629 448.724 442.842 448.249 441.845C447.773 440.847 447.536 438.861 447.536 435.886L447.536 418.632L443.134 418.632L443.134 414.678L447.536 414.678L447.536 407.251L453.527 404.201L453.527 414.678L459.6 414.678L459.6 418.631L453.527 418.631L453.527 436.168C453.527 437.787 453.704 438.832 454.057 439.303C454.573 439.981 455.538 440.32 456.951 440.32C457.63 440.32 458.513 440.254 459.6 440.122Z" fill="#ce5c00" fill-rule="nonzero" opacity="1" stroke="none" vectornator:layerName="path"/>
</g>
<g opacity="1" vectornator:layerName="text3274">
<path d="M334.183 399.01L334.183 384.957L331.428 384.957L331.428 382.823L334.183 382.823L334.183 381.101C334.183 380.013 334.293 379.206 334.513 378.677C334.813 377.966 335.342 377.389 336.098 376.947C336.855 376.505 337.915 376.284 339.278 376.284C340.156 376.284 341.127 376.376 342.19 376.559L341.722 378.952C341.075 378.85 340.463 378.799 339.885 378.799C338.938 378.799 338.267 378.977 337.875 379.333C337.482 379.688 337.285 380.354 337.285 381.329L337.285 382.823L340.873 382.823L340.873 384.957L337.285 384.957L337.285 399.01L334.183 399.01Z" fill="#ffffff" fill-rule="nonzero" opacity="1" stroke="none" vectornator:layerName="path"/>
<path d="M342.122 390.918C342.122 387.92 343.069 385.7 344.964 384.257C346.547 383.058 348.476 382.459 350.752 382.459C353.282 382.459 355.35 383.188 356.956 384.646C358.562 386.104 359.365 388.118 359.365 390.689C359.365 392.772 359.01 394.411 358.3 395.605C357.589 396.799 356.555 397.726 355.197 398.386C353.84 399.047 352.358 399.377 350.752 399.377C348.176 399.377 346.093 398.651 344.505 397.198C342.916 395.745 342.122 393.651 342.122 390.918ZM345.328 390.918C345.328 392.991 345.842 394.543 346.87 395.574C347.899 396.605 349.193 397.121 350.752 397.121C352.3 397.121 353.589 396.603 354.617 395.566C355.645 394.53 356.159 392.95 356.159 390.826C356.159 388.825 355.642 387.308 354.608 386.277C353.574 385.245 352.289 384.73 350.752 384.73C349.193 384.73 347.899 385.243 346.87 386.269C345.842 387.295 345.328 388.845 345.328 390.918Z" fill="#ffffff" fill-rule="nonzero" opacity="1" stroke="none" vectornator:layerName="path"/>
<path d="M363.005 399.01L363.005 382.823L365.813 382.823L365.813 385.277C366.529 384.129 367.191 383.372 367.797 383.006C368.404 382.64 369.071 382.457 369.799 382.457C370.85 382.457 371.919 382.752 373.005 383.341L371.93 385.887C371.168 385.49 370.405 385.292 369.643 385.292C368.961 385.292 368.349 385.473 367.806 385.833C367.263 386.194 366.876 386.694 366.645 387.335C366.298 388.31 366.125 389.377 366.125 390.535L366.125 399.01L363.005 399.01Z" fill="#ffffff" fill-rule="nonzero" opacity="1" stroke="none" vectornator:layerName="path"/>
</g>
<g opacity="1" vectornator:layerName="text3278">
<path d="M322.572 446.513L322.572 405.114L344.296 405.114C348.834 405.114 352.184 405.5 354.344 406.271C356.504 407.043 358.277 408.328 359.663 410.126C361.049 411.924 361.742 414.009 361.742 416.381C361.742 419.507 360.566 422.039 358.216 423.978C355.865 425.917 352.448 427.15 347.965 427.677C349.786 428.43 351.171 429.193 352.122 429.965C354.052 431.546 355.75 433.306 357.217 435.246L365.777 446.513L357.625 446.513L351.104 437.9C348.584 434.535 346.674 432.266 345.383 431.098C344.093 429.931 342.84 429.144 341.634 428.741C340.423 428.335 338.729 428.133 336.556 428.133L329.056 428.133L329.056 446.517L322.572 446.513ZM329.052 423.384L342.992 423.384C346.036 423.385 348.345 423.13 349.922 422.622C351.498 422.114 352.748 421.314 353.672 420.222C354.595 419.13 355.057 417.859 355.057 416.409C355.057 414.319 354.174 412.677 352.408 411.481C350.642 410.286 348.019 409.688 344.541 409.688L329.053 409.688L329.052 423.384Z" fill="#ffffff" fill-rule="nonzero" opacity="1" stroke="none" vectornator:layerName="path"/>
<path d="M395.408 436.856L401.603 437.506C400.571 440.707 398.703 443.121 395.999 444.75C393.295 446.378 389.946 447.192 385.952 447.192C380.925 447.192 376.856 445.87 373.744 443.225C370.633 440.58 369.077 436.762 369.077 431.774C369.077 426.596 370.647 422.647 373.785 419.927C376.924 417.206 380.898 415.846 385.707 415.846C390.299 415.846 394.131 417.183 397.201 419.856C400.272 422.53 401.807 426.399 401.807 431.463L401.766 432.819L375.272 432.819C375.517 436.189 376.644 438.73 378.655 440.443C380.666 442.157 383.112 443.013 385.992 443.013C390.503 443.013 393.641 440.961 395.408 436.857L395.408 436.856ZM375.64 428.639L395.449 428.639C395.177 426.041 394.375 424.101 393.044 422.821C391.115 420.958 388.656 420.026 385.667 420.026C382.976 420.026 380.681 420.802 378.778 422.355C376.876 423.909 375.83 426.003 375.64 428.639Z" fill="#ffffff" fill-rule="nonzero" opacity="1" stroke="none" vectornator:layerName="path"/>
<path d="M409.266 446.513L409.266 416.522L414.687 416.522L414.687 420.786C415.991 419.13 417.587 417.892 419.476 417.073C421.365 416.254 423.532 415.844 425.978 415.844C427.88 415.844 429.639 416.103 431.256 416.621C432.873 417.139 434.177 417.816 435.169 418.654C436.161 419.492 436.901 420.579 437.39 421.916C437.879 423.253 438.124 425.305 438.124 428.072L438.124 446.513L432.091 446.513L432.091 428.27C432.091 426.067 431.82 424.457 431.276 423.441C430.733 422.424 429.884 421.638 428.729 421.083C427.574 420.528 426.236 420.25 424.714 420.25C421.834 420.25 419.537 420.994 417.825 422.481C416.114 423.968 415.258 426.519 415.258 430.134L415.258 446.513L409.266 446.513Z" fill="#ffffff" fill-rule="nonzero" opacity="1" stroke="none" vectornator:layerName="path"/>
<path d="M460.83 441.968L461.645 446.458C459.987 446.759 458.493 446.91 457.161 446.91C455.069 446.91 453.384 446.622 452.107 446.048C450.83 445.474 449.954 444.688 449.478 443.69C449.003 442.692 448.765 440.706 448.765 437.731L448.765 420.477L444.363 420.477L444.363 416.523L448.765 416.523L448.765 409.096L454.757 406.046L454.757 416.523L460.83 416.523L460.83 420.477L454.757 420.477L454.757 438.014C454.757 439.633 454.933 440.678 455.287 441.149C455.803 441.827 456.767 442.165 458.18 442.165C458.86 442.165 459.743 442.099 460.83 441.968Z" fill="#ffffff" fill-rule="nonzero" opacity="1" stroke="none" vectornator:layerName="path"/>
</g>
</g>
</svg>
