<?xml version="1.0" encoding="UTF-8" standalone="no"?>
<!-- Created with Inkscape (http://www.inkscape.org/) -->

<svg
   xmlns:dc="http://purl.org/dc/elements/1.1/"
   xmlns:cc="http://creativecommons.org/ns#"
   xmlns:rdf="http://www.w3.org/1999/02/22-rdf-syntax-ns#"
   xmlns:svg="http://www.w3.org/2000/svg"
   xmlns="http://www.w3.org/2000/svg"
   xmlns:sodipodi="http://sodipodi.sourceforge.net/DTD/sodipodi-0.dtd"
   xmlns:inkscape="http://www.inkscape.org/namespaces/inkscape"
   width="162.85797mm"
   height="83.367569mm"
   viewBox="0 0 162.85797 83.367569"
   version="1.1"
   id="svg8"
   inkscape:version="0.92.1 r15371"
   sodipodi:docname="FX13_truck.svg">
  <defs
     id="defs2" />
  <sodipodi:namedview
     id="base"
     pagecolor="#ffffff"
     bordercolor="#666666"
     borderopacity="1.0"
     inkscape:pageopacity="0.0"
     inkscape:pageshadow="2"
     inkscape:zoom="1.4"
     inkscape:cx="170.33001"
     inkscape:cy="195.0427"
     inkscape:document-units="mm"
     inkscape:current-layer="layer1"
     showgrid="false"
     inkscape:window-width="1920"
     inkscape:window-height="1016"
     inkscape:window-x="0"
     inkscape:window-y="27"
     inkscape:window-maximized="1"
     fit-margin-top="0"
     fit-margin-left="0"
     fit-margin-right="0"
     fit-margin-bottom="0" />
  <metadata
     id="metadata5">
    <rdf:RDF>
      <cc:Work
         rdf:about="">
        <dc:format>image/svg+xml</dc:format>
        <dc:type
           rdf:resource="http://purl.org/dc/dcmitype/StillImage" />
        <dc:title></dc:title>
      </cc:Work>
    </rdf:RDF>
  </metadata>
  <g
     inkscape:label="Layer 1"
     inkscape:groupmode="layer"
     id="layer1"
     transform="translate(17.276968,-90.153908)">
    <g
       id="g4656"
       transform="translate(-25.891369,3.5907738)">
      <path
         sodipodi:nodetypes="ccssscc"
         inkscape:connector-curvature="0"
         id="path4637"
         d="m 49.444864,86.658882 c 8.552624,0.935442 16.437075,4.009041 16.437075,4.009041 0,0 5.746295,40.892237 1.336347,44.099467 -4.409948,3.20723 -30.735995,7.75082 -33.141422,2.40543 -2.405425,-5.34539 -7.483547,-24.5888 -6.681737,-27.6624 0.801809,-3.0736 4.276312,-17.639783 4.276312,-17.639783 2.940306,-5.462897 12.536306,-5.503945 17.773425,-5.211755 z"
         style="fill:#c8b7b7;stroke:none;stroke-width:0.26458332px;stroke-linecap:butt;stroke-linejoin:miter;stroke-opacity:1" />
      <path
         sodipodi:nodetypes="ccssscc"
         inkscape:connector-curvature="0"
         id="path4637-6"
         d="m 49.106828,93.288518 c 6.40824,0.7009 12.315835,3.00386 12.315835,3.00386 0,0 4.305536,30.639392 1.001287,33.042482 -3.304249,2.40308 -23.02961,5.80747 -24.831928,1.80232 -1.802317,-4.00515 -5.607209,-18.42369 -5.006436,-20.72665 0.600773,-2.30297 3.204119,-13.216992 3.204119,-13.216992 2.203088,-4.093194 9.393099,-4.12395 13.317123,-3.90502 z"
         style="fill:#d2c4c4;fill-opacity:1;stroke:none;stroke-width:0.26458332px;stroke-linecap:butt;stroke-linejoin:miter;stroke-opacity:1" />
    </g>
    <path
       style="fill:#007897;fill-opacity:1;stroke:none;stroke-width:0.26458332px;stroke-linecap:butt;stroke-linejoin:miter;stroke-opacity:1"
       d="m 35.68048,151.71567 c 4.276315,5.44835 0,8.87302 9.888974,9.9627 9.888971,1.08966 31.270535,4.98134 37.417735,0 6.147196,-4.98136 14.66739,-3.77012 15.50163,-8.71737 C 102.89877,126.80893 68.821902,131.16762 59.868373,131.63461 45.382329,123.50874 35.68048,151.71567 35.68048,151.71567 Z"
       id="path4541"
       inkscape:connector-curvature="0"
       sodipodi:nodetypes="cscscc" />
    <path
       style="fill:#2ad4ff;stroke:none;stroke-width:0.26458332px;stroke-linecap:butt;stroke-linejoin:miter;stroke-opacity:1"
       d="m 111.8523,95.478776 c 10.82441,6.414464 36.74956,47.841244 30.60236,54.122074 -6.1472,6.28084 -62.674708,4.94449 -63.07561,2.6727 -0.400905,-2.27179 -1.469983,-55.458427 0.668173,-58.799297 7.8898,-6.275599 26.608317,-0.897725 31.805077,2.004523 z"
       id="path4485"
       inkscape:connector-curvature="0"
       sodipodi:nodetypes="csccc" />
    <path
       style="fill:#2ad4ff;stroke:none;stroke-width:0.26458332px;stroke-linecap:butt;stroke-linejoin:miter;stroke-opacity:1"
       d="m -13.76438,123.05779 c 27.261491,-0.22451 74.568196,-2.58187 83.120823,0.2245 8.552624,2.80638 8.285355,20.34487 5.87993,24.27381 -2.405428,3.92892 -76.03818156,7.04538 -82.7199196,3.22871 -6.6817384,-3.81668 -10.6907814,-18.85887 -9.6217034,-22.33878 1.069078,-3.47991 2.672696,-5.05148 3.34087,-5.38824 z"
       id="path4487"
       inkscape:connector-curvature="0"
       sodipodi:nodetypes="ccccsc" />
    <ellipse
       style="opacity:1;fill:#007897;fill-opacity:1;stroke:none;stroke-width:1.28899992;stroke-linecap:round;stroke-linejoin:round;stroke-miterlimit:4;stroke-dasharray:none;stroke-opacity:1"
       id="path4489"
       cx="19.577494"
       cy="160.09119"
       rx="13.964833"
       ry="13.430294" />
    <ellipse
       style="opacity:1;fill:#00aedb;fill-opacity:1;stroke:none;stroke-width:1.28899992;stroke-linecap:round;stroke-linejoin:round;stroke-miterlimit:4;stroke-dasharray:none;stroke-opacity:1"
       id="path4489-3"
       cx="19.577494"
       cy="160.09119"
       rx="9.0203466"
       ry="8.6750708" />
    <ellipse
       style="opacity:1;fill:#007897;fill-opacity:1;stroke:none;stroke-width:1.28899992;stroke-linecap:round;stroke-linejoin:round;stroke-miterlimit:4;stroke-dasharray:none;stroke-opacity:1"
       id="path4489-6"
       cx="107.10827"
       cy="160.09119"
       rx="13.964833"
       ry="13.430294" />
    <ellipse
       style="opacity:1;fill:#00aedb;fill-opacity:1;stroke:none;stroke-width:1.28899992;stroke-linecap:round;stroke-linejoin:round;stroke-miterlimit:4;stroke-dasharray:none;stroke-opacity:1"
       id="path4489-3-7"
       cx="107.10827"
       cy="160.09119"
       rx="9.0203466"
       ry="8.6750708" />
    <path
       style="fill:#00b1dd;fill-opacity:1;stroke:none;stroke-width:0.26458332px;stroke-linecap:butt;stroke-linejoin:miter;stroke-opacity:1"
       d="m 1.7372519,157.75257 c 5.6126601,0.80181 8.018086,-8.41899 16.3034421,-8.55262 9.488068,-0.26727 10.69078,6.81537 16.83798,8.81989 6.147199,2.00453 5.746295,-1.46998 4.81085,-5.34539 -0.935442,-3.8754 -9.621702,-10.82441 -18.441597,-11.22532 -8.718278,-0.39629 -19.9115793,5.07812 -21.38156175,9.6217 -1.46998235,4.54359 1.87088665,6.68174 1.87088665,6.68174 z"
       id="path4524"
       inkscape:connector-curvature="0"
       sodipodi:nodetypes="cccsssc" />
    <path
       style="fill:#00b1dd;fill-opacity:1;stroke:none;stroke-width:0.26458332px;stroke-linecap:butt;stroke-linejoin:miter;stroke-opacity:1"
       d="m 89.134387,157.75257 c 5.612661,0.80181 8.018086,-8.41899 16.303443,-8.55262 9.48807,-0.26727 10.69078,6.81537 16.83798,8.81989 6.1472,2.00453 5.74629,-1.46998 4.81085,-5.34539 -0.93544,-3.8754 -8.9709,-8.56958 -18.97614,-9.6217 -8.67942,-0.9127 -19.377037,3.4745 -20.847019,8.01808 -1.469983,4.54359 1.870886,6.68174 1.870886,6.68174 z"
       id="path4524-5"
       inkscape:connector-curvature="0"
       sodipodi:nodetypes="cccsssc" />
    <path
       style="fill:#abe0ff;fill-opacity:1;stroke:none;stroke-width:0.26458332px;stroke-linecap:butt;stroke-linejoin:miter;stroke-opacity:1"
       d="m 89.802561,99.086912 c 2.80633,-0.400902 12.962569,-3.207234 18.040689,2.271788 5.07812,5.47903 19.64431,26.86059 17.37252,28.99875 -2.27179,2.13815 -23.65335,4.27631 -30.468723,0.26727 -6.815373,-4.00904 -9.705525,-13.17479 -9.888973,-17.37252 -0.183449,-4.19774 1.378562,-11.8459 4.944487,-14.165288 z"
       id="path4599"
       inkscape:connector-curvature="0"
       sodipodi:nodetypes="cscszc" />
    <path
       style="fill:#00b1dd;fill-opacity:1;stroke:none;stroke-width:0.26458332px;stroke-linecap:butt;stroke-linejoin:miter;stroke-opacity:1"
       d="m 143.92464,145.72544 c -3.0736,-2.53906 -7.48355,-4.27631 -10.55715,1e-5 -3.0736,4.27631 -3.34087,8.55262 -0.53454,9.35443 2.80633,0.80181 7.75082,1.73725 9.6217,0.53454 3.76895,-3.5567 3.96636,-6.14441 1.46999,-9.88898 z"
       id="path4601"
       inkscape:connector-curvature="0"
       sodipodi:nodetypes="ccscc" />
    <path
       style="opacity:1;fill:#abe0ff;fill-opacity:1;stroke:none;stroke-width:1.28899992;stroke-linecap:round;stroke-linejoin:round;stroke-miterlimit:4;stroke-dasharray:none;stroke-opacity:1"
       d="m 138.55004,137.81037 c 0,1.75897 -1.48267,3.49394 -3.31165,3.49393 -1.82897,0 -3.31164,-1.73496 -3.31164,-3.49393 0,-1.75896 1.79172,-3.69996 3.62069,-3.69996 1.82897,0 3.0026,1.941 3.0026,3.69996 z"
       id="path4489-3-7-3"
       inkscape:connector-curvature="0"
       sodipodi:nodetypes="sssss" />
    <path
       style="fill:#cde2ff;fill-opacity:1;stroke:none;stroke-width:0.99999994px;stroke-linecap:butt;stroke-linejoin:miter;stroke-opacity:1"
       d="m 371.09375,370.45703 c -5.65878,0.0586 -11.1179,0.6319 -15.98828,1.33985 -8.26969,22.57469 -4.85021,13.54502 -13.16797,38.06054 -8.12712,23.9536 -17.33987,17.48507 -19.66406,29.05274 1.8199,8.26357 5.26524,18.1966 10.58203,27.67578 0.49478,-1.35906 0.99707,-2.90474 1.50586,-4.70508 6.56599,-23.23351 4.54456,-24.24455 10.60547,-33.33594 6.06092,-9.09135 5.05082,-4.04149 15.15234,-28.28515 7.56057,-18.14539 4.93829,-25.53706 10.97461,-29.80274 z m 34.20898,10.40235 c -19.27756,5.15594 -36.44223,14.29126 -34.57617,35.56445 2.52539,28.78934 -7.07231,23.23369 -19.69922,42.93164 -4.08774,6.37688 -7.16061,13.70295 -9.03125,20.51172 2.9785,3.52393 6.30007,6.78621 9.98047,9.64843 0.95368,-2.40268 2.68144,-5.47564 5.61719,-9.45312 15.65737,-21.2132 22.22387,-1.51536 31.82031,-40.40625 7.1994,-29.1765 17.52447,-41.86456 26.92578,-46.16992 -3.3478,-4.23806 -6.3318,-7.79565 -8.74414,-10.39844 -0.73462,-0.79262 -1.50474,-1.52538 -2.29297,-2.22851 z m 27.52149,34.86914 c -1.19231,7.72342 -4.17805,15.73413 -9.06445,21.40234 -12.62688,14.64722 11.61632,26.76881 -11.61719,38.89062 -14.48063,7.55513 -26.79949,16.87676 -32.07227,24.29493 3.15466,0.47775 6.44516,0.86873 9.85742,1.1582 1.95772,-2.2087 4.67734,-4.53661 8.57813,-6.76563 17.67764,-10.10154 36.86914,9.59718 36.86914,-19.69726 0,-29.2944 -12.12103,-25.75862 3.03125,-38.89063 1.67316,-1.45007 3.3778,-3.08404 5.08398,-4.78711 -3.53089,-5.31304 -7.12228,-10.5778 -10.66601,-15.60546 z m 20.8164,31.35351 c -1.20694,2.27998 -2.27914,4.80711 -3.11328,7.72656 -5.05077,17.67769 7.07219,10.10124 -5.55468,26.26368 -12.13994,15.5391 -25.20495,9.14577 -21.25782,20.74804 6.30895,-0.3264 12.43863,-0.83993 18.13868,-1.49609 -0.005,-5.60252 0.14297,-8.53547 7.66406,-13.19141 10.55482,-6.53393 7.12548,1.38788 15.55273,-20.43359 -3.23989,-6.03896 -7.14173,-12.70618 -11.42969,-19.61719 z"
       transform="scale(0.26458333)"
       id="path4599-5"
       inkscape:connector-curvature="0" />
  </g>
</svg>
