<svg clip-rule="evenodd" fill-rule="evenodd" height="512" image-rendering="optimizeQuality" shape-rendering="geometricPrecision" text-rendering="geometricPrecision" viewBox="0 0 1707 1707" width="512" xmlns="http://www.w3.org/2000/svg"><g id="Layer_x0020_1"><path d="m1264 1554h-1131c-12 0-23-10-23-23v-140c0-13 11-23 23-23h1131c13 0 23 10 23 23v140c0 13-10 23-23 23z" fill="#2e3b3c"/><path d="m1340 1413h-1207c-12 0-23-10-23-22v-1216c0-12 11-23 23-23h1207c13 0 23 11 23 23v1216c0 12-10 22-23 22z" fill="#506366"/><path d="m554 1413h-421c-12 0-23-10-23-22v-1216c0-12 11-23 23-23h421z" fill="#39484a"/><path d="m339 458c-58 0-104-46-104-104 0-57 46-103 104-103 57 0 103 46 103 103 0 58-46 104-103 104z" fill="#2e3b3c"/><path d="m339 744c-58 0-104-47-104-104s46-104 104-104c57 0 103 47 103 104s-46 104-103 104z" fill="#2e3b3c"/><path d="m339 1030c-58 0-104-47-104-104s46-104 104-104c57 0 103 47 103 104s-46 104-103 104z" fill="#2e3b3c"/><path d="m339 1315c-58 0-104-46-104-103 0-58 46-104 104-104 57 0 103 46 103 104 0 57-46 103-103 103z" fill="#2e3b3c"/><g fill="#dedede"><path d="m291 377h-268c-13 0-23-10-23-23 0-12 10-22 23-22h268c12 0 23 10 23 22 0 13-11 23-23 23zm0 857h-268c-13 0-23-10-23-22 0-13 10-23 23-23h268c12 0 23 10 23 23 0 12-11 22-23 22zm0-285h-268c-13 0-23-11-23-23 0-13 10-23 23-23h268c12 0 23 10 23 23 0 12-11 23-23 23zm0-286h-268c-13 0-23-10-23-23 0-12 10-23 23-23h268c12 0 23 11 23 23 0 13-11 23-23 23z"/><path d="m1130 298h-389c-12 0-22-10-22-23 0-12 10-22 22-22h389c12 0 22 10 22 22 0 13-10 23-22 23z"/><path d="m1231 443h-591c-13 0-23-10-23-23 0-12 10-22 23-22h591c13 0 23 10 23 22 0 13-10 23-23 23z"/><path d="m1231 588h-591c-13 0-23-10-23-23 0-12 10-22 23-22h591c13 0 23 10 23 22 0 13-10 23-23 23z"/><path d="m1231 733h-591c-13 0-23-10-23-23 0-12 10-22 23-22h591c13 0 23 10 23 22 0 13-10 23-23 23z"/><path d="m1231 878h-591c-13 0-23-10-23-23 0-12 10-22 23-22h591c13 0 23 10 23 22 0 13-10 23-23 23z"/><path d="m1231 1023h-591c-13 0-23-10-23-23 0-12 10-22 23-22h591c13 0 23 10 23 22 0 13-10 23-23 23z"/><path d="m1231 1168h-591c-13 0-23-10-23-23 0-12 10-22 23-22h591c13 0 23 10 23 22 0 13-10 23-23 23z"/><path d="m1231 1313h-591c-13 0-23-10-23-22 0-13 10-23 23-23h591c13 0 23 10 23 23 0 12-10 22-23 22z"/></g><g id="_579887824"><path d="m1458 1120v-1zm-1-18v-714c0-11 9-20 19-20h208c11 0 19 9 19 20v713c-10-15-236-14-246 1zm246 16c0 1-1 1-1 2 0-1 1-2 1-2z" fill="#ffa721"/><path d="m1580 981c-11 0-20-9-20-20v-422c0-11 9-19 20-19s20 8 20 19v422c0 11-9 20-20 20z" fill="#ff5b0b"/><path d="m1561 1397-103-277c-2-6-1-11-1-18 10-15 236-16 246-1 0 6 1 13-1 19l-36 97-80 63-92-63z" fill="#ffcc89"/><path d="m1457 388v-212c0-11 9-20 19-20h208c11 0 19 9 19 20v212z" fill="#ff3131"/><path d="m1580 1410c-8 0-16-5-19-13l-67-180h172l-67 180c-3 8-11 13-19 13z" fill="#58535a"/></g></g></svg>