<?xml version="1.0" encoding="UTF-8" standalone="no"?>
<!DOCTYPE svg PUBLIC "-//W3C//DTD SVG 1.1//EN" "http://www.w3.org/Graphics/SVG/1.1/DTD/svg11.dtd">
<!-- Created with Vectornator (http://vectornator.io/) -->
<svg height="100%" stroke-miterlimit="10" style="fill-rule:nonzero;clip-rule:evenodd;stroke-linecap:round;stroke-linejoin:round;" version="1.1" viewBox="0 0 1238.5 360.22" width="100%" xml:space="preserve" xmlns="http://www.w3.org/2000/svg" xmlns:vectornator="http://vectornator.io" xmlns:xlink="http://www.w3.org/1999/xlink">
<defs>
<linearGradient gradientTransform="matrix(0 254.29 73.318 0 585.093 53.7171)" gradientUnits="userSpaceOnUse" id="LinearGradient" x1="0" x2="1000" y1="0" y2="0">
<stop offset="0" stop-color="#f5f6fa"/>
<stop offset="0.28418" stop-color="#d5dae0"/>
<stop offset="0.41992" stop-color="#fdfdfd"/>
<stop offset="0.65918" stop-color="#9fa0a5"/>
<stop offset="0.86914" stop-color="#eef3f5"/>
<stop offset="1" stop-color="#eef3f5"/>
</linearGradient>
<linearGradient gradientTransform="matrix(-241.31 0 0 -241.31 618.553 296.846)" gradientUnits="userSpaceOnUse" id="LinearGradient_2" x1="0" x2="1000" y1="0" y2="0">
<stop offset="0" stop-color="#f5f6fa"/>
<stop offset="0.28418" stop-color="#d5dae0"/>
<stop offset="0.41992" stop-color="#fdfdfd"/>
<stop offset="0.65918" stop-color="#9fa0a5"/>
<stop offset="0.86914" stop-color="#eef3f5"/>
<stop offset="1" stop-color="#eef3f5"/>
</linearGradient>
<linearGradient gradientTransform="matrix(-152.13 0 0 -152.13 511.843 15.4721)" gradientUnits="userSpaceOnUse" id="LinearGradient_3" x1="0" x2="1000" y1="0" y2="0">
<stop offset="0" stop-color="#f5f6fa"/>
<stop offset="0.28418" stop-color="#d5dae0"/>
<stop offset="0.41992" stop-color="#fdfdfd"/>
<stop offset="0.65918" stop-color="#9fa0a5"/>
<stop offset="0.86914" stop-color="#eef3f5"/>
<stop offset="1" stop-color="#eef3f5"/>
</linearGradient>
<linearGradient gradientTransform="matrix(-17.842 0 0 -17.842 350.593 32.2221)" gradientUnits="userSpaceOnUse" id="LinearGradient_4" x1="0" x2="1000" y1="0" y2="0">
<stop offset="0" stop-color="#f5f6fa"/>
<stop offset="0.28418" stop-color="#d5dae0"/>
<stop offset="0.41992" stop-color="#fdfdfd"/>
<stop offset="0.65918" stop-color="#9fa0a5"/>
<stop offset="0.86914" stop-color="#eef3f5"/>
<stop offset="1" stop-color="#eef3f5"/>
</linearGradient>
<radialGradient cx="0" cy="0" gradientTransform="matrix(-64.415 0 0 -64.415 420.343 170.726)" gradientUnits="userSpaceOnUse" id="RadialGradient" r="1">
<stop offset="0" stop-color="#f5f6fa"/>
<stop offset="0.28418" stop-color="#d5dae0"/>
<stop offset="0.41992" stop-color="#fdfdfd"/>
<stop offset="0.65918" stop-color="#9fa0a5"/>
<stop offset="0.86914" stop-color="#eef3f5"/>
<stop offset="1" stop-color="#eef3f5"/>
</radialGradient>
<linearGradient gradientTransform="matrix(1.5608 -291.88 -86.868 -0.46455 626.723 376.086)" gradientUnits="userSpaceOnUse" id="LinearGradient_5" x1="0" x2="1000" y1="0" y2="0">
<stop offset="0" stop-color="#f5f6fa"/>
<stop offset="0.28418" stop-color="#d5dae0"/>
<stop offset="0.41992" stop-color="#fdfdfd"/>
<stop offset="0.65918" stop-color="#9fa0a5"/>
<stop offset="0.86914" stop-color="#eef3f5"/>
<stop offset="1" stop-color="#eef3f5"/>
</linearGradient>
<linearGradient gradientTransform="matrix(101.23 0 0 -101.23 915.253 265.386)" gradientUnits="userSpaceOnUse" id="LinearGradient_6" x1="0" x2="1000" y1="0" y2="0">
<stop offset="0" stop-color="#000000"/>
<stop offset="0.4045" stop-color="#ffffff"/>
<stop offset="1" stop-color="#000000"/>
</linearGradient>
<radialGradient cx="0" cy="0" gradientTransform="matrix(153.63 0 0 -153.63 889.053 265.386)" gradientUnits="userSpaceOnUse" id="RadialGradient_2" r="1">
<stop offset="0" stop-color="#f5f6fa"/>
<stop offset="0.28418" stop-color="#d5dae0"/>
<stop offset="0.41992" stop-color="#fdfdfd"/>
<stop offset="0.65918" stop-color="#9fa0a5"/>
<stop offset="0.86914" stop-color="#eef3f5"/>
<stop offset="1" stop-color="#eef3f5"/>
</radialGradient>
<radialGradient cx="0" cy="0" gradientTransform="matrix(2.4933 8.4633 8.4632 -2.4931 980.553 250.306)" gradientUnits="userSpaceOnUse" id="RadialGradient_3" r="1">
<stop offset="0" stop-color="#ffffff"/>
<stop offset="1" stop-color="#000000"/>
</radialGradient>
<radialGradient cx="0" cy="0" gradientTransform="matrix(2.4931 8.4632 8.4631 -2.4932 979.593 269.986)" gradientUnits="userSpaceOnUse" id="RadialGradient_4" r="1">
<stop offset="0" stop-color="#ffffff"/>
<stop offset="1" stop-color="#000000"/>
</radialGradient>
<radialGradient cx="0" cy="0" gradientTransform="matrix(2.4931 8.4631 8.4631 -2.4932 960.943 276.926)" gradientUnits="userSpaceOnUse" id="RadialGradient_5" r="1">
<stop offset="0" stop-color="#ffffff"/>
<stop offset="1" stop-color="#000000"/>
</radialGradient>
<radialGradient cx="0" cy="0" gradientTransform="matrix(2.4931 8.4631 8.4631 -2.4932 948.453 259.906)" gradientUnits="userSpaceOnUse" id="RadialGradient_6" r="1">
<stop offset="0" stop-color="#ffffff"/>
<stop offset="1" stop-color="#000000"/>
</radialGradient>
<radialGradient cx="0" cy="0" gradientTransform="matrix(2.4931 8.4632 8.4631 -2.4932 960.903 243.596)" gradientUnits="userSpaceOnUse" id="RadialGradient_7" r="1">
<stop offset="0" stop-color="#ffffff"/>
<stop offset="1" stop-color="#000000"/>
</radialGradient>
<radialGradient cx="0" cy="0" gradientTransform="matrix(4.6521 15.792 15.792 -4.6521 964.163 257.316)" gradientUnits="userSpaceOnUse" id="RadialGradient_8" r="1">
<stop offset="0" stop-color="#ffffff"/>
<stop offset="1" stop-color="#000000"/>
</radialGradient>
<linearGradient gradientTransform="matrix(-101.23 0 0 101.23 329.133 263.056)" gradientUnits="userSpaceOnUse" id="LinearGradient_7" x1="0" x2="1000" y1="0" y2="0">
<stop offset="0" stop-color="#000000"/>
<stop offset="0.4045" stop-color="#ffffff"/>
<stop offset="1" stop-color="#000000"/>
</linearGradient>
<radialGradient cx="0" cy="0" gradientTransform="matrix(-153.63 0 0 153.63 355.333 263.056)" gradientUnits="userSpaceOnUse" id="RadialGradient_9" r="1">
<stop offset="0" stop-color="#f5f6fa"/>
<stop offset="0.28418" stop-color="#d5dae0"/>
<stop offset="0.41992" stop-color="#fdfdfd"/>
<stop offset="0.65918" stop-color="#9fa0a5"/>
<stop offset="0.86914" stop-color="#eef3f5"/>
<stop offset="1" stop-color="#eef3f5"/>
</radialGradient>
<radialGradient cx="0" cy="0" gradientTransform="matrix(-2.4933 -8.4633 -8.4632 2.4931 263.833 278.136)" gradientUnits="userSpaceOnUse" id="RadialGradient_10" r="1">
<stop offset="0" stop-color="#ffffff"/>
<stop offset="1" stop-color="#000000"/>
</radialGradient>
<radialGradient cx="0" cy="0" gradientTransform="matrix(-2.4931 -8.4632 -8.4631 2.4932 264.783 258.446)" gradientUnits="userSpaceOnUse" id="RadialGradient_11" r="1">
<stop offset="0" stop-color="#ffffff"/>
<stop offset="1" stop-color="#000000"/>
</radialGradient>
<radialGradient cx="0" cy="0" gradientTransform="matrix(-2.4931 -8.4631 -8.4631 2.4932 283.443 251.516)" gradientUnits="userSpaceOnUse" id="RadialGradient_12" r="1">
<stop offset="0" stop-color="#ffffff"/>
<stop offset="1" stop-color="#000000"/>
</radialGradient>
<radialGradient cx="0" cy="0" gradientTransform="matrix(-2.4931 -8.4631 -8.4631 2.4932 295.923 268.536)" gradientUnits="userSpaceOnUse" id="RadialGradient_13" r="1">
<stop offset="0" stop-color="#ffffff"/>
<stop offset="1" stop-color="#000000"/>
</radialGradient>
<radialGradient cx="0" cy="0" gradientTransform="matrix(-2.4931 -8.4632 -8.4631 2.4932 283.483 284.846)" gradientUnits="userSpaceOnUse" id="RadialGradient_14" r="1">
<stop offset="0" stop-color="#ffffff"/>
<stop offset="1" stop-color="#000000"/>
</radialGradient>
<radialGradient cx="0" cy="0" gradientTransform="matrix(-4.6521 -15.792 -15.792 4.6521 280.223 271.126)" gradientUnits="userSpaceOnUse" id="RadialGradient_15" r="1">
<stop offset="0" stop-color="#ffffff"/>
<stop offset="1" stop-color="#000000"/>
</radialGradient>
<radialGradient cx="0" cy="0" gradientTransform="matrix(-66.598 0 0 -66.598 75.7438 302.886)" gradientUnits="userSpaceOnUse" id="RadialGradient_16" r="1">
<stop offset="0" stop-color="#f5f6fa"/>
<stop offset="0.28418" stop-color="#d5dae0"/>
<stop offset="0.41992" stop-color="#fdfdfd"/>
<stop offset="0.65918" stop-color="#9fa0a5"/>
<stop offset="0.86914" stop-color="#eef3f5"/>
<stop offset="1" stop-color="#eef3f5"/>
</radialGradient>
</defs>
<clipPath id="ArtboardFrame">
<rect height="360.22" width="1238.5" x="0" y="0"/>
</clipPath>
<g clip-path="url(#ArtboardFrame)" id="layer1" vectornator:layerName="layer1">
<path d="M26.6468 276.056L3.10382 276.056L3.10382 288.138L26.6468 288.556L26.6468 276.056L26.6468 276.056Z" fill="none" opacity="1" stroke="#000000" stroke-linecap="butt" stroke-linejoin="round" stroke-width="0.062504" vectornator:layerName="path"/>
<path d="M1225.38 255.386C1224.97 248.719 1224.55 242.052 1223.93 236.705C1223.3 231.359 1222.47 227.33 1220.24 223.859C1218.02 220.387 1214.41 217.469 1209.48 214.067C1204.55 210.664 1198.3 206.775 1190.24 202.401C1182.19 198.026 1172.33 193.164 1164.13 189.485C1155.94 185.803 1149.41 183.303 1143.04 180.602C1136.67 177.901 1130.45 174.998 1124.24 172.096L1144.55 214.596L1171.63 255.846L1219.55 249.596L1225.38 255.387L1225.38 255.386Z" fill="#d0d4df" fill-rule="nonzero" opacity="1" stroke="#000000" stroke-linecap="butt" stroke-linejoin="round" stroke-width="0.062504" vectornator:layerName="path"/>
<path d="M391.603 321.476L159.603 316.476L158.603 235.476L202.603 167.476L263.603 147.476L351.603 159.476L422.603 209.476L413.603 270.476L391.603 321.476" fill="#32353e" fill-rule="nonzero" opacity="1" stroke="none" vectornator:layerName="path"/>
<path d="M1074.58 325.476L848.583 326.476L845.583 240.476L912.583 168.476L1022.58 164.476L1072.58 193.476L1087.58 278.476L1074.58 325.476" fill="#32353e" fill-rule="nonzero" opacity="1" stroke="none" vectornator:layerName="path"/>
<path d="M31.0218 287.936L3.09782 287.976L3.10382 301.686L24.5628 301.269L31.0216 287.937L31.0218 287.936Z" fill="#2b2a2f" fill-rule="nonzero" opacity="1" stroke="#000000" stroke-linecap="butt" stroke-linejoin="round" stroke-width="0.062504" vectornator:layerName="path"/>
<path d="M1078.78 142.056C1064.75 139.001 1050.73 135.945 1035.87 133.306C1021.01 130.667 1005.31 128.445 990.589 126.709C975.867 124.972 962.117 123.722 947.255 122.542C932.394 121.361 916.421 120.251 905.866 119.556C895.31 118.861 890.171 118.584 886.63 118.306C883.089 118.029 881.144 117.751 879.546 116.987C877.949 116.222 875.796 115.779 874.824 115.224C873.852 114.669 873.054 114.894 868.679 115.38C864.304 115.866 857.255 115.806 847.88 116.57C838.505 117.334 827.81 118.029 819.478 118.445C811.144 118.861 805.172 119.001 801.63 118.792C798.088 118.584 796.977 118.029 789.755 113.097C782.532 108.167 769.199 98.8613 752.603 87.7513C736.005 76.6403 716.144 63.7223 699.061 52.5423C681.979 41.3613 667.672 31.9173 660.172 26.6403C652.672 21.3615 651.978 20.2515 649.547 19.0703C647.117 17.8903 642.949 16.6403 634.131 14.6265C625.311 12.6115 611.84 9.83403 596.84 8.02903C581.84 6.22283 565.311 5.39023 549.409 5.39023C533.507 5.39023 518.229 6.22273 506.631 6.91773C495.033 7.61273 487.117 8.16773 475.45 9.62653C463.784 11.084 448.368 13.4453 430.311 16.5015C412.256 19.5565 391.561 23.3065 380.103 25.529C368.644 27.7515 366.422 28.4452 364.894 29.209C363.366 29.9728 362.532 30.8065 361.074 31.8478C359.616 32.8903 357.532 34.1403 352.81 35.9453C348.089 37.7515 340.727 40.1115 331.63 42.7515C322.532 45.3903 311.699 48.3065 302.671 50.7365C293.643 53.1677 286.421 55.1115 266.491 61.2225C246.56 67.3337 213.921 77.6125 195.935 83.3765C177.949 89.1403 174.616 90.3903 172.603 90.8765C170.589 91.3628 169.894 91.084 169.339 90.8065L167.949 90.0428C167.533 89.834 167.116 89.6953 166.283 89.834C165.449 89.9728 164.199 90.3903 162.533 90.5978C160.867 90.8065 158.783 90.8065 157.324 90.529C155.866 90.2515 155.033 89.6952 153.505 89.904C151.978 90.1127 149.755 91.084 146.699 92.334C143.644 93.584 139.755 95.1128 134.408 96.8478C129.06 98.584 122.256 100.529 113.992 102.613C105.728 104.695 96.0059 106.918 89.9629 108.307C83.9217 109.695 81.5604 110.25 76.1439 112.612C70.7277 114.973 62.2549 119.14 55.1719 125.112C48.0894 131.084 42.3939 138.862 36.7699 146.293C31.1449 153.723 25.5899 160.807 21.3539 167.057C17.1177 173.307 14.2001 178.723 11.2149 183.863C8.22862 189.001 5.17242 193.863 3.22862 197.613C1.28362 201.363 0.449919 204.001 0.172419 207.404C-0.105081 210.806 0.172419 214.973 0.797419 219.279C1.42242 223.584 2.39492 228.029 3.36742 231.987C4.33992 235.946 5.31122 239.418 6.14492 242.891C6.97867 246.362 7.67242 249.835 8.15872 253.585C8.64497 257.335 8.92247 261.362 9.40872 265.53C9.89497 269.696 10.59 274.002 11.5612 277.474C12.5337 280.946 13.7837 283.585 15.7287 285.321C17.6725 287.057 20.3112 287.891 23.0899 288.169C25.8674 288.446 28.7837 288.169 46.4919 288.933C64.2001 289.696 96.6999 291.503 113.645 292.613C130.59 293.724 131.979 294.141 133.159 294.696C134.34 295.253 135.311 295.946 136.423 297.335C137.534 298.724 138.784 300.808 139.479 302.96C140.173 305.114 140.311 307.335 139.965 309.349C139.618 311.364 138.784 313.169 137.95 314.628C137.118 316.085 136.284 317.197 135.45 318.308L166.284 318.308L173.784 308.308C173.368 302.058 172.95 295.808 172.882 288.656C172.812 281.503 173.09 273.447 173.854 265.738C174.618 258.03 175.868 250.669 177.743 244.003C179.618 237.335 182.118 231.363 185.729 224.767C189.34 218.169 194.062 210.947 199.34 204.697C204.618 198.447 210.45 193.169 217.048 188.586C223.646 184.003 231.007 180.115 239.062 176.85C247.118 173.586 255.868 170.947 265.173 169.629C274.479 168.309 284.341 168.309 293.715 169.35C303.09 170.392 311.979 172.475 319.895 175.254C327.811 178.031 334.756 181.504 341.631 186.225C348.506 190.947 355.311 196.92 360.729 202.684C366.145 208.447 370.173 214.004 373.507 219.768C376.841 225.531 379.48 231.504 381.493 236.92C383.507 242.336 384.896 247.198 385.73 251.018C386.562 254.836 386.841 257.614 387.118 260.393C399.062 261.364 411.007 262.336 423.646 263.239C436.285 264.143 449.618 264.975 461.007 266.225C472.396 267.475 481.841 269.142 491.146 271.086C500.451 273.031 509.618 275.254 518.924 277.197C528.231 279.142 537.674 280.809 550.73 282.197C563.785 283.586 580.451 284.697 624.062 285.254C667.673 285.809 738.232 285.809 781.562 285.947C824.896 286.086 841.007 286.365 857.118 286.642C856.951 282.586 856.785 278.531 857.118 273.586C857.451 268.643 858.285 262.808 859.701 256.975C861.118 251.143 863.118 245.309 865.201 240.225C867.285 235.143 869.451 230.809 872.868 225.475C876.285 220.143 880.951 213.809 886.2 208.059C891.45 202.309 897.284 197.143 902.368 193.225C907.451 189.309 911.785 186.643 916.784 184.225C921.784 181.809 927.45 179.643 935.284 177.725C943.118 175.809 953.118 174.143 963.368 173.809C973.618 173.475 984.118 174.475 993.368 176.475C1002.62 178.475 1010.62 181.475 1017.87 184.893C1025.12 188.309 1031.62 192.143 1037.2 196.643C1042.78 201.143 1047.45 206.309 1051.7 212.059C1055.95 217.809 1059.78 224.143 1063.03 231.225C1066.28 238.309 1068.95 246.143 1070.87 254.059C1072.78 261.975 1073.95 269.975 1074.53 277.143C1075.12 284.309 1075.12 290.643 1074.7 297.225C1074.28 303.809 1073.45 310.643 1071.95 317.393C1070.45 324.143 1068.28 330.809 1066.12 337.475C1077.28 336.475 1088.45 335.475 1094.62 334.642C1100.78 333.809 1101.95 333.142 1103.62 332.809C1105.28 332.475 1107.45 332.475 1119.78 331.559C1132.12 330.642 1154.62 328.809 1169.7 327.475C1184.78 326.142 1192.45 325.309 1198.03 324.975C1203.62 324.642 1207.12 324.808 1210.53 324.558C1213.95 324.308 1217.28 323.642 1220.2 322.058C1223.12 320.475 1225.62 317.975 1226.7 316.642C1227.78 315.308 1227.45 315.142 1226.53 313.642C1225.62 312.142 1224.12 309.308 1223.37 307.558C1222.62 305.808 1222.62 305.142 1223.12 299.642C1223.62 294.142 1224.62 283.808 1225.12 275.058C1225.62 266.308 1225.62 259.142 1225.37 253.224C1225.12 247.308 1224.62 242.642 1223.45 239.142C1222.28 235.642 1220.45 233.308 1218.03 231.058C1215.62 228.808 1212.62 226.642 1209.37 224.975C1206.12 223.308 1202.62 222.142 1197.7 220.392C1192.78 218.642 1186.45 216.308 1179.62 213.308C1172.78 210.308 1165.45 206.642 1157.45 202.142C1149.45 197.642 1140.78 192.309 1132.78 186.892C1124.78 181.475 1117.45 175.974 1110.78 170.808C1104.12 165.642 1098.12 160.808 1093.28 156.642C1088.45 152.475 1084.78 148.975 1082.56 146.656C1080.34 144.336 1079.56 143.197 1078.78 142.059L1078.78 142.056ZM274.603 98.3061C271.269 97.1949 267.935 96.0836 265.992 94.8336C264.047 93.5836 263.492 92.1948 263.492 90.8061C263.492 89.4173 264.047 88.0286 265.297 86.2223C266.547 84.4173 268.492 82.1948 271.964 79.5561C275.435 76.9173 280.435 73.8623 290.575 69.5561C300.714 65.2511 315.991 59.6949 339.185 52.7511C362.38 45.8061 393.491 37.4721 419.741 31.6401C445.991 25.8063 467.38 22.4726 487.519 20.2511C507.658 18.0286 526.547 16.9173 543.491 16.6399C560.435 16.3611 575.435 16.9174 587.38 17.8899C599.325 18.8611 608.214 20.2511 616.546 22.4724C624.88 24.6949 632.657 27.7512 643.075 33.3064C653.491 38.8614 666.546 46.9174 681.685 56.9174C696.825 66.9174 714.046 78.8624 729.325 89.5564C744.603 100.251 757.935 109.695 771.269 119.14C759.325 119.14 747.38 119.14 713.491 118.307C679.602 117.473 623.769 115.807 575.571 114.834C527.376 113.862 486.821 113.584 450.571 112.612C414.321 111.64 382.376 109.973 356.681 108.307C330.987 106.64 311.542 104.973 298.903 103.307C286.264 101.64 280.431 99.9729 274.598 98.3066" fill="url(#LinearGradient)" fill-rule="nonzero" opacity="1" stroke="none" vectornator:layerName="path"/>
<path d="M1078.78 142.056C1064.75 139.001 1050.73 135.945 1035.87 133.306C1021.01 130.667 1005.31 128.445 990.589 126.709C975.867 124.972 962.117 123.722 947.255 122.542C932.394 121.361 916.421 120.251 905.866 119.556C895.31 118.861 890.171 118.584 886.63 118.306C883.089 118.029 881.144 117.751 879.546 116.987C877.949 116.222 875.796 115.779 874.824 115.224C873.852 114.669 873.054 114.894 868.679 115.38C864.304 115.866 857.255 115.806 847.88 116.57C838.505 117.334 827.81 118.029 819.478 118.445C811.144 118.861 805.172 119.001 801.63 118.792C798.088 118.584 796.977 118.029 789.755 113.097C782.532 108.167 769.199 98.8613 752.603 87.7513C736.005 76.6403 716.144 63.7223 699.061 52.5423C681.979 41.3613 667.672 31.9173 660.172 26.6403C652.672 21.3615 651.978 20.2515 649.547 19.0703C647.117 17.8903 642.949 16.6403 634.131 14.6265C625.311 12.6115 611.84 9.83403 596.84 8.02903C581.84 6.22283 565.311 5.39023 549.409 5.39023C533.507 5.39023 518.229 6.22273 506.631 6.91773C495.033 7.61273 487.117 8.16773 475.45 9.62653C463.784 11.084 448.368 13.4453 430.311 16.5015C412.256 19.5565 391.561 23.3065 380.103 25.529C368.644 27.7515 366.422 28.4452 364.894 29.209C363.366 29.9728 362.532 30.8065 361.074 31.8478C359.616 32.8903 357.532 34.1403 352.81 35.9453C348.089 37.7515 340.727 40.1115 331.63 42.7515C322.532 45.3903 311.699 48.3065 302.671 50.7365C293.643 53.1677 286.421 55.1115 266.491 61.2225C246.56 67.3337 213.921 77.6125 195.935 83.3765C177.949 89.1403 174.616 90.3903 172.603 90.8765C170.589 91.3628 169.894 91.084 169.339 90.8065L167.949 90.0428C167.533 89.834 167.116 89.6953 166.283 89.834C165.449 89.9728 164.199 90.3903 162.533 90.5978C160.867 90.8065 158.783 90.8065 157.324 90.529C155.866 90.2515 155.033 89.6952 153.505 89.904C151.978 90.1127 149.755 91.084 146.699 92.334C143.644 93.584 139.755 95.1128 134.408 96.8478C129.06 98.584 122.256 100.529 113.992 102.613C105.728 104.695 96.0059 106.918 89.9629 108.307C83.9217 109.695 81.5604 110.25 76.1439 112.612C70.7277 114.973 62.2549 119.14 55.1719 125.112C48.0894 131.084 42.3939 138.862 36.7699 146.293C31.1449 153.723 25.5899 160.807 21.3539 167.057C17.1177 173.307 14.2001 178.723 11.2149 183.863C8.22862 189.001 5.17242 193.863 3.22862 197.613C1.28362 201.363 0.449919 204.001 0.172419 207.404C-0.105081 210.806 0.172419 214.973 0.797419 219.279C1.42242 223.584 2.39492 228.029 3.36742 231.987C4.33992 235.946 5.31122 239.418 6.14492 242.891C6.97867 246.362 7.67242 249.835 8.15872 253.585C8.64497 257.335 8.92247 261.362 9.40872 265.53C9.89497 269.696 10.59 274.002 11.5612 277.474C12.5337 280.946 13.7837 283.585 15.7287 285.321C17.6725 287.057 20.3112 287.891 23.0899 288.169C25.8674 288.446 28.7837 288.169 46.4919 288.933C64.2001 289.696 96.6999 291.503 113.645 292.613C130.59 293.724 131.979 294.141 133.159 294.696C134.34 295.253 135.311 295.946 136.423 297.335C137.534 298.724 138.784 300.808 139.479 302.96C140.173 305.114 140.311 307.335 139.965 309.349C139.618 311.364 138.784 313.169 137.95 314.628C137.118 316.085 136.284 317.197 135.45 318.308L166.284 318.308L173.784 308.308C173.368 302.058 172.95 295.808 172.882 288.656C172.812 281.503 173.09 273.447 173.854 265.738C174.618 258.03 175.868 250.669 177.743 244.003C179.618 237.335 182.118 231.363 185.729 224.767C189.34 218.169 194.062 210.947 199.34 204.697C204.618 198.447 210.45 193.169 217.048 188.586C223.646 184.003 231.007 180.115 239.062 176.85C247.118 173.586 255.868 170.947 265.173 169.629C274.479 168.309 284.341 168.309 293.715 169.35C303.09 170.392 311.979 172.475 319.895 175.254C327.811 178.031 334.756 181.504 341.631 186.225C348.506 190.947 355.311 196.92 360.729 202.684C366.145 208.447 370.173 214.004 373.507 219.768C376.841 225.531 379.48 231.504 381.493 236.92C383.507 242.336 384.896 247.198 385.73 251.018C386.562 254.836 386.841 257.614 387.118 260.393C399.062 261.364 411.007 262.336 423.646 263.239C436.285 264.143 449.618 264.975 461.007 266.225C472.396 267.475 481.841 269.142 491.146 271.086C500.451 273.031 509.618 275.254 518.924 277.197C528.231 279.142 537.674 280.809 550.73 282.197C563.785 283.586 580.451 284.697 624.062 285.254C667.673 285.809 738.232 285.809 781.562 285.947C824.896 286.086 841.007 286.365 857.118 286.642C856.951 282.586 856.785 278.531 857.118 273.586C857.451 268.643 858.285 262.808 859.701 256.975C861.118 251.143 863.118 245.309 865.201 240.225C867.285 235.143 869.451 230.809 872.868 225.475C876.285 220.143 880.951 213.809 886.2 208.059C891.45 202.309 897.284 197.143 902.368 193.225C907.451 189.309 911.785 186.643 916.784 184.225C921.784 181.809 927.45 179.643 935.284 177.725C943.118 175.809 953.118 174.143 963.368 173.809C973.618 173.475 984.118 174.475 993.368 176.475C1002.62 178.475 1010.62 181.475 1017.87 184.893C1025.12 188.309 1031.62 192.143 1037.2 196.643C1042.78 201.143 1047.45 206.309 1051.7 212.059C1055.95 217.809 1059.78 224.143 1063.03 231.225C1066.28 238.309 1068.95 246.143 1070.87 254.059C1072.78 261.975 1073.95 269.975 1074.53 277.143C1075.12 284.309 1075.12 290.643 1074.7 297.225C1074.28 303.809 1073.45 310.643 1071.95 317.393C1070.45 324.143 1068.28 330.809 1066.12 337.475C1077.28 336.475 1088.45 335.475 1094.62 334.642C1100.78 333.809 1101.95 333.142 1103.62 332.809C1105.28 332.475 1107.45 332.475 1119.78 331.559C1132.12 330.642 1154.62 328.809 1169.7 327.475C1184.78 326.142 1192.45 325.309 1198.03 324.975C1203.62 324.642 1207.12 324.808 1210.53 324.558C1213.95 324.308 1217.28 323.642 1220.2 322.058C1223.12 320.475 1225.62 317.975 1226.7 316.642C1227.78 315.308 1227.45 315.142 1226.53 313.642C1225.62 312.142 1224.12 309.308 1223.37 307.558C1222.62 305.808 1222.62 305.142 1223.12 299.642C1223.62 294.142 1224.62 283.808 1225.12 275.058C1225.62 266.308 1225.62 259.142 1225.37 253.224C1225.12 247.308 1224.62 242.642 1223.45 239.142C1222.28 235.642 1220.45 233.308 1218.03 231.058C1215.62 228.808 1212.62 226.642 1209.37 224.975C1206.12 223.308 1202.62 222.142 1197.7 220.392C1192.78 218.642 1186.45 216.308 1179.62 213.308C1172.78 210.308 1165.45 206.642 1157.45 202.142C1149.45 197.642 1140.78 192.309 1132.78 186.892C1124.78 181.475 1117.45 175.974 1110.78 170.808C1104.12 165.642 1098.12 160.808 1093.28 156.642C1088.45 152.475 1084.78 148.975 1082.56 146.656C1080.34 144.336 1079.56 143.197 1078.78 142.059L1078.78 142.056ZM274.603 98.3061C271.269 97.1949 267.935 96.0836 265.992 94.8336C264.047 93.5836 263.492 92.1948 263.492 90.8061C263.492 89.4173 264.047 88.0286 265.297 86.2223C266.547 84.4173 268.492 82.1948 271.964 79.5561C275.435 76.9173 280.435 73.8623 290.575 69.5561C300.714 65.2511 315.991 59.6949 339.185 52.7511C362.38 45.8061 393.491 37.4721 419.741 31.6401C445.991 25.8063 467.38 22.4726 487.519 20.2511C507.658 18.0286 526.547 16.9173 543.491 16.6399C560.435 16.3611 575.435 16.9174 587.38 17.8899C599.325 18.8611 608.214 20.2511 616.546 22.4724C624.88 24.6949 632.657 27.7512 643.075 33.3064C653.491 38.8614 666.546 46.9174 681.685 56.9174C696.825 66.9174 714.046 78.8624 729.325 89.5564C744.603 100.251 757.935 109.695 771.269 119.14C759.325 119.14 747.38 119.14 713.491 118.307C679.602 117.473 623.769 115.807 575.571 114.834C527.376 113.862 486.821 113.584 450.571 112.612C414.321 111.64 382.376 109.973 356.681 108.307C330.987 106.64 311.542 104.973 298.903 103.307C286.264 101.64 280.431 99.9729 274.598 98.3066L274.603 98.3061Z" fill="none" opacity="1" stroke="#000000" stroke-linecap="butt" stroke-linejoin="round" stroke-width="0.050001" vectornator:layerName="path"/>
<path d="M64.0418 261.746C68.0006 261.572 75.3618 261.504 82.8268 261.677C90.2918 261.85 97.8618 262.267 105.118 262.615C112.375 262.961 119.32 263.24 123.903 263.656C128.487 264.072 130.709 264.628 132.479 265.287C134.25 265.947 135.57 266.711 136.75 267.787C137.93 268.865 138.973 270.253 139.875 271.816C140.778 273.378 141.541 275.115 142.028 277.093C142.514 279.072 142.723 281.295 142.514 283.24C142.305 285.183 141.68 286.85 140.396 288.447C139.111 290.045 137.166 291.572 135.188 292.475C133.209 293.378 131.195 293.656 125.5 293.621C119.805 293.586 110.43 293.238 99.0762 292.648C87.7222 292.058 74.3882 291.225 67.1662 290.566C59.945 289.906 58.8337 289.42 57.6524 288.343C56.4724 287.267 55.2224 285.6 54.1799 283.968C53.1387 282.336 52.3049 280.738 51.8537 278.933C51.4024 277.128 51.3337 275.115 51.5074 273.621C51.6799 272.128 52.0974 271.156 52.9299 269.836C53.7637 268.517 55.0137 266.85 56.0899 265.566C57.1661 264.281 58.0699 263.378 58.7987 262.787C59.5275 262.197 60.0837 261.92 64.0412 261.746L64.0418 261.746Z" fill="#2b2a2f" fill-rule="nonzero" opacity="1" stroke="#000000" stroke-linecap="butt" stroke-linejoin="round" stroke-width="0.062504" vectornator:layerName="path"/>
<path d="M385.153 263.866C384.598 267.199 384.598 274.005 384.042 282.476C383.487 290.949 382.375 301.087 381.612 307.616C380.848 314.144 380.43 317.06 380.362 320.046C380.292 323.032 380.57 326.087 380.987 327.755C381.403 329.421 381.959 329.699 401.681 329.491C421.403 329.282 460.292 328.587 486.96 327.962C513.626 327.337 528.071 326.782 550.501 326.296C572.931 325.81 603.349 325.394 627.585 325.394C651.821 325.394 669.876 325.81 689.043 326.505C708.211 327.199 728.488 328.171 747.238 329.144C765.988 330.116 783.21 331.087 797.654 331.644C812.099 332.199 823.765 332.337 831.96 332.546C840.153 332.755 844.876 333.032 848.001 332.894C851.126 332.755 852.653 332.199 853.903 331.019C855.153 329.837 856.126 328.032 856.542 320.601C856.959 313.171 856.821 300.116 856.612 293.449C856.403 286.782 856.126 286.505 855.571 286.366C855.014 286.226 854.181 286.226 846.612 286.087C839.042 285.949 824.737 285.671 817.237 285.734C809.737 285.796 809.042 286.2 807.528 286.317C806.014 286.436 803.681 286.269 765.348 286.137C727.014 286.005 652.678 285.907 611.558 285.511C570.433 285.116 562.517 284.421 552.656 282.962C542.795 281.505 530.99 279.282 517.865 276.667C504.74 274.053 490.295 271.046 478.281 268.97C466.267 266.894 456.683 265.749 446.267 264.821C435.851 263.893 424.601 263.185 416.215 262.612C407.83 262.04 402.309 261.602 398.074 261.325C393.838 261.046 390.887 260.928 388.855 260.8C386.824 260.671 385.713 260.532 385.157 263.866" fill="url(#LinearGradient_2)" fill-rule="nonzero" opacity="1" stroke="none" vectornator:layerName="path"/>
<path d="M385.153 263.866C384.598 267.199 384.598 274.005 384.042 282.476C383.487 290.949 382.375 301.087 381.612 307.616C380.848 314.144 380.43 317.06 380.362 320.046C380.292 323.032 380.57 326.087 380.987 327.755C381.403 329.421 381.959 329.699 401.681 329.491C421.403 329.282 460.292 328.587 486.96 327.962C513.626 327.337 528.071 326.782 550.501 326.296C572.931 325.81 603.349 325.394 627.585 325.394C651.821 325.394 669.876 325.81 689.043 326.505C708.211 327.199 728.488 328.171 747.238 329.144C765.988 330.116 783.21 331.087 797.654 331.644C812.099 332.199 823.765 332.337 831.96 332.546C840.153 332.755 844.876 333.032 848.001 332.894C851.126 332.755 852.653 332.199 853.903 331.019C855.153 329.837 856.126 328.032 856.542 320.601C856.959 313.171 856.821 300.116 856.612 293.449C856.403 286.782 856.126 286.505 855.571 286.366C855.014 286.226 854.181 286.226 846.612 286.087C839.042 285.949 824.737 285.671 817.237 285.734C809.737 285.796 809.042 286.2 807.528 286.317C806.014 286.436 803.681 286.269 765.348 286.137C727.014 286.005 652.678 285.907 611.558 285.511C570.433 285.116 562.517 284.421 552.656 282.962C542.795 281.505 530.99 279.282 517.865 276.667C504.74 274.053 490.295 271.046 478.281 268.97C466.267 266.894 456.683 265.749 446.267 264.821C435.851 263.893 424.601 263.185 416.215 262.612C407.83 262.04 402.309 261.602 398.074 261.325C393.838 261.046 390.887 260.928 388.855 260.8C386.824 260.671 385.713 260.532 385.157 263.866L385.153 263.866Z" fill="none" opacity="1" stroke="#000000" stroke-linecap="butt" stroke-linejoin="round" stroke-width="0.062504" vectornator:layerName="path"/>
<path d="M274.603 98.3061C280.435 99.9723 286.269 101.64 298.908 103.306C311.547 104.972 330.992 106.64 356.686 108.306C382.381 109.972 414.326 111.64 450.576 112.611C486.825 113.584 527.381 113.861 575.576 114.834C623.77 115.806 679.606 117.472 713.496 118.306C747.385 119.14 759.33 119.14 771.274 119.14C757.94 109.695 744.608 100.251 729.33 89.5558C714.051 78.8618 696.83 66.9168 681.69 56.9168C666.551 46.9168 653.496 38.8608 643.08 33.3058C632.662 27.7508 624.885 24.6946 616.551 22.4718C608.218 20.2506 599.33 18.8606 587.385 17.8893C575.44 16.9168 560.44 16.3605 543.496 16.6393C526.551 16.9168 507.662 18.0281 487.524 20.2505C467.385 22.4717 445.996 25.8055 419.746 31.6395C393.496 37.472 362.385 45.8055 339.19 52.7505C315.996 59.6943 300.719 65.2505 290.58 69.5555C280.44 73.8605 275.44 76.9167 271.969 79.5555C268.496 82.1943 266.551 84.4167 265.301 86.2217C264.051 88.0279 263.496 89.4167 263.496 90.8055C263.496 92.1943 264.051 93.583 265.996 94.833C267.94 96.083 271.274 97.1942 274.608 98.3055L274.603 98.3061Z" fill="#5c6d7d" fill-rule="nonzero" opacity="1" stroke="#000000" stroke-linecap="butt" stroke-linejoin="round" stroke-width="3.75" vectornator:layerName="path"/>
<path d="M684.603 99.5561C671.547 90.5286 658.492 81.5011 645.575 73.3761C632.657 65.2511 619.88 58.0281 609.603 54.0011C599.325 49.9723 591.547 49.1399 582.519 48.1673C573.491 47.1948 563.214 46.0835 553.075 45.8061C542.935 45.5286 532.935 46.0836 518.353 47.1949C503.769 48.3061 484.603 49.9724 474.464 51.2224C464.325 52.4724 463.214 53.3062 462.103 54.1399C464.603 54.9724 467.103 55.8061 468.63 56.5011C470.158 57.1948 470.714 57.7511 472.103 62.1949C473.492 66.6399 475.714 74.9729 478.312 83.7899C480.91 92.6061 483.885 101.906 486.859 111.206L678.529 115.372L684.605 99.5561" fill="#eae7ea" fill-rule="nonzero" opacity="1" stroke="none" vectornator:layerName="path"/>
<path d="M844.393 116.786C838.577 117.229 832.762 117.671 825.401 118.099C818.04 118.525 809.133 118.936 803.535 118.594C797.935 118.251 795.644 117.154 782.831 108.612C770.019 100.071 746.685 84.0834 724.653 69.3104C702.622 54.5364 681.893 40.9744 670.331 33.3594C658.769 25.7456 656.372 24.0782 654.966 22.8394C653.56 21.5994 653.143 20.7869 652.935 19.7544C652.727 18.7232 652.727 17.4732 653.352 16.6406C653.977 15.8068 655.227 15.3906 656.685 15.0781C658.143 14.7656 659.81 14.5568 661.165 14.6606C662.518 14.7656 663.56 15.1818 677.103 22.4731C690.644 29.7656 716.685 43.9321 746.652 60.7971C776.617 77.6621 810.506 97.2251 844.394 116.787L844.393 116.786Z" fill="#f3f6f3" fill-rule="nonzero" opacity="1" stroke="#000000" stroke-linecap="butt" stroke-linejoin="round" stroke-width="0.062504" vectornator:layerName="path"/>
<path d="M664.033 14.7231C654.053 11.8056 644.074 8.88928 631.584 6.51428C619.095 4.13928 604.095 2.30548 589.595 1.22178C575.095 0.139278 561.095-0.194522 545.011 0.221778C528.927 0.639278 510.761 1.80558 494.011 3.47178C477.261 5.13928 461.927 7.30558 447.845 9.47178C433.761 11.6393 420.927 13.8056 409.677 15.8893C398.427 17.9718 388.761 19.9718 381.927 21.3893C375.094 22.8055 371.095 23.6393 368.845 24.2218C366.595 24.8055 366.095 25.1393 365.011 26.3056C363.927 27.4718 362.261 29.4718 360.595 31.4718C367.261 29.6393 373.927 27.8056 385.511 25.2218C397.095 22.6393 413.595 19.3056 428.595 16.7218C443.595 14.1393 457.095 12.3056 470.177 10.8056C483.261 9.30558 495.927 8.13928 507.845 7.22178C519.761 6.30553 530.927 5.63928 540.927 5.30558C550.927 4.97183 559.761 4.97183 568.927 5.38928C578.094 5.80553 587.595 6.63928 600.011 8.55548C612.427 10.4718 627.761 13.4718 637.333 15.983C646.907 18.493 650.719 20.5142 654.532 22.5355C653.761 20.723 652.989 18.9105 653.032 17.7443C653.073 16.5768 653.927 16.0568 654.989 15.6193C656.052 15.1805 657.323 14.8268 658.864 14.6918C660.407 14.5555 662.219 14.6393 664.032 14.723" fill="url(#LinearGradient_3)" fill-rule="nonzero" opacity="1" stroke="none" vectornator:layerName="path"/>
<path d="M664.033 14.7231C654.053 11.8056 644.074 8.88928 631.584 6.51428C619.095 4.13928 604.095 2.30548 589.595 1.22178C575.095 0.139278 561.095-0.194522 545.011 0.221778C528.927 0.639278 510.761 1.80558 494.011 3.47178C477.261 5.13928 461.927 7.30558 447.845 9.47178C433.761 11.6393 420.927 13.8056 409.677 15.8893C398.427 17.9718 388.761 19.9718 381.927 21.3893C375.094 22.8055 371.095 23.6393 368.845 24.2218C366.595 24.8055 366.095 25.1393 365.011 26.3056C363.927 27.4718 362.261 29.4718 360.595 31.4718C367.261 29.6393 373.927 27.8056 385.511 25.2218C397.095 22.6393 413.595 19.3056 428.595 16.7218C443.595 14.1393 457.095 12.3056 470.177 10.8056C483.261 9.30558 495.927 8.13928 507.845 7.22178C519.761 6.30553 530.927 5.63928 540.927 5.30558C550.927 4.97183 559.761 4.97183 568.927 5.38928C578.094 5.80553 587.595 6.63928 600.011 8.55548C612.427 10.4718 627.761 13.4718 637.333 15.983C646.907 18.493 650.719 20.5142 654.532 22.5355C653.761 20.723 652.989 18.9105 653.032 17.7443C653.073 16.5768 653.927 16.0568 654.989 15.6193C656.052 15.1805 657.323 14.8268 658.864 14.6918C660.407 14.5555 662.219 14.6393 664.032 14.723L664.033 14.7231Z" fill="none" opacity="1" stroke="#000000" stroke-linecap="butt" stroke-linejoin="round" stroke-width="0.062504" vectornator:layerName="path"/>
<path d="M366.103 23.4721C359.935 24.8059 353.769 26.1396 348.603 27.3896C343.435 28.6396 339.269 29.8058 337.185 30.5558C335.102 31.3058 335.102 31.6396 335.102 32.6396C335.102 33.6396 335.102 35.3058 335.366 36.8196C335.63 38.3334 336.157 39.6958 336.685 41.0571C340.366 40.0846 344.046 39.1121 348.075 37.8271C352.102 36.5433 356.477 34.9459 359.29 33.1671C362.102 31.3896 363.352 29.4309 364.227 27.7846C365.102 26.1396 365.602 24.8058 366.102 23.4721" fill="url(#LinearGradient_4)" fill-rule="nonzero" opacity="1" stroke="none" vectornator:layerName="path"/>
<path d="M366.103 23.4721C359.935 24.8059 353.769 26.1396 348.603 27.3896C343.435 28.6396 339.269 29.8058 337.185 30.5558C335.102 31.3058 335.102 31.6396 335.102 32.6396C335.102 33.6396 335.102 35.3058 335.366 36.8196C335.63 38.3334 336.157 39.6958 336.685 41.0571C340.366 40.0846 344.046 39.1121 348.075 37.8271C352.102 36.5433 356.477 34.9459 359.29 33.1671C362.102 31.3896 363.352 29.4309 364.227 27.7846C365.102 26.1396 365.602 24.8058 366.102 23.4721L366.103 23.4721Z" fill="none" opacity="1" stroke="#000000" stroke-linecap="butt" stroke-linejoin="round" stroke-width="0.062504" vectornator:layerName="path"/>
<path d="M217.103 72.9721L333.773 38.3061L334.607 41.7973L218.107 75.9723L217.107 72.9723" fill="#2b2a2f" fill-rule="nonzero" opacity="1" stroke="none" vectornator:layerName="path"/>
<path d="M264.103 51.4721C256.435 52.9721 248.769 54.4721 240.853 56.8059C232.935 59.1397 224.769 62.3059 217.353 65.3897C209.935 68.4722 203.269 71.4722 196.603 74.4722" fill="none" opacity="1" stroke="#000000" stroke-linecap="butt" stroke-linejoin="round" stroke-width="0.625" vectornator:layerName="path"/>
<path d="M217.603 72.4721C224.435 69.4721 231.269 66.4721 239.185 63.4721C247.102 60.4721 256.103 57.4721 264.103 54.8896C272.103 52.3058 279.103 50.1396 286.019 48.2221C292.935 46.3059 299.769 44.6396 306.353 43.3059C312.935 41.9721 319.269 40.9721 325.603 39.9721" fill="none" opacity="1" stroke="#000000" stroke-linecap="butt" stroke-linejoin="round" stroke-width="0.062504" vectornator:layerName="path"/>
<path d="M278.603 49.4721L263.603 50.9721L266.103 54.4721L278.603 49.4721" fill="#2b2a2f" fill-rule="nonzero" opacity="1" stroke="none" vectornator:layerName="path"/>
<path d="M196.603 74.4721L185.603 74.9721L171.603 77.4721L159.103 79.4721L156.603 78.9721L146.322 81.0659L148.353 89.9721L151.791 89.1908L152.728 92.6283L157.103 91.9721L156.322 88.4096L160.072 87.4721L159.134 84.0346L162.572 82.6284L179.603 77.4722L192.103 75.9722L197.103 74.4722" fill="#2b2a2f" fill-rule="nonzero" opacity="1" stroke="#000000" stroke-linecap="butt" stroke-linejoin="round" stroke-width="0.062504" vectornator:layerName="path"/>
<path d="M158.103 255.096C154.769 254.721 151.435 254.346 141.936 253.991C132.436 253.637 116.77 253.304 104.27 252.887C91.7698 252.47 82.4358 251.97 75.7698 251.637C69.1036 251.304 65.1038 251.137 61.9358 251.137C58.7696 251.137 56.4358 251.304 54.1033 251.887C51.7695 252.47 49.4358 253.47 47.4358 254.553C45.4358 255.637 43.7696 256.803 42.2696 258.137C40.7696 259.47 39.4358 260.97 37.8534 263.553C36.2696 266.137 34.4359 269.803 32.6859 273.053C30.9359 276.303 29.2697 279.137 27.6184 281.532C25.9672 283.928 24.3296 285.887 22.6934 287.846" fill="none" opacity="1" stroke="#000000" stroke-linecap="butt" stroke-linejoin="round" stroke-width="0.050001" vectornator:layerName="path"/>
<path d="M215.603 180.096C204.228 179.846 192.853 179.596 176.332 179.159C159.811 178.72 138.145 178.095 125.748 177.575C113.353 177.054 110.228 176.637 107.103 176.22" fill="none" opacity="1" stroke="#000000" stroke-linecap="butt" stroke-linejoin="round" stroke-width="0.050001" vectornator:layerName="path"/>
<path d="M365.103 204.476C358.935 198.476 352.769 192.476 346.853 187.81C340.935 183.144 335.269 179.81 328.769 176.644C322.269 173.477 314.935 170.477 307.185 168.227C299.435 165.977 291.269 164.477 281.935 164.394C272.602 164.31 262.103 165.644 251.853 167.977C241.603 170.31 231.603 173.644 223.435 177.144C215.269 180.644 208.935 184.31 202.353 189.226C195.769 194.144 188.935 200.31 183.353 207.06C177.769 213.81 173.435 221.144 169.853 228.226C166.269 235.31 163.435 242.144 160.935 248.394C158.435 254.644 156.269 260.31 153.603 266.644C150.935 272.977 147.769 279.976 145.103 284.726C142.435 289.476 140.269 291.976 138.7 293.539C137.133 295.102 136.163 295.727 135.193 296.352" fill="none" opacity="1" stroke="#000000" stroke-linecap="butt" stroke-linejoin="round" stroke-width="0.050001" vectornator:layerName="path"/>
<path d="M124.603 152.976L33.6028 151.476L16.6028 175.976L105.603 175.976L124.603 152.976Z" fill="#f92f2c" fill-rule="nonzero" opacity="1" stroke="#323535" stroke-linecap="butt" stroke-linejoin="round" stroke-width="0.062504" vectornator:layerName="path"/>
<path d="M119.803 119.506C116.887 118.934 111.678 118.205 105.689 117.215C99.6988 116.225 92.9278 114.975 88.2928 113.986C83.6578 112.996 81.1578 112.267 78.9703 111.174C76.7828 110.08 74.9078 108.621 73.7091 107.371C72.5116 106.121 71.9903 105.08 71.6266 104.559C71.2616 104.037 71.0529 104.037 68.7091 104.299C66.3653 104.559 61.8866 105.08 57.3551 104.975C52.8239 104.871 48.2401 104.142 43.5011 102.787C38.7611 101.434 33.8649 99.4548 29.3331 97.4748C24.8019 95.496 20.6356 93.5173 18.0831 92.3186C15.5319 91.1211 14.5943 90.7048 13.8131 90.7048C13.0319 90.7048 12.4069 91.1211 12.4581 92.1623C12.5106 93.2048 13.2394 94.8711 15.7393 97.3185C18.2393 99.7673 22.5105 102.996 27.0413 105.912C31.5725 108.83 36.3638 111.433 41.5203 113.725C46.6765 116.017 52.1983 117.996 58.0823 119.715C63.9685 121.434 70.2183 122.892 77.1443 123.777C84.0718 124.662 91.6753 124.975 98.4993 124.975C105.322 124.975 111.363 124.662 115.113 124.402C118.863 124.142 120.322 123.933 121.416 123.361C122.51 122.787 123.238 121.85 123.291 121.174C123.343 120.496 122.718 120.08 119.801 119.506L119.803 119.506Z" fill="#2b2a2f" fill-rule="nonzero" opacity="1" stroke="#000000" stroke-linecap="butt" stroke-linejoin="round" stroke-width="0.062504" vectornator:layerName="path"/>
<path d="M20.5358 104.916C19.8058 105.801 19.3896 108.51 19.7546 110.854C20.1183 113.197 21.2646 115.176 22.9834 117.364C24.7022 119.551 26.9934 121.947 28.9734 124.395C30.9522 126.842 32.6184 129.342 33.9209 131.686C35.2234 134.03 36.1609 136.217 36.7859 138.301C37.4109 140.385 37.7234 142.363 39.6497 142.467C41.5772 142.572 45.1185 140.801 49.1297 138.405C53.1397 136.01 57.6185 132.988 60.6397 130.905C63.6609 128.822 65.2235 127.676 65.7959 127.103C66.3684 126.53 65.9521 126.53 63.8684 126.061C61.7859 125.592 58.0359 124.655 53.7644 123.248C49.4932 121.842 44.7019 119.967 40.1704 117.676C35.6392 115.385 31.3679 112.676 28.6084 110.645C25.8484 108.614 24.5984 107.26 23.4522 106.114C22.306 104.967 21.2647 104.03 20.536 104.916L20.5358 104.916Z" fill="#2b2a2f" fill-rule="nonzero" opacity="1" stroke="#000000" stroke-linecap="butt" stroke-linejoin="round" stroke-width="0.062504" vectornator:layerName="path"/>
<path d="M124.283 152.476C125.637 150.706 126.99 148.935 127.72 147.425C128.449 145.914 128.553 144.664 128.084 143.31C127.615 141.956 126.574 140.497 124.334 139.3C122.095 138.101 118.658 137.164 114.803 136.122C110.949 135.081 106.678 133.935 102.668 132.945C98.6579 131.956 94.9079 131.122 92.2519 130.394C89.5957 129.664 88.0331 129.039 86.4707 128.414" fill="none" opacity="1" stroke="#000000" stroke-linecap="butt" stroke-linejoin="round" stroke-width="0.062504" vectornator:layerName="path"/>
<path d="M115.853 151.846C116.269 150.805 116.685 149.764 116.842 148.826C116.998 147.889 116.894 147.055 115.904 146.117C114.915 145.18 113.04 144.138 110.697 142.732C108.353 141.326 105.54 139.555 102.519 138.148C99.4978 136.742 96.2691 135.701 92.5716 134.658C88.8728 133.617 84.7066 132.576 81.1656 131.638C77.6231 130.701 74.7068 129.867 71.9468 129.242C69.1856 128.617 66.5818 128.201 63.978 127.783" fill="none" opacity="1" stroke="#000000" stroke-linecap="butt" stroke-linejoin="round" stroke-width="0.062504" vectornator:layerName="path"/>
<path d="M499.113 288.306C493.627 286.501 485.988 284.279 475.988 281.917C465.988 279.556 453.627 277.056 443.279 275.251C432.931 273.445 424.599 272.334 419.251 271.917C413.903 271.501 411.542 271.779 409.528 272.472C407.515 273.167 405.848 274.278 404.528 276.015C403.21 277.751 402.237 280.112 401.751 282.126C401.265 284.14 401.265 285.806 401.542 288.167C401.821 290.528 402.376 293.583 403.903 296.708C405.431 299.833 407.931 303.028 410.362 305.458C412.792 307.89 415.153 309.556 419.737 310.876C424.321 312.195 431.126 313.167 438.139 313.792C445.153 314.417 452.375 314.695 461.541 314.695C470.709 314.695 481.82 314.417 499.32 314.001C516.82 313.583 540.709 313.028 564.666 312.681C588.625 312.333 612.652 312.195 636.541 312.265C660.43 312.333 684.18 312.611 710.152 313.167C736.124 313.722 764.32 314.556 786.611 314.972C808.902 315.39 825.291 315.39 836.195 315.667C847.097 315.945 852.514 316.501 854.875 316.501C857.236 316.501 856.541 315.945 848.209 315.181C839.875 314.417 823.903 313.445 795.57 312.056C767.236 310.667 726.541 308.862 683.42 306.362C640.295 303.862 594.74 300.667 565.64 298.306C536.542 295.945 523.904 294.417 515.918 292.958C507.932 291.501 504.599 290.112 499.113 288.306L499.113 288.306Z" fill="none" opacity="1" stroke="#000000" stroke-linecap="butt" stroke-linejoin="round" stroke-width="0.062504" vectornator:layerName="path"/>
<path d="M493.903 290.526C489.459 289.276 481.403 287.331 471.959 285.11C462.514 282.887 451.68 280.387 442.653 278.581C433.625 276.776 426.403 275.665 421.334 275.179C416.264 274.692 413.348 274.831 411.264 275.735C409.18 276.637 407.93 278.304 407.166 280.526C406.403 282.749 406.125 285.526 406.541 288.095C406.959 290.665 408.07 293.026 409.25 295.249C410.43 297.47 411.68 299.554 413.278 301.567C414.875 303.581 416.82 305.526 419.875 306.915C422.93 308.304 427.098 309.137 434.459 309.692C441.82 310.249 452.375 310.526 460.917 310.595C469.46 310.665 475.987 310.526 480.778 310.179C485.571 309.831 488.626 309.276 491.612 307.817C494.598 306.36 497.515 303.999 498.973 302.124C500.431 300.249 500.431 298.86 500.362 297.401C500.292 295.942 500.153 294.415 499.667 293.374C499.181 292.331 498.348 291.776 493.903 290.526L493.903 290.526Z" fill="none" opacity="1" stroke="#000000" stroke-linecap="butt" stroke-linejoin="round" stroke-width="0.062504" vectornator:layerName="path"/>
<path d="M484.103 288.226C481.435 287.644 478.769 287.06 476.435 286.519C474.103 285.976 472.103 285.476 470.103 284.976C463.685 283.476 457.269 281.976 451.103 280.601C444.935 279.226 439.019 277.976 433.685 277.019C428.352 276.06 423.603 275.394 420.06 275.101C416.519 274.81 414.185 274.894 412.352 275.519C410.519 276.144 409.185 277.31 408.269 278.644C407.352 279.976 406.852 281.476 406.685 283.101C406.518 284.726 406.685 286.476 407.018 288.144C407.352 289.81 407.852 291.394 408.56 293.144C409.268 294.894 410.185 296.81 411.227 298.476C412.268 300.144 413.435 301.56 414.018 302.185C414.602 302.81 414.602 302.644 414.768 302.226C414.935 301.81 415.268 301.144 415.185 300.435C415.102 299.726 414.602 298.976 413.852 297.81C413.102 296.644 412.102 295.06 411.31 293.394C410.518 291.726 409.935 289.976 409.685 288.185C409.435 286.394 409.518 284.56 409.768 282.976C410.018 281.394 410.435 280.06 411.393 279.269C412.352 278.476 413.852 278.226 416.352 278.226C418.852 278.226 422.352 278.476 426.31 278.81C430.269 279.144 434.685 279.56 439.31 280.226C443.935 280.894 448.769 281.81 453.644 282.769C458.519 283.726 463.435 284.726 468.519 285.644C473.603 286.56 478.853 287.394 484.103 288.226L484.103 288.226Z" fill="#2b2a2f" fill-rule="nonzero" opacity="1" stroke="#000000" stroke-linecap="butt" stroke-linejoin="round" stroke-width="0.062504" vectornator:layerName="path"/>
<path d="M441.263 131.636C440.597 129.969 439.097 127.969 436.013 126.636C432.929 125.302 428.263 124.636 422.679 124.386C417.096 124.136 410.597 124.302 404.597 124.719C398.597 125.136 393.097 125.802 389.013 127.052C384.929 128.302 382.263 130.136 380.347 132.219C378.429 134.302 377.263 136.636 376.763 139.719C376.263 142.802 376.429 146.636 377.597 151.637C378.763 156.637 380.929 162.803 383.929 169.137C386.929 175.469 390.763 181.969 394.929 187.387C399.097 192.803 403.597 197.137 408.929 200.719C414.263 204.302 420.429 207.136 426.263 209.469C432.097 211.802 437.597 213.636 442.847 214.886C448.097 216.136 453.097 216.802 456.347 216.636C459.597 216.469 461.097 215.469 462.18 213.886C463.263 212.302 463.93 210.136 463.763 208.052C463.597 205.968 462.597 203.968 460.597 200.552C458.597 197.136 455.597 192.302 452.93 186.718C450.263 181.136 447.93 174.802 446.013 169.136C444.097 163.469 442.597 158.468 441.763 154.386C440.93 150.302 440.763 147.136 440.847 144.218C440.93 141.302 441.263 138.636 441.513 136.636C441.763 134.636 441.93 133.302 441.263 131.636" fill="url(#RadialGradient)" fill-rule="nonzero" opacity="1" stroke="none" vectornator:layerName="path"/>
<path d="M441.263 131.636C440.597 129.969 439.097 127.969 436.013 126.636C432.929 125.302 428.263 124.636 422.679 124.386C417.096 124.136 410.597 124.302 404.597 124.719C398.597 125.136 393.097 125.802 389.013 127.052C384.929 128.302 382.263 130.136 380.347 132.219C378.429 134.302 377.263 136.636 376.763 139.719C376.263 142.802 376.429 146.636 377.597 151.637C378.763 156.637 380.929 162.803 383.929 169.137C386.929 175.469 390.763 181.969 394.929 187.387C399.097 192.803 403.597 197.137 408.929 200.719C414.263 204.302 420.429 207.136 426.263 209.469C432.097 211.802 437.597 213.636 442.847 214.886C448.097 216.136 453.097 216.802 456.347 216.636C459.597 216.469 461.097 215.469 462.18 213.886C463.263 212.302 463.93 210.136 463.763 208.052C463.597 205.968 462.597 203.968 460.597 200.552C458.597 197.136 455.597 192.302 452.93 186.718C450.263 181.136 447.93 174.802 446.013 169.136C444.097 163.469 442.597 158.468 441.763 154.386C440.93 150.302 440.763 147.136 440.847 144.218C440.93 141.302 441.263 138.636 441.513 136.636C441.763 134.636 441.93 133.302 441.263 131.636L441.263 131.636Z" fill="none" opacity="1" stroke="#000000" stroke-linecap="butt" stroke-linejoin="round" stroke-width="0.062504" vectornator:layerName="path"/>
<path d="M400.333 182.906C402.235 183.736 406.597 186.045 408.433 186.801C411.267 187.967 413.933 188.967 415.683 189.551C417.433 190.135 418.267 190.301 418.183 189.717C418.1 189.135 417.1 187.801 415.933 184.885C414.767 181.967 413.433 177.467 411.933 172.551C410.433 167.635 408.767 162.301 407.933 156.885C407.1 151.467 407.1 145.967 407.183 142.717C407.267 139.467 407.433 138.467 409.1 137.551C410.767 136.634 413.933 135.801 417.1 134.717C420.267 133.634 423.433 132.301 426.6 130.967C419.933 130.801 413.266 130.634 407.682 131.134C402.1 131.634 397.6 132.801 394.516 134.051C391.433 135.301 389.766 136.634 388.516 138.467C387.266 140.301 386.433 142.634 386.35 145.551C386.266 148.467 386.933 151.967 388.266 156.385C389.6 160.801 391.6 166.135 394.183 171.551C396.063 175.492 398.25 179.476 400.333 182.906L400.333 182.906Z" fill="#32353e" fill-rule="nonzero" opacity="1" stroke="#000000" stroke-linecap="butt" stroke-linejoin="round" stroke-width="0.050001" vectornator:layerName="path"/>
<path d="M458.183 209.056C457.933 208.14 456.767 206.806 453.683 205.056C450.6 203.306 445.6 201.14 439.767 198.64C433.933 196.14 427.267 193.306 422.101 191.222C416.933 189.14 413.267 187.806 409.851 186.722C406.433 185.64 403.267 184.806 403.101 185.972C402.933 187.14 405.767 190.306 409.683 193.14C413.601 195.972 418.601 198.472 424.101 200.806C429.601 203.14 435.601 205.306 440.101 206.972C444.601 208.64 447.601 209.806 450.183 210.39C452.767 210.972 454.933 210.972 456.351 210.722C457.767 210.472 458.433 209.972 458.183 209.056L458.183 209.056Z" fill="#d5d8d8" fill-rule="nonzero" opacity="1" stroke="#000000" stroke-linecap="butt" stroke-linejoin="round" stroke-width="0.050001" vectornator:layerName="path"/>
<path d="M400.363 182.936C401.154 184.23 401.934 185.447 402.683 186.56C405.433 190.644 407.767 193.31 411.517 195.726C415.267 198.144 420.433 200.31 426.101 202.56C431.767 204.81 437.933 207.144 442.517 208.644C447.1 210.144 450.1 210.81 452.767 210.976C455.433 211.144 457.767 210.81 458.933 210.226C460.1 209.644 460.1 208.81 459.683 207.476C459.267 206.144 458.433 204.31 457.017 201.56C455.6 198.81 453.6 195.144 451.6 191.06C449.6 186.976 447.6 182.476 445.767 178.144C443.933 173.81 442.267 169.644 440.6 165.476" fill="none" opacity="1" stroke="#000000" stroke-linecap="butt" stroke-linejoin="round" stroke-width="0.050001" vectornator:layerName="path"/>
<path d="M468.193 114.846C465.329 116.971 462.467 119.096 459.628 122.189C456.79 125.282 453.978 129.345 452.154 132.888C450.332 136.429 449.498 139.45 449.082 142.158C448.665 144.866 448.665 147.263 449.029 150.126C449.394 152.991 450.123 156.325 451.217 160.387C452.31 164.45 453.769 169.241 456.373 175.595C458.978 181.95 462.728 189.866 466.791 197.314C470.853 204.763 475.228 211.742 479.551 218.252C483.873 224.764 488.145 230.804 492.26 236.064C496.374 241.326 500.332 245.804 504.499 250.283C508.666 254.763 513.041 259.242 517.208 262.888C521.374 266.533 525.333 269.346 529.708 271.846C534.083 274.346 538.874 276.533 544.604 278.357C550.333 280.18 556.999 281.638 563.614 282.627C570.229 283.617 576.792 284.138 583.562 284.398C590.333 284.658 597.312 284.658 608.562 284.711C619.812 284.763 635.333 284.867 654.24 284.92C673.146 284.971 695.438 284.971 717.834 285.127C740.23 285.283 762.73 285.596 777.86 285.883C792.99 286.17 800.75 286.43 808.511 286.69C809.812 278.826 811.115 270.961 812.6 261.978C814.083 252.993 815.75 242.889 817.261 233.046C818.771 223.202 820.125 213.618 820.906 205.181C821.687 196.743 821.896 189.452 821.843 183.15C821.792 176.847 821.479 171.535 820.854 166.9C820.229 162.265 819.292 158.306 817.886 154.609C816.479 150.91 814.604 147.472 812.312 144.297C810.021 141.119 807.312 138.203 803.511 135.285C799.708 132.369 794.812 129.453 790.49 127.109C786.167 124.765 782.417 122.994 779.234 122.067C776.051 121.14 773.436 121.057 770.82 120.974" fill="url(#LinearGradient_5)" fill-rule="nonzero" opacity="1" stroke="none" vectornator:layerName="path"/>
<path d="M468.193 114.846C465.329 116.971 462.467 119.096 459.628 122.189C456.79 125.282 453.978 129.345 452.154 132.888C450.332 136.429 449.498 139.45 449.082 142.158C448.665 144.866 448.665 147.263 449.029 150.126C449.394 152.991 450.123 156.325 451.217 160.387C452.31 164.45 453.769 169.241 456.373 175.595C458.978 181.95 462.728 189.866 466.791 197.314C470.853 204.763 475.228 211.742 479.551 218.252C483.873 224.764 488.145 230.804 492.26 236.064C496.374 241.326 500.332 245.804 504.499 250.283C508.666 254.763 513.041 259.242 517.208 262.888C521.374 266.533 525.333 269.346 529.708 271.846C534.083 274.346 538.874 276.533 544.604 278.357C550.333 280.18 556.999 281.638 563.614 282.627C570.229 283.617 576.792 284.138 583.562 284.398C590.333 284.658 597.312 284.658 608.562 284.711C619.812 284.763 635.333 284.867 654.24 284.92C673.146 284.971 695.438 284.971 717.834 285.127C740.23 285.283 762.73 285.596 777.86 285.883C792.99 286.17 800.75 286.43 808.511 286.69C809.812 278.826 811.115 270.961 812.6 261.978C814.083 252.993 815.75 242.889 817.261 233.046C818.771 223.202 820.125 213.618 820.906 205.181C821.687 196.743 821.896 189.452 821.843 183.15C821.792 176.847 821.479 171.535 820.854 166.9C820.229 162.265 819.292 158.306 817.886 154.609C816.479 150.91 814.604 147.472 812.312 144.297C810.021 141.119 807.312 138.203 803.511 135.285C799.708 132.369 794.812 129.453 790.49 127.109C786.167 124.765 782.417 122.994 779.234 122.067C776.051 121.14 773.436 121.057 770.82 120.974" fill="none" opacity="1" stroke="#000000" stroke-linecap="butt" stroke-linejoin="round" stroke-width="0.1625" vectornator:layerName="path"/>
<path d="M698.183 78.3891C696.267 79.6391 693.933 82.3053 692.35 85.5553C690.767 88.8053 689.933 92.6391 689.933 96.6393C689.933 100.639 690.767 104.805 692.1 107.555C693.433 110.305 695.267 111.639 697.517 112.721C699.767 113.805 702.433 114.639 706.35 114.889C710.267 115.139 715.433 114.805 719.6 114.139C723.767 113.471 726.933 112.471 729.267 111.055C731.6 109.639 733.1 107.805 734.183 105.889C735.267 103.971 735.933 101.971 736.267 100.389C736.6 98.8053 736.6 97.639 736.017 96.0553C735.433 94.4715 734.267 92.4715 731.85 90.2215C729.433 87.9715 725.767 85.4715 721.766 83.3053C717.766 81.1391 713.433 79.3053 710.266 78.3891C707.1 77.4716 705.1 77.4716 703.35 77.3891C701.6 77.3054 700.1 77.1391 698.183 78.3891" fill="#32353e" fill-rule="nonzero" opacity="1" stroke="none" vectornator:layerName="path"/>
<path d="M1149.28 196.786C1148.42 196.347 1145.64 195.869 1144.6 195.224C1136.26 190.085 1128.52 183.974 1120.53 178.349C1112.55 172.724 1106.3 167.447 1099.28 161.474C1096.01 158.691 1091.97 155.545 1088.66 152.411C1084.86 148.82 1081.8 145.222 1078.24 141.847C1083.1 142.89 1087.96 143.931 1091.37 144.591C1094.77 145.251 1096.71 145.528 1099.28 147.333C1101.85 149.14 1105.05 152.472 1109.42 156.987C1113.8 161.501 1119.35 167.195 1125.19 172.958C1131.02 178.722 1137.13 184.556 1141.19 188.538C1145.26 192.522 1147.27 194.653 1149.28 196.786L1149.28 196.786Z" fill="#949791" fill-rule="nonzero" opacity="1" stroke="#000000" stroke-linecap="butt" stroke-linejoin="round" stroke-width="0.062504" vectornator:layerName="path"/>
<path d="M1141.48 193.036C1138.22 194.792 1134.96 196.55 1131.86 197.775C1128.77 199.001 1125.86 199.695 1119.82 200.181C1113.77 200.667 1104.61 200.945 1095.16 200.876C1085.72 200.806 1076 200.39 1067.11 200.112C1058.22 199.834 1050.16 199.695 1042.11 199.556" fill="none" opacity="1" stroke="#000000" stroke-linecap="butt" stroke-linejoin="round" stroke-width="0.062504" vectornator:layerName="path"/>
<path d="M1222.68 256.226C1219.56 254.969 1213.31 254.552 1210.04 254.761C1206.78 254.969 1206.5 255.802 1206.36 263.719C1206.22 271.636 1206.22 286.637 1206.43 294.137C1206.64 301.637 1207.06 301.637 1209.35 302.469C1211.64 303.303 1215.81 304.969 1218.38 305.844C1220.95 306.72 1221.92 306.803 1222.58 303.929C1223.24 301.054 1223.59 295.22 1224.07 287.685C1224.56 280.15 1225.18 270.915 1225.5 265.247C1225.81 259.581 1225.81 257.483 1222.68 256.226" fill="#888282" fill-rule="nonzero" opacity="1" stroke="none" vectornator:layerName="path"/>
<path d="M1218.28 246.776C1217.1 247.192 1214.19 246.915 1210.92 246.29C1207.66 245.665 1204.05 244.692 1199.05 244.137C1194.05 243.581 1187.66 243.442 1183.56 243.095C1179.46 242.749 1177.66 242.192 1175.51 241.081C1173.35 239.97 1170.85 238.304 1168.7 236.081C1166.55 233.86 1164.74 231.081 1163.77 228.999C1162.8 226.915 1162.66 225.526 1163.14 224.624C1163.63 223.72 1164.74 223.304 1170.3 223.235C1175.85 223.165 1185.85 223.442 1192.8 223.86C1199.74 224.276 1203.63 224.831 1206.34 225.456C1209.05 226.081 1210.58 226.776 1211.89 227.748C1213.21 228.72 1214.33 229.97 1215.23 232.123C1216.13 234.276 1216.83 237.331 1217.31 239.485C1217.8 241.637 1218.08 242.887 1218.49 244.067C1218.91 245.248 1219.46 246.36 1218.28 246.776L1218.28 246.776Z" fill="#888282" fill-rule="nonzero" opacity="1" stroke="#000000" stroke-linecap="butt" stroke-linejoin="round" stroke-width="1.875" vectornator:layerName="path"/>
<path d="M1171.78 227.616C1176.78 227.616 1186.5 228.171 1191.71 228.587C1196.92 229.005 1197.62 229.282 1198.1 229.63C1198.59 229.976 1198.87 230.394 1199.28 232.476C1199.7 234.56 1200.25 238.31 1200.12 240.185C1199.98 242.06 1199.14 242.06 1195.81 241.921C1192.48 241.782 1186.64 241.505 1182.62 241.226C1178.59 240.949 1176.37 240.671 1174.63 239.769C1172.89 238.866 1171.64 237.337 1170.39 235.741C1169.14 234.144 1167.89 232.476 1167.2 231.296C1166.5 230.116 1166.37 229.421 1166.44 228.796C1166.5 228.171 1166.78 227.616 1171.78 227.616Z" fill="#ffffff" fill-rule="nonzero" opacity="1" stroke="#a6a6a6" stroke-linecap="butt" stroke-linejoin="round" stroke-width="0.062504" vectornator:layerName="path"/>
<path d="M1064.58 230.976C1061.25 224.144 1057.92 217.31 1053.66 211.06C1049.41 204.81 1044.25 199.144 1038.41 194.144C1032.58 189.144 1026.08 184.81 1017.91 180.894C1009.75 176.977 999.915 173.477 989.249 171.394C978.583 169.31 967.083 168.644 956.249 169.227C945.415 169.81 935.249 171.644 926.083 174.644C916.915 177.644 908.749 181.81 901.083 186.56C893.415 191.31 886.249 196.644 879.915 202.56C873.582 208.476 868.083 214.976 863.249 222.81C858.415 230.644 854.249 239.81 851.249 249.394C848.249 258.977 846.415 268.976 845.165 275.144C843.915 281.31 843.249 283.644 842.583 285.976" fill="none" opacity="1" stroke="#000000" stroke-linecap="butt" stroke-linejoin="round" stroke-width="0.050001" vectornator:layerName="path"/>
<path d="M1234.18 354.036C1226.37 352.474 1206.58 350.911 1174.29 349.61C1142 348.307 1097.2 347.266 1065.96 347.266C1034.71 347.266 1017 348.307 986.011 348.307C955.021 348.307 910.75 347.266 864.131 346.745C817.516 346.224 768.557 346.224 718.561 346.224L201.381 346.224C157.111 346.224 114.924 346.224 87.5808 346.485C60.2368 346.745 47.7368 347.266 39.4028 347.526C31.069 347.786 26.9028 347.786 24.2988 348.307C21.6938 348.828 20.6526 349.87 20.1313 350.651C19.6113 351.432 19.6113 351.954 23.2563 352.735C26.9025 353.516 34.1943 354.557 59.4553 355.079C84.7153 355.599 127.944 355.599 175.865 355.599L344.355 355.599C412.324 355.599 495.655 355.599 587.585 355.86C679.511 356.12 780.035 356.641 859.725 357.161C939.413 357.682 998.265 358.204 1046.97 358.724C1095.66 359.245 1134.2 359.766 1160.51 360.026C1186.81 360.286 1200.87 360.286 1211.03 360.026C1221.18 359.766 1227.43 359.245 1232.64 358.204C1237.85 357.161 1242.02 355.599 1234.2 354.036" fill="#32353e" fill-rule="nonzero" opacity="1" stroke="none" vectornator:layerName="path"/>
<path d="M965.873 214.826C993.798 214.826 1016.43 237.464 1016.43 265.387C1016.43 293.311 993.798 315.948 965.873 315.948C937.949 315.948 915.313 293.31 915.313 265.387C915.313 237.463 937.949 214.826 965.873 214.826" fill="url(#LinearGradient_6)" fill-rule="nonzero" opacity="1" stroke="none" vectornator:layerName="path"/>
<path d="M965.873 214.826C993.798 214.826 1016.43 237.464 1016.43 265.387C1016.43 293.311 993.798 315.948 965.873 315.948C937.949 315.948 915.313 293.31 915.313 265.387C915.313 237.463 937.949 214.826 965.873 214.826Z" fill="none" opacity="1" stroke="#35343c" stroke-linecap="butt" stroke-linejoin="round" stroke-width="0.11174" vectornator:layerName="path"/>
<path d="M938.103 302.236L937.73 220.668L930.654 220.668L913.893 238.919L914.266 284.73L927.675 301.862L938.104 302.235" fill="#d51319" fill-rule="nonzero" opacity="1" stroke="none" vectornator:layerName="path"/>
<path d="M965.873 189.126C1007.99 189.126 1042.13 223.268 1042.13 265.386C1042.13 307.504 1007.99 341.646 965.873 341.646C923.757 341.646 889.613 307.504 889.613 265.386C889.613 223.268 923.757 189.126 965.873 189.126ZM902.897 260.941L902.463 261.196L951.263 253.952L942.261 206.75C920.435 215.594 904.61 236.324 902.897 260.941L902.897 260.941ZM950.866 203.875L950.386 204.169L950.948 204.03L973.639 246.499L1014.35 224.935C1002.91 211.147 985.43 202.255 965.872 202.255C960.731 202.255 955.732 202.87 950.947 204.03L950.865 203.875L950.866 203.875ZM1020.06 297.819L1020.05 297.814C1025.73 288.337 1029 277.243 1029 265.386C1029 253.17 1025.53 241.764 1019.66 232.126L987.015 265.125L1020.05 297.814L1019.78 298.26L1020.05 297.819L1020.06 297.819ZM951.907 327.4L952.369 327.07C956.719 328.018 961.238 328.518 965.873 328.518C985.482 328.518 1003 319.578 1014.57 305.639L973.61 284.051L951.906 327.4L951.907 327.4ZM942.787 324.034L951.473 276.719L902.857 269.886C904.611 294.654 920.712 315.548 942.932 324.22L942.787 324.034" fill="url(#RadialGradient_2)" fill-rule="nonzero" opacity="1" stroke="none" vectornator:layerName="path"/>
<path d="M965.873 189.126C1007.99 189.126 1042.13 223.268 1042.13 265.386C1042.13 307.504 1007.99 341.646 965.873 341.646C923.757 341.646 889.613 307.504 889.613 265.386C889.613 223.268 923.757 189.126 965.873 189.126ZM902.897 260.941L902.463 261.196L951.263 253.952L942.261 206.75C920.435 215.594 904.61 236.324 902.897 260.941L902.897 260.941ZM950.866 203.875L950.386 204.169L950.948 204.03L973.639 246.499L1014.35 224.935C1002.91 211.147 985.43 202.255 965.872 202.255C960.731 202.255 955.732 202.87 950.947 204.03L950.865 203.875L950.866 203.875ZM1020.06 297.819L1020.05 297.814C1025.73 288.337 1029 277.243 1029 265.386C1029 253.17 1025.53 241.764 1019.66 232.126L987.015 265.125L1020.05 297.814L1019.78 298.26L1020.05 297.819L1020.06 297.819ZM951.907 327.4L952.369 327.07C956.719 328.018 961.238 328.518 965.873 328.518C985.482 328.518 1003 319.578 1014.57 305.639L973.61 284.051L951.906 327.4L951.907 327.4ZM942.787 324.034L951.473 276.719L902.857 269.886C904.611 294.654 920.712 315.548 942.932 324.22L942.787 324.034L942.787 324.034Z" fill="none" opacity="1" stroke="#15180f" stroke-linecap="butt" stroke-linejoin="round" stroke-width="0.062504" vectornator:layerName="path"/>
<path d="M986.033 253.296C986.722 255.632 985.385 258.086 983.048 258.774C980.712 259.462 978.258 258.126 977.57 255.789C976.882 253.452 978.218 250.999 980.555 250.311C982.892 249.622 985.344 250.959 986.033 253.296" fill="url(#RadialGradient_3)" fill-rule="nonzero" opacity="1" stroke="none" vectornator:layerName="path"/>
<path d="M985.073 272.976C985.762 275.314 984.425 277.766 982.088 278.455C979.752 279.142 977.298 277.806 976.61 275.47C975.922 273.132 977.258 270.68 979.595 269.991C981.932 269.302 984.384 270.639 985.073 272.976" fill="url(#RadialGradient_4)" fill-rule="nonzero" opacity="1" stroke="none" vectornator:layerName="path"/>
<path d="M966.423 279.906C967.112 282.242 965.775 284.696 963.438 285.384C961.102 286.072 958.648 284.736 957.96 282.399C957.272 280.062 958.608 277.61 960.945 276.921C963.282 276.232 965.734 277.569 966.423 279.906" fill="url(#RadialGradient_5)" fill-rule="nonzero" opacity="1" stroke="none" vectornator:layerName="path"/>
<path d="M953.933 262.896C954.622 265.232 953.285 267.685 950.948 268.374C948.612 269.062 946.159 267.726 945.47 265.389C944.782 263.052 946.118 260.599 948.455 259.911C950.792 259.222 953.245 260.559 953.933 262.896" fill="url(#RadialGradient_6)" fill-rule="nonzero" opacity="1" stroke="none" vectornator:layerName="path"/>
<path d="M966.373 246.576C967.06 248.914 965.724 251.366 963.388 252.055C961.05 252.744 958.598 251.407 957.909 249.07C957.22 246.732 958.558 244.28 960.894 243.591C963.232 242.904 965.684 244.24 966.373 246.576" fill="url(#RadialGradient_7)" fill-rule="nonzero" opacity="1" stroke="none" vectornator:layerName="path"/>
<path d="M974.383 262.886C975.668 267.247 973.174 271.824 968.813 273.108C964.453 274.392 959.875 271.898 958.592 267.538C957.307 263.177 959.801 258.601 964.161 257.316C968.522 256.032 973.098 258.526 974.383 262.886" fill="url(#RadialGradient_8)" fill-rule="nonzero" opacity="1" stroke="none" vectornator:layerName="path"/>
<path d="M965.873 172.686C914.679 172.686 873.177 214.187 873.177 265.382C873.177 316.577 914.679 358.078 965.873 358.078C1017.07 358.078 1058.57 316.577 1058.57 265.382C1058.57 214.187 1017.07 172.686 965.873 172.686ZM965.873 189.121C1007.99 189.121 1042.13 223.265 1042.13 265.382C1042.13 307.5 1007.99 341.643 965.873 341.643C923.755 341.643 889.613 307.499 889.613 265.382C889.613 223.264 923.755 189.121 965.873 189.121Z" fill="#2f2f2f" fill-rule="nonzero" opacity="1" stroke="#15180f" stroke-linecap="butt" stroke-linejoin="round" stroke-width="0.125" vectornator:layerName="path"/>
<path d="M278.513 313.616C250.589 313.616 227.953 290.978 227.953 263.055C227.953 235.131 250.589 212.494 278.513 212.494C306.437 212.494 329.074 235.132 329.074 263.055C329.074 290.979 306.436 313.616 278.513 313.616" fill="url(#LinearGradient_7)" fill-rule="nonzero" opacity="1" stroke="none" vectornator:layerName="path"/>
<path d="M278.513 313.616C250.589 313.616 227.953 290.978 227.953 263.055C227.953 235.131 250.589 212.494 278.513 212.494C306.437 212.494 329.074 235.132 329.074 263.055C329.074 290.979 306.436 313.616 278.513 313.616Z" fill="none" opacity="1" stroke="#35343c" stroke-linecap="butt" stroke-linejoin="round" stroke-width="0.11174" vectornator:layerName="path"/>
<path d="M306.283 226.206L306.655 307.774L313.732 307.774L330.492 289.524L330.119 243.712L316.711 226.58L306.282 226.208" fill="#d51319" fill-rule="nonzero" opacity="1" stroke="none" vectornator:layerName="path"/>
<path d="M278.513 339.316C236.395 339.316 202.253 305.174 202.253 263.056C202.253 220.938 236.395 186.796 278.513 186.796C320.631 186.796 354.773 220.938 354.773 263.056C354.773 305.174 320.63 339.316 278.513 339.316ZM341.491 267.501L341.923 267.246L293.123 274.491L302.126 321.692C323.952 312.848 339.778 292.118 341.491 267.501ZM293.521 324.567L294.002 324.273L293.438 324.412L270.748 281.944L230.037 303.506C241.477 317.294 258.957 326.186 278.513 326.186C283.655 326.186 288.653 325.571 293.438 324.411L293.521 324.566L293.521 324.567ZM224.331 230.623L224.336 230.628C218.651 240.106 215.382 251.199 215.382 263.056C215.382 275.272 218.852 286.678 224.725 296.316L257.369 263.317L224.337 230.628L224.607 230.182L224.332 230.623L224.331 230.623ZM292.481 201.042L292.018 201.372C287.667 200.425 283.148 199.925 278.513 199.925C258.904 199.925 241.384 208.865 229.818 222.804L270.777 244.392L292.481 201.043L292.481 201.042ZM301.601 204.408L292.915 251.723L341.531 258.557C339.776 233.788 323.675 212.893 301.456 204.222L301.601 204.408" fill="url(#RadialGradient_9)" fill-rule="nonzero" opacity="1" stroke="none" vectornator:layerName="path"/>
<path d="M278.513 339.316C236.395 339.316 202.253 305.174 202.253 263.056C202.253 220.938 236.395 186.796 278.513 186.796C320.631 186.796 354.773 220.938 354.773 263.056C354.773 305.174 320.63 339.316 278.513 339.316ZM341.491 267.501L341.923 267.246L293.123 274.491L302.126 321.692C323.952 312.848 339.778 292.118 341.491 267.501ZM293.521 324.567L294.002 324.273L293.438 324.412L270.748 281.944L230.037 303.506C241.477 317.294 258.957 326.186 278.513 326.186C283.655 326.186 288.653 325.571 293.438 324.411L293.521 324.566L293.521 324.567ZM224.331 230.623L224.336 230.628C218.651 240.106 215.382 251.199 215.382 263.056C215.382 275.272 218.852 286.678 224.725 296.316L257.369 263.317L224.337 230.628L224.607 230.182L224.332 230.623L224.331 230.623ZM292.481 201.042L292.018 201.372C287.667 200.425 283.148 199.925 278.513 199.925C258.904 199.925 241.384 208.865 229.818 222.804L270.777 244.392L292.481 201.043L292.481 201.042ZM301.601 204.408L292.915 251.723L341.531 258.557C339.776 233.788 323.675 212.893 301.456 204.222L301.601 204.408L301.601 204.408Z" fill="none" opacity="1" stroke="#15180f" stroke-linecap="butt" stroke-linejoin="round" stroke-width="0.062504" vectornator:layerName="path"/>
<path d="M258.353 275.146C257.665 272.81 259.002 270.357 261.338 269.669C263.675 268.98 266.128 270.316 266.817 272.654C267.505 274.99 266.169 277.444 263.832 278.131C261.494 278.82 259.042 277.484 258.353 275.146" fill="url(#RadialGradient_10)" fill-rule="nonzero" opacity="1" stroke="none" vectornator:layerName="path"/>
<path d="M259.313 255.466C258.624 253.129 259.962 250.676 262.298 249.987C264.635 249.3 267.088 250.636 267.777 252.972C268.465 255.31 267.129 257.762 264.792 258.451C262.454 259.14 260.002 257.804 259.313 255.466" fill="url(#RadialGradient_11)" fill-rule="nonzero" opacity="1" stroke="none" vectornator:layerName="path"/>
<path d="M277.963 248.526C277.275 246.19 278.612 243.737 280.948 243.049C283.285 242.36 285.738 243.696 286.427 246.034C287.115 248.37 285.779 250.822 283.442 251.511C281.104 252.2 278.652 250.864 277.963 248.526" fill="url(#RadialGradient_12)" fill-rule="nonzero" opacity="1" stroke="none" vectornator:layerName="path"/>
<path d="M290.443 265.546C289.754 263.21 291.092 260.757 293.428 260.069C295.765 259.38 298.218 260.716 298.907 263.054C299.595 265.391 298.258 267.844 295.922 268.531C293.584 269.22 291.132 267.884 290.443 265.546" fill="url(#RadialGradient_13)" fill-rule="nonzero" opacity="1" stroke="none" vectornator:layerName="path"/>
<path d="M278.003 281.856C277.314 279.519 278.65 277.066 280.988 276.377C283.325 275.689 285.778 277.026 286.465 279.362C287.154 281.7 285.818 284.152 283.48 284.841C281.144 285.53 278.692 284.192 278.003 281.856" fill="url(#RadialGradient_14)" fill-rule="nonzero" opacity="1" stroke="none" vectornator:layerName="path"/>
<path d="M270.003 265.556C268.718 261.195 271.212 256.619 275.572 255.334C279.933 254.05 284.509 256.544 285.794 260.904C287.079 265.265 284.585 269.842 280.224 271.126C275.864 272.41 271.286 269.917 270.003 265.556" fill="url(#RadialGradient_15)" fill-rule="nonzero" opacity="1" stroke="none" vectornator:layerName="path"/>
<path d="M278.513 355.756C329.708 355.756 371.209 314.255 371.209 263.06C371.209 211.865 329.708 170.364 278.513 170.364C227.318 170.364 185.817 211.865 185.817 263.06C185.817 314.255 227.318 355.756 278.513 355.756ZM278.513 339.321C236.395 339.321 202.252 305.177 202.252 263.06C202.252 220.942 236.396 186.799 278.513 186.799C320.631 186.799 354.774 220.943 354.774 263.06C354.774 305.178 320.63 339.321 278.513 339.321Z" fill="#2f2f2f" fill-rule="nonzero" opacity="1" stroke="#15180f" stroke-linecap="butt" stroke-linejoin="round" stroke-width="0.125" vectornator:layerName="path"/>
<path d="M432.603 57.4721C418.603 60.9721 404.603 64.4721 389.435 68.7221C374.269 72.9721 357.935 77.9721 346.519 81.6401C335.103 85.3063 328.603 87.6401 325.519 88.8901C322.435 90.1401 322.769 90.3063 323.519 90.9726C324.269 91.6401 325.435 92.8064 327.269 93.5564C329.103 94.3064 331.603 94.6402 333.019 95.1402C334.435 95.6402 334.769 96.3064 335.435 97.2227C336.103 98.1402 337.103 99.3065 338.019 100.14C338.935 100.973 339.769 101.473 340.185 101.723C340.603 101.973 340.603 101.973 354.185 102.723C367.769 103.473 394.935 104.973 413.019 106.056C431.103 107.14 440.103 107.806 449.103 108.473L432.603 57.4727" fill="#eae7ea" fill-rule="nonzero" opacity="1" stroke="none" vectornator:layerName="path"/>
<path d="M312.863 102.666C312.065 103.031 302.691 102.094 295.551 101.302C288.411 100.51 283.506 99.8636 279.553 99.0823C275.6 98.301 272.6 97.3848 270.35 96.5511C268.1 95.7173 266.6 94.9673 265.808 93.7173C265.017 92.4673 264.933 90.7173 265.683 88.9261C266.433 87.1349 268.017 85.3011 270.1 83.4673C272.183 81.6348 274.767 79.8011 278.308 77.8848C281.85 75.9673 286.35 73.9673 289.808 72.3848C293.267 70.801 295.683 69.6348 296.6 69.3848C297.517 69.1348 296.933 69.801 295.433 71.1348C293.933 72.4673 291.517 74.4673 289.517 76.4673C287.517 78.4673 285.933 80.4673 284.892 82.3423C283.85 84.2173 283.35 85.9673 283.267 87.6761C283.183 89.3849 283.517 91.0511 284.392 92.3423C285.267 93.6348 286.683 94.5511 289.058 95.5923C291.433 96.6348 294.767 97.8011 300.323 99.2173C305.88 100.635 313.661 102.301 312.863 102.666" fill="#3e4147" fill-rule="nonzero" opacity="1" stroke="none" vectornator:layerName="path"/>
<path d="M424.103 30.0981L449.103 108.348" fill="#3e4147" fill-rule="nonzero" opacity="1" stroke="#000000" stroke-linecap="butt" stroke-linejoin="round" stroke-width="0.25" vectornator:layerName="path"/>
<path d="M446.353 26.8481L475.853 112.848" fill="#3e4147" fill-rule="nonzero" opacity="1" stroke="#000000" stroke-linecap="butt" stroke-linejoin="round" stroke-width="0.25" vectornator:layerName="path"/>
<path d="M832.923 117.776C834.45 116.619 835.979 115.461 837.124 114.189C838.27 112.915 839.034 111.526 839.417 110.254C839.798 108.98 839.798 107.822 839.798 106.665" fill="none" opacity="1" stroke="#000000" stroke-linecap="butt" stroke-linejoin="round" stroke-width="2.465" vectornator:layerName="path"/>
<path d="M833.903 315.246C812.098 314.135 768.764 313.301 723.903 312.746C679.042 312.19 632.653 311.912 589.873 312.467C547.095 313.024 507.928 314.412 478.903 314.829C449.875 315.246 430.987 314.69 416.821 313.857C402.653 313.024 393.21 311.912 388.21 312.328C383.21 312.746 382.654 314.69 382.237 316.912C381.821 319.135 381.542 321.635 381.876 323.877C382.21 326.121 383.154 328.107 389.531 329.207C395.909 330.308 407.719 330.522 436.691 329.53C465.662 328.536 511.797 326.336 554.031 325.096C596.265 323.856 634.599 323.578 669.181 324.273C703.765 324.967 734.599 326.635 760.849 327.885C787.099 329.135 808.765 329.967 823.314 330.6C837.863 331.232 845.293 331.662 849.425 330.941C853.556 330.218 854.39 328.343 854.98 326.183C855.571 324.023 855.918 321.578 855.953 319.662C855.988 317.746 855.71 316.357 833.904 315.246L833.903 315.246Z" fill="#5d5b60" fill-rule="nonzero" opacity="1" stroke="#000000" stroke-linecap="butt" stroke-linejoin="round" stroke-width="0.062504" vectornator:layerName="path"/>
<path d="M383.103 328.596C424.827 328.326 466.552 328.056 500.553 327.314C534.553 326.57 560.828 325.354 587.924 324.926C615.02 324.499 642.936 324.86 670.02 325.561C697.104 326.262 723.354 327.305 748.041 328.45C772.729 329.596 795.853 330.846 812.311 331.43C828.77 332.012 838.561 331.93 848.353 331.846" fill="none" opacity="1" stroke="#000000" stroke-linecap="butt" stroke-linejoin="round" stroke-width="2.5" vectornator:layerName="path"/>
<path d="M48.5978 264.976C40.4303 264.31 32.2638 263.644 25.7638 263.06C19.2638 262.476 14.4298 261.976 9.59782 261.476C10.0978 262.644 10.5978 263.81 11.7641 264.726C12.9303 265.644 14.7641 266.31 18.1803 266.81C21.5978 267.31 26.5978 267.644 30.8483 267.894C35.0983 268.144 38.5983 268.31 40.5983 268.394C42.5983 268.476 43.0983 268.476 44.1808 267.894C45.2646 267.31 46.9308 266.144 48.5983 264.976L48.5978 264.976Z" fill="#afb2af" fill-rule="nonzero" opacity="1" stroke="#000000" stroke-linecap="butt" stroke-linejoin="round" stroke-width="0.062504" vectornator:layerName="path"/>
<path d="M185.103 204.596C157.714 204.444 130.326 204.29 106.908 204.352C83.4918 204.415 64.0468 204.692 49.1848 204.831C34.3248 204.97 24.0458 204.97 13.7688 204.97" fill="none" opacity="1" stroke="#000000" stroke-linecap="butt" stroke-linejoin="round" stroke-width="0.062504" vectornator:layerName="path"/>
<path d="M273.763 118.306C253.208 119.695 232.652 121.084 211.819 122.611C190.985 124.14 169.874 125.806 153.624 127.334C137.374 128.861 125.985 130.251 117.929 131.084C109.874 131.917 105.151 132.195 101.958 131.501C98.7628 130.806 97.0965 129.14 95.569 127.751C94.0402 126.361 92.6515 125.251 91.2628 124.14C100.708 122.472 110.152 120.806 122.374 119.695C134.596 118.584 149.596 118.029 165.29 117.472C180.985 116.917 197.374 116.361 210.846 115.529C224.318 114.695 234.874 113.584 241.818 113.584C248.762 113.584 252.096 114.695 256.818 115.667C261.539 116.64 267.65 117.472 273.762 118.306" fill="#c6cfd8" fill-rule="nonzero" opacity="1" stroke="none" vectornator:layerName="path"/>
<path d="M1215.08 257.476C1214.92 261.81 1214.75 266.144 1213.92 271.81C1213.08 277.476 1211.58 284.476 1210.42 289.31C1209.25 294.144 1208.42 296.81 1207.58 299.476C1207.75 294.31 1207.92 289.144 1207.75 283.476C1207.58 277.81 1207.08 271.644 1206.92 266.81C1206.75 261.976 1206.92 258.476 1207.33 256.56C1207.75 254.644 1208.42 254.31 1209.08 254.476C1209.75 254.644 1210.42 255.31 1211.42 255.894C1212.42 256.476 1213.75 256.976 1215.08 257.476" fill="#2e2d35" fill-rule="nonzero" opacity="1" stroke="none" vectornator:layerName="path"/>
<path d="M1080.88 142.786C1085.26 147.37 1089.63 151.954 1095.62 157.161C1101.61 162.37 1109.22 168.203 1115.31 172.735C1121.4 177.266 1125.99 180.495 1130.21 183.411C1134.42 186.329 1138.28 188.932 1142.13 191.536" fill="none" opacity="1" stroke="#000000" stroke-linecap="butt" stroke-linejoin="round" stroke-width="2.5" vectornator:layerName="path"/>
<path d="M1207.68 247.476C1194.56 247.476 1181.43 247.476 1167.16 247.269C1152.89 247.06 1137.47 246.644 1128.52 246.226C1119.56 245.81 1117.06 245.394 1114.56 244.976" fill="none" opacity="1" stroke="#323535" stroke-linecap="butt" stroke-linejoin="round" stroke-width="0.062504" vectornator:layerName="path"/>
<path d="M1226.08 315.226C1222.75 314.914 1219.42 314.601 1215.3 313.976C1211.19 313.351 1206.29 312.414 1193.79 310.799C1181.29 309.185 1161.19 306.892 1140.23 304.56C1119.27 302.226 1097.46 299.851 1075.65 297.476C1075.06 302.601 1074.48 307.726 1073.51 312.924C1072.54 318.123 1071.19 323.393 1070.09 327.33C1069 331.267 1068.17 333.872 1067.33 336.476C1071.6 336.164 1075.87 335.851 1081.45 335.122C1087.02 334.392 1093.9 333.247 1101.08 332.31C1108.27 331.372 1115.77 330.642 1122.65 330.122C1129.52 329.601 1135.77 329.289 1143.22 328.664C1150.67 328.039 1159.31 327.101 1166.66 326.476C1174 325.851 1180.04 325.539 1185.3 325.174C1190.56 324.81 1195.04 324.392 1199.49 324.185C1203.95 323.976 1208.37 323.976 1212.02 323.404C1215.67 322.83 1218.53 321.685 1220.54 320.539C1222.54 319.392 1223.69 318.247 1224.47 317.361C1225.25 316.476 1225.67 315.851 1226.08 315.226L1226.08 315.226Z" fill="#605e63" fill-rule="nonzero" opacity="1" stroke="none" vectornator:layerName="path"/>
<path d="M1223.38 315.046C1220.54 315.255 1213.59 314.699 1201.92 313.38C1190.26 312.06 1173.87 309.976 1158.17 308.171C1142.48 306.365 1127.48 304.837 1115.74 303.866C1104.01 302.894 1095.54 302.476 1091.02 301.851C1086.51 301.226 1085.95 300.394 1086.16 299.491C1086.37 298.587 1087.34 297.615 1089.49 296.99C1091.65 296.365 1094.98 296.087 1105.12 296.296C1115.26 296.505 1132.2 297.199 1147.48 298.101C1162.76 299.005 1176.37 300.115 1184.7 301.087C1193.04 302.06 1196.09 302.894 1199.98 304.074C1203.87 305.255 1208.59 306.782 1212.69 308.31C1216.79 309.837 1220.26 311.365 1222.62 312.615C1224.98 313.865 1226.23 314.837 1223.38 315.046L1223.38 315.046Z" fill="#ffffff" fill-rule="nonzero" opacity="1" stroke="#6e6e6e" stroke-linecap="butt" stroke-linejoin="round" stroke-width="0.062504" vectornator:layerName="path"/>
<path d="M11.2988 290.566C10.9863 291.711 11.1251 294.072 11.2638 295.774C11.4026 297.475 11.5413 298.517 12.1326 299.246C12.7226 299.975 13.7638 300.392 17.9301 301.33C22.0976 302.267 29.3891 303.725 41.8201 305.879C54.2501 308.031 71.8201 310.879 82.7911 312.58C93.7631 314.281 98.1391 314.836 104.459 315.496C110.778 316.156 119.041 316.92 124.667 317.302C130.292 317.684 133.278 317.684 134.806 317.615C136.335 317.545 136.404 317.406 136.647 317.059C136.89 316.711 137.306 316.156 138.001 314.767C138.696 313.379 139.667 311.156 140.05 308.76C140.431 306.365 140.224 303.795 139.39 301.642C138.556 299.49 137.099 297.754 135.814 296.504C134.529 295.254 133.417 294.49 132.411 294.037C131.404 293.586 130.501 293.447 113.8 292.51C97.0992 291.572 64.5992 289.836 47.8272 289.037C31.0562 288.24 30.0152 288.379 29.1812 288.621C28.3487 288.864 27.7237 289.211 27.0637 289.455C26.4037 289.697 25.7099 289.836 24.2862 289.975C22.8624 290.115 20.71 290.254 18.73 290.184C16.7512 290.114 14.9462 289.836 13.6612 289.662C12.3762 289.49 11.6124 289.42 11.3 290.566" fill="url(#RadialGradient_16)" fill-rule="nonzero" opacity="1" stroke="none" vectornator:layerName="path"/>
<path d="M11.2988 290.566C10.9863 291.711 11.1251 294.072 11.2638 295.774C11.4026 297.475 11.5413 298.517 12.1326 299.246C12.7226 299.975 13.7638 300.392 17.9301 301.33C22.0976 302.267 29.3891 303.725 41.8201 305.879C54.2501 308.031 71.8201 310.879 82.7911 312.58C93.7631 314.281 98.1391 314.836 104.459 315.496C110.778 316.156 119.041 316.92 124.667 317.302C130.292 317.684 133.278 317.684 134.806 317.615C136.335 317.545 136.404 317.406 136.647 317.059C136.89 316.711 137.306 316.156 138.001 314.767C138.696 313.379 139.667 311.156 140.05 308.76C140.431 306.365 140.224 303.795 139.39 301.642C138.556 299.49 137.099 297.754 135.814 296.504C134.529 295.254 133.417 294.49 132.411 294.037C131.404 293.586 130.501 293.447 113.8 292.51C97.0992 291.572 64.5992 289.836 47.8272 289.037C31.0562 288.24 30.0152 288.379 29.1812 288.621C28.3487 288.864 27.7237 289.211 27.0637 289.455C26.4037 289.697 25.7099 289.836 24.2862 289.975C22.8624 290.115 20.71 290.254 18.73 290.184C16.7512 290.114 14.9462 289.836 13.6612 289.662C12.3762 289.49 11.6124 289.42 11.3 290.566L11.2988 290.566Z" fill="none" opacity="1" stroke="#000000" stroke-linecap="butt" stroke-linejoin="round" stroke-width="0.062504" vectornator:layerName="path"/>
<path d="M509.913 151.746C507.517 151.017 503.245 149.871 497.725 148.986C492.204 148.1 485.433 147.475 480.016 147.111C474.6 146.746 470.537 146.642 467.516 147.162C464.495 147.684 462.516 148.83 461.37 150.236C460.225 151.642 459.912 153.309 459.912 154.871C459.912 156.434 460.225 157.892 460.797 159.299C461.37 160.705 462.203 162.059 463.245 163.309C464.287 164.559 465.537 165.705 467.203 166.537C468.87 167.371 470.953 167.892 474.338 168.309C477.725 168.725 482.412 169.037 488.037 169.09C493.662 169.142 500.225 168.934 504.599 168.517C508.974 168.1 511.162 167.475 512.984 166.746C514.807 166.017 516.266 165.184 517.256 164.194C518.244 163.205 518.766 162.059 518.766 160.861C518.766 159.662 518.244 158.412 517.463 157.319C516.682 156.225 515.641 155.288 514.912 154.611C514.182 153.934 513.766 153.517 513.297 153.152C512.828 152.787 512.307 152.475 509.912 151.746L509.913 151.746Z" fill="#f3f4f9" fill-rule="nonzero" opacity="1" stroke="#4d5050" stroke-linecap="butt" stroke-linejoin="round" stroke-width="0.050001" vectornator:layerName="path"/>
<path d="M511.783 158.726C506.158 158.101 500.533 157.476 495.272 157.216C490.012 156.956 485.116 157.06 481.106 157.269C477.096 157.476 473.971 157.789 470.846 158.101C471.991 159.456 473.137 160.81 474.283 161.851C475.428 162.894 476.575 163.622 478.502 164.247C480.428 164.872 483.137 165.393 486.366 165.653C489.596 165.913 493.346 165.913 496.991 165.706C500.637 165.497 504.178 165.081 506.575 164.716C508.971 164.351 510.221 164.038 511.002 163.31C511.783 162.581 512.096 161.435 512.147 160.601C512.2 159.768 511.991 159.247 511.783 158.726" fill="#4d4d55" fill-rule="nonzero" opacity="1" stroke="none" vectornator:layerName="path"/>
<g opacity="1" vectornator:layerName="g3795">
<path d="M1051.19 51.2032L996.989 54.2467L994.236 57.2984L989.168 57.6409L985.568 55.6328L968.635 56.3881L960.381 59.8564L954.372 59.9628L948.858 58.4304L943.913 58.5925L939.781 61.4825L930.951 61.9143L928.829 59.6931L921.661 59.7459L920.566 58.532L904.377 59.4445C899.306 59.4818 887.659 68.6821 887.678 71.2861C887.533 75.3562 900.355 83.2372 904.549 82.8808L922.608 83.6228L924.033 81.1506L931.198 80.6096L934.277 83.2522L942.426 82.704L945.295 80.5059L949.427 80.679L952.998 84.8845L968.675 85.5423L971.254 82.5529L976.915 82.6537L981.486 86.0584L986.974 86.2825L991.998 82.909L994.167 86.5958L1051.47 88.9616L1051.19 51.2032Z" fill="#747d80" fill-rule="nonzero" opacity="1" stroke="none" vectornator:layerName="path"/>
<path d="M1044.49 69.9293C1044.41 69.2591 1043.79 68.7603 1043.06 68.7801L888.171 70.0415C887.851 70.5355 887.676 70.9641 887.678 71.2861C887.663 71.703 887.804 72.1628 888.038 72.6466L1043.08 71.3841C1043.48 71.3893 1043.87 71.2324 1044.14 70.9538C1044.41 70.6751 1044.54 70.3018 1044.49 69.9293Z" fill="#4c5254" fill-rule="nonzero" opacity="1" stroke="none" vectornator:layerName="path"/>
<path d="M1181.88 64.4428C1181.61 41.1346 1178.69 18.9599 1172.62 14.5026C1159.67 4.9939 1077.81 7.14984 1055.94 30.9859C1034.08 54.822 1034.3 85.595 1056.52 109.107C1078.73 132.619 1162.72 133.555 1173.43 123.872C1179.11 118.728 1182.2 90.8586 1181.88 64.4428ZM1176.36 47.0273L1176.69 91.9468C1176.71 94.8321 1174.23 97.1733 1171.13 97.1961L1163.79 97.2501C1160.69 97.2729 1158.18 94.9684 1158.15 92.0832L1157.82 47.1636C1157.8 44.2784 1160.28 41.9372 1163.38 41.9144L1170.72 41.8604C1173.82 41.8376 1176.34 44.142 1176.36 47.0273Z" fill="#2d2d2d" fill-rule="nonzero" opacity="1" stroke="none" vectornator:layerName="path"/>
<path d="M1190.99 65.7593C1190.78 49.2816 1188.48 33.6005 1183.67 30.4533C1173.4 23.7393 1108.45 25.3168 1091.08 42.1817C1073.72 59.0467 1073.88 80.7876 1091.49 97.3953C1109.1 114.003 1175.73 114.613 1184.24 107.761C1188.75 104.12 1191.22 84.4339 1190.99 65.7593ZM1174.75 69.4798C1174.88 76.8664 1173.54 84.1149 1170.41 91.0775C1169.85 92.3965 1168.57 93.3321 1167.06 93.5225C1165.56 93.713 1164.05 93.1284 1163.14 91.9949C1162.23 90.8614 1162.05 89.3565 1162.67 88.0623C1168.01 76.1865 1167.42 63.462 1162.26 49.5318C1161.5 47.4923 1162.66 45.2658 1164.85 44.5586C1167.05 43.8515 1169.44 44.9315 1170.19 46.9709C1173.01 54.559 1174.62 62.0931 1174.75 69.4798Z" fill="#707070" fill-rule="nonzero" opacity="1" stroke="none" vectornator:layerName="path"/>
</g>
</g>
</svg>
