<svg id="Capa_1" enable-background="new 0 0 511.955 511.955" height="512" viewBox="0 0 511.955 511.955" width="512" xmlns="http://www.w3.org/2000/svg"><g><g><path d="m255.978 262.455 10.234 46.223-10.234 57.717c-8.28 0-15-6.72-15-15v-75.54z" fill="#29cc95"/></g><path d="m270.978 275.855v75.54c0 8.28-6.72 15-15 15v-103.94z" fill="#1f9970"/><g><path d="m194.364 366.393c-7.195 0-13.548-5.191-14.776-12.523l-17.169-102.466c-1.369-8.17 4.145-15.903 12.315-17.272 8.18-1.37 15.903 4.146 17.272 12.315l17.169 102.466c1.369 8.17-4.145 15.903-12.315 17.272-.838.14-1.673.208-2.496.208z" fill="#29cc95"/></g><g><path d="m317.593 366.393c-.824 0-1.658-.067-2.497-.208-8.171-1.369-13.685-9.103-12.315-17.272l17.168-102.466c1.369-8.169 9.104-13.682 17.272-12.315 8.171 1.369 13.685 9.103 12.315 17.272l-17.168 102.466c-1.228 7.33-7.581 12.523-14.775 12.523z" fill="#14664a"/></g><g><path d="m216.688 221.425c-15.13 22.19-35.42 47.21-60.3 74.38-12.327 13.557-30.663 19.069-48.12 15.03-17.79-4.06-31.57-16.93-36.84-34.41-10.99-36.4-18.55-68.59-22.47-95.68-5.81-40.09-3.46-67.96 7.19-85.2 9.89-16.02 23.32-25.92 39.92-29.4 31.75-6.67 63.21 13.42 69.49 17.74 2.43 1.62 4.41 3.96 5.58 6.86l47.07 116.62c1.88 4.64 1.31 9.92-1.52 14.06z" fill="#1f9970"/></g><g><path d="m462.998 180.745c-3.92 27.09-11.48 59.28-22.47 95.68-5.27 17.48-19.05 30.35-36.84 34.41-17.458 4.04-35.792-1.473-48.12-15.03-24.88-27.17-45.17-52.19-60.3-74.38-2.83-4.14-3.4-9.42-1.52-14.07l46.66-115.47c.02-.04.03-.09.04-.14 1.18-3.64 3.61-6.52 6.67-8.32 6.19-4.16 37.26-23.63 68.27-17.39 16.59 3.34 30.57 13.54 40.42 29.51 10.65 17.24 13 45.11 7.19 85.2z" fill="#0f4d38"/></g><g><path d="m255.978 30.345 49.924 83.393-49.924 140.807s-10.21 22.61-15 21.31c-14.13-3.85-26.19-13.12-33.74-26.38-14.99-26.35-27.64-50.87-37.82-73.25-1.85-4.08 8.44-25.12 8.44-25.12s-18.74 1.19-20.93-4.51c-.01-.02-.02-.04-.02-.06-16.8-43.59-21.36-75.38-13.91-97.2 6.95-20.36 19.42-34.71 37.05-42.64 20.87-9.39 44.46-7.22 60.93-3.61 6.18 1.35 15 27.26 15 27.26z" fill="#29cc95"/></g><path d="m355.048 146.535c0 .02-.01.04-.02.06-1.01 2.62-20.94 2.59-20.94 2.59s11.83 19.58 8.44 27.04c-10.17 22.38-22.82 46.9-37.81 73.25-7.55 13.26-19.61 22.53-33.74 26.38-4.79 1.3-15-21.31-15-21.31v-224.2s8.82-25.91 15-27.26c16.46-3.61 40.05-5.78 60.93 3.61 17.63 7.93 30.1 22.28 37.05 42.65 7.45 21.81 2.89 53.6-13.91 97.19z" fill="#1f9970"/><g><path d="m255.978 336.395 49.924 93.77-49.924 66.82h-101.91c-23.21-15.71-38.49-42.29-38.49-72.36v-73.23c0-8.29 6.72-15 15-15z" fill="#b35324"/></g><path d="m396.378 351.395v73.23c0 30.07-15.28 56.65-38.49 72.36h-101.91v-160.59h125.4c8.29 0 15 6.71 15 15z" fill="#99341f"/><g><path d="m255.978 481.955 18.744 10.404-18.744 19.596h-149.37c-8.29 0-15-6.72-15-15s6.71-15 15-15z" fill="#99341f"/></g><path d="m420.348 496.955c0 8.28-6.71 15-15 15h-149.37v-30h149.37c8.289 0 15 6.72 15 15z" fill="#662314"/><path d="m255.978 7.225 13.055 78.775-13.056 191.835c-5.17 0-10.21-.68-15-1.98v-169.38l-71.56 69.75c-4.69-10.35-8.87-20.23-12.49-29.63-.01-.02-.02-.04-.02-.06l84.07-81.95v-61.5c6.181 1.35 11.351 2.91 15.001 4.14z" fill="#e1ff4d"/><path d="m355.048 146.535c0 .02-.01.04-.02.06-3.62 9.4-7.8 19.28-12.5 29.63l-71.55-69.75v169.38c-4.79 1.3-9.83 1.98-15 1.98v-270.61c3.65-1.23 8.82-2.79 15-4.14v61.5z" fill="#a8e62e"/></g></svg>