<svg height="512" viewBox="0 0 64 64" width="512" xmlns="http://www.w3.org/2000/svg"><g id="Layer_32" data-name="Layer 32"><path d="m20 28.064v3.936l-10.41 3.47a11.1 11.1 0 0 0 -7.59 10.53v16h44v-16a11.1 11.1 0 0 0 -7.59-10.53l-10.41-3.47v-3.936z" fill="#52a04f"/><path d="m38.411 35.47-10.411-3.47v-3.936h-8v3.936l-10.411 3.47a11.084 11.084 0 0 0 -3.262 1.743 11.078 11.078 0 0 0 -2.327 6.787 16 16 0 0 0 16 16h26v-14a11.1 11.1 0 0 0 -7.589-10.53z" fill="#5bb162"/><path d="m10 62v-26.667l6-2v15.667h16v-15.666l6 2v26.666z" fill="#728a93"/><path d="m10 49h28v13h-28z" fill="#1d549c"/><path d="m10 56.479a15.921 15.921 0 0 0 10 3.521h18v-11h-28z" fill="#2967aa"/><path d="m15.055 21h-1.055a3 3 0 0 1 -3-3 3 3 0 0 1 3-3h20a3 3 0 0 1 3 3 3 3 0 0 1 -3 3h-1.055" fill="#d3a59f"/><circle cx="47" cy="47" fill="#53bded" r="15"/><path d="m47 32a14.982 14.982 0 0 0 -11.083 25.083 14.982 14.982 0 0 0 21.166-21.166 14.926 14.926 0 0 0 -10.083-3.917z" fill="#61d6ff"/><path d="m33 14v6a9 9 0 0 1 -9 9 9 9 0 0 1 -9-9v-6" fill="#eab8af"/><path d="m28 32-.891 1.336a3.736 3.736 0 0 1 -3.109 1.664 3.736 3.736 0 0 1 -3.109-1.664l-.891-1.336v-5h8z" fill="#eab8af"/><path d="m20 29.232v2.768l.891 1.336a3.736 3.736 0 0 0 6.218 0l.891-1.336v-2.768a9.978 9.978 0 0 1 -4 .768 9.978 9.978 0 0 1 -4-.768z" fill="#fbe1d7"/><path d="m17.999 62 .001-7h12l-.001 7" fill="#08285b"/><path d="m62 12h-22v-7a3 3 0 0 1 3-3h16a3 3 0 0 1 3 3z" fill="#2967aa"/><path d="m62 5a3 3 0 0 0 -3-3h-16a2.983 2.983 0 0 0 -.86.14 2.983 2.983 0 0 0 -.14.86 7 7 0 0 0 7 7h13z" fill="#4084c1"/><path d="m40 8h22v4h-22z" fill="#85a0a8"/><g fill="#53bded"><path d="m50 16h2v5h-2z"/><path d="m43 16h2v5h-2z"/><path d="m57 16h2v5h-2z"/></g><path d="m49 10h13v-2h-17.894a6.972 6.972 0 0 0 4.894 2z" fill="#95b3ba"/><path d="m15 20a9 9 0 0 0 18 0v-4h-18z" fill="#fbe1d7"/><path d="m14 15v-3a10 10 0 0 1 10-10 10 10 0 0 1 10 10v3" fill="#1d549c"/><path d="m25 2.05a10 10 0 0 0 -9 9.95v3h18v-3a10 10 0 0 0 -9-9.95z" fill="#2967aa"/><path d="m15 15a4 4 0 0 1 4-4h10a4 4 0 0 1 4 4" fill="#0d3873"/><path d="m18 59.861a16.08 16.08 0 0 0 2 .139h10v-5h-12z" fill="#194988"/><path d="m59 45.999h-2.133l.964-1.445-1.664-1.11-1.705 2.555h-5.049l3.001-3.001h2.586v-2h-2v-2h-2v2.586l-3 3v-5.051l2.554-1.703-1.11-1.664-1.444.963v-2.131h-2v2.131l-1.446-.963-1.11 1.664 2.556 1.702v5.052l-3-3v-2.586h-2v2h-2v2h2.586l3.001 3.001h-5.052l-1.703-2.554-1.664 1.11.963 1.444h-2.131v2h2.131l-.963 1.446 1.664 1.11 1.702-2.556h5.051l-2.999 2.999h-2.586v2h2v2h2v-2.586l3-3v5.052l-2.555 1.703 1.11 1.664 1.445-.964v2.133h2v-2.133l1.445.964 1.11-1.664-2.555-1.705v-5.05l3 3v2.586h2v-2h2v-2h-2.586l-2.999-2.999h5.049l1.703 2.555 1.664-1.11-.964-1.445h2.133z" fill="#194988"/><path d="m59 45.999h-2.133l.964-1.445-1.664-1.11-1.705 2.555h-5.049l3.001-3.001h2.586v-2h-2v-2h-2v2.586l-3 3v-5.051l2.554-1.703-1.11-1.664-1.444.963v-2.131h-1v24.002h1v-2.133l1.445.964 1.11-1.664-2.555-1.705v-5.05l3 3v2.586h2v-2h2v-2h-2.586l-2.999-2.999h5.049l1.703 2.555 1.664-1.11-.964-1.445h2.133z" fill="#2967aa"/></g></svg>