<svg height="512" viewBox="0 0 128 128" width="512" xmlns="http://www.w3.org/2000/svg"><g><g><path d="m1.75 16.503h124.5v11.75h-124.5z" fill="#3bf"/><path d="m1.75 28.253h124.5v71.494h-124.5z" fill="#fd3"/><path d="m9.75 84.503h46.25v7.244h-46.25z" fill="#284866"/><path d="m9.75 69.259h18.599v7.244h-18.599z" fill="#284866"/><path d="m72 75.261h46.25v16.486h-46.25z" fill="#fb3"/><g fill="#284866"><path d="m17.249 28.253h-8.25l5.004-11.75h8.25z"/><path d="m36.599 28.253h-8.25l5.004-11.75h8.25z"/><path d="m55.948 28.253h-8.25l5.004-11.75h8.25z"/><path d="m75.298 28.253h-8.25l5.004-11.75h8.25z"/><path d="m94.647 28.253h-8.25l5.004-11.75h8.25z"/><path d="m113.997 28.253h-8.25l5.004-11.75h8.25z"/></g><path d="m1.75 99.747h124.5v11.75h-124.5z" fill="#3bf"/><g fill="#284866"><path d="m17.249 99.747h-8.25l5.004 11.75h8.25z"/><path d="m36.599 99.747h-8.25l5.004 11.75h8.25z"/><path d="m55.948 99.747h-8.25l5.004 11.75h8.25z"/><path d="m75.298 99.747h-8.25l5.004 11.75h8.25z"/><path d="m94.647 99.747h-8.25l5.004 11.75h8.25z"/><path d="m113.997 99.747h-8.25l5.004 11.75h8.25z"/></g><path d="m64 90.69a1.75 1.75 0 0 1 -1.75-1.75v-49.875a1.75 1.75 0 0 1 3.5 0v49.875a1.75 1.75 0 0 1 -1.75 1.75z" fill="#ff884d"/><path d="m102.625 50.505-7.5 5.375-7.5-5.375-15.625 10.487v4.261h46.25v-4.261z" fill="#2ee66b"/><path d="m95.125 55.88 7.5-5.375 15.625 10.487v-24.739h-46.25v24.739l15.625-10.487z" fill="#f1f6f7"/><circle cx="95.125" cy="44.19" fill="#fd3" r="3.375"/></g><g><path d="m126.25 14.753h-124.5a1.751 1.751 0 0 0 -1.75 1.747v95a1.751 1.751 0 0 0 1.75 1.75h124.5a1.751 1.751 0 0 0 1.75-1.75v-95a1.751 1.751 0 0 0 -1.75-1.747zm-122.75 83.247v-68h121v68zm97.308 11.75-3.508-8.25h7.3l3.514 8.25zm-19.35 0-3.513-8.25h7.3l3.513 8.25zm-19.349 0-3.509-8.25h7.3l3.514 8.25zm-19.35 0-3.513-8.25h7.3l3.513 8.25zm-19.35 0-3.509-8.25h7.3l3.513 8.25zm7.3-91.494-3.517 8.244h-7.292l3.513-8.25zm19.35 0-3.517 8.244h-7.3l3.513-8.25zm19.35 0-3.518 8.244h-7.291l3.514-8.25zm19.349 0-3.517 8.244h-7.3l3.513-8.25zm19.35 0-3.518 8.244h-7.29l3.513-8.25zm16.4 8.25h-7.856l3.513-8.25h4.335zm-8.147-8.25-3.521 8.244h-4.446l3.514-8.25zm-19.361-.003-3.509 8.247h-4.446l3.513-8.25zm-19.35 0-3.509 8.247h-4.446l3.513-8.25zm-19.349 0-3.51 8.247h-4.445l3.513-8.25zm-19.35 0-3.509 8.247h-4.442l3.513-8.25zm-19.35 0-3.509 8.247h-4.446l3.514-8.25zm-16.1 0h7.856l-3.515 8.247h-4.342zm0 83.244h4.341l3.514 8.25h-7.856zm11.66 8.25-3.514-8.25h4.446l3.513 8.25zm19.349 0-3.51-8.247h4.446l3.513 8.25zm19.35 0-3.513-8.25h4.445l3.514 8.25zm19.349 0-3.513-8.25h4.446l3.513 8.25zm19.35 0-3.513-8.25h4.446l3.508 8.25zm19.35 0-3.514-8.25h4.446l3.513 8.25zm12.592 0h-4.343l-3.513-8.25h7.855z"/><path d="m56 82.753h-7.125a1.75 1.75 0 1 0 0 3.5h5.375v3.747h-42.75v-3.747h26.5a1.75 1.75 0 0 0 0-3.5h-28.25a1.751 1.751 0 0 0 -1.75 1.747v7.244a1.751 1.751 0 0 0 1.75 1.756h46.25a1.751 1.751 0 0 0 1.75-1.75v-7.25a1.751 1.751 0 0 0 -1.75-1.747z"/><path d="m9.75 78.253h18.6a1.751 1.751 0 0 0 1.75-1.753v-7.241a1.75 1.75 0 0 0 -1.75-1.75h-18.6a1.75 1.75 0 0 0 -1.75 1.75v7.241a1.751 1.751 0 0 0 1.75 1.753zm1.75-7.244h15.1v3.744h-15.1z"/><path d="m118.25 73.511h-13a1.75 1.75 0 0 0 0 3.5h11.25v12.989h-42.75v-12.989h7.625a1.75 1.75 0 0 0 0-3.5h-9.375a1.75 1.75 0 0 0 -1.75 1.75v16.486a1.751 1.751 0 0 0 1.75 1.753h46.25a1.751 1.751 0 0 0 1.75-1.75v-16.489a1.75 1.75 0 0 0 -1.75-1.75z"/><path d="m95.125 77.011a1.75 1.75 0 0 0 0-3.5h-3.625a1.75 1.75 0 0 0 0 3.5z"/><path d="m64 37.315a1.751 1.751 0 0 0 -1.75 1.75v49.875a1.75 1.75 0 0 0 3.5 0v-49.875a1.751 1.751 0 0 0 -1.75-1.75z"/><path d="m118.25 34.5h-46.25a1.751 1.751 0 0 0 -1.75 1.75v29a1.751 1.751 0 0 0 1.75 1.75h46.25a1.751 1.751 0 0 0 1.75-1.75v-29a1.751 1.751 0 0 0 -1.75-1.75zm-44.5 3.5h42.75v19.709l-12.9-8.657a1.792 1.792 0 0 0 -1.995.031l-6.48 4.644-6.481-4.644a1.749 1.749 0 0 0 -1.994-.031l-12.9 8.657zm42.75 25.5h-42.75v-1.575l13.842-9.29 6.513 4.665a1.753 1.753 0 0 0 2.039 0l6.514-4.668 13.842 9.29z"/><path d="m95.125 49.315a5.125 5.125 0 1 0 -5.125-5.125 5.13 5.13 0 0 0 5.125 5.125zm0-6.75a1.625 1.625 0 1 1 -1.625 1.625 1.627 1.627 0 0 1 1.625-1.625z"/></g></g></svg>