<?xml version="1.0" encoding="UTF-8" standalone="no"?>
<!DOCTYPE svg PUBLIC "-//W3C//DTD SVG 1.1//EN" "http://www.w3.org/Graphics/SVG/1.1/DTD/svg11.dtd">
<!-- Created with Vectornator (http://vectornator.io/) -->
<svg height="100%" stroke-miterlimit="10" style="fill-rule:nonzero;clip-rule:evenodd;stroke-linecap:round;stroke-linejoin:round;" version="1.1" viewBox="0 0 511.995 511.995" width="100%" xml:space="preserve" xmlns="http://www.w3.org/2000/svg" xmlns:vectornator="http://vectornator.io" xmlns:xlink="http://www.w3.org/1999/xlink">
<defs>
<linearGradient gradientTransform="matrix(4.21419 0 0 3.99541 256.445 270.376)" gradientUnits="userSpaceOnUse" id="LinearGradient" x1="14.148" x2="11.257" y1="43.031" y2="25.836">
<stop offset="0" stop-color="#f57900"/>
<stop offset="1" stop-color="#f57900" stop-opacity="0"/>
</linearGradient>
</defs>
<g id="Untitled" vectornator:layerName="Untitled">
<g opacity="1" vectornator:layerName="g">
<g opacity="1" vectornator:layerName="g">
<path d="M93.272 90.356L77.277 100.376L77.277 208.521L104.939 218.356L162.939 218.356L162.939 90.356L93.272 90.356Z" fill="#00c2fb" fill-rule="nonzero" opacity="1" stroke="none" vectornator:layerName="polygon"/>
<path d="M90.606 234.69L77.277 244.993L77.277 353.138L92.272 366.69L162.939 366.69L162.939 234.69L90.606 234.69Z" fill="#00c2fb" fill-rule="nonzero" opacity="1" stroke="none" vectornator:layerName="polygon"/>
<path d="M94.272 377.247L77.277 389.61L77.277 504.495L148.766 504.495L162.939 487.023L162.939 377.247L94.272 377.247Z" fill="#00c2fb" fill-rule="nonzero" opacity="1" stroke="none" vectornator:layerName="polygon"/>
<path d="M162.939 90.356L148.766 100.376L148.766 208.521L162.939 218.356L231.272 218.356L231.272 90.356L162.939 90.356Z" fill="#62ddfc" fill-rule="nonzero" opacity="1" stroke="none" vectornator:layerName="polygon"/>
<path d="M162.939 234.69L148.766 244.894L148.766 353.138L162.939 366.69L236.939 366.69L236.939 234.69L162.939 234.69Z" fill="#62ddfc" fill-rule="nonzero" opacity="1" stroke="none" vectornator:layerName="polygon"/>
<path d="M162.939 403.523L148.766 416.356L148.766 504.495L220.254 504.495L232.606 478.69L232.606 403.523L162.939 403.523Z" fill="#62ddfc" fill-rule="nonzero" opacity="1" stroke="none" vectornator:layerName="polygon"/>
<path d="M235.606 88.023L220.254 100.376L220.254 208.521L238.939 222.356L304.606 222.356L304.606 88.023L235.606 88.023Z" fill="#00c2fb" fill-rule="nonzero" opacity="1" stroke="none" vectornator:layerName="polygon"/>
<path d="M234.939 234.69L220.254 244.993L220.254 353.138L234.272 366.69L304.606 366.69L304.606 234.69L234.939 234.69Z" fill="#00c2fb" fill-rule="nonzero" opacity="1" stroke="none" vectornator:layerName="polygon"/>
<path d="M231.272 377.247L220.254 389.61L220.254 504.495L291.742 504.495L306.606 494.023L306.606 377.247L231.272 377.247Z" fill="#00c2fb" fill-rule="nonzero" opacity="1" stroke="none" vectornator:layerName="polygon"/>
<path d="M307.939 88.023L291.742 100.376L291.742 208.521L304.606 222.356L380.606 222.356L380.606 88.023L307.939 88.023Z" fill="#62ddfc" fill-rule="nonzero" opacity="1" stroke="none" vectornator:layerName="polygon"/>
<path d="M304.606 234.69L291.742 244.894L291.742 353.138L319.272 364.356L376.186 364.356L376.186 234.69L304.606 234.69Z" fill="#62ddfc" fill-rule="nonzero" opacity="1" stroke="none" vectornator:layerName="polygon"/>
<path d="M304.606 403.523L291.742 416.356L291.742 504.495L363.23 504.495L376.186 483.773L376.186 403.523L304.606 403.523Z" fill="#62ddfc" fill-rule="nonzero" opacity="1" stroke="none" vectornator:layerName="polygon"/>
<path d="M434.717 100.376L426.939 92.023C426.939 92.023 371.939 91.773 371.334 92.023C370.729 92.273 363.229 100.376 363.229 100.376L363.229 208.521L376.185 222.357L420.438 222.357L434.717 208.521L434.717 100.376Z" fill="#00c2fb" fill-rule="nonzero" opacity="1" stroke="none" vectornator:layerName="path"/>
<path d="M434.717 244.993L424.939 231.023L371.92 231.023L363.23 244.993L363.23 353.138L376.186 364.356L418.939 364.356L434.718 353.138L434.717 244.993Z" fill="#00c2fb" fill-rule="nonzero" opacity="1" stroke="none" vectornator:layerName="polygon"/>
<path d="M434.717 389.61L421.189 377.247L380.439 377.247L363.23 389.61L363.23 504.495L434.718 504.495L434.717 389.61Z" fill="#00c2fb" fill-rule="nonzero" opacity="1" stroke="none" vectornator:layerName="polygon"/>
<path d="M90.606 51.356L77.277 63.904L77.277 100.376L148.766 100.376L162.272 85.023L162.272 51.356L90.606 51.356Z" fill="#b5dcff" fill-rule="nonzero" opacity="1" stroke="none" vectornator:layerName="polygon"/>
<path d="M434.718 63.904L414.272 53.69L168.939 53.69L148.766 63.904L148.766 100.376L434.718 100.376L434.718 63.904Z" fill="#dbedff" fill-rule="nonzero" opacity="1" stroke="none" vectornator:layerName="polygon"/>
<path d="M148.766 208.521L77.277 208.521L77.277 244.993L148.766 244.993L162.939 232.773L162.939 215.773L148.766 208.521Z" fill="#b5dcff" fill-rule="nonzero" opacity="1" stroke="none" vectornator:layerName="polygon"/>
<path d="M148.766 208.521L434.718 208.521L434.718 208.521L434.718 244.993L434.718 244.993L148.766 244.993L148.766 244.993L148.766 208.521L148.766 208.521Z" fill="#dbedff" fill-rule="nonzero" opacity="1" stroke="none" vectornator:layerName="rect"/>
<path d="M135.81 389.61L77.278 389.61L77.277 353.138L146.579 353.138L155.439 362.773L148.766 384.747L135.81 389.61Z" fill="#b5dcff" fill-rule="nonzero" opacity="1" stroke="none" vectornator:layerName="polygon"/>
<path d="M376.185 389.61L434.718 389.61L434.717 353.138L365.416 353.138L355.939 362.023L359.689 382.273L376.185 389.61Z" fill="#dbedff" fill-rule="nonzero" opacity="1" stroke="none" vectornator:layerName="polygon"/>
<path d="M209.111 416.356L146.579 416.356C140.631 416.356 135.81 411.534 135.81 405.586L135.81 363.906C135.81 357.958 140.632 353.137 146.579 353.137L209.111 353.137L224.106 362.856L224.106 408.023L209.111 416.356Z" fill="#fbc700" fill-rule="nonzero" opacity="1" stroke="none" vectornator:layerName="path"/>
<path d="M130.671 63.904L66.171 63.904C60.864 63.904 56.562 59.602 56.562 54.295L56.562 17.109C56.562 11.802 60.864 7.5 66.17 7.5L130.67 7.5L143.439 18.273L143.439 51.773L130.671 63.904Z" fill="#4d66d2" fill-rule="nonzero" opacity="1" stroke="none" vectornator:layerName="path"/>
<path d="M455.433 17.109C455.433 11.802 451.131 7.5 445.825 7.5L130.671 7.5C125.364 7.5 121.063 11.802 121.063 17.109L121.063 54.296C121.063 59.603 125.365 63.905 130.672 63.905L445.826 63.905C451.133 63.905 455.435 59.603 455.435 54.296L455.433 17.109Z" fill="#6b7ed9" fill-rule="nonzero" opacity="1" stroke="none" vectornator:layerName="path"/>
<path d="M376.185 363.907C376.185 357.959 371.363 353.138 365.416 353.138L209.111 353.138C203.163 353.138 198.341 357.96 198.341 363.907L198.341 405.587C198.341 411.535 203.163 416.357 209.11 416.357L365.415 416.357C371.363 416.357 376.185 411.535 376.185 405.587L376.185 363.907Z" fill="#ffe02f" fill-rule="nonzero" opacity="1" stroke="none" vectornator:layerName="path"/>
</g>
<g opacity="1" vectornator:layerName="g">
<path d="M135.81 363.907C135.81 357.959 140.632 353.138 146.579 353.138L77.277 353.138L77.277 389.61L135.809 389.61L135.81 363.907Z" fill="none" opacity="1" stroke="#000000" stroke-linecap="round" stroke-linejoin="round" stroke-width="15" vectornator:layerName="path"/>
<path d="M376.185 363.907L376.185 389.61L434.717 389.61L434.717 353.138L365.415 353.138C371.364 353.138 376.185 357.959 376.185 363.907Z" fill="none" opacity="1" stroke="#000000" stroke-linecap="round" stroke-linejoin="round" stroke-width="15" vectornator:layerName="path"/>
<path d="M376.186 405.587L376.186 363.907C376.186 357.959 371.364 353.138 365.417 353.138L146.579 353.138C140.631 353.138 135.81 357.96 135.81 363.908L135.81 405.588C135.81 411.536 140.632 416.358 146.579 416.358L365.416 416.358C371.364 416.356 376.186 411.535 376.186 405.587Z" fill="none" opacity="1" stroke="#000000" stroke-linecap="round" stroke-linejoin="round" stroke-width="15" vectornator:layerName="path"/>
<path d="M363.23 419.023L363.23 501.523" fill="none" opacity="1" stroke="#000000" stroke-linecap="round" stroke-linejoin="round" stroke-width="15" vectornator:layerName="line"/>
<path d="M291.742 419.023L291.742 501.523" fill="none" opacity="1" stroke="#000000" stroke-linecap="round" stroke-linejoin="round" stroke-width="15" vectornator:layerName="line"/>
<path d="M220.254 419.023L220.254 501.523" fill="none" opacity="1" stroke="#000000" stroke-linecap="round" stroke-linejoin="round" stroke-width="15" vectornator:layerName="line"/>
<path d="M148.766 419.023L148.766 501.523" fill="none" opacity="1" stroke="#000000" stroke-linecap="round" stroke-linejoin="round" stroke-width="15" vectornator:layerName="line"/>
<path d="M363.23 245.993L363.23 350.273" fill="none" opacity="1" stroke="#000000" stroke-linecap="round" stroke-linejoin="round" stroke-width="15" vectornator:layerName="line"/>
<path d="M291.742 245.993L291.742 350.273" fill="none" opacity="1" stroke="#000000" stroke-linecap="round" stroke-linejoin="round" stroke-width="15" vectornator:layerName="line"/>
<path d="M220.254 245.993L220.254 350.273" fill="none" opacity="1" stroke="#000000" stroke-linecap="round" stroke-linejoin="round" stroke-width="15" vectornator:layerName="line"/>
<path d="M148.766 245.993L148.766 350.273" fill="none" opacity="1" stroke="#000000" stroke-linecap="round" stroke-linejoin="round" stroke-width="15" vectornator:layerName="line"/>
<path d="M363.23 101.808L363.23 206.088" fill="none" opacity="1" stroke="#000000" stroke-linecap="round" stroke-linejoin="round" stroke-width="15" vectornator:layerName="line"/>
<path d="M291.742 101.808L291.742 206.088" fill="none" opacity="1" stroke="#000000" stroke-linecap="round" stroke-linejoin="round" stroke-width="15" vectornator:layerName="line"/>
<path d="M220.254 101.808L220.254 206.088" fill="none" opacity="1" stroke="#000000" stroke-linecap="round" stroke-linejoin="round" stroke-width="15" vectornator:layerName="line"/>
<path d="M148.766 101.808L148.766 206.088" fill="none" opacity="1" stroke="#000000" stroke-linecap="round" stroke-linejoin="round" stroke-width="15" vectornator:layerName="line"/>
<path d="M77.277 208.521L434.717 208.521L434.717 208.521L434.717 244.993L434.717 244.993L77.277 244.993L77.277 244.993L77.277 208.521L77.277 208.521Z" fill="none" opacity="1" stroke="#000000" stroke-linecap="round" stroke-linejoin="round" stroke-width="15" vectornator:layerName="rect"/>
<path d="M77.277 63.904L434.717 63.904L434.717 63.904L434.717 100.376L434.717 100.376L77.277 100.376L77.277 100.376L77.277 63.904L77.277 63.904Z" fill="none" opacity="1" stroke="#000000" stroke-linecap="round" stroke-linejoin="round" stroke-width="15" vectornator:layerName="rect"/>
<path d="M53.998 504.495L457.998 504.495" fill="none" opacity="1" stroke="#000000" stroke-linecap="round" stroke-linejoin="round" stroke-width="15" vectornator:layerName="line"/>
<path d="M174.664 384.747L337.331 384.747" fill="none" opacity="1" stroke="#000000" stroke-linecap="round" stroke-linejoin="round" stroke-width="15" vectornator:layerName="line"/>
<path d="M238.498 7.5L66.171 7.5C60.864 7.5 56.562 11.802 56.562 17.109L56.562 54.296C56.562 59.603 60.864 63.905 66.17 63.905L445.824 63.905C451.131 63.905 455.433 59.603 455.433 54.296L455.433 17.109C455.433 11.802 451.131 7.5 445.824 7.5L273.498 7.5" fill="none" opacity="1" stroke="#000000" stroke-linecap="round" stroke-linejoin="round" stroke-width="15" vectornator:layerName="path"/>
<path d="M434.717 140.404L434.717 63.904L77.277 63.904L77.278 504.495L434.718 504.495L434.717 175.404" fill="none" opacity="1" stroke="#000000" stroke-linecap="round" stroke-linejoin="round" stroke-width="15" vectornator:layerName="polyline"/>
</g>
</g>
<g opacity="1" vectornator:layerName="g4215">
<path d="M326.447 382.253L461.295 382.253C475.709 382.253 487.394 392.53 487.394 405.208L487.394 457.493C487.394 470.171 475.709 480.448 461.295 480.448L326.447 480.448C312.033 480.448 300.347 470.171 300.347 457.493L300.347 405.208C300.347 392.53 312.033 382.253 326.447 382.253Z" fill="#000000" fill-rule="nonzero" opacity="0.94444" stroke="none" vectornator:layerName="rect"/>
<path d="M306.147 369.502L481.595 369.502C484.798 369.502 487.394 371.785 487.394 374.603L487.394 462.596C487.394 465.413 484.798 467.697 481.595 467.697L306.147 467.697C302.944 467.697 300.347 465.413 300.347 462.596L300.347 374.603C300.347 371.785 302.944 369.502 306.147 369.502Z" fill="#000000" fill-rule="nonzero" opacity="0.94444" stroke="none" vectornator:layerName="rect"/>
</g>
<path d="M292.185 350.572L505.739 350.572C509.085 350.572 511.797 352.957 511.797 355.9L511.797 355.9C511.797 358.843 509.085 361.228 505.739 361.228L292.185 361.228C288.839 361.228 286.127 358.843 286.127 355.9L286.127 355.9C286.127 352.957 288.839 350.572 292.185 350.572Z" fill="#000000" fill-rule="nonzero" opacity="0.94444" stroke="none" vectornator:layerName="rect"/>
<path d="M364.835 354.902C364.86 358.752 362.287 362.317 358.09 364.248C353.894 366.178 348.717 366.178 344.52 364.248C340.324 362.317 337.751 358.752 337.776 354.902C337.751 351.053 340.324 347.487 344.52 345.556C348.717 343.626 353.894 343.626 358.09 345.556C362.287 347.487 364.86 351.053 364.835 354.902Z" fill="#000000" fill-rule="nonzero" opacity="0.94444" stroke="none" vectornator:layerName="path"/>
<path d="M437.43 354.902C437.455 358.752 434.882 362.317 430.685 364.248C426.489 366.178 421.312 366.178 417.116 364.248C412.919 362.317 410.346 358.752 410.371 354.902C410.346 351.053 412.919 347.487 417.116 345.556C421.312 343.626 426.489 343.626 430.685 345.556C434.882 347.487 437.455 351.053 437.43 354.902Z" fill="#000000" fill-rule="nonzero" opacity="0.94444" stroke="none" vectornator:layerName="path"/>
<g opacity="1" vectornator:layerName="g2179">
<path d="M326.447 382.253L461.295 382.253C475.709 382.253 487.394 392.53 487.394 405.208L487.394 457.493C487.394 470.171 475.709 480.448 461.295 480.448L326.447 480.448C312.033 480.448 300.347 470.171 300.347 457.493L300.347 405.208C300.347 392.53 312.033 382.253 326.447 382.253Z" fill="#000000" fill-rule="nonzero" opacity="0.94444" stroke="none" vectornator:layerName="rect"/>
<path d="M306.147 369.502L481.595 369.502C484.798 369.502 487.394 371.785 487.394 374.603L487.394 462.596C487.394 465.413 484.798 467.697 481.595 467.697L306.147 467.697C302.944 467.697 300.347 465.413 300.347 462.596L300.347 374.603C300.347 371.785 302.944 369.502 306.147 369.502Z" fill="#000000" fill-rule="nonzero" opacity="0.94444" stroke="none" vectornator:layerName="rect"/>
</g>
<g opacity="1" vectornator:layerName="text4277">
<path d="M328.124 449.766L328.124 408.367L349.848 408.367C354.385 408.367 357.734 408.753 359.895 409.524C362.055 410.296 363.828 411.581 365.214 413.379C366.599 415.177 367.292 417.262 367.292 419.634C367.292 422.76 366.117 425.292 363.767 427.231C361.416 429.17 357.999 430.403 353.516 430.93C355.336 431.683 356.722 432.446 357.673 433.218C359.602 434.799 361.301 436.559 362.768 438.498L371.327 449.766L363.176 449.766L356.654 441.153C354.127 437.783 352.218 435.514 350.928 434.347C349.637 433.18 348.387 432.394 347.178 431.989C345.969 431.585 344.278 431.382 342.104 431.382L334.605 431.382L334.605 449.766L328.124 449.766ZM334.604 426.638L348.544 426.638C351.587 426.638 353.897 426.384 355.472 425.875C357.048 425.367 358.298 424.567 359.222 423.475C360.146 422.383 360.608 421.112 360.608 419.663C360.608 417.573 359.725 415.93 357.959 414.735C356.192 413.539 353.571 412.942 350.092 412.942L334.604 412.942L334.604 426.638Z" fill="#000000" fill-rule="nonzero" opacity="1" stroke="none" vectornator:layerName="path"/>
<path d="M400.958 440.109L407.154 440.758C406.121 443.959 404.253 446.373 401.549 448.002C398.846 449.63 395.497 450.444 391.502 450.444C386.475 450.444 382.406 449.122 379.295 446.477C376.184 443.832 374.628 440.014 374.628 435.025C374.628 429.848 376.198 425.899 379.336 423.179C382.475 420.459 386.448 419.098 391.258 419.098C395.85 419.098 399.681 420.435 402.752 423.108C405.822 425.782 407.358 429.651 407.358 434.715L407.317 436.071L380.824 436.071C381.069 439.441 382.196 441.982 384.207 443.695C386.218 445.409 388.663 446.265 391.543 446.265C396.054 446.265 399.192 444.213 400.959 440.109L400.958 440.109ZM381.191 431.891L400.999 431.891C400.727 429.293 399.926 427.354 398.595 426.074C396.665 424.21 394.206 423.278 391.217 423.278C388.527 423.278 386.231 424.054 384.329 425.608C382.427 427.161 381.381 429.255 381.191 431.891L381.191 431.891Z" fill="#000000" fill-rule="nonzero" opacity="1" stroke="none" vectornator:layerName="path"/>
<path d="M414.816 449.766L414.816 419.776L420.237 419.776L420.237 424.04C421.541 422.384 423.138 421.146 425.026 420.327C426.914 419.508 429.082 419.098 431.527 419.098C433.429 419.098 435.188 419.357 436.805 419.875C438.422 420.393 439.726 421.071 440.718 421.908C441.71 422.746 442.45 423.833 442.939 425.17C443.428 426.507 443.673 428.559 443.673 431.326L443.673 449.767L437.641 449.767L437.641 431.524C437.641 429.321 437.369 427.712 436.826 426.695C436.282 425.678 435.433 424.892 434.278 424.337C433.123 423.781 431.785 423.504 430.264 423.504C427.383 423.504 425.087 424.247 423.376 425.735C421.664 427.222 420.808 429.773 420.808 433.388L420.808 449.767L414.816 449.766Z" fill="#000000" fill-rule="nonzero" opacity="1" stroke="none" vectornator:layerName="path"/>
<path d="M466.377 445.221L467.192 449.711C465.534 450.012 464.04 450.163 462.708 450.163C460.616 450.163 458.931 449.875 457.654 449.301C456.377 448.727 455.501 447.941 455.026 446.943C454.55 445.945 454.312 443.959 454.312 440.985L454.312 423.73L449.91 423.73L449.91 419.777L454.312 419.777L454.312 412.349L460.304 409.299L460.304 419.776L466.377 419.776L466.377 423.73L460.304 423.73L460.304 441.267C460.304 442.886 460.48 443.931 460.833 444.401C461.35 445.079 462.314 445.418 463.727 445.418C464.407 445.418 465.29 445.352 466.377 445.221Z" fill="#000000" fill-rule="nonzero" opacity="1" stroke="none" vectornator:layerName="path"/>
</g>
<path d="M305.594 370.21C303.24 370.61 301.463 372.409 301.463 374.497L301.463 448.735C301.463 449.656 302.004 450.545 302.59 451.244L302.59 454.799C302.59 466.415 313.721 475.711 327.63 475.711L457.337 475.711C471.246 475.711 482.502 466.414 482.502 454.799L482.502 407.017C482.502 404.991 482.137 403.012 481.501 401.162L481.501 374.499C481.501 372.113 479.1 370.212 476.243 370.212L306.721 370.212C306.364 370.212 305.931 370.155 305.594 370.212L305.594 370.21Z" fill="#fcaf3e" fill-rule="nonzero" opacity="1" stroke="#b3570b" stroke-linecap="butt" stroke-linejoin="miter" stroke-width="1" vectornator:layerName="path"/>
<path d="M287.147 345.769L500.701 345.769C504.047 345.769 506.759 348.155 506.759 351.097L506.759 351.098C506.759 354.04 504.047 356.426 500.701 356.426L287.147 356.426C283.801 356.426 281.089 354.04 281.089 351.098L281.089 351.097C281.089 348.155 283.801 345.769 287.147 345.769Z" fill="#2e3436" fill-rule="nonzero" opacity="0.94444" stroke="none" vectornator:layerName="rect"/>
<path d="M360.444 350.714C360.469 354.563 357.896 358.129 353.7 360.06C349.503 361.99 344.326 361.99 340.13 360.06C335.933 358.129 333.36 354.563 333.385 350.714C333.36 346.864 335.933 343.299 340.13 341.368C344.326 339.437 349.503 339.437 353.7 341.368C357.896 343.299 360.469 346.864 360.444 350.714Z" fill="#888a85" fill-rule="nonzero" opacity="0.94444" stroke="none" vectornator:layerName="path"/>
<path d="M433.04 350.714C433.065 354.563 430.492 358.129 426.295 360.06C422.099 361.99 416.922 361.99 412.726 360.06C408.529 358.129 405.956 354.563 405.981 350.714C405.956 346.864 408.529 343.299 412.726 341.368C416.922 339.437 422.099 339.437 426.295 341.368C430.492 343.299 433.065 346.864 433.04 350.714Z" fill="#888a85" fill-rule="nonzero" opacity="0.94444" stroke="none" vectornator:layerName="path"/>
<path d="M309.392 375.099C307.141 375.466 305.442 377.113 305.442 379.026L305.442 447.032C305.442 447.876 305.959 448.691 306.519 449.331L306.519 452.588C306.519 463.228 317.162 471.744 330.459 471.744L454.466 471.744C467.763 471.744 478.526 463.228 478.526 452.588L478.526 408.814C478.526 406.958 478.176 405.145 477.568 403.45L477.568 379.026C477.568 376.839 475.273 375.099 472.54 375.099L310.467 375.099C310.125 375.099 309.711 375.046 309.389 375.099L309.392 375.099Z" fill="url(#LinearGradient)" fill-rule="nonzero" opacity="1" stroke="#ce5c00" stroke-dasharray="0.6256055235862732,0.3128027617931366" stroke-linecap="butt" stroke-linejoin="miter" stroke-width="0.312799" vectornator:layerName="path"/>
<g opacity="1" vectornator:layerName="text2857">
<path d="M317.391 449.303L324.312 448.579C324.64 451.886 325.402 454.599 326.6 456.718C327.797 458.838 329.656 460.551 332.177 461.859C334.697 463.167 337.533 463.821 340.683 463.821C343.481 463.821 345.951 463.325 348.094 462.333C350.236 461.34 351.83 459.98 352.876 458.252C353.922 456.523 354.445 454.637 354.445 452.592C354.445 450.518 353.941 448.707 352.933 447.159C351.925 445.61 350.261 444.31 347.942 443.258C346.455 442.567 343.166 441.492 338.075 440.034C332.983 438.576 329.416 437.2 327.375 435.908C324.728 434.254 322.756 432.203 321.458 429.752C320.159 427.302 319.51 424.559 319.51 421.523C319.51 418.186 320.304 415.067 321.892 412.166C323.48 409.265 325.799 407.063 328.849 405.56C331.899 404.057 335.289 403.306 339.02 403.306C343.128 403.306 346.752 404.095 349.89 405.673C353.028 407.251 355.442 409.574 357.13 412.64C358.819 415.706 359.727 419.179 359.853 423.056L352.82 423.688C352.442 419.509 351.163 416.353 348.982 414.218C346.802 412.084 343.582 411.017 339.323 411.017C334.886 411.017 331.654 411.986 329.624 413.925C327.595 415.864 326.581 418.202 326.581 420.937C326.581 423.312 327.299 425.266 328.736 426.799C330.147 428.333 333.834 429.903 339.795 431.512C345.756 433.12 349.846 434.525 352.064 435.728C355.29 437.502 357.672 439.749 359.21 442.469C360.747 445.19 361.516 448.324 361.516 451.872C361.516 455.389 360.672 458.703 358.983 461.815C357.294 464.926 354.868 467.347 351.705 469.075C348.541 470.804 344.981 471.668 341.024 471.668C336.008 471.668 331.805 470.796 328.415 469.053C325.025 467.309 322.366 464.686 320.437 461.184C318.509 457.681 317.494 453.721 317.394 449.302L317.391 449.303Z" fill="#555753" fill-rule="nonzero" opacity="1" stroke="none" vectornator:layerName="path"/>
<path d="M396.938 464.634C394.417 467.189 391.991 468.993 389.66 470.045C387.328 471.097 384.826 471.623 382.155 471.623C377.744 471.623 374.354 470.338 371.984 467.768C369.615 465.197 368.43 461.913 368.43 457.915C368.43 455.57 368.878 453.428 369.772 451.489C370.667 449.55 371.839 447.994 373.289 446.821C374.738 445.649 376.37 444.762 378.185 444.161C379.521 443.74 381.537 443.334 384.234 442.943C389.729 442.162 393.774 441.23 396.371 440.148C396.396 439.035 396.408 438.329 396.408 438.028C396.408 434.721 395.765 432.391 394.48 431.039C392.741 429.205 390.157 428.288 386.729 428.288C383.528 428.288 381.165 428.957 379.64 430.295C378.115 431.632 376.987 434 376.256 437.397L369.602 436.315C370.206 432.918 371.202 430.174 372.588 428.085C373.975 425.996 375.979 424.388 378.6 423.26C381.221 422.133 384.259 421.569 387.712 421.569C391.14 421.569 393.925 422.05 396.068 423.012C398.21 423.974 399.785 425.184 400.794 426.642C401.802 428.1 402.508 429.942 402.911 432.166C403.138 433.549 403.251 436.044 403.251 439.652L403.251 450.474C403.251 458.02 403.396 462.792 403.686 464.791C403.976 466.791 404.549 468.707 405.406 470.541L398.298 470.541C397.592 468.857 397.139 466.888 396.937 464.634L396.938 464.634ZM396.371 446.506C393.9 447.708 390.195 448.73 385.255 449.572C382.457 450.053 380.478 450.594 379.319 451.195C378.16 451.797 377.265 452.676 376.635 453.833C376.004 454.991 375.689 456.276 375.689 457.689C375.689 459.853 376.376 461.657 377.75 463.1C379.124 464.543 381.134 465.265 383.781 465.265C386.402 465.265 388.734 464.581 390.775 463.213C392.817 461.845 394.317 459.974 395.274 457.599C396.005 455.765 396.371 453.059 396.371 449.482L396.371 446.506Z" fill="#555753" fill-rule="nonzero" opacity="1" stroke="none" vectornator:layerName="path"/>
<path d="M413.687 470.544L413.687 404.437L420.493 404.437L420.493 470.544L413.687 470.544Z" fill="#555753" fill-rule="nonzero" opacity="1" stroke="none" vectornator:layerName="path"/>
<path d="M458.568 455.121L465.6 456.159C464.491 461.059 462.437 464.862 459.437 467.568C456.438 470.273 452.607 471.626 447.943 471.626C442.07 471.626 437.414 469.469 433.973 465.155C430.532 460.841 428.812 454.791 428.812 447.005C428.812 438.948 430.551 432.696 434.03 428.246C437.508 423.797 442.02 421.572 447.565 421.572C452.934 421.573 457.32 423.752 460.723 428.111C464.126 432.47 465.827 438.603 465.827 446.509C465.827 446.99 465.814 447.711 465.789 448.673L435.845 448.673C436.097 453.934 437.345 457.963 439.588 460.759C441.832 463.555 444.629 464.952 447.982 464.952C450.477 464.953 452.607 464.171 454.372 462.608C456.136 461.044 457.535 458.549 458.569 455.122L458.568 455.121ZM436.223 441.999L458.643 441.999C458.341 437.971 457.484 434.949 456.072 432.935C453.905 429.808 451.094 428.245 447.641 428.245C444.516 428.245 441.888 429.493 439.758 431.988C437.628 434.483 436.45 437.82 436.223 441.999Z" fill="#555753" fill-rule="nonzero" opacity="1" stroke="none" vectornator:layerName="path"/>
</g>
<g opacity="1" vectornator:layerName="text2901">
<path d="M319.499 449.311L326.338 448.624C326.662 451.775 327.415 454.36 328.599 456.38C329.782 458.4 331.62 460.033 334.111 461.279C336.602 462.525 339.405 463.148 342.519 463.148C345.284 463.148 347.726 462.675 349.843 461.73C351.961 460.785 353.537 459.488 354.571 457.841C355.605 456.194 356.121 454.396 356.122 452.448C356.121 450.472 355.623 448.746 354.627 447.27C353.63 445.795 351.986 444.556 349.694 443.554C348.224 442.895 344.973 441.871 339.941 440.481C334.908 439.092 331.383 437.781 329.365 436.549C326.749 434.974 324.799 433.019 323.516 430.684C322.233 428.349 321.592 425.735 321.592 422.842C321.592 419.662 322.377 416.69 323.946 413.926C325.516 411.162 327.808 409.063 330.822 407.631C333.837 406.199 337.188 405.483 340.875 405.483C344.936 405.483 348.517 406.235 351.619 407.738C354.721 409.242 357.106 411.455 358.775 414.377C360.445 417.299 361.341 420.608 361.466 424.303L354.515 424.905C354.144 420.925 352.878 417.919 350.724 415.888C348.569 413.85 345.384 412.835 341.175 412.835C336.79 412.835 333.595 413.759 331.589 415.607C329.583 417.454 328.581 419.682 328.581 422.288C328.581 424.552 329.291 426.414 330.711 427.875C332.106 429.336 335.75 430.832 341.642 432.365C347.534 433.898 351.576 435.237 353.768 436.383C356.957 438.073 359.311 440.214 360.831 442.807C362.351 445.399 363.111 448.386 363.111 451.766C363.111 455.118 362.276 458.276 360.607 461.241C358.938 464.206 356.54 466.512 353.413 468.16C350.287 469.807 346.768 470.631 342.856 470.631C337.898 470.631 333.744 469.8 330.394 468.138C327.043 466.477 324.415 463.977 322.508 460.64C320.602 457.302 319.6 453.528 319.5 449.317L319.499 449.311Z" fill="#eeeeec" fill-rule="nonzero" opacity="1" stroke="none" vectornator:layerName="path"/>
<path d="M398.129 463.92C395.638 466.355 393.24 468.074 390.935 469.076C388.631 470.079 386.158 470.58 383.518 470.58C379.158 470.58 375.807 469.355 373.465 466.906C371.123 464.457 369.952 461.327 369.952 457.517C369.952 455.282 370.395 453.241 371.279 451.394C372.163 449.546 373.322 448.064 374.754 446.946C376.187 445.829 377.8 444.984 379.594 444.411C380.914 444.01 382.907 443.623 385.573 443.251C391.004 442.506 395.002 441.618 397.569 440.587C397.593 439.527 397.606 438.854 397.606 438.567C397.606 435.416 396.97 433.196 395.7 431.907C393.981 430.159 391.427 429.285 388.039 429.285C384.875 429.285 382.539 429.923 381.032 431.198C379.525 432.472 378.41 434.728 377.687 437.965L371.11 436.934C371.708 433.697 372.692 431.083 374.062 429.092C375.432 427.102 377.413 425.569 380.004 424.495C382.595 423.42 385.597 422.883 389.01 422.883C392.399 422.883 395.151 423.342 397.269 424.258C399.387 425.175 400.944 426.328 401.94 427.717C402.937 429.107 403.634 430.861 404.033 432.981C404.257 434.299 404.369 436.677 404.369 440.114L404.369 450.427C404.369 457.617 404.513 462.165 404.799 464.07C405.086 465.975 405.652 467.801 406.5 469.549L399.474 469.549C398.776 467.944 398.328 466.068 398.128 463.92L398.129 463.92ZM397.569 446.645C395.127 447.791 391.465 448.765 386.582 449.567C383.816 450.026 381.861 450.541 380.715 451.114C379.569 451.687 378.684 452.525 378.061 453.628C377.439 454.731 377.127 455.956 377.127 457.302C377.127 459.365 377.806 461.083 379.164 462.458C380.522 463.834 382.509 464.521 385.125 464.521C387.716 464.521 390.02 463.869 392.038 462.566C394.056 461.262 395.538 459.479 396.485 457.216C397.208 455.469 397.569 452.89 397.569 449.481L397.569 446.645Z" fill="#eeeeec" fill-rule="nonzero" opacity="1" stroke="none" vectornator:layerName="path"/>
<path d="M414.684 469.552L414.684 406.557L421.411 406.557L421.411 469.552L414.684 469.552Z" fill="#eeeeec" fill-rule="nonzero" opacity="1" stroke="none" vectornator:layerName="path"/>
<path d="M459.038 454.855L465.989 455.844C464.893 460.513 462.863 464.137 459.898 466.715C456.933 469.294 453.146 470.583 448.537 470.583C442.732 470.583 438.13 468.527 434.729 464.417C431.328 460.306 429.628 454.541 429.628 447.121C429.628 439.444 431.347 433.486 434.785 429.246C438.223 425.006 442.682 422.886 448.163 422.886C453.47 422.886 457.805 424.963 461.168 429.117C464.532 433.271 466.213 439.115 466.213 446.648C466.213 447.107 466.201 447.794 466.176 448.711L436.579 448.711C436.829 453.724 438.062 457.563 440.279 460.227C442.496 462.891 445.262 464.224 448.575 464.224C451.042 464.224 453.147 463.479 454.891 461.989C456.635 460.499 458.018 458.122 459.039 454.856L459.038 454.855ZM436.952 442.351L459.113 442.351C458.814 438.512 457.967 435.633 456.572 433.714C454.429 430.734 451.651 429.245 448.238 429.245C445.149 429.245 442.552 430.434 440.447 432.811C438.342 435.189 437.177 438.369 436.952 442.351Z" fill="#eeeeec" fill-rule="nonzero" opacity="1" stroke="none" vectornator:layerName="path"/>
</g>
<g opacity="1" vectornator:layerName="text2193">
<path d="M333.692 399.783L333.692 385.73L330.936 385.73L330.936 383.596L333.692 383.596L333.692 381.874C333.692 380.786 333.802 379.978 334.021 379.45C334.322 378.739 334.85 378.162 335.607 377.72C336.364 377.278 337.424 377.057 338.787 377.057C339.665 377.057 340.635 377.149 341.698 377.331L341.23 379.724C340.583 379.623 339.971 379.572 339.393 379.572C338.446 379.572 337.776 379.75 337.383 380.105C336.99 380.461 336.794 381.127 336.794 382.102L336.794 383.596L340.381 383.596L340.381 385.73L336.794 385.73L336.794 399.783L333.692 399.783Z" fill="#8f5902" fill-rule="nonzero" opacity="1" stroke="none" vectornator:layerName="path"/>
<path d="M341.626 391.687C341.626 388.69 342.574 386.469 344.468 385.026C346.051 383.827 347.981 383.228 350.257 383.228C352.787 383.228 354.855 383.957 356.461 385.415C358.067 386.873 358.87 388.888 358.87 391.459C358.87 393.542 358.514 395.18 357.804 396.374C357.093 397.568 356.059 398.495 354.702 399.156C353.344 399.816 351.863 400.146 350.256 400.146C347.68 400.146 345.597 399.42 344.009 397.967C342.422 396.516 341.627 394.421 341.627 391.688L341.626 391.687ZM344.832 391.687C344.832 393.76 345.346 395.312 346.375 396.343C347.403 397.375 348.697 397.89 350.257 397.89C351.805 397.89 353.093 397.372 354.121 396.336C355.149 395.299 355.664 393.719 355.664 391.596C355.664 389.594 355.147 388.077 354.113 387.046C353.079 386.015 351.793 385.499 350.257 385.499C348.697 385.499 347.403 386.012 346.375 387.038C345.346 388.065 344.832 389.614 344.832 391.687Z" fill="#8f5902" fill-rule="nonzero" opacity="1" stroke="none" vectornator:layerName="path"/>
<path d="M362.51 399.783L362.51 383.596L365.317 383.596L365.317 386.05C366.034 384.902 366.695 384.145 367.302 383.779C367.908 383.413 368.575 383.23 369.303 383.23C370.355 383.23 371.423 383.525 372.509 384.114L371.435 386.66C370.672 386.263 369.91 386.065 369.147 386.065C368.466 386.065 367.853 386.245 367.31 386.606C366.767 386.967 366.38 387.467 366.149 388.107C365.803 389.083 365.629 390.15 365.629 391.308L365.629 399.783L362.51 399.783Z" fill="#8f5902" fill-rule="nonzero" opacity="1" stroke="none" vectornator:layerName="path"/>
</g>
<g opacity="1" vectornator:layerName="text3274">
<path d="M334.183 399.01L334.183 384.957L331.428 384.957L331.428 382.823L334.183 382.823L334.183 381.101C334.183 380.013 334.293 379.206 334.513 378.677C334.813 377.966 335.342 377.389 336.098 376.947C336.855 376.505 337.915 376.284 339.278 376.284C340.156 376.284 341.127 376.376 342.19 376.559L341.722 378.952C341.075 378.85 340.463 378.799 339.885 378.799C338.938 378.799 338.267 378.977 337.875 379.333C337.482 379.688 337.285 380.354 337.285 381.329L337.285 382.823L340.873 382.823L340.873 384.957L337.285 384.957L337.285 399.01L334.183 399.01Z" fill="#ffffff" fill-rule="nonzero" opacity="1" stroke="none" vectornator:layerName="path"/>
<path d="M342.122 390.918C342.122 387.92 343.069 385.7 344.964 384.257C346.547 383.058 348.476 382.459 350.752 382.459C353.282 382.459 355.35 383.188 356.956 384.646C358.562 386.104 359.365 388.118 359.365 390.689C359.365 392.772 359.01 394.411 358.3 395.605C357.589 396.799 356.555 397.726 355.197 398.386C353.84 399.047 352.358 399.377 350.752 399.377C348.176 399.377 346.093 398.651 344.505 397.198C342.916 395.745 342.122 393.651 342.122 390.918ZM345.328 390.918C345.328 392.991 345.842 394.543 346.87 395.574C347.899 396.605 349.193 397.121 350.752 397.121C352.3 397.121 353.589 396.603 354.617 395.566C355.645 394.53 356.159 392.95 356.159 390.826C356.159 388.825 355.642 387.308 354.608 386.277C353.574 385.245 352.289 384.73 350.752 384.73C349.193 384.73 347.899 385.243 346.87 386.269C345.842 387.295 345.328 388.845 345.328 390.918Z" fill="#ffffff" fill-rule="nonzero" opacity="1" stroke="none" vectornator:layerName="path"/>
<path d="M363.005 399.01L363.005 382.823L365.813 382.823L365.813 385.277C366.529 384.129 367.191 383.372 367.797 383.006C368.404 382.64 369.071 382.457 369.799 382.457C370.85 382.457 371.919 382.752 373.005 383.341L371.93 385.887C371.168 385.49 370.405 385.292 369.643 385.292C368.961 385.292 368.349 385.473 367.806 385.833C367.263 386.194 366.876 386.694 366.645 387.335C366.298 388.31 366.125 389.377 366.125 390.535L366.125 399.01L363.005 399.01Z" fill="#ffffff" fill-rule="nonzero" opacity="1" stroke="none" vectornator:layerName="path"/>
</g>
</g>
</svg>
