<svg height="511pt" viewBox="-44 0 511 511.984" width="511pt" xmlns="http://www.w3.org/2000/svg"><path d="m136.5 231.832031v207.921875c-.160156-35.28125-28.800781-63.761718-64-63.761718-35.359375 0-64 28.640624-64 64v-368c0-35.359376 28.640625-64 64-64 35.28125 0 64 28.640624 64 64zm0 0" fill="#ed5565"/><path d="m72.5 423.992188c8.800781 0 16 7.199218 16 16 0 8.800781-7.199219 16-16 16-8.878906 0-16-7.199219-16-16 0-8.800782 7.121094-16 16-16zm0 0" fill="#d3374e"/><path d="m88.5 439.992188c0-8.800782-7.199219-16-16-16-8.878906 0-16 7.199218-16 16 0 8.800781 7.121094 16 16 16 8.792969 0 16-7.199219 16-16zm-16-40c22.078125 0 40 17.917968 40 40 0 22.078124-17.921875 40-40 40s-40-17.921876-40-40c0-22.082032 17.921875-40 40-40zm0 0" fill="#da4453"/><path d="m136.5 439.753906v.238282c0 11.679687-3.121094 22.640624-8.558594 32-11.121094 19.121093-31.832031 32-55.441406 32-35.359375 0-64-28.640626-64-64 0-35.359376 28.640625-64 64-64 35.199219 0 63.839844 28.480468 64 63.761718zm-24 .238282c0-22.082032-17.921875-40-40-40s-40 17.917968-40 40c0 22.078124 17.921875 40 40 40s40-17.921876 40-40zm0 0" fill="#d3374e"/><g fill="#da4453"><path d="m360.421875 503.671875v.320313h-31.921875v-32h31.921875zm0 0"/><path d="m296.5 503.671875v.320313h-32v-32h32zm0 0"/><path d="m72.5 503.992188c23.601562 0 44.320312-12.878907 55.441406-32h8.558594v32zm0 0"/><path d="m200.5 503.671875v.320313h-32v-32h32zm0 0"/><path d="m168.5 503.671875v.320313h-32v-32h32zm0 0"/><path d="m232.5 503.671875v.320313h-32v-32h32zm0 0"/><path d="m264.5 503.671875v.320313h-32v-32h32zm0 0"/><path d="m328.5 503.671875v.320313h-32v-32h32zm0 0"/><path d="m416.421875 447.910156v56.082032h-56v-32h24.078125v-24.082032zm0 0"/><path d="m416.421875 415.910156v32h-31.921875v-32zm0 0"/><path d="m416.421875 383.910156v32h-31.921875v-32zm0 0"/><path d="m416.421875 351.910156v32h-31.921875v-32zm0 0"/><path d="m416.421875 319.910156v32h-31.921875v-32zm0 0"/><path d="m416.421875 287.910156v32h-31.921875v-32zm0 0"/><path d="m296.5 72.472656v31.519532h-32v-32h32zm0 0"/><path d="m360.421875 72.472656v31.519532h-31.921875v-32h31.921875zm0 0"/><path d="m168.5 72.472656v31.519532h-32v-32h32zm0 0"/><path d="m200.5 72.472656v31.519532h-32v-32h32zm0 0"/><path d="m232.5 72.472656v31.519532h-32v-32h32zm0 0"/><path d="m264.5 72.472656v31.519532h-32v-32h32zm0 0"/><path d="m328.5 72.472656v31.519532h-32v-32h32zm0 0"/><path d="m416.421875 71.992188v56h-31.921875v-24h-24.078125v-32zm0 0"/><path d="m416.421875 127.992188v31.917968h-31.921875v-31.917968zm0 0"/><path d="m416.421875 159.910156v32h-31.921875v-32zm0 0"/><path d="m416.421875 191.910156v32h-31.921875v-32zm0 0"/><path d="m416.421875 223.910156v32h-31.921875v-32zm0 0"/><path d="m416.421875 255.910156v32h-31.921875v-32zm0 0"/></g><path d="m288.496094 287.992188 16-15.996094 15.996094 15.996094-15.996094 15.996093zm0 0" fill="#ed5565"/><path d="m136.5 259.910156c15.441406.160156 27.839844 12.640625 27.839844 28.082032 0 15.441406-12.40625 27.917968-27.839844 28.078124zm0 0" fill="#ffce54"/><path d="m136.5 231.832031c30.960938.160157 55.921875 25.273438 55.921875 56.160157 0 30.960937-24.960937 56-55.921875 56.160156v-28.082032c15.441406-.160156 27.839844-12.636718 27.839844-28.078124 0-15.441407-12.40625-27.921876-27.839844-28.082032zm0 0" fill="#f6bb42"/><path d="m136.5 199.832031c48.640625.160157 87.921875 39.601563 87.921875 88.160157 0 48.640624-39.28125 88-87.921875 88.160156v-32c30.960938-.160156 55.921875-25.191406 55.921875-56.160156 0-30.878907-24.960937-56-55.921875-56.160157zm0 0" fill="#ffce54"/><path d="m136.5 167.832031c66.320312.160157 119.921875 53.921875 119.921875 120.160157 0 66.320312-53.601563 120-119.921875 120.160156v-32c48.640625-.160156 87.921875-39.519532 87.921875-88.160156 0-48.558594-39.28125-88-87.921875-88.160157zm0 0" fill="#f6bb42"/><path d="m352.339844 343.992188v32c-35.199219.078124-63.679688 28.480468-63.839844 63.761718h-32c.160156-52.960937 42.878906-95.683594 95.839844-95.761718zm0 0" fill="#f6bb42"/><path d="m352.339844 407.910156v.082032c-17.601563.078124-31.679688 14.160156-31.839844 31.761718h-32c.167969-35.28125 28.640625-63.683594 63.839844-63.761718zm0 0" fill="#ffce54"/><path d="m352.339844 407.992188v-240c-17.679688-.082032-31.769532-14.320313-31.839844-31.921876h-184v-32.078124h248v368h-256.558594c5.445313-9.359376 8.558594-20.320313 8.558594-32v-.238282h184c.160156-17.601562 14.238281-31.683594 31.839844-31.761718zm0 0" fill="#ed5565"/><path d="m352.339844 167.992188v31.839843c-35.28125-.089843-63.679688-28.558593-63.769532-63.769531h31.921876c.085937 17.609375 14.167968 31.847656 31.847656 31.929688zm0 0" fill="#ffce54"/><path d="m352.339844 199.832031v32c-52.960938-.089843-95.679688-42.878906-95.769532-95.769531h32c.089844 35.210938 28.488282 63.691406 63.769532 63.769531zm0 0" fill="#f6bb42"/><path d="m352.339844 231.832031v112.160157c-52.960938.078124-95.679688 42.800781-95.839844 95.761718h-120v-31.601562c66.320312-.160156 119.921875-53.839844 119.921875-120.160156 0-66.238282-53.601563-120-119.921875-120.160157v-31.761719h120.078125c.082031 52.882813 42.800781 95.683594 95.761719 95.761719zm-47.839844 72.160157 16-16-16-16-16 16zm0 0" fill="#da4453"/><path d="m72.492188 487.984375c-26.472657 0-48-21.527344-48-48s21.527343-48 48-48c26.472656 0 48 21.527344 48 48s-21.527344 48-48 48zm0-80c-17.648438 0-32 14.351563-32 32s14.351562 32 32 32c17.648437 0 32-14.351563 32-32s-14.351563-32-32-32zm0 0"/><path d="m72.492188 511.984375c-39.703126 0-72-32.296875-72-72s32.296874-72 72-72c39.703124 0 72 32.296875 72 72s-32.296876 72-72 72zm0-128c-30.871094 0-56 25.128906-56 56s25.128906 56 56 56c30.871093 0 56-25.128906 56-56s-25.128907-56-56-56zm0 0"/><path d="m136.492188 80c-4.425782 0-8-3.574219-8-8 0-30.871094-25.128907-56-56-56-30.871094 0-56 25.128906-56 56 0 4.425781-3.578126 8-8 8-4.425782 0-8-3.574219-8-8 0-39.703125 32.296874-72 72-72 39.703124 0 72 32.296875 72 72 0 4.425781-3.578126 8-8 8zm0 0"/><path d="m72.492188 463.984375c-13.230469 0-24-10.769531-24-24s10.769531-24 24-24c13.230468 0 24 10.769531 24 24s-10.769532 24-24 24zm0-32c-4.417969 0-8 3.582031-8 8 0 4.414063 3.582031 8 8 8 4.414062 0 8-3.585937 8-8 0-4.417969-3.585938-8-8-8zm0 0"/><path d="m136.492188 447.984375c-4.425782 0-8-3.578125-8-8v-367.984375c0-4.425781 3.574218-8 8-8 4.421874 0 8 3.574219 8 8v367.984375c0 4.421875-3.578126 8-8 8zm0 0"/><path d="m8.492188 447.984375c-4.425782 0-8-3.578125-8-8v-367.984375c0-4.425781 3.574218-8 8-8 4.421874 0 8 3.574219 8 8v367.984375c0 4.421875-3.578126 8-8 8zm0 0"/><path d="m416.429688 511.984375h-343.9375c-4.425782 0-8-3.578125-8-8 0-4.425781 3.574218-8 8-8h343.9375c4.421874 0 8 3.574219 8 8 0 4.421875-3.578126 8-8 8zm0 0"/><path d="m320.476562 447.777344h-183.984374c-4.425782 0-8-3.578125-8-8 0-4.425782 3.574218-8 8-8h183.984374c4.421876 0 8 3.574218 8 8 0 4.421875-3.578124 8-8 8zm0 0"/><path d="m416.429688 80h-279.9375c-4.425782 0-8-3.574219-8-8s3.574218-8 8-8h279.9375c4.421874 0 8 3.574219 8 8s-3.578126 8-8 8zm0 0"/><path d="m320.476562 144.0625h-183.984374c-4.425782 0-8-3.574219-8-8 0-4.421875 3.574218-8 8-8h183.984374c4.421876 0 8 3.578125 8 8 0 4.425781-3.578124 8-8 8zm0 0"/><path d="m416.429688 511.984375c-4.425782 0-8-3.578125-8-8v-431.984375c0-4.425781 3.574218-8 8-8 4.421874 0 8 3.574219 8 8v431.984375c0 4.421875-3.578126 8-8 8zm0 0"/><path d="m352.363281 415.960938c-4.421875 0-8-3.578126-8-8v-239.96875c0-4.425782 3.578125-8 8-8 4.425781 0 8 3.574218 8 8v239.96875c0 4.421874-3.574219 8-8 8zm0 0"/><path d="m136.300781 384.183594c-4.425781 0-8-3.574219-8-8 0-4.421875 3.574219-8 8-8 44.191407 0 80.160157-35.960938 80.160157-80.167969s-35.960938-80.167969-80.160157-80.167969c-4.425781 0-8-3.574218-8-8 0-4.421875 3.574219-8 8-8 53.023438 0 96.160157 43.144532 96.160157 96.167969s-43.136719 96.167969-96.160157 96.167969zm0 0"/><path d="m136.300781 416.183594c-4.425781 0-8-3.574219-8-8 0-4.421875 3.574219-8 8-8 61.839844 0 112.160157-50.320313 112.160157-112.167969s-50.3125-112.167969-112.160157-112.167969c-4.425781 0-8-3.574218-8-8 0-4.421875 3.574219-8 8-8 70.664063 0 128.160157 57.496094 128.160157 128.167969s-57.496094 128.167969-128.160157 128.167969zm0 0"/><path d="m136.300781 352.183594c-4.425781 0-8-3.574219-8-8 0-4.421875 3.574219-8 8-8 26.550781 0 48.160157-21.609375 48.160157-48.167969s-21.601563-48.167969-48.160157-48.167969c-4.425781 0-8-3.574218-8-8 0-4.421875 3.574219-8 8-8 35.375 0 64.160157 28.785156 64.160157 64.167969s-28.785157 64.167969-64.160157 64.167969zm0 0"/><path d="m136.300781 324.113281c-4.425781 0-8-3.578125-8-8 0-4.425781 3.574219-8 8-8 11.070313 0 20.078125-9.007812 20.078125-20.089843 0-11.078126-9.007812-20.085938-20.078125-20.085938-4.425781 0-8-3.578125-8-8 0-4.425781 3.574219-8 8-8 19.886719 0 36.078125 16.183594 36.078125 36.085938 0 19.90625-16.183594 36.089843-36.078125 36.089843zm0 0"/><path d="m352.476562 175.984375c-22.054687 0-40-17.945313-40-40.007813 0-4.425781 3.574219-8 8-8 4.421876 0 8 3.574219 8 8 0 13.230469 10.765626 24.007813 24 24.007813 4.421876 0 8 3.574219 8 8 0 4.421875-3.578124 8-8 8zm0 0"/><path d="m352.476562 207.863281c-39.632812 0-71.871093-32.246093-71.871093-71.886719 0-4.425781 3.574219-8 8-8 4.421875 0 8 3.574219 8 8 0 30.824219 25.0625 55.886719 55.871093 55.886719 4.421876 0 8 3.578125 8 8 0 4.425781-3.578124 8-8 8zm0 0"/><path d="m352.476562 239.863281c-57.265624 0-103.855468-46.597656-103.855468-103.886719 0-4.425781 3.574218-8 8-8 4.421875 0 8 3.574219 8 8 0 48.464844 39.414062 87.886719 87.855468 87.886719 4.421876 0 8 3.578125 8 8 0 4.425781-3.578124 8-8 8zm0 0"/><path d="m320.476562 447.96875c-4.425781 0-8-3.578125-8-8 0-22.058594 17.945313-40 40-40 4.421876 0 8 3.574219 8 8 0 4.421875-3.578124 8-8 8-13.234374 0-24 10.765625-24 24 0 4.421875-3.578124 8-8 8zm0 0"/><path d="m288.492188 447.96875c-4.425782 0-8-3.578125-8-8 0-39.703125 32.296874-72 72-72 4.421874 0 8 3.574219 8 8 0 4.421875-3.578126 8-8 8-30.871094 0-56 25.128906-56 56 0 4.421875-3.578126 8-8 8zm0 0"/><path d="m256.492188 447.96875c-4.425782 0-8-3.578125-8-8 0-57.34375 46.65625-104 104-104 4.421874 0 8 3.574219 8 8 0 4.421875-3.578126 8-8 8-48.519532 0-88 39.480469-88 88 0 4.421875-3.578126 8-8 8zm0 0"/><path d="m352.613281 144.0625c-4.425781 0-8.042969-3.574219-8.042969-8 0-4.421875 3.539063-8 7.953126-8h.089843c4.414063 0 8 3.578125 8 8 0 4.425781-3.59375 8-8 8zm0 0"/><path d="m352.613281 447.777344c-4.425781 0-8.042969-3.578125-8.042969-8 0-4.425782 3.539063-8 7.953126-8h.089843c4.414063 0 8 3.574218 8 8 0 4.421875-3.59375 8-8 8zm0 0"/><path d="m384.476562 111.96875h-248.175781c-4.425781 0-8-3.578125-8-8 0-4.425781 3.574219-8 8-8h248.167969c4.421875 0 8 3.574219 8 8 0 4.421875-3.570312 8-7.992188 8zm0 0"/><path d="m384.476562 479.984375c-4.425781 0-8-3.578125-8-8v-368.015625c0-4.425781 3.574219-8 8-8 4.421876 0 8 3.574219 8 8v368.015625c0 4.421875-3.578124 8-8 8zm0 0"/><path d="m384.476562 479.984375h-256.542968c-4.425782 0-8-3.578125-8-8 0-4.425781 3.574218-8 8-8h256.542968c4.421876 0 8 3.574219 8 8 0 4.421875-3.578124 8-8 8zm0 0"/><path d="m200.507812 111.96875c-4.421874 0-8-3.578125-8-8v-31.488281c0-4.425781 3.578126-8 8-8 4.425782 0 8 3.574219 8 8v31.496093c0 4.414063-3.574218 7.992188-8 7.992188zm0 0"/><path d="m168.476562 111.96875c-4.425781 0-8-3.578125-8-8v-31.488281c0-4.425781 3.574219-8 8-8 4.421876 0 8 3.574219 8 8v31.496093c0 4.414063-3.578124 7.992188-8 7.992188zm0 0"/><path d="m232.492188 111.96875c-4.425782 0-8-3.578125-8-8v-31.488281c0-4.425781 3.574218-8 8-8 4.421874 0 8 3.574219 8 8v31.496093c0 4.414063-3.578126 7.992188-8 7.992188zm0 0"/><path d="m264.492188 111.96875c-4.425782 0-8-3.578125-8-8v-31.488281c0-4.425781 3.574218-8 8-8 4.421874 0 8 3.574219 8 8v31.496093c0 4.414063-3.578126 7.992188-8 7.992188zm0 0"/><path d="m296.476562 111.96875c-4.425781 0-8-3.578125-8-8v-31.488281c0-4.425781 3.574219-8 8-8 4.421876 0 8 3.574219 8 8v31.496093c0 4.414063-3.578124 7.992188-8 7.992188zm0 0"/><path d="m328.476562 111.96875c-4.425781 0-8-3.578125-8-8v-31.488281c0-4.425781 3.574219-8 8-8 4.421876 0 8 3.574219 8 8v31.496093c0 4.414063-3.578124 7.992188-8 7.992188zm0 0"/><path d="m360.460938 111.96875c-4.425782 0-8-3.578125-8-8v-31.488281c0-4.425781 3.574218-8 8-8 4.421874 0 8 3.574219 8 8v31.496093c0 4.414063-3.578126 7.992188-8 7.992188zm0 0"/><path d="m416.226562 135.96875h-31.503906c-4.421875 0-8-3.578125-8-8 0-4.425781 3.578125-8 8-8h31.503906c4.425782 0 8 3.574219 8 8 0 4.421875-3.582031 8-8 8zm0 0"/><path d="m416.226562 167.960938h-31.503906c-4.421875 0-8-3.578126-8-8 0-4.425782 3.578125-8 8-8h31.503906c4.425782 0 8 3.574218 8 8 0 4.421874-3.582031 8-8 8zm0 0"/><path d="m416.226562 199.953125h-31.503906c-4.421875 0-8-3.578125-8-8 0-4.425781 3.578125-8 8-8h31.503906c4.425782 0 8 3.574219 8 8 0 4.421875-3.582031 8-8 8zm0 0"/><path d="m416.226562 231.945312h-31.503906c-4.421875 0-8-3.578124-8-8 0-4.425781 3.578125-8 8-8h31.503906c4.425782 0 8 3.574219 8 8 0 4.421876-3.582031 8-8 8zm0 0"/><path d="m416.226562 263.9375h-31.503906c-4.421875 0-8-3.578125-8-8 0-4.425781 3.578125-8 8-8h31.503906c4.425782 0 8 3.574219 8 8 0 4.421875-3.582031 8-8 8zm0 0"/><path d="m416.226562 295.929688h-31.503906c-4.421875 0-8-3.578126-8-8 0-4.425782 3.578125-8 8-8h31.503906c4.425782 0 8 3.574218 8 8 0 4.421874-3.582031 8-8 8zm0 0"/><path d="m416.226562 327.921875h-31.503906c-4.421875 0-8-3.578125-8-8 0-4.425781 3.578125-8 8-8h31.503906c4.425782 0 8 3.574219 8 8 0 4.421875-3.582031 8-8 8zm0 0"/><path d="m416.226562 359.910156h-31.503906c-4.421875 0-8-3.574218-8-8 0-4.421875 3.578125-8 8-8h31.503906c4.425782 0 8 3.578125 8 8 0 4.425782-3.582031 8-8 8zm0 0"/><path d="m416.226562 391.902344h-31.503906c-4.421875 0-8-3.574219-8-8 0-4.421875 3.578125-8 8-8h31.503906c4.425782 0 8 3.578125 8 8 0 4.425781-3.582031 8-8 8zm0 0"/><path d="m416.226562 423.894531h-31.503906c-4.421875 0-8-3.574219-8-8 0-4.421875 3.578125-8 8-8h31.503906c4.425782 0 8 3.578125 8 8 0 4.425781-3.582031 8-8 8zm0 0"/><path d="m416.226562 455.929688h-31.503906c-4.421875 0-8-3.578126-8-8 0-4.425782 3.578125-8 8-8h31.503906c4.425782 0 8 3.574218 8 8 0 4.421874-3.582031 8-8 8zm0 0"/><path d="m200.507812 511.726562c-4.421874 0-8-3.574218-8-8v-31.496093c0-4.421875 3.578126-8 8-8 4.425782 0 8 3.578125 8 8v31.496093c0 4.425782-3.574218 8-8 8zm0 0"/><path d="m168.523438 511.726562c-4.421876 0-8-3.574218-8-8v-31.496093c0-4.421875 3.578124-8 8-8 4.425781 0 8 3.578125 8 8v31.496093c0 4.425782-3.574219 8-8 8zm0 0"/><path d="m136.492188 511.726562c-4.425782 0-8-3.574218-8-8v-31.496093c0-4.421875 3.574218-8 8-8 4.421874 0 8 3.578125 8 8v31.496093c0 4.425782-3.578126 8-8 8zm0 0"/><path d="m232.492188 511.726562c-4.425782 0-8-3.574218-8-8v-31.496093c0-4.421875 3.574218-8 8-8 4.421874 0 8 3.578125 8 8v31.496093c0 4.425782-3.578126 8-8 8zm0 0"/><path d="m264.492188 511.726562c-4.425782 0-8-3.574218-8-8v-31.496093c0-4.421875 3.574218-8 8-8 4.421874 0 8 3.578125 8 8v31.496093c0 4.425782-3.578126 8-8 8zm0 0"/><path d="m296.476562 511.726562c-4.425781 0-8-3.574218-8-8v-31.496093c0-4.421875 3.574219-8 8-8 4.421876 0 8 3.578125 8 8v31.496093c0 4.425782-3.578124 8-8 8zm0 0"/><path d="m328.476562 511.726562c-4.425781 0-8-3.574218-8-8v-31.496093c0-4.421875 3.574219-8 8-8 4.421876 0 8 3.578125 8 8v31.496093c0 4.425782-3.578124 8-8 8zm0 0"/><path d="m360.460938 511.726562c-4.425782 0-8-3.574218-8-8v-31.496093c0-4.421875 3.574218-8 8-8 4.421874 0 8 3.578125 8 8v31.496093c0 4.425782-3.578126 8-8 8zm0 0"/><path d="m304.476562 311.96875c-2.046874 0-4.097656-.785156-5.65625-2.34375l-16-16c-3.128906-3.128906-3.128906-8.183594 0-11.3125l16-16c3.128907-3.128906 8.183594-3.128906 11.3125 0l16 16c3.128907 3.128906 3.128907 8.183594 0 11.3125l-16 16c-1.5625 1.558594-3.609374 2.34375-5.65625 2.34375zm-4.6875-24 4.6875 4.6875 4.6875-4.6875-4.6875-4.6875zm0 0"/></svg>