<svg id="Capa_1" enable-background="new 0 0 512.058 512.058" height="512" viewBox="0 0 512.058 512.058" width="512" xmlns="http://www.w3.org/2000/svg"><g><path d="m23.062 38.562h217.436v264.045h-217.436z" fill="#edf4f9"/><path d="m240.498 38.562v248.619h-217.436v186.253h465.934v-434.872z" fill="#d78a55"/><path d="m23.062 38.562h31.062v264.029h-31.062z" fill="#d5ebf7"/><path d="m7.531 7.5h496.996v31.062h-496.996z" fill="#ae6834"/><path d="m7.531 7.5h46.593v31.062h-46.593z" fill="#804e2a"/><path d="m7.531 473.495h496.996v31.062h-496.996z" fill="#ae6834"/><path d="m7.531 473.495h46.593v31.062h-46.593z" fill="#804e2a"/><path d="m364.747 38.562h30v434.872h-30z" fill="#bf7642"/><path d="m54.124 69.655h155.311v186.434h-155.311z" fill="#a4d9f4"/><path d="m54.124 69.655h30v186.434h-30z" fill="#84d1ef"/><path d="m270.498 38.562h-30v310.797h-186.374v-62.178h-31.062v186.268l247.436-.015zm-216.374 341.859h186.374v61.966h-186.374z" fill="#bf7642"/></g><g><path d="m504.527 46.062c4.143 0 7.5-3.358 7.5-7.5v-31.062c0-4.142-3.357-7.5-7.5-7.5h-496.996c-4.142 0-7.5 3.358-7.5 7.5v31.062c0 4.142 3.358 7.5 7.5 7.5h8.031v419.934h-8.031c-4.142 0-7.5 3.358-7.5 7.5v31.062c0 4.142 3.358 7.5 7.5 7.5h496.996c4.143 0 7.5-3.358 7.5-7.5v-31.062c0-4.142-3.357-7.5-7.5-7.5h-8.031v-419.934zm-489.496-31.062h481.996v16.062h-481.996zm15.531 279.681h202.436v78.066h-202.436zm202.436-248.619v233.619h-202.436v-233.619zm264.029 450.996h-481.996v-16.062h54.625c4.142 0 7.5-3.358 7.5-7.5s-3.358-7.5-7.5-7.5h-39.094v-78.128h202.436v78.128h-131.468c-4.142 0-7.5 3.358-7.5 7.5s3.358 7.5 7.5 7.5h395.497zm-15.531-31.124h-109.249v-60.069c0-4.142-3.357-7.5-7.5-7.5s-7.5 3.358-7.5 7.5v60.069h-109.249v-419.872h109.249v327.117c0 4.142 3.357 7.5 7.5 7.5s7.5-3.358 7.5-7.5v-327.117h109.249z"/><path d="m54.124 263.589h155.312c4.142 0 7.5-3.358 7.5-7.5v-31.062c0-4.142-3.358-7.5-7.5-7.5s-7.5 3.358-7.5 7.5v23.562h-140.312v-171.434h140.312v116.75c0 4.142 3.358 7.5 7.5 7.5s7.5-3.358 7.5-7.5v-124.25c0-4.142-3.358-7.5-7.5-7.5h-155.312c-4.142 0-7.5 3.358-7.5 7.5v186.434c0 4.142 3.358 7.5 7.5 7.5z"/><path d="m89.627 136.793 31.062-31.123c2.926-2.932 2.921-7.68-.011-10.606s-7.681-2.921-10.606.011l-31.062 31.122c-2.926 2.932-2.921 7.68.01 10.606 2.924 2.917 7.671 2.931 10.607-.01z"/><path d="m90.495 182.934 76.738-76.888c2.926-2.932 2.921-7.681-.01-10.607-2.933-2.926-7.682-2.921-10.607.01l-76.738 76.888c-2.926 2.932-2.921 7.681.01 10.607 2.92 2.913 7.668 2.934 10.607-.01z"/><path d="m155.077 310.623h-46.594c-4.142 0-7.5 3.358-7.5 7.5s3.358 7.5 7.5 7.5h46.594c4.142 0 7.5-3.358 7.5-7.5s-3.358-7.5-7.5-7.5z"/><path d="m333.684 225.201c-4.143 0-7.5 3.358-7.5 7.5v46.594c0 4.142 3.357 7.5 7.5 7.5s7.5-3.358 7.5-7.5v-46.594c0-4.142-3.357-7.5-7.5-7.5z"/><path d="m395.809 286.795c4.143 0 7.5-3.358 7.5-7.5v-46.594c0-4.142-3.357-7.5-7.5-7.5s-7.5 3.358-7.5 7.5v46.594c0 4.142 3.358 7.5 7.5 7.5z"/><path d="m108.483 418.96h46.594c4.142 0 7.5-3.358 7.5-7.5s-3.358-7.5-7.5-7.5h-46.594c-4.142 0-7.5 3.358-7.5 7.5s3.358 7.5 7.5 7.5z"/></g></svg>