<?xml version="1.0" encoding="UTF-8" standalone="no"?>
<!DOCTYPE svg PUBLIC "-//W3C//DTD SVG 1.1//EN" "http://www.w3.org/Graphics/SVG/1.1/DTD/svg11.dtd">
<!-- Created with Vectornator (http://vectornator.io/) -->
<svg height="100%" stroke-miterlimit="10" style="fill-rule:nonzero;clip-rule:evenodd;stroke-linecap:round;stroke-linejoin:round;" version="1.1" viewBox="0 0 511.996 511.996" width="100%" xml:space="preserve" xmlns="http://www.w3.org/2000/svg" xmlns:vectornator="http://vectornator.io" xmlns:xlink="http://www.w3.org/1999/xlink">
<defs/>
<clipPath id="ArtboardFrame">
<rect height="511.996" width="511.996" x="0" y="0"/>
</clipPath>
<g clip-path="url(#ArtboardFrame)" id="Untitled" vectornator:layerName="Untitled">
<path d="M96 49.0041L415.996 49.0041L415.996 49.0041L415.996 80.8706L415.996 80.8706L96 80.8706L96 80.8706L96 49.0041L96 49.0041Z" fill="#cbbba0" fill-rule="nonzero" opacity="1" stroke="none" vectornator:layerName="rect"/>
<path d="M24 80.8706L487.996 80.8706L487.996 80.8706L487.996 367.669L487.996 367.669L24 367.669L24 367.669L24 80.8706L24 80.8706Z" fill="#fac15c" fill-rule="nonzero" opacity="1" stroke="none" vectornator:layerName="rect"/>
<g opacity="1" vectornator:layerName="g">
<path d="M168 123.369L200 123.369L200 123.369L200 187.101L200 187.101L168 187.101L168 187.101L168 123.369L168 123.369Z" fill="#ffffff" fill-rule="nonzero" opacity="1" stroke="none" vectornator:layerName="rect"/>
<path d="M240 123.369L272 123.369L272 123.369L272 187.101L272 187.101L240 187.101L240 187.101L240 123.369L240 123.369Z" fill="#ffffff" fill-rule="nonzero" opacity="1" stroke="none" vectornator:layerName="rect"/>
<path d="M312 123.369L344 123.369L344 123.369L344 187.101L344 187.101L312 187.101L312 187.101L312 123.369L312 123.369Z" fill="#ffffff" fill-rule="nonzero" opacity="1" stroke="none" vectornator:layerName="rect"/>
</g>
<g opacity="1" vectornator:layerName="g">
<path d="M72 123.369L120 123.369L120 123.369L120 272.083L120 272.083L72 272.083L72 272.083L72 123.369L72 123.369Z" fill="#be1622" fill-rule="nonzero" opacity="1" stroke="none" vectornator:layerName="rect"/>
<path d="M391.996 123.369L439.996 123.369L439.996 123.369L439.996 272.083L439.996 272.083L391.996 272.083L391.996 272.083L391.996 123.369L391.996 123.369Z" fill="#be1622" fill-rule="nonzero" opacity="1" stroke="none" vectornator:layerName="rect"/>
</g>
<g opacity="1" vectornator:layerName="g">
<path d="M72 272.068L120 272.068L120 272.068L120 325.183L120 325.183L72 325.183L72 325.183L72 272.068L72 272.068Z" fill="#ffffff" fill-rule="nonzero" opacity="1" stroke="none" vectornator:layerName="rect"/>
<path d="M391.996 272.068L439.996 272.068L439.996 272.068L439.996 325.183L439.996 325.183L391.996 325.183L391.996 325.183L391.996 272.068L391.996 272.068Z" fill="#ffffff" fill-rule="nonzero" opacity="1" stroke="none" vectornator:layerName="rect"/>
</g>
<path d="M24 367.668L487.996 367.668L487.996 367.668L487.996 452.649L487.996 452.649L24 452.649L24 452.649L24 367.668L24 367.668Z" fill="#cbbba0" fill-rule="nonzero" opacity="1" stroke="none" vectornator:layerName="rect"/>
<path d="M216 303.935L295.996 303.935L295.996 303.935L295.996 399.534L295.996 399.534L216 399.534L216 399.534L216 303.935L216 303.935Z" fill="#ffffff" fill-rule="nonzero" opacity="1" stroke="none" vectornator:layerName="rect"/>
<path d="M168 229.585L343.996 229.585L343.996 229.585L343.996 272.073L343.996 272.073L168 272.073L168 272.073L168 229.585L168 229.585Z" fill="#be1622" fill-rule="nonzero" opacity="1" stroke="none" vectornator:layerName="rect"/>
<g opacity="1" vectornator:layerName="g">
<path d="M0 451.763L511.996 451.763L511.996 451.763L511.996 472.555L511.996 472.555L0 472.555L0 472.555L0 451.763L0 451.763Z" fill="#1d1d1b" fill-rule="nonzero" opacity="1" stroke="none" vectornator:layerName="rect"/>
<path d="M0 71.7355L511.996 71.7355L511.996 71.7355L511.996 92.5271L511.996 92.5271L0 92.5271L0 92.5271L0 71.7355L0 71.7355Z" fill="#1d1d1b" fill-rule="nonzero" opacity="1" stroke="none" vectornator:layerName="rect"/>
<path d="M96 38.6076L415.996 38.6076L415.996 38.6076L415.996 59.3992L415.996 59.3992L96 59.3992L96 59.3992L96 38.6076L96 38.6076Z" fill="#1d1d1b" fill-rule="nonzero" opacity="1" stroke="none" vectornator:layerName="rect"/>
</g>
<g opacity="1" vectornator:layerName="g">
<path d="M151.996 421.005L359.999 421.005L359.999 421.005L359.999 441.797L359.999 441.797L151.996 441.797L151.996 441.797L151.996 421.005L151.996 421.005Z" fill="#1d1d1b" fill-rule="nonzero" opacity="1" stroke="none" vectornator:layerName="rect"/>
<path d="M207.83 197.494L160.171 197.494L160.171 112.969L207.83 112.969L207.83 197.494ZM175.83 176.702L192.171 176.702L192.171 133.761L175.83 133.761L175.83 176.702Z" fill="#1d1d1b" fill-rule="nonzero" opacity="1" stroke="none" vectornator:layerName="path"/>
<path d="M279.83 197.494L232.17 197.494L232.17 112.969L279.829 112.969L279.829 197.494L279.83 197.494ZM247.829 176.702L264.17 176.702L264.17 133.761L247.829 133.761L247.829 176.702Z" fill="#1d1d1b" fill-rule="nonzero" opacity="1" stroke="none" vectornator:layerName="path"/>
<path d="M351.829 197.494L304.17 197.494L304.17 112.969L351.829 112.969L351.829 197.494ZM319.829 176.702L336.17 176.702L336.17 133.761L319.829 133.761L319.829 176.702Z" fill="#1d1d1b" fill-rule="nonzero" opacity="1" stroke="none" vectornator:layerName="path"/>
<path d="M335.829 282.47L351.828 282.47L351.828 219.19L160.171 219.19L160.171 282.47L176.17 282.47L176.17 389.144L168 389.144L168 409.936L344 409.936L344 389.144L335.83 389.144L335.83 282.47L335.829 282.47ZM175.83 239.983L336.17 239.983L336.17 261.68L175.83 261.68L175.83 239.983ZM191.83 282.47L320.17 282.47L320.17 389.144L303.83 389.144L303.83 293.545L208.17 293.545L208.17 389.144L191.83 389.144L191.83 282.47ZM263.829 314.336L288.17 314.336L288.17 389.144L263.829 389.144L263.829 314.336ZM248.171 389.144L223.83 389.144L223.83 314.336L248.17 314.336L248.17 389.144L248.171 389.144Z" fill="#1d1d1b" fill-rule="nonzero" opacity="1" stroke="none" vectornator:layerName="path"/>
<path d="M168.001 378.069L168.001 357.278L31.829 357.278L31.829 102.119L16.17 102.119L16.17 442.029L31.829 442.029L31.829 378.069L168.001 378.069Z" fill="#1d1d1b" fill-rule="nonzero" opacity="1" stroke="none" vectornator:layerName="polygon"/>
<path d="M480.171 102.119L480.171 357.278L343.999 357.278L343.999 378.069L480.171 378.069L480.171 442.029L495.829 442.029L495.829 102.119L480.171 102.119Z" fill="#1d1d1b" fill-rule="nonzero" opacity="1" stroke="none" vectornator:layerName="polygon"/>
<path d="M127.829 112.968L64.17 112.968L64.17 335.579L127.829 335.579C127.829 335.579 127.829 112.968 127.829 112.968ZM112.17 133.76L112.17 261.678L79.83 261.678L79.83 133.76L112.17 133.76L112.17 133.76ZM79.83 314.789L79.83 282.471L112.17 282.471L112.17 314.789L79.83 314.789Z" fill="#1d1d1b" fill-rule="nonzero" opacity="1" stroke="none" vectornator:layerName="path"/>
<path d="M447.828 112.968L384.17 112.968L384.17 335.579L447.828 335.579L447.828 112.968ZM432.17 133.76L432.17 261.678L399.83 261.678L399.83 133.76L432.17 133.76L432.17 133.76ZM399.83 314.789L399.83 282.471L432.17 282.471L432.17 314.789L399.83 314.789Z" fill="#1d1d1b" fill-rule="nonzero" opacity="1" stroke="none" vectornator:layerName="path"/>
</g>
</g>
</svg>
