<svg height="512" viewBox="0 0 58 59" width="512" xmlns="http://www.w3.org/2000/svg"><g id="Page-1" fill="none" fill-rule="evenodd"><g id="092---No-Bugs" fill-rule="nonzero"><circle id="Oval" cx="29" cy="29" fill="#ecf0f1" r="26"/><g fill="#804537"><path id="Shape" d="m8.432 46.737c-.40170806-.0020608-.76318941-.2443024-.91781843-.6150631-.15462901-.3707607-.0723862-.7980614.20881843-1.0849369 1.1407646-1.1489015 2.14018038-2.42998 2.977-3.816 1.7724001-2.8748233 4.5720894-4.9677082 7.831-5.854.3441814-.1110925.721526-.0276867.9868207.2181204.2652946.245807.3771916.6157051.2926298.9673465-.0845617.3516414-.352403.6302209-.7004505.7285331-2.784303.7480209-5.1796906 2.5274006-6.7 4.977-.9174399 1.5191395-2.0128478 2.9233967-3.263 4.183-.188952.1906222-.44660098.2972853-.715.296z"/><path id="Shape" d="m18.725 26.647c-.1016476.0005588-.2027939-.014276-.3-.044-3.2203787-.8978781-5.9829602-2.9786537-7.735-5.826-1.07538306-1.8805079-2.49708708-3.5404067-4.19-4.892l.514-.8-.021-.064-.088-1c.953-.041 3.72 2.8 5.5 5.718 1.5028108 2.4253364 3.8655637 4.1941869 6.616 4.953.4718252.1465382.7659208.6156806.6922045 1.1042073-.0737164.4885268-.493148.8500014-.9872045.8507927z"/><path id="Shape" d="m8 34c-.55228475 0-1-.4477153-1-1s.44771525-1 1-1c1.41936721.0397663 2.8263171-.2743402 4.094-.914 2.0837019-1.00775 4.4250312-1.3565774 6.712-1 .3558365.0319753.6675844.2513582.8178113.5755093s.1161097.7038241-.0895.996c-.2056096.2921758-.5514748.452466-.9073113.4204907-1.947489-.317025-3.9453644-.0254281-5.721.835-1.5244667.750615-3.20714928 1.1234393-4.906 1.087z"/><path id="Shape" d="m39.052 26.715c-.4965221-.0011898-.9169721-.3665169-.9874721-.8580099s.2303046-.9602771.7064721-1.1009901c2.8359091-.7320321 5.2812778-2.5274748 6.829-5.014 1.2409552-2.087281 2.835364-3.942913 4.712-5.484l.661.733 1.007-.206c.0497054.39955-.1139116.7958754-.431 1.044-1.6933029 1.3876709-3.1283255 3.0633873-4.239 4.95-1.799256 2.9186817-4.6540483 5.0317509-7.971 5.9-.0933506.0261734-.190077.0383064-.287.036z"/><path id="Shape" d="m50 34c-1.6987687.0367499-3.3814471-.3357305-4.906-1.086-1.551315-.7650189-3.2882307-1.0730024-5.008-.888-.3572656.0198282-.6979708-.1524486-.8937754-.4519356-.1958046-.2994869-.216961-.6806848-.0555-1s.4810098-.5282362.8382754-.5480644c2.0367216-.2060749 4.09057.1596078 5.931 1.056 1.2673256.6410434 2.6742936.9565286 4.094.918.5522847 0 1 .4477153 1 1s-.4477153 1-1 1z"/></g><path id="Shape" d="m39.68 42.49c-1.3022969 2.5233561-3.4563563 4.5038154-6.08 5.59-1.591619-1.2067052-2.856861-2.7916091-3.681-4.611-.1576614-.367503-.5191056-.6057425-.919-.6057425s-.7613386.2382395-.919.6057425c-.8262402 1.8237178-2.0949826 3.4121378-3.691 4.621-4.4764803-1.8655643-7.3916824-6.2403399-7.39-11.09v-13c.0001387-1.1073241.4600977-2.1648677 1.27-2.92z" fill="#cc6f56"/><path id="Shape" d="m22.85 20h14.15c2.209139 0 4 1.790861 4 4v13c0 .37-.02.74-.05 1.1z" fill="#cc6f56"/><path id="Shape" d="m28.005 12.816c-.53965.0002939-.9821916-.4276439-1-.967.0585769-1.1758514-.4976483-2.29776794-1.469-2.963-.481672-.26084725-.6664978-.8588655-.416-1.346.2488254-.48492121.8422715-.67827122 1.329-.433 1.6280597.98868194 2.6027328 2.77284876 2.555 4.677.0174069.5512519-.4147829 1.0125229-.966 1.031z" fill="#a65a47"/><path id="Shape" d="m29.991 13.105c-.5480173.0000332-.9939718-.4410158-1-.989-.1579574-2.0182662.8310713-3.95419608 2.559-5.009.319404-.16382448.7021122-.14388283 1.0027599.05225049.3006478.19613331.4731045.53836409.4518657.89670229-.0212388.35833821-.2329144.67780133-.5546256.83704722-1.0314027.72253362-1.5899199 1.9475199-1.459 3.2.0031997.2657365-.0995092.5218172-.2854465.7116947s-.4398083.2979328-.7055535.3003053z" fill="#a65a47"/><path id="Shape" d="m30 43.634v-23.634h-2v23.634c-.8283737 1.7534686-2.0665674 3.2818318-3.61 4.456 1.4616351.604325 3.0283639.9135925 4.61.91 1.5795375.0051559 3.1439485-.3077263 4.6-.92-1.5392177-1.1718169-2.773954-2.6967161-3.6-4.446z" fill="#a65a47"/><path id="Shape" d="m29 .05c-16.0162577 0-29 12.9837423-29 29s12.9837423 29 29 29 29-12.9837423 29-29c-.0187356-16.0084908-12.9915092-28.98126435-29-29zm15.352 48.721c-9.9478199 7.7512246-24.112119 6.8758337-33.0297888-2.0413277-8.91766987-8.9171613-9.79386846-23.0814104-2.0432112-33.0296723.17877242-.2201136.44258897-.3539796.7257938-.3682828.2832048-.0143033.5591663.0923012.7592062.2932828l33.662 33.662c.200759.1998764.3073206.4755249.2932116.7584661-.0141089.2829411-.1475642.5466211-.3672116.7255339zm4.379-4.4c-.1789128.2196474-.4425928.3531027-.7255339.3672116-.2829412.014109-.5585897-.0924526-.7584661-.2932116l-33.647-33.645c-.200759-.1998764-.3073206-.4755249-.2932116-.7584661.0141089-.28294115.1475642-.54662112.3672116-.7255339 4.9519103-3.87113171 11.1870696-5.72141855 17.449-5.178 12.1147697 1.07250319 21.71756 10.6761362 22.789 22.791.541784 6.2606994-1.3095708 12.4940584-5.181 17.444z" fill="#c03a2b"/><path id="Shape" d="m24.01 14.8c.0932426-2.6885847 2.2997989-4.81994221 4.99-4.81994221s4.8967574 2.13135751 4.99 4.81994221z" fill="#cc6f56"/><path id="Shape" d="m21.23 18.38c.7255271-2.5873454 3.0828574-4.3767919 5.77-4.38h4c3.3137085 0 6 2.6862915 6 6h-14.15z" fill="#a65a47"/></g></g></svg>