<svg id="Layer_3" height="512" viewBox="0 0 64 64" width="512" xmlns="http://www.w3.org/2000/svg" data-name="Layer 3"><path d="m40 18v-4.183a6 6 0 0 0 -1.008-3.329l-.992-1.488-1.333 1a10 10 0 0 1 -6 2h-2.667a4 4 0 0 0 -4 4v2l-1.249-1.665a8.755 8.755 0 0 1 -1.751-5.254 8.756 8.756 0 0 1 4.412-7.6 11.225 11.225 0 0 1 5.569-1.481h2.038a11.225 11.225 0 0 1 5.569 1.479 8.756 8.756 0 0 1 4.412 7.602 8.755 8.755 0 0 1 -1.751 5.254z" fill="#976947"/><path d="m40 32 9.2 1.674a5.835 5.835 0 0 1 3.09 1.616 5.839 5.839 0 0 1 1.71 4.129v16.581h-44v-16.581a5.839 5.839 0 0 1 1.71-4.129 5.835 5.835 0 0 1 3.09-1.616l9.2-1.674" fill="#474747"/><path d="m45 37-1 9 3 5 3-5-1-9" fill="#f9d266"/><path d="m49.646 33.772-.646 3.228h-4l-.849-4.245 5.054.919c.146.026.291.058.434.1z" fill="#f0ae42"/><path d="m42.769 32.503-10.769 23.497-11.2-23.418 3.2-.582 5 3 3-4 3 4 5-3z" fill="#f2f2f2"/><path d="m30 39-1.06 10.601 3.06 6.399 3.037-6.627-1.037-10.373z" fill="#939393"/><path d="m35 35-1 4h-4l-1-4 3-4z" fill="#686868"/><path d="m38.992 10.488-.992-1.488-1.333 1a10 10 0 0 1 -6 2h-2.667a4 4 0 0 0 -4 4v2a8 8 0 0 0 5 7.413v3.587l3 2 3-2v-3.587a8 8 0 0 0 5-7.413v-4.183a6 6 0 0 0 -1.008-3.329z" fill="#fbe1ca"/><path d="m29 29-5 3 5 3 3-4" fill="#ccc"/><path d="m35 29 5 3-5 3-3-4" fill="#ccc"/><path d="m2 56h60v6h-60z" fill="#976947"/><path d="m2 58h57v4h-57z" fill="#c18e59"/><path d="m48.122 38.712h-3.312l-.81 7.288 3 5 1.122-1.869z" fill="#fce797"/><path d="m62 55h-7v-15.581a6.839 6.839 0 0 0 -5.616-6.729l-9.025-1.641-4.359-2.615v-2.384a9 9 0 0 0 4.982-7.693l1.067-1.422a9.757 9.757 0 0 0 -2.965-14.325 12.251 12.251 0 0 0 -6.065-1.61h-2.038a12.251 12.251 0 0 0 -6.065 1.61 9.757 9.757 0 0 0 -2.965 14.325l1.067 1.422a9 9 0 0 0 4.982 7.693v2.384l-4.359 2.615-9.025 1.64a6.841 6.841 0 0 0 -5.616 6.73v15.581h-7a1 1 0 0 0 -1 1v6a1 1 0 0 0 1 1h60a1 1 0 0 0 1-1v-6a1 1 0 0 0 -1-1zm-9-15.581v15.581h-19.441l9.761-21.3.669 3.343-.983 8.846a1 1 0 0 0 .137.625l3 5a1 1 0 0 0 1.714 0l3-5a1 1 0 0 0 .137-.625l-.983-8.846.384-1.918a4.859 4.859 0 0 1 1.188.875 4.807 4.807 0 0 1 1.417 3.419zm-29.192-6.368 4.322 2.593.858 3.429-.688 6.873-6.033-12.615zm17.516.206-5.659 12.343-.653-6.53.858-3.429 4.322-2.593zm7.645 12.518-1.969 3.282-1.969-3.282.869-7.775h2.21zm-.789-9.775h-2.36l-.4-2 3.049.555zm-14.961 2h-2.438l-.7-2.781 1.919-2.553 1.915 2.553zm-2.314 2h2.195l.92 9.2-2.034 4.439-2.018-4.22zm4.354-6.321-1.825-2.433 1.594-1.063 3.028 1.817zm-9.351-29.332a10.245 10.245 0 0 1 5.073-1.347h2.038a10.245 10.245 0 0 1 5.073 1.347 7.72 7.72 0 0 1 2.908 10.513v-1.044a6.976 6.976 0 0 0 -1.176-3.882l-.992-1.489a1 1 0 0 0 -1.432-.245l-1.334 1a9.058 9.058 0 0 1 -5.4 1.8h-2.666a5.007 5.007 0 0 0 -4.9 4.018 7.706 7.706 0 0 1 2.808-10.671zm-.908 13.653v-2a3 3 0 0 1 3-3h2.667a11.071 11.071 0 0 0 6.6-2.2l.487-.365.406.608a4.987 4.987 0 0 1 .84 2.773v4.184a7 7 0 0 1 -14 0zm7 9a8.971 8.971 0 0 0 2-.232v1.7l-2 1.332-2-1.333v-1.7a8.971 8.971 0 0 0 2 .233zm-3.028 3.183 1.594 1.063-1.825 2.433-2.797-1.679zm-17.972 9.236a4.84 4.84 0 0 1 3.973-4.762l5.254-.955 10.186 21.298h-19.413zm50 21.581h-58v-4h58z"/></svg>