<?xml version="1.0" encoding="UTF-8" standalone="no"?>
<!DOCTYPE svg PUBLIC "-//W3C//DTD SVG 1.1//EN" "http://www.w3.org/Graphics/SVG/1.1/DTD/svg11.dtd">
<!-- Created with Vectornator (http://vectornator.io/) -->
<svg height="100%" stroke-miterlimit="10" style="fill-rule:nonzero;clip-rule:evenodd;stroke-linecap:round;stroke-linejoin:round;" version="1.1" viewBox="0 0 128 128" width="100%" xml:space="preserve" xmlns="http://www.w3.org/2000/svg" xmlns:vectornator="http://vectornator.io" xmlns:xlink="http://www.w3.org/1999/xlink">
<defs/>
<g id="Untitled" vectornator:layerName="Untitled">
<path d="M19.6966 96.85C18.2466 96.14 15.8266 94.64 12.1766 94.79C7.39662 94.99 5.59662 96.67 5.02662 97.72C4.46662 98.77 4.70662 105.61 5.68662 107.17C6.67662 108.73 9.54662 113.27 9.54662 113.27L5.83662 115.39C5.60662 115.52 5.46662 115.78 5.48662 116.06L5.59662 117.96C5.61662 118.35 5.94662 118.65 6.32662 118.63L9.53662 118.44L9.63662 125.32C9.64662 125.74 10.0966 125.98 10.4266 125.75L15.6366 122.09C15.7732 121.994 15.8551 121.837 15.8566 121.67L16.0866 112.33L18.7266 111.68C18.7466 111.68 21.1466 97.56 19.6966 96.85Z" fill="#455a64" fill-rule="nonzero" opacity="1" stroke="none" vectornator:layerName="path"/>
<path d="M5.91662 98.48C5.59662 98.19 5.37662 97.81 5.24662 97.39C5.99662 96.35 7.87662 94.97 12.1766 94.8C15.8266 94.65 18.2366 96.15 19.6966 96.86C19.8666 96.94 19.9966 97.15 20.0966 97.44C20.0666 97.48 20.0566 97.52 20.0266 97.56C19.4666 98.37 18.7566 98.71 17.7866 98.66C16.8066 98.6 15.8466 98.31 14.8566 98.24C13.7966 98.16 12.7366 98.22 11.6966 98.41C11.4366 98.46 11.1866 98.51 10.9266 98.57C10.0766 98.78 9.24662 99.08 8.37662 99.16C7.50662 99.23 6.56662 99.07 5.91662 98.48Z" fill="#546e7a" fill-rule="nonzero" opacity="1" stroke="none" vectornator:layerName="path"/>
<path d="M64.2266 58.22L64.6566 65.89" fill="none" opacity="1" stroke="#94d1e0" stroke-linecap="round" stroke-linejoin="miter" stroke-width="2" vectornator:layerName="path"/>
<path d="M57.8966 58.62L58.3166 66" fill="none" opacity="1" stroke="#94d1e0" stroke-linecap="round" stroke-linejoin="miter" stroke-width="2" vectornator:layerName="path"/>
<path d="M71.8866 65.8L71.6166 61.06C71.5166 59.24 70.2766 57.84 68.8566 57.93L49.3166 59.16" fill="none" opacity="1" stroke="#94d1e0" stroke-linecap="round" stroke-linejoin="miter" stroke-width="2" vectornator:layerName="path"/>
<path d="M86.8666 86.39L58.9666 89.26L58.9666 65.87L72.9766 65.87L86.8666 86.39Z" fill="#c9e3e6" fill-rule="nonzero" opacity="1" stroke="none" vectornator:layerName="path"/>
<path d="M36.9066 72.92C36.9066 72.92 33.6266 73.09 31.7366 71.69C29.8466 70.29 30.1766 68.12 30.8066 68.06L58.9666 65.86L70.5966 84.9L85.7766 84.77L86.8666 86.39L29.7766 93.87C29.7766 93.87 36.9066 72.92 36.9066 72.92Z" fill="#94d1e0" fill-rule="nonzero" opacity="1" stroke="none" vectornator:layerName="path"/>
<path d="M72.9766 69.3L64.6566 69.3L71.8966 81.42L80.2666 81.42L72.9766 69.3Z" fill="#82aec0" fill-rule="nonzero" opacity="1" stroke="none" vectornator:layerName="path"/>
<path d="M51.2866 71.05L56.2066 70.63C56.8766 70.56 57.5366 70.94 57.9266 71.64L62.8166 80.57C63.2266 81.33 62.5966 82.23 61.7466 82.09L51.3366 80.41C51.3366 80.41 51.2866 71.05 51.2866 71.05Z" fill="#2f7889" fill-rule="nonzero" opacity="1" stroke="none" vectornator:layerName="path"/>
<path d="M49.2866 71.22L49.3266 80.08L41.3566 78.79C40.4066 78.64 39.7066 77.82 39.7066 76.86L39.7066 72.04L49.2866 71.22Z" fill="#2f7889" fill-rule="nonzero" opacity="1" stroke="none" vectornator:layerName="path"/>
<path d="M93.4966 79.98L124.727 76.42" fill="none" opacity="1" stroke="#94d1e0" stroke-linecap="round" stroke-linejoin="miter" stroke-width="2" vectornator:layerName="path"/>
<path d="M122.377 76.89C122.747 79.29 122.737 82.34 121.997 84.6" fill="none" opacity="1" stroke="#94d1e0" stroke-linecap="round" stroke-linejoin="miter" stroke-width="2" vectornator:layerName="path"/>
<path d="M97.6166 79.51C97.8166 82.05 97.4366 84.38 96.6166 86.39" fill="none" opacity="1" stroke="#94d1e0" stroke-linecap="round" stroke-linejoin="miter" stroke-width="2" vectornator:layerName="path"/>
<path d="M109.787 78.13C109.787 80.12 109.447 82.94 108.447 85.2" fill="none" opacity="1" stroke="#94d1e0" stroke-linecap="round" stroke-linejoin="miter" stroke-width="2" vectornator:layerName="path"/>
<path d="M17.1966 109.44L19.3666 93.95C19.4007 93.7429 19.5605 93.5792 19.7666 93.54C87.6566 83.56 122.867 83.81 122.867 83.81C123.307 83.75 123.647 84.32 123.467 84.84C122.057 89.06 117.557 96.67 110.687 104.74C100.747 116.42 93.1066 118.71 77.8766 119.98L21.6566 119.76L18.2066 116.02L15.2766 115.96C14.1066 115.94 13.1266 114.75 13.0366 113.24L12.9966 112.58C12.9066 111.01 13.8166 109.68 15.0366 109.59C15.0366 109.59 17.1966 109.44 17.1966 109.44Z" fill="#c9e3e6" fill-rule="nonzero" opacity="1" stroke="none" vectornator:layerName="path"/>
<path d="M85.4766 114.21C97.7066 113.12 102.577 112.61 102.577 112.61C96.7366 117.93 88.9166 119.99 77.8966 119.99L21.6766 119.77L20.4866 118.48L19.6166 117.33C21.9066 116.43 74.2166 115.22 85.4766 114.21Z" fill="#82aec0" fill-rule="nonzero" opacity="1" stroke="none" vectornator:layerName="path"/>
<path d="M18.7466 98.29C71.8866 92.01 120.327 91.4 120.327 91.4L122.757 86.72C122.757 86.72 72.9866 88.81 19.1066 95.88C19.1066 95.88 18.7466 98.29 18.7466 98.29Z" fill="#1565c0" fill-rule="nonzero" opacity="1" stroke="none" vectornator:layerName="path"/>
<path d="M18.1366 102.75C64.2466 97.64 115.597 98.44 115.597 98.44L118.807 93.87C118.807 93.87 77.0166 94.78 18.4966 100.2C18.4966 100.2 18.1366 102.75 18.1366 102.75Z" fill="#f44336" fill-rule="nonzero" opacity="1" stroke="none" vectornator:layerName="path"/>
</g>
</svg>
