<?xml version="1.0" encoding="UTF-8"?>
<svg xmlns="http://www.w3.org/2000/svg" xmlns:xlink="http://www.w3.org/1999/xlink" version="1.1" id="Capa_1" x="0px" y="0px" viewBox="0 0 512 512" style="enable-background:new 0 0 512 512;" xml:space="preserve" width="512" height="512">
<g>
	<g>
		<g>
			<g>
				<path style="fill:#DC8758;" d="M342.969,129.785c-3.123-1.182-5.403-3.854-6.197-7.097c-6.582-26.877-30.828-48.82-59.733-48.82&#10;&#9;&#9;&#9;&#9;&#9;c-5.178,0-10.206-0.359-15.009,0.847c-10.779,2.707-20.426,8.263-28.102,15.817c-2.314,2.277-5.547,3.31-8.753,2.802&#10;&#9;&#9;&#9;&#9;&#9;c-3.138-0.497-6.355-0.758-9.633-0.758c-26.702,0-49.414,17.025-57.911,40.807c-0.827,2.314-2.435,4.244-4.558,5.482&#10;&#9;&#9;&#9;&#9;&#9;c-19.366,11.293-32.009,32.852-30.435,57.226c1.992,30.846,27.096,55.661,57.961,57.325&#10;&#9;&#9;&#9;&#9;&#9;c29.526,1.592,54.803-17.661,62.491-44.365c1.223-0.614,2.423-1.266,3.598-1.958c6.144,33.762,35.813,59.321,71.416,59.027&#10;&#9;&#9;&#9;&#9;&#9;c38.918-0.32,60.854-32.075,61.385-70.99C379.914,163.906,370.453,140.184,342.969,129.785z"/>
				<g>
					<path style="fill:#C86D36;" d="M342.969,126.785c-3.123-1.182-5.403-3.854-6.197-7.097&#10;&#9;&#9;&#9;&#9;&#9;&#9;c-6.582-26.877-30.828-46.819-59.733-46.819c-5.178,0-10.204,0.645-15.007,1.852c22.021,5.518,39.337,22.901,44.741,44.967&#10;&#9;&#9;&#9;&#9;&#9;&#9;c0.794,3.243,3.075,5.915,6.197,7.097c27.484,10.399,46.945,37.122,46.519,68.347c-0.464,34-24.901,62.53-57.022,69.41&#10;&#9;&#9;&#9;&#9;&#9;&#9;c5.039,1.071,10.269,1.625,15.638,1.58c38.918-0.321,70.854-32.075,71.384-70.99&#10;&#9;&#9;&#9;&#9;&#9;&#9;C389.914,163.906,370.453,137.184,342.969,126.785z"/>
				</g>
				<path style="fill:#62DBFB;" d="M385.269,192.011H116.731c-11.271,0-21.148,7.542-24.117,18.415L47.642,375.122l406.716,20&#10;&#9;&#9;&#9;&#9;&#9;l-44.972-184.696C406.418,199.553,396.54,192.011,385.269,192.011z"/>
				<path style="fill:#01C0FA;" d="M419.386,210.426c-2.969-10.873-12.846-18.415-24.117-18.415h-30&#10;&#9;&#9;&#9;&#9;&#9;c11.271,0,21.148,7.542,24.117,18.415l44.972,164.696l15.13,10l14.87-10L419.386,210.426z"/>
				<path style="fill:#F9F7F8;" d="M291.52,301.179l-2.07-1.257c-8.763-5.321-15.555-13.35-19.349-22.875h0&#10;&#9;&#9;&#9;&#9;&#9;c-1.591-3.995-5.457-6.616-9.757-6.616H256h-4.344c-4.3,0-8.166,2.621-9.757,6.616l0,0&#10;&#9;&#9;&#9;&#9;&#9;c-3.794,9.524-10.586,17.554-19.349,22.875l-2.07,1.257c-6.869,4.171-9.954,12.528-7.442,20.162l0,0&#10;&#9;&#9;&#9;&#9;&#9;c2.713,8.243,11.12,13.193,19.644,11.565l12.984-2.479c3.414-0.652,6.874-0.978,10.334-0.978c3.46,0,6.92,0.326,10.334,0.978&#10;&#9;&#9;&#9;&#9;&#9;l12.984,2.479c8.524,1.627,16.931-3.323,19.644-11.565l0,0C301.474,313.708,298.389,305.35,291.52,301.179z"/>
				<path style="fill:#FFE177;" d="M484.5,439.131h-467c-5.523,0-10-4.477-10-10v-44.009c0-5.523,4.477-10,10-10h467&#10;&#9;&#9;&#9;&#9;&#9;c5.523,0,10,4.477,10,10v44.009C494.5,434.654,490.023,439.131,484.5,439.131z"/>
				<path style="fill:#FFC344;" d="M494.5,375.122h-30c5.523,0,10,4.477,10,10v44.009c0,5.523-4.477,10-10,10h30&#10;&#9;&#9;&#9;&#9;&#9;c5.523,0,10-4.477,10-10v-44.009C504.5,379.599,500.023,375.122,494.5,375.122z"/>
			</g>
		</g>
	</g>
	<g>
		<path style="fill:none;stroke:#000000;stroke-width:15;stroke-linecap:round;stroke-linejoin:round;stroke-miterlimit:10;" d="&#10;&#9;&#9;&#9;M291.52,301.179l-2.07-1.257c-8.763-5.321-15.555-13.35-19.349-22.875h0c-1.591-3.995-5.457-6.616-9.757-6.616H256h-4.344&#10;&#9;&#9;&#9;c-4.3,0-8.166,2.621-9.757,6.616l0,0c-3.794,9.524-10.586,17.554-19.349,22.875l-2.07,1.257&#10;&#9;&#9;&#9;c-6.869,4.171-9.954,12.528-7.442,20.162l0,0c2.713,8.243,11.12,13.193,19.644,11.565l12.984-2.479&#10;&#9;&#9;&#9;c3.414-0.652,6.874-0.978,10.334-0.978c3.46,0,6.92,0.326,10.334,0.978l12.984,2.479c8.524,1.627,16.931-3.323,19.644-11.565l0,0&#10;&#9;&#9;&#9;C301.474,313.708,298.389,305.35,291.52,301.179z"/>
		<path style="fill:none;stroke:#000000;stroke-width:15;stroke-linecap:round;stroke-linejoin:round;stroke-miterlimit:10;" d="&#10;&#9;&#9;&#9;M130.08,375.122H494.5c5.523,0,10,4.477,10,10v44.009c0,5.523-4.477,10-10,10h-477c-5.523,0-10-4.477-10-10v-44.009&#10;&#9;&#9;&#9;c0-5.523,4.477-10,10-10h79.893"/>
		<path style="fill:none;stroke:#000000;stroke-width:15;stroke-linecap:round;stroke-linejoin:round;stroke-miterlimit:10;" d="&#10;&#9;&#9;&#9;M428.001,241.975l-8.615-31.549c-2.969-10.873-12.846-18.415-24.117-18.415H116.731c-11.271,0-21.148,7.542-24.117,18.415&#10;&#9;&#9;&#9;L48.762,371.02"/>
		
			<line style="fill:none;stroke:#000000;stroke-width:15;stroke-linecap:round;stroke-linejoin:round;stroke-miterlimit:10;" x1="463.505" y1="371.998" x2="436.628" y2="273.567"/>
		<path style="fill:none;stroke:#000000;stroke-width:15;stroke-linecap:round;stroke-linejoin:round;stroke-miterlimit:10;" d="&#10;&#9;&#9;&#9;M168.142,114.909c-4.504,5.448-8.087,11.686-10.512,18.474c-0.827,2.314-2.435,4.244-4.558,5.482&#10;&#9;&#9;&#9;c-17.646,10.29-29.711,29.104-30.523,50.805"/>
		<path style="fill:none;stroke:#000000;stroke-width:15;stroke-linecap:round;stroke-linejoin:round;stroke-miterlimit:10;" d="&#10;&#9;&#9;&#9;M389.384,190.108c-1.599-29.043-20.418-53.486-46.416-63.323c-3.123-1.182-5.403-3.854-6.197-7.096&#10;&#9;&#9;&#9;c-6.582-26.877-30.828-46.82-59.733-46.82c-16.799,0-32.014,6.744-43.111,17.664c-2.314,2.277-5.547,3.31-8.753,2.802&#10;&#9;&#9;&#9;c-3.138-0.497-6.355-0.758-9.633-0.758c-7.606,0-14.889,1.381-21.611,3.907"/>
		
			<line style="fill:none;stroke:#000000;stroke-width:15;stroke-linecap:round;stroke-linejoin:round;stroke-miterlimit:10;" x1="306.178" y1="266.207" x2="306.178" y2="266.207"/>
		
			<line style="fill:none;stroke:#000000;stroke-width:15;stroke-linecap:round;stroke-linejoin:round;stroke-miterlimit:10;" x1="279.596" y1="241.418" x2="279.596" y2="241.418"/>
		
			<line style="fill:none;stroke:#000000;stroke-width:15;stroke-linecap:round;stroke-linejoin:round;stroke-miterlimit:10;" x1="232.404" y1="241.418" x2="232.404" y2="241.418"/>
		
			<line style="fill:none;stroke:#000000;stroke-width:15;stroke-linecap:round;stroke-linejoin:round;stroke-miterlimit:10;" x1="205.822" y1="266.207" x2="205.822" y2="266.207"/>
	</g>
</g>















</svg>
