<?xml version="1.0" encoding="UTF-8" standalone="no"?>
<!DOCTYPE svg PUBLIC "-//W3C//DTD SVG 1.1//EN" "http://www.w3.org/Graphics/SVG/1.1/DTD/svg11.dtd">
<!-- Created with Vectornator (http://vectornator.io/) -->
<svg height="100%" stroke-miterlimit="10" style="fill-rule:nonzero;clip-rule:evenodd;stroke-linecap:round;stroke-linejoin:round;" version="1.1" viewBox="0 0 947.285 387.699" width="100%" xml:space="preserve" xmlns="http://www.w3.org/2000/svg" xmlns:vectornator="http://vectornator.io" xmlns:xlink="http://www.w3.org/1999/xlink">
<defs/>
<g id="Layer-1" vectornator:layerName="Layer 1">
<path d="M141.211 219.254C130.507 215.947 112.643 208.959 85.6997 209.658C50.4146 210.589 37.1273 218.416 32.9196 223.307C28.7858 228.199 30.5574 260.063 37.7916 267.33C45.0996 274.597 66.2855 295.747 66.2855 295.747L38.8989 305.623C37.2011 306.229 36.1676 307.44 36.3153 308.744L37.1273 317.595C37.2749 319.412 39.7109 320.81 42.516 320.717L66.2117 319.831L66.9499 351.882C67.0237 353.839 70.3455 354.957 72.7815 353.885L111.241 336.835C112.249 336.386 112.854 335.658 112.865 334.878L114.563 291.368L134.051 288.34C134.198 288.34 151.915 222.562 141.211 219.254Z" fill="#455a64" fill-rule="nonzero" opacity="1" stroke="none" vectornator:layerName="path"/>
<path d="M39.4895 226.848C37.1273 225.497 35.5033 223.726 34.5436 221.77C40.08 216.925 53.9578 210.496 85.6997 209.704C112.643 209.006 130.434 215.993 141.211 219.301C142.466 219.674 143.426 220.652 144.164 222.003C143.942 222.189 143.869 222.375 143.647 222.562C139.513 226.335 134.272 227.919 127.112 227.686C119.878 227.407 112.791 226.056 105.483 225.73C97.6583 225.357 89.8335 225.636 82.1564 226.522C80.2372 226.754 78.3917 226.987 76.4724 227.267C70.1979 228.245 64.0709 229.643 57.6488 230.015C51.2266 230.341 44.2876 229.596 39.4895 226.848Z" fill="#546e7a" fill-rule="nonzero" opacity="1" stroke="none" vectornator:layerName="path"/>
<path d="M469.924 39.296L473.098 75.0268" fill="none" opacity="1" stroke="#94d1e0" stroke-linecap="round" stroke-linejoin="miter" stroke-width="2" vectornator:layerName="path"/>
<path d="M423.197 41.1594L426.297 75.5392" fill="none" opacity="1" stroke="#94d1e0" stroke-linecap="round" stroke-linejoin="miter" stroke-width="2" vectornator:layerName="path"/>
<path d="M526.469 74.6075L524.476 52.5262C523.737 44.0477 514.584 37.5258 504.102 37.945L359.861 43.675" fill="none" opacity="1" stroke="#94d1e0" stroke-linecap="round" stroke-linejoin="miter" stroke-width="2" vectornator:layerName="path"/>
<path d="M637.048 170.526L431.095 183.896L431.095 74.9336L534.515 74.9336L637.048 170.526Z" fill="#c9e3e6" fill-rule="nonzero" opacity="1" stroke="none" vectornator:layerName="path"/>
<path d="M268.252 107.776C268.252 107.776 244.04 108.568 230.088 102.046C216.137 95.5242 218.573 85.4152 223.223 85.1357L431.095 74.887L516.946 163.585L629.002 162.979L637.048 170.526L215.62 205.372C215.62 205.372 268.252 107.776 268.252 107.776Z" fill="#94d1e0" fill-rule="nonzero" opacity="1" stroke="none" vectornator:layerName="path"/>
<path d="M534.515 90.9123L473.098 90.9123L526.543 147.373L588.328 147.373L534.515 90.9123Z" fill="#82aec0" fill-rule="nonzero" opacity="1" stroke="none" vectornator:layerName="path"/>
<path d="M374.403 99.0647L410.722 97.1081C415.667 96.782 420.539 98.5522 423.418 101.813L459.516 143.414C462.542 146.954 457.892 151.147 451.617 150.495L374.772 142.668C374.772 142.668 374.403 99.0647 374.403 99.0647Z" fill="#2f7889" fill-rule="nonzero" opacity="1" stroke="none" vectornator:layerName="path"/>
<path d="M359.639 99.8566L359.935 141.131L301.101 135.122C294.089 134.423 288.921 130.603 288.921 126.131L288.921 103.677L359.639 99.8566Z" fill="#2f7889" fill-rule="nonzero" opacity="1" stroke="none" vectornator:layerName="path"/>
<path d="M685.99 140.665L916.525 124.081" fill="none" opacity="1" stroke="#94d1e0" stroke-linecap="round" stroke-linejoin="miter" stroke-width="2" vectornator:layerName="path"/>
<path d="M899.177 126.27C901.909 137.451 901.835 151.659 896.372 162.187" fill="none" opacity="1" stroke="#94d1e0" stroke-linecap="round" stroke-linejoin="miter" stroke-width="2" vectornator:layerName="path"/>
<path d="M716.403 138.476C717.88 150.308 715.074 161.163 709.021 170.526" fill="none" opacity="1" stroke="#94d1e0" stroke-linecap="round" stroke-linejoin="miter" stroke-width="2" vectornator:layerName="path"/>
<path d="M806.24 132.047C806.24 141.317 803.73 154.454 796.348 164.983" fill="none" opacity="1" stroke="#94d1e0" stroke-linecap="round" stroke-linejoin="miter" stroke-width="2" vectornator:layerName="path"/>
<path d="M122.756 277.905L138.775 205.745C139.027 204.78 140.206 204.017 141.728 203.835C642.88 157.343 902.794 158.507 902.794 158.507C906.042 158.228 908.552 160.883 907.223 163.306C896.815 182.964 863.597 218.416 812.884 256.01C739.508 310.421 683.111 321.089 570.686 327.006L155.679 325.981L130.212 308.558L108.583 308.278C99.9466 308.185 92.7124 302.642 92.0481 295.607L91.7528 292.533C91.0884 285.219 97.8059 279.023 106.812 278.604C106.812 278.604 122.756 277.905 122.756 277.905Z" fill="#c9e3e6" fill-rule="nonzero" opacity="1" stroke="none" vectornator:layerName="path"/>
<path d="M626.788 300.126C717.068 295.048 753.017 292.672 753.017 292.672C709.907 317.456 652.181 327.052 570.833 327.052L155.827 326.027L147.043 320.018L140.621 314.661C157.525 310.468 543.668 304.831 626.788 300.126Z" fill="#82aec0" fill-rule="nonzero" opacity="1" stroke="none" vectornator:layerName="path"/>
<path d="M134.198 225.962C526.469 196.707 884.044 193.865 884.044 193.865L901.982 172.064C901.982 172.064 534.589 181.8 136.856 214.735C136.856 214.735 134.198 225.962 134.198 225.962Z" fill="#1565c0" fill-rule="nonzero" opacity="1" stroke="none" vectornator:layerName="path"/>
<path d="M129.695 246.739C470.072 222.934 849.128 226.661 849.128 226.661L872.824 205.372C872.824 205.372 564.337 209.611 132.353 234.86C132.353 234.86 129.695 246.739 129.695 246.739Z" fill="#f44336" fill-rule="nonzero" opacity="1" stroke="none" vectornator:layerName="path"/>
</g>
</svg>
