<?xml version="1.0" encoding="UTF-8" standalone="no"?>
<!DOCTYPE svg PUBLIC "-//W3C//DTD SVG 1.1//EN" "http://www.w3.org/Graphics/SVG/1.1/DTD/svg11.dtd">
<!-- Created with Vectornator (http://vectornator.io/) -->
<svg height="100%" stroke-miterlimit="10" style="fill-rule:nonzero;clip-rule:evenodd;stroke-linecap:round;stroke-linejoin:round;" version="1.1" viewBox="0 0 74.981 48.002" width="100%" xml:space="preserve" xmlns="http://www.w3.org/2000/svg" xmlns:vectornator="http://vectornator.io" xmlns:xlink="http://www.w3.org/1999/xlink">
<defs/>
<clipPath id="ArtboardFrame">
<rect height="48.002" width="74.981" x="0" y="0"/>
</clipPath>
<g clip-path="url(#ArtboardFrame)" id="Untitled" vectornator:layerName="Untitled">
<g opacity="1" vectornator:layerName="path">
<clipPath id="ClipPath">
<path d="M-3.16614-11.8881L75.8841-16.5817L80.5777 62.4686L1.52742 67.1621L-3.16614-11.8881Z"/>
</clipPath>
<g clip-path="url(#ClipPath)">
<path d="M14.0246 31.5058C13.4063 31.0798 12.7846 30.7124 11.2755 30.9781C10.4858 31.117 9.78022 30.2414 8.56696 30.3559C8.29752 29.9574 8.02806 29.5587 7.7586 29.16C8.37606 27.8955 9.27171 26.7357 10.4546 25.6836C11.042 25.756 11.6301 25.8285 12.2175 25.9012C13.9308 24.8465 15.7123 23.8828 17.625 23.0925C19.7728 19.832 22.6064 18.9436 25.8368 19.4267C32.7994 16.4343 39.8286 14.5724 46.8571 12.697C49.8763 14.4062 52.8949 16.1157 55.9139 17.8251C60.8569 17.808 65.8025 17.6219 70.7435 17.7739C71.6689 17.8021 72.3567 18.3487 72.6207 19.1364C71.9633 19.2542 71.5387 19.6453 70.8797 20.0688C67.477 22.2553 61.7159 31.2445 47.0129 30.837C36.7763 30.5531 26.5025 30.12 16.3172 32.1067C15.8375 31.4598 14.8972 32.107 14.0246 31.5058" fill="#336699" fill-rule="evenodd" opacity="1" stroke="none" vectornator:layerName="path"/>
<path d="M12.2175 25.9012C13.9308 24.8465 15.7123 23.8828 17.625 23.0925C19.7728 19.832 22.6064 18.9436 25.8368 19.4267C32.7994 16.4343 39.8286 14.5724 46.8571 12.697C49.8763 14.4062 52.8949 16.1157 55.9139 17.8251C40.821 18.58 23.572 22.6627 12.2175 25.9012" fill="#efecec" fill-rule="evenodd" opacity="1" stroke="none" vectornator:layerName="path"/>
<path d="M17.625 23.0925C19.7728 19.832 22.6064 18.9436 25.8368 19.4267C22.9986 20.4865 20.26 21.707 17.625 23.0925" fill="#336699" fill-rule="evenodd" opacity="1" stroke="none" vectornator:layerName="path"/>
<path d="M14.0246 31.5058C13.4063 31.0798 12.7846 30.7124 11.2755 30.9781C10.4858 31.117 9.78022 30.2414 8.56696 30.3559C8.29752 29.9574 8.02806 29.5587 7.7586 29.16C10.1664 29.6671 13.0611 28.5013 15.9829 27.2439C35.0596 20.8768 53.84 20.0124 72.6207 19.1364C71.9633 19.2542 71.5387 19.6453 70.8797 20.0688C67.477 22.2553 61.7159 31.2445 47.0129 30.837C36.7763 30.5531 26.5025 30.12 16.3172 32.1067C15.8375 31.4598 14.8972 32.107 14.0246 31.5058" fill="#efecec" fill-rule="evenodd" opacity="1" stroke="none" vectornator:layerName="path"/>
<path d="M72.4038 19.1872C71.8632 19.344 71.4632 19.6937 70.8797 20.0688C67.477 22.2553 61.7159 31.2445 47.0129 30.837C41.0959 30.6728 35.1663 30.4589 29.2488 30.6913C41.5616 28.5589 50.4715 30.4708 61.8857 24.9102C65.5001 23.1495 65.636 20.7839 72.4038 19.1872" fill="#336699" fill-rule="evenodd" opacity="1" stroke="none" vectornator:layerName="path"/>
<path d="M51.4043 21.5827C38.4641 22.8038 25.6046 24.3152 13.6079 28.94C17.7101 28.727 21.813 28.5143 25.9154 28.3013C32.3 25.5719 39.5234 23.0371 51.4043 21.5827" fill="#336699" fill-rule="evenodd" opacity="1" stroke="none" vectornator:layerName="path"/>
<path d="M43.7027 14.5815L49.5593 17.7455C51.0718 17.5851 52.5921 17.4192 54.1073 17.2533L47.6132 13.5854C46.268 13.9101 44.9668 14.2425 43.7027 14.5815M29.4622 18.9931C33.4263 17.6463 37.4724 16.3144 41.9573 15.0597L47.1682 17.9943C40.664 18.6562 34.4228 19.1519 29.4622 18.9931" fill="#71a8de" fill-rule="evenodd" opacity="1" stroke="none" vectornator:layerName="path"/>
<path d="M44.5126 15.0195L49.5593 17.7455C50.6728 17.6274 51.7906 17.5063 52.9076 17.3846L47.4244 14.2875C46.4308 14.5274 45.4613 14.7716 44.5126 15.0195M45.9499 18.1166C40.6492 18.6402 35.5679 19.0319 31.2669 19.0225C34.6004 17.9064 38.0318 16.8071 41.7684 15.7619L45.9499 18.1166Z" fill="#87baed" fill-rule="evenodd" opacity="1" stroke="none" vectornator:layerName="path"/>
<path d="M60.5232 14.59L60.5248 14.5899C62.9795 14.4279 65.3824 14.3256 67.6583 14.3C67.9905 14.2962 68.2788 14.3612 68.4971 14.4849C68.637 14.5641 68.7488 14.6672 68.8271 14.792C68.9074 14.9195 68.9517 15.067 68.9533 15.2319C68.956 15.4338 68.8933 15.6606 68.7542 15.9059L67.2948 18.48C67.2362 18.5838 67.1037 18.6203 66.9996 18.5614C66.8957 18.5021 66.8595 18.3698 66.9182 18.266L68.3775 15.692C68.477 15.5168 68.5219 15.3646 68.5201 15.2373C68.5192 15.1553 68.4982 15.0836 68.46 15.023C68.4201 14.9595 68.36 14.9053 68.2831 14.8614C68.1313 14.7756 67.9183 14.7304 67.6636 14.7332C65.4329 14.7582 63.0794 14.8575 60.6735 15.0143L58.7684 18.6678C58.7131 18.7739 58.582 18.815 58.476 18.7601C58.3702 18.7046 58.3291 18.574 58.3839 18.468L60.1676 15.0479C57.2725 15.2458 54.3101 15.5245 51.401 15.8559C51.0087 15.9006 50.6171 15.9461 50.2271 15.9929L48.4301 19.5226C48.3758 19.629 48.2455 19.6714 48.1388 19.6173C48.0322 19.563 47.99 19.4327 48.0441 19.3259L49.7097 16.0551C46.5223 16.4427 43.4296 16.8877 40.596 17.351L38.8305 20.4692C38.7715 20.5733 38.6392 20.6097 38.5353 20.5508C38.4312 20.4915 38.3949 20.3594 38.4539 20.2555L40.0468 17.4416C37.7811 17.8185 35.6928 18.2057 33.8682 18.583C32.7766 18.8086 31.9069 19.3116 31.1672 20.145L30.1667 21.2719C30.0874 21.3616 29.9506 21.3701 29.8611 21.2909C29.7712 21.212 29.763 21.0749 29.8419 20.9853L30.8423 19.8582C31.6433 18.956 32.6001 18.4024 33.7813 18.1581C38.4119 17.2009 44.743 16.1781 51.353 15.4251C54.3972 15.0785 57.5 14.789 60.5232 14.59" fill="#efecec" fill-rule="evenodd" opacity="1" stroke="none" vectornator:layerName="path"/>
<path d="M65.5147 35.2002C54.176 32.4951 43.6726 31.0567 30.731 31.2308C16.3787 31.4241 9.48247 35.9725 0.920889 31.8953C13.1104 40.4238 22.0336 35.1383 31.2969 33.7769C42.8257 32.0825 53.4617 33.3974 65.5147 35.2002" fill="#51a5fb" fill-rule="evenodd" opacity="1" stroke="none" vectornator:layerName="path"/>
<path d="M62.1517 36.3552C39.6062 32.881 34.5353 33.9274 19.8399 37.4859C30.362 36.0015 41.7449 34.2811 62.1517 36.3552" fill="#51a6fa" fill-rule="evenodd" opacity="1" stroke="none" vectornator:layerName="path"/>
</g>
</g>
</g>
</svg>
