<?xml version="1.0" encoding="UTF-8" standalone="no"?>
<!DOCTYPE svg PUBLIC "-//W3C//DTD SVG 1.1//EN" "http://www.w3.org/Graphics/SVG/1.1/DTD/svg11.dtd">
<!-- Created with Vectornator (http://vectornator.io/) -->
<svg height="100%" stroke-miterlimit="10" style="fill-rule:nonzero;clip-rule:evenodd;stroke-linecap:round;stroke-linejoin:round;" version="1.1" viewBox="0 0 500 587.924" width="100%" xml:space="preserve" xmlns="http://www.w3.org/2000/svg" xmlns:vectornator="http://vectornator.io" xmlns:xlink="http://www.w3.org/1999/xlink">
<defs/>
<g id="layer1" vectornator:layerName="layer1">
<path d="M354.34 66.2619C343.157 66.2566 331.829 67.5894 322.238 70.2004C294.353 77.7913 270.298 95.5038 255.805 119.122C252.472 124.553 249.201 128.989 248.522 128.989C247.843 128.989 244.677 124.576 241.5 119.205C221.898 86.0605 184.674 66.1564 142.705 66.3862C120.449 66.508 105.25 70.563 84.9657 81.7674C58.508 96.3815 38.8437 118.802 25.6662 149.387C16.3955 170.904 13.1997 184.606 11.956 207.968C9.84223 247.676 20.2287 289.318 42.0516 331.266L105.438 331.266C107.741 331.273 109.804 332.852 110.64 335.246L115.284 348.554L119.074 336.324C119.858 333.82 121.973 332.141 124.35 332.137L140.327 332.137L156.006 266.798C156.664 264.07 158.881 262.174 161.412 262.174C163.944 262.174 166.16 264.07 166.818 266.798L181.792 329.11L197.657 329.11C200.436 329.112 202.793 331.389 203.193 334.458L204.828 346.896L219.021 123.392C219.225 120.174 221.592 117.658 224.483 117.588C227.42 117.524 229.902 120.003 230.168 123.268L254.616 428.114L265.948 337.816C266.331 334.731 268.692 332.432 271.484 332.427L310.943 332.427L341.261 273.763C342.261 271.83 344.11 270.639 346.11 270.639C348.11 270.639 349.959 271.83 350.959 273.763L380.311 330.478L455.513 330.478C468.703 305.017 477.946 279.486 482.971 254.153C486.178 237.982 485.717 194.953 482.19 179.569C478.288 162.544 465.654 133.859 456.405 121.07C439.266 97.3756 412.361 78.0593 385.513 70.2004C376.565 67.5814 365.522 66.2668 354.34 66.2619ZM225.226 201.915L212.296 405.436C212.062 408.587 209.754 411.046 206.923 411.162C204.091 411.278 201.628 409.015 201.187 405.892L192.827 341.631L177.519 341.631C174.975 341.638 172.747 339.73 172.094 336.987L161.431 292.544L150.024 340.014C149.357 342.74 147.133 344.628 144.6 344.616L128.363 344.616L120.857 368.703C120.09 371.183 118.015 372.863 115.665 372.909C113.314 372.955 111.188 371.358 110.343 368.911L101.574 343.745L48.9253 343.745C84.9781 406.618 146.389 469.889 229.573 528.195C239.497 535.151 248.074 540.84 248.671 540.84C250.513 540.84 284.842 516.321 304.924 500.666C369.391 450.409 417.946 396.959 448.714 342.957L377.079 342.957C375.088 342.953 373.248 341.769 372.248 339.848L346.128 289.393L319.005 341.797C318.008 343.746 316.15 344.949 314.138 344.947L276.388 344.947L258.926 483.876C258.514 486.996 256.082 489.285 253.256 489.211C250.43 489.137 248.097 486.724 247.816 483.585C247.816 483.585 225.226 201.915 225.226 201.915ZM453.655 333.961C452.874 335.428 452.085 336.889 451.277 338.355C452.085 336.892 452.874 335.425 453.655 333.961ZM451.277 338.355C450.439 339.874 449.617 341.395 448.751 342.916C449.613 341.401 450.443 339.871 451.277 338.355ZM45.3956 337.485C46.4458 339.405 47.5303 341.326 48.628 343.248C47.5318 341.332 46.4513 339.395 45.3956 337.485Z" fill="#db0505" fill-rule="nonzero" opacity="1" stroke="none" vectornator:layerName="path"/>
</g>
</svg>
