<svg id="Layer_1" enable-background="new 0 0 512 512" height="512" viewBox="0 0 512 512" width="512" xmlns="http://www.w3.org/2000/svg"><g><path clip-rule="evenodd" d="m286.4 336 98.7 38.4c19 7.4 31 25.5 31 46.8v59.9c0 13.7-10.7 24.9-23.7 24.9h-344.2c-13 0-23.7-11.2-23.7-24.9v-59.9c0-21.3 12-39.4 31-46.8l98.7-38.4c13.5-5.3 26.9-4 39.5 3.7l26.6 16.2 26.6-16.2c12.6-7.7 26-9 39.5-3.7z" fill="#4e454d" fill-rule="evenodd"/><path clip-rule="evenodd" d="m99.8 506h241v-60.1c0-11.9-9.8-21.7-21.7-21.7h-197.6c-11.9 0-21.7 9.8-21.7 21.7z" fill="#ffaa5a" fill-rule="evenodd"/><path clip-rule="evenodd" d="m220.3 465.1c11.3 0 20.6 8.5 20.6 18.8v22.1h-41.1v-22c-.1-10.4 9.2-18.9 20.5-18.9z" fill="#007eb6" fill-rule="evenodd"/><path clip-rule="evenodd" d="m402 302.3h28.8v123.2h-28.8z" fill="#c24441" fill-rule="evenodd"/><path clip-rule="evenodd" d="m487.5 239.6-13.2 11.5c-7.1 6.2-18.9 6.2-26-.1-7.2-6.3-7.3-16.6-.1-22.8l.2-.2c7.1-6.2 18.8-6.2 26 .1z" fill="#ffc263" fill-rule="evenodd"/><path clip-rule="evenodd" d="m291.7 338c-3.9 35.9-34.5 63.9-71.3 63.9s-67.5-28-71.4-63.9l5.2-2c13.5-5.3 26.9-4 39.5 3.7l26.6 16.2 26.6-16.2c12.6-7.7 26-8.9 39.5-3.7z" fill="#3f383e" fill-rule="evenodd"/><path clip-rule="evenodd" d="m162.6 238.8h115.4v91.4c0 31.7-26 57.7-57.7 57.7-31.7 0-57.7-26-57.7-57.7z" fill="#fbbd80" fill-rule="evenodd"/><path clip-rule="evenodd" d="m134.6 465.8c-15.1 0-27.5-12.3-27.5-27.4v-8.6c3.8-3.4 8.8-5.4 14.3-5.4h40.6v14.1c.1 15-12.3 27.3-27.4 27.3zm198.8-36.1c-3.8-3.4-8.8-5.4-14.3-5.4h-40.6v14.1c0 15.1 12.3 27.4 27.4 27.4s27.4-12.3 27.4-27.4v-8.7z" fill="#e69951" fill-rule="evenodd"/><path clip-rule="evenodd" d="m134.6 458.9c11.3 0 20.6-9.2 20.6-20.6v-102.6c-.3.1-.7.2-1 .4l-40.2 15.5v86.8c0 11.3 9.3 20.5 20.6 20.5z" fill="#ffc263" fill-rule="evenodd"/><path clip-rule="evenodd" d="m306 458.9c-11.3 0-20.6-9.2-20.6-20.6v-102.6c.3.1.7.2 1 .4l40.1 15.6v86.8c.1 11.2-9.2 20.4-20.5 20.4z" fill="#ffc263" fill-rule="evenodd"/><path clip-rule="evenodd" d="m93.9 174.5h252.6v-117.6c0-13.1-10.7-23.8-23.8-23.8h-12v-22.1c0-1.6-.7-2.9-1.9-3.9-1.3-1-2.7-1.3-4.3-.9-47.4 11.6-100.4 6.8-150.4 6.8-11.9 0-21.9 8.7-24 20h-12.4c-13.1 0-23.8 10.7-23.8 23.8z" fill="#323e4b" fill-rule="evenodd"/><path clip-rule="evenodd" d="m346.1 196.7h-251.5c-11 0-20-9-20-20 0-11 9-20 20-20h251.5c11 0 20 9 20 20-.1 11-9 20-20 20z" fill="#fbbd80" fill-rule="evenodd"/><path clip-rule="evenodd" d="m278 286.4c-17.1 9.7-36.8 15.3-57.7 15.3s-40.7-5.6-57.7-15.3v-44.1h115.4z" fill="#e2aa73" fill-rule="evenodd"/><path clip-rule="evenodd" d="m131.2 58.1h178.3c9.4 0 17.1 7.7 17.1 17.1v109.2c0 58.4-47.8 106.2-106.2 106.2s-106.2-47.8-106.2-106.2v-109.3c-.1-9.3 7.6-17 17-17z" fill="#d74b48" fill-rule="evenodd"/><path clip-rule="evenodd" d="m152.9 109h134.9c4.3 0 7.9 3.5 7.9 7.9v71.9c0 4.3-3.5 7.9-7.9 7.9h-134.9c-4.3 0-7.9-3.5-7.9-7.9v-71.9c0-4.4 3.5-7.9 7.9-7.9z" fill="#008cca" fill-rule="evenodd"/><path clip-rule="evenodd" d="m416.4 302.3h14.4v123.2h-14.4z" fill="#d74b48" fill-rule="evenodd"/><path clip-rule="evenodd" d="m393.1 417.1h34c10.9 0 19.8 8.9 19.8 19.8v18.5c0 10.9-8.9 19.8-19.8 19.8h-34c-3.9 0-7-3.1-7-7v-43.9c-.1-4 3.1-7.2 7-7.2z" fill="#fbbd80" fill-rule="evenodd"/><path clip-rule="evenodd" d="m393.1 417.1h23.4v58h-23.4c-3.9 0-7-3.1-7-7v-43.9c-.1-3.9 3.1-7.1 7-7.1z" fill="#e2aa73" fill-rule="evenodd"/><path clip-rule="evenodd" d="m405.2 289h22.6c7.3 0 13.4 6 13.4 13.4 0 7.4-6 13.4-13.4 13.4h-22.6c-7.4 0-13.4-6-13.4-13.4 0-7.4 6-13.4 13.4-13.4z" fill="#e1e1e1" fill-rule="evenodd"/><path clip-rule="evenodd" d="m228.8 468.3c1.1 0 2.3.1 3.4.3 5.2 3.4 8.7 9 8.7 15.4v22h-32.7v-18.9c0-10.3 9.3-18.8 20.6-18.8z" fill="#008cca" fill-rule="evenodd"/><path d="m127.6 433c0-3.9 3.1-7 7-7s7 3.1 7 7c0 3.9-3.1 7-7 7s-7-3.1-7-7zm171.4 0c0-3.9 3.1-7 7-7s7 3.1 7 7c0 3.9-3.1 7-7 7s-7-3.1-7-7z" fill="#3f383e"/><path clip-rule="evenodd" d="m55.5 374.4c-19 7.4-31 25.5-31 46.8v59.9c0 13.7 10.7 24.9 23.7 24.9h20.2v-61.3c0-21.3 12-39.4 31-46.8l14.7-5.7v-40.6z" fill="#3f383e" fill-rule="evenodd"/><path clip-rule="evenodd" d="m114 351.6v40.6l41.1-16v-10.2-30.3c-.3.1-.7.2-1 .4z" fill="#ffaa5a" fill-rule="evenodd"/><path clip-rule="evenodd" d="m178.6 156.7v-47.7h-25.7c-4.3 0-7.9 3.5-7.9 7.9v39.8 17.8 14.3c0 4.3 3.5 7.9 7.9 7.9h26.4c-.5-4-.7-8.1-.7-12.3v-9.9z" fill="#007eb6" fill-rule="evenodd"/><path clip-rule="evenodd" d="m152.9 109h25.7v-50.9h-47.4c-9.4 0-17.1 7.7-17.1 17.1v81.6 17.8c0 7.5-.1 14.7.7 22.1 3.7 32.1 21.9 59.9 47.8 76.8 16.7 10.9 36.5 17.2 57.7 17.2 11.2 0 22.1-1.8 32.2-5-39.6-12.7-68.5-47.7-73.3-88.9h-26.4c-4.3 0-7.9-3.5-7.9-7.9v-14.3-17.8-39.8c.1-4.5 3.6-8 8-8z" fill="#c24441" fill-rule="evenodd"/><path d="m295.6 139-33.3 57.7h-25.8l50.6-87.7h.6c4.3 0 7.9 3.5 7.9 7.9z" fill="#7ecefd"/><path d="m268.7 109-50.6 87.7h-25.8l50.6-87.7z" fill="#7ecefd"/><path d="m288.6 84.3c0-3.9 3.1-7 7-7s7 3.1 7 7v.1c0 3.9-3.1 7-7 7s-7-3.2-7-7.1zm-18.5 140.1c0-3.9 3.1-7 7-7s7 3.1 7 7v13.3c0 3.9-3.1 7-7 7s-7-3.1-7-7zm-28.4 0c0-3.9 3.1-7 7-7s7 3.1 7 7v13.3c0 3.9-3.1 7-7 7s-7-3.1-7-7zm-28.4 0c0-3.9 3.1-7 7-7s7 3.1 7 7v13.3c0 3.9-3.1 7-7 7s-7-3.1-7-7zm-28.4 0c0-3.9 3.1-7 7-7s7 3.1 7 7v13.3c0 3.9-3.1 7-7 7s-7-3.1-7-7zm-28.5 0c0-3.9 3.1-7 7-7s7 3.1 7 7v13.3c0 3.9-3.1 7-7 7s-7-3.1-7-7zm-18.4-140.1c0-3.9 3.1-7 7-7s7 3.1 7 7v.1c0 3.9-3.1 7-7 7s-7-3.2-7-7.1z" fill="#454545"/><g clip-rule="evenodd" fill-rule="evenodd"><path d="m286.4 336 116.1 43c19.8 7.7 17.3 78.6 19.6 102 1.4 13.7-10.6 24.9-23.7 24.9h-350.2c-13 0-23.7-11.2-23.7-24.9v-59.9c0-21.3 12-39.4 31-46.8l98.7-38.4c13.5-5.3 26.9-4 39.5 3.7l26.6 16.2 26.6-16.2c12.6-7.6 25.9-8.6 39.5-3.6z" fill="#4e454d"/><path d="m99.8 506h241v-60.1c0-11.9-9.8-21.7-21.7-21.7h-197.6c-11.9 0-21.7 9.8-21.7 21.7z" fill="#ffaa5a"/><path d="m220.3 465.1c11.3 0 20.6 8.5 20.6 18.8v22.1h-41.1v-22c-.1-10.4 9.2-18.9 20.5-18.9z" fill="#007eb6"/><path d="m402 302.3h28.8v123.2h-28.8z" fill="#c24441"/><path d="m487.5 239.6-13.2 11.5c-7.1 6.2-18.9 6.2-26-.1-7.2-6.3-7.3-16.6-.1-22.8l.2-.2c7.1-6.2 18.8-6.2 26 .1z" fill="#ffc263"/><path d="m291.7 338c-3.9 35.9-34.5 63.9-71.3 63.9s-67.5-28-71.4-63.9l5.2-2c13.5-5.3 26.9-4 39.5 3.7l26.6 16.2 26.6-16.2c12.6-7.7 26-8.9 39.5-3.7z" fill="#3f383e"/><path d="m162.6 238.8h115.4v91.4c0 31.7-26 57.7-57.7 57.7-31.7 0-57.7-26-57.7-57.7z" fill="#fbbd80"/><path d="m134.6 465.8c-15.1 0-27.5-12.3-27.5-27.4v-8.6c3.8-3.4 8.8-5.4 14.3-5.4h40.6v14.1c.1 15-12.3 27.3-27.4 27.3zm198.8-36.1c-3.8-3.4-8.8-5.4-14.3-5.4h-40.6v14.1c0 15.1 12.3 27.4 27.4 27.4s27.4-12.3 27.4-27.4v-8.7z" fill="#e69951"/><path d="m134.6 458.9c11.3 0 20.6-9.2 20.6-20.6v-102.6c-.3.1-.7.2-1 .4l-40.2 15.5v86.8c0 11.3 9.3 20.5 20.6 20.5z" fill="#ffc263"/><path d="m306 458.9c-11.3 0-20.6-9.2-20.6-20.6v-102.6c.3.1.7.2 1 .4l40.1 15.6v86.8c.1 11.2-9.2 20.4-20.5 20.4z" fill="#ffc263"/><path d="m93.9 174.5h252.6v-117.6c0-13.1-10.7-23.8-23.8-23.8h-12v-22.1c0-1.6-.7-2.9-1.9-3.9-1.3-1-2.7-1.3-4.3-.9-47.4 11.6-100.4 6.8-150.4 6.8-11.9 0-21.9 8.7-24 20h-12.4c-13.1 0-23.8 10.7-23.8 23.8z" fill="#323e4b"/><path d="m346.1 196.7h-251.5c-11 0-20-9-20-20 0-11 9-20 20-20h251.5c11 0 20 9 20 20-.1 11-9 20-20 20z" fill="#fbbd80"/><path d="m278 286.4c-17.1 9.7-36.8 15.3-57.7 15.3s-40.7-5.6-57.7-15.3v-44.1h115.4z" fill="#e2aa73"/><path d="m131.2 58.1h178.3c9.4 0 17.1 7.7 17.1 17.1v109.2c0 58.4-47.8 106.2-106.2 106.2s-106.2-47.8-106.2-106.2v-109.3c-.1-9.3 7.6-17 17-17z" fill="#d74b48"/><path d="m152.9 109h134.9c4.3 0 7.9 3.5 7.9 7.9v71.9c0 4.3-3.5 7.9-7.9 7.9h-134.9c-4.3 0-7.9-3.5-7.9-7.9v-71.9c0-4.4 3.5-7.9 7.9-7.9z" fill="#008cca"/><path d="m416.4 302.3h14.4v123.2h-14.4z" fill="#d74b48"/><path d="m393.1 417.1h34c10.9 0 19.8 8.9 19.8 19.8v18.5c0 10.9-8.9 19.8-19.8 19.8h-34c-3.9 0-7-3.1-7-7v-43.9c-.1-4 3.1-7.2 7-7.2z" fill="#fbbd80"/><path d="m393.1 417.1h23.4v58h-23.4c-3.9 0-7-3.1-7-7v-43.9c-.1-3.9 3.1-7.1 7-7.1z" fill="#e2aa73"/><path d="m405.2 289h22.6c7.3 0 13.4 6 13.4 13.4 0 7.4-6 13.4-13.4 13.4h-22.6c-7.4 0-13.4-6-13.4-13.4 0-7.4 6-13.4 13.4-13.4z" fill="#e1e1e1"/><path d="m228.8 468.3c1.1 0 2.3.1 3.4.3 5.2 3.4 8.7 9 8.7 15.4v22h-32.7v-18.9c0-10.3 9.3-18.8 20.6-18.8z" fill="#008cca"/><path d="m55.5 374.4c-19 7.4-31 25.5-31 46.8v59.9c0 13.7 10.7 24.9 23.7 24.9h20.2v-61.3c0-21.3 12-39.4 31-46.8l14.7-5.7v-40.6z" fill="#3f383e"/><path d="m114 351.6v40.6l41.1-16v-10.2-30.3c-.3.1-.7.2-1 .4z" fill="#ffaa5a"/><path d="m178.6 156.7v-47.7h-25.7c-4.3 0-7.9 3.5-7.9 7.9v39.8 17.8 14.3c0 4.3 3.5 7.9 7.9 7.9h26.4c-.5-4-.7-8.1-.7-12.3v-9.9z" fill="#007eb6"/><path d="m152.9 109h25.7v-50.9h-47.4c-9.4 0-17.1 7.7-17.1 17.1v81.6 17.8c0 7.5-.1 14.7.7 22.1 3.7 32.1 21.9 59.9 47.8 76.8 16.7 10.9 36.5 17.2 57.7 17.2 11.2 0 22.1-1.8 32.2-5-39.6-12.7-68.5-47.7-73.3-88.9h-26.4c-4.3 0-7.9-3.5-7.9-7.9v-14.3-17.8-39.8c.1-4.5 3.6-8 8-8z" fill="#c24441"/></g><path d="m295.6 139-33.3 57.7h-25.8l50.6-87.7h.6c4.3 0 7.9 3.5 7.9 7.9z" fill="#7ecefd"/><path d="m268.7 109-50.6 87.7h-25.8l50.6-87.7z" fill="#7ecefd"/><path d="m202.6 512h-.1-156.4c-8.4 0-16-3.6-21.5-9.4-5.4-5.7-8.8-13.6-8.8-22.3v-29.6c0-3.3 2.7-6 6-6s6 2.7 6 6v29.6c0 5.5 2.1 10.4 5.5 14 3.3 3.5 7.9 5.6 12.9 5.6h50.5v-54.1c0-5.8 1.8-11.3 5-15.8 2.4-3.4 5.6-6.3 9.2-8.4v-67l-55.1 21.4c-7.6 3-14 7.9-18.8 14.1-4.8 6.3-7.9 14-8.9 22.4-.4 3.3-3.4 5.6-6.7 5.2s-5.6-3.4-5.2-6.7c1.2-10.5 5.2-20.2 11.3-28.2 6-8 14.2-14.2 24-18l101.5-39.5c2-.8 3.9-1.4 5.7-1.9l.3-.1.4-.1v-46.9c-5.6-3.9-10.8-8.2-15.5-13-16.2-16.2-27.6-37.4-31.5-61h-15c-7.1 0-13.7-2.9-18.4-7.6s-7.6-11.2-7.6-18.4 2.9-13.7 7.6-18.4c3.2-3.2 7.2-5.6 11.7-6.8v-94.2c0-8.2 3.4-15.7 8.8-21.1s12.9-8.8 21.1-8.8h7.8c1.9-5.1 5-9.6 9.1-13 5.3-4.4 12-7.1 19.4-7.1 10.3 0 22.3.3 34.3.5 39 .8 78.7 1.7 114.7-7.2.9-.2 1.8-.3 2.6-.3 2.5 0 4.9.9 6.8 2.4s3.3 3.6 3.9 6c.2.9.3 1.8.3 2.7v16h6c8.2 0 15.7 3.4 21.1 8.8s8.8 12.8 8.8 21.1v94.6c4.5 1.2 8.6 3.6 11.8 6.8 4.7 4.7 7.6 11.2 7.6 18.4s-2.9 13.7-7.6 18.4-11.2 7.6-18.4 7.6h-15c-3.9 23.6-15.2 44.7-31.5 61-4.8 4.8-10 9.1-15.5 13v46.9c.2.1.5.1.7.2l.3.1c1.8.5 3.6 1.1 5.4 1.8l101.5 39.5c1.4.5 2.8 1.1 4.1 1.8v-47.4c-1.7-.9-3.2-2.1-4.6-3.4-3.5-3.5-5.7-8.4-5.7-13.7s2.2-10.2 5.7-13.7 8.4-5.7 13.7-5.7h5.3v-42.9c0-3.3 2.7-6 6-6h21.2c.8-2.9 2.3-5.8 4.5-8.2.7-.7 1.4-1.5 2.2-2.2 4.8-4.2 10.9-6.3 17.1-6.3 6.1 0 12.2 2 17 6.2l13.1 11.5c2.5 2.2 2.7 6 .6 8.4-.2.2-.4.4-.6.6l-13.3 11.4c-4.7 4.1-10.8 6.2-16.9 6.1-6.1 0-12.3-2.1-17-6.2-.8-.7-1.5-1.4-2.2-2.2-1.9-2.2-3.3-4.7-4.2-7.3h-15.6v37h5.3c5.3 0 10.2 2.2 13.7 5.7s5.7 8.3 5.7 13.7-2.2 10.2-5.7 13.7c-1.3 1.3-2.9 2.5-4.6 3.4v93.6c3.2 1.3 6 3.2 8.4 5.6 4.6 4.6 7.5 11.1 7.5 18.2v18.5c0 7.1-2.9 13.5-7.5 18.2-4.6 4.6-10.8 7.4-17.7 7.6-.2 8.3-3.5 15.9-8.8 21.5-5.5 5.8-13.2 9.4-21.6 9.4h-156.1-.1-.1-40.9zm-94.1-12h88v-16-.3c0-.1 0-.2 0-.3s0-.2 0-.3v-.3-.3-.3-.3-.3-.3l.1-.3c0-.1 0-.2 0-.3l.1-.3.1-.3.1-.3.1-.3.1-.3c0-.1 0-.2.1-.3l.1-.3.1-.3c0-.1.1-.2.1-.3l.1-.3.1-.3.1-.3c0-.1.1-.2.1-.3.1-.1.1-.2.1-.3s.1-.2.1-.3l.1-.3.1-.3.1-.3.1-.3.1-.3.1-.3.1-.3.1-.3.1-.3.1-.3.1-.3.2-.3.1-.3.1-.3.2-.3.2-.3.2-.3.2-.3.2-.3.2-.3.2-.3c.1-.1.1-.2.2-.3l.2-.2.2-.3.2-.3.2-.2.2-.3.2-.2.2-.2.2-.3.2-.2.2-.2.2-.2.2-.2.2-.2.2-.2.2-.2.2-.2.2-.2.2-.2c.1-.1.2-.1.3-.2l.2-.2.2-.2.3-.2.2-.2.3-.2.2-.2.3-.2.3-.2.3-.2.3-.2.3-.2.3-.2.3-.2.3-.2.3-.1.3-.2.3-.1.3-.1.3-.2.3-.1.3-.1.3-.1.3-.1.3-.1.3-.1.3-.1.3-.1.3-.1.3-.1.3-.1.3-.1.3-.1.3-.1.3-.1.3-.1.3-.1.3-.1.3-.1.3-.1.3-.1.3-.1.3-.1.3-.1.3-.1.3-.1.3-.1.3-.1c.1 0 .2 0 .3-.1h.3l.3-.1h.3l.3-.1h.3.3.3.3.3.3.3.3.3.3.3c6.9.2 13.2 2.9 17.9 7.1h.1l.1.1c4.7 4.3 7.8 10.3 7.9 17.3v.3 16h87.9v-54.1c0-3-.8-5.8-2.2-8.1v.5c0 7.3-3 13.9-7.8 18.8-4.8 4.8-11.5 7.8-18.8 7.8s-13.9-3-18.8-7.8c-4.8-4.8-7.8-11.5-7.8-18.8v-8.1h-118.2v8.1c0 7.3-3 13.9-7.8 18.8-4.8 4.8-11.5 7.8-18.8 7.8s-14-3-18.8-7.8-7.8-11.5-7.8-18.8v-.5c-1.4 2.4-2.3 5.1-2.3 8.1v54.5zm241.1 0h50.4c5 0 9.6-2.2 12.9-5.6 3.2-3.4 5.3-8.1 5.5-13.2h-22.6c-3.6 0-6.8-1.4-9.2-3.8-2.4-2.4-3.8-5.6-3.8-9.2v-43.9c0-3.6 1.4-6.8 3.8-9.2.1-.1.3-.3.5-.4 2.3-2.1 5.4-3.4 8.8-3.4h3v-30.5c-.9-.6-1.8-1.2-2.8-1.7-1.8-1-3.7-1.9-5.6-2.7l-55-21.4v67c3.7 2 6.8 4.9 9.2 8.4 3.1 4.5 5 9.9 5 15.8v53.8zm-67.4-81.7v-64.4c-3.2 8-8.1 15.3-14.1 21.3-11.6 11.5-27.5 18.7-45 18.7s-33.5-7.2-45-18.7c-6-6-10.9-13.3-14.1-21.3v64.4zm-44.6 65.4c-.1-3.3-1.6-6.3-4-8.5-2.7-2.4-6.3-3.9-10.1-4h-.2-.2-.2-.2-.2-.2-.2-.2-.2-.2-.2-.2-.2-.2-.2-.2l-.2.1h-.2-.2-.2l-.2.1h-.2-.2l-.2.1-.2.1h-.2l-.2.1-.2.1-.2.1-.2.1-.2.1-.2.1-.2.1-.2.1-.2.1-.1.1-.2.1-.2.1-.2.1-.1.1-.2.1-.1.1-.2.1-.1.1-.2.1-.1.1-.2.1-.1.1-.1.1-.1.1-.2.1-.1.1-.1.1-.1.1-.1.1-.1.1-.1.1-.1.1-.1.1-.1.1-.1.1-.1.1-.1.1-.1.1-.1.1-.1.1-.1.1c-.1.1-.2.1-.2.2l-.1.1-.1.1c-.1.1-.1.2-.2.2l-.1.1-.1.1-.1.1c-.1.1-.1.1-.2.2l-.1.1-.1.1-.1.1-.1.1-.1.1c-.1.1-.1.2-.2.3l-.1.1c-.1.1-.1.2-.2.3l-.1.1-.1.1-.1.1-.1.1-.1.1-.1.1-.1.1-.1.1-.1.1-.1.1-.1.1-.1.1-.1.1-.1.1-.1.1-.1.2-.1.1-.1.1v.1l-.1.1-.1.2v.1l-.1.1v.1l-.1.2v.1.2.1.1.2.1.2.1.2.1.2.2.1.2.2.1.2 16h29.1v-16-.2.5zm85.9-133.4-29.3-11.4v85.4 14.1c0 4 1.6 7.6 4.3 10.3 2.7 2.6 6.3 4.3 10.3 4.3s7.6-1.6 10.3-4.3c2.6-2.7 4.3-6.3 4.3-10.3v-86.8c-.1-.5 0-.9.1-1.3zm-171.6-11.4-29.3 11.4c.1.4.1.9.1 1.4v86.8c0 4 1.6 7.6 4.3 10.3 2.6 2.6 6.3 4.3 10.3 4.3s7.6-1.6 10.3-4.3c2.6-2.7 4.3-6.3 4.3-10.3zm272.4 130.2h.1 5.4c3.8 0 7.2-1.6 9.7-4.1s4.1-6 4.1-9.7v-18.5c0-3.8-1.6-7.2-4.1-9.7-1.9-1.9-4.3-3.2-7-3.8-.1 0-.1 0-.2-.1-.8-.1-1.6-.2-2.5-.2h-34c-.2 0-.4.1-.6.2l-.1.1c-.2.2-.3.5-.3.7v43.9c0 .3.1.5.3.7.2.2.5.3.7.3h28.5zm-121.6-36.2c0-3.3 2.7-6 6-6s6 2.7 6 6v.1c0 3.3-2.7 6-6 6s-6-2.7-6-6zm-171.3 0c0-3.3 2.7-6 6-6s6 2.7 6 6v.1c0 3.3-2.7 6-6 6s-6-2.7-6-6zm161-348.7c0-3.3 2.7-6 6-6s6 2.7 6 6v.1c0 3.3-2.7 6-6 6s-6-2.7-6-6zm-150.7 0c0-3.3 2.7-6 6-6s6 2.7 6 6v.1c0 3.3-2.7 6-6 6s-6-2.7-6-6zm132.2 140.3c0-3.3 2.7-6 6-6s6 2.7 6 6v13.1c0 3.3-2.7 6-6 6s-6-2.7-6-6zm-28.4 0c0-3.3 2.7-6 6-6s6 2.7 6 6v13.1c0 3.3-2.7 6-6 6s-6-2.7-6-6zm-28.4 0c0-3.3 2.7-6 6-6s6 2.7 6 6v13.1c0 3.3-2.7 6-6 6s-6-2.7-6-6zm-28.5 0c0-3.3 2.7-6 6-6s6 2.7 6 6v13.1c0 3.3-2.7 6-6 6s-6-2.7-6-6zm-28.4 0c0-3.3 2.7-6 6-6s6 2.7 6 6v13.1c0 3.3-2.7 6-6 6s-6-2.7-6-6zm267.4 97.2h-16.8v89.4h16.8zm2.9-26.7h-22.6c-2 0-3.9.9-5.2 2.2s-2.2 3.2-2.2 5.2.8 3.9 2.2 5.2c.9.9 2.1 1.6 3.4 1.9.1 0 .1 0 .2.1.5.1 1 .2 1.6.2h22.6c.6 0 1.1-.1 1.6-.2.1 0 .1 0 .2-.1 1.3-.3 2.5-1 3.4-1.9 1.3-1.4 2.2-3.2 2.2-5.2s-.8-3.9-2.2-5.2c-1.4-1.4-3.2-2.2-5.2-2.2zm-274.9-192h134.9c3.8 0 7.3 1.6 9.8 4.1s4.1 6 4.1 9.8v71.9c0 3.8-1.6 7.3-4.1 9.8s-6 4.1-9.8 4.1h-134.9c-3.8 0-7.3-1.6-9.8-4.1s-4.1-6-4.1-9.8v-71.9c0-3.8 1.6-7.3 4.1-9.8 2.5-2.6 6-4.1 9.8-4.1zm134.9 12h-134.9c-.5 0-1 .2-1.3.5s-.6.8-.6 1.3v71.9c0 .5.2 1 .6 1.3.3.3.8.5 1.3.5h134.9c.5 0 1-.2 1.3-.5s.5-.8.5-1.3v-71.9c0-.5-.2-1-.5-1.3s-.8-.5-1.3-.5zm-67.4-50.9c-3.3 0-6-2.7-6-6s2.7-6 6-6h89.1c6.4 0 12.1 2.6 16.3 6.8s6.7 9.9 6.7 16.3v75.5h8.1v-93.8c0-4.9-2-9.4-5.2-12.6s-7.7-5.2-12.6-5.2h-12c-3.3 0-6-2.7-6-6v-20.9c-37.2 8.9-77.2 8.1-116.6 7.2-10.9-.2-21.8-.4-34.1-.4-4.5 0-8.6 1.6-11.7 4.3-3.3 2.7-5.6 6.5-6.3 10.8-.5 2.9-3 4.9-5.9 4.9h-12.4c-4.9 0-9.4 2-12.6 5.2-3.3 3.2-5.2 7.7-5.2 12.6v93.8h8.1v-75.5c0-6.3 2.6-12.1 6.8-16.3s9.9-6.8 16.3-6.8h50.5c3.3 0 6 2.7 6 6s-2.7 6-6 6h-50.5c-3 0-5.8 1.2-7.8 3.2s-3.2 4.8-3.2 7.8v81.5 27.7c0 3.8.2 7.6.6 11.3 0 .2.1.4.1.6 2.7 22.8 13.2 43.4 28.7 58.9 4.9 4.9 10.3 9.3 16.1 13.1.1.1.3.2.4.3 15.7 10.2 34.3 16.1 54.3 16.1s38.6-5.9 54.3-16.1c.1-.1.3-.2.4-.3 5.8-3.8 11.2-8.2 16.1-13.1 15.5-15.5 26-36.1 28.7-58.9 0-.2 0-.4.1-.6.4-3.7.6-7.5.6-11.3v-27.7-81.4c0-3-1.2-5.8-3.3-7.8-2-2-4.8-3.2-7.8-3.2zm112.2 98.6v21.7c0 2.1-.1 4.2-.2 6.3h13.7c3.8 0 7.3-1.6 9.9-4.1s4.1-6 4.1-9.9-1.6-7.3-4.1-9.9c-2.4-2.4-5.8-4-9.5-4.1-.1 0-.2 0-.3 0zm-60.5 121.2c-15.5 8.1-33.1 12.7-51.7 12.7s-36.2-4.6-51.7-12.7v46.3c0 14.2 5.8 27.2 15.2 36.5 9.4 9.4 22.3 15.2 36.5 15.2s27.2-5.8 36.5-15.2c9.4-9.4 15.2-22.3 15.2-36.5zm-163.8-93.2c-.1-2.1-.2-4.2-.2-6.3v-21.7h-13.5c-.1 0-.2 0-.3 0s-.1 0-.2 0c-3.6.1-6.9 1.7-9.3 4.1-2.6 2.6-4.1 6-4.1 9.9 0 3.8 1.6 7.3 4.1 9.9s6 4.1 9.9 4.1zm362.2 55.9 8.1-7.1-7.9-6.9c-2.5-2.2-5.8-3.3-9.1-3.3s-6.7 1.1-9.2 3.4c-.4.3-.7.7-1 1-1.5 1.7-2.3 3.8-2.3 5.8s.8 4.1 2.4 5.9l1 1c2.5 2.2 5.8 3.3 9.1 3.3 3.1.1 6.4-1 8.9-3.1z"/></g></svg>