<?xml version="1.0" ?>
<!-- Uploaded to: SVG Repo, www.svgrepo.com, Generator: SVG Repo Mixer Tools -->
<svg width="800px" height="800px" viewBox="0 0 64 64" xmlns="http://www.w3.org/2000/svg">
<g id="a"/>
<g id="b"/>
<g id="c"/>
<g id="d"/>
<g id="e"/>
<g id="f"/>
<g id="g">
<path d="M9.01,16.71c-3.97,.01-4.01,2.33-4.01,3.8v19.03L25.64,22.53s-5.6-5.86-16.62-5.83Z" fill="#6dd4a1" fill-rule="evenodd"/>
<path d="M59,39.55c0-1.88-.01-4.85-.42-5.87-1.61-4.04-6.84-13.17-21.1-13.17S9.13,30.85,6.19,34.7c-.99,1.29-1.19,3.45-1.19,4.83l27.62,4.52,26.38-4.51Z" fill="#91deb3" fill-rule="evenodd"/>
<path d="M45.81,39.54l3.83,9,7.87,9.75h0c.89-.64,1.48-1.69,1.48-2.88v-9.23l-2.06-3.91-4.17-2.74h-6.95Zm-11.22,0l-.61,8.44,2.89,10.97h8.96l-2.16-11.34-4.3-8.07h-4.78Zm-9.96,0l-4.24,8.66-2.22,10.75h8.96l3.41-9.71-1.14-9.7h-4.78Zm-13.39,0l-3.96,2.51-2.28,4.15v9.23c0,1.19,.58,2.24,1.48,2.88h0l9.62-9.71,2.08-9.05h-6.95Z" fill="#9af6d3" fill-rule="evenodd"/>
<polygon fill="#feccba" fill-rule="evenodd" points="52.77 39.54 59 46.19 59 39.54 52.77 39.54"/>
<path d="M39.37,39.53l6.46,19.41h9.64c.77,0,1.48-.25,2.06-.66h0l-11.7-18.75h-6.45Z" fill="#feccba" fill-rule="evenodd"/>
<polygon fill="#feccba" fill-rule="evenodd" points="5 39.53 5 46.19 11.24 39.54 5 39.53"/>
<polygon fill="#feccba" fill-rule="evenodd" points="29.41 39.54 27.14 58.95 36.86 58.95 34.59 39.54 29.41 39.54"/>
<path d="M18.19,39.54L6.48,58.29h0c.58,.41,1.29,.66,2.06,.66h9.64l6.46-19.41h-6.45Z" fill="#feccba" fill-rule="evenodd"/>
<path d="M49.35,14.11c-1.34,0-2.43,1.08-2.43,2.43s1.08,2.42,2.43,2.42h2.97c1.18,0,2.13,.95,2.13,2.13s-.95,2.13-2.13,2.13h-13.68c-1.89,0-3.4,1.52-3.4,3.4s1.52,3.4,3.4,3.4h18.11c1.24,0,2.24-1.01,2.24-2.25v-11.42c0-1.24-1.01-2.24-2.24-2.24h-7.41Z" fill="#d1f1f4" fill-rule="evenodd"/>
<circle cx="39.21" cy="11.34" fill="#fdda5c" r="2.36"/>
<path d="M39.21,4.05c-.55,0-1,.45-1,1v1.36c0,.55,.45,1,1,1s1-.45,1-1v-1.36c0-.55-.45-1-1-1Z" fill="#fdda5c" fill-rule="evenodd"/>
<path d="M39.21,15.27c-.55,0-1,.45-1,1v1.37c0,.55,.45,1,1,1s1-.45,1-1v-1.37c0-.55-.45-1-1-1Z" fill="#fdda5c" fill-rule="evenodd"/>
<path d="M44.14,10.34c-.55,0-1,.45-1,1s.45,1,1,1h1.37c.55,0,1-.45,1-1s-.45-1-1-1h-1.37Z" fill="#fdda5c" fill-rule="evenodd"/>
<path d="M32.92,10.34c-.55,0-1,.45-1,1s.45,1,1,1h1.37c.55,0,1-.45,1-1s-.45-1-1-1h-1.37Z" fill="#fdda5c" fill-rule="evenodd"/>
<path d="M42.95,6.18l-.97,.97c-.39,.39-.39,1.03,0,1.41,.39,.39,1.03,.39,1.41,0l.97-.97c.39-.39,.39-1.03,0-1.41-.39-.39-1.03-.39-1.41,0Z" fill="#fdda5c" fill-rule="evenodd"/>
<path d="M35.02,14.12l-.97,.97c-.39,.39-.39,1.03,0,1.41,.19,.19,.44,.29,.71,.29s.52-.11,.71-.29l.96-.97c.39-.39,.39-1.03,0-1.41-.39-.39-1.03-.39-1.41,0Z" fill="#fdda5c" fill-rule="evenodd"/>
<path d="M42.69,13.83c-.26,0-.52,.11-.71,.29-.39,.39-.39,1.03,0,1.41l.97,.97c.39,.39,1.03,.39,1.41,0s.39-1.03,0-1.41l-.97-.97c-.19-.19-.44-.29-.71-.29Z" fill="#fdda5c" fill-rule="evenodd"/>
<path d="M34.76,5.89c-.27,0-.52,.11-.71,.29-.39,.39-.39,1.03,0,1.41l.97,.97c.39,.39,1.03,.39,1.41,0,.39-.39,.39-1.03,0-1.41l-.96-.97c-.19-.19-.44-.29-.71-.29h0Z" fill="#fdda5c" fill-rule="evenodd"/>
<path d="M7.64,49.48c-.07-.02-.15-.03-.23-.03-.46,0-.87,.32-.97,.77-.12,.53,.21,1.08,.75,1.2,.53,.12,1.08-.21,1.2-.74,.12-.53-.21-1.08-.74-1.2Z" fill="#49cc8c" fill-rule="evenodd"/>
<path d="M9.96,45.87c-.53-.12-1.08,.21-1.2,.74-.02,.07-.03,.15-.03,.23,0,.46,.32,.87,.77,.98,.53,.12,1.08-.21,1.2-.75,.02-.07,.03-.15,.03-.23,0-.46-.32-.87-.77-.97Z" fill="#49cc8c" fill-rule="evenodd"/>
<path d="M12.19,42.24c-.54-.07-1.05,.32-1.12,.86-.07,.54,.32,1.05,.86,1.12,.54,.07,1.05-.32,1.12-.86,.07-.54-.32-1.05-.86-1.12Z" fill="#49cc8c" fill-rule="evenodd"/>
<circle cx="23.79" cy="55.07" fill="#49cc8c" r="1"/>
<path d="M24.74,50.19s-.07,0-.1,0c-.51,0-.94,.39-1,.9,0,.03,0,.07,0,.1,0,.51,.39,.95,.9,1,.55,.05,1.04-.35,1.09-.9,.05-.54-.35-1.04-.9-1.09Z" fill="#49cc8c" fill-rule="evenodd"/>
<path d="M25.49,46.3c-.55,0-1,.45-1,1,0,.55,.45,1,1,1s1-.45,1-1-.45-1-1-1Z" fill="#49cc8c" fill-rule="evenodd"/>
<circle cx="26.33" cy="43.42" fill="#49cc8c" r="1"/>
<circle cx="40.21" cy="55.07" fill="#49cc8c" r="1"/>
<circle cx="39.36" cy="51.19" fill="#49cc8c" r="1"/>
<circle cx="38.51" cy="47.3" fill="#49cc8c" r="1"/>
<circle cx="37.67" cy="43.42" fill="#49cc8c" r="1"/>
<path d="M56.37,49.49c.54-.13,1.08,.21,1.2,.74,.13,.54-.21,1.08-.75,1.2-.54,.12-1.07-.21-1.2-.75-.13-.54,.21-1.07,.74-1.2Z" fill="#49cc8c" fill-rule="evenodd"/>
<path d="M54.04,45.88c.54-.13,1.08,.21,1.2,.74,.13,.54-.21,1.08-.75,1.2-.54,.12-1.07-.21-1.2-.75-.13-.54,.21-1.08,.75-1.2Z" fill="#49cc8c" fill-rule="evenodd"/>
<path d="M51.81,42.25c.55-.07,1.05,.32,1.12,.86,.07,.55-.31,1.05-.86,1.12-.55,.07-1.05-.31-1.12-.86-.07-.55,.31-1.05,.86-1.12Z" fill="#49cc8c" fill-rule="evenodd"/>
</g>
<g id="h"/>
<g id="i"/>
<g id="j"/>
<g id="k"/>
<g id="l"/>
<g id="m"/>
<g id="n"/>
<g id="o"/>
<g id="p"/>
<g id="q"/>
<g id="r"/>
<g id="s"/>
<g id="t"/>
<g id="u"/>
<g id="v"/>
<g id="w"/>
<g id="x"/>
<g id="y"/>
<g id="a`"/>
<g id="aa"/>
<g id="ab"/>
<g id="ac"/>
<g id="ad"/>
<g id="ae"/>
<g id="af"/>
<g id="ag"/>
<g id="ah"/>
<g id="ai"/>
<g id="aj"/>
<g id="ak"/>
<g id="al"/>
<g id="am"/>
<g id="an"/>
<g id="ao"/>
<g id="ap"/>
<g id="aq"/>
<g id="ar"/>
<g id="as"/>
<g id="at"/>
<g id="au"/>
<g id="av"/>
<g id="aw"/>
<g id="ax"/>
</svg>