<?xml version="1.0" encoding="UTF-8" standalone="no"?>
<!-- Created with Inkscape (http://www.inkscape.org/) -->

<svg
   version="1.1"
   id="svg1302"
   xml:space="preserve"
   width="682.66669"
   height="682.66669"
   viewBox="0 0 682.66669 682.66669"
   xmlns="http://www.w3.org/2000/svg"
   xmlns:svg="http://www.w3.org/2000/svg"><defs
     id="defs1306"><clipPath
       clipPathUnits="userSpaceOnUse"
       id="clipPath1316"><path
         d="M 0,512 H 512 V 0 H 0 Z"
         id="path1314" /></clipPath></defs><g
     id="g1308"
     transform="matrix(1.3333333,0,0,-1.3333333,0,682.66667)"><g
       id="g1310"><g
         id="g1312"
         clip-path="url(#clipPath1316)"><g
           id="g1318"
           transform="translate(329.6846,301.3398)"><path
             d="m 0,0 h -255.219 c -4.524,0 -8.192,3.668 -8.192,8.193 v 32.485 c 0,4.525 3.668,8.193 8.192,8.193 L 0,48.871 c 4.524,0 8.192,-3.668 8.192,-8.193 V 8.193 C 8.192,3.668 4.524,0 0,0"
             style="fill:#eaf6ff;fill-opacity:1;fill-rule:nonzero;stroke:none"
             id="path1320" /></g><g
           id="g1322"
           transform="translate(337.877,342.0176)"><path
             d="m 0,0 v -32.48 c 0,-4.53 -3.67,-8.2 -8.189,-8.2 H -28.41 c 4.52,0 8.19,3.67 8.19,8.2 V 0 c 0,4.53 -3.67,8.19 -8.19,8.19 H -8.189 C -3.67,8.19 0,4.53 0,0"
             style="fill:#d8ecfe;fill-opacity:1;fill-rule:nonzero;stroke:none"
             id="path1324" /></g><g
           id="g1326"
           transform="translate(329.6846,301.3398)"><path
             d="m 0,0 h -255.219 c -4.524,0 -8.192,3.668 -8.192,8.193 v 32.485 c 0,4.525 3.668,8.193 8.192,8.193 L 0,48.871 c 4.524,0 8.192,-3.668 8.192,-8.193 V 8.193 C 8.192,3.668 4.524,0 0,0 Z"
             style="fill:none;stroke:#000000;stroke-width:15;stroke-linecap:round;stroke-linejoin:round;stroke-miterlimit:10;stroke-dasharray:none;stroke-opacity:1"
             id="path1328" /></g><g
           id="g1330"
           transform="translate(324.9648,270.7041)"><path
             d="M 0,0 V 30.636 H -245.779 V 0 c 0,-3.47 -1.813,-6.673 -4.759,-8.508 -12.691,-7.903 -46.036,-34.262 -40.691,-90.625 0,0 2.929,-107.635 102.493,-164.144 H -57.043 C 42.521,-206.768 45.45,-99.133 45.45,-99.133 50.795,-42.77 17.45,-16.411 4.759,-8.508 1.812,-6.673 0,-3.47 0,0"
             style="fill:#c4e2ff;fill-opacity:1;fill-rule:nonzero;stroke:none"
             id="path1332" /></g><g
           id="g1334"
           transform="translate(370.417,171.5679)"><path
             d="m 0,0 c 0,0 -2.93,-107.63 -102.5,-164.14 h -20.33 C -23.26,-107.63 -20.33,0 -20.33,0 c 5.34,56.37 -28,74.41 -40.7,82.31 -2.94,1.83 -4.76,5.04 -4.76,8.51 v 38.95 h 20.34 V 99.14 c 0,-3.47 1.81,-6.68 4.76,-8.51 C -28,82.73 5.34,56.37 0,0"
             style="fill:#b3dafe;fill-opacity:1;fill-rule:nonzero;stroke:none"
             id="path1336" /></g><g
           id="g1338"
           transform="translate(97.6367,191.9478)"><path
             d="m 0,0 h -64.154 c -0.483,-6.308 -0.445,-13.088 0.251,-20.38 0,0 2.926,-107.627 102.498,-164.14 h 131.687 c 99.572,56.513 102.498,164.14 102.498,164.14 0.696,7.292 0.734,14.072 0.251,20.38 L 101.766,0 Z"
             style="fill:#fed402;fill-opacity:1;fill-rule:nonzero;stroke:none"
             id="path1340" /></g><g
           id="g1342"
           transform="translate(370.417,171.5679)"><path
             d="m 0,0 c 0,0 -2.93,-107.63 -102.5,-164.14 h -20.33 C -23.26,-107.63 -20.33,0 -20.33,0 c 0.7,7.44 0.74,14.21 0.23,20.38 H 0.25 C 0.3,19.69 0.35,18.98 0.39,18.28 0.47,16.92 0.521,15.54 0.55,14.13 0.64,9.65 0.47,4.94 0,0"
             style="fill:#fac600;fill-opacity:1;fill-rule:nonzero;stroke:none"
             id="path1344" /></g><g
           id="g1346"
           transform="translate(33.4824,191.9478)"><path
             d="M 0,0 H 337.186"
             style="fill:none;stroke:#000000;stroke-width:15;stroke-linecap:round;stroke-linejoin:round;stroke-miterlimit:10;stroke-dasharray:none;stroke-opacity:1"
             id="path1348" /></g><g
           id="g1350"
           transform="translate(116.9971,414.2534)"><path
             d="m 0,0 v 0 c -9.47,0 -17.146,7.676 -17.146,17.145 v 39.047 c 0,9.469 7.676,17.145 17.146,17.145 9.469,0 17.146,-7.676 17.146,-17.145 V 17.145 C 17.146,7.676 9.469,0 0,0"
             style="fill:#fed402;fill-opacity:1;fill-rule:nonzero;stroke:none"
             id="path1352" /></g><g
           id="g1354"
           transform="translate(185.5781,397.2705)"><path
             d="m 0,0 v 0 c -9.469,0 -17.146,7.676 -17.146,17.146 v 73.011 c 0,9.469 7.677,17.146 17.146,17.146 9.47,0 17.146,-7.677 17.146,-17.146 V 17.146 C 17.146,7.676 9.47,0 0,0"
             style="fill:#fed402;fill-opacity:1;fill-rule:nonzero;stroke:none"
             id="path1356" /></g><g
           id="g1358"
           transform="translate(219.8691,414.2534)"><path
             d="m 0,0 v 0 c -9.47,0 -17.146,7.676 -17.146,17.145 v 39.047 c 0,9.469 7.676,17.145 17.146,17.145 9.469,0 17.146,-7.676 17.146,-17.145 V 17.145 C 17.146,7.676 9.469,0 0,0"
             style="fill:#fee97d;fill-opacity:1;fill-rule:nonzero;stroke:none"
             id="path1360" /></g><g
           id="g1362"
           transform="translate(151.2881,397.2705)"><path
             d="M 0,0 H -0.001 C -9.47,0 -17.146,7.676 -17.146,17.146 v 73.011 c 0,9.469 7.676,17.146 17.145,17.146 H 0 c 9.469,0 17.145,-7.677 17.145,-17.146 V 17.146 C 17.145,7.676 9.469,0 0,0"
             style="fill:#fee97d;fill-opacity:1;fill-rule:nonzero;stroke:none"
             id="path1364" /></g><g
           id="g1366"
           transform="translate(134.1406,470.4482)"><path
             d="m 0,0 v -39.048 c 0,-9.474 -7.675,-17.148 -17.148,-17.148 -3.148,0 -6.111,0.853 -8.641,2.335 5.081,2.972 8.497,8.497 8.497,14.813 V 0 c 0,4.732 -1.924,9.011 -5.02,12.118 -1.04,1.039 -2.202,1.944 -3.477,2.685 2.53,1.481 5.493,2.335 8.641,2.335 4.742,0 9.021,-1.914 12.127,-5.02 C -1.914,9.011 0,4.732 0,0"
             style="fill:#fac600;fill-opacity:1;fill-rule:nonzero;stroke:none"
             id="path1368" /></g><g
           id="g1370"
           transform="translate(202.7217,487.4316)"><path
             d="m 0,0 v -73.015 c 0,-9.474 -7.674,-17.148 -17.148,-17.148 -3.148,0 -6.1,0.853 -8.641,2.335 5.082,2.973 8.497,8.497 8.497,14.813 V 0 c 0,4.732 -1.913,9.021 -5.02,12.118 -1.039,1.039 -2.202,1.934 -3.477,2.685 2.541,1.481 5.493,2.335 8.641,2.335 4.732,0 9.021,-1.924 12.128,-5.02 C -1.924,9.021 0,4.732 0,0"
             style="fill:#fac600;fill-opacity:1;fill-rule:nonzero;stroke:none"
             id="path1372" /></g><g
           id="g1374"
           transform="translate(237.0176,470.6333)"><path
             d="m 0,0 v -39.418 c 0,-9.372 -7.592,-16.963 -16.963,-16.963 h -0.37 c -3.106,0 -6.018,0.833 -8.518,2.304 5.113,2.962 8.559,8.496 8.559,14.844 v 39.048 c 0,4.732 -1.913,9.011 -5.02,12.118 -1.059,1.059 -2.252,1.975 -3.548,2.726 2.499,1.46 5.41,2.294 8.527,2.294 h 0.37 C -7.592,16.953 0,9.361 0,0"
             style="fill:#fee45a;fill-opacity:1;fill-rule:nonzero;stroke:none"
             id="path1376" /></g><g
           id="g1378"
           transform="translate(168.4365,487.4316)"><path
             d="m 0,0 v -73.015 c 0,-9.474 -7.685,-17.148 -17.148,-17.148 -3.159,0 -6.111,0.853 -8.652,2.335 5.092,2.973 8.508,8.497 8.508,14.813 V 0 c 0,4.732 -1.924,9.021 -5.02,12.118 -1.04,1.039 -2.212,1.934 -3.488,2.685 2.541,1.481 5.493,2.335 8.652,2.335 4.732,0 9.021,-1.924 12.127,-5.02 C -1.924,9.021 0,4.732 0,0"
             style="fill:#fee45a;fill-opacity:1;fill-rule:nonzero;stroke:none"
             id="path1380" /></g><g
           id="g1382"
           transform="translate(116.9971,414.2534)"><path
             d="m 0,0 v 0 c -9.47,0 -17.146,7.676 -17.146,17.145 v 39.047 c 0,9.469 7.676,17.145 17.146,17.145 9.469,0 17.146,-7.676 17.146,-17.145 V 17.145 C 17.146,7.676 9.469,0 0,0 Z"
             style="fill:none;stroke:#000000;stroke-width:15;stroke-linecap:round;stroke-linejoin:round;stroke-miterlimit:10;stroke-dasharray:none;stroke-opacity:1"
             id="path1384" /></g><g
           id="g1386"
           transform="translate(219.8691,414.2534)"><path
             d="m 0,0 v 0 c -9.47,0 -17.146,7.676 -17.146,17.145 v 39.047 c 0,9.469 7.676,17.145 17.146,17.145 9.469,0 17.146,-7.676 17.146,-17.145 V 17.145 C 17.146,7.676 9.469,0 0,0 Z"
             style="fill:none;stroke:#000000;stroke-width:15;stroke-linecap:round;stroke-linejoin:round;stroke-miterlimit:10;stroke-dasharray:none;stroke-opacity:1"
             id="path1388" /></g><g
           id="g1390"
           transform="translate(151.2881,397.2705)"><path
             d="M 0,0 H -0.001 C -9.47,0 -17.146,7.676 -17.146,17.146 v 73.011 c 0,9.469 7.676,17.146 17.145,17.146 H 0 c 9.469,0 17.145,-7.677 17.145,-17.146 V 17.146 C 17.145,7.676 9.469,0 0,0 Z"
             style="fill:none;stroke:#000000;stroke-width:15;stroke-linecap:round;stroke-linejoin:round;stroke-miterlimit:10;stroke-dasharray:none;stroke-opacity:1"
             id="path1392" /></g><g
           id="g1394"
           transform="translate(185.5781,397.2705)"><path
             d="m 0,0 v 0 c -9.469,0 -17.146,7.676 -17.146,17.146 v 73.011 c 0,9.469 7.677,17.146 17.146,17.146 9.47,0 17.146,-7.677 17.146,-17.146 V 17.146 C 17.146,7.676 9.47,0 0,0 Z"
             style="fill:none;stroke:#000000;stroke-width:15;stroke-linecap:round;stroke-linejoin:round;stroke-miterlimit:10;stroke-dasharray:none;stroke-opacity:1"
             id="path1396" /></g><path
           d="M 442.743,436.301 H 237.014 v 29.241 h 205.729 z"
           style="fill:#c68d7a;fill-opacity:1;fill-rule:nonzero;stroke:none"
           id="path1398" /><g
           id="g1400"
           transform="translate(308.167,465.5425)"><path
             d="M 0,0 H 134.576 V -29.241 H -71.152 V 0 h 36.985"
             style="fill:none;stroke:#000000;stroke-width:15;stroke-linecap:round;stroke-linejoin:round;stroke-miterlimit:10;stroke-dasharray:none;stroke-opacity:1"
             id="path1402" /></g><g
           id="g1404"
           transform="translate(478.8408,452.3115)"><path
             d="m 0,0 c 0,-14.479 -11.738,-26.217 -26.217,-26.217 -14.479,0 -26.217,11.738 -26.217,26.217 0,14.479 11.738,26.217 26.217,26.217 C -11.738,26.217 0,14.479 0,0"
             style="fill:#aa6a51;fill-opacity:1;fill-rule:nonzero;stroke:none"
             id="path1406" /></g><g
           id="g1408"
           transform="translate(478.8369,452.3125)"><path
             d="m 0,0 c 0,-14.483 -11.736,-26.221 -26.21,-26.221 -7.354,0 -14,3.025 -18.753,7.901 0.083,-0.011 0.165,-0.011 0.247,-0.011 14.474,0 26.211,11.737 26.211,26.221 0,7.129 -2.84,13.589 -7.458,18.31 C -11.603,26.077 0,14.391 0,0"
             style="fill:#935b44;fill-opacity:1;fill-rule:nonzero;stroke:none"
             id="path1410" /></g><g
           id="g1412"
           transform="translate(478.8408,452.3115)"><path
             d="m 0,0 c 0,-14.479 -11.738,-26.217 -26.217,-26.217 -14.479,0 -26.217,11.738 -26.217,26.217 0,14.479 11.738,26.217 26.217,26.217 C -11.738,26.217 0,14.479 0,0 Z"
             style="fill:none;stroke:#000000;stroke-width:15;stroke-linecap:round;stroke-linejoin:round;stroke-miterlimit:10;stroke-dasharray:none;stroke-opacity:1"
             id="path1414" /></g><g
           id="g1416"
           transform="translate(49.9375,105.0171)"><path
             d="m 0,0 c 13.781,-32.78 39.251,-70.892 86.291,-97.59 h 131.693 c 99.564,56.509 102.494,164.144 102.494,164.144 5.344,56.363 -28,82.722 -40.692,90.625 -2.946,1.835 -4.759,5.038 -4.759,8.508 v 30.636 H 29.248 v -30.636 c 0,-3.47 -1.812,-6.673 -4.759,-8.508 -12.691,-7.903 -46.036,-34.262 -40.691,-90.625 0,0 0.368,-13.524 5.277,-33.501"
             style="fill:none;stroke:#000000;stroke-width:15;stroke-linecap:round;stroke-linejoin:round;stroke-miterlimit:10;stroke-dasharray:none;stroke-opacity:1"
             id="path1418" /></g><g
           id="g1420"
           transform="translate(369.9541,69.7158)"><path
             d="m 0,0 v -43.018 l 30.018,-17.331 c 4.478,-2.586 9.995,-2.586 14.473,0 l 22.781,13.153 c 4.479,2.585 7.237,7.363 7.237,12.534 v 26.306 c 0,5.17 -2.758,9.949 -7.237,12.534 L 37.255,21.509 Z"
             style="fill:#fed402;fill-opacity:1;fill-rule:nonzero;stroke:none"
             id="path1422" /></g><g
           id="g1424"
           transform="translate(444.4668,61.3579)"><path
             d="m 0,0 v -26.3 c 0,-5.17 -2.76,-9.95 -7.24,-12.54 l -18.159,-10.48 c 3.42,2.74 5.399,6.88 5.399,11.26 v 51.81 c 0,2.6 -0.7,5.12 -1.99,7.3 L -7.24,12.54 C -2.76,9.95 0,5.17 0,0"
             style="fill:#fac600;fill-opacity:1;fill-rule:nonzero;stroke:none"
             id="path1426" /></g><g
           id="g1428"
           transform="translate(332.7187,125.8867)"><path
             d="M 0,0 V -34.662 L 37.255,-56.171 74.51,-34.662 V 0 c 0,5.171 -2.759,9.949 -7.238,12.534 L 44.491,25.687 c -4.477,2.585 -9.995,2.585 -14.473,0 L 7.236,12.534 C 2.759,9.949 0,5.171 0,0"
             style="fill:#fee97d;fill-opacity:1;fill-rule:nonzero;stroke:none"
             id="path1430" /></g><g
           id="g1432"
           transform="translate(407.2266,125.8877)"><path
             d="m 0,0 v -34.66 l -20,-11.55 v 59.48 c 0,2.91 -0.869,5.69 -2.43,8.03 L -7.239,12.53 C -2.76,9.95 0,5.17 0,0"
             style="fill:#fee45a;fill-opacity:1;fill-rule:nonzero;stroke:none"
             id="path1434" /></g><g
           id="g1436"
           transform="translate(332.7187,125.8867)"><path
             d="M 0,0 V -34.662 L 37.255,-56.171 74.51,-34.662 V 0 c 0,5.171 -2.759,9.949 -7.238,12.534 L 44.491,25.687 c -4.477,2.585 -9.995,2.585 -14.473,0 L 7.236,12.534 C 2.759,9.949 0,5.171 0,0 Z"
             style="fill:none;stroke:#000000;stroke-width:15;stroke-linecap:round;stroke-linejoin:round;stroke-miterlimit:10;stroke-dasharray:none;stroke-opacity:1"
             id="path1438" /></g><g
           id="g1440"
           transform="translate(295.4639,61.3594)"><path
             d="m 0,0 v -26.306 c 0,-5.17 2.759,-9.948 7.237,-12.534 l 22.782,-13.153 c 4.477,-2.585 9.995,-2.585 14.472,0 L 74.51,-34.662 V 8.356 L 37.255,29.865 7.237,12.535 C 2.759,9.949 0,5.171 0,0"
             style="fill:#fff5c6;fill-opacity:1;fill-rule:nonzero;stroke:none"
             id="path1442" /></g><g
           id="g1444"
           transform="translate(369.9766,69.7178)"><path
             d="M 0,0 V -43.02 L -20.02,-54.58 V 11.56 Z"
             style="fill:#fef0ae;fill-opacity:1;fill-rule:nonzero;stroke:none"
             id="path1446" /></g><g
           id="g1448"
           transform="translate(295.4639,61.3594)"><path
             d="m 0,0 v -26.306 c 0,-5.17 2.759,-9.948 7.237,-12.534 l 22.782,-13.153 c 4.477,-2.585 9.995,-2.585 14.472,0 L 74.51,-34.662 V 8.356 L 37.255,29.865 7.237,12.535 C 2.759,9.949 0,5.171 0,0 Z"
             style="fill:none;stroke:#000000;stroke-width:15;stroke-linecap:round;stroke-linejoin:round;stroke-miterlimit:10;stroke-dasharray:none;stroke-opacity:1"
             id="path1450" /></g><g
           id="g1452"
           transform="translate(369.9541,69.7158)"><path
             d="m 0,0 v -43.018 l 30.018,-17.331 c 4.478,-2.586 9.995,-2.586 14.473,0 l 22.781,13.153 c 4.479,2.585 7.237,7.363 7.237,12.534 v 26.306 c 0,5.17 -2.758,9.949 -7.237,12.534 L 37.255,21.509 Z"
             style="fill:none;stroke:#000000;stroke-width:15;stroke-linecap:round;stroke-linejoin:round;stroke-miterlimit:10;stroke-dasharray:none;stroke-opacity:1"
             id="path1454" /></g><g
           id="g1456"
           transform="translate(117.7842,350.2109)"><path
             d="m 0,0 v -112.72 c 0,-10.28 8.333,-18.613 18.612,-18.613 10.281,0 18.614,8.333 18.614,18.613 v 22.927 c 0,10.195 8.264,18.46 18.46,18.46 10.195,0 18.46,-8.265 18.46,-18.46 v -0.177 c 0,-10.28 8.333,-18.613 18.613,-18.613 10.279,0 18.613,8.333 18.613,18.613 V 0 Z"
             style="fill:#fed402;fill-opacity:1;fill-rule:nonzero;stroke:none"
             id="path1458" /></g><g
           id="g1460"
           transform="translate(229.1572,350.208)"><path
             d="m 0,0 v -89.97 c 0,-5.14 -2.08,-9.79 -5.45,-13.16 -3.37,-3.37 -8.02,-5.45 -13.16,-5.45 -3.661,0 -7.08,1.06 -9.96,2.89 1.17,0.73 2.24,1.59 3.21,2.56 3.36,3.37 5.45,8.02 5.45,13.16 V 0 Z"
             style="fill:#fac600;fill-opacity:1;fill-rule:nonzero;stroke:none"
             id="path1462" /></g><g
           id="g1464"
           transform="translate(117.7842,350.2109)"><path
             d="m 0,0 v -112.72 c 0,-10.28 8.333,-18.613 18.612,-18.613 10.281,0 18.614,8.333 18.614,18.613 v 22.927 c 0,10.195 8.264,18.46 18.46,18.46 10.195,0 18.46,-8.265 18.46,-18.46 v -0.177 c 0,-10.28 8.333,-18.613 18.613,-18.613 10.279,0 18.613,8.333 18.613,18.613 V 0 Z"
             style="fill:none;stroke:#000000;stroke-width:15;stroke-linecap:round;stroke-linejoin:round;stroke-miterlimit:10;stroke-dasharray:none;stroke-opacity:1"
             id="path1466" /></g></g></g></g></svg>
