<?xml version="1.0" encoding="UTF-8" standalone="no"?>
<!DOCTYPE svg PUBLIC "-//W3C//DTD SVG 1.1//EN" "http://www.w3.org/Graphics/SVG/1.1/DTD/svg11.dtd">
<!-- Created with Vectornator (http://vectornator.io/) -->
<svg height="100%" stroke-miterlimit="10" style="fill-rule:nonzero;clip-rule:evenodd;stroke-linecap:round;stroke-linejoin:round;" version="1.1" viewBox="0 0 1066.67 1066.67" width="100%" xml:space="preserve" xmlns="http://www.w3.org/2000/svg" xmlns:vectornator="http://vectornator.io" xmlns:xlink="http://www.w3.org/1999/xlink">
<defs>
<linearGradient gradientTransform="matrix(-536.364 595.693 -595.693 -536.364 794.083 152.956)" gradientUnits="userSpaceOnUse" id="LinearGradient" x1="0" x2="1" y1="0" y2="0">
<stop offset="0" stop-color="#670000"/>
<stop offset="1" stop-color="#ff0000"/>
</linearGradient>
<linearGradient gradientTransform="matrix(-421.972 468.648 -468.648 -421.972 748.932 168.855)" gradientUnits="userSpaceOnUse" id="LinearGradient_2" x1="0" x2="1" y1="0" y2="0">
<stop offset="0" stop-color="#670000"/>
<stop offset="1" stop-color="#ff0000"/>
</linearGradient>
<linearGradient gradientTransform="matrix(-530.853 589.571 -589.571 -530.853 791.323 155.886)" gradientUnits="userSpaceOnUse" id="LinearGradient_3" x1="0" x2="1" y1="0" y2="0">
<stop offset="0" stop-color="#ff0000"/>
<stop offset="1" stop-color="#670000"/>
</linearGradient>
<linearGradient gradientTransform="matrix(1.11402 0 0 1.11402 203.046 21.478)" gradientUnits="userSpaceOnUse" id="LinearGradient_4" x1="302.94" x2="302.94" y1="276.66" y2="475.36">
<stop offset="0" stop-color="#e9e9ea"/>
<stop offset="1" stop-color="#ffffff"/>
</linearGradient>
<linearGradient gradientTransform="matrix(1.11402 0 0 1.11402 203.046 21.478)" gradientUnits="userSpaceOnUse" id="LinearGradient_5" x1="289.91" x2="433.23" y1="365.02" y2="365.02">
<stop offset="0" stop-color="#888888"/>
<stop offset="1" stop-color="#333333"/>
</linearGradient>
<linearGradient gradientTransform="matrix(1.11402 0 0 1.11402 203.046 21.478)" gradientUnits="userSpaceOnUse" id="LinearGradient_6" x1="176.71" x2="263.85" y1="404.11" y2="404.11">
<stop offset="0" stop-color="#888888"/>
<stop offset="1" stop-color="#333333"/>
</linearGradient>
<linearGradient gradientTransform="matrix(0.999495 0 0 1.05569 228.274 49.1301)" gradientUnits="userSpaceOnUse" id="LinearGradient_7" x1="262.94" x2="176.71" y1="412.7" y2="413.56">
<stop offset="0" stop-color="#888888"/>
<stop offset="1" stop-color="#333333"/>
</linearGradient>
<radialGradient cx="228.29" cy="376.28" gradientTransform="matrix(0.0925023 4.51187 -2.25477 0.0462305 1275.73 -585.293)" gradientUnits="userSpaceOnUse" id="RadialGradient" r="32.981">
<stop offset="0" stop-color="#ededed"/>
<stop offset="1" stop-color="#0169c8"/>
</radialGradient>
<radialGradient cx="238.16" cy="343.38" gradientTransform="matrix(-0.927128 2.80208 -1.11402 -0.368594 1054.23 -121.929)" gradientUnits="userSpaceOnUse" id="RadialGradient_2" r="30.766">
<stop offset="0" stop-color="#eeeeee" stop-opacity="0.84444"/>
<stop offset="1" stop-color="#eeeeee" stop-opacity="0"/>
</radialGradient>
<linearGradient gradientTransform="matrix(1.11402 0 0 1.11402 203.046 21.478)" gradientUnits="userSpaceOnUse" id="LinearGradient_8" x1="419.78" x2="296.82" y1="364.62" y2="365.02">
<stop offset="0" stop-color="#888888"/>
<stop offset="1" stop-color="#333333"/>
</linearGradient>
<linearGradient gradientTransform="matrix(1.11402 0 0 1.11402 203.046 21.478)" gradientUnits="userSpaceOnUse" id="LinearGradient_9" x1="359.32" x2="361.57" y1="402.05" y2="323.17">
<stop offset="0" stop-color="#ededed"/>
<stop offset="1" stop-color="#0169c8"/>
</linearGradient>
<linearGradient gradientTransform="matrix(1.11402 0 0 1.11402 203.046 21.478)" gradientUnits="userSpaceOnUse" id="LinearGradient_10" x1="328" x2="420" y1="365.02" y2="365.02">
<stop offset="0" stop-color="#eeeeee" stop-opacity="0.84444"/>
<stop offset="1" stop-color="#eeeeee" stop-opacity="0"/>
</linearGradient>
<linearGradient gradientTransform="matrix(1.11402 0 0 1.11402 203.046 20.195)" gradientUnits="userSpaceOnUse" id="LinearGradient_11" x1="289.91" x2="289.91" y1="481.06" y2="525.85">
<stop offset="0" stop-color="#888888"/>
<stop offset="1" stop-color="#333333"/>
</linearGradient>
<linearGradient gradientTransform="matrix(1.07348 0 0 0.956471 213.331 96.6254)" gradientUnits="userSpaceOnUse" id="LinearGradient_12" x1="127.85" x2="468.25" y1="493.28" y2="489.21">
<stop offset="0" stop-color="#eeeeee"/>
<stop offset="1" stop-color="#eeeeee" stop-opacity="0"/>
</linearGradient>
<linearGradient gradientTransform="matrix(1.20871 0 0 0.973858 195.638 66.9175)" gradientUnits="userSpaceOnUse" id="LinearGradient_13" x1="162.87" x2="164.97" y1="279.11" y2="157.77">
<stop offset="0" stop-color="#e9e9ea"/>
<stop offset="1" stop-color="#ffffff"/>
</linearGradient>
<linearGradient gradientTransform="matrix(1.20871 0 0 0.973858 195.638 66.3571)" gradientUnits="userSpaceOnUse" id="LinearGradient_14" x1="162.87" x2="164.97" y1="279.11" y2="157.77">
<stop offset="0" stop-color="#e9e9ea"/>
<stop offset="1" stop-color="#ffffff"/>
</linearGradient>
<linearGradient gradientTransform="matrix(1.20871 0 0 0.973858 195.638 66.9175)" gradientUnits="userSpaceOnUse" id="LinearGradient_15" x1="162.87" x2="164.97" y1="279.11" y2="157.77">
<stop offset="0" stop-color="#e9e9ea"/>
<stop offset="1" stop-color="#ffffff"/>
</linearGradient>
<linearGradient gradientTransform="matrix(1.20871 0 0 0.973858 195.638 65.7958)" gradientUnits="userSpaceOnUse" id="LinearGradient_16" x1="162.87" x2="164.97" y1="279.11" y2="157.77">
<stop offset="0" stop-color="#e9e9ea"/>
<stop offset="1" stop-color="#ffffff"/>
</linearGradient>
<linearGradient gradientTransform="matrix(0.897696 0 0 1.27321 260.985 -429.865)" gradientUnits="userSpaceOnUse" id="LinearGradient_17" x1="289.91" x2="289.91" y1="481.06" y2="525.85">
<stop offset="0" stop-color="#888888"/>
<stop offset="1" stop-color="#333333"/>
</linearGradient>
<linearGradient gradientTransform="matrix(0.859307 0 0 1.27321 271.666 -430.768)" gradientUnits="userSpaceOnUse" id="LinearGradient_18" x1="121.34" x2="460.68" y1="489.21" y2="489.21">
<stop offset="0" stop-color="#aaaaaa"/>
<stop offset="0.48044" stop-color="#ededed"/>
<stop offset="1" stop-color="#eeeeee" stop-opacity="0"/>
</linearGradient>
</defs>
<g id="g23408" vectornator:layerName="g23408">
<g opacity="1" vectornator:layerName="path">
<clipPath id="ClipPath">
<path d="M180.461 403.178C180.461 466.936 197.53 529.583 229.826 584.343L229.826 584.343L230.123 584.857C278.861 667.13 443.256 893.213 476.238 932.972L476.238 932.972C506.107 970.641 521.88 992.397 537.441 994.347L537.441 994.347L537.958 994.411L538.486 994.347C553.983 992.4 569.774 970.711 599.615 933.038L599.615 933.038C632.668 893.213 797.05 667.13 846.018 584.502L846.018 584.502L846.084 584.343C878.371 529.61 895.438 466.964 895.438 403.178L895.438 403.178C895.438 206.05 735.081 45.6744 537.958 45.6744L537.958 45.6744C340.838 45.6744 180.461 206.05 180.461 403.178"/>
</clipPath>
<g clip-path="url(#ClipPath)">
<path d="M180.461 403.178C180.461 466.936 197.53 529.583 229.826 584.343L229.826 584.343L230.123 584.857C278.861 667.13 443.256 893.213 476.238 932.972L476.238 932.972C506.107 970.641 521.88 992.397 537.441 994.347L537.441 994.347L537.958 994.411L538.486 994.347C553.983 992.4 569.774 970.711 599.615 933.038L599.615 933.038C632.668 893.213 797.05 667.13 846.018 584.502L846.018 584.502L846.084 584.343C878.371 529.61 895.438 466.964 895.438 403.178L895.438 403.178C895.438 206.05 735.081 45.6744 537.958 45.6744L537.958 45.6744C340.838 45.6744 180.461 206.05 180.461 403.178" fill="url(#LinearGradient)" fill-rule="nonzero" opacity="1" stroke="none" vectornator:layerName="path"/>
</g>
</g>
<g opacity="1" vectornator:layerName="path">
<clipPath id="ClipPath_2">
<path d="M222.637 403.178C222.637 577.31 363.801 718.495 537.95 718.495L537.95 718.495C712.09 718.495 853.257 577.31 853.257 403.178L853.257 403.178C853.257 229.039 712.09 87.8678 537.95 87.8678L537.95 87.8678C363.801 87.8678 222.637 229.039 222.637 403.178"/>
</clipPath>
<g clip-path="url(#ClipPath_2)">
<path d="M222.637 403.178C222.637 577.31 363.801 718.495 537.95 718.495L537.95 718.495C712.09 718.495 853.257 577.31 853.257 403.178L853.257 403.178C853.257 229.039 712.09 87.8678 537.95 87.8678L537.95 87.8678C363.801 87.8678 222.637 229.039 222.637 403.178" fill="url(#LinearGradient_2)" fill-rule="nonzero" opacity="1" stroke="none" vectornator:layerName="path"/>
</g>
</g>
<g opacity="1" vectornator:layerName="path">
<clipPath id="ClipPath_3">
<path d="M248.89 402.98C248.89 562.371 378.575 692.052 537.96 692.052L537.96 692.052C697.353 692.052 827.02 562.371 827.02 402.98L827.02 402.98C827.02 243.589 697.353 113.92 537.96 113.92L537.96 113.92C378.575 113.92 248.89 243.589 248.89 402.98"/>
</clipPath>
<g clip-path="url(#ClipPath_3)">
<path d="M248.89 402.98C248.89 562.371 378.575 692.052 537.96 692.052L537.96 692.052C697.353 692.052 827.02 562.371 827.02 402.98L827.02 402.98C827.02 243.589 697.353 113.92 537.96 113.92L537.96 113.92C378.575 113.92 248.89 243.589 248.89 402.98" fill="#a7a7a7" fill-rule="nonzero" opacity="1" stroke="none" vectornator:layerName="path"/>
</g>
</g>
<g opacity="1" vectornator:layerName="path">
<clipPath id="ClipPath_4">
<path d="M184.653 403.178C184.653 468.549 202.479 529.715 233.434 582.212L233.434 582.212L233.344 582.109C233.466 582.31 233.6 582.524 233.722 582.719L233.722 582.719C281.183 662.814 445.434 889.274 479.524 930.362L479.524 930.362C506.923 964.802 523.966 988.431 537.958 990.187L537.958 990.187C551.938 988.431 568.991 964.802 596.386 930.362L596.386 930.362C630.644 889.086 794.815 662.68 842.18 582.719L842.18 582.719C842.392 582.405 842.735 581.926 842.474 582.212L842.474 582.212C873.449 529.715 891.248 468.549 891.248 403.178L891.248 403.178C891.248 208.051 733.09 49.8664 537.958 49.8664L537.958 49.8664C342.824 49.8664 184.653 208.051 184.653 403.178M222.498 402.98C222.498 229.037 364.026 87.5301 537.96 87.5301L537.96 87.5301C711.903 87.5301 853.409 229.037 853.409 402.98L853.409 402.98C853.409 576.925 711.903 718.442 537.96 718.442L537.96 718.442C364.026 718.442 222.498 576.925 222.498 402.98"/>
</clipPath>
<g clip-path="url(#ClipPath_4)">
<path d="M184.653 403.178C184.653 468.549 202.479 529.715 233.434 582.212L233.434 582.212L233.344 582.109C233.466 582.31 233.6 582.524 233.722 582.719L233.722 582.719C281.183 662.814 445.434 889.274 479.524 930.362L479.524 930.362C506.923 964.802 523.966 988.431 537.958 990.187L537.958 990.187C551.938 988.431 568.991 964.802 596.386 930.362L596.386 930.362C630.644 889.086 794.815 662.68 842.18 582.719L842.18 582.719C842.392 582.405 842.735 581.926 842.474 582.212L842.474 582.212C873.449 529.715 891.248 468.549 891.248 403.178L891.248 403.178C891.248 208.051 733.09 49.8664 537.958 49.8664L537.958 49.8664C342.824 49.8664 184.653 208.051 184.653 403.178M222.498 402.98C222.498 229.037 364.026 87.5301 537.96 87.5301L537.96 87.5301C711.903 87.5301 853.409 229.037 853.409 402.98L853.409 402.98C853.409 576.925 711.903 718.442 537.96 718.442L537.96 718.442C364.026 718.442 222.498 576.925 222.498 402.98" fill="url(#LinearGradient_3)" fill-rule="nonzero" opacity="1" stroke="none" vectornator:layerName="path"/>
</g>
</g>
<g opacity="1" vectornator:layerName="g4642">
<path d="M368.155 320.613L714.703 320.613L714.703 320.613L714.703 558.3L714.703 558.3L368.155 558.3L368.155 558.3L368.155 320.613L368.155 320.613Z" fill="#cccccf" fill-rule="nonzero" opacity="1" stroke="none" vectornator:layerName="rect"/>
<path d="M374.505 329.682L706.537 329.682L706.537 329.682L706.537 551.036L706.537 551.036L374.505 551.036L374.505 551.036L374.505 329.682L374.505 329.682Z" fill="url(#LinearGradient_4)" fill-rule="nonzero" opacity="1" stroke="none" vectornator:layerName="rect"/>
<path d="M526.011 385.026L685.671 385.026L685.671 385.026L685.671 471.208L685.671 471.208L526.011 471.208L526.011 471.208L526.011 385.026L526.011 385.026Z" fill="url(#LinearGradient_5)" fill-rule="nonzero" opacity="1" stroke="none" vectornator:layerName="rect"/>
<path d="M399.904 385.026L496.974 385.026L496.974 385.026L496.974 558.3L496.974 558.3L399.904 558.3L399.904 558.3L399.904 385.026L399.904 385.026Z" fill="url(#LinearGradient_6)" fill-rule="nonzero" opacity="1" stroke="none" vectornator:layerName="rect"/>
<path d="M404.895 393.637L491.985 393.637L491.985 393.637L491.985 557.843L491.985 557.843L404.895 557.843L404.895 557.843L404.895 393.637L404.895 393.637Z" fill="url(#LinearGradient_7)" fill-rule="nonzero" opacity="1" stroke="none" vectornator:layerName="rect"/>
<path d="M411.702 403.619L485.184 403.619L485.184 403.619L485.184 547.861L485.184 547.861L411.702 547.861L411.702 547.861L411.702 403.619L411.702 403.619Z" fill="url(#RadialGradient)" fill-rule="nonzero" opacity="1" stroke="none" vectornator:layerName="rect"/>
<path d="M416.626 403.619C433.726 414.469 462.334 434.031 485.171 456.78L485.171 403.62L416.624 403.62L416.626 403.619Z" fill="url(#RadialGradient_2)" fill-rule="nonzero" opacity="0.76889" stroke="none" vectornator:layerName="path"/>
<path d="M533.709 393.359L677.974 393.359L677.974 393.359L677.974 462.863L677.974 462.863L533.709 462.863L533.709 462.863L533.709 393.359L533.709 393.359Z" fill="url(#LinearGradient_8)" fill-rule="nonzero" opacity="1" stroke="none" vectornator:layerName="rect"/>
<path d="M540.76 398.494L670.922 398.494L670.922 398.494L670.922 457.735L670.922 457.735L540.76 457.735L540.76 457.735L540.76 398.494L540.76 398.494Z" fill="url(#LinearGradient_9)" fill-rule="nonzero" opacity="1" stroke="none" vectornator:layerName="rect"/>
<path d="M568.444 398.505C588.112 414.312 617.19 438.274 640.75 457.722L670.933 457.722L670.933 398.505L568.444 398.505Z" fill="url(#LinearGradient_10)" fill-rule="nonzero" opacity="1" stroke="none" vectornator:layerName="path"/>
<g opacity="1" vectornator:layerName="g4430">
<path d="M336.405 555.201L751.9 555.201L751.9 555.201L751.9 574.252L751.9 574.252L336.405 574.252L336.405 574.252L336.405 555.201L336.405 555.201Z" fill="url(#LinearGradient_11)" fill-rule="nonzero" opacity="1" stroke="none" vectornator:layerName="rect"/>
<path d="M343.58 560.637L740.459 560.637L740.459 560.637L740.459 568.426L740.459 568.426L343.58 568.426L343.58 568.426L343.58 560.637L343.58 560.637Z" fill="url(#LinearGradient_12)" fill-rule="nonzero" opacity="1" stroke="none" vectornator:layerName="rect"/>
</g>
<path d="M368.511 285.065L368.511 346.546C368.511 357.48 377.316 366.285 388.25 366.285L395.735 366.285C404.747 366.285 412.326 360.306 414.708 352.081C417.092 360.301 424.603 366.285 433.612 366.285L441.097 366.285C450.105 366.285 457.651 360.301 460.035 352.081C462.417 360.306 469.961 366.285 478.973 366.285L486.458 366.285C494.959 366.285 502.155 360.946 504.944 353.439C507.731 360.952 514.924 366.285 523.43 366.285L530.915 366.285C538.978 366.285 545.877 361.486 548.949 354.588C552.019 361.486 558.919 366.285 566.982 366.285L574.467 366.285C581.82 366.285 588.198 362.297 591.595 356.363C594.992 362.295 601.371 366.285 608.723 366.285L616.208 366.285C622.951 366.285 628.873 362.922 632.43 357.79C635.989 362.913 641.882 366.285 648.618 366.285L656.103 366.285C662.047 366.285 667.354 363.662 670.968 359.531C674.581 363.662 679.89 366.285 685.834 366.285L693.318 366.285C704.253 366.285 713.058 357.48 713.058 346.546L713.058 285.065L368.504 285.065L368.511 285.065Z" fill="#cccccf" fill-rule="nonzero" opacity="1" stroke="none" vectornator:layerName="path"/>
<g opacity="1" vectornator:layerName="g4567">
<path d="M700.911 202.754L700.911 334.778C700.911 343.333 709.716 350.222 720.65 350.222L729.214 350.222C740.148 350.222 748.954 343.333 748.954 334.778L748.954 326.225L700.912 202.752L700.911 202.754Z" fill="#d40000" fill-rule="nonzero" opacity="1" stroke="none" vectornator:layerName="path"/>
<g opacity="1" vectornator:layerName="g4557">
<path d="M418.363 200.165L418.363 334.778C418.363 343.333 427.168 350.222 438.103 350.222L446.632 350.222C457.566 350.222 466.371 343.333 466.371 334.778L466.371 200.165L418.364 200.165L418.363 200.165Z" fill="#d40000" fill-rule="nonzero" opacity="1" stroke="none" vectornator:layerName="path"/>
<path d="M371.018 200.165L371.018 334.778C371.018 343.333 379.823 350.222 390.757 350.222L399.321 350.222C410.255 350.222 419.06 343.333 419.06 334.778L419.06 200.165L371.018 200.165L371.018 200.165Z" fill="url(#LinearGradient_13)" fill-rule="nonzero" opacity="1" stroke="none" vectornator:layerName="path"/>
<path d="M465.676 200.165L465.676 334.778C465.676 343.333 474.481 350.222 485.415 350.222L493.979 350.222C504.913 350.222 513.718 343.333 513.718 334.778L513.718 200.165L465.676 200.165L465.676 200.165Z" fill="url(#LinearGradient_14)" fill-rule="nonzero" opacity="1" stroke="none" vectornator:layerName="path"/>
<path d="M512.319 200.165L512.319 334.778C512.319 343.333 521.124 350.222 532.059 350.222L540.588 350.222C551.522 350.222 560.327 343.333 560.327 334.778L560.327 200.165L512.32 200.165L512.319 200.165Z" fill="#d40000" fill-rule="nonzero" opacity="1" stroke="none" vectornator:layerName="path"/>
<path d="M560.334 200.165L560.334 334.778C560.334 343.333 569.139 350.222 580.073 350.222L588.637 350.222C599.571 350.222 608.376 343.333 608.376 334.778L608.376 200.165L560.334 200.165L560.334 200.165Z" fill="url(#LinearGradient_15)" fill-rule="nonzero" opacity="1" stroke="none" vectornator:layerName="path"/>
<path d="M606.665 200.165L606.665 334.778C606.665 343.333 615.47 350.222 626.405 350.222L634.969 350.222C645.903 350.222 654.708 343.333 654.708 334.778L654.708 200.165L606.666 200.165L606.665 200.165Z" fill="#d40000" fill-rule="nonzero" opacity="1" stroke="none" vectornator:layerName="path"/>
<path d="M654.29 200.165L654.29 334.778C654.29 343.333 663.095 350.222 674.029 350.222L682.593 350.222C693.527 350.222 702.298 343.333 702.298 334.778L702.298 200.165L654.29 200.165L654.29 200.165Z" fill="url(#LinearGradient_16)" fill-rule="nonzero" opacity="1" stroke="none" vectornator:layerName="path"/>
<path d="M369.77 200.165L323.016 318.81L323.016 334.771C323.016 343.326 331.821 350.215 342.755 350.215L351.284 350.215C362.218 350.215 371.024 343.326 371.024 334.771L371.024 200.158L369.77 200.158L369.77 200.165Z" fill="#d40000" fill-rule="nonzero" opacity="1" stroke="none" vectornator:layerName="path"/>
</g>
</g>
<path d="M368.444 181.562L703.251 181.562L703.251 181.562L703.251 203.334L703.251 203.334L368.444 203.334L368.444 203.334L368.444 181.562L368.444 181.562Z" fill="url(#LinearGradient_17)" fill-rule="nonzero" opacity="1" stroke="none" vectornator:layerName="rect"/>
<path d="M375.931 186.876L693.626 186.876L693.626 186.876L693.626 197.244L693.626 197.244L375.931 197.244L375.931 197.244L375.931 186.876L375.931 186.876Z" fill="url(#LinearGradient_18)" fill-rule="nonzero" opacity="1" stroke="none" vectornator:layerName="rect"/>
</g>
<path d="M473.807 466.216L480.932 466.216L480.932 466.216L480.932 483.432L480.932 483.432L473.807 483.432L473.807 483.432L473.807 466.216L473.807 466.216Z" fill="#666666" fill-rule="nonzero" opacity="1" stroke="none" vectornator:layerName="rect"/>
</g>
</svg>
