<?xml version="1.0" encoding="UTF-8"?>
<!DOCTYPE svg PUBLIC "-//W3C//DTD SVG 1.1//EN" "http://www.w3.org/Graphics/SVG/1.1/DTD/svg11.dtd">
<svg version="1.1" xmlns="http://www.w3.org/2000/svg" xmlns:xlink="http://www.w3.org/1999/xlink" x="0" y="0" width="947.285" height="387.699" viewBox="0, 0, 947.285, 387.699">
  <g id="Layer_1">
    <path d="M3.376,386.687 C0.971,385.221 -0.506,381.685 0.16,378.987 C0.437,377.868 2.032,371.665 3.705,365.203 C7.257,351.482 10.035,339.131 12.476,326.203 C14.402,316.004 17.785,294.52 17.785,292.489 L17.785,291.198 L12.16,291.5 C6.884,291.783 6.398,291.728 4.337,290.615 C1.48,289.071 0.151,286.717 0.436,283.703 C0.607,281.903 1.716,279.75 5.977,272.953 C16.402,256.321 20.26,247.303 21.498,236.676 C22.427,228.696 22.458,228.664 32.921,224.73 C46.149,219.756 58.462,214.329 71.535,207.71 C110.584,187.939 142.55,164.369 191.356,119.361 L200.177,111.226 L200.489,106.839 C200.66,104.427 201.145,95.478 201.567,86.953 C201.988,78.428 202.966,59.19 203.741,44.203 L205.148,16.953 L204.101,15.464 C203.361,14.411 202.999,12.987 202.864,10.603 C202.699,7.672 202.844,6.939 203.975,5.01 C207.166,-0.436 214.671,-1.656 219.292,2.518 C221.754,4.743 222.785,7.002 222.785,10.173 C222.785,12.638 221.466,16.223 220.292,16.948 C219.711,17.307 219.641,20.85 220.106,26.35 L220.427,30.148 L223.231,30.436 C229.036,31.032 234.622,32.311 237.283,33.654 C240.889,35.475 242.285,37.522 242.285,40.988 C242.285,43.085 242.546,43.936 243.558,45.139 C246.715,48.89 254.516,50.754 262.842,49.744 C265.589,49.411 268.894,48.818 270.186,48.426 C273.415,47.446 274.142,47.514 275.558,48.93 C277.643,51.015 277.233,52.754 273.862,56.126 C270.176,59.812 267.297,61.793 262.068,64.243 C256.79,66.717 250.636,68.195 245.593,68.199 C237.921,68.206 235.305,66.417 234.826,60.837 L234.535,57.453 L231.911,57.301 C229.232,57.147 222.414,57.907 221.905,58.416 C221.75,58.571 222.154,70.785 222.803,85.559 L223.984,112.421 L229.598,118.437 C235.409,124.663 250.798,139.332 259.535,146.973 C296.343,179.164 337.515,203.965 387.035,223.776 C392.535,225.976 397.452,228.153 397.961,228.613 C399.453,229.962 400.126,231.736 400.47,235.225 C401.09,241.527 403.205,247.523 409.546,260.953 C413.136,268.557 416.001,275.712 417.003,279.58 C419.211,288.102 416.313,291.669 407.16,291.692 C403.999,291.7 402.785,291.876 402.785,292.328 C402.786,292.671 403.135,295.99 403.563,299.703 C406.508,325.31 410.426,348.373 415.841,371.986 L417.912,381.02 L416.883,383.348 C416.243,384.793 415.224,386.059 414.194,386.687 C412.536,387.698 412.425,387.699 208.785,387.699 C5.145,387.699 5.034,387.698 3.376,386.687 z" fill="#000000" id="path32936"/>
    <path d="M29.412,360.578 C31.519,349.784 35.723,328.255 38.755,312.735 C41.786,297.216 44.197,284.448 44.112,284.363 C44.027,284.279 42.568,284.754 40.87,285.419 C37.983,286.551 30.772,288.734 27.66,289.419 C26.577,289.657 26.285,290.006 26.285,291.063 C26.285,295.06 20.909,326.308 17.487,342.203 C15.554,351.181 10.218,372.715 8.784,377.328 L7.89,380.203 L16.736,380.203 L25.582,380.203 z" fill="#FFFFFF" id="path32934"/>
    <path d="M62.006,378.578 C62.153,377.684 63.73,365.14 65.51,350.703 C67.29,336.265 69.676,316.917 70.812,307.707 C72.755,291.95 72.825,290.932 72.003,290.457 C67.496,287.853 63.186,284.476 60.19,281.2 L56.595,277.27 L55.315,278.167 C54.611,278.66 52.291,280.016 50.16,281.179 C48.029,282.342 46.285,283.406 46.285,283.545 C46.285,283.782 44.323,293.852 34.031,346.453 C31.717,358.278 29.289,370.709 28.635,374.078 L27.447,380.203 L44.593,380.203 L61.739,380.203 z" fill="#FFFFFF" id="path32932"/>
    <path d="M97.278,379.828 C97.275,379.621 100.005,356.889 103.346,329.312 C106.686,301.734 109.287,279.038 109.125,278.876 C108.963,278.714 107.302,279.971 105.433,281.67 C101.147,285.565 96.163,288.916 92.353,290.464 C87.094,292.601 80.624,293.096 76.191,291.7 C74.633,291.209 74.624,291.232 73.8,298.203 C73.524,300.54 71.158,319.717 68.541,340.819 C65.925,361.92 63.785,379.414 63.785,379.694 C63.785,380.029 69.503,380.203 80.535,380.203 C89.747,380.203 97.282,380.034 97.278,379.828 z" fill="#FFFFFF" id="path32930"/>
    <path d="M112.785,379.548 C112.785,379.188 115.148,376.696 118.036,374.01 C124.485,368.013 135.37,356.023 142.981,346.531 L148.682,339.42 L149.235,316.436 C149.539,303.795 149.787,291.932 149.786,290.073 L149.785,286.694 L147.16,288.156 C136.454,294.118 123.82,292.462 114.303,283.85 C112.619,282.326 111.173,281.163 111.088,281.266 C111.004,281.369 108.252,303.671 104.973,330.828 L99.01,380.203 L105.897,380.203 C111.24,380.203 112.785,380.056 112.785,379.548 z" fill="#FFFFFF" id="path32928"/>
    <path d="M145.951,375.295 C162.079,350.441 177.341,322.419 190.223,294.009 L191.778,290.579 L190.219,290.891 C189.361,291.062 187.507,291.204 186.097,291.205 L183.535,291.207 L181.163,295.868 C175.851,306.31 165.271,323.015 155.795,335.924 C145.575,349.848 136.893,360.082 125.337,371.828 L117.098,380.203 L129.932,380.203 L142.766,380.203 L145.951,375.295 z" fill="#FFFFFF" id="path32926"/>
    <path d="M297.152,371.828 C282.015,356.553 270.107,341.669 256.049,320.453 C249.906,311.183 241.118,296.881 238.958,292.64 C238.074,290.904 237.899,290.815 234.816,290.525 C233.046,290.359 231.554,290.275 231.499,290.338 C231.445,290.401 233.688,295.29 236.484,301.203 C247.996,325.547 262.848,350.153 278.537,370.877 C281.836,375.234 284.759,379.115 285.032,379.501 C285.431,380.063 287.509,380.203 295.491,380.203 L305.452,380.203 z" fill="#FFFFFF" id="path32924"/>
    <path d="M320.267,371.828 C317.99,363.86 314.539,351.668 302.539,309.203 C299.625,298.89 297.131,290.083 296.997,289.632 C296.773,288.882 296.535,288.894 294.24,289.766 C286.191,292.824 275.858,290.622 267.063,283.976 C265.428,282.741 264.012,281.809 263.916,281.905 C263.819,282.002 265.688,294.529 268.068,309.745 L272.397,337.409 L275.276,341.181 C280.252,347.7 299.059,368.707 305.175,374.577 L311.035,380.202 L316.848,380.202 L322.661,380.203 z" fill="#FFFFFF" id="path32922"/>
    <path d="M356.782,379.328 C356.781,378.846 353.856,359.001 350.282,335.227 C346.709,311.453 343.785,291.838 343.785,291.637 C343.785,291.436 343.055,291.482 342.163,291.738 C339.328,292.551 332.15,292.289 328.813,291.25 C324.286,289.841 319.119,286.546 314.533,282.144 L310.465,278.238 L307.75,281.008 C306.257,282.531 303.629,284.708 301.91,285.846 C300.191,286.984 298.785,288.22 298.785,288.593 C298.785,288.966 301.475,298.762 304.763,310.362 C320.799,366.931 323.252,375.623 323.807,377.828 L324.404,380.203 L340.594,380.203 C355.681,380.203 356.785,380.143 356.782,379.328 z" fill="#FFFFFF" id="path32920"/>
    <path d="M404.285,380.013 C404.285,379.908 402.135,370.74 399.508,359.638 C396.881,348.536 392.16,328.54 389.017,315.203 C385.875,301.865 383.194,290.494 383.061,289.933 C382.89,289.212 381.667,288.443 378.892,287.308 C374.456,285.494 370.285,283.071 365.523,279.541 L362.269,277.13 L357.902,281.61 C353.852,285.766 349.478,289.084 346.616,290.172 C345.486,290.601 345.446,290.764 345.842,293.289 C346.526,297.653 358.785,379.782 358.785,380.001 C358.785,380.112 369.022,380.203 381.535,380.203 C394.047,380.203 404.285,380.117 404.285,380.013 z" fill="#FFFFFF" id="path32918"/>
    <path d="M409.717,374.168 C404.33,351.47 399.648,323.051 396.53,294.125 L396.225,291.297 L391.889,290.682 C389.505,290.343 386.93,289.888 386.168,289.669 C384.919,289.311 384.808,289.379 385.036,290.362 C385.317,291.578 391.428,317.478 396.854,340.453 C398.802,348.703 401.618,360.628 403.112,366.953 C404.606,373.278 405.946,378.846 406.09,379.328 C406.292,380.003 406.9,380.203 408.751,380.203 L411.149,380.203 z" fill="#FFFFFF" id="path32916"/>
    <path d="M154.88,330.953 C162.702,320.033 171.896,305.478 177.229,295.575 C179.582,291.206 179.761,290.666 178.945,290.384 C172.095,288.02 167.908,285.596 163.233,281.287 L159.799,278.122 L155.854,281.701 L151.909,285.281 L151.603,293.117 C150.947,309.912 150.676,336.452 151.167,335.953 C151.436,335.678 153.108,333.428 154.88,330.953 z" fill="#FFFFFF" id="path32914"/>
    <path d="M266.508,311.634 C264.681,299.984 262.801,287.919 262.331,284.823 C261.86,281.726 261.213,278.93 260.892,278.61 C260.448,278.166 259.62,278.681 257.422,280.766 C255.834,282.273 253.472,284.232 252.173,285.119 C249.304,287.079 243.86,289.702 242.66,289.702 C242.179,289.702 241.785,289.837 241.785,290.002 C241.785,291.071 254.068,310.966 261.649,322.176 C269.061,333.137 269.491,333.727 269.683,333.213 C269.764,332.995 268.335,323.284 266.508,311.634 z" fill="#FFFFFF" id="path32912"/>
    <path d="M91.285,285.37 C96.639,282.898 104.232,276.083 108.92,269.543 C109.517,268.711 109.738,268.878 111.553,271.531 C114.26,275.488 120.506,281.601 123.896,283.611 C128.651,286.43 133.828,287.336 138.485,286.163 L140.627,285.624 L140.955,274.038 C141.135,267.666 141.283,259.268 141.284,255.376 L141.285,248.299 L136.16,248.002 C113.834,246.711 95.276,245.464 82.599,244.405 C74.385,243.718 67.6,243.223 67.522,243.305 C67.444,243.386 66.335,250.382 65.059,258.852 L62.739,274.251 L64.205,276.102 C67.915,280.784 73.077,284.834 77.285,286.363 C80.934,287.691 87.225,287.244 91.285,285.37 z" fill="#FFFFFF" id="path32910"/>
    <path d="M344.451,285.483 C348.211,283.688 352.462,280.132 355.632,276.13 L358.148,272.953 L355.785,258.063 C354.485,249.873 353.279,243.03 353.104,242.855 C352.929,242.68 347.442,243.024 340.911,243.62 C319.469,245.574 289.385,247.703 283.204,247.703 C281.356,247.703 279.752,247.871 279.639,248.078 C279.487,248.355 282.547,285.17 282.75,285.512 C282.986,285.909 287.549,286.026 289.622,285.688 C295.611,284.714 302.996,279.37 308.522,272.014 C309.89,270.193 311.127,268.713 311.272,268.727 C311.416,268.74 312.435,270.011 313.535,271.552 C318.174,278.048 325.517,284.248 330.921,286.23 C334.796,287.651 340.576,287.332 344.451,285.483 z" fill="#FFFFFF" id="path32908"/>
    <path d="M21.535,285.393 C24.285,284.966 26.688,284.468 26.874,284.285 C27.061,284.102 29.674,274.165 32.681,262.203 C38.686,238.314 38.548,239.813 34.76,239.738 C32.809,239.699 31.785,238.973 31.785,237.627 C31.785,236.179 33.094,235.879 37.339,236.355 C41.324,236.802 41.434,236.783 45.955,234.923 C107.849,209.456 155.584,177.228 189.585,137.953 C192.764,134.28 199.782,125.479 200.542,124.213 C200.786,123.806 197.054,127.068 192.249,131.463 C132.243,186.335 89.969,213.948 34.226,234.683 L29.917,236.286 L29.358,241.119 C28.146,251.608 23.794,261.696 13.017,278.996 C10.689,282.733 8.785,285.959 8.785,286.166 C8.785,286.713 15.744,286.291 21.535,285.393 z" fill="#FFFFFF" id="path32906"/>
    <path d="M190.342,285.706 C194.989,284.848 200.752,281.625 205.335,277.32 C207.599,275.193 210.299,272.382 211.336,271.074 L213.22,268.695 L215.471,271.62 C218.892,276.065 224.966,281.483 228.456,283.201 C231.372,284.637 236.671,285.92 236.936,285.255 C237.002,285.089 236.977,277.021 236.881,267.328 L236.706,249.703 L210.54,249.703 L184.375,249.703 L184.097,253.828 C183.944,256.096 183.694,264.179 183.541,271.789 C183.28,284.746 183.319,285.64 184.149,285.856 C185.705,286.261 187.576,286.216 190.342,285.706 z" fill="#FFFFFF" id="path32904"/>
    <path d="M410.453,283.578 C409.063,278.891 407.722,275.624 402.909,265.203 C397.403,253.282 394.449,244.896 393.981,239.854 L393.649,236.284 L389.342,234.677 C381.349,231.694 360.819,222.74 350.643,217.798 C316.281,201.111 285.767,181.062 257.134,156.359 C247.855,148.353 232.4,133.743 225.247,126.214 C215.314,115.759 216.25,118.743 227.05,131.961 C260.499,172.899 308.794,207.154 369.295,232.854 L377.055,236.15 L382.112,235.601 C387.631,235.001 388.785,235.178 388.785,236.626 C388.785,238.006 387.879,238.544 384.876,238.948 C383.213,239.172 382.292,239.521 382.417,239.879 C382.527,240.195 385.172,250.623 388.293,263.053 L393.969,285.653 L395.502,285.848 C396.345,285.955 400.229,286.079 404.133,286.123 L411.231,286.203 z" fill="#FFFFFF" id="path32902"/>
    <path d="M181.945,267.61 C182.121,257.934 182.149,249.9 182.006,249.757 C181.863,249.614 175.286,249.336 167.391,249.138 C159.495,248.94 150.877,248.641 148.24,248.473 L143.445,248.168 L143.116,259.06 C142.701,272.812 142.692,284.203 143.096,284.203 C143.268,284.203 144.786,283.213 146.471,282.004 C150.231,279.306 154.364,275.291 157.538,271.251 C158.855,269.574 160.093,268.203 160.29,268.203 C160.486,268.203 161.783,269.721 163.172,271.578 C165.97,275.318 168.288,277.643 172.035,280.467 C174.483,282.312 180.002,285.201 181.079,285.202 C181.455,285.203 181.723,279.76 181.945,267.61 z" fill="#FFFFFF" id="path32900"/>
    <path d="M242.356,284.531 C247.172,283.082 253.662,277.9 257.641,272.328 C258.868,270.609 260.089,269.203 260.353,269.203 C260.618,269.203 262.781,271.249 265.161,273.75 C267.542,276.251 270.849,279.266 272.512,280.45 C275.722,282.735 280.107,285.047 280.496,284.658 C280.624,284.53 280.068,276.781 279.259,267.439 C278.451,258.096 277.788,249.92 277.787,249.27 L277.785,248.088 L268.66,248.466 C263.641,248.675 254.81,248.982 249.035,249.149 L238.535,249.453 L238.562,251.078 C238.578,251.971 238.634,260.015 238.687,268.953 C238.766,282.159 238.91,285.203 239.455,285.203 C239.824,285.203 241.129,284.901 242.356,284.531 z" fill="#FFFFFF" id="path32898"/>
    <path d="M391.785,284.834 C391.785,284.31 380.651,239.995 380.458,239.751 C380.267,239.51 355.642,242.179 355.348,242.472 C355.237,242.584 356.077,248.502 357.215,255.623 C358.353,262.744 359.286,268.881 359.287,269.261 C359.289,269.642 359.833,269.278 360.496,268.453 L361.702,266.953 L366.369,271.491 C368.935,273.986 372.121,276.765 373.448,277.666 C376.772,279.921 383.359,282.945 387.545,284.138 C391.602,285.293 391.785,285.323 391.785,284.834 z" fill="#FFFFFF" id="path32896"/>
    <path d="M34.881,282.159 C43.338,279.353 51.587,275.026 56.858,270.632 L59.182,268.695 L60.168,270.252 L61.154,271.809 L61.458,270.131 C61.69,268.848 64.857,247.808 65.432,243.726 C65.515,243.136 63.173,242.749 53.035,241.677 C46.16,240.951 40.388,240.49 40.208,240.654 C39.93,240.908 29.285,282.573 29.285,283.408 C29.285,283.925 30.123,283.738 34.881,282.159 z" fill="#FFFFFF" id="path32894"/>
    <path d="M235.561,245.593 C235.699,245.455 234.229,238.984 232.296,231.212 C224.978,201.792 218.691,169.366 213.341,133.453 C211.62,121.903 211.4,120.941 210.443,120.801 C209.505,120.663 209.352,121.039 208.818,124.801 C204.774,153.277 198.628,187.303 193,212.378 C190.909,221.693 185.534,243.472 184.95,244.993 C184.762,245.484 185.506,245.707 187.866,245.866 C192.142,246.155 235.247,245.908 235.561,245.593 z" fill="#FFFFFF" id="path32892"/>
    <path d="M184.363,240.203 C191.062,215.391 199.311,174.754 204.509,140.953 C205.481,134.628 206.394,128.794 206.536,127.989 C206.948,125.663 206.376,126.694 203.315,133.794 C190.106,164.429 171.556,199.931 151.158,233.618 C147.605,239.484 144.796,244.38 144.914,244.498 C145.277,244.861 166.066,245.565 174.74,245.507 L182.945,245.453 z" fill="#FFFFFF" id="path32890"/>
    <path d="M258.785,245.146 C267.997,244.833 275.616,244.505 275.715,244.418 C275.814,244.331 272.753,239.016 268.913,232.606 C248.307,198.212 230.642,164.194 217.505,133.605 C215.887,129.838 214.482,126.839 214.382,126.939 C213.983,127.338 218.988,158.302 222.587,177.703 C226.469,198.629 232.39,225.246 236.852,241.828 L237.894,245.703 L239.965,245.709 C241.103,245.713 249.572,245.459 258.785,245.146 z" fill="#FFFFFF" id="path32888"/>
    <path d="M146.232,238.227 C160.296,215.531 176.698,185.846 187.824,162.953 C196.123,145.875 206.785,121.953 206.785,120.409 C206.785,118.864 205.885,119.923 203.053,124.8 C199.109,131.591 189.409,146.131 184.271,152.953 C158.734,186.861 127.595,212.621 88.845,231.895 C84.275,234.169 78.791,236.784 76.66,237.706 C74.529,238.629 72.785,239.534 72.785,239.718 C72.785,239.901 74.866,240.196 77.41,240.371 C79.954,240.547 87.772,241.134 94.785,241.676 C105.469,242.502 124.574,243.715 137.035,244.359 C138.685,244.444 140.526,244.556 141.127,244.608 C142.022,244.686 142.943,243.535 146.232,238.227 z" fill="#FFFFFF" id="path32886"/>
    <path d="M294.855,243.433 C306.708,242.714 322.079,241.571 339.409,240.119 C343.465,239.779 346.615,239.353 346.409,239.172 C346.203,238.991 343.447,237.657 340.285,236.208 C322.961,228.269 301.871,215.501 287.132,204.028 C268.816,189.769 251.312,171.825 236.719,152.347 C231.308,145.125 221.201,129.952 218.035,124.298 C216.756,122.014 215.719,120.722 215.16,120.714 C214.679,120.708 214.285,120.884 214.285,121.106 C214.285,121.328 215.826,125.096 217.71,129.481 C232.294,163.419 248.844,195.466 270.437,231.578 L277.986,244.203 L280.08,244.203 C281.232,244.203 287.881,243.856 294.855,243.433 z" fill="#FFFFFF" id="path32884"/>
    <path d="M85.035,231.741 C128.239,210.828 161.424,182.559 189.16,143.042 C193.835,136.381 194.82,134.713 192.462,137.453 C166.595,167.503 134.858,192.329 94.394,214.169 C81.448,221.157 57.412,232.479 48.149,235.952 C46.836,236.444 45.869,236.953 45.999,237.084 C46.129,237.214 51.14,237.807 57.135,238.403 L68.035,239.486 L72.035,237.792 C74.235,236.86 80.085,234.137 85.035,231.741 z" fill="#FFFFFF" id="path32882"/>
    <path d="M370.775,236.831 L373.016,236.446 L363.275,232.23 C338.235,221.391 309.841,205.653 288.898,191.006 C265.924,174.937 241.888,153.266 228.116,136.203 C225.822,133.36 227.559,136.345 231.41,141.861 C242.4,157.605 251.202,168.164 264.013,180.971 C277.365,194.318 288.597,203.577 303.535,213.547 C315.461,221.507 332.012,230.581 345.743,236.687 L350.952,239.003 L359.743,238.109 C364.579,237.617 369.543,237.042 370.775,236.831 z" fill="#FFFFFF" id="path32880"/>
    <path d="M215.318,113.276 L216.462,112.35 L215.07,81.901 C214.305,65.155 213.407,45.213 213.074,37.586 C212.741,29.96 212.35,23.601 212.205,23.456 C212.059,23.311 211.79,26.738 211.606,31.072 C211.422,35.406 210.478,54.365 209.507,73.203 C208.537,92.04 207.809,108.685 207.889,110.19 C208.014,112.535 208.214,113.018 209.285,113.558 C211.117,114.481 213.996,114.347 215.318,113.276 z" fill="#FFFFFF" id="path32878"/>
    <path d="M250.866,63.985 C258.806,62.433 265.012,59.39 269.941,54.633 C271.781,52.857 272.63,51.753 272.035,51.909 C271.485,52.054 269.037,52.516 266.594,52.937 C255.733,54.81 246.687,53.121 241.64,48.279 L239.745,46.461 L239.808,55.114 C239.869,63.488 239.906,63.781 240.953,64.203 C242.611,64.872 246.803,64.78 250.866,63.985 z" fill="#FFFFFF" id="path32876"/>
    <path d="M237.948,47.078 C237.611,37.116 237.541,36.953 232.827,35.137 C230.784,34.35 228.512,33.996 224.355,33.817 L218.675,33.573 L218.964,35.513 C219.122,36.58 219.401,41.109 219.583,45.578 C219.868,52.601 220.023,53.703 220.724,53.705 C221.17,53.707 223.813,53.445 226.597,53.123 C232.199,52.475 235.482,52.987 237.087,54.761 C237.556,55.279 238.007,55.703 238.09,55.703 C238.172,55.703 238.108,51.821 237.948,47.078 z" fill="#FFFFFF" id="path32874"/>
    <path d="M214.943,14.644 C216.827,13.68 217.762,12.078 217.774,9.789 C217.783,8.056 217.494,7.335 216.323,6.164 C214.232,4.073 210.837,4.073 208.746,6.164 C206.379,8.531 206.953,12.905 209.84,14.505 C211.317,15.324 213.497,15.383 214.943,14.644 z" fill="#FFFFFF" id="path32872"/>
    <path d="M532.937,386.725 C529.033,384.344 528.659,381.831 530.961,373.429 C535.602,356.484 539.424,339.714 542.523,322.703 C544.202,313.484 547.285,293.572 547.285,291.948 C547.285,291.308 546.458,291.242 541.66,291.493 C536.429,291.767 535.877,291.706 533.785,290.62 C531.16,289.258 529.787,286.953 529.786,283.909 C529.786,282.249 530.404,280.891 533.09,276.659 C545.689,256.812 549.982,247.151 550.736,236.953 C550.939,234.203 551.35,231.503 551.649,230.953 C552.856,228.734 555.028,227.52 563.667,224.234 C618.426,203.406 659.368,176.025 721.592,118.619 L729.65,111.186 L729.98,105.569 C730.162,102.48 730.752,91.178 731.292,80.453 C731.831,69.728 732.625,53.978 733.054,45.453 C733.484,36.928 734.015,27.028 734.235,23.453 C734.599,17.534 734.552,16.846 733.711,15.762 C732.417,14.093 731.643,10.865 732.036,8.771 C733.553,0.683 742.596,-2.729 748.69,2.487 C752.587,5.824 753.374,11.502 750.533,15.795 C749.3,17.659 749.142,18.335 749.217,21.433 C749.264,23.369 749.435,26.121 749.598,27.548 L749.893,30.144 L752.714,30.446 C761.823,31.419 766.414,32.854 769.435,35.673 C771.221,37.338 771.423,37.792 771.739,40.844 C772.02,43.562 772.35,44.466 773.494,45.66 C777.768,50.121 788.614,51.292 799.434,48.461 C803.26,47.46 803.618,47.49 805.058,48.93 C807.216,51.088 806.747,52.469 802.41,56.723 C794.804,64.183 783.898,68.543 773.911,68.115 C769.157,67.911 766.196,66.862 765.152,65.012 C764.823,64.43 764.437,62.49 764.294,60.703 L764.035,57.453 L759.785,57.481 C757.447,57.497 754.471,57.679 753.171,57.885 L750.806,58.261 L751.054,61.107 C751.19,62.672 751.636,71.715 752.044,81.203 C752.453,90.69 752.935,101.715 753.115,105.703 L753.442,112.953 L764.488,123.964 C789.839,149.235 813.089,168.09 840.035,185.232 C861.894,199.137 892.811,214.591 920.035,225.22 C923.06,226.401 926.179,227.814 926.966,228.359 C928.679,229.546 929.784,231.973 929.788,234.562 C929.798,239.576 932.204,246.405 939.753,262.843 C944.223,272.575 947.285,281.222 947.285,284.114 C947.285,286.891 945.801,289.278 943.267,290.578 C941.483,291.493 940.252,291.703 936.679,291.703 C931.476,291.703 931.876,290.435 933.288,302.453 C936.015,325.675 940.265,350.518 945.075,371.359 C946.016,375.432 946.783,379.707 946.781,380.859 C946.776,383.24 945.589,385.353 943.464,386.754 C942.07,387.673 937.04,387.696 738.285,387.697 C537.208,387.699 534.514,387.686 532.937,386.725 z" fill="#000000" id="path32870"/>
    <path d="M827.447,372.861 C808.029,353.524 787.804,326.394 770.579,296.578 C767.336,290.964 767.112,290.703 765.547,290.703 C764.647,290.703 763.207,290.562 762.348,290.39 L760.786,290.078 L761.844,292.515 C764.099,297.714 772.861,315.471 776.053,321.313 C785.383,338.388 796.16,355.146 807.853,370.759 L814.91,380.182 L824.723,380.317 C830.119,380.392 834.614,380.411 834.71,380.361 C834.807,380.31 831.538,376.935 827.447,372.861 z" fill="#FFFFFF" id="path32868"/>
    <path d="M649.368,372.078 C670.978,350.647 691.964,322.604 706.448,295.802 C708.839,291.379 709.112,290.61 708.383,290.361 C701.944,288.157 697.94,285.874 692.729,281.438 L689.066,278.32 L685.801,281.289 C681.493,285.205 676.837,288.25 672.535,289.963 C669.783,291.059 667.965,291.407 664.035,291.587 C659.588,291.792 658.599,291.67 655.093,290.491 C650.238,288.857 645.302,285.72 641.313,281.731 C639.648,280.065 638.216,278.703 638.132,278.703 C638.047,278.703 636.866,279.742 635.507,281.013 C626.233,289.679 617.167,293.474 608.661,292.249 C601.654,291.24 596.003,287.993 589.944,281.497 L586.092,277.366 L582.317,279.598 C575.992,283.337 564.045,288.014 557.246,289.413 C556,289.67 555.927,289.894 555.084,296.066 C551.633,321.331 545.22,352.304 538.363,376.828 L537.419,380.203 L589.297,380.203 L641.175,380.203 z" fill="#FFFFFF" id="path32866"/>
    <path d="M677.404,372.078 C688.652,354.49 698.41,337.3 707.989,318.203 C714.821,304.582 721.062,291.289 720.743,291.039 C720.628,290.949 718.844,290.971 716.777,291.088 L713.019,291.3 L710.777,295.6 C698.013,320.082 675.746,350.463 655.094,371.574 L646.654,380.203 L659.43,380.203 L672.207,380.203 z" fill="#FFFFFF" id="path32864"/>
    <path d="M940.284,379.578 C940.284,379.234 939.74,376.703 939.077,373.953 C935.722,360.05 931.208,335.499 928.827,318.203 C927.764,310.479 925.786,293.512 925.785,292.114 C925.785,291.463 925.141,291.203 922.91,290.955 C913.581,289.92 903.241,285.796 895.72,280.113 L891.405,276.852 L889.22,279.608 C886.109,283.532 881.203,287.433 876.343,289.849 C872.387,291.815 871.861,291.943 866.992,292.123 C862.802,292.278 861.193,292.119 858.433,291.274 C853.577,289.789 849.249,287.059 844.278,282.348 L839.948,278.244 L837.991,280.271 C824.213,294.551 807.487,294.635 792.392,280.499 L789.75,278.025 L787.392,280.305 C782.715,284.83 776.709,288.608 772.875,289.438 C770.87,289.872 770.821,289.698 774.907,296.703 C782.591,309.877 792.933,325.497 802.017,337.649 C808.276,346.022 829.402,369.886 835.814,375.826 L840.535,380.2 L890.41,380.201 C929.978,380.202 940.285,380.074 940.284,379.578 z" fill="#FFFFFF" id="path32862"/>
    <path d="M618.617,286.216 C620.161,285.673 622.814,284.324 624.513,283.217 C627.567,281.227 634.794,274.196 637.49,270.592 L638.882,268.73 L642.283,273.131 C652.701,286.611 663.595,290.073 674.143,283.255 C677.867,280.848 684.127,274.978 687.13,271.078 C688.347,269.496 689.535,268.203 689.77,268.203 C690.005,268.203 691.202,269.609 692.43,271.328 C697.857,278.92 706.861,285.078 713.806,285.946 C722.46,287.027 732.631,281.283 741.373,270.378 L742.635,268.803 L745.98,272.857 C750.167,277.932 754.104,281.293 758.274,283.353 C761.232,284.814 761.927,284.953 766.274,284.953 C770.556,284.953 771.362,284.798 774.285,283.411 C778.511,281.407 783.495,277.141 786.767,272.726 C788.204,270.788 789.639,269.207 789.957,269.212 C790.275,269.217 791.846,270.789 793.449,272.704 C796.669,276.552 802.849,281.463 807.296,283.708 C818.007,289.115 828.27,284.8 839.294,270.256 L840.553,268.595 L844.325,273.274 C848.828,278.861 853.532,282.937 858.148,285.253 C861.288,286.829 861.881,286.953 866.285,286.953 C870.517,286.953 871.334,286.798 873.785,285.538 C879.632,282.531 885.299,276.88 888.543,270.819 C890.854,266.502 890.743,266.491 895.927,271.54 C901.273,276.748 903.719,278.503 909.405,281.212 C916.62,284.649 921.742,285.764 931.728,286.067 L940.42,286.332 L940.074,284.485 C939.538,281.63 936.784,274.757 932.548,265.703 C926.276,252.299 923.992,245.787 923.342,239.456 L923.035,236.459 L918.285,234.545 C857.671,210.12 816.115,184.24 772.681,143.864 C767.812,139.338 760.333,132.035 756.062,127.635 C751.791,123.236 748.086,119.767 747.829,119.925 C746.365,120.83 742.277,121.081 738.785,120.481 L735.035,119.836 L733.035,121.378 C731.935,122.226 727.322,126.313 722.785,130.459 C675.198,173.941 643.529,197.076 604.785,216.661 C592.094,223.076 580.004,228.444 567.158,233.366 L559.035,236.478 L558.886,239.715 C558.448,249.283 553.339,261.552 542.767,278.426 C540.272,282.41 538.299,285.837 538.382,286.043 C538.58,286.529 545.609,286.287 549.785,285.65 C563.711,283.527 578.07,277.515 587.018,270.06 L588.501,268.824 L591.12,272.651 C599.464,284.848 609.052,289.578 618.617,286.216 z" fill="#FFFFFF" id="path32860"/>
    <path d="M696.711,249.21 C657.68,247.978 620.528,245.529 582.535,241.685 C563.565,239.765 561.788,239.513 561.245,238.655 C560.692,237.781 560.692,237.623 561.25,236.744 C561.755,235.945 563.807,235.933 570.034,236.694 C581.067,238.04 612.135,240.837 631.036,242.184 C721.49,248.633 810.984,246.932 897.536,237.117 C905.236,236.244 912.998,235.512 914.786,235.491 C917.715,235.456 918.05,235.556 918.185,236.496 C918.267,237.07 918.04,237.784 917.682,238.082 C916.93,238.705 902.235,240.509 880.286,242.672 C853.264,245.334 827.463,247.158 798.036,248.487 C778.321,249.377 716.077,249.821 696.712,249.21 z" fill="#000000" id="path32858"/>
    <path d="M745.087,113.159 C745.819,112.552 745.883,111.693 745.603,106.21 C745.428,102.768 744.617,84.99 743.801,66.703 C742.252,31.968 741.664,21.104 741.45,23.203 C741.379,23.89 741.082,29.515 740.788,35.703 C740.275,46.509 739.009,71.482 737.582,98.953 L736.906,111.953 L738.187,113.132 C739.262,114.122 739.853,114.275 741.86,114.082 C743.175,113.956 744.627,113.541 745.087,113.159 z" fill="#FFFFFF" id="path32856"/>
    <path d="M780.417,63.991 C787.974,62.545 796.015,58.421 800.535,53.674 L802.535,51.573 L801.035,51.94 C787.528,55.244 775.322,53.586 770.412,47.78 L769.29,46.453 L769.29,55.094 C769.29,63.589 769.306,63.742 770.412,64.187 C772.108,64.868 776.258,64.787 780.42,63.991 z" fill="#FFFFFF" id="path32854"/>
    <path d="M767.387,46.711 L767.239,38.219 L765.637,37.036 C762.651,34.832 759.859,34.069 753.845,33.814 L748.155,33.572 L748.463,37.262 C748.632,39.292 748.918,43.85 749.099,47.39 L749.427,53.828 L752.231,53.514 C761.063,52.526 762.423,52.562 764.785,53.846 C766.022,54.518 767.147,55.099 767.285,55.136 C767.422,55.173 767.468,51.382 767.387,46.711 z" fill="#FFFFFF" id="path32852"/>
    <path d="M745.585,13.503 C746.799,12.289 747.285,11.352 747.285,10.228 C747.285,8.298 746.106,5.91 744.812,5.217 C743.358,4.439 740.153,4.6 738.843,5.518 C735.857,7.61 735.91,12.379 738.94,14.227 C741.424,15.741 743.582,15.506 745.585,13.503 z" fill="#FFFFFF" id="path32839"/>
  </g>
</svg>
