<svg enable-background="new 0 0 256 256" height="512" viewBox="0 0 256 256" width="512" xmlns="http://www.w3.org/2000/svg"><g id="Layer_60"><g><g><g><path d="m136.371 219.036h-14.777c-4.55 0-8.272 3.723-8.272 8.272v17.92c0 4.55 3.722 8.272 8.272 8.272h14.777c4.55 0 8.272-3.723 8.272-8.272v-17.92c0-4.55-3.723-8.272-8.272-8.272z" fill="#9be5f9"/></g></g><g><g><path d="m205.763 219.036h-14.777c-4.55 0-8.272 3.723-8.272 8.272v17.92c0 4.55 3.722 8.272 8.272 8.272h14.777c4.55 0 8.272-3.723 8.272-8.272v-17.92c.001-4.55-3.722-8.272-8.272-8.272z" fill="#9be5f9"/></g></g><g><g><path d="m144.643 229.071h38.071v14.393h-38.071z" fill="#70d6f9"/></g></g><g><g><path d="m113.321 245.228v-17.92c0-4.55 3.722-8.272 8.272-8.272h14.777c4.55 0 8.272 3.723 8.272 8.272v1.764h12.853c.408-1.653.852-3.298 1.36-4.926l3.883-12.439v17.365h19.976v-1.764c0-4.204 3.18-7.694 7.252-8.202l-1.353-37.177c-.347-6.223-4.699-11.497-10.743-13.019l-24.833-6.269c-2.075-.522-4.089-1.263-6.009-2.209l-8.587-4.234c-3.298-1.626-5.386-4.984-5.386-8.66v-10.533c-4.92 2.682-10.551 4.208-16.52 4.208-5.97 0-11.6-1.526-16.52-4.208v10.533c0 3.677-2.088 7.034-5.386 8.66l-8.587 4.234c-1.919.946-3.933 1.687-6.009 2.209l-24.833 6.269c-6.044 1.521-10.396 6.796-10.743 13.019l-2.491 68.465c-.062 1.697 1.297 3.107 2.996 3.107h22.373c1.656 0 2.998-1.342 2.998-2.998v-38.795l3.883 12.439c2.539 8.133 3.83 16.604 3.83 25.124v1.233c0 1.656 1.342 2.998 2.998 2.998h40.55c-4.55-.002-8.273-3.725-8.273-8.274z" fill="#f9d0b4"/></g></g><g><g><path d="m182.714 245.228v-1.763h-19.976v7.038c0 1.656 1.342 2.998 2.998 2.998h22.373c.378 0 .736-.079 1.068-.207-3.686-.833-6.463-4.138-6.463-8.066z" fill="#f9d0b4"/></g></g><g><g><g><path d="m113.321 245.228v-17.92c0-4.55 3.722-8.272 8.272-8.272h14.777c4.55 0 8.272 3.723 8.272 8.272v1.764h12.853c.408-1.653.852-3.298 1.36-4.926l3.883-12.439s-1.588-27.511-5.735-48.064l-3.967-1.001c-2.075-.522-4.089-1.263-6.009-2.209l-2.735-1.348c-1.04 11.306-5.254 29.924-21.144 40.722-3.972 2.699-9.256 2.699-13.228 0-15.89-10.798-20.104-29.417-21.144-40.722l-2.735 1.348c-1.919.946-3.933 1.687-6.009 2.209l-3.967 1.001c-4.147 20.553-5.735 48.064-5.735 48.064l3.883 12.439c2.539 8.133 3.83 16.604 3.83 25.124v1.233c0 1.656 1.342 2.998 2.998 2.998h40.55c-4.547-.001-8.27-3.724-8.27-8.273z" fill="#f98fa6"/></g></g></g><g><g><path d="m153.496 80.011c-.759 0-1.502.064-2.229.177v26.293c0 .783-.036 1.558-.088 2.329.756.122 1.526.202 2.316.202 8.009 0 14.501-6.492 14.501-14.501.001-8.007-6.491-14.5-14.5-14.5z" fill="#f9d0b4"/></g></g><g><g><path d="m133.148 68.668c-5.29 6.174-24.047 24.906-51.344 17.13v20.684c0 19.102 15.629 34.732 34.732 34.732 19.102 0 34.732-15.629 34.732-34.732v-28.06c0-1.276-.893-2.358-2.136-2.646-3.515-.814-7.782-2.85-12.673-7.294-.969-.879-2.46-.807-3.311.186z" fill="#f9d0b4"/></g></g><g><g><path d="m81.804 85.798c-2.385-.679-4.834-1.559-7.346-2.668-1.619-.715-3.511-.386-4.803.825-2.817 2.641-4.581 6.39-4.581 10.557 0 8.008 6.492 14.501 14.501 14.501.79 0 1.56-.08 2.316-.202-.052-.771-.088-1.546-.088-2.329v-20.684z" fill="#f9d0b4"/></g></g><g><g><g><path d="m69.655 83.955c1.291-1.211 3.183-1.54 4.803-.825 2.512 1.109 4.961 1.988 7.346 2.668 27.297 7.776 46.055-10.956 51.344-17.13.85-.992 2.342-1.065 3.309-.186 4.892 4.445 9.159 6.48 12.673 7.294 1.243.288 2.136 1.37 2.136 2.646v1.766c.727-.113 1.47-.177 2.229-.177 4.012 0 7.643 1.63 10.268 4.263v-8.494c0-25.976-21.253-47.229-47.229-47.229s-47.229 21.253-47.229 47.229v8.535c.12-.118.228-.246.35-.36z" fill="#fcdd86"/></g></g></g><g><g><path d="m116.536 28.552c4.434 0 8.726.633 12.802 1.789-1.041-6.137-6.369-10.815-12.802-10.815s-11.761 4.678-12.802 10.815c4.076-1.156 8.367-1.789 12.802-1.789z" fill="#fc657e"/></g></g><g><g><g><path d="m184.069 95.922c-25.649-19.074-2.609-85.37-49.054-90.211-19.744-2.058-26.165 11.495-28.112 18.116 2.375-2.635 5.804-4.301 9.633-4.301 6.434 0 11.761 4.678 12.802 10.815h-.001c19.805 5.618 34.427 23.898 34.427 45.44v8.494c2.615 2.623 4.232 6.241 4.232 10.238 0 2.072-.442 4.039-1.225 5.822 6.611.596 12.264.126 16.171-.466 2.029-.308 2.738-2.749 1.127-3.947z" fill="#fcdd86"/></g></g></g><g><g><path d="m113.321 245.228v-12.728h-36.973c1.119 5.513 1.697 11.129 1.697 16.77v1.233c0 1.656 1.342 2.998 2.998 2.998h40.55c-4.549-.001-8.272-3.724-8.272-8.273z" fill="#fc657e"/></g></g><g><g><path d="m144.643 243.464v1.763c0 4.55-3.722 8.272-8.272 8.272h15.657c1.656 0 2.998-1.342 2.998-2.998v-1.233c0-1.94.093-3.874.229-5.805h-10.612z" fill="#fc657e"/></g></g><g><g><path d="m116.535 125.783c-4.776 0-9.262-1.949-11.998-5.215-.887-1.058-.748-2.635.311-3.521 1.056-.888 2.635-.75 3.521.311 1.798 2.145 4.851 3.426 8.166 3.426s6.369-1.281 8.167-3.426c.887-1.06 2.466-1.196 3.521-.311 1.059.887 1.197 2.464.311 3.521-2.736 3.266-7.222 5.215-11.999 5.215z"/></g></g><g><g><circle cx="131.646" cy="98.526" r="4.5"/></g></g><g><g><circle cx="101.425" cy="98.526" r="4.5"/></g></g><g><g><path d="m97.035 212h-8c-1.381 0-2.5-1.119-2.5-2.5s1.119-2.5 2.5-2.5h8c1.381 0 2.5 1.119 2.5 2.5s-1.119 2.5-2.5 2.5z"/></g></g><g><g><path d="m136.37 256h-14.776c-5.94 0-10.772-4.832-10.772-10.772v-17.92c0-5.939 4.832-10.771 10.772-10.771h14.776c5.94 0 10.772 4.832 10.772 10.771v17.92c.001 5.94-4.831 10.772-10.772 10.772zm-14.776-34.464c-3.183 0-5.772 2.589-5.772 5.771v17.92c0 3.183 2.59 5.772 5.772 5.772h14.776c3.183 0 5.772-2.59 5.772-5.772v-17.92c0-3.183-2.59-5.771-5.772-5.771z"/></g></g><g><g><path d="m205.764 256h-14.777c-5.94 0-10.772-4.832-10.772-10.772v-17.92c0-5.939 4.832-10.771 10.772-10.771h14.777c5.939 0 10.771 4.832 10.771 10.771v17.92c0 5.94-4.832 10.772-10.771 10.772zm-14.778-34.464c-3.183 0-5.772 2.589-5.772 5.771v17.92c0 3.183 2.59 5.772 5.772 5.772h14.777c3.183 0 5.771-2.59 5.771-5.772v-17.92c0-3.183-2.589-5.771-5.771-5.771z"/></g></g><g><g><path d="m181.688 231.571h-35.876c-1.381 0-2.5-1.119-2.5-2.5s1.119-2.5 2.5-2.5h35.876c1.381 0 2.5 1.119 2.5 2.5s-1.119 2.5-2.5 2.5z"/></g></g><g><g><path d="m181.688 245.964h-35.876c-1.381 0-2.5-1.119-2.5-2.5s1.119-2.5 2.5-2.5h35.876c1.381 0 2.5 1.119 2.5 2.5s-1.119 2.5-2.5 2.5z"/></g></g><g><g><path d="m197.97 254.935c-1.381 0-2.5-1.119-2.5-2.5v-32.333c0-1.381 1.119-2.5 2.5-2.5s2.5 1.119 2.5 2.5v32.333c0 1.38-1.119 2.5-2.5 2.5z"/></g></g><g><g><path d="m128.97 254.935c-1.381 0-2.5-1.119-2.5-2.5v-32.333c0-1.381 1.119-2.5 2.5-2.5s2.5 1.119 2.5 2.5v32.333c0 1.38-1.119 2.5-2.5 2.5z"/></g></g><g><g><path d="m185.178 139.331c4.498-.838 8.043-4.31 8.898-8.716.043-.221.352-.221.395 0 .855 4.406 4.4 7.879 8.898 8.716.226.042.226.345 0 .387-4.498.838-8.043 4.31-8.898 8.717-.043.221-.352.221-.395 0-.855-4.406-4.4-7.879-8.898-8.717-.225-.043-.225-.345 0-.387z" fill="#f5c84c"/></g></g><g><g><path d="m47.485 112.101c2.862-.533 5.118-2.743 5.663-5.547.027-.141.224-.141.251 0 .544 2.804 2.8 5.014 5.663 5.547.144.027.144.219 0 .246-2.862.533-5.118 2.743-5.663 5.547-.027.141-.224.141-.251 0-.544-2.804-2.8-5.014-5.663-5.547-.143-.027-.143-.219 0-.246z" fill="#fc657e"/></g></g><g><g><path d="m64.754 25.75h-2.33v-2.33c0-1.744-1.413-3.157-3.157-3.157s-3.157 1.413-3.157 3.157v2.33h-2.33c-1.744 0-3.157 1.413-3.157 3.157s1.413 3.157 3.157 3.157h2.329v2.33c0 1.744 1.413 3.157 3.157 3.157s3.157-1.413 3.157-3.157v-2.33h2.33c1.744 0 3.157-1.413 3.157-3.157s-1.412-3.157-3.156-3.157z" fill="#70d6f9"/></g></g><g><g><circle cx="206.245" cy="168.825" fill="#87d147" r="3.377"/></g></g><g><g><circle cx="72.245" cy="3.377" fill="#f5c84c" r="3.377"/></g></g><g><g><path d="m189.936 220.813c-1.339 0-2.447-1.061-2.496-2.409l-1.324-36.385c-.285-5.11-3.845-9.424-8.855-10.685l-24.835-6.27c-2.244-.564-4.433-1.37-6.503-2.392l-8.586-4.233c-4.183-2.062-6.78-6.239-6.78-10.902v-9.537c0-1.381 1.119-2.5 2.5-2.5s2.5 1.119 2.5 2.5v9.538c0 2.745 1.529 5.204 3.991 6.418l8.587 4.233c1.756.866 3.61 1.549 5.514 2.027l24.835 6.27c7.142 1.798 12.217 7.948 12.627 15.304l1.326 36.433c.051 1.38-1.027 2.539-2.407 2.589-.033.001-.063.001-.094.001z"/></g></g><g><g><path d="m162.738 230.792c-1.341 0-2.435-1.055-2.497-2.38-.04.152-.08.307-.119.463-.343 1.339-1.708 2.144-3.04 1.806-1.338-.342-2.146-1.702-1.806-3.04.395-1.546.784-2.933 1.192-4.24l3.883-12.438c.369-1.179 1.546-1.913 2.764-1.727 1.221.187 2.123 1.236 2.123 2.472v16.585c0 1.38-1.119 2.499-2.5 2.499z"/></g></g><g><g><path d="m67.335 256h-22.373c-1.507 0-2.913-.598-3.958-1.683-1.046-1.084-1.591-2.511-1.535-4.016l2.491-68.464c.412-7.403 5.487-13.554 12.631-15.353l24.831-6.268c1.905-.479 3.76-1.162 5.515-2.028l8.588-4.233c2.462-1.214 3.991-3.673 3.991-6.418v-9.475c0-1.381 1.119-2.5 2.5-2.5s2.5 1.119 2.5 2.5v9.475c0 4.663-2.598 8.841-6.78 10.902l-8.587 4.233c-2.069 1.021-4.258 1.827-6.504 2.393l-24.831 6.268c-5.013 1.262-8.572 5.575-8.859 10.733l-2.489 68.417c-.006.175.072.294.139.363s.184.152.358.152h22.373c.274 0 .498-.224.498-.498v-38.795c0-1.381 1.119-2.5 2.5-2.5s2.5 1.119 2.5 2.5v38.795c-.001 3.033-2.468 5.5-5.499 5.5z"/></g></g><g><g><path d="m188.109 256h-22.373c-3.031 0-5.498-2.467-5.498-5.498v-7.037c0-1.381 1.119-2.5 2.5-2.5h19.976c1.381 0 2.5 1.119 2.5 2.5v1.763c0 2.67 1.898 5.036 4.515 5.627 1.074.242 1.863 1.159 1.942 2.258.08 1.099-.568 2.119-1.597 2.515-.644.246-1.305.372-1.965.372zm-22.871-10.035v4.537c0 .274.224.498.498.498h16.184c-.955-1.489-1.553-3.214-1.681-5.035z"/></g></g><g><g><g><path d="m116.536 204.318c-2.812 0-5.621-.815-8.02-2.445-8.71-5.919-19.618-17.912-22.117-41.437-.146-1.373.85-2.604 2.223-2.75 1.362-.134 2.604.85 2.75 2.223 2.296 21.618 12.119 32.504 19.955 37.829 3.114 2.116 7.301 2.117 10.417 0 7.889-5.36 17.759-16.326 19.986-38.129.141-1.373 1.375-2.372 2.741-2.233 1.374.141 2.373 1.368 2.233 2.741-1.095 10.718-5.429 30.394-22.15 41.756-2.398 1.63-5.208 2.445-8.018 2.445z"/></g></g><g><g><path d="m162.736 214.207c-1.315 0-2.417-1.026-2.494-2.355-.016-.268-1.589-26.959-5.551-47.021-.268-1.354.613-2.67 1.968-2.937 1.348-.272 2.67.612 2.937 1.968 4.03 20.404 5.623 47.431 5.639 47.702.079 1.378-.974 2.56-2.352 2.64-.05.002-.099.003-.147.003z"/></g></g><g><g><path d="m121.594 256h-40.551c-3.031 0-5.497-2.467-5.497-5.498v-1.232c0-8.274-1.25-16.476-3.717-24.378l-3.883-12.439c-.09-.287-.127-.589-.109-.889.016-.27 1.597-27.095 5.592-47.468.266-1.355 1.579-2.237 2.935-1.972 1.354.266 2.237 1.579 1.972 2.935-3.646 18.596-5.254 42.757-5.479 46.342l3.746 12.001c2.616 8.386 3.943 17.089 3.943 25.868v1.232c0 .274.223.498.497.498h40.551c1.381 0 2.5 1.119 2.5 2.5s-1.119 2.5-2.5 2.5z"/></g></g></g><g><g><path d="m153.496 111.513c-.486 0-.978-.024-1.501-.075-1.374-.133-2.381-1.354-2.248-2.729s1.334-2.381 2.729-2.248c.336.032.676.052 1.021.052 6.617 0 12.001-5.384 12.001-12.001s-5.384-12-12.001-12c-.366 0-.728.018-1.084.052-1.379.13-2.597-.874-2.729-2.248-.133-1.375.874-2.596 2.248-2.729.517-.05 1.043-.075 1.564-.075 9.374 0 17.001 7.626 17.001 17s-7.627 17.001-17.001 17.001z"/></g></g><g><g><path d="m116.535 143.713c-20.529 0-37.231-16.702-37.231-37.231v-20.684c0-.784.368-1.522.994-1.995s1.44-.625 2.19-.409c25.921 7.384 43.876-10.649 48.762-16.353v.001c.849-.991 2.032-1.582 3.333-1.663 1.284-.077 2.591.374 3.556 1.252 3.952 3.592 7.84 5.849 11.557 6.71 2.397.556 4.072 2.646 4.072 5.081v28.06c0 20.529-16.703 37.231-37.233 37.231zm-32.231-54.708v17.477c0 17.772 14.459 32.231 32.231 32.231 17.773 0 32.232-14.459 32.232-32.231v-28.06c0-.113-.101-.187-.201-.21-4.515-1.046-9.108-3.656-13.656-7.759-5.356 6.198-23.794 24.435-50.606 18.552zm48.844-20.337h.01z"/></g></g><g><g><path d="m79.575 111.513c-9.374 0-17.001-7.627-17.001-17.001 0-4.667 1.958-9.18 5.371-12.381 2.03-1.902 4.983-2.408 7.522-1.288 2.328 1.028 4.69 1.887 7.021 2.551 1.327.379 2.097 1.762 1.719 3.09-.379 1.327-1.758 2.098-3.09 1.719-2.552-.728-5.133-1.665-7.67-2.785-.702-.31-1.518-.167-2.083.361-2.444 2.293-3.791 5.395-3.791 8.733 0 6.617 5.384 12.001 12.001 12.001.358 0 .722-.021 1.112-.062 1.373-.131 2.604.85 2.749 2.224.146 1.373-.851 2.604-2.224 2.749-.556.058-1.107.089-1.636.089z"/></g></g><g><g><g><path d="m163.765 86.167c-1.381 0-2.5-1.119-2.5-2.5v-7.886c0-24.663-20.065-44.729-44.729-44.729-24.663 0-44.729 20.065-44.729 44.729v7.823c0 1.381-1.119 2.5-2.5 2.5s-2.5-1.119-2.5-2.5v-7.823c0-27.42 22.309-49.729 49.729-49.729 27.421 0 49.729 22.309 49.729 49.729v7.886c0 1.381-1.119 2.5-2.5 2.5z"/></g></g></g><g><g><path d="m129.281 32.544c-1.173 0-2.22-.83-2.451-2.024-.953-4.921-5.283-8.493-10.295-8.493-4.965 0-9.286 3.532-10.274 8.399-.275 1.353-1.593 2.229-2.948 1.952-1.353-.275-2.227-1.595-1.952-2.948 1.46-7.187 7.842-12.403 15.175-12.403 7.402 0 13.796 5.274 15.203 12.542.263 1.355-.623 2.667-1.979 2.93-.161.03-.321.045-.479.045z"/></g></g><g><g><g><path d="m172.893 103.108c-1.77 0-3.655-.065-5.629-.224-1.376-.11-2.403-1.315-2.293-2.691.11-1.377 1.333-2.396 2.691-2.293 5.918.476 10.972.055 14.332-.42-10.971-8.669-13.332-25.375-15.617-41.539-3.278-23.2-6.375-45.112-31.621-47.744-17.342-1.8-23.365 9.364-25.41 16.187-.396 1.322-1.787 2.078-3.112 1.677-1.322-.396-2.073-1.79-1.677-3.112 2.004-6.684 9.023-21.992 30.717-19.724 29.132 3.036 32.81 29.058 36.055 52.017 2.281 16.143 4.437 31.39 14.233 38.675 1.542 1.146 2.215 3.003 1.755 4.844-.469 1.879-2.039 3.284-4.001 3.58-2.547.385-6.149.767-10.423.767z"/></g></g></g><g><g><path d="m112.583 235h-35.489c-1.381 0-2.5-1.119-2.5-2.5s1.119-2.5 2.5-2.5h35.489c1.381 0 2.5 1.119 2.5 2.5s-1.119 2.5-2.5 2.5z"/></g></g><g><g><path d="m152.028 256h-15.658c-1.381 0-2.5-1.119-2.5-2.5s1.119-2.5 2.5-2.5h15.658c.274 0 .497-.224.497-.498v-1.232c0-1.486.053-3.069.16-4.842.083-1.379 1.244-2.454 2.646-2.344 1.378.083 2.428 1.269 2.344 2.646-.102 1.671-.15 3.155-.15 4.539v1.232c0 3.032-2.465 5.499-5.497 5.499z"/></g></g></g></g></svg>