<?xml version="1.0" encoding="UTF-8" standalone="no"?>
<!DOCTYPE svg PUBLIC "-//W3C//DTD SVG 1.1//EN" "http://www.w3.org/Graphics/SVG/1.1/DTD/svg11.dtd">
<!-- Created with Vectornator (http://vectornator.io/) -->
<svg height="100%" stroke-miterlimit="10" style="fill-rule:nonzero;clip-rule:evenodd;stroke-linecap:round;stroke-linejoin:round;" version="1.1" viewBox="0 0 512 512" width="100%" xml:space="preserve" xmlns="http://www.w3.org/2000/svg" xmlns:vectornator="http://vectornator.io" xmlns:xlink="http://www.w3.org/1999/xlink">
<defs/>
<g id="Untitled" vectornator:layerName="Untitled">
<g opacity="1" vectornator:layerName="g">
<path d="M240 247.424L272 247.424L272 247.424L272 449.296L272 449.296L240 449.296L240 449.296L240 247.424L240 247.424Z" fill="#2c3e50" fill-rule="nonzero" opacity="1" stroke="none" vectornator:layerName="rect"/>
<path d="M191.92 432.048L319.92 432.048L319.92 432.048L319.92 464.048L319.92 464.048L191.92 464.048L191.92 464.048L191.92 432.048L191.92 432.048Z" fill="#2c3e50" fill-rule="nonzero" opacity="1" stroke="none" vectornator:layerName="rect"/>
</g>
<path d="M482.16 258.432L29.84 258.432C13.424 258.432 0 244.992 0 228.576L0 77.808C0 61.392 13.424 47.952 29.84 47.952L482.144 47.952C498.576 47.952 512 61.392 512 77.808L512 228.592C512 244.992 498.576 258.432 482.16 258.432Z" fill="#ff9ca2" fill-rule="nonzero" opacity="1" stroke="none" vectornator:layerName="path"/>
<g opacity="1" vectornator:layerName="g">
<path d="M59.472 116.8L99.12 116.8L99.12 128.816L74.192 128.816L74.192 143.632L97.472 143.632L97.472 155.568L74.192 155.568L74.192 181.632L59.472 181.632C59.472 181.632 59.472 116.8 59.472 116.8Z" fill="#ffffff" fill-rule="nonzero" opacity="1" stroke="none" vectornator:layerName="path"/>
<path d="M167.168 148.544C167.168 169.808 154.272 182.704 135.328 182.704C116.096 182.704 104.832 168.176 104.832 149.712C104.832 130.288 117.248 115.76 136.4 115.76C156.304 115.744 167.168 130.64 167.168 148.544ZM120.336 149.408C120.336 162.096 126.288 171.056 136.096 171.056C146 171.056 151.696 161.616 151.696 149.024C151.696 137.376 146.096 127.376 136.016 127.376C126.096 127.376 120.336 136.8 120.336 149.408Z" fill="#ffffff" fill-rule="nonzero" opacity="1" stroke="none" vectornator:layerName="path"/>
<path d="M174.448 117.664C179.168 116.896 186.176 116.32 193.984 116.32C203.616 116.32 210.336 117.76 214.96 121.408C218.8 124.48 220.928 129.024 220.928 134.976C220.928 143.264 215.056 148.928 209.472 150.944L209.472 151.248C214 153.072 216.496 157.408 218.128 163.36C220.16 170.672 222.176 179.136 223.424 181.648L208.416 181.648C207.376 179.824 205.824 174.528 203.904 166.544C202.176 158.464 199.392 156.256 193.424 156.176L189.008 156.176L189.008 181.664L174.48 181.664L174.48 117.664C174.48 117.664 174.448 117.664 174.448 117.664ZM188.992 145.552L194.752 145.552C202.064 145.552 206.4 141.888 206.4 136.224C206.4 130.272 202.368 127.28 195.632 127.2C192.064 127.2 190.048 127.488 188.992 127.664L188.992 145.552L188.992 145.552Z" fill="#ffffff" fill-rule="nonzero" opacity="1" stroke="none" vectornator:layerName="path"/>
<path d="M246.192 117.664C250.912 116.896 257.92 116.32 265.728 116.32C275.36 116.32 282.08 117.76 286.704 121.408C290.544 124.48 292.672 129.024 292.672 134.976C292.672 143.264 286.8 148.928 281.216 150.944L281.216 151.248C285.744 153.072 288.24 157.408 289.872 163.36C291.904 170.672 293.92 179.136 295.168 181.648L280.16 181.648C279.12 179.824 277.568 174.528 275.648 166.544C273.92 158.464 271.136 156.256 265.168 156.176L260.752 156.176L260.752 181.664L246.224 181.664L246.224 117.664C246.224 117.664 246.192 117.664 246.192 117.664ZM260.72 145.552L266.48 145.552C273.792 145.552 278.128 141.888 278.128 136.224C278.128 130.272 274.096 127.28 267.36 127.2C263.792 127.2 261.776 127.488 260.72 127.664L260.72 145.552Z" fill="#ffffff" fill-rule="nonzero" opacity="1" stroke="none" vectornator:layerName="path"/>
<path d="M339.456 154.208L315.6 154.208L315.6 169.6L342.256 169.6L342.256 181.632L300.88 181.632L300.88 116.8L340.896 116.8L340.896 128.816L315.6 128.816L315.6 142.288L339.456 142.288L339.456 154.208Z" fill="#ffffff" fill-rule="nonzero" opacity="1" stroke="none" vectornator:layerName="path"/>
<path d="M349.888 181.632L349.888 116.8L367.008 116.8L380.48 140.544C384.32 147.376 388.176 155.456 391.056 162.768L391.36 162.768C390.384 154.208 390.112 145.456 390.112 135.744L390.112 116.8L403.568 116.8L403.568 181.632L388.192 181.632L374.336 156.624C370.496 149.696 366.256 141.344 363.088 133.728L362.784 133.824C363.168 142.384 363.36 151.52 363.36 162.112L363.36 181.648L349.888 181.648C349.888 181.648 349.888 181.632 349.888 181.632Z" fill="#ffffff" fill-rule="nonzero" opacity="1" stroke="none" vectornator:layerName="path"/>
<path d="M426.432 129.12L409.008 129.12L409.008 116.8L458.832 116.8L458.832 129.12L441.152 129.12L441.152 181.632L426.432 181.632L426.432 129.12Z" fill="#ffffff" fill-rule="nonzero" opacity="1" stroke="none" vectornator:layerName="path"/>
</g>
</g>
</svg>
