<svg height="512" viewBox="0 0 512 512" width="512" xmlns="http://www.w3.org/2000/svg"><g id="filled_outline" data-name="filled outline"><path d="m480 272h-16a8 8 0 0 1 0-16h16a8 8 0 0 1 0 16z" fill="#b9b9b9"/><path d="m284.368 376.685 3.632-32.685h-256l3.632 32.685a124.823 124.823 0 0 0 40.81 79.315h167.129a124.83 124.83 0 0 0 40.797-79.315z" fill="#eaeae8"/><path d="m320 360h160v96h-160z" fill="#715329"/><path d="m352 392h96v64h-96z" fill="#5f4623"/><path d="m184 344h64v64h-64z" fill="#92d1f7"/><path d="m184 368h64v16h-64z" fill="#f7ba61"/><path d="m24 40h32v384h-32z" fill="#faa6b2"/><path d="m56 40h32v376h-32z" fill="#d88f9a"/><path d="m88 40h32v384h-32z" fill="#faa6b2"/><path d="m176 40v24h-56v32h58a30 30 0 0 0 30-30v-26z" fill="#cbcbcb"/><path d="m24 456h464v32h-464z" fill="#5ebef7"/><g fill="#92d1f7"><path d="m24 456h464v12h-464z"/><rect height="192" rx="72" width="144" x="328" y="64"/><path d="m468.57 113.99-139.75 80.9a72.415 72.415 0 0 1 -.82-10.89v-20.63l127.17-73.63a71.785 71.785 0 0 1 13.4 24.25z"/><path d="m472 142.76v18.48l-124.46 72.06a71.361 71.361 0 0 1 -9.67-12.9z"/></g><path d="m468.57 113.99-139.75 80.9a72.415 72.415 0 0 1 -.82-10.89v-20.63l127.17-73.63a71.785 71.785 0 0 1 13.4 24.25z" fill="#5ebef7"/><path d="m472 142.76v18.48l-124.46 72.06a71.361 71.361 0 0 1 -9.67-12.9z" fill="#5ebef7"/><path d="m120 208h136v32h-136z" fill="#715329"/><path d="m120 228.136h136v11.864h-136z" fill="#5f4623"/><path d="m152 144h32v64h-32z" fill="#fbb540"/><path d="m208 160a24 24 0 0 1 24 24v24a0 0 0 0 1 0 0h-48a0 0 0 0 1 0 0v-24a24 24 0 0 1 24-24z" fill="#ea9d2d"/><path d="m464 304a8 8 0 0 1 -8-8v-40a8 8 0 0 0 -16 0v8a8 8 0 0 1 -16 0v-8a24 24 0 0 1 48 0v40a8 8 0 0 1 -8 8z" fill="#cbcbcb"/><path d="m352 360a71.82 71.82 0 0 1 -24-53.666v-10.334h144v10.334a71.82 71.82 0 0 1 -24 53.666z" fill="#eaeae8"/><path d="m488 448v-88a8 8 0 0 0 -8-8h-14.328a80.1 80.1 0 0 0 14.328-45.666v-10.334a8 8 0 0 0 -8-8v-16h8a8 8 0 0 0 0-16h-8a24 24 0 0 0 -11.092-20.217 79.631 79.631 0 0 0 19.092-51.783v-48a79.63 79.63 0 0 0 -18.286-50.851 7.942 7.942 0 0 0 -1.091-1.261 79.948 79.948 0 0 0 -140.623 52.112v48a80.22 80.22 0 0 0 .867 11.722c.012.118.027.236.045.353a79.564 79.564 0 0 0 14.5 35.061 7.9 7.9 0 0 0 .973 1.305 79.922 79.922 0 0 0 87.615 27.876v3.683a8 8 0 0 0 16 0v-8a7.953 7.953 0 0 1 .639-3.131 80.112 80.112 0 0 0 7.3-4.866h.059a8.009 8.009 0 0 1 8 8v32h-127.998a8 8 0 0 0 -8 8v10.334a80.1 80.1 0 0 0 14.328 45.663h-14.328a8 8 0 0 0 -8 8v88h-49.65a132.947 132.947 0 0 0 29.97-70.431l3.631-32.685a8 8 0 0 0 -7.951-8.884h-160v-88h128a8 8 0 0 0 8-8v-32a8 8 0 0 0 -8-8h-16v-16a31.976 31.976 0 0 0 -48-27.695v-12.305a8 8 0 0 0 -8-8h-32a8 8 0 0 0 -8 8v56h-16v-96h50a38.043 38.043 0 0 0 38-38v-26a8 8 0 0 0 -8-8h-32a8 8 0 0 0 -8 8v16h-40v-16a8 8 0 0 0 -8-8h-96a8 8 0 0 0 -8 8v384a8 8 0 0 0 8 8h22.226a132.756 132.756 0 0 0 11.453 16h-33.679a8 8 0 0 0 -8 8v32a8 8 0 0 0 8 8h464a8 8 0 0 0 8-8v-32a8 8 0 0 0 -8-8zm-360-376h48a8 8 0 0 0 8-8v-16h16v18a22.025 22.025 0 0 1 -22 22h-50zm64 112a16 16 0 0 1 32 0v16h-32zm-32-32h16v48h-16zm-32 64h120v16h-120zm208-80a63.951 63.951 0 0 1 106.245-48.017l-106.245 61.51zm0 45.493v-13.512l117.04-67.76a63.918 63.918 0 0 1 5.633 10.251zm1.781 17.457 125.485-72.65a64.241 64.241 0 0 1 .734 9.7v11.387l-119.171 68.994a63.588 63.588 0 0 1 -7.048-17.431zm103.308 34.069a24.057 24.057 0 0 0 -11.643 7.776 63.846 63.846 0 0 1 -74.746-11.637l109.3-63.282v18.124a63.88 63.88 0 0 1 -22.911 49.019zm-105.089 70.981h128v2.334a64.107 64.107 0 0 1 -19.161 45.666h-89.678a64.107 64.107 0 0 1 -19.161-45.666zm-8 64h144v80h-16v-56a8 8 0 0 0 -8-8h-96a8 8 0 0 0 -8 8v56h-16zm112 32v48h-80v-48zm-248-48h48v16h-48zm0 32h48v16h-48zm-96-336h16v368h-16zm-32 0h16v368h-16zm-32 0h16v368h-16zm33.444 384h54.556a8 8 0 0 0 8-8v-72h48v56a8 8 0 0 0 8 8h64a8 8 0 0 0 8-8v-56h23.062l-2.645 23.8a116.981 116.981 0 0 1 -35.971 72.2h-160.846a117.31 117.31 0 0 1 -14.156-16zm414.556 48h-448v-16h448z"/></g></svg>