<?xml version="1.0" encoding="UTF-8" standalone="no"?>
<!DOCTYPE svg PUBLIC "-//W3C//DTD SVG 1.1//EN" "http://www.w3.org/Graphics/SVG/1.1/DTD/svg11.dtd">
<!-- Created with Vectornator (http://vectornator.io/) -->
<svg height="100%" stroke-miterlimit="10" style="fill-rule:nonzero;clip-rule:evenodd;stroke-linecap:round;stroke-linejoin:round;" version="1.1" viewBox="0 0 512 512" width="100%" xml:space="preserve" xmlns="http://www.w3.org/2000/svg" xmlns:vectornator="http://vectornator.io" xmlns:xlink="http://www.w3.org/1999/xlink">
<defs/>
<g id="Untitled" vectornator:layerName="Untitled">
<g opacity="1" vectornator:layerName="g">
<path d="M240.16 247.424L272.16 247.424L272.16 247.424L272.16 449.296L272.16 449.296L240.16 449.296L240.16 449.296L240.16 247.424L240.16 247.424Z" fill="#2c3e50" fill-rule="nonzero" opacity="1" stroke="none" vectornator:layerName="rect"/>
<path d="M192 432.048L320 432.048L320 432.048L320 464.048L320 464.048L192 464.048L192 464.048L192 432.048L192 432.048Z" fill="#2c3e50" fill-rule="nonzero" opacity="1" stroke="none" vectornator:layerName="rect"/>
</g>
<path d="M482.16 258.432L29.84 258.432C13.424 258.432 0 244.992 0 228.576L0 77.808C0 61.392 13.424 47.952 29.84 47.952L482.144 47.952C498.576 47.952 512 61.392 512 77.808L512 228.592C512 244.992 498.576 258.432 482.16 258.432Z" fill="#ef4d4d" fill-rule="nonzero" opacity="1" stroke="none" vectornator:layerName="path"/>
<g opacity="1" vectornator:layerName="g">
<path d="M65.92 116.8L105.568 116.8L105.568 128.816L80.64 128.816L80.64 143.632L103.92 143.632L103.92 155.568L80.64 155.568L80.64 181.632L65.92 181.632L65.92 116.8Z" fill="#ffffff" fill-rule="nonzero" opacity="1" stroke="none" vectornator:layerName="path"/>
<path d="M173.632 148.544C173.632 169.808 160.736 182.704 141.792 182.704C122.56 182.704 111.296 168.176 111.296 149.712C111.296 130.288 123.712 115.76 142.864 115.76C162.752 115.744 173.632 130.64 173.632 148.544ZM126.784 149.408C126.784 162.096 132.736 171.056 142.544 171.056C152.448 171.056 158.144 161.616 158.144 149.024C158.144 137.376 152.544 127.376 142.464 127.376C132.544 127.376 126.784 136.8 126.784 149.408Z" fill="#ffffff" fill-rule="nonzero" opacity="1" stroke="none" vectornator:layerName="path"/>
<path d="M180.912 117.664C185.632 116.896 192.64 116.32 200.448 116.32C210.08 116.32 216.8 117.76 221.424 121.408C225.264 124.48 227.392 129.024 227.392 134.976C227.392 143.264 221.52 148.928 215.936 150.944L215.936 151.248C220.464 153.072 222.96 157.408 224.592 163.36C226.624 170.672 228.64 179.136 229.888 181.648L214.88 181.648C213.84 179.824 212.288 174.528 210.368 166.544C208.64 158.464 205.856 156.256 199.888 156.176L195.472 156.176L195.472 181.664L180.944 181.664L180.944 117.664C180.944 117.664 180.912 117.664 180.912 117.664ZM195.44 145.552L201.2 145.552C208.512 145.552 212.848 141.888 212.848 136.224C212.848 130.272 208.816 127.28 202.08 127.2C198.512 127.2 196.496 127.488 195.44 127.664L195.44 145.552L195.44 145.552Z" fill="#ffffff" fill-rule="nonzero" opacity="1" stroke="none" vectornator:layerName="path"/>
<path d="M253.12 166.528C257.072 168.56 263.12 170.576 269.392 170.576C276.112 170.576 279.68 167.776 279.68 163.568C279.68 159.52 276.608 157.216 268.816 154.432C258.032 150.688 251.024 144.72 251.024 135.296C251.024 124.24 260.256 115.76 275.552 115.76C282.848 115.76 288.24 117.296 292.08 119.024L288.816 130.832C286.224 129.584 281.6 127.776 275.248 127.776C268.896 127.776 265.824 130.656 265.824 134.032C265.824 138.16 269.488 139.984 277.84 143.152C289.296 147.392 294.688 153.36 294.688 162.496C294.688 173.376 286.32 182.608 268.512 182.608C261.104 182.608 253.792 180.672 250.144 178.656L253.12 166.528Z" fill="#ffffff" fill-rule="nonzero" opacity="1" stroke="none" vectornator:layerName="path"/>
<path d="M317.344 164.992L312.72 181.632L297.536 181.632L317.344 116.8L336.576 116.8L356.688 181.632L340.912 181.632L335.92 164.992C335.92 164.992 317.344 164.992 317.344 164.992ZM333.792 154.016L329.744 140.272C328.592 136.432 327.424 131.616 326.48 127.776L326.272 127.776C325.312 131.616 324.352 136.528 323.296 140.272L319.44 154.016L333.792 154.016Z" fill="#ffffff" fill-rule="nonzero" opacity="1" stroke="none" vectornator:layerName="path"/>
<path d="M363.008 116.8L377.728 116.8L377.728 169.312L403.504 169.312L403.504 181.632L363.008 181.632C363.008 181.632 363.008 116.8 363.008 116.8Z" fill="#ffffff" fill-rule="nonzero" opacity="1" stroke="none" vectornator:layerName="path"/>
<path d="M448.368 154.208L424.512 154.208L424.512 169.6L451.168 169.6L451.168 181.632L409.792 181.632L409.792 116.8L449.808 116.8L449.808 128.816L424.512 128.816L424.512 142.288L448.368 142.288C448.368 142.288 448.368 154.208 448.368 154.208Z" fill="#ffffff" fill-rule="nonzero" opacity="1" stroke="none" vectornator:layerName="path"/>
</g>
</g>
</svg>
