<svg height="512pt" viewBox="-63 0 512 512.002" width="512pt" xmlns="http://www.w3.org/2000/svg"><path d="m112.304688 159.21875c-.851563 0-1.660157-.359375-2.230469-.992188-16.878907-18.707031-26.5625-45.992187-26.5625-74.867187s9.683593-56.160156 26.5625-74.867187c.570312-.628907 1.378906-.992188 2.230469-.992188.851562 0 1.664062.363281 2.234374.992188 16.878907 18.707031 26.558594 45.992187 26.558594 74.867187s-9.679687 56.164063-26.558594 74.867187c-.570312.632813-1.382812.992188-2.234374.992188zm0 0" fill="#99ce19"/><path d="m91.011719 83.359375c0 19.984375 4.917969 39.09375 13.792969 54.710937v-16.675781c-3.835938-11.898437-5.890626-24.792969-5.890626-38.035156 0-22.601563 5.949219-44.210937 16.621094-61.507813-1.039062-1.507812-2.113281-2.972656-3.230468-4.386718-13.585938 17.144531-21.292969 40.839844-21.292969 65.894531zm0 0" fill="#81aa00"/><path d="m131.582031 223.203125c-.605469 0-1.199219-.183594-1.703125-.53125-.710937-.488281-1.179687-1.257813-1.28125-2.109375-2.519531-20.394531 3.679688-43.199219 17.007813-62.570312 13.324219-19.371094 32.410156-33.308594 52.363281-38.25.238281-.058594.480469-.089844.722656-.089844.605469 0 1.199219.183594 1.707032.53125.707031.488281 1.171874 1.257812 1.277343 2.109375 2.519531 20.394531-3.679687 43.203125-17.003906 62.570312-13.328125 19.371094-32.414063 33.3125-52.367187 38.25-.238282.058594-.480469.089844-.722657.089844zm0 0" fill="#99ce19"/><path d="m151.78125 162.242188c-8.070312 11.730468-13.296875 24.769531-15.304688 37.605468l17.226563-25.039062c.480469-.695313 1.058594-1.28125 1.703125-1.757813.667969-1.050781 1.351562-2.089843 2.0625-3.121093 9.847656-14.3125 22.839844-25.636719 37.003906-32.578126.242188-2.980468.320313-5.933593.195313-8.84375-16.332031 5.472657-31.738281 17.535157-42.886719 33.734376zm0 0" fill="#81aa00"/><path d="m92.644531 223.203125c-.242187 0-.484375-.03125-.722656-.089844-19.953125-4.9375-39.039063-18.882812-52.367187-38.25-13.324219-19.371093-19.523438-42.175781-17.003907-62.570312.101563-.855469.570313-1.621094 1.277344-2.109375.507813-.347656 1.105469-.53125 1.707031-.53125.242188 0 .484375.03125.722656.089844 19.953126 4.941406 39.039063 18.878906 52.363282 38.25 13.328125 19.371093 19.527344 42.175781 17.007812 62.570312-.105468.851562-.570312 1.621094-1.28125 2.109375-.503906.347656-1.101562.53125-1.703125.53125zm0 0" fill="#99ce19"/><path d="m45.734375 180.609375c8.070313 11.734375 18.378906 21.277344 29.652344 27.738281l-17.222657-25.035156c-1.1875-1.726562-1.550781-3.773438-1.183593-5.675781-1.484375-1.871094-2.917969-3.800781-4.289063-5.792969-8.703125-12.652344-14.339844-26.769531-16.511718-40.726562-2.1875-.984376-4.394532-1.863282-6.621094-2.609376-.730469 17.203126 5.027344 35.902344 16.175781 52.101563zm0 0" fill="#81aa00"/><path d="m132.28125 325.371094c-.605469 0-1.199219-.179688-1.707031-.527344-.703125-.484375-1.167969-1.246094-1.277344-2.089844-3.101563-23.800781 4.0625-50.4375 19.644531-73.089844 15.585938-22.652343 37.910156-38.863281 61.246094-44.472656.234375-.058594.46875-.085937.703125-.085937.605469 0 1.199219.183593 1.707031.53125.703125.484375 1.167969 1.246093 1.277344 2.089843 3.101562 23.796876-4.058594 50.4375-19.644531 73.085938-15.585938 22.652344-37.910157 38.863281-61.246094 44.476562-.230469.054688-.46875.082032-.703125.082032zm0 0" fill="#99ce19"/><path d="m206.933594 213.867188c-19.738282 6.1875-38.394532 20.546874-51.8125 40.046874-10.5 15.265626-16.890625 32.394532-18.570313 49.011719l12.304688-17.886719c3.230469-8.011718 7.410156-15.84375 12.5-23.246093 12.058593-17.527344 28.152343-31.191407 45.628906-39.078125.132813-2.976563.128906-5.929688-.050781-8.847656zm0 0" fill="#81aa00"/><path d="m91.945312 325.371094c-.234374 0-.472656-.027344-.703124-.082032-23.339844-5.613281-45.664063-21.824218-61.25-44.476562-15.582032-22.652344-22.742188-49.289062-19.640626-73.085938.109376-.84375.574219-1.605468 1.277344-2.089843.503906-.347657 1.101563-.53125 1.703125-.53125.234375 0 .472657.027343.703125.085937 23.335938 5.609375 45.660156 21.820313 61.246094 44.472656 15.585938 22.652344 22.746094 49.289063 19.644531 73.089844-.109375.84375-.574219 1.605469-1.277343 2.089844-.503907.347656-1.101563.527344-1.703126.527344zm0 0" fill="#99ce19"/><path d="m75.316406 311.425781-22.765625-33.085937c-.433593-.628906-.757812-1.304688-.976562-1.996094-1.988281-2.457031-3.902344-5-5.71875-7.636719-10.992188-15.976562-17.777344-33.933593-19.742188-51.480469-2.910156-1.289062-5.851562-2.425781-8.820312-3.359374-1.28125 20.636718 5.460937 43.191406 18.878906 62.695312 10.503906 15.261719 24.21875 27.355469 39.144531 34.863281zm0 0" fill="#81aa00"/><path d="m169.667969 466.160156 10.1875-80.882812h-135.484375l10.1875 80.882812zm0 0" fill="#eac092"/><path d="m80.609375 466.160156-10.183594-80.882812h-26.054687l10.1875 80.882812zm0 0" fill="#e0aa68"/><path d="m192.601562 381.277344c0 2.75-2.25 5-5 5h-150.980468c-2.75 0-5-2.25-5-5v-23.703125c0-2.75 2.25-5 5-5h150.980468c2.75 0 5 2.25 5 5zm0 0" fill="#b57a4e"/><path d="m62.519531 381.277344v-23.703125c0-2.75 2.25-5 5-5h-30.898437c-2.75 0-5 2.25-5 5v23.703125c0 2.75 2.25 5 5 5h30.898437c-2.75 0-5-2.25-5-5zm0 0" fill="#9b5729"/><path d="m66.1875 504.5c-18.195312 0-32.996094-14.800781-32.996094-32.988281v-2.675781c0-1.476563 1.195313-2.675782 2.675782-2.675782h152.492187c1.476563 0 2.675781 1.199219 2.675781 2.675782v2.675781c0 18.1875-14.800781 32.988281-32.996094 32.988281zm0 0" fill="#b57a4e"/><path d="m79.5 471.511719v-2.675781c0-1.476563 1.199219-2.675782 2.675781-2.675782h-46.308593c-1.480469 0-2.675782 1.199219-2.675782 2.675782v2.675781c0 18.1875 14.800782 32.988281 32.996094 32.988281h46.308594c-18.191406 0-32.996094-14.800781-32.996094-32.988281zm0 0" fill="#9b5729"/><path d="m265.171875 352.574219h24.71875c-5.84375-25.175781-8.972656-54.945313-8.972656-86.535157 0-1.589843.011719-3.171874.027343-4.753906-8.253906-24.074218-18.128906-45.242187-28.945312-61.753906-.5625-.859375-1.511719-1.355469-2.507812-1.355469-.222657 0-.445313.023438-.664063.070313-1.222656.277344-2.144531 1.285156-2.3125 2.527344-4.183594 31.125-1.140625 71.84375 8.574219 114.648437 2.921875 12.882813 6.308594 25.328125 10.082031 37.152344zm0 0" fill="#009e2f"/><path d="m265.171875 352.574219h15.363281c-3.773437-11.828125-7.167968-24.269531-10.089844-37.152344-8.394531-36.996094-11.796874-72.417969-9.867187-101.453125-2.78125-5.128906-5.644531-9.957031-8.578125-14.4375-.5625-.859375-1.511719-1.355469-2.507812-1.355469-.222657 0-.445313.023438-.664063.070313-1.222656.277344-2.144531 1.285156-2.3125 2.527344-4.183594 31.125-1.140625 71.84375 8.574219 114.648437 2.921875 12.882813 6.308594 25.328125 10.082031 37.152344zm0 0" fill="#00752c"/><path d="m311.585938 352.574219h26.6875c3.59375-11.933594 6.789062-24.488281 9.507812-37.476563 8.988281-42.964844 11.347656-83.726562 6.640625-114.777344-.1875-1.238281-1.125-2.230468-2.351563-2.484374-.207031-.046876-.410156-.066407-.613281-.066407-1.015625 0-1.980469.519531-2.539062 1.402344-10.75 17.03125-20.4375 38.894531-28.375 63.71875.007812 1.046875.011719 2.09375.011719 3.148437 0 31.589844-3.128907 61.359376-8.96875 86.535157zm0 0" fill="#009e2f"/><path d="m311.585938 352.574219h5.785156c1.492187-14.667969 3.875-29.980469 7.140625-45.59375 7.433593-35.527344 18.421875-67.84375 31.476562-92.984375-.386719-4.734375-.902343-9.304688-1.566406-13.675782-.1875-1.238281-1.125-2.230468-2.351563-2.484374-.207031-.046876-.410156-.066407-.613281-.066407-1.015625 0-1.980469.519531-2.539062 1.402344-10.75 17.03125-20.4375 38.894531-28.375 63.71875.007812 1.046875.011719 2.09375.011719 3.148437 0 31.589844-3.128907 61.359376-8.96875 86.535157zm0 0" fill="#00752c"/><path d="m311.585938 352.574219c5.839843-25.175781 8.96875-54.945313 8.96875-86.535157 0-43.898437-6.039063-84.277343-17.007813-113.703124-.4375-1.175782-1.558594-1.953126-2.8125-1.953126-1.25 0-2.371094.777344-2.808594 1.953126-10.96875 29.425781-17.007812 69.808593-17.007812 113.703124 0 31.589844 3.128906 61.359376 8.96875 86.535157zm0 0" fill="#009e2f"/><path d="m311.585938 352.574219c5.839843-25.175781 8.96875-54.945313 8.96875-86.535157 0-43.898437-6.039063-84.277343-17.007813-113.703124-.4375-1.175782-1.558594-1.953126-2.8125-1.953126-1.25 0-2.371094.777344-2.808594 1.953126-10.96875 29.425781-17.007812 69.808593-17.007812 113.703124 0 31.589844 3.128906 61.359376 8.96875 86.535157zm0 0" fill="#009e2f"/><path d="m308.527344 167.628906c-1.527344-5.367187-3.1875-10.480468-4.980469-15.292968-.4375-1.175782-1.558594-1.953126-2.8125-1.953126-1.25 0-2.371094.777344-2.808594 1.953126-10.96875 29.425781-17.007812 69.808593-17.007812 113.703124 0 31.589844 3.128906 61.359376 8.96875 86.539063h15.597656c-5.84375-25.179687-8.984375-54.941406-8.984375-86.539063 0-36.714843 4.226562-70.964843 12.027344-98.410156zm0 0" fill="#00752c"/><path d="m235.789062 383.824219 15.175782 115.714843c.34375 2.730469 2.875 4.960938 5.625 4.960938h88.296875c2.75 0 5.28125-2.230469 5.625-4.960938l14.394531-115.714843zm0 0" fill="#eac092"/><path d="m278.558594 499.539062-15.175782-115.714843h-27.59375l15.175782 115.714843c.34375 2.730469 2.875 4.960938 5.625 4.960938h27.59375c-2.75 0-5.28125-2.230469-5.625-4.960938zm0 0" fill="#e0aa68"/><path d="m375.359375 378.824219c0 2.75-2.25 5-5 5h-139.246094c-2.75 0-5-2.25-5-5v-21.25c0-2.75 2.25-5 5-5h139.246094c2.75 0 5 2.25 5 5zm0 0" fill="#b57a4e"/><path d="m256.5 378.824219v-21.25c0-2.75 2.25-5 5-5h-30.386719c-2.75 0-5 2.25-5 5v21.25c0 2.75 2.25 5 5 5h30.386719c-2.75 0-5-2.25-5-5zm0 0" fill="#9b5729"/><path d="m377.5 497h-19.109375l3.785156-30.0625c.519531-4.109375-2.394531-7.863281-6.503906-8.378906-4.109375-.511719-7.859375 2.394531-8.375 6.503906l-4.023437 31.9375h-85.070313l-13.167969-104.53125h111.402344l-4.734375 37.59375c-.519531 4.109375 2.394531 7.863281 6.503906 8.378906 4.113281.519532 7.859375-2.394531 8.378907-6.503906l5.125-40.691406c6.257812-.675782 11.148437-5.988282 11.148437-12.421875v-21.25c0-6.890625-5.605469-12.5-12.5-12.5h-22.132813c2.542969-9.199219 4.855469-18.699219 6.894532-28.441407 9.167968-43.816406 11.554687-85.523437 6.714844-117.441406-.65625-4.308594-3.960938-7.804687-8.234376-8.699218-.707031-.148438-1.425781-.222657-2.148437-.222657-3.621094 0-6.9375 1.828125-8.878906 4.894531-5.742188 9.101563-11.183594 19.527344-16.230469 31-2.5625-29.117187-7.941406-55.453124-15.769531-76.449218-1.523438-4.085938-5.476563-6.832032-9.839844-6.832032-4.359375 0-8.3125 2.746094-9.835937 6.832032-7.84375 21.039062-13.230469 47.433594-15.785157 76.621094-5.261719-11.464844-10.910156-21.863282-16.839843-30.917969-1.945313-2.972657-5.230469-4.746094-8.78125-4.746094-.777344 0-1.554688.089844-2.328126.261719-4.25.964844-7.5 4.515625-8.078124 8.839844-4.304688 31.992187-1.214844 73.652343 8.6875 117.308593 2.175781 9.589844 4.613281 18.9375 7.269531 27.992188h-23.929688c-6.894531 0-12.5 5.609375-12.5 12.5v21.246093c0 6.4375 4.890625 11.75 11.148438 12.425782l13.320312 105.753906h-53.609375c5.664063-6.964844 9.0625-15.835938 9.0625-25.488281v-2.675781c0-5.609376-4.5625-10.175782-10.175781-10.175782h-10.1875l8.171875-64.882812h1.257812c6.894532 0 12.5-5.605469 12.5-12.5v-23.703125c0-6.890625-5.605468-12.5-12.5-12.5h-61.84375l8.542969-12.417969c.144531-.027344.292969-.042969.4375-.078125 25.113281-6.039063 49.050781-23.355469 65.671875-47.515625 16.621094-24.15625 24.242188-52.699219 20.902344-78.296875-.378906-2.957031-2.007812-5.621094-4.460938-7.308594-1.761718-1.210937-3.820312-1.851562-5.957031-1.851562-.832031 0-1.660156.097656-2.457031.289062-25.117188 6.042969-49.050781 23.359375-65.671875 47.515625s-24.242187 52.699219-20.90625 78.320313c.019531.144531.054687.285156.082031.429687l-2.136718 3.101563v-76.757813c.066406-.089844.144531-.171875.207031-.265625l13.59375-19.753906c.167969-.03125.335937-.050781.503906-.09375 21.707031-5.375 42.386719-20.417969 56.738281-41.277344 14.351563-20.859375 21.011719-45.550781 18.269532-67.742187-.367188-2.980469-1.996094-5.667969-4.476563-7.371094-2.460937-1.691406-5.59375-2.257812-8.476563-1.539062-21.707031 5.375-42.386718 20.417968-56.738281 41.277343-14.355469 20.859375-21.015625 45.550781-18.273437 67.742188.019531.171875.0625.335937.089844.507812l-1.4375 2.085938v-60.523438c.101562-.105469.207031-.195312.300781-.304687 15.15625-16.792969 25.003906-40.035156 27.726562-65.449219.441407-4.117187-2.542969-7.816406-6.660156-8.257813-4.117187-.433593-7.816406 2.542969-8.257813 6.660157-1.640624 15.339843-6.183593 29.707031-13.109374 41.890625v-63.78125c0-4.144532-3.359376-7.5-7.5-7.5-4.140626 0-7.5 3.355468-7.5 7.5v63.761718c-8.875-15.617187-13.792969-34.726562-13.792969-54.710937 0-25.054687 7.707031-48.75 21.292969-65.894531 9.738281 12.328125 16.640624 28.382812 19.605468 45.796875.695313 4.082031 4.566406 6.832031 8.652344 6.132812 4.085938-.695312 6.832031-4.570312 6.132812-8.652343-3.820312-22.425782-13.015624-42.230469-26.585937-57.269532-1.988281-2.207031-4.832031-3.472656-7.804687-3.472656-2.96875 0-5.8125 1.265625-7.800782 3.46875-18.105468 20.066406-28.492187 49.183594-28.492187 79.890625s10.386719 59.824219 28.492187 79.890625c.09375.105469.203125.199219.300782.300781v61.089844l-1.820313-2.652344c.027344-.167969.066406-.335937.089844-.507812 2.742187-22.1875-3.917969-46.878907-18.269531-67.738281-14.355469-20.859376-35.035157-35.90625-56.746094-41.28125-2.898438-.71875-6.011719-.148438-8.480469 1.542968-2.472656 1.703125-4.101563 4.390625-4.472656 7.371094-2.742188 22.1875 3.917969 46.878906 18.273437 67.738281 14.351563 20.859375 35.03125 35.90625 56.742188 41.28125.167968.042969.335937.058594.5.09375l13.59375 19.753907c.183594.265624.382812.519531.59375.753906v76.828125l-2.523438-3.664063c.027344-.144531.0625-.289062.082032-.4375 3.335937-25.609375-4.28125-54.152344-20.90625-78.308594-16.617188-24.15625-40.554688-41.476562-65.667969-47.515624-2.878907-.691407-5.972657-.121094-8.414063 1.5625-2.453125 1.683593-4.078125 4.34375-4.464844 7.296874-3.335937 25.605469 4.28125 54.148438 20.902344 78.308594 16.621094 24.15625 40.558594 41.476563 65.679688 47.519532.140625.03125.285156.046874.429687.074218l8.542969 12.417969h-61.84375c-6.894531 0-12.5 5.605469-12.5 12.5v23.703125c0 6.894531 5.605469 12.5 12.5 12.5h1.257812l8.171876 64.882812h-10.1875c-5.613282 0-10.175782 4.5625-10.175782 10.175782v2.671875c0 9.652343 3.398438 18.523437 9.0625 25.492187h-27.253906c-4.140625 0-7.5 3.355469-7.5 7.5 0 4.140625 3.359375 7.5 7.5 7.5h370c4.144531 0 7.5-3.359375 7.5-7.5 0-4.144531-3.355469-7.503906-7.5-7.503906zm-225.71875-334.757812c11.148438-16.199219 26.554688-28.261719 42.886719-33.734376.726562 17.207032-5.03125 35.902344-16.175781 52.105469-8.070313 11.730469-18.382813 21.273438-29.65625 27.734375l17.226562-25.035156c2.347656-3.414062 1.484375-8.082031-1.929688-10.429688-3.410156-2.347656-8.082031-1.484374-10.429687 1.925782l-17.226563 25.039062c2.007813-12.835937 7.234376-25.875 15.304688-37.605468zm-106.046875 18.367187c-11.148437-16.199219-16.90625-34.898437-16.179687-52.101563 16.332031 5.472657 31.742187 17.535157 42.890624 33.734376 8.070313 11.730468 13.296876 24.769531 15.300782 37.605468l-17.226563-25.039062c-2.347656-3.410156-7.015625-4.273438-10.429687-1.925782-3.410156 2.347657-4.273438 7.019532-1.925782 10.429688l17.222657 25.035156c-11.269531-6.460937-21.582031-16.003906-29.652344-27.738281zm109.386719 73.304687c13.417968-19.5 32.074218-33.859374 51.8125-40.042968 1.28125 20.632812-5.460938 43.191406-18.878906 62.691406-10.503907 15.265625-24.222657 27.359375-39.144532 34.867188l22.765625-33.085938c2.347657-3.414062 1.484375-8.082031-1.925781-10.433594-3.414062-2.347656-8.085938-1.484375-10.429688 1.929688l-22.769531 33.089844c1.679688-16.621094 8.070313-33.75 18.570313-49.015626zm-118.949219 22.648438c-13.417969-19.503906-20.160156-42.058594-18.878906-62.695312 19.734375 6.183593 38.390625 20.542968 51.808593 40.046874 10.503907 15.265626 16.894532 32.394532 18.574219 49.015626l-22.769531-33.089844c-2.347656-3.414063-7.019531-4.277344-10.429688-1.929688-3.410156 2.347656-4.273437 7.019532-1.925781 10.429688l22.765625 33.085937c-14.925781-7.507812-28.640625-19.601562-39.144531-34.863281zm2.949219 102.214844v-18.703125h145.980468v18.703125h-25.601562c-4.140625 0-7.5 3.359375-7.5 7.5 0 4.144531 3.359375 7.5 7.5 7.5h11.726562l-8.171874 64.882812h-101.882813l-8.171875-64.882812h70.5c4.144531 0 7.5-3.355469 7.5-7.5 0-4.140625-3.355469-7.5-7.5-7.5zm118.917968 118.222656h-91.851562c-13.335938 0-24.3125-10.285156-25.40625-23.339844h142.664062c-1.09375 13.054688-12.070312 23.339844-25.40625 23.339844zm170.015626-230.960938c0-.65625-.003907-1.3125-.007813-1.96875 5.953125-18.441406 12.875-35.160156 20.484375-49.320312 2.269531 28.144531-.519531 62.632812-8.09375 98.8125-2.273438 10.867188-4.890625 21.398438-7.789062 31.515625h-11.800782c4.703125-23.667969 7.207032-50.652344 7.207032-79.039063zm-27.320313-98.375c7.988281 27.082032 12.320313 61.410157 12.320313 98.375 0 28.65625-2.617188 55.699219-7.507813 79.039063h-9.617187c-4.890626-23.335937-7.511719-50.382813-7.507813-79.039063-.003906-36.96875 4.332031-71.292968 12.3125-98.375zm-48.082031 47.4375c7.621094 13.632813 14.644531 29.683594 20.78125 47.402344-.007813 1.175782-.015625 2.351563-.015625 3.535156 0 28.390626 2.507812 55.371094 7.210937 79.039063h-9.925781c-3.0625-10.046875-5.847656-20.511719-8.300781-31.3125-8.175782-36.046875-11.546875-70.484375-9.75-98.664063zm-19.039063 161.222657v-16.25h134.246094v16.25zm0 0"/></svg>