<svg id="Layer_3" height="512" viewBox="0 0 64 64" width="512" xmlns="http://www.w3.org/2000/svg" data-name="Layer 3"><path d="m2 58h16v4h-16z" fill="#939393" transform="matrix(-1 0 0 -1 20 120)"/><path d="m13.879 30.808h4.243v18.385h-4.243z" fill="#686868" transform="matrix(.707 -.707 .707 .707 -23.598 23.029)"/><path d="m14 35 22-33 19 16-34.624 23.376z" fill="#f3a845"/><path d="m4.307 40.556c2.05-2.05 4.128-4.122 4.628-4.621l11.147 11.147c-.678.671-2.714 2.687-4.638 4.611a7.835 7.835 0 0 1 -3.444 2.016v-4.709a2 2 0 0 0 -4 0v4.775a7.876 7.876 0 0 1 -3.693-13.219z" fill="#939393"/><path d="m10 47a2 2 0 0 1 2 2v9h-4v-9a2 2 0 0 1 2-2z" fill="#686868"/><path d="m18 60h-12a2 2 0 0 1 -2-2h14z" fill="#a9a9a9"/><path d="m10 54v-7a2 2 0 0 1 2 2v7a2 2 0 0 1 -2-2z" fill="#868686"/><path d="m46 58h16v4h-16z" fill="#939393"/><path d="m38.808 37.879h18.385v4.243h-18.385z" fill="#686868" transform="matrix(.707 -.707 .707 .707 -14.225 45.657)"/><path d="m50 35-22-33-19 16 34.624 23.376z" fill="#eecc61"/><path d="m59.693 40.556c-2.05-2.05-4.128-4.122-4.628-4.621l-11.147 11.147c.678.671 2.714 2.687 4.638 4.611a7.835 7.835 0 0 0 3.444 2.016v-4.709a2 2 0 0 1 4 0v4.775a7.876 7.876 0 0 0 3.693-13.219z" fill="#939393"/><path d="m54 47a2 2 0 0 0 -2 2v9h4v-9a2 2 0 0 0 -2-2z" fill="#686868"/><path d="m46 60h12a2 2 0 0 0 2-2h-14z" fill="#a9a9a9"/><path d="m54 54v-7a2 2 0 0 0 -2 2v7a2 2 0 0 0 2-2z" fill="#868686"/><path d="m62 57h-5v-2.5a8.859 8.859 0 0 0 3.4-14.655l-3.917-3.918.224-.224a1 1 0 0 0 0-1.414l-3-3a1 1 0 0 0 -1.414 0l-2.138 2.141-5.029-7.543 10.435-7.059-1.122-1.656-10.422 7.05-10.817-16.222 3.63-5.445-1.664-1.11-3.166 4.755-3.168-4.755-1.664 1.11 3.632 5.445-10.817 16.222-10.422-7.05-1.122 1.656 10.435 7.059-5.029 7.543-2.138-2.137a1 1 0 0 0 -1.414 0l-3 3a1 1 0 0 0 0 1.414l.224.224-3.917 3.918a8.846 8.846 0 0 0 3.4 14.651v2.5h-5a1 1 0 0 0 -1 1v4a1 1 0 0 0 1 1h16a1 1 0 0 0 1-1v-4a1 1 0 0 0 -1-1h-5v-2.584a8.859 8.859 0 0 0 3.151-2.016l3.918-3.917.224.224a1 1 0 0 0 1.414 0l3-3a1 1 0 0 0 0-1.414l-2.74-2.74 10.033-6.787 10.033 6.787-2.74 2.74a1 1 0 0 0 0 1.414l3 3a1 1 0 0 0 1.414 0l.224-.224 3.918 3.917a8.859 8.859 0 0 0 3.151 2.016v2.584h-5a1 1 0 0 0 -1 1v4a1 1 0 0 0 1 1h16a1 1 0 0 0 1-1v-4a1 1 0 0 0 -1-1zm-30-47.2 10.36 15.54-10.36 7.012-10.36-7.009zm-15 51.2h-14v-2h14zm-8-4v-8a1 1 0 0 1 2 0v8zm5.737-6.014a6.867 6.867 0 0 1 -1.737 1.249v-3.235a3 3 0 0 0 -6 0v3.355a6.861 6.861 0 0 1 -1.986-11.092l3.917-3.918 9.724 9.724zm6.263-4.4-11.586-11.586 1.586-1.586 11.586 11.586zm-.473-6.473-5.24-5.24 5.243-7.866 9.685 6.552zm13.258-6.554 9.685-6.552 5.243 7.866-5.24 5.24zm7.629 11.441 11.586-11.586 1.586 1.586-11.586 11.586zm7.849 5.986-3.918-3.917 9.724-9.724 3.917 3.918a6.843 6.843 0 0 1 -1.986 11.092v-3.355a3 3 0 0 0 -6 0v3.235a6.867 6.867 0 0 1 -1.737-1.249zm3.737-1.986a1 1 0 0 1 2 0v8h-2zm8 12h-14v-2h14z"/><path d="m11 4h2v2h-2z"/><path d="m11 8h2v2h-2z"/><path d="m9 6h2v2h-2z"/><path d="m13 6h2v2h-2z"/><path d="m51 10h2v2h-2z"/><path d="m51 14h2v2h-2z"/><path d="m49 12h2v2h-2z"/><path d="m53 12h2v2h-2z"/><path d="m31 40h2v2h-2z"/><path d="m31 44h2v2h-2z"/><path d="m29 42h2v2h-2z"/><path d="m33 42h2v2h-2z"/></svg>