<?xml version="1.0" encoding="UTF-8" standalone="no"?>
<!-- Created with Inkscape (http://www.inkscape.org/) -->

<svg
   version="1.1"
   id="svg2016"
   xml:space="preserve"
   width="682.66669"
   height="682.66669"
   viewBox="0 0 682.66669 682.66669"
   xmlns="http://www.w3.org/2000/svg"
   xmlns:svg="http://www.w3.org/2000/svg"><defs
     id="defs2020"><clipPath
       clipPathUnits="userSpaceOnUse"
       id="clipPath2030"><path
         d="M 0,512 H 512 V 0 H 0 Z"
         id="path2028" /></clipPath></defs><g
     id="g2022"
     transform="matrix(1.3333333,0,0,-1.3333333,0,682.66667)"><g
       id="g2024"><g
         id="g2026"
         clip-path="url(#clipPath2030)"><g
           id="g2032"
           transform="translate(406.0684,414.811)"><path
             d="m 0,0 c 89.402,-36.87 63.007,-117.819 49.536,-147.613 -1.984,-4.388 -8.29,-4.145 -9.937,0.38 L -12.353,-4.496 Z"
             style="fill:#e5d5f5;fill-opacity:1;fill-rule:nonzero;stroke:none"
             id="path2034" /></g><g
           id="g2036"
           transform="translate(467.5449,185.083)"><path
             d="m 0,0 c -42.635,-52.914 -105.29,-103.212 -177.396,-85.657 -29.029,7.072 -53.732,26.844 -66.056,53.075 -4.93,10.474 -7.89,21.98 -8.353,34.121 -1.227,32.119 13.401,63.054 7.137,95.345 -6.179,31.806 -28.374,58.941 -60.621,66.207 -7.965,1.797 -16.146,2.357 -24.24,1.743 -21.409,-5.317 -40.697,-18.362 -52.699,-45.282 -8.008,-17.943 -12.776,-42.075 -12.776,-74.194 0,-8.299 0.99,-16.253 2.798,-23.82 -17.899,8.03 -33.163,22.399 -43.065,39.513 -14.057,24.294 -18.126,53.464 -15.424,81.395 3.035,31.419 14.918,62.817 37.575,84.796 26.705,25.93 65.895,36.188 103.03,33.787 37.146,-2.389 72.654,-16.242 105.828,-33.119 33.174,-16.889 64.69,-36.941 98.219,-53.076 36.166,-17.416 86.679,-32.442 122.576,-7.309 3.66,2.573 8.751,0.399 9.515,-4.014 C 34.691,113.449 19.062,58.91 -15.058,21.333 -18.352,17.717 -16.36,11.905 -11.528,11.129 -8.977,10.731 -6.415,10.29 -3.864,9.892 0.808,9.17 2.971,3.681 0,0"
             style="fill:#6a61b2;fill-opacity:1;fill-rule:nonzero;stroke:none"
             id="path2038" /></g><g
           id="g2040"
           transform="translate(463.6807,194.9746)"><path
             d="m 0,0 c -2.551,0.398 -5.113,0.84 -7.664,1.238 -4.832,0.775 -6.824,6.588 -3.53,10.204 34.121,37.576 49.75,92.115 41.106,142.177 -0.764,4.413 -5.855,6.588 -9.515,4.015 C 14.107,153.23 7.368,150.063 0.336,147.922 7.973,98.606 -7.685,45.345 -41.194,8.442 c -3.294,-3.616 -1.302,-9.429 3.53,-10.204 2.551,-0.398 5.113,-0.84 7.664,-1.238 4.671,-0.721 6.835,-6.21 3.864,-9.892 -31.001,-38.476 -72.591,-75.56 -120.7,-86.188 60.83,-1.349 113.419,42.919 150.7,89.188 C 6.835,-6.21 4.672,-0.721 0,0"
             style="fill:#5f55ad;fill-opacity:1;fill-rule:nonzero;stroke:none"
             id="path2042" /></g><g
           id="g2044"
           transform="translate(206.4014,89.1045)"><path
             d="M 0,0 V 66.992 H -82.795 V 0 c 0,-3.595 -2.351,-6.762 -5.791,-7.804 -31.785,-9.626 -83.786,-19.015 -83.786,-62.666 v -4.699 c 0,-3.554 2.881,-6.435 6.435,-6.435 H 83.142 c 3.554,0 6.435,2.881 6.435,6.435 v 4.699 c 0,43.651 -52.002,53.04 -83.786,62.666 C 2.351,-6.762 0,-3.595 0,0"
             style="fill:#ffcdbe;fill-opacity:1;fill-rule:nonzero;stroke:none"
             id="path2046" /></g><g
           id="g2048"
           transform="translate(212.1924,81.3008)"><path
             d="m 0,0 c -3.44,1.042 -5.791,4.209 -5.791,7.804 v 66.992 h -27 V 1.804 c 0,-3.595 2.351,-6.762 5.791,-7.804 31.784,-9.626 83.786,-13.016 83.786,-56.667 v -4.698 c 0,-3.554 -2.881,-6.436 -6.435,-6.436 h 27 c 3.554,0 6.435,2.882 6.435,6.436 v 4.698 C 83.786,-19.016 31.784,-9.626 0,0"
             style="fill:#ebae9d;fill-opacity:1;fill-rule:nonzero;stroke:none"
             id="path2050" /></g><g
           id="g2052"
           transform="translate(78.9297,266.0498)"><path
             d="m 0,0 c -25.204,0 -45.637,-16.36 -45.637,-36.542 0,-20.182 20.433,-36.542 45.637,-36.542 25.205,0 45.637,16.36 45.637,36.542 C 45.637,-16.36 25.205,0 0,0"
             style="fill:#ebae9d;fill-opacity:1;fill-rule:nonzero;stroke:none"
             id="path2054" /></g><g
           id="g2056"
           transform="translate(215.7402,186.6221)"><path
             d="m 0,0 c 0.463,-12.141 3.423,-23.647 8.353,-34.121 -19.515,-20.042 -43.335,-31.612 -59.093,-31.612 -26.898,0 -77.294,33.712 -89.661,85.732 -1.808,7.567 -2.799,15.521 -2.799,23.82 0,32.119 4.769,56.251 12.777,74.194 12.002,26.92 31.29,39.965 52.699,45.282 8.094,0.614 16.274,0.054 24.24,-1.743 C -21.237,154.286 0.958,127.151 7.136,95.345 13.401,63.054 -1.227,32.119 0,0"
             style="fill:#ffcdbe;fill-opacity:1;fill-rule:nonzero;stroke:none"
             id="path2058" /></g><g
           id="g2060"
           transform="translate(143.0649,128.4434)"><path
             d="m 0,0 c -1.801,0 -3.714,0.166 -5.715,0.488 10.187,-5.236 19.896,-8.043 27.651,-8.043 15.757,0 39.577,11.571 59.092,31.613 C 76.795,33.051 74.02,42.807 73.025,53.071 53.415,20.056 19.959,0 0,0"
             style="fill:#ebae9d;fill-opacity:1;fill-rule:nonzero;stroke:none"
             id="path2062" /></g><g
           id="g2064"
           transform="translate(386.7007,414.811)"><path
             d="m 0,0 c -89.402,-36.87 -63.007,-117.819 -49.536,-147.613 1.984,-4.388 8.29,-4.145 9.937,0.38 L 12.353,-4.496 Z"
             style="fill:#f2eafa;fill-opacity:1;fill-rule:nonzero;stroke:none"
             id="path2066" /></g><g
           id="g2068"
           transform="translate(396.3843,434.4229)"><path
             d="m 0,0 c -11.88,0 -21.511,-9.631 -21.511,-21.511 0,-11.881 9.631,-21.511 21.511,-21.511 11.88,0 21.511,9.63 21.511,21.511 C 21.511,-9.631 11.88,0 0,0"
             style="fill:#92e0c4;fill-opacity:1;fill-rule:nonzero;stroke:none"
             id="path2070" /></g><g
           id="g2072"
           transform="translate(418.9893,340.8701)"><path
             d="M 0,0 -18.53,50.92"
             style="fill:none;stroke:#000000;stroke-width:15;stroke-linecap:round;stroke-linejoin:round;stroke-miterlimit:10;stroke-dasharray:none;stroke-opacity:1"
             id="path2074" /></g><g
           id="g2076"
           transform="translate(468.5894,344.4502)"><path
             d="M 0,0 C -4.01,23.98 -17.85,47.98 -50.97,65.03"
             style="fill:none;stroke:#000000;stroke-width:15;stroke-linecap:round;stroke-linejoin:round;stroke-miterlimit:10;stroke-dasharray:none;stroke-opacity:1"
             id="path2078" /></g><g
           id="g2080"
           transform="translate(385.9292,431.71)"><path
             d="M 0,0 -19.89,54.63"
             style="fill:none;stroke:#000000;stroke-width:15;stroke-linecap:round;stroke-linejoin:round;stroke-miterlimit:10;stroke-dasharray:none;stroke-opacity:1"
             id="path2082" /></g><g
           id="g2084"
           transform="translate(355.8931,451.3066)"><path
             d="m 0,0 c -11.168,-4.065 -23.518,1.693 -27.583,12.862 l -4.166,11.444 c -4.064,11.169 1.694,23.519 12.863,27.584 C -7.717,55.955 4.632,50.196 8.697,39.027 L 12.862,27.583 C 16.928,16.415 11.169,4.065 0,0 Z"
             style="fill:none;stroke:#000000;stroke-width:15;stroke-linecap:round;stroke-linejoin:round;stroke-miterlimit:10;stroke-dasharray:none;stroke-opacity:1"
             id="path2086" /></g><g
           id="g2088"
           transform="translate(35.5396,240.8701)"><path
             d="m 0,0 c -1.15,1.72 -2.24,3.48 -3.27,5.26 -14.05,24.3 -18.12,53.47 -15.42,81.4 3.03,31.42 14.92,62.82 37.58,84.8 5.51,5.35 11.57,10.04 18.02,14.09"
             style="fill:none;stroke:#000000;stroke-width:15;stroke-linecap:round;stroke-linejoin:round;stroke-miterlimit:10;stroke-dasharray:none;stroke-opacity:1"
             id="path2090" /></g><g
           id="g2092"
           transform="translate(104.4092,440.5601)"><path
             d="m 0,0 c 17.09,4.96 35.3,6.7 53.04,5.55 37.15,-2.39 72.66,-16.24 105.83,-33.12 24.26,-12.35 47.63,-26.39 71.55,-39.35"
             style="fill:none;stroke:#000000;stroke-width:15;stroke-linecap:round;stroke-linejoin:round;stroke-miterlimit:10;stroke-dasharray:none;stroke-opacity:1"
             id="path2094" /></g><g
           id="g2096"
           transform="translate(280.9492,52.48)"><path
             d="m 0,0 c 9.09,-8.26 15.03,-19.1 15.03,-33.85 v -4.69 c 0,-3.56 -2.88,-6.44 -6.44,-6.44 h -249.08 c -3.55,0 -6.43,2.88 -6.43,6.44 v 4.69 c 0,43.66 52,53.04 83.78,62.67 3.45,1.04 5.8,4.21 5.8,7.8 v 48.22"
             style="fill:none;stroke:#000000;stroke-width:15;stroke-linecap:round;stroke-linejoin:round;stroke-miterlimit:10;stroke-dasharray:none;stroke-opacity:1"
             id="path2098" /></g><g
           id="g2100"
           transform="translate(206.3994,137.3301)"><path
             d="m 0,0 v -48.23 c 0,-3.59 2.35,-6.76 5.79,-7.8 11.33,-3.43 25.22,-6.83 38.41,-11.76"
             style="fill:none;stroke:#000000;stroke-width:15;stroke-linecap:round;stroke-linejoin:round;stroke-miterlimit:10;stroke-dasharray:none;stroke-opacity:1"
             id="path2102" /></g><g
           id="g2104"
           transform="translate(74.8193,265.8999)"><path
             d="m 0,0 c -23.27,-1.66 -41.53,-17.32 -41.53,-36.39 0,-20.18 20.44,-36.54 45.64,-36.54 0.22,0 0.43,0 0.65,0.01"
             style="fill:none;stroke:#000000;stroke-width:15;stroke-linecap:round;stroke-linejoin:round;stroke-miterlimit:10;stroke-dasharray:none;stroke-opacity:1"
             id="path2106" /></g><g
           id="g2108"
           transform="translate(224.0908,152.501)"><path
             d="m 0,0 c -19.515,-20.042 -43.333,-31.612 -59.091,-31.612 -26.898,0 -77.294,33.712 -89.661,85.732 -1.809,7.567 -2.799,15.521 -2.799,23.82 0,32.119 4.773,56.249 12.777,74.194 12.005,26.917 31.293,39.965 52.703,45.285 8.09,0.61 16.27,0.05 24.239,-1.75 32.241,-7.26 54.44,-34.4 60.621,-66.2 C 5.048,97.179 -9.582,66.239 -8.352,34.119 -7.892,21.979 -4.93,10.47 0,0 c 12.33,-26.23 37.028,-46.001 66.059,-53.071 72.1,-17.56 134.759,32.74 177.399,85.65 2.971,3.68 0.801,9.17 -3.87,9.89 -2.549,0.4 -5.109,0.84 -7.659,1.24 -4.841,0.78 -6.83,6.59 -3.531,10.21 34.121,37.57 49.75,92.11 41.101,142.17 -0.76,4.42 -5.851,6.59 -9.51,4.02 -30.7,-21.49 -72.071,-13.62 -106.031,0"
             style="fill:none;stroke:#000000;stroke-width:15;stroke-linecap:round;stroke-linejoin:round;stroke-miterlimit:10;stroke-dasharray:none;stroke-opacity:1"
             id="path2110" /></g><g
           id="g2112"
           transform="translate(143.812,184.5161)"><path
             d="M 0,0 C 14.127,-6.708 28.254,-6.708 42.382,0"
             style="fill:none;stroke:#000000;stroke-width:15;stroke-linecap:round;stroke-linejoin:round;stroke-miterlimit:10;stroke-dasharray:none;stroke-opacity:1"
             id="path2114" /></g><g
           id="g2116"
           transform="translate(128.8716,251.1748)"><path
             d="M 0,0 V -10.481"
             style="fill:none;stroke:#000000;stroke-width:15;stroke-linecap:round;stroke-linejoin:round;stroke-miterlimit:10;stroke-dasharray:none;stroke-opacity:1"
             id="path2118" /></g><g
           id="g2120"
           transform="translate(114.6177,280.1021)"><path
             d="M 0,0 C 9.502,5.59 19.005,5.59 28.508,0"
             style="fill:none;stroke:#000000;stroke-width:15;stroke-linecap:round;stroke-linejoin:round;stroke-miterlimit:10;stroke-dasharray:none;stroke-opacity:1"
             id="path2122" /></g><g
           id="g2124"
           transform="translate(89.5142,312.9683)"><path
             d="M 0,0 C 14.431,45.848 79.024,94.441 152.482,43.547"
             style="fill:none;stroke:#000000;stroke-width:15;stroke-linecap:round;stroke-linejoin:round;stroke-miterlimit:10;stroke-dasharray:none;stroke-opacity:1"
             id="path2126" /></g><g
           id="g2128"
           transform="translate(198.3081,328.501)"><path
             d="M 0,0 C 28.195,-15.533 54.712,-54.122 63.331,-82.566"
             style="fill:none;stroke:#000000;stroke-width:15;stroke-linecap:round;stroke-linejoin:round;stroke-miterlimit:10;stroke-dasharray:none;stroke-opacity:1"
             id="path2130" /></g><g
           id="g2132"
           transform="translate(392.3096,391.79)"><path
             d="m 0,0 c -4.276,-11.749 -40.561,-111.44 -45.21,-124.21 -1.65,-4.53 -7.95,-4.77 -9.94,-0.38 -9.54,21.1 -25.545,67.851 -2.33,106.44 8.065,13.407 20.86,25.83 40.32,35.84"
             style="fill:none;stroke:#000000;stroke-width:15;stroke-linecap:round;stroke-linejoin:round;stroke-miterlimit:10;stroke-dasharray:none;stroke-opacity:1"
             id="path2134" /></g><g
           id="g2136"
           transform="translate(426.7295,486.3398)"><path
             d="M 0,0 -19.89,-54.63"
             style="fill:none;stroke:#000000;stroke-width:15;stroke-linecap:round;stroke-linejoin:round;stroke-miterlimit:10;stroke-dasharray:none;stroke-opacity:1"
             id="path2138" /></g><g
           id="g2140"
           transform="translate(436.8745,451.3066)"><path
             d="m 0,0 c 11.169,-4.065 23.519,1.693 27.583,12.862 l 4.166,11.444 C 35.814,35.475 30.055,47.825 18.886,51.89 7.718,55.955 -4.632,50.196 -8.697,39.027 L -12.862,27.583 C -16.927,16.415 -11.169,4.065 0,0 Z"
             style="fill:none;stroke:#000000;stroke-width:15;stroke-linecap:round;stroke-linejoin:round;stroke-miterlimit:10;stroke-dasharray:none;stroke-opacity:1"
             id="path2142" /></g><g
           id="g2144"
           transform="translate(396.3838,434.4229)"><path
             d="m 0,0 c -11.88,0 -21.511,-9.631 -21.511,-21.511 0,-11.881 9.631,-21.511 21.511,-21.511 11.88,0 21.511,9.63 21.511,21.511 C 21.511,-9.631 11.88,0 0,0 Z"
             style="fill:none;stroke:#000000;stroke-width:15;stroke-linecap:round;stroke-linejoin:round;stroke-miterlimit:10;stroke-dasharray:none;stroke-opacity:1"
             id="path2146" /></g></g></g></g></svg>
