<?xml version="1.0" encoding="UTF-8"?>
<svg xmlns="http://www.w3.org/2000/svg" xmlns:xlink="http://www.w3.org/1999/xlink" version="1.1" id="Capa_1" x="0px" y="0px" viewBox="0 0 512 512" style="enable-background:new 0 0 512 512;" xml:space="preserve" width="512" height="512">
<g>
	<g>
		<path style="fill:#594C5E;" d="M84.628,491.269l68.375-68.375c13.204-13.204,12.849-30.22,5.355-44.653&#10;&#9;&#9;&#9;c-26.559-26.559-44.664-21.064-57.868-7.86l-68.376,68.376c-13.282,13.282-23.089,35.892,3.373,62.354&#10;&#9;&#9;&#9;C51.845,507.829,71.346,504.551,84.628,491.269z"/>
		<path style="fill:#4C3E4F;" d="M45.33,451.971l68.376-68.376c13.204-13.204,30.22-12.849,44.653-5.354&#10;&#9;&#9;&#9;c-12.836-24.722-46.636-41.861-69.252-19.245l-68.376,68.376c-17.641,17.641-17.641,46.256,0,63.897&#10;&#9;&#9;&#9;c4.359,4.359,9.39,7.637,14.758,9.842C28.77,484.754,32.048,465.253,45.33,451.971z"/>
		<path style="fill:#69576E;" d="M209.431,409.068l11.416-11.416v-0.01c16.11-16.112,7.282-43.805-11.345-67.969&#10;&#9;&#9;&#9;c-47.79-47.79-68.021-43.614-84.134-27.5l-11.416,11.416c-21.912,21.926-25.694,53.515,16.153,95.362l0.117,0.117&#10;&#9;&#9;&#9;C152.06,430.906,187.527,430.958,209.431,409.068z"/>
		<path style="fill:#594C5E;" d="M130.105,329.742l11.416-11.416c16.113-16.115,43.813-7.284,67.981,11.347&#10;&#9;&#9;&#9;c-26.36-34.197-72.355-61.321-95.154-38.52l-11.416,11.416c-21.912,21.927-21.816,57.393,0,79.209l27.173,27.173&#10;&#9;&#9;&#9;C108.289,387.135,108.193,351.668,130.105,329.742z"/>
		<path style="fill:#67EDFD;" d="M504.5,210.819c0-114.151-94.116-206.44-209.097-203.233&#10;&#9;&#9;&#9;c-185.707,40.102-181.644,339.117-6.747,406.157C406.409,420.897,504.5,327.393,504.5,210.819z"/>
		<path style="fill:#26DCFD;" d="M242.263,160.045c8.517-57.468,27.405-109.559,53.14-152.458&#10;&#9;&#9;&#9;C185.783,10.646,97.862,100.46,97.862,210.819c0,108.097,84.317,196.455,190.795,202.924&#10;&#9;&#9;&#9;C246.906,351.341,227.619,258.857,242.263,160.045z"/>
		<path style="fill:#ECEAF5;" d="M444.257,210.819c0-93.747-88.877-162.367-179.767-138.319&#10;&#9;&#9;&#9;c-100.927,46.068-106.386,218.653-8.195,274.204C348.363,377.1,444.257,308.703,444.257,210.819z"/>
		<path style="fill:#DBD8F1;" d="M264.49,72.5c-61.24,16.203-106.386,71.985-106.386,138.319&#10;&#9;&#9;&#9;c0,63.338,41.161,117.056,98.191,135.885C227.22,260.029,233.086,157.61,264.49,72.5z"/>
		<path style="fill:#F9996E;" d="M399.075,203.911v-23.716c0-18.444-14.95-33.385-33.385-33.385c-12.107,0-93.564,0-121.254,0&#10;&#9;&#9;&#9;c-33.14,6.396-33.14,60.28-6.944,70.404h151.04L399.075,203.911z"/>
		<path style="fill:#F38054;" d="M244.437,146.811c-3.563,0-6.246,0-7.766,0c-18.434,0-33.385,14.94-33.385,33.385v23.716&#10;&#9;&#9;&#9;l10.04,13.304h24.166c0.35-18.697,1.901-37.809,4.77-57.17C242.922,155.598,243.655,151.192,244.437,146.811z"/>
		<path style="fill:#F38054;" d="M399.075,243.953v-40.041c-19.079,0-110.118,0-161.132,0c-30.808,8.163-24.449,67.104,2.716,73.426&#10;&#9;&#9;&#9;h125.031C384.125,277.337,399.075,262.387,399.075,243.953z"/>
		<path style="fill:#E96339;" d="M237.943,203.911c-19.319,0-32.9,0-34.657,0v40.041c0,18.434,14.95,33.385,33.385,33.385h3.988&#10;&#9;&#9;&#9;C237.672,253.828,236.698,229.212,237.943,203.911z"/>
		<path style="fill:none;stroke:#000000;stroke-width:15;stroke-linecap:round;stroke-linejoin:round;stroke-miterlimit:10;" d="&#10;&#9;&#9;&#9;M436.707,362.38c41.608-37.23,67.793-91.338,67.793-151.561C504.5,98.527,413.473,7.5,301.181,7.5S97.862,98.527,97.862,210.819&#10;&#9;&#9;&#9;c0,28.535,5.874,55.694,16.486,80.334c20.533,47.692,58.797,85.956,106.499,106.489c59.807,25.785,130.395,21.601,187.777-14.177"/>
		<path style="fill:none;stroke:#000000;stroke-width:15;stroke-linecap:round;stroke-linejoin:round;stroke-miterlimit:10;" d="&#10;&#9;&#9;&#9;M201.399,108.296c25.764-25.101,60.976-40.553,99.782-40.553c79.018,0,143.076,64.058,143.076,143.076&#10;&#9;&#9;&#9;s-64.058,143.076-143.076,143.076s-143.076-64.058-143.076-143.076c0-27.581,7.801-53.335,21.326-75.183"/>
		<path style="fill:none;stroke:#000000;stroke-width:15;stroke-linecap:round;stroke-linejoin:round;stroke-miterlimit:10;" d="&#10;&#9;&#9;&#9;M220.847,397.652l-11.416,11.416c-21.905,21.89-57.371,21.838-79.209,0l-27.29-27.29c-21.816-21.816-21.912-57.283,0-79.209&#10;&#9;&#9;&#9;l11.416-11.416"/>
		<path style="fill:none;stroke:#000000;stroke-width:15;stroke-linecap:round;stroke-linejoin:round;stroke-miterlimit:10;" d="&#10;&#9;&#9;&#9;M153.004,422.894l-68.376,68.375c-17.641,17.641-46.256,17.641-63.897,0s-17.641-46.256,0-63.897l68.375-68.375"/>
		<path style="fill:none;stroke:#000000;stroke-width:15;stroke-linecap:round;stroke-linejoin:round;stroke-miterlimit:10;" d="&#10;&#9;&#9;&#9;M333.812,146.811h31.878c18.434,0,33.385,14.94,33.385,33.385c0,10.038,0,59.73,0,63.757c0,18.434-14.95,33.385-33.385,33.385&#10;&#9;&#9;&#9;h-129.02c-18.434,0-33.385-14.95-33.385-33.385c0-4.027,0-53.719,0-63.757c0-18.444,14.95-33.385,33.385-33.385h31.878"/>
		<path style="fill:none;stroke:#000000;stroke-width:15;stroke-linecap:round;stroke-linejoin:round;stroke-miterlimit:10;" d="&#10;&#9;&#9;&#9;M333.812,146.811h-65.263v-15.814c0-9.287,7.53-16.818,16.818-16.818h31.627c9.287,0,16.818,7.53,16.818,16.818V146.811z"/>
		
			<line style="fill:none;stroke:#000000;stroke-width:15;stroke-linecap:round;stroke-linejoin:round;stroke-miterlimit:10;" x1="203.286" y1="203.911" x2="399.075" y2="203.911"/>
		
			<line style="fill:none;stroke:#000000;stroke-width:15;stroke-linecap:round;stroke-linejoin:round;stroke-miterlimit:10;" x1="276.582" y1="237.547" x2="325.78" y2="237.547"/>
	</g>
</g>















</svg>
