<?xml version="1.0" encoding="iso-8859-1"?>
<!-- Generator: Adobe Illustrator 19.0.0, SVG Export Plug-In . SVG Version: 6.00 Build 0)  -->
<svg version="1.1" id="Capa_1" xmlns="http://www.w3.org/2000/svg" xmlns:xlink="http://www.w3.org/1999/xlink" x="0px" y="0px"
	 viewBox="0 0 512 512" style="enable-background:new 0 0 512 512;" xml:space="preserve">
<path style="fill:#9CDD05;" d="M109.517,324.325c1.697-1.554,4.281-1.7,6.149-0.357c22.634,16.273,35.386,66.624,23.238,91.703
	c-1.003,2.07-3.345,3.173-5.577,2.614C90.789,407.641,77.176,353.945,109.517,324.325z"/>
<path style="fill:#94C609;" d="M123.249,331.119c-2.445-2.876-4.994-5.289-7.584-7.152c-1.868-1.343-4.452-1.197-6.149,0.357
	c-32.335,29.617-18.734,83.315,23.81,93.96c2.232,0.558,4.574-0.544,5.577-2.614c0.404-0.833,0.775-1.717,1.128-2.626
	C110.493,396.722,102.425,357.876,123.249,331.119z"/>
<path style="fill:#9CDD05;" d="M326.812,415.897c29.804,1.811,56.71-13.301,71.392-37.031c1.724-2.786,1.242-6.44-1.132-8.697
	c-12.931-12.29-37.464-21.494-66.068-23.233c-28.604-1.738-54.071,4.427-68.395,15.061c-2.631,1.953-3.551,5.522-2.177,8.496
	C272.13,395.826,297.008,414.086,326.812,415.897z"/>
<path style="fill:#94C609;" d="M280.431,370.493c-1.374-2.974-0.453-6.543,2.177-8.496c10.974-8.147,28.493-13.665,48.949-15.023
	c-0.185-0.012-0.369-0.027-0.554-0.038c-28.604-1.738-54.071,4.427-68.395,15.061c-2.631,1.953-3.551,5.522-2.177,8.496
	c11.7,25.334,36.577,43.593,66.381,45.404c5.021,0.305,9.956,0.119,14.768-0.496C314.114,411.897,291.439,394.328,280.431,370.493z"
	/>
<path style="fill:#9CDD05;" d="M367.565,235.646c-8.908-2.391-17.334-7.078-24.312-14.086c-5.042-5.063-8.668-10.889-11.049-17.099
	c-6.59,0.894-13.44,0.512-20.304-1.478c-9.497-2.754-17.656-7.892-24.032-14.558c-12.114,1.001-22.422,4.554-28.618,9.561
	c-1.404,1.135-1.824,3.123-0.991,4.732c7.097,13.705,21.299,23.215,37.812,23.547c11.451,0.23,21.924-4.001,29.78-11.084
	c-2.44,10.292-1.12,21.511,4.582,31.444c8.223,14.325,23.386,22.214,38.815,21.855c1.811-0.042,3.354-1.364,3.674-3.142
	C374.34,257.499,372.505,246.752,367.565,235.646z"/>
<path style="fill:#94C609;" d="M287.691,216.908c-0.833-1.609-0.413-3.596,0.991-4.732c5.368-4.338,13.826-7.582,23.869-9.023
	c-0.217-0.06-0.433-0.107-0.65-0.17c-9.497-2.754-17.656-7.892-24.032-14.558c-12.113,1.002-22.422,4.554-28.618,9.561
	c-1.404,1.135-1.824,3.123-0.99,4.732c6.816,13.163,20.193,22.432,35.871,23.44C291.605,223.376,289.432,220.27,287.691,216.908z"/>
<path style="fill:#F37D79;" d="M503.951,104.653c-2.643-4.543-27.096-44.469-70.961-47.804c-4.232-0.222-8.508-0.163-12.708,0.174
	l-1.138,0.091l0.467,1.042c6.946,15.518,8.927,31.184,7.046,47.904l0.87,0.04c11.683,0.534,23.482,3.483,35.066,8.767l0.364,0.166
	l0.352-0.187c10.75-5.68,22.258-6.726,35.181-3.198C502.676,112.794,506.118,108.372,503.951,104.653z"/>
<path style="fill:#D86666;" d="M448.681,59.724c-4.918-1.444-10.147-2.453-15.691-2.875c-4.232-0.222-8.508-0.163-12.708,0.174
	l-1.138,0.091l0.467,1.042c6.946,15.518,8.927,31.184,7.046,47.904l0.87,0.04c9.256,0.423,18.584,2.387,27.82,5.802
	C457.174,93.75,454.936,76.235,448.681,59.724z"/>
<path style="fill:#F37D79;" d="M415.13,46.257c-23.988-36.858-70.75-39.125-76.003-39.261c-4.304-0.113-6.527,5.029-3.513,8.151
	c9.302,9.64,13.911,20.236,14.092,32.392l0.005,0.399l0.321,0.24c13.522,10.109,23.516,22.37,29.693,36.423
	c4.163,10.115,6.316,19.306,7.482,29.165l0.987-0.398c8.887-3.587,18.371-5.957,28.167-7.046c3.657-0.319,7.418-0.393,11.179-0.221
	l0.756,0.035C430.734,84.473,426.563,64.764,415.13,46.257z"/>
<path style="fill:#D86666;" d="M407.063,107.775c1.897-23.914-3.557-46.442-16.277-67.031c-9.517-14.624-22.022-24.69-34.725-31.649
	c-8.703-1.76-15.169-2.053-16.935-2.099c-4.304-0.113-6.527,5.029-3.513,8.151c9.302,9.64,13.911,20.236,14.092,32.392l0.005,0.399
	l0.321,0.24c13.522,10.109,23.516,22.37,29.693,36.423c4.079,9.913,6.297,19.146,7.453,28.923c0.336-0.051,0.67-0.104,1.007-0.153
	l0.009-0.003C394.239,110.93,400.56,109.068,407.063,107.775z"/>
<path style="fill:#F37D79;" d="M340.913,151.09c12.909-17.578,28.817-30.269,47.283-37.721l0.571-0.23
	c-1.152-9.774-3.461-19.234-7.547-29.163c-20.521-46.691-73.696-58.087-79.691-59.232c-4.812-0.919-8.241,4.433-5.443,8.474
	c21.353,30.889,7.829,58.887-14.511,89.257l0.07,0.029c-16.812,26.275-7.797,60.725,18.359,76.223
	c3.899,2.31,8.15,4.171,12.699,5.49c6.701,1.943,13.636,2.449,20.614,1.502l1.009-0.137l-0.364-0.951
	C327.552,187.921,330.282,166.905,340.913,151.09z"/>
<path style="fill:#D86666;" d="M311.273,136.241l-0.071-0.028c22.638-31.13,38.274-61.249,17.018-93.488
	c-1.275-1.931-1.256-4.382,0.049-6.395c0.524-0.807,1.202-1.44,1.967-1.892c-14.188-6.672-26.057-9.188-28.707-9.694
	c-4.812-0.919-8.241,4.433-5.443,8.474c21.353,30.889,7.829,58.887-14.511,89.257l0.07,0.029
	c-16.812,26.275-7.797,60.725,18.359,76.223c3.899,2.31,8.15,4.171,12.699,5.49c0.921,0.267,1.848,0.501,2.777,0.714
	C299.18,186.434,297.153,158.402,311.273,136.241z"/>
<path style="fill:#F37D79;" d="M506.445,146.155c-3.884-4.707-39.417-45.874-90.249-41.443
	c-21.484,2.385-52.213,12.205-76.631,45.473c-13.279,19.755-16.357,51.835,4.098,72.376c3.343,3.357,7.016,6.19,10.916,8.501
	c26.106,15.467,60.675,6.903,75.672-20.51l0.077,0.062c15.179-34.112,34.668-59.432,71.299-55.613
	C506.519,155.513,509.559,149.931,506.445,146.155z"/>
<path style="fill:#D86666;" d="M367.789,166.907c27.671-37.699,74.678-57.268,120.131-38.419
	c-15.939-12.507-41.035-26.451-71.725-23.776c-21.484,2.385-52.213,12.205-76.631,45.473c-13.279,19.755-16.357,51.835,4.098,72.376
	c3.343,3.357,7.016,6.19,10.916,8.501c4.844,2.87,10.04,4.922,15.386,6.176C351.646,216.664,354.942,186.019,367.789,166.907z"/>
<path d="M509.255,141.618c-2.016-2.473-12.223-14.489-28.611-25.356c4.447-0.178,9.091,0.408,13.98,1.759
	c9.886,2.726,18.142-7.852,13.049-16.724c-16.195-28.242-47.851-52.017-83.663-51.072c-1.669-3.305-3.477-6.382-4.115-7.383
	C394.517,3.298,344.981,0.783,339.419,0.626c-10.265-0.269-15.631,12.006-8.569,19.405l0,0c3.502,3.669,6.212,7.484,8.158,11.486
	c-17.323-9.301-32.735-12.615-35.866-13.221c-10.585-2.059-18.371,9.794-12.255,18.753c12.42,18.208,16.154,40.486-14.122,79.922
	c-10.458,13.621-16.451,41.149-1.895,65.464c-7.892,1.935-14.648,5.004-19.633,9.012c-4.149,3.337-5.408,9.199-2.993,13.939
	c10.181,19.988,31.457,30.004,52.154,27.025c-15.547,21.157-33.361,43.682-53.492,66.706l-2.521-30.616
	c-0.34-4.128-3.96-7.2-8.09-6.859c-4.128,0.34-7.199,3.962-6.859,8.09l3.69,44.818c-28.518,31.266-57.443,58.908-86.275,83.285
	c2.227-26.637-9.197-65.062-30.793-80.587c-4.737-3.405-11.294-3.021-15.592,0.915c0,0,0,0-0.001,0.001
	c-34.128,31.258-23.304,85.954,17.063,103.388c-35.402,27.371-74.533,53.15-117.508,75.681c-3.668,1.924-5.083,6.457-3.16,10.125
	c1.924,3.671,6.459,5.083,10.125,3.16c63.306-33.19,123.741-76.32,179.994-128.397c5.518-1.903,29.067-9.25,62.188-8.883
	c0.139,0.386,0.294,0.768,0.469,1.146c10.881,23.562,31.485,40.762,56.528,47.192c4.007,1.025,8.1-1.388,9.129-5.399
	c1.03-4.012-1.387-8.1-5.399-9.13c-20.511-5.266-37.417-19.303-46.449-38.54c28.91-21.014,97.995-16.813,124.154,7.545
	c-10.321,16.444-27.079,28.042-46.046,31.85c-4.061,0.815-6.692,4.769-5.876,8.83c0.715,3.563,3.845,6.024,7.345,6.024
	c0.489,0,0.986-0.048,1.484-0.147c23.17-4.652,43.614-18.886,56.089-39.05c3.58-5.784,2.594-13.388-2.343-18.08
	c-31.308-29.757-109.42-34.502-144.102-8.757c-0.644,0.478-1.233,1.006-1.776,1.569c-17.136-0.419-31.996,1.107-43.709,3.108
	c38.375-37.846,73.987-79.234,106.142-123.311c5.778,20.697,24.787,36.844,48.542,36.844c0.368,0,0.737-0.004,1.106-0.012
	c5.32-0.113,9.891-3.995,10.868-9.229c1.172-6.276,0.687-13.663-1.329-21.516c22.726,0.988,44.533-10.37,56.102-31.434
	c1.994-3.63,0.667-8.189-2.963-10.184c-3.633-1.996-8.191-0.668-10.185,2.963c-21.775,39.644-84.844,27.323-84.705-20.863
	c0.176-36.175,39.331-66.29,76.31-71.474c29.034-4.115,59.994,11.254,80.491,32.739c-21.923-0.393-39.643,8.955-54.003,28.416
	c-2.459,3.333-1.751,8.028,1.582,10.488c3.333,2.457,8.028,1.752,10.488-1.582c12.607-17.087,27.673-24.063,47.409-21.961
	C509.279,162.432,516.09,150.001,509.255,141.618z M113.006,330.747c18.189,15.107,28.832,57.104,20.032,79.051
	C98.636,399.572,87.605,356.141,113.006,330.747z M490.134,101.795c-10.235-1.419-19.958-0.122-29.031,3.875
	c-8.123-3.46-17.108-6.146-26.827-7.396c0.515-11.401-0.877-22.439-4.171-33.028C453.5,66.118,476.178,82.476,490.134,101.795z
	 M347.271,16.317c47.572,6.37,73.764,40.497,72.001,81.235c-8.666,0.284-18.398,2.229-26.365,4.669
	c-4.428-23.164-15.802-42.846-35.324-58.491C356.814,33.843,353.36,24.664,347.271,16.317z M289.02,125.635
	c22.001-28.909,35.642-59.434,17.99-91.022c34.957,9.651,65.085,34.218,71.614,73.083c-21.887,10.184-45.784,31.345-53.718,54.762
	c-3.89,11.44-4.648,23.373-2.623,34.202C290.948,194.151,268.628,157.243,289.02,125.635z M267.193,201.376
	c4.57-2.722,11.083-4.742,18.361-5.683c8.667,8.079,20.022,13.799,32.22,15.563C301.356,223.135,278.061,218.719,267.193,201.376z
	 M364.921,259.847c-20.561-1.387-35.299-19.973-32.619-39.891c6.756,9.171,17.012,17.016,28.965,21.077
	C363.865,247.872,365.158,254.546,364.921,259.847z"/>
<g>
</g>
<g>
</g>
<g>
</g>
<g>
</g>
<g>
</g>
<g>
</g>
<g>
</g>
<g>
</g>
<g>
</g>
<g>
</g>
<g>
</g>
<g>
</g>
<g>
</g>
<g>
</g>
<g>
</g>
</svg>
