<?xml version="1.0" encoding="UTF-8"?>
<svg xmlns="http://www.w3.org/2000/svg" width="512" height="512" viewBox="0 0 128 128"><g><path d="M118.13,22.52,77.272,11.935,69.23,9.85a3.416,3.416,0,0,0-4.18,2.46L55.19,50.37,41.99,101.3a3.416,3.416,0,0,0,2.46,4.18L53,108l.071-.283L93.35,118.15a3.425,3.425,0,0,0,4.18-2.46L112.3,58.683,120.59,26.7A3.431,3.431,0,0,0,118.13,22.52Z" fill="#dcc69f"/><rect x="7.303" y="30.378" width="68.597" height="84.082" rx="3.43" fill="#d24751"/></g><g><path d="M118.569,20.826l-32.38-8.39a1.75,1.75,0,0,0-.878,3.388l32.383,8.391a1.684,1.684,0,0,1,1.2,2.046l-23.06,88.987a1.672,1.672,0,0,1-2.047,1.208l-16.3-4.224a5.176,5.176,0,0,0,.156-1.2V33.81a5.186,5.186,0,0,0-5.18-5.18H62.631l4.114-15.887a1.668,1.668,0,0,1,2.047-1.2l5.69,1.47a1.75,1.75,0,0,0,.875-3.389L69.672,8.157a5.165,5.165,0,0,0-6.316,3.714L59.015,28.63H10.73a5.186,5.186,0,0,0-5.18,5.18v77.22a5.186,5.186,0,0,0,5.18,5.18h6.4a1.75,1.75,0,1,0,0-3.5h-6.4a1.682,1.682,0,0,1-1.68-1.68V33.81a1.682,1.682,0,0,1,1.68-1.68H72.47a1.682,1.682,0,0,1,1.68,1.68v77.22a1.7,1.7,0,0,1-1.68,1.68H55.52a1.75,1.75,0,1,0,0,3.5H72.47a5.17,5.17,0,0,0,2.919-.909l17.517,4.542a5.173,5.173,0,0,0,6.318-3.714l23.061-89A5.188,5.188,0,0,0,118.569,20.826Z"/><path d="M106.482,34.53,103.131,37.9l-8.464-2.252,7.425-8.262a1.75,1.75,0,0,0-2.6-2.34l-8.619,9.592-8.256-2.2a1.75,1.75,0,0,0-.9,3.383l8.255,2.2L92.7,50.7a1.75,1.75,0,1,0,3.422-.737L93.767,39.026l8.464,2.252,1.361,5.049a1.75,1.75,0,0,0,3.379-.912l-1.361-5.049L108.962,37a1.75,1.75,0,1,0-2.48-2.47Z"/><path d="M105.521,61.95l-3.314-.882a1.75,1.75,0,0,0-.9,3.383,26.111,26.111,0,0,0,3.765.941,1.75,1.75,0,0,0,.448-3.442Z"/><path d="M95.8,59.365l-3.315-.882a1.75,1.75,0,0,0-.9,3.383,26.111,26.111,0,0,0,3.765.941,1.751,1.751,0,0,0,.449-3.442Z"/><path d="M86.086,56.78,82.771,55.9a1.75,1.75,0,1,0-.9,3.383l3.315.882a1.75,1.75,0,0,0,.9-3.383Z"/><path d="M94.628,83.493a1.752,1.752,0,0,0-2.141,1.241l-6.412,24.107a1.75,1.75,0,1,0,3.383.9L95.87,85.634A1.75,1.75,0,0,0,94.628,83.493Z"/><path d="M98.4,69.331a1.753,1.753,0,0,0-2.142,1.241L94.865,75.8a1.75,1.75,0,0,0,3.383.9l1.389-5.223A1.75,1.75,0,0,0,98.4,69.331Z"/><path d="M86.745,66.231A1.753,1.753,0,0,0,84.6,67.473L83.214,72.7a1.75,1.75,0,0,0,3.383.9l1.389-5.223A1.75,1.75,0,0,0,86.745,66.231Z"/><path d="M44.34,112.71H28.32a1.75,1.75,0,0,0,0,3.5H44.34a1.75,1.75,0,1,0,0-3.5Z"/><path d="M60.622,99.355H22.581a1.75,1.75,0,0,0,0,3.5H60.622a1.75,1.75,0,0,0,0-3.5Z"/><path d="M41.6,41.982A22.018,22.018,0,1,0,63.619,64,22.043,22.043,0,0,0,41.6,41.982Zm4.255,14.24H37.346A39.782,39.782,0,0,1,41.6,46.949,39.818,39.818,0,0,1,45.857,56.222Zm.838,3.5a26.6,26.6,0,0,1-.072,9.8H36.58a26.581,26.581,0,0,1-.071-9.8ZM38.21,45.808a41.883,41.883,0,0,0-4.49,10.414h-8.9A18.555,18.555,0,0,1,38.21,45.808ZM23.084,64a18.455,18.455,0,0,1,.519-4.278h9.376a30.156,30.156,0,0,0,.05,9.8h-9.1A18.448,18.448,0,0,1,23.084,64Zm2.364,9.025h8.393a36.371,36.371,0,0,0,4.193,9.14A18.562,18.562,0,0,1,25.448,73.025Zm12.039,0h8.229A34.356,34.356,0,0,1,41.6,81.248,34.324,34.324,0,0,1,37.487,73.025Zm7.682,9.14a36.336,36.336,0,0,0,4.193-9.14h8.393A18.562,18.562,0,0,1,45.169,82.165ZM60.119,64a18.448,18.448,0,0,1-.843,5.525h-9.1a30.212,30.212,0,0,0,.05-9.8H59.6A18.455,18.455,0,0,1,60.119,64ZM49.483,56.222a41.846,41.846,0,0,0-4.49-10.414,18.555,18.555,0,0,1,13.39,10.414Z"/></g></svg>
