<svg id="Layer_1" enable-background="new 0 0 128 128" height="512" viewBox="0 0 128 128" width="512" xmlns="http://www.w3.org/2000/svg"><g><g><path d="m102.6 28.6h-90.5c-1.7 0-3 1.3-3 3v59.2c0 1.7 1.3 3 3 3h90.5c1.7 0 3-1.3 3-3v-59.2c0-1.7-1.3-3-3-3z" fill="#c43d4e"/><path d="m81.3 9.3h-48c-1.7 0-3 1.3-3 3v22.5h7v-18.5h40v16.7h7v-20.7c0-1.6-1.3-3-3-3z" fill="#a2b0b4"/><path d="m102.6 28.6h-90.5c-1.7 0-3 1.3-3 3v21.4c5.8 1.5 11.6 2.7 17.4 3.7 5 .8 10 1.5 15 1.9 10.6 1 21.2 1 31.7.1 5-.4 10-1.1 15-1.9 5.8-1 11.6-2.3 17.4-3.8v-21.4c0-1.7-1.3-3-3-3z" fill="#d24751"/><path d="m54.4 53.4h5.9c1.7 0 3 1.3 3 3v5.9c0 1.7-1.3 3-3 3h-5.9c-1.7 0-3-1.3-3-3v-5.9c0-1.6 1.3-3 3-3z" fill="#e6bb5a"/></g><path d="m118.2 63.2c-4.5-.2-8.9 1.6-12 4.9l-5.1 5.4-32.8-1.5c-1.6-.1-2.9 1.1-3 2.7-.1 1.3.8 2.5 2 2.9l23.4 6.9-11.1 11.8c-.9.9-1.7 1.9-2.4 2.9l-11.1-1.1c-1.4-.1-2.7.9-2.8 2.3-.1.9.3 1.9 1.1 2.4l9.9 6.7 6.6 9.9c.8 1.2 2.4 1.5 3.6.7.8-.5 1.2-1.4 1.1-2.4l-1.1-11.1c1-.8 2-1.6 2.9-2.4l11.9-11.1 6.9 23.4c.4 1.5 2 2.4 3.5 1.9 1.3-.4 2.1-1.5 2-2.9l-1.5-32.8 5.4-5.1c3.3-3.1 5.1-7.5 4.9-12 .1-1.3-1-2.3-2.3-2.4z" fill="#3e6d8f"/></g><path d="m122.4 65.6c-.1-2.3-1.9-4.1-4.2-4.2-3.9-.2-7.8 1-10.9 3.3v-33.1c0-2.6-2.1-4.7-4.8-4.8h-16.4v-14.5c0-2.6-2.1-4.7-4.8-4.8h-48c-2.6 0-4.7 2.1-4.8 4.8v14.5h-16.4c-2.6 0-4.7 2.1-4.8 4.8v4.4c0 1 .8 1.7 1.8 1.7s1.7-.8 1.7-1.7v-4.4c0-.7.6-1.2 1.3-1.3h90.5c.7 0 1.2.6 1.3 1.3v20.1c-12.7 3.3-25.7 5.3-38.8 5.8v-1.1c0-2.6-2.1-4.7-4.8-4.8h-5.9c-2.6 0-4.7 2.1-4.8 4.8v1c-13.1-.6-26.1-2.6-38.8-5.7v-4.5c0-1-.8-1.8-1.8-1.8s-1.8.8-1.8 1.8v16c0 1 .8 1.8 1.8 1.8s1.8-.8 1.8-1.8v-8c12.7 3.2 25.7 5.1 38.8 5.7v1.4c0 2.6 2.1 4.7 4.8 4.8h5.9c2.6 0 4.7-2.1 4.8-4.8v-1.3c13.1-.5 26.1-2.4 38.8-5.7v12.7l-3.5 3.7-32-1.4c-2.5-.1-4.7 1.8-4.8 4.4-.1 2.1 1.3 4 3.3 4.6l20.7 6.1-6.3 6.7h-69.2c-.7 0-1.3-.6-1.3-1.3v-16.4c0-1-.8-1.8-1.8-1.8s-1.8.8-1.8 1.8v16.4c0 2.6 2.1 4.7 4.8 4.8h66c-.5.6-1.1 1.2-1.6 1.8l-10.1-1c-4.1-.4-6.4 4.7-3.2 7.5 1.6 1.5 4.8 3 10.1 6.8 4 5.5 5.5 8.8 7.1 10.4 2.8 2.7 7.6.4 7.2-3.6l-1-10.1c2.1-1.7 2.5-2.2 12.1-11.2l6.1 20.7c.7 2.3 3 3.7 5.4 3.2 2.2-.5 3.7-2.5 3.6-4.7l-.6-14.5c0-1-.9-1.7-1.8-1.7-1 0-1.7.9-1.7 1.8l.6 14.5c0 .5-.3 1-.8 1.1-.6.1-1.1-.2-1.3-.8l-6.9-23.4c-.4-1.3-1.9-1.7-2.9-.8-11.6 10.8-12 11.5-14.6 13.4-.5.4-.8 1-.7 1.6l1.1 11.1c.1.8-.9 1.2-1.4.6s-1.7-2.7-6.7-10c-.1-.2-.3-.4-.5-.5-7.5-5.1-9.5-6.2-10-6.8-.6-.5-.1-1.5.7-1.4l10.8 1.4c.6.1 1.2-.2 1.6-.7 1.8-2.4 2.3-2.7 13.4-14.6.9-1 .5-2.5-.8-2.9l-23.4-6.9c-.5-.2-.9-.7-.8-1.3.1-.5.6-.9 1.1-.9l32.8 1.4c.5 0 1-.2 1.4-.5l4.4-4.7c.3-.2 4-5.4 11.3-5 .4 0 .8.4.8.8.2 4-1.4 7.9-4.3 10.6l-5.4 5.1c-.4.3-.6.8-.5 1.4l.3 7.1c0 1 .9 1.7 1.8 1.7 1 0 1.7-.9 1.7-1.8l-.3-6.3 4.8-4.6c3.8-3.4 5.7-8.3 5.5-13.3zm-90.3-53.3c0-.7.6-1.2 1.3-1.3h48c.7 0 1.2.6 1.3 1.3v14.5h-3.5v-10.5c0-1-.8-1.7-1.7-1.7h-40c-1 0-1.7.8-1.8 1.7v10.5h-3.5v-14.5zm7 5.8h36.5v8.8h-36.5zm22.4 44.2c0 .7-.6 1.2-1.2 1.3h-5.9c-.7 0-1.2-.6-1.3-1.3v-5.9c0-.7.6-1.2 1.3-1.3h5.9c.7 0 1.2.6 1.3 1.3z"/></svg>