<?xml version="1.0" encoding="UTF-8" standalone="no"?>
<!DOCTYPE svg PUBLIC "-//W3C//DTD SVG 1.1//EN" "http://www.w3.org/Graphics/SVG/1.1/DTD/svg11.dtd">
<!-- Created with Vectornator (http://vectornator.io/) -->
<svg height="100%" stroke-miterlimit="10" style="fill-rule:nonzero;clip-rule:evenodd;stroke-linecap:round;stroke-linejoin:round;" version="1.1" viewBox="0 0 1066.67 1066.67" width="100%" xml:space="preserve" xmlns="http://www.w3.org/2000/svg" xmlns:vectornator="http://vectornator.io" xmlns:xlink="http://www.w3.org/1999/xlink">
<defs>
<linearGradient gradientTransform="matrix(886.904 0 0 933.279 84.0529 537.127)" gradientUnits="userSpaceOnUse" id="LinearGradient" x1="0" x2="1" y1="0" y2="0">
<stop offset="0" stop-color="#754c29"/>
<stop offset="0.0592593" stop-color="#a97c50"/>
<stop offset="0.151852" stop-color="#754c29"/>
<stop offset="1" stop-color="#58391f"/>
</linearGradient>
<linearGradient gradientTransform="matrix(876.85 0 0 922.699 84.0529 532.383)" gradientUnits="userSpaceOnUse" id="LinearGradient_2" x1="0" x2="1" y1="0" y2="0">
<stop offset="0" stop-color="#754c29"/>
<stop offset="0.0592593" stop-color="#a97c50"/>
<stop offset="0.151852" stop-color="#754c29"/>
<stop offset="1" stop-color="#58391f"/>
</linearGradient>
<linearGradient gradientTransform="matrix(227.988 0 0 239.909 751.694 539.223)" gradientUnits="userSpaceOnUse" id="LinearGradient_3" x1="0" x2="1" y1="0" y2="0">
<stop offset="0" stop-color="#754c29"/>
<stop offset="0.0592593" stop-color="#a97c50"/>
<stop offset="0.151852" stop-color="#754c29"/>
<stop offset="1" stop-color="#58391f"/>
</linearGradient>
<linearGradient gradientTransform="matrix(75.1844 79.1157 -75.1844 79.1157 828.095 499.665)" gradientUnits="userSpaceOnUse" id="LinearGradient_4" x1="0" x2="1" y1="0" y2="0">
<stop offset="0" stop-color="#6d6e71"/>
<stop offset="1" stop-color="#323232"/>
</linearGradient>
<radialGradient cx="0" cy="0" gradientTransform="matrix(56.5765 0 0 59.5348 854.098 526.706)" gradientUnits="userSpaceOnUse" id="RadialGradient" r="1">
<stop offset="0" stop-color="#6d6e71"/>
<stop offset="1" stop-color="#414042"/>
</radialGradient>
</defs>
<clipPath id="ArtboardFrame">
<rect height="1066.67" width="1066.67" x="0" y="0"/>
</clipPath>
<g clip-path="url(#ArtboardFrame)" id="g8058" vectornator:layerName="g8058">
<g opacity="1" vectornator:layerName="path">
<clipPath id="ClipPath">
<path d="M-153.607-343.984L1186.95-343.984L1186.95 1066.67L-153.607 1066.67L-153.607-343.984Z"/>
</clipPath>
<g clip-path="url(#ClipPath)">
<g opacity="1" vectornator:layerName="path">
<clipPath id="ClipPath_2">
<path d="M94.1077 197.274L989.735 197.274L989.735 898.14L94.1077 898.14L94.1077 197.274Z"/>
</clipPath>
<g clip-path="url(#ClipPath_2)">
<path d="M981.011 483.33L981.011 258.926C981.011 229.214 958.175 205.097 929.939 204.977C820.015 204.503 558.89 203.434 532.532 203.434C506.471 203.434 256.704 199.183 146.228 197.282C132.484 197.046 119.222 202.641 109.424 212.787C99.6283 222.933 94.1069 236.791 94.1069 251.255L94.1069 836.462C94.1069 865.929 116.534 889.936 144.532 890.418C254.079 892.306 506.125 896.598 532.532 896.598C558.855 896.598 819.37 897.665 929.515 898.139C943.152 898.197 956.253 892.539 965.915 882.412C975.578 872.287 981.011 858.526 981.011 844.177L981.011 616.275C986.231 612.981 989.736 606.986 989.736 600.115L989.736 499.493C989.736 492.621 986.231 486.626 981.011 483.33" fill="#bcbec0" fill-rule="nonzero" opacity="1" stroke="none" vectornator:layerName="path"/>
</g>
</g>
</g>
</g>
<g opacity="1" vectornator:layerName="path">
<clipPath id="ClipPath_3">
<path d="M99.3711 202.208C89.5733 212.354 84.0519 226.21 84.0519 240.676L84.0519 240.676L84.0519 825.883C84.0519 855.348 106.479 879.355 134.479 879.838L134.479 879.838C244.025 881.727 496.07 886.019 522.477 886.019L522.477 886.019C548.802 886.019 809.317 887.084 919.46 887.56L919.46 887.56C933.097 887.618 946.198 881.96 955.861 871.833L955.861 871.833C965.523 861.708 970.956 847.947 970.956 833.596L970.956 833.596L970.956 248.347C970.956 218.635 948.12 194.518 919.884 194.396L919.884 194.396C809.96 193.924 548.837 192.853 522.477 192.853L522.477 192.853C496.416 192.853 246.651 188.604 136.173 186.703L136.173 186.703C135.891 186.698 135.613 186.696 135.331 186.696L135.331 186.696C121.889 186.696 108.968 192.268 99.3711 202.208"/>
</clipPath>
<g clip-path="url(#ClipPath_3)">
<path d="M99.3711 202.208C89.5733 212.354 84.0519 226.21 84.0519 240.676L84.0519 240.676L84.0519 825.883C84.0519 855.348 106.479 879.355 134.479 879.838L134.479 879.838C244.025 881.727 496.07 886.019 522.477 886.019L522.477 886.019C548.802 886.019 809.317 887.084 919.46 887.56L919.46 887.56C933.097 887.618 946.198 881.96 955.861 871.833L955.861 871.833C965.523 861.708 970.956 847.947 970.956 833.596L970.956 833.596L970.956 248.347C970.956 218.635 948.12 194.518 919.884 194.396L919.884 194.396C809.96 193.924 548.837 192.853 522.477 192.853L522.477 192.853C496.416 192.853 246.651 188.604 136.173 186.703L136.173 186.703C135.891 186.698 135.613 186.696 135.331 186.696L135.331 186.696C121.889 186.696 108.968 192.268 99.3711 202.208" fill="url(#LinearGradient)" fill-rule="nonzero" opacity="1" stroke="none" vectornator:layerName="path"/>
</g>
</g>
<g opacity="1" vectornator:layerName="path">
<clipPath id="ClipPath_4">
<path d="M-153.607-343.984L1186.95-343.984L1186.95 1066.67L-153.607 1066.67L-153.607-343.984Z"/>
</clipPath>
<g clip-path="url(#ClipPath_4)">
<clipPath id="ClipPath_5">
<path d="M84.0536 186.694L970.956 186.694L970.956 887.56L84.0536 887.56L84.0536 186.694Z"/>
</clipPath>
<g clip-path="url(#ClipPath_5)">
<path d="M970.957 833.596C970.957 847.948 965.524 861.707 955.86 871.832C946.198 881.96 933.098 887.619 919.461 887.561C809.316 887.084 548.801 886.019 522.478 886.019C496.07 886.019 244.024 881.726 134.478 879.839C106.48 879.356 84.0528 855.348 84.0528 825.882L84.0528 240.675C84.0528 226.211 89.5742 212.354 99.3703 202.208C109.168 192.06 122.429 186.465 136.174 186.702C246.65 188.604 496.417 192.854 522.478 192.854C548.836 192.854 809.961 193.923 919.885 194.397C948.12 194.519 970.957 218.634 970.957 248.347L970.957 833.596Z" fill="#bcbec0" fill-rule="nonzero" opacity="1" stroke="none" vectornator:layerName="path"/>
</g>
</g>
</g>
<g opacity="1" vectornator:layerName="path">
<clipPath id="ClipPath_6">
<path d="M135.335 185.8C107.012 185.8 84.0519 209.961 84.0519 239.763L84.0519 239.763L84.0519 825.001C84.0519 854.805 107.012 878.966 135.335 878.966L135.335 878.966L909.62 878.966C937.941 878.966 960.903 854.805 960.903 825.001L960.903 825.001L960.903 239.763C960.903 209.961 937.941 185.8 909.62 185.8L909.62 185.8L135.335 185.8Z"/>
</clipPath>
<g clip-path="url(#ClipPath_6)">
<path d="M135.335 185.8C107.012 185.8 84.0519 209.961 84.0519 239.763L84.0519 239.763L84.0519 825.001C84.0519 854.805 107.012 878.966 135.335 878.966L135.335 878.966L909.62 878.966C937.941 878.966 960.903 854.805 960.903 825.001L960.903 825.001L960.903 239.763C960.903 209.961 937.941 185.8 909.62 185.8L909.62 185.8L135.335 185.8Z" fill="url(#LinearGradient_2)" fill-rule="nonzero" opacity="1" stroke="none" vectornator:layerName="path"/>
</g>
</g>
<g opacity="1" vectornator:layerName="path">
<clipPath id="ClipPath_7">
<path d="M-153.607-343.984L1186.95-343.984L1186.95 1066.67L-153.607 1066.67L-153.607-343.984Z"/>
</clipPath>
<g clip-path="url(#ClipPath_7)">
<g opacity="1" vectornator:layerName="path">
<clipPath id="ClipPath_8">
<path d="M101.705 204.375L946.717 204.375L946.717 864.037L101.705 864.037L101.705 204.375Z"/>
</clipPath>
<g clip-path="url(#ClipPath_8)">
<path d="M186.908 207.021C186.908 208.482 185.783 209.666 184.394 209.666L164.204 209.666C162.814 209.666 161.69 208.482 161.69 207.021C161.69 205.559 162.814 204.376 164.204 204.376L184.394 204.376C185.783 204.376 186.908 205.559 186.908 207.021M224.778 209.666L204.586 209.666C203.197 209.666 202.073 208.482 202.073 207.021C202.073 205.559 203.197 204.376 204.586 204.376L224.778 204.376C226.166 204.376 227.292 205.559 227.292 207.021C227.292 208.482 226.166 209.666 224.778 209.666M265.161 209.666L244.969 209.666C243.58 209.666 242.455 208.482 242.455 207.021C242.455 205.559 243.58 204.376 244.969 204.376L265.161 204.376C266.548 204.376 267.674 205.559 267.674 207.021C267.674 208.482 266.548 209.666 265.161 209.666M305.543 209.666L285.351 209.666C283.962 209.666 282.838 208.482 282.838 207.021C282.838 205.559 283.962 204.376 285.351 204.376L305.543 204.376C306.932 204.376 308.057 205.559 308.057 207.021C308.057 208.482 306.932 209.666 305.543 209.666M345.926 209.666L325.734 209.666C324.346 209.666 323.22 208.482 323.22 207.021C323.22 205.559 324.346 204.376 325.734 204.376L345.926 204.376C347.315 204.376 348.439 205.559 348.439 207.021C348.439 208.482 347.315 209.666 345.926 209.666M386.308 209.666L366.116 209.666C364.729 209.666 363.603 208.482 363.603 207.021C363.603 205.559 364.729 204.376 366.116 204.376L386.308 204.376C387.697 204.376 388.822 205.559 388.822 207.021C388.822 208.482 387.697 209.666 386.308 209.666M426.691 209.666L406.5 209.666C405.111 209.666 403.987 208.482 403.987 207.021C403.987 205.559 405.111 204.376 406.5 204.376L426.691 204.376C428.08 204.376 429.204 205.559 429.204 207.021C429.204 208.482 428.08 209.666 426.691 209.666M467.073 209.666L446.883 209.666C445.494 209.666 444.369 208.482 444.369 207.021C444.369 205.559 445.494 204.376 446.883 204.376L467.073 204.376C468.463 204.376 469.587 205.559 469.587 207.021C469.587 208.482 468.463 209.666 467.073 209.666M507.458 209.666L487.265 209.666C485.878 209.666 484.752 208.482 484.752 207.021C484.752 205.559 485.878 204.376 487.265 204.376L507.458 204.376C508.845 204.376 509.971 205.559 509.971 207.021C509.971 208.482 508.845 209.666 507.458 209.666M547.84 209.666L527.65 209.666C526.262 209.666 525.136 208.482 525.136 207.021C525.136 205.559 526.262 204.376 527.65 204.376L547.84 204.376C549.228 204.376 550.354 205.559 550.354 207.021C550.354 208.482 549.228 209.666 547.84 209.666M590.736 207.021C590.736 208.482 589.61 209.666 588.223 209.666L568.031 209.666C566.643 209.666 565.517 208.482 565.517 207.021C565.517 205.559 566.643 204.376 568.031 204.376L588.223 204.376C589.61 204.376 590.736 205.559 590.736 207.021M628.605 209.666L608.415 209.666C607.027 209.666 605.901 208.482 605.901 207.021C605.901 205.559 607.027 204.376 608.415 204.376L628.605 204.376C629.993 204.376 631.119 205.559 631.119 207.021C631.119 208.482 629.993 209.666 628.605 209.666M668.988 209.666L648.797 209.666C647.408 209.666 646.284 208.482 646.284 207.021C646.284 205.559 647.408 204.376 648.797 204.376L668.988 204.376C670.377 204.376 671.501 205.559 671.501 207.021C671.501 208.482 670.377 209.666 668.988 209.666M709.372 209.666L689.18 209.666C687.792 209.666 686.666 208.482 686.666 207.021C686.666 205.559 687.792 204.376 689.18 204.376L709.372 204.376C710.759 204.376 711.885 205.559 711.885 207.021C711.885 208.482 710.759 209.666 709.372 209.666M749.754 209.666L729.562 209.666C728.175 209.666 727.049 208.482 727.049 207.021C727.049 205.559 728.175 204.376 729.562 204.376L749.754 204.376C751.142 204.376 752.268 205.559 752.268 207.021C752.268 208.482 751.142 209.666 749.754 209.666M790.137 209.666L769.945 209.666C768.557 209.666 767.431 208.482 767.431 207.021C767.431 205.559 768.557 204.376 769.945 204.376L790.137 204.376C791.524 204.376 792.65 205.559 792.65 207.021C792.65 208.482 791.524 209.666 790.137 209.666M830.519 209.666L810.329 209.666C808.942 209.666 807.815 208.482 807.815 207.021C807.815 205.559 808.942 204.376 810.329 204.376L830.519 204.376C831.907 204.376 833.033 205.559 833.033 207.021C833.033 208.482 831.907 209.666 830.519 209.666M870.902 209.666L850.712 209.666C849.324 209.666 848.198 208.482 848.198 207.021C848.198 205.559 849.324 204.376 850.712 204.376L870.902 204.376C872.291 204.376 873.415 205.559 873.415 207.021C873.415 208.482 872.291 209.666 870.902 209.666M913.8 207.021C913.8 208.482 912.674 209.666 911.286 209.666L891.094 209.666C889.707 209.666 888.58 208.482 888.58 207.021C888.58 205.559 889.707 204.376 891.094 204.376L911.286 204.376C912.674 204.376 913.8 205.559 913.8 207.021M124.181 212.437C123.206 212.437 122.279 211.836 121.871 210.833C121.324 209.489 121.916 207.936 123.193 207.361C127.588 205.381 132.255 204.377 137.067 204.376L144.012 204.376C145.401 204.376 146.525 205.559 146.525 207.021C146.525 208.482 145.401 209.666 144.012 209.666L137.067 209.666C132.94 209.667 128.937 210.528 125.17 212.224C124.848 212.369 124.513 212.437 124.181 212.437M942.285 232.589C941.254 232.589 940.287 231.917 939.919 230.836C937.799 224.617 933.95 219.304 928.784 215.476C927.651 214.635 927.379 212.984 928.177 211.79C928.978 210.595 930.547 210.309 931.681 211.152C937.695 215.611 942.181 221.799 944.651 229.05C945.12 230.425 944.44 231.94 943.134 232.433C942.853 232.539 942.566 232.589 942.285 232.589M104.219 246.36C102.83 246.36 101.705 245.177 101.705 243.715L101.705 241.589C101.705 234.668 103.532 227.911 106.985 222.044C107.716 220.803 109.266 220.416 110.446 221.189C111.625 221.958 111.991 223.589 111.258 224.83C108.297 229.859 106.732 235.653 106.732 241.589L106.732 243.715C106.732 245.177 105.606 246.36 104.219 246.36M944.203 274.845C942.816 274.845 941.69 273.661 941.69 272.2L941.69 250.954C941.69 249.492 942.816 248.309 944.203 248.309C945.591 248.309 946.717 249.492 946.717 250.954L946.717 272.2C946.717 273.661 945.591 274.845 944.203 274.845M104.219 288.854C102.83 288.854 101.705 287.671 101.705 286.209L101.705 264.961C101.705 263.501 102.83 262.316 104.219 262.316C105.606 262.316 106.732 263.501 106.732 264.961L106.732 286.209C106.732 287.671 105.606 288.854 104.219 288.854M944.203 317.34C942.816 317.34 941.69 316.156 941.69 314.696L941.69 293.448C941.69 291.986 942.816 290.803 944.203 290.803C945.591 290.803 946.717 291.986 946.717 293.448L946.717 314.696C946.717 316.156 945.591 317.34 944.203 317.34M104.219 331.348C102.83 331.348 101.705 330.165 101.705 328.703L101.705 307.455C101.705 305.995 102.83 304.81 104.219 304.81C105.606 304.81 106.732 305.995 106.732 307.455L106.732 328.703C106.732 330.165 105.606 331.348 104.219 331.348M944.203 359.835C942.816 359.835 941.69 358.65 941.69 357.19L941.69 335.942C941.69 334.482 942.816 333.297 944.203 333.297C945.591 333.297 946.717 334.482 946.717 335.942L946.717 357.19C946.717 358.65 945.591 359.835 944.203 359.835M104.219 373.842C102.83 373.842 101.705 372.659 101.705 371.197L101.705 349.951C101.705 348.491 102.83 347.306 104.219 347.306C105.606 347.306 106.732 348.491 106.732 349.951L106.732 371.197C106.732 372.659 105.606 373.842 104.219 373.842M944.203 402.329C942.816 402.329 941.69 401.144 941.69 399.684L941.69 378.436C941.69 376.976 942.816 375.791 944.203 375.791C945.591 375.791 946.717 376.976 946.717 378.436L946.717 399.684C946.717 401.144 945.591 402.329 944.203 402.329M104.219 416.336C102.83 416.336 101.705 415.153 101.705 413.691L101.705 392.445C101.705 390.983 102.83 389.8 104.219 389.8C105.606 389.8 106.732 390.983 106.732 392.445L106.732 413.691C106.732 415.153 105.606 416.336 104.219 416.336M944.203 444.821C942.816 444.821 941.69 443.64 941.69 442.176L941.69 420.932C941.69 419.468 942.816 418.287 944.203 418.287C945.591 418.287 946.717 419.468 946.717 420.932L946.717 442.176C946.717 443.64 945.591 444.821 944.203 444.821M104.219 458.832C102.83 458.832 101.705 457.647 101.705 456.187L101.705 434.939C101.705 433.479 102.83 432.294 104.219 432.294C105.606 432.294 106.732 433.479 106.732 434.939L106.732 456.187C106.732 457.647 105.606 458.832 104.219 458.832M944.203 487.317C942.816 487.317 941.69 486.132 941.69 484.672L941.69 463.424C941.69 461.964 942.816 460.779 944.203 460.779C945.591 460.779 946.717 461.964 946.717 463.424L946.717 484.672C946.717 486.132 945.591 487.317 944.203 487.317M104.219 501.325C102.83 501.325 101.705 500.14 101.705 498.68L101.705 477.433C101.705 475.972 102.83 474.788 104.219 474.788C105.606 474.788 106.732 475.972 106.732 477.433L106.732 498.68C106.732 500.14 105.606 501.325 104.219 501.325M944.203 529.811C942.816 529.811 941.69 528.626 941.69 527.166L941.69 505.92C941.69 504.46 942.816 503.275 944.203 503.275C945.591 503.275 946.717 504.46 946.717 505.92L946.717 527.166C946.717 528.626 945.591 529.811 944.203 529.811M104.219 543.82C102.83 543.82 101.705 542.635 101.705 541.175L101.705 519.928C101.705 518.468 102.83 517.283 104.219 517.283C105.606 517.283 106.732 518.468 106.732 519.928L106.732 541.175C106.732 542.635 105.606 543.82 104.219 543.82M944.203 572.305C942.816 572.305 941.69 571.12 941.69 569.66L941.69 548.412C941.69 546.952 942.816 545.767 944.203 545.767C945.591 545.767 946.717 546.952 946.717 548.412L946.717 569.66C946.717 571.12 945.591 572.305 944.203 572.305M104.219 586.315C102.83 586.315 101.705 585.13 101.705 583.67L101.705 562.423C101.705 560.963 102.83 559.778 104.219 559.778C105.606 559.778 106.732 560.963 106.732 562.423L106.732 583.67C106.732 585.13 105.606 586.315 104.219 586.315M944.203 614.799C942.816 614.799 941.69 613.614 941.69 612.154L941.69 590.908C941.69 589.448 942.816 588.263 944.203 588.263C945.591 588.263 946.717 589.448 946.717 590.908L946.717 612.154C946.717 613.614 945.591 614.799 944.203 614.799M104.219 628.809C102.83 628.809 101.705 627.624 101.705 626.164L101.705 604.916C101.705 603.456 102.83 602.271 104.219 602.271C105.606 602.271 106.732 603.456 106.732 604.916L106.732 626.164C106.732 627.624 105.606 628.809 104.219 628.809M944.203 657.295C942.816 657.295 941.69 656.11 941.69 654.65L941.69 633.402C941.69 631.942 942.816 630.757 944.203 630.757C945.591 630.757 946.717 631.942 946.717 633.402L946.717 654.65C946.717 656.11 945.591 657.295 944.203 657.295M104.219 671.303C102.83 671.303 101.705 670.118 101.705 668.658L101.705 647.412C101.705 645.952 102.83 644.767 104.219 644.767C105.606 644.767 106.732 645.952 106.732 647.412L106.732 668.658C106.732 670.118 105.606 671.303 104.219 671.303M944.203 699.789C942.816 699.789 941.69 698.604 941.69 697.144L941.69 675.896C941.69 674.436 942.816 673.251 944.203 673.251C945.591 673.251 946.717 674.436 946.717 675.896L946.717 697.144C946.717 698.604 945.591 699.789 944.203 699.789M104.219 713.797C102.83 713.797 101.705 712.614 101.705 711.152L101.705 689.906C101.705 688.446 102.83 687.261 104.219 687.261C105.606 687.261 106.732 688.446 106.732 689.906L106.732 711.152C106.732 712.614 105.606 713.797 104.219 713.797M944.203 742.283C942.816 742.283 941.69 741.098 941.69 739.638L941.69 718.39C941.69 716.93 942.816 715.745 944.203 715.745C945.591 715.745 946.717 716.93 946.717 718.39L946.717 739.638C946.717 741.098 945.591 742.283 944.203 742.283M104.219 756.293C102.83 756.293 101.705 755.108 101.705 753.648L101.705 732.4C101.705 730.94 102.83 729.755 104.219 729.755C105.606 729.755 106.732 730.94 106.732 732.4L106.732 753.648C106.732 755.108 105.606 756.293 104.219 756.293M944.203 784.777C942.816 784.777 941.69 783.592 941.69 782.132L941.69 760.884C941.69 759.424 942.816 758.239 944.203 758.239C945.591 758.239 946.717 759.424 946.717 760.884L946.717 782.132C946.717 783.592 945.591 784.777 944.203 784.777M104.219 798.787C102.83 798.787 101.705 797.602 101.705 796.142L101.705 774.894C101.705 773.434 102.83 772.249 104.219 772.249C105.606 772.249 106.732 773.434 106.732 774.894L106.732 796.142C106.732 797.602 105.606 798.787 104.219 798.787M944.203 827.271C942.816 827.271 941.69 826.086 941.69 824.626L941.69 803.378C941.69 801.918 942.816 800.733 944.203 800.733C945.591 800.733 946.717 801.918 946.717 803.378L946.717 824.626C946.717 826.086 945.591 827.271 944.203 827.271M106.114 841.048C105.082 841.048 104.113 840.374 103.746 839.292C102.392 835.294 101.705 831.101 101.705 826.825L101.705 817.388C101.705 815.928 102.83 814.743 104.219 814.743C105.606 814.743 106.732 815.928 106.732 817.388L106.732 826.825C106.732 830.493 107.321 834.09 108.482 837.514C108.948 838.891 108.266 840.404 106.959 840.895C106.68 841 106.396 841.048 106.114 841.048M924.305 861.236C923.331 861.236 922.403 860.638 921.994 859.635C921.446 858.295 922.032 856.74 923.309 856.161C929.082 853.545 933.885 849.177 937.197 843.527C937.926 842.282 939.478 841.898 940.654 842.663C941.837 843.43 942.204 845.06 941.475 846.303C937.618 852.882 932.023 857.972 925.295 861.021C924.972 861.167 924.635 861.236 924.305 861.236M137.203 864.038L137.067 864.038C129.721 864.038 122.673 861.681 116.683 857.218C115.548 856.375 115.28 854.722 116.083 853.532C116.884 852.34 118.452 852.06 119.587 852.899C124.723 856.726 130.769 858.748 137.067 858.748C138.457 858.748 139.65 859.931 139.65 861.393C139.65 862.853 138.592 864.038 137.203 864.038M177.587 864.038L157.395 864.038C156.006 864.038 154.882 862.853 154.882 861.393C154.882 859.931 156.006 858.748 157.395 858.748L177.587 858.748C178.975 858.748 180.101 859.931 180.101 861.393C180.101 862.853 178.975 864.038 177.587 864.038M217.97 864.038L197.778 864.038C196.389 864.038 195.264 862.853 195.264 861.393C195.264 859.931 196.389 858.748 197.778 858.748L217.97 858.748C219.357 858.748 220.483 859.931 220.483 861.393C220.483 862.853 219.357 864.038 217.97 864.038M258.352 864.038L238.16 864.038C236.773 864.038 235.647 862.853 235.647 861.393C235.647 859.931 236.773 858.748 238.16 858.748L258.352 858.748C259.74 858.748 260.866 859.931 260.866 861.393C260.866 862.853 259.74 864.038 258.352 864.038M298.735 864.038L278.545 864.038C277.155 864.038 276.031 862.853 276.031 861.393C276.031 859.931 277.155 858.748 278.545 858.748L298.735 858.748C300.122 858.748 301.248 859.931 301.248 861.393C301.248 862.853 300.122 864.038 298.735 864.038M339.117 864.038L318.927 864.038C317.538 864.038 316.414 862.853 316.414 861.393C316.414 859.931 317.538 858.748 318.927 858.748L339.117 858.748C340.507 858.748 341.631 859.931 341.631 861.393C341.631 862.853 340.507 864.038 339.117 864.038M379.502 864.038L359.31 864.038C357.92 864.038 356.796 862.853 356.796 861.393C356.796 859.931 357.92 858.748 359.31 858.748L379.502 858.748C380.889 858.748 382.015 859.931 382.015 861.393C382.015 862.853 380.889 864.038 379.502 864.038M419.884 864.038L399.692 864.038C398.303 864.038 397.179 862.853 397.179 861.393C397.179 859.931 398.303 858.748 399.692 858.748L419.884 858.748C421.272 858.748 422.398 859.931 422.398 861.393C422.398 862.853 421.272 864.038 419.884 864.038M460.267 864.038L440.075 864.038C438.685 864.038 437.561 862.853 437.561 861.393C437.561 859.931 438.685 858.748 440.075 858.748L460.267 858.748C461.654 858.748 462.78 859.931 462.78 861.393C462.78 862.853 461.654 864.038 460.267 864.038M500.649 864.038L480.459 864.038C479.07 864.038 477.945 862.853 477.945 861.393C477.945 859.931 479.07 858.748 480.459 858.748L500.649 858.748C502.038 858.748 503.163 859.931 503.163 861.393C503.163 862.853 502.038 864.038 500.649 864.038M541.032 864.038L520.84 864.038C519.452 864.038 518.326 862.853 518.326 861.393C518.326 859.931 519.452 858.748 520.84 858.748L541.032 858.748C542.419 858.748 543.545 859.931 543.545 861.393C543.545 862.853 542.419 864.038 541.032 864.038M581.416 864.038L561.224 864.038C559.836 864.038 558.71 862.853 558.71 861.393C558.71 859.931 559.836 858.748 561.224 858.748L581.416 858.748C582.803 858.748 583.929 859.931 583.929 861.393C583.929 862.853 582.803 864.038 581.416 864.038M621.797 864.038L601.608 864.038C600.219 864.038 599.095 862.853 599.095 861.393C599.095 859.931 600.219 858.748 601.608 858.748L621.797 858.748C623.186 858.748 624.31 859.931 624.31 861.393C624.31 862.853 623.186 864.038 621.797 864.038M662.181 864.038L641.989 864.038C640.601 864.038 639.475 862.853 639.475 861.393C639.475 859.931 640.601 858.748 641.989 858.748L662.181 858.748C663.568 858.748 664.695 859.931 664.695 861.393C664.695 862.853 663.568 864.038 662.181 864.038M702.564 864.038L682.373 864.038C680.986 864.038 679.86 862.853 679.86 861.393C679.86 859.931 680.986 858.748 682.373 858.748L702.564 858.748C703.951 858.748 705.077 859.931 705.077 861.393C705.077 862.853 703.951 864.038 702.564 864.038M742.946 864.038L722.754 864.038C721.366 864.038 720.24 862.853 720.24 861.393C720.24 859.931 721.366 858.748 722.754 858.748L742.946 858.748C744.333 858.748 745.46 859.931 745.46 861.393C745.46 862.853 744.333 864.038 742.946 864.038M783.33 864.038L763.138 864.038C761.751 864.038 760.625 862.853 760.625 861.393C760.625 859.931 761.751 858.748 763.138 858.748L783.33 858.748C784.718 858.748 785.844 859.931 785.844 861.393C785.844 862.853 784.718 864.038 783.33 864.038M823.711 864.038L803.521 864.038C802.131 864.038 801.007 862.853 801.007 861.393C801.007 859.931 802.131 858.748 803.521 858.748L823.711 858.748C825.099 858.748 826.225 859.931 826.225 861.393C826.225 862.853 825.099 864.038 823.711 864.038M864.095 864.038L843.903 864.038C842.516 864.038 841.39 862.853 841.39 861.393C841.39 859.931 842.516 858.748 843.903 858.748L864.095 858.748C865.483 858.748 866.609 859.931 866.609 861.393C866.609 862.853 865.483 864.038 864.095 864.038M904.478 864.038L884.286 864.038C882.898 864.038 881.772 862.853 881.772 861.393C881.772 859.931 882.898 858.748 884.286 858.748L904.478 858.748C905.865 858.748 906.991 859.931 906.991 861.393C906.991 862.853 905.865 864.038 904.478 864.038" fill="#a97c50" fill-rule="nonzero" opacity="1" stroke="none" vectornator:layerName="path"/>
</g>
</g>
<path d="M185.175 205.197C185.175 206.659 184.05 207.842 182.661 207.842L162.471 207.842C161.081 207.842 159.957 206.659 159.957 205.197C159.957 203.735 161.081 202.552 162.471 202.552L182.661 202.552C184.05 202.552 185.175 203.735 185.175 205.197M223.045 207.842L202.853 207.842C201.464 207.842 200.34 206.659 200.34 205.197C200.34 203.735 201.464 202.552 202.853 202.552L223.045 202.552C224.433 202.552 225.559 203.735 225.559 205.197C225.559 206.659 224.433 207.842 223.045 207.842M263.428 207.842L243.236 207.842C241.847 207.842 240.722 206.659 240.722 205.197C240.722 203.735 241.847 202.552 243.236 202.552L263.428 202.552C264.815 202.552 265.941 203.735 265.941 205.197C265.941 206.659 264.815 207.842 263.428 207.842M303.81 207.842L283.618 207.842C282.229 207.842 281.105 206.659 281.105 205.197C281.105 203.735 282.229 202.552 283.618 202.552L303.81 202.552C305.198 202.552 306.324 203.735 306.324 205.197C306.324 206.659 305.198 207.842 303.81 207.842M344.193 207.842L324.001 207.842C322.613 207.842 321.487 206.659 321.487 205.197C321.487 203.735 322.613 202.552 324.001 202.552L344.193 202.552C345.582 202.552 346.706 203.735 346.706 205.197C346.706 206.659 345.582 207.842 344.193 207.842M384.575 207.842L364.383 207.842C362.996 207.842 361.87 206.659 361.87 205.197C361.87 203.735 362.996 202.552 364.383 202.552L384.575 202.552C385.964 202.552 387.089 203.735 387.089 205.197C387.089 206.659 385.964 207.842 384.575 207.842M424.958 207.842L404.767 207.842C403.378 207.842 402.254 206.659 402.254 205.197C402.254 203.735 403.378 202.552 404.767 202.552L424.958 202.552C426.347 202.552 427.471 203.735 427.471 205.197C427.471 206.659 426.347 207.842 424.958 207.842M465.34 207.842L445.15 207.842C443.761 207.842 442.636 206.659 442.636 205.197C442.636 203.735 443.761 202.552 445.15 202.552L465.34 202.552C466.73 202.552 467.854 203.735 467.854 205.197C467.854 206.659 466.73 207.842 465.34 207.842M505.723 207.842L485.532 207.842C484.145 207.842 483.019 206.659 483.019 205.197C483.019 203.735 484.145 202.552 485.532 202.552L505.723 202.552C507.112 202.552 508.236 203.735 508.236 205.197C508.236 206.659 507.112 207.842 505.723 207.842M546.107 207.842L525.917 207.842C524.529 207.842 523.403 206.659 523.403 205.197C523.403 203.735 524.529 202.552 525.917 202.552L546.107 202.552C547.495 202.552 548.621 203.735 548.621 205.197C548.621 206.659 547.495 207.842 546.107 207.842M589.003 205.197C589.003 206.659 587.877 207.842 586.49 207.842L566.298 207.842C564.91 207.842 563.784 206.659 563.784 205.197C563.784 203.735 564.91 202.552 566.298 202.552L586.49 202.552C587.877 202.552 589.003 203.735 589.003 205.197M626.872 207.842L606.682 207.842C605.294 207.842 604.168 206.659 604.168 205.197C604.168 203.735 605.294 202.552 606.682 202.552L626.872 202.552C628.26 202.552 629.386 203.735 629.386 205.197C629.386 206.659 628.26 207.842 626.872 207.842M667.255 207.842L647.064 207.842C645.675 207.842 644.551 206.659 644.551 205.197C644.551 203.735 645.675 202.552 647.064 202.552L667.255 202.552C668.644 202.552 669.768 203.735 669.768 205.197C669.768 206.659 668.644 207.842 667.255 207.842M707.639 207.842L687.447 207.842C686.059 207.842 684.933 206.659 684.933 205.197C684.933 203.735 686.059 202.552 687.447 202.552L707.639 202.552C709.026 202.552 710.152 203.735 710.152 205.197C710.152 206.659 709.026 207.842 707.639 207.842M748.021 207.842L727.829 207.842C726.442 207.842 725.316 206.659 725.316 205.197C725.316 203.735 726.442 202.552 727.829 202.552L748.021 202.552C749.409 202.552 750.535 203.735 750.535 205.197C750.535 206.659 749.409 207.842 748.021 207.842M788.404 207.842L768.213 207.842C766.824 207.842 765.7 206.659 765.7 205.197C765.7 203.735 766.824 202.552 768.213 202.552L788.404 202.552C789.791 202.552 790.917 203.735 790.917 205.197C790.917 206.659 789.791 207.842 788.404 207.842M828.786 207.842L808.596 207.842C807.209 207.842 806.082 206.659 806.082 205.197C806.082 203.735 807.209 202.552 808.596 202.552L828.786 202.552C830.174 202.552 831.3 203.735 831.3 205.197C831.3 206.659 830.174 207.842 828.786 207.842M869.171 207.842L848.979 207.842C847.591 207.842 846.465 206.659 846.465 205.197C846.465 203.735 847.591 202.552 848.979 202.552L869.171 202.552C870.558 202.552 871.684 203.735 871.684 205.197C871.684 206.659 870.558 207.842 869.171 207.842M912.067 205.197C912.067 206.659 910.941 207.842 909.553 207.842L889.361 207.842C887.974 207.842 886.847 206.659 886.847 205.197C886.847 203.735 887.974 202.552 889.361 202.552L909.553 202.552C910.941 202.552 912.067 203.735 912.067 205.197M122.448 210.614C121.473 210.614 120.546 210.013 120.138 209.009C119.591 207.666 120.183 206.112 121.46 205.537C125.855 203.557 130.522 202.552 135.334 202.552L142.279 202.552C143.666 202.552 144.792 203.735 144.792 205.197C144.792 206.659 143.666 207.842 142.279 207.842L135.334 207.842C131.207 207.842 127.204 208.704 123.437 210.401C123.115 210.545 122.78 210.614 122.448 210.614M940.552 230.765C939.521 230.765 938.554 230.093 938.186 229.012C936.066 222.793 932.217 217.48 927.051 213.652C925.918 212.811 925.646 211.161 926.444 209.967C927.245 208.771 928.814 208.486 929.948 209.328C935.962 213.788 940.448 219.975 942.918 227.226C943.387 228.601 942.707 230.116 941.401 230.61C941.12 230.716 940.833 230.765 940.552 230.765M102.486 244.536C101.097 244.536 99.9723 243.353 99.9723 241.892L99.9723 239.765C99.9723 232.844 101.799 226.087 105.252 220.22C105.983 218.977 107.533 218.593 108.713 219.365C109.892 220.134 110.258 221.765 109.525 223.006C106.565 228.035 104.999 233.83 104.999 239.765L104.999 241.892C104.999 243.353 103.873 244.536 102.486 244.536M942.47 273.021C941.083 273.021 939.957 271.838 939.957 270.376L939.957 249.13C939.957 247.668 941.083 246.485 942.47 246.485C943.858 246.485 944.984 247.668 944.984 249.13L944.984 270.376C944.984 271.838 943.858 273.021 942.47 273.021M102.486 287.031C101.097 287.031 99.9723 285.847 99.9723 284.386L99.9723 263.138C99.9723 261.678 101.097 260.493 102.486 260.493C103.873 260.493 104.999 261.678 104.999 263.138L104.999 284.386C104.999 285.847 103.873 287.031 102.486 287.031M942.47 315.515C941.083 315.515 939.957 314.332 939.957 312.87L939.957 291.624C939.957 290.162 941.083 288.979 942.47 288.979C943.858 288.979 944.984 290.162 944.984 291.624L944.984 312.87C944.984 314.332 943.858 315.515 942.47 315.515M102.486 329.525C101.097 329.525 99.9723 328.341 99.9723 326.88L99.9723 305.632C99.9723 304.172 101.097 302.987 102.486 302.987C103.873 302.987 104.999 304.172 104.999 305.632L104.999 326.88C104.999 328.341 103.873 329.525 102.486 329.525M942.47 358.011C941.083 358.011 939.957 356.826 939.957 355.366L939.957 334.118C939.957 332.658 941.083 331.473 942.47 331.473C943.858 331.473 944.984 332.658 944.984 334.118L944.984 355.366C944.984 356.826 943.858 358.011 942.47 358.011M102.486 372.019C101.097 372.019 99.9723 370.836 99.9723 369.374L99.9723 348.128C99.9723 346.666 101.097 345.483 102.486 345.483C103.873 345.483 104.999 346.666 104.999 348.128L104.999 369.374C104.999 370.836 103.873 372.019 102.486 372.019M942.47 400.505C941.083 400.505 939.957 399.32 939.957 397.86L939.957 376.612C939.957 375.152 941.083 373.967 942.47 373.967C943.858 373.967 944.984 375.152 944.984 376.612L944.984 397.86C944.984 399.32 943.858 400.505 942.47 400.505M102.486 414.513C101.097 414.513 99.9723 413.33 99.9723 411.868L99.9723 390.622C99.9723 389.16 101.097 387.977 102.486 387.977C103.873 387.977 104.999 389.16 104.999 390.622L104.999 411.868C104.999 413.33 103.873 414.513 102.486 414.513M942.47 442.997C941.083 442.997 939.957 441.814 939.957 440.352L939.957 419.108C939.957 417.644 941.083 416.463 942.47 416.463C943.858 416.463 944.984 417.644 944.984 419.108L944.984 440.352C944.984 441.814 943.858 442.997 942.47 442.997M102.486 457.009C101.097 457.009 99.9723 455.824 99.9723 454.364L99.9723 433.116C99.9723 431.656 101.097 430.471 102.486 430.471C103.873 430.471 104.999 431.656 104.999 433.116L104.999 454.364C104.999 455.824 103.873 457.009 102.486 457.009M942.47 485.493C941.083 485.493 939.957 484.308 939.957 482.848L939.957 461.6C939.957 460.14 941.083 458.955 942.47 458.955C943.858 458.955 944.984 460.14 944.984 461.6L944.984 482.848C944.984 484.308 943.858 485.493 942.47 485.493M102.486 499.501C101.097 499.501 99.9723 498.316 99.9723 496.856L99.9723 475.608C99.9723 474.148 101.097 472.963 102.486 472.963C103.873 472.963 104.999 474.148 104.999 475.608L104.999 496.856C104.999 498.316 103.873 499.501 102.486 499.501M942.47 527.987C941.083 527.987 939.957 526.802 939.957 525.342L939.957 504.096C939.957 502.636 941.083 501.451 942.47 501.451C943.858 501.451 944.984 502.636 944.984 504.096L944.984 525.342C944.984 526.802 943.858 527.987 942.47 527.987M102.486 541.997C101.097 541.997 99.9723 540.812 99.9723 539.352L99.9723 518.104C99.9723 516.644 101.097 515.459 102.486 515.459C103.873 515.459 104.999 516.644 104.999 518.104L104.999 539.352C104.999 540.812 103.873 541.997 102.486 541.997M942.47 570.481C941.083 570.481 939.957 569.296 939.957 567.836L939.957 546.589C939.957 545.128 941.083 543.944 942.47 543.944C943.858 543.944 944.984 545.128 944.984 546.589L944.984 567.836C944.984 569.296 943.858 570.481 942.47 570.481M102.486 584.491C101.097 584.491 99.9723 583.306 99.9723 581.846L99.9723 560.6C99.9723 559.14 101.097 557.955 102.486 557.955C103.873 557.955 104.999 559.14 104.999 560.6L104.999 581.846C104.999 583.306 103.873 584.491 102.486 584.491M942.47 612.975C941.083 612.975 939.957 611.791 939.957 610.331L939.957 589.084C939.957 587.624 941.083 586.439 942.47 586.439C943.858 586.439 944.984 587.624 944.984 589.084L944.984 610.331C944.984 611.791 943.858 612.975 942.47 612.975M102.486 626.985C101.097 626.985 99.9723 625.8 99.9723 624.34L99.9723 603.092C99.9723 601.632 101.097 600.447 102.486 600.447C103.873 600.447 104.999 601.632 104.999 603.092L104.999 624.34C104.999 625.8 103.873 626.985 102.486 626.985M942.47 655.47C941.083 655.47 939.957 654.286 939.957 652.825L939.957 631.578C939.957 630.118 941.083 628.933 942.47 628.933C943.858 628.933 944.984 630.118 944.984 631.578L944.984 652.825C944.984 654.286 943.858 655.47 942.47 655.47M102.486 669.479C101.097 669.479 99.9723 668.294 99.9723 666.834L99.9723 645.588C99.9723 644.128 101.097 642.943 102.486 642.943C103.873 642.943 104.999 644.128 104.999 645.588L104.999 666.834C104.999 668.294 103.873 669.479 102.486 669.479M942.47 697.965C941.083 697.965 939.957 696.78 939.957 695.32L939.957 674.073C939.957 672.612 941.083 671.428 942.47 671.428C943.858 671.428 944.984 672.612 944.984 674.073L944.984 695.32C944.984 696.78 943.858 697.965 942.47 697.965M102.486 711.973C101.097 711.973 99.9723 710.79 99.9723 709.328L99.9723 688.082C99.9723 686.62 101.097 685.437 102.486 685.437C103.873 685.437 104.999 686.62 104.999 688.082L104.999 709.328C104.999 710.79 103.873 711.973 102.486 711.973M942.47 740.459C941.083 740.459 939.957 739.275 939.957 737.815L939.957 716.567C939.957 715.107 941.083 713.922 942.47 713.922C943.858 713.922 944.984 715.107 944.984 716.567L944.984 737.815C944.984 739.275 943.858 740.459 942.47 740.459M102.486 754.469C101.097 754.469 99.9723 753.284 99.9723 751.824L99.9723 730.576C99.9723 729.116 101.097 727.931 102.486 727.931C103.873 727.931 104.999 729.116 104.999 730.576L104.999 751.824C104.999 753.284 103.873 754.469 102.486 754.469M942.47 782.954C941.083 782.954 939.957 781.769 939.957 780.309L939.957 759.061C939.957 757.601 941.083 756.416 942.47 756.416C943.858 756.416 944.984 757.601 944.984 759.061L944.984 780.309C944.984 781.769 943.858 782.954 942.47 782.954M102.486 796.963C101.097 796.963 99.9723 795.778 99.9723 794.318L99.9723 773.07C99.9723 771.61 101.097 770.425 102.486 770.425C103.873 770.425 104.999 771.61 104.999 773.07L104.999 794.318C104.999 795.778 103.873 796.963 102.486 796.963M942.47 825.448C941.083 825.448 939.957 824.263 939.957 822.803L939.957 801.555C939.957 800.095 941.083 798.91 942.47 798.91C943.858 798.91 944.984 800.095 944.984 801.555L944.984 822.803C944.984 824.263 943.858 825.448 942.47 825.448M104.381 839.224C103.349 839.224 102.38 838.551 102.013 837.468C100.659 833.471 99.9723 829.278 99.9723 825.002L99.9723 815.564C99.9723 814.104 101.097 812.919 102.486 812.919C103.873 812.919 104.999 814.104 104.999 815.564L104.999 825.002C104.999 828.669 105.588 832.266 106.749 835.691C107.215 837.068 106.533 838.581 105.226 839.071C104.947 839.177 104.663 839.224 104.381 839.224M922.572 859.413C921.598 859.413 920.67 858.815 920.261 857.812C919.713 856.471 920.299 854.916 921.576 854.338C927.349 851.721 932.152 847.353 935.464 841.704C936.193 840.459 937.745 840.074 938.921 840.84C940.104 841.607 940.471 843.236 939.742 844.479C935.885 851.058 930.29 856.149 923.564 859.197C923.239 859.344 922.902 859.413 922.572 859.413M135.47 862.214L135.334 862.214C127.988 862.214 120.94 859.857 114.95 855.394C113.817 854.551 113.547 852.899 114.35 851.709C115.151 850.517 116.719 850.236 117.854 851.076C122.99 854.902 129.036 856.925 135.334 856.925C136.724 856.925 137.917 858.108 137.917 859.57C137.917 861.03 136.859 862.214 135.47 862.214M175.854 862.214L155.662 862.214C154.273 862.214 153.149 861.03 153.149 859.57C153.149 858.108 154.273 856.925 155.662 856.925L175.854 856.925C177.242 856.925 178.368 858.108 178.368 859.57C178.368 861.03 177.242 862.214 175.854 862.214M216.237 862.214L196.045 862.214C194.656 862.214 193.531 861.03 193.531 859.57C193.531 858.108 194.656 856.925 196.045 856.925L216.237 856.925C217.624 856.925 218.75 858.108 218.75 859.57C218.75 861.03 217.624 862.214 216.237 862.214M256.619 862.214L236.429 862.214C235.04 862.214 233.915 861.03 233.915 859.57C233.915 858.108 235.04 856.925 236.429 856.925L256.619 856.925C258.007 856.925 259.133 858.108 259.133 859.57C259.133 861.03 258.007 862.214 256.619 862.214M297.002 862.214L276.812 862.214C275.422 862.214 274.298 861.03 274.298 859.57C274.298 858.108 275.422 856.925 276.812 856.925L297.002 856.925C298.391 856.925 299.515 858.108 299.515 859.57C299.515 861.03 298.391 862.214 297.002 862.214M337.384 862.214L317.194 862.214C315.805 862.214 314.681 861.03 314.681 859.57C314.681 858.108 315.805 856.925 317.194 856.925L337.384 856.925C338.774 856.925 339.898 858.108 339.898 859.57C339.898 861.03 338.774 862.214 337.384 862.214M377.769 862.214L357.577 862.214C356.187 862.214 355.063 861.03 355.063 859.57C355.063 858.108 356.187 856.925 357.577 856.925L377.769 856.925C379.156 856.925 380.282 858.108 380.282 859.57C380.282 861.03 379.156 862.214 377.769 862.214M418.151 862.214L397.959 862.214C396.57 862.214 395.446 861.03 395.446 859.57C395.446 858.108 396.57 856.925 397.959 856.925L418.151 856.925C419.539 856.925 420.665 858.108 420.665 859.57C420.665 861.03 419.539 862.214 418.151 862.214M458.534 862.214L438.342 862.214C436.952 862.214 435.828 861.03 435.828 859.57C435.828 858.108 436.952 856.925 438.342 856.925L458.534 856.925C459.921 856.925 461.047 858.108 461.047 859.57C461.047 861.03 459.921 862.214 458.534 862.214M498.916 862.214L478.726 862.214C477.337 862.214 476.212 861.03 476.212 859.57C476.212 858.108 477.337 856.925 478.726 856.925L498.916 856.925C500.305 856.925 501.43 858.108 501.43 859.57C501.43 861.03 500.305 862.214 498.916 862.214M539.299 862.214L519.107 862.214C517.719 862.214 516.593 861.03 516.593 859.57C516.593 858.108 517.719 856.925 519.107 856.925L539.299 856.925C540.686 856.925 541.812 858.108 541.812 859.57C541.812 861.03 540.686 862.214 539.299 862.214M579.683 862.214L559.491 862.214C558.103 862.214 556.977 861.03 556.977 859.57C556.977 858.108 558.103 856.925 559.491 856.925L579.683 856.925C581.07 856.925 582.196 858.108 582.196 859.57C582.196 861.03 581.07 862.214 579.683 862.214M620.064 862.214L599.873 862.214C598.486 862.214 597.36 861.03 597.36 859.57C597.36 858.108 598.486 856.925 599.873 856.925L620.064 856.925C621.451 856.925 622.577 858.108 622.577 859.57C622.577 861.03 621.451 862.214 620.064 862.214M660.448 862.214L640.256 862.214C638.868 862.214 637.742 861.03 637.742 859.57C637.742 858.108 638.868 856.925 640.256 856.925L660.448 856.925C661.835 856.925 662.962 858.108 662.962 859.57C662.962 861.03 661.835 862.214 660.448 862.214M700.831 862.214L680.64 862.214C679.253 862.214 678.127 861.03 678.127 859.57C678.127 858.108 679.253 856.925 680.64 856.925L700.831 856.925C702.218 856.925 703.344 858.108 703.344 859.57C703.344 861.03 702.218 862.214 700.831 862.214M741.213 862.214L721.021 862.214C719.633 862.214 718.507 861.03 718.507 859.57C718.507 858.108 719.633 856.925 721.021 856.925L741.213 856.925C742.601 856.925 743.727 858.108 743.727 859.57C743.727 861.03 742.601 862.214 741.213 862.214M781.597 862.214L761.405 862.214C760.018 862.214 758.892 861.03 758.892 859.57C758.892 858.108 760.018 856.925 761.405 856.925L781.597 856.925C782.985 856.925 784.111 858.108 784.111 859.57C784.111 861.03 782.985 862.214 781.597 862.214M821.978 862.214L801.788 862.214C800.4 862.214 799.274 861.03 799.274 859.57C799.274 858.108 800.4 856.925 801.788 856.925L821.978 856.925C823.367 856.925 824.492 858.108 824.492 859.57C824.492 861.03 823.367 862.214 821.978 862.214M862.362 862.214L842.17 862.214C840.783 862.214 839.657 861.03 839.657 859.57C839.657 858.108 840.783 856.925 842.17 856.925L862.362 856.925C863.75 856.925 864.876 858.108 864.876 859.57C864.876 861.03 863.75 862.214 862.362 862.214M902.745 862.214L882.553 862.214C881.165 862.214 880.039 861.03 880.039 859.57C880.039 858.108 881.165 856.925 882.553 856.925L902.745 856.925C904.132 856.925 905.258 858.108 905.258 859.57C905.258 861.03 904.132 862.214 902.745 862.214" fill="#c49a6c" fill-rule="nonzero" opacity="1" stroke="none" vectornator:layerName="path"/>
</g>
</g>
<g opacity="1" vectornator:layerName="path">
<clipPath id="ClipPath_9">
<path d="M814.795 470.059C807.864 470.059 801.555 474.264 798.596 480.857L798.596 480.857L753.411 581.481C750.79 587.321 751.19 594.168 754.475 599.625L754.475 599.625C757.761 605.083 763.472 608.387 769.611 608.387L769.611 608.387L961.766 608.387C971.66 608.387 979.681 599.946 979.681 589.535L979.681 589.535L979.681 488.912C979.681 478.5 971.66 470.059 961.766 470.059L961.766 470.059L814.795 470.059Z"/>
</clipPath>
<g clip-path="url(#ClipPath_9)">
<path d="M814.795 470.059C807.864 470.059 801.555 474.264 798.596 480.857L798.596 480.857L753.411 581.481C750.79 587.321 751.19 594.168 754.475 599.625L754.475 599.625C757.761 605.083 763.472 608.387 769.611 608.387L769.611 608.387L961.766 608.387C971.66 608.387 979.681 599.946 979.681 589.535L979.681 589.535L979.681 488.912C979.681 478.5 971.66 470.059 961.766 470.059L961.766 470.059L814.795 470.059Z" fill="url(#LinearGradient_3)" fill-rule="nonzero" opacity="1" stroke="none" vectornator:layerName="path"/>
</g>
</g>
<g opacity="1" vectornator:layerName="path">
<clipPath id="ClipPath_10">
<path d="M-153.607-343.984L1186.95-343.984L1186.95 1066.67L-153.607 1066.67L-153.607-343.984Z"/>
</clipPath>
<g clip-path="url(#ClipPath_10)">
<g opacity="1" vectornator:layerName="path">
<clipPath id="ClipPath_11">
<path d="M761.742 480.638L972.978 480.638L972.978 601.334L761.742 601.334L761.742 480.638Z"/>
</clipPath>
<g clip-path="url(#ClipPath_11)">
<path d="M862.961 484.166L843.3 484.166C842.374 484.166 841.625 483.377 841.625 482.402C841.625 481.427 842.374 480.639 843.3 480.639L862.961 480.639C863.888 480.639 864.637 481.427 864.637 482.402C864.637 483.377 863.888 484.166 862.961 484.166M902.285 484.166L882.622 484.166C881.697 484.166 880.946 483.377 880.946 482.402C880.946 481.427 881.697 480.639 882.622 480.639L902.285 480.639C903.211 480.639 903.96 481.427 903.96 482.402C903.96 483.377 903.211 484.166 902.285 484.166M941.608 484.166L921.946 484.166C921.019 484.166 920.27 483.377 920.27 482.402C920.27 481.427 921.019 480.639 921.946 480.639L941.608 480.639C942.533 480.639 943.284 481.427 943.284 482.402C943.284 483.377 942.533 484.166 941.608 484.166M807.814 492.347C807.575 492.347 807.332 492.293 807.1 492.178C806.263 491.762 805.906 490.711 806.301 489.831L807.846 486.387C809.416 482.894 812.799 480.639 816.471 480.639L823.638 480.639C824.564 480.639 825.313 481.427 825.313 482.402C825.313 483.377 824.564 484.166 823.638 484.166L816.471 484.166C814.09 484.166 811.893 485.629 810.877 487.893L809.331 491.335C809.044 491.974 808.443 492.347 807.814 492.347M971.303 497.845C970.378 497.845 969.628 497.055 969.628 496.082L969.628 490.674C969.628 487.086 966.853 484.166 963.443 484.166L961.269 484.166C960.342 484.166 959.593 483.377 959.593 482.402C959.593 481.427 960.342 480.639 961.269 480.639L963.443 480.639C968.703 480.639 972.979 485.141 972.979 490.674L972.979 496.082C972.979 497.055 972.23 497.845 971.303 497.845M791.014 529.758C790.776 529.758 790.531 529.705 790.302 529.59C789.464 529.172 789.107 528.123 789.501 527.243L797.901 508.536C798.296 507.656 799.293 507.276 800.131 507.695C800.969 508.111 801.326 509.162 800.93 510.042L792.532 528.747C792.245 529.386 791.642 529.758 791.014 529.758M971.303 539.225C970.378 539.225 969.628 538.435 969.628 537.462L969.628 516.771C969.628 515.798 970.378 515.008 971.303 515.008C972.23 515.008 972.979 515.798 972.979 516.771L972.979 537.462C972.979 538.435 972.23 539.225 971.303 539.225M774.213 567.172C773.975 567.172 773.731 567.119 773.499 567.003C772.662 566.586 772.305 565.535 772.7 564.656L781.099 545.95C781.496 545.07 782.493 544.688 783.331 545.107C784.169 545.525 784.524 546.575 784.13 547.456L775.73 566.161C775.443 566.798 774.842 567.172 774.213 567.172M971.303 580.603C970.378 580.603 969.628 579.815 969.628 578.84L969.628 558.151C969.628 557.176 970.378 556.387 971.303 556.387C972.23 556.387 972.979 557.176 972.979 558.151L972.979 578.84C972.979 579.815 972.23 580.603 971.303 580.603M771.353 601.334L771.286 601.334C767.998 601.334 764.987 599.59 763.227 596.669C762.256 595.053 761.743 593.197 761.743 591.303C761.743 589.815 762.051 588.37 762.663 587.009L764.3 583.361C764.695 582.481 765.687 582.102 766.532 582.52C767.368 582.938 767.725 583.987 767.331 584.868L765.692 588.517C765.295 589.402 765.094 590.34 765.094 591.303C765.094 592.528 765.428 593.731 766.059 594.78C767.2 596.677 769.153 597.808 771.286 597.808C772.212 597.808 772.997 598.598 772.997 599.571C772.997 600.546 772.279 601.334 771.353 601.334M810.676 601.334L791.014 601.334C790.089 601.334 789.338 600.546 789.338 599.571C789.338 598.598 790.089 597.808 791.014 597.808L810.676 597.808C811.603 597.808 812.352 598.598 812.352 599.571C812.352 600.546 811.603 601.334 810.676 601.334M850 601.334L830.337 601.334C829.412 601.334 828.662 600.546 828.662 599.571C828.662 598.598 829.412 597.808 830.337 597.808L850 597.808C850.925 597.808 851.675 598.598 851.675 599.571C851.675 600.546 850.925 601.334 850 601.334M889.322 601.334L869.661 601.334C868.734 601.334 867.985 600.546 867.985 599.571C867.985 598.598 868.734 597.808 869.661 597.808L889.322 597.808C890.248 597.808 890.997 598.598 890.997 599.571C890.997 600.546 890.248 601.334 889.322 601.334M928.645 601.334L908.984 601.334C908.058 601.334 907.308 600.546 907.308 599.571C907.308 598.598 908.058 597.808 908.984 597.808L928.645 597.808C929.572 597.808 930.321 598.598 930.321 599.571C930.321 600.546 929.572 601.334 928.645 601.334M963.444 601.334L948.308 601.334C947.381 601.334 946.632 600.546 946.632 599.571C946.632 598.598 947.381 597.808 948.308 597.808L963.443 597.808C964.642 597.806 965.805 597.443 966.807 596.758C967.587 596.228 968.622 596.459 969.125 597.273C969.631 598.09 969.411 599.183 968.637 599.712C967.091 600.772 965.294 601.332 963.444 601.334" fill="#a97c50" fill-rule="nonzero" opacity="1" stroke="none" vectornator:layerName="path"/>
</g>
</g>
<path d="M861.286 482.402L841.625 482.402C840.698 482.402 839.949 481.614 839.949 480.639C839.949 479.664 840.698 478.876 841.625 478.876L861.286 478.876C862.212 478.876 862.961 479.664 862.961 480.639C862.961 481.614 862.212 482.402 861.286 482.402M900.609 482.402L880.946 482.402C880.022 482.402 879.271 481.614 879.271 480.639C879.271 479.664 880.022 478.876 880.946 478.876L900.609 478.876C901.536 478.876 902.285 479.664 902.285 480.639C902.285 481.614 901.536 482.402 900.609 482.402M939.933 482.402L920.27 482.402C919.343 482.402 918.594 481.614 918.594 480.639C918.594 479.664 919.343 478.876 920.27 478.876L939.933 478.876C940.858 478.876 941.608 479.664 941.608 480.639C941.608 481.614 940.858 482.402 939.933 482.402M806.139 490.584C805.899 490.584 805.656 490.529 805.425 490.415C804.587 489.999 804.23 488.948 804.625 488.068L806.17 484.624C807.741 481.131 811.124 478.876 814.795 478.876L821.962 478.876C822.889 478.876 823.638 479.664 823.638 480.639C823.638 481.614 822.889 482.402 821.962 482.402L814.795 482.402C812.414 482.402 810.217 483.866 809.202 486.13L807.655 489.572C807.369 490.21 806.767 490.584 806.139 490.584M969.628 496.082C968.703 496.082 967.952 495.292 967.952 494.319L967.952 488.911C967.952 485.322 965.177 482.402 961.767 482.402L959.593 482.402C958.667 482.402 957.918 481.614 957.918 480.639C957.918 479.664 958.667 478.876 959.593 478.876L961.767 478.876C967.027 478.876 971.303 483.377 971.303 488.911L971.303 494.319C971.303 495.292 970.554 496.082 969.628 496.082M789.338 527.995C789.1 527.995 788.855 527.942 788.626 527.827C787.788 527.409 787.431 526.36 787.825 525.48L796.225 506.773C796.621 505.893 797.618 505.512 798.455 505.932C799.293 506.348 799.65 507.399 799.255 508.279L790.856 526.984C790.57 527.622 789.966 527.995 789.338 527.995M969.628 537.462C968.703 537.462 967.952 536.672 967.952 535.698L967.952 515.008C967.952 514.034 968.703 513.244 969.628 513.244C970.554 513.244 971.303 514.034 971.303 515.008L971.303 535.698C971.303 536.672 970.554 537.462 969.628 537.462M772.538 565.409C772.3 565.409 772.055 565.356 771.824 565.239C770.986 564.823 770.629 563.772 771.024 562.892L779.423 544.187C779.82 543.307 780.817 542.925 781.655 543.344C782.493 543.762 782.848 544.811 782.454 545.693L774.054 564.398C773.768 565.035 773.166 565.409 772.538 565.409M969.628 578.84C968.703 578.84 967.952 578.051 967.952 577.076L967.952 556.387C967.952 555.412 968.703 554.624 969.628 554.624C970.554 554.624 971.303 555.412 971.303 556.387L971.303 577.076C971.303 578.051 970.554 578.84 969.628 578.84M769.677 599.571L769.61 599.571C766.322 599.571 763.311 597.827 761.552 594.905C760.58 593.29 760.067 591.433 760.067 589.539C760.067 588.051 760.375 586.607 760.987 585.246L762.624 581.597C763.02 580.718 764.012 580.338 764.856 580.756C765.692 581.174 766.049 582.223 765.655 583.105L764.017 586.753C763.62 587.639 763.418 588.577 763.418 589.539C763.418 590.765 763.752 591.968 764.384 593.017C765.525 594.914 767.477 596.044 769.61 596.044C770.537 596.044 771.321 596.834 771.321 597.808C771.321 598.783 770.604 599.571 769.677 599.571M809.001 599.571L789.338 599.571C788.413 599.571 787.662 598.783 787.662 597.808C787.662 596.834 788.413 596.044 789.338 596.044L809.001 596.044C809.927 596.044 810.676 596.834 810.676 597.808C810.676 598.783 809.927 599.571 809.001 599.571M848.324 599.571L828.662 599.571C827.737 599.571 826.986 598.783 826.986 597.808C826.986 596.834 827.737 596.044 828.662 596.044L848.324 596.044C849.249 596.044 850 596.834 850 597.808C850 598.783 849.249 599.571 848.324 599.571M887.646 599.571L867.985 599.571C867.058 599.571 866.309 598.783 866.309 597.808C866.309 596.834 867.058 596.044 867.985 596.044L887.646 596.044C888.573 596.044 889.322 596.834 889.322 597.808C889.322 598.783 888.573 599.571 887.646 599.571M926.969 599.571L907.308 599.571C906.382 599.571 905.633 598.783 905.633 597.808C905.633 596.834 906.382 596.044 907.308 596.044L926.969 596.044C927.896 596.044 928.645 596.834 928.645 597.808C928.645 598.783 927.896 599.571 926.969 599.571M961.769 599.571L946.632 599.571C945.705 599.571 944.956 598.783 944.956 597.808C944.956 596.834 945.705 596.044 946.632 596.044L961.767 596.044C962.967 596.043 964.13 595.679 965.132 594.995C965.911 594.464 966.946 594.695 967.449 595.51C967.955 596.326 967.736 597.42 966.961 597.949C965.415 599.008 963.618 599.569 961.769 599.571" fill="#c49a6c" fill-rule="nonzero" opacity="1" stroke="none" vectornator:layerName="path"/>
<g opacity="1" vectornator:layerName="path">
<clipPath id="ClipPath_12">
<path d="M816.955 487.942L923.333 487.942L923.333 599.881L816.955 599.881L816.955 487.942Z"/>
</clipPath>
<g clip-path="url(#ClipPath_12)">
<path d="M870.144 599.881C840.816 599.881 816.955 574.773 816.955 543.912C816.955 513.05 840.816 487.943 870.144 487.943C899.472 487.943 923.332 513.05 923.332 543.912C923.332 574.773 899.472 599.881 870.144 599.881" fill="#d1d3d4" fill-rule="nonzero" opacity="1" stroke="none" vectornator:layerName="path"/>
</g>
</g>
</g>
</g>
<g opacity="1" vectornator:layerName="path">
<clipPath id="ClipPath_13">
<path d="M812.499 539.223C812.499 570.084 836.361 595.192 865.687 595.192L865.687 595.192C895.015 595.192 918.875 570.084 918.875 539.223L918.875 539.223C918.875 508.361 895.015 483.253 865.687 483.253L865.687 483.253C836.361 483.253 812.499 508.361 812.499 539.223"/>
</clipPath>
<g clip-path="url(#ClipPath_13)">
<path d="M812.499 539.223C812.499 570.084 836.361 595.192 865.687 595.192L865.687 595.192C895.015 595.192 918.875 570.084 918.875 539.223L918.875 539.223C918.875 508.361 895.015 483.253 865.687 483.253L865.687 483.253C836.361 483.253 812.499 508.361 812.499 539.223" fill="url(#LinearGradient_4)" fill-rule="nonzero" opacity="1" stroke="none" vectornator:layerName="path"/>
</g>
</g>
<g opacity="1" vectornator:layerName="path">
<clipPath id="ClipPath_14">
<path d="M815.85 539.223C815.85 568.187 838.162 591.667 865.687 591.667L865.687 591.667C893.212 591.667 915.524 568.187 915.524 539.223L915.524 539.223C915.524 510.259 893.212 486.778 865.687 486.778L865.687 486.778C838.162 486.778 815.85 510.259 815.85 539.223"/>
</clipPath>
<g clip-path="url(#ClipPath_14)">
<path d="M815.85 539.223C815.85 568.187 838.162 591.667 865.687 591.667L865.687 591.667C893.212 591.667 915.524 568.187 915.524 539.223L915.524 539.223C915.524 510.259 893.212 486.778 865.687 486.778L865.687 486.778C838.162 486.778 815.85 510.259 815.85 539.223" fill="url(#RadialGradient)" fill-rule="nonzero" opacity="1" stroke="none" vectornator:layerName="path"/>
</g>
</g>
</g>
</svg>
