<?xml version="1.0" encoding="UTF-8" standalone="no"?>
<!DOCTYPE svg PUBLIC "-//W3C//DTD SVG 1.1//EN" "http://www.w3.org/Graphics/SVG/1.1/DTD/svg11.dtd">
<!-- Created with Vectornator (http://vectornator.io/) -->
<svg height="100%" stroke-miterlimit="10" style="fill-rule:nonzero;clip-rule:evenodd;stroke-linecap:round;stroke-linejoin:round;" version="1.1" viewBox="0 0 511.999 511.999" width="100%" xml:space="preserve" xmlns="http://www.w3.org/2000/svg" xmlns:vectornator="http://vectornator.io" xmlns:xlink="http://www.w3.org/1999/xlink">
<defs>
<linearGradient gradientTransform="matrix(0.768071 0 0 0.682185 124.458 197.645)" gradientUnits="userSpaceOnUse" id="LinearGradient" x1="442.866" x2="442.866" y1="441" y2="510">
<stop offset="0" stop-color="#e3e4e8"/>
<stop offset="1" stop-color="#ffffff" stop-opacity="0"/>
</linearGradient>
<linearGradient gradientTransform="matrix(0.768071 0 0 0.682185 124.458 197.645)" gradientUnits="userSpaceOnUse" id="LinearGradient_2" x1="388.5" x2="496.5" y1="222" y2="222">
<stop offset="0" stop-color="#e6e7eb"/>
<stop offset="1" stop-color="#9b9da4"/>
</linearGradient>
<radialGradient cx="442.012" cy="91.5156" gradientTransform="matrix(0.768071 0 0 0.682185 124.458 197.645)" gradientUnits="userSpaceOnUse" id="RadialGradient" r="48.4638">
<stop offset="0" stop-color="#58585f"/>
<stop offset="0.1926" stop-color="#525259"/>
<stop offset="0.4503" stop-color="#424148"/>
<stop offset="0.7435" stop-color="#27252d"/>
<stop offset="1" stop-color="#09070f"/>
</radialGradient>
<linearGradient gradientTransform="matrix(0.768071 0 0 0.682185 124.458 197.645)" gradientUnits="userSpaceOnUse" id="LinearGradient_3" x1="413.284" x2="413.284" y1="153.439" y2="193.636">
<stop offset="0" stop-color="#090000"/>
<stop offset="0.9987" stop-color="#535459"/>
</linearGradient>
<linearGradient gradientTransform="matrix(0.768071 0 0 0.682185 124.458 197.645)" gradientUnits="userSpaceOnUse" id="LinearGradient_4" x1="470.51" x2="470.51" y1="153.439" y2="193.636">
<stop offset="0" stop-color="#090000"/>
<stop offset="0.9987" stop-color="#535459"/>
</linearGradient>
<linearGradient gradientTransform="matrix(0.768071 0 0 0.682185 124.458 197.645)" gradientUnits="userSpaceOnUse" id="LinearGradient_5" x1="194.499" x2="194.499" y1="425" y2="510">
<stop offset="0" stop-color="#7f7f7f"/>
<stop offset="1" stop-color="#fefefe" stop-opacity="0"/>
</linearGradient>
<linearGradient gradientTransform="matrix(0.768071 0 0 0.682185 124.458 197.645)" gradientUnits="userSpaceOnUse" id="LinearGradient_6" x1="15.6777" x2="372.828" y1="353.982" y2="353.982">
<stop offset="0" stop-color="#020202"/>
<stop offset="0.0508" stop-color="#fcfcfc"/>
<stop offset="0.1085" stop-color="#656565"/>
<stop offset="0.1466" stop-color="#545454"/>
<stop offset="0.2414" stop-color="#2f2f2f"/>
<stop offset="0.318" stop-color="#181818"/>
<stop offset="0.3664" stop-color="#101010"/>
<stop offset="0.5882" stop-color="#070707"/>
<stop offset="0.8626" stop-color="#030303"/>
<stop offset="0.9042" stop-color="#f6f6f6"/>
<stop offset="0.9418" stop-color="#030303"/>
</linearGradient>
</defs>
<clipPath id="ArtboardFrame">
<rect height="511.999" width="511.999" x="0" y="0"/>
</clipPath>
<g clip-path="url(#ArtboardFrame)" id="Untitled" vectornator:layerName="Untitled">
<path d="M120.01 30.581L98.53 52.062C68.262 82.329 67.823 203.868 142.514 278.56C217.205 353.252 338.745 352.812 369.012 322.545L391.924 299.633L120.01 30.581Z" fill="#ecf0f1" fill-rule="nonzero" opacity="1" stroke="none" vectornator:layerName="path"/>
<path d="M392.358 298.282C355.107 335.533 264.358 305.18 189.665 230.487C114.973 155.794 84.6199 65.0459 121.871 27.795C159.122-9.45601 249.87 20.8967 324.563 95.5896C399.256 170.282 429.609 261.031 392.358 298.282Z" fill="#e0e0e0" fill-rule="nonzero" opacity="1" stroke="none" vectornator:layerName="ellipse"/>
<g opacity="1" vectornator:layerName="g">
<path d="M269.754 102.198C268.739 101.372 267.728 100.556 266.717 99.752C261.564 95.651 254.064 96.506 249.962 101.659C245.863 106.812 246.715 114.314 251.869 118.414C252.807 119.16 253.747 119.918 254.689 120.685C256.902 122.488 259.567 123.367 262.215 123.367C265.675 123.367 269.108 121.867 271.465 118.974C275.626 113.867 274.859 106.357 269.754 102.198Z" fill="#231f20" fill-rule="nonzero" opacity="1" stroke="none" vectornator:layerName="path"/>
<path d="M489.03 116.731C489.03 113.569 487.773 110.535 485.538 108.3L453.741 76.503C451.504 74.267 448.472 73.011 445.31 73.011C442.148 73.011 439.114 74.268 436.879 76.503L416.808 96.574C412.152 101.23 412.152 108.78 416.808 113.436C421.465 118.092 429.013 118.092 433.672 113.436L445.312 101.796L460.245 116.729L399.421 177.553C384.156 146.695 361.277 115.431 332.998 87.152L332.998 87.152C252.434 6.589 155.995-23.189 113.441 19.363C111.34 21.463 90.097 43.631 90.097 43.631C71.69 62.039 63.54 103.843 69.331 150.132C73.104 180.288 86.192 237.243 131.26 284.083C131.25 284.274 131.231 284.462 131.231 284.655L131.231 377.286L72.819 435.7C72.806 435.713 72.793 435.726 72.78 435.741L26.461 482.06C21.805 486.716 21.805 494.266 26.461 498.922C28.79 501.251 31.841 502.414 34.892 502.414C37.943 502.414 40.996 501.249 43.323 498.922L83.751 458.495L131.232 482.211L131.232 500.076C131.232 506.661 136.571 512 143.156 512C149.741 512 155.08 506.662 155.08 500.076L155.08 482.21L202.561 458.494L242.989 498.921C245.318 501.25 248.369 502.413 251.42 502.413C254.471 502.413 257.523 501.248 259.851 498.921C264.507 494.265 264.507 486.715 259.851 482.059L213.522 435.73C213.521 435.729 213.52 435.728 213.518 435.725L155.08 377.287L155.08 305.354C197.742 338.025 244.582 348.445 270.944 351.743C280.838 352.982 290.525 353.582 299.824 353.582C334.033 353.582 362.973 345.449 377.446 330.976C377.446 330.976 402.137 305.915 402.709 304.7C422.393 283.15 425.625 248.671 411.751 207.188C411.075 205.166 410.351 203.136 409.601 201.102L485.54 125.163C487.775 122.927 489.03 119.894 489.03 116.731ZM101.529 440.717L131.232 411.014L131.232 455.554L101.529 440.717ZM155.079 455.554L155.079 411.014L184.782 440.717L155.079 455.554ZM273.903 328.082C246.154 324.61 193.28 312.464 150.946 270.13C94.196 213.378 84.669 130.638 94.972 86.448C100.44 132.143 130.941 188.623 181.235 238.917C232.67 290.353 290.564 321.065 336.786 325.492C320.821 329.597 298.959 331.215 273.903 328.082ZM383.926 289.846C369.486 304.287 342.117 306.185 308.833 295.053C272.267 282.823 232.94 256.899 198.097 222.054C163.253 187.211 137.328 147.884 125.098 111.318C113.966 78.036 115.864 50.665 130.304 36.225C138.527 28.002 150.938 23.847 166.249 23.847C177.828 23.847 191.066 26.225 205.398 31.018C241.964 43.248 281.291 69.172 316.134 104.017C344.915 132.798 367.602 164.638 381.521 195.453L358.713 218.261C358.291 217.149 357.882 216.042 357.428 214.916C346.295 187.345 326.095 157.442 300.55 130.712C295.999 125.951 288.451 125.78 283.691 130.33C278.931 134.88 278.759 142.428 283.309 147.189C306.818 171.786 325.286 199.009 335.315 223.845C337.627 229.571 339.407 235.014 340.652 240.068C340.286 243.526 341.422 247.112 344.073 249.763C346.402 252.092 349.453 253.255 352.504 253.255C355.555 253.255 358.607 252.091 360.935 249.763L390.767 219.931C400.021 250.865 397.609 276.162 383.926 289.846Z" fill="#231f20" fill-rule="nonzero" opacity="1" stroke="none" vectornator:layerName="path"/>
</g>
<g opacity="1" vectornator:layerName="Apple_tv_third_generation">
<g opacity="1" vectornator:layerName="remote">
<path d="M424.006 504.983C424.006 501.512 428.242 498.488 432.693 498.488L495.693 498.488C500.143 498.488 504.728 502.256 504.728 505.726L505.216 545.559L424.006 545.559L424.006 504.983Z" fill="url(#LinearGradient)" fill-rule="nonzero" opacity="1" stroke="none" vectornator:layerName="path"/>
<path d="M505.806 488.202C505.806 494.071 500.448 498.829 493.841 498.829L434.819 498.829C428.21 498.829 422.854 494.071 422.854 488.202L422.854 209.978C422.854 204.109 428.211 199.35 434.819 199.35L493.841 199.35C500.449 199.35 505.806 204.109 505.806 209.978L505.806 488.202Z" fill="url(#LinearGradient_2)" fill-rule="nonzero" opacity="1" stroke="none" vectornator:layerName="path"/>
<path d="M501.896 260.076C501.896 277.976 484.908 292.487 463.954 292.487C443 292.487 426.013 277.976 426.013 260.076C426.013 242.176 443 227.665 463.954 227.665C484.908 227.664 501.896 242.176 501.896 260.076ZM463.542 276.559C474.02 276.559 482.513 269.044 482.513 259.773C482.513 250.503 474.02 242.988 463.542 242.988C453.064 242.988 444.571 250.503 444.571 259.773C444.57 269.044 453.064 276.559 463.542 276.559Z" fill="url(#RadialGradient)" fill-rule="nonzero" opacity="1" stroke="none" vectornator:layerName="path"/>
<path d="M425.832 316.03C425.832 308.457 433.021 302.319 441.89 302.319C450.758 302.319 457.948 308.457 457.948 316.03C457.948 323.602 450.758 329.741 441.89 329.741C433.021 329.741 425.832 323.602 425.832 316.03Z" fill="url(#LinearGradient_3)" fill-rule="nonzero" opacity="1" stroke="none" vectornator:layerName="ellipse"/>
<path d="M469.785 316.03C469.785 308.457 476.975 302.319 485.843 302.319C494.712 302.319 501.901 308.457 501.901 316.03C501.901 323.602 494.712 329.741 485.843 329.741C476.975 329.741 469.785 323.602 469.785 316.03Z" fill="url(#LinearGradient_4)" fill-rule="nonzero" opacity="1" stroke="none" vectornator:layerName="ellipse"/>
<path d="M461.727 230.134C461.727 229.264 462.552 228.558 463.57 228.558C464.588 228.558 465.413 229.264 465.413 230.134C465.413 231.004 464.588 231.71 463.57 231.71C462.552 231.71 461.727 231.004 461.727 230.134Z" fill="#ffffff" fill-rule="nonzero" opacity="1" stroke="none" vectornator:layerName="ellipse"/>
<path d="M495.913 260.497C495.913 259.627 496.738 258.921 497.756 258.921C498.774 258.921 499.6 259.627 499.6 260.497C499.6 261.368 498.774 262.073 497.756 262.073C496.738 262.073 495.913 261.368 495.913 260.497Z" fill="#ffffff" fill-rule="nonzero" opacity="1" stroke="none" vectornator:layerName="ellipse"/>
<path d="M428.517 258.762C428.517 257.891 429.342 257.186 430.36 257.186C431.378 257.186 432.204 257.891 432.204 258.762C432.204 259.632 431.378 260.338 430.36 260.338C429.342 260.338 428.517 259.632 428.517 258.762Z" fill="#ffffff" fill-rule="nonzero" opacity="1" stroke="none" vectornator:layerName="ellipse"/>
<path d="M481.611 318.392L481.611 312.867L486.129 315.473M488.524 313.616L487.756 313.616L487.756 317.709L488.524 317.709L488.524 313.616ZM490.06 317.709L489.292 317.709L489.292 313.616L490.06 313.616L490.06 317.709Z" fill="#f1f2f2" fill-rule="nonzero" opacity="1" stroke="none" vectornator:layerName="path"/>
<path d="M437.174 316.059C437.138 315.53 437.095 314.894 437.102 314.42L437.082 314.42C436.92 314.865 436.721 315.339 436.481 315.862L435.641 317.704L435.175 317.704L434.406 315.895C434.181 315.361 433.989 314.871 433.855 314.42L433.84 314.42C433.826 314.894 433.791 315.53 433.749 316.099L433.622 317.726L433.035 317.726L433.366 313.931L434.151 313.931L434.963 315.766C435.16 316.233 435.324 316.65 435.443 317.044L435.465 317.044C435.584 316.661 435.754 316.245 435.967 315.766L436.813 313.931L437.597 313.931L437.893 317.726L437.294 317.726L437.174 316.059ZM441.308 315.947L439.458 315.947L439.458 317.314L441.52 317.314L441.52 317.726L438.844 317.726L438.844 313.931L441.415 313.931L441.415 314.341L439.459 314.341L439.459 315.541L441.309 315.541L441.309 315.947L441.308 315.947ZM442.321 317.725L442.321 313.93L442.991 313.93L444.516 315.85C444.868 316.295 445.145 316.694 445.371 317.083L445.384 317.078C445.328 316.571 445.315 316.109 445.315 315.517L445.315 313.93L445.894 313.93L445.894 317.725L445.272 317.725L443.76 315.799C443.427 315.377 443.111 314.944 442.871 314.532L442.849 314.538C442.885 315.017 442.9 315.472 442.9 316.103L442.9 317.724L442.321 317.724L442.321 317.725ZM447.583 313.93L447.583 316.177C447.583 317.027 448.057 317.387 448.693 317.387C449.398 317.387 449.851 317.016 449.851 316.177L449.851 313.93L450.472 313.93L450.472 316.142C450.472 317.309 449.703 317.788 448.672 317.788C447.697 317.788 446.964 317.342 446.964 316.166L446.964 313.931L447.583 313.931L447.583 313.93Z" fill="#ffffff" fill-rule="nonzero" opacity="1" stroke="none" vectornator:layerName="path"/>
<path d="M461.727 289.126C461.727 288.255 462.552 287.55 463.57 287.55C464.588 287.55 465.413 288.255 465.413 289.126C465.413 289.996 464.588 290.702 463.57 290.702C462.552 290.702 461.727 289.996 461.727 289.126Z" fill="#ffffff" fill-rule="nonzero" opacity="1" stroke="none" vectornator:layerName="ellipse"/>
</g>
<g opacity="1" vectornator:layerName="apple_tv_third_gen">
<path d="M139.052 487.573L408.645 487.573L408.645 487.573L408.645 545.559L408.645 545.559L139.052 545.559L139.052 545.559L139.052 487.573L139.052 487.573Z" fill="url(#LinearGradient_5)" fill-rule="nonzero" opacity="1" stroke="none" vectornator:layerName="rect"/>
<path d="M409.992 478.903C409.992 493.397 398.922 501.899 380.445 505.31L167.023 505.31C145.291 501.899 136.499 493.397 136.499 478.903L137.476 435.986C137.476 424.861 388.746 372.942 388.746 372.942C388.746 372.942 407.602 421.968 410.2 439.043C411.701 448.906 409.992 478.903 409.992 478.903Z" fill="url(#LinearGradient_6)" fill-rule="nonzero" opacity="1" stroke="none" vectornator:layerName="path"/>
<path d="M408.365 432.399C411.067 446.693 397.252 456.4 380.933 456.4C380.933 456.4 220.989 459.328 167.513 456.4C141.574 454.981 135.486 444.266 137.966 429.941C139.715 419.835 150.617 386.492 155.547 374.017C159.704 363.498 167.43 357.958 186.315 357.276L346.177 357.276C370.922 356.594 389.154 365.341 393.062 379.258C396.799 392.573 405.811 418.892 408.365 432.399Z" fill="#444242" fill-rule="nonzero" opacity="1" stroke="none" vectornator:layerName="path"/>
<g opacity="1" vectornator:layerName="g">
<path d="M327.43 393.811L335.305 393.811L319.478 407.582L312.279 407.582L296.07 393.811L304.12 393.811L312.512 401.551C313.925 402.802 315.077 403.939 315.977 405.077L316.232 405.077C317.136 403.939 318.293 402.802 319.624 401.551L327.43 393.811Z" fill="#000000" fill-rule="nonzero" opacity="1" stroke="none" vectornator:layerName="path"/>
<path d="M281.033 389.856L281.162 393.811L291.955 393.811L292.018 395.718L281.224 395.718L281.467 403.143C281.522 404.847 283.014 405.817 287.206 405.817C289.175 405.817 290.631 405.732 291.569 405.644L291.973 407.521C290.53 407.722 288.214 407.862 285.305 407.862C281.788 407.862 278.956 407.493 277.132 406.814C274.963 406.075 274.158 404.847 274.105 403.227L273.86 395.718L267.426 395.718L267.363 393.811L273.797 393.811L273.688 390.511L281.033 389.856Z" fill="#000000" fill-rule="nonzero" opacity="1" stroke="none" vectornator:layerName="path"/>
<path d="M251.342 399.01C251.74 400.687 254.529 401.824 259.017 402.557C258.838 402.728 258.66 402.905 258.463 403.083C257.498 403.95 256.189 404.755 254.596 405.507C253.861 405.857 253.125 406.203 252.274 406.517C251.423 406.829 250.491 407.111 249.337 407.3C248.403 407.456 247.407 407.531 246.361 407.531C246.281 407.531 246.201 407.529 246.12 407.528C244.88 407.512 243.724 407.397 242.595 407.235C241.763 407.114 240.934 406.99 240.061 406.91C239.124 406.822 238.177 406.781 237.22 406.781C236.764 406.781 236.307 406.792 235.848 406.808C234.628 406.852 233.489 406.981 232.378 407.138C231.52 407.262 230.673 407.387 229.761 407.464C229.117 407.518 228.467 407.551 227.807 407.551C227.631 407.551 227.454 407.548 227.277 407.543C226.318 407.516 225.444 407.398 224.63 407.234C223.515 407.005 222.582 406.711 221.737 406.386C218.016 404.951 215.361 403.331 213.895 401.501C213.492 400.991 213.176 400.476 212.983 399.953C212.771 399.359 212.716 398.76 212.863 398.165C213.074 397.356 213.647 396.581 214.774 395.861C216.384 394.844 218.759 394.096 221.98 393.658C223.526 393.445 225.16 393.34 226.84 393.34C228.104 393.345 229.232 393.425 230.326 393.553C231.411 393.679 232.48 393.823 233.556 393.952C234.094 394.016 234.641 394.072 235.196 394.12C235.478 394.145 235.758 394.158 236.036 394.158C236.541 394.158 237.038 394.119 237.523 394.059C238.521 393.943 239.502 393.815 240.491 393.69C241.48 393.565 242.478 393.452 243.513 393.377C244.357 393.312 245.204 393.284 246.059 393.284C246.385 393.284 246.713 393.289 247.043 393.296C248.873 393.34 250.627 393.481 252.288 393.742C254.285 394.059 255.925 394.519 257.202 395.117C253.233 396.087 250.944 397.326 251.342 399.01Z" fill="#000000" fill-rule="nonzero" opacity="1" stroke="none" vectornator:layerName="path"/>
<path d="M235.705 393.088C235.6 393.084 235.564 393.072 235.554 393.035C235.331 392.401 235.716 391.801 236.497 391.226C238.084 390.053 240.784 389.285 244.462 388.887C245.128 388.815 245.813 388.77 246.515 388.755C246.545 388.753 246.572 388.753 246.602 388.753C246.659 388.753 246.72 388.755 246.796 388.755C246.818 388.895 246.858 389.032 246.845 389.173C246.751 390.326 245.393 391.299 242.95 392.099C241.785 392.482 240.406 392.758 238.856 392.936C237.952 393.039 237.033 393.092 236.087 393.092C235.96 393.091 235.833 393.091 235.705 393.088Z" fill="#000000" fill-rule="nonzero" opacity="1" stroke="none" vectornator:layerName="path"/>
</g>
</g>
</g>
</g>
</svg>
