<?xml version="1.0" encoding="iso-8859-1"?>
<!-- Generator: Adobe Illustrator 19.0.0, SVG Export Plug-In . SVG Version: 6.00 Build 0)  -->
<svg version="1.1" id="Layer_1" xmlns="http://www.w3.org/2000/svg" xmlns:xlink="http://www.w3.org/1999/xlink" x="0px" y="0px"
	 viewBox="0 0 512.001 512.001" style="enable-background:new 0 0 512.001 512.001;" xml:space="preserve">
<path style="fill:#5D9EBA;" d="M310.458,334.48H205.907c-37.866,0-68.563,30.696-68.563,68.563v100.64H379.02v-100.64
	C379.021,365.177,348.324,334.48,310.458,334.48z"/>
<rect x="214.948" y="321.052" style="fill:#71C5F4;" width="86.471" height="100.573"/>
<path style="fill:#508DA3;" d="M248.151,334.48h-42.245c-37.866,0-68.563,30.696-68.563,68.563v100.64h42.245v-100.64
	C179.588,365.177,210.286,334.48,248.151,334.48z"/>
<g>
	<path style="fill:#71C5F4;" d="M184.28,418.245v85.44h-46.938V399.044c0-15.022,5.399-28.791,14.379-39.466l0.211,0.177
		C172.063,372.393,184.28,394.488,184.28,418.245z"/>
	<path style="fill:#71C5F4;" d="M379.018,399.044v104.641h-46.938v-85.44c0-23.757,12.228-45.852,32.349-58.49l0.211-0.177
		C373.619,370.254,379.018,384.022,379.018,399.044z"/>
</g>
<rect x="214.948" y="469.85" style="fill:#508DA3;" width="86.471" height="33.835"/>
<rect x="425.639" y="354.787" style="fill:#F9C573;" width="36.582" height="148.897"/>
<rect x="425.639" y="354.787" style="fill:#E2AF66;" width="17.86" height="148.897"/>
<polygon style="fill:#E6E6E6;" points="21.93,376.315 21.687,140.857 65.36,140.809 78.143,160.976 75.001,183.713 87.784,203.872 
	84.643,226.608 97.426,246.766 94.274,269.512 107.048,289.67 103.915,312.406 116.699,332.565 113.556,355.302 126.35,375.46 
	123.275,397.729 "/>
<path style="fill:#EA8249;" d="M142.833,415.297l-43.395-38.976c-5.815-5.223-13.6-7.684-21.361-6.751l-61.276,7.358l0.114,111.763
	c0.006,4.856,5.187,7.951,9.464,5.654l4.999-2.684c6.243-3.352,13.771-3.257,19.927,0.252l0,0
	c21.096,12.026,46.166,14.985,69.482,8.2l10.935-3.182c7.629-2.219,12.811-9.296,12.625-17.24L142.833,415.297z M104.875,458.461
	H59.638c-7.656,0-13.863-6.207-13.863-13.863c0-7.656,6.207-13.863,13.863-13.863h45.237c7.656,0,13.863,6.207,13.863,13.863
	C118.738,452.254,112.531,458.461,104.875,458.461z"/>
<g>
	<path style="fill:#E0B394;" d="M141.312,240.773c-13.747-0.61-24.689-11.951-24.689-25.842c0-14.279,11.574-25.864,25.864-25.864
		c1.286,0,2.55,0.089,3.791,0.277L141.312,240.773z"/>
	<path style="fill:#E0B394;" d="M375.029,240.773c13.747-0.61,24.7-11.951,24.7-25.842c0-14.279-11.585-25.864-25.875-25.864
		c-1.286,0-2.561,0.1-3.791,0.277L375.029,240.773z"/>
</g>
<path style="fill:#F7CBA4;" d="M220.76,352.57l-45.507-33.063c-24.048-17.472-37.057-46.364-34.198-75.952l7.893-81.68
	c5.437-56.256,52.711-99.183,109.229-99.183l0,0c56.518,0,103.792,42.926,109.229,99.183l7.893,81.68
	c2.859,29.588-10.149,58.479-34.198,75.952l-45.507,33.063C273.281,368.78,243.07,368.78,220.76,352.57z"/>
<path style="fill:#E0B394;" d="M169.373,259.652c-0.765,12.937,3.448,25.664,11.785,35.586l47.563,58.446
	c2.483,2.96,5.299,5.443,8.348,7.428c-5.72-1.995-11.219-4.856-16.308-8.547l-45.508-33.059
	c-24.046-17.472-37.05-46.362-34.189-75.951l7.882-81.682c5.388-55.707,51.794-98.344,107.59-99.154
	c-34.367,0.831-73.282,33.225-75.311,67.725L169.373,259.652z"/>
<path style="fill:#EA8249;" d="M377.115,132.476h-9.741c0-30.154-12.217-57.448-31.983-77.214
	c-14.656-14.656-33.458-25.165-54.488-29.611h-0.003V8.315h-45.453v17.337c-49.398,10.455-86.468,54.311-86.468,106.824h-9.748
	l-6.666,33.258h75.23l9.561,27.715h81.637l9.561-27.715h75.23L377.115,132.476z"/>
<path style="fill:#D36F3D;" d="M184.637,132.477c0-52.514,24.965-96.369,58.232-106.824V8.315h-7.421v17.337
	c-49.398,10.455-86.468,54.311-86.468,106.824h-9.748l-6.666,33.258h66.87l4.49-33.258h-19.289V132.477z"/>
<rect x="392.215" y="297.495" style="fill:#808080;" width="103.444" height="57.293"/>
<path d="M208.669,275.199c-3.247,3.247-3.247,8.512,0,11.758c13.164,13.164,30.664,20.412,49.279,20.412
	c18.616,0,36.116-7.249,49.279-20.412c3.247-3.247,3.247-8.512,0-11.758c-3.248-3.247-8.512-3.247-11.759,0
	c-10.021,10.022-23.346,15.542-37.52,15.542c-14.172,0-27.498-5.52-37.52-15.542C217.179,271.952,211.915,271.953,208.669,275.199z"
	/>
<path d="M208.597,243.946c4.593,0,8.315-3.723,8.315-8.315v-13.299c0-4.592-3.722-8.315-8.315-8.315
	c-4.593,0-8.315,3.723-8.315,8.315v13.299C200.283,240.223,204.004,243.946,208.597,243.946z"/>
<path d="M307.3,243.946c4.593,0,8.315-3.723,8.315-8.315v-13.299c0-4.592-3.722-8.315-8.315-8.315s-8.315,3.723-8.315,8.315v13.299
	C298.985,240.223,302.708,243.946,307.3,243.946z"/>
<path d="M353.493,339.389c-3.923-2.381-9.038-1.132-11.422,2.793c-2.382,3.926-1.132,9.04,2.794,11.422
	c2.435,1.478,4.699,3.141,6.825,4.933c-17.784,14.597-28.15,36.277-28.15,59.711v77.122h-14.038v-25.513
	c0-4.592-3.722-8.315-8.315-8.315h-86.471c-4.593,0-8.315,3.723-8.315,8.315v25.513h-14.037v-77.122
	c0-23.433-10.363-45.109-28.144-59.706c2.14-1.817,4.409-3.482,6.809-4.939c3.924-2.383,5.175-7.497,2.793-11.422
	c-2.383-3.927-7.496-5.174-11.423-2.793c-9.43,5.726-17.474,13.715-23.262,23.103c-2.41,3.909-1.195,9.031,2.713,11.441
	c1.361,0.838,2.868,1.238,4.357,1.238c2.789,0,5.514-1.404,7.085-3.952c0.016-0.026,0.034-0.05,0.05-0.077
	c14.138,11.461,22.395,28.581,22.395,47.105v77.122h-16.819c-4.593,0-8.315,3.723-8.315,8.315c0,4.592,3.722,8.315,8.315,8.315h55.8
	h86.471h77.602c4.593,0,8.315-3.723,8.315-8.315V399.042C387.104,374.466,374.539,352.166,353.493,339.389z M223.03,495.371v-17.199
	h69.842v17.199H223.03z M370.475,495.371h-30.307v-77.122c0-18.529,8.262-35.655,22.409-47.116
	c5.087,8.226,7.898,17.81,7.898,27.911L370.475,495.371L370.475,495.371z"/>
<path d="M257.948,270.557c11.615,0,21.064-9.449,21.064-21.064v-32.704c0-4.592-3.722-8.315-8.315-8.315
	c-4.593,0-8.315,3.723-8.315,8.315v32.704c0,2.446-1.989,4.434-4.434,4.434c-2.446,0-4.434-1.989-4.434-4.434v-32.704
	c0-4.592-3.722-8.315-8.315-8.315c-4.593,0-8.315,3.723-8.315,8.315v32.704C236.884,261.108,246.334,270.557,257.948,270.557z"/>
<path d="M132.222,247.622c-1.314,30.685,12.922,60.453,37.917,78.605l45.508,33.07c12.65,9.193,27.471,13.788,42.299,13.787
	c14.823-0.001,29.654-4.596,42.308-13.787l45.507-33.07c24.988-18.155,39.219-47.923,37.906-78.605
	c14.058-4.28,24.151-17.309,24.151-32.691c0-17.58-13.35-32.099-30.447-33.969l-0.669-6.911h6.852c2.491,0,4.852-1.117,6.431-3.045
	c1.58-1.927,2.212-4.461,1.722-6.904l-6.667-33.258c-0.778-3.885-4.189-6.68-8.153-6.68h-1.718
	c-1.962-28.257-13.903-54.556-34.126-74.78c-14.537-14.537-32.427-24.899-52.057-30.254V8.315c0-4.592-3.722-8.315-8.315-8.315
	h-45.453c-4.593,0-8.315,3.723-8.315,8.315v10.831c-23.336,6.396-44.406,20.014-59.871,38.876
	c-15.391,18.771-24.551,41.994-26.274,66.143h-1.755c-3.962,0-7.373,2.795-8.153,6.68l-6.667,33.258
	c-0.49,2.443,0.142,4.977,1.722,6.904c1.579,1.928,3.94,3.045,6.431,3.045h6.848l-0.667,6.911
	c-17.091,1.871-30.436,16.389-30.436,33.969C108.082,230.312,118.17,243.34,132.222,247.622z M391.187,214.931
	c0,6.613-3.637,12.369-9.053,15.361l-3.066-31.743c0.079-0.069,0.154-0.139,0.231-0.208
	C386.203,200.704,391.187,207.241,391.187,214.931z M142.483,157.422l3.334-16.629h224.258l3.334,16.629H142.483z M294.994,174.051
	l-2.74,11.086h-68.618l-2.742-11.086H294.994z M329.283,61.143c17.081,17.081,27.283,39.21,29.214,63.021h-69.511V36.465
	C304.109,41.34,317.891,49.75,329.283,61.143z M243.534,16.629h28.824v107.535h-28.824V16.629z M226.905,36.489v87.675h-69.492
	C160.784,83.751,188.497,48.925,226.905,36.489z M203.765,174.051l5.289,21.396c0.918,3.712,4.248,6.319,8.072,6.319h81.638
	c3.824,0,7.154-2.607,8.072-6.319l5.289-21.396h47.871l0.957,9.907h-18.68c-4.593,0-8.315,3.723-8.315,8.315
	s3.722,8.315,8.315,8.315h20.286l4.227,43.763c2.564,26.538-9.237,52.756-30.802,68.424l-45.506,33.069
	c-19.462,14.135-45.607,14.136-65.057,0.001l-45.511-33.071c-21.57-15.666-33.376-41.884-30.811-68.423l6.792-70.299H203.765z
	 M136.848,198.245l-3.095,32.044c-5.409-2.993-9.042-8.748-9.042-15.359C124.711,207.144,129.814,200.534,136.848,198.245z"/>
<path d="M214.715,368.087c-4.593,0-8.315,3.723-8.315,8.315v45.231c0,4.592,3.722,8.315,8.315,8.315h86.471
	c4.593,0,8.315-3.723,8.315-8.315v-45.231c0-4.592-3.722-8.315-8.315-8.315s-8.315,3.723-8.315,8.315v36.917H223.03v-36.917
	C223.03,371.81,219.308,368.087,214.715,368.087z"/>
<path d="M150.92,415.102c-0.054-2.291-1.051-4.459-2.756-5.991l-16.274-14.617l2.471-17.898c0.268-1.949-0.162-3.931-1.217-5.593
	l-11.159-17.584l2.725-19.717c0.268-1.949-0.162-3.93-1.215-5.591l-11.154-17.587l2.717-19.72c0.268-1.947-0.162-3.926-1.214-5.586
	l-11.143-17.584l2.733-19.729c0.271-1.95-0.161-3.932-1.214-5.594l-11.153-17.585l2.726-19.719c0.268-1.949-0.162-3.93-1.215-5.591
	l-11.153-17.585l2.725-19.719c0.268-1.948-0.162-3.928-1.214-5.59l-12.783-20.168c-1.525-2.406-4.175-3.863-7.023-3.863
	c-0.003,0-0.007,0-0.01,0l-43.674,0.049c-4.592,0.006-8.309,3.732-8.305,8.323l0.028,26.755c0.004,4.59,3.726,8.306,8.315,8.306
	c0.002,0,0.006,0,0.009,0c4.593-0.004,8.31-3.732,8.306-8.323l-0.02-18.442l30.779-0.034l8.701,13.727l-2.725,19.72
	c-0.268,1.948,0.162,3.929,1.215,5.591l11.153,17.585l-2.726,19.719c-0.268,1.949,0.162,3.93,1.215,5.591l11.151,17.584
	l-2.733,19.727c-0.271,1.949,0.16,3.93,1.213,5.592l11.145,17.587L95.45,311.27c-0.268,1.948,0.162,3.928,1.215,5.588l11.153,17.585
	l-2.725,19.719c-0.269,1.949,0.162,3.931,1.217,5.593l11.159,17.585l-0.517,3.739l-12.186-10.945
	c-7.597-6.823-17.763-10.041-27.909-8.821l-46.851,5.626l-0.18-173.84c-0.004-4.59-3.726-8.306-8.315-8.306
	c-0.002,0-0.006,0-0.009,0c-4.592,0.004-8.31,3.732-8.306,8.323l0.182,176.132c-3.036,1.262-5.126,4.254-5.122,7.686l0.114,111.763
	c0.006,5.23,2.691,9.955,7.182,12.638c4.491,2.681,9.922,2.806,14.533,0.331l4.999-2.684c3.744-2.011,8.183-1.954,11.875,0.151
	c14.866,8.475,31.734,12.827,48.665,12.827c9.169,0,18.359-1.276,27.256-3.866l10.935-3.182
	c11.235-3.269,18.888-13.721,18.615-25.419L150.92,415.102z M129.171,488.949l-10.935,3.182c-21.031,6.117-44.011,3.408-63.04-7.441
	c-4.459-2.542-9.379-3.815-14.304-3.815c-4.685,0-9.374,1.153-13.675,3.462l-2.218,1.192l-0.103-101.225l53.946-6.478
	c5.381-0.645,10.782,1.06,14.813,4.683l40.724,36.576l1.428,60.804C135.905,484.058,133.176,487.784,129.171,488.949z"/>
<path d="M104.646,422.421H59.411c-12.228,0-22.178,9.949-22.178,22.178s9.95,22.178,22.178,22.178h45.237
	c12.228,0,22.178-9.949,22.178-22.178S116.875,422.421,104.646,422.421z M104.646,450.146H59.411c-3.06,0-5.549-2.489-5.549-5.549
	c0-3.06,2.489-5.549,5.549-5.549h45.237c3.06,0,5.549,2.489,5.549,5.549C110.196,447.658,107.706,450.146,104.646,450.146z"/>
<path d="M495.428,289.181H391.982c-4.593,0-8.315,3.723-8.315,8.315v57.293c0,4.592,3.722,8.315,8.315,8.315h25.118v140.584
	c0,4.592,3.722,8.315,8.315,8.315h36.582c4.593,0,8.315-3.723,8.315-8.315v-89.966c0-4.592-3.722-8.315-8.315-8.315
	c-4.593,0-8.315,3.723-8.315,8.315v81.651h-19.953V363.103h19.953v25.12c0,4.592,3.722,8.315,8.315,8.315
	c4.593,0,8.315-3.723,8.315-8.315v-25.12h25.118c4.593,0,8.315-3.723,8.315-8.315v-57.293
	C503.743,292.903,500.021,289.181,495.428,289.181z M487.113,346.474h-25.118h-36.582h-25.118V305.81h86.818v40.664H487.113z"/>
<path d="M438.617,188.118c-2.614,3.776-1.673,8.955,2.102,11.569l6.152,4.259l-23.664,34.177c-2.614,3.776-1.673,8.955,2.102,11.569
	c1.445,1,3.093,1.479,4.726,1.479c2.636,0,5.229-1.251,6.843-3.582l23.664-34.178l6.152,4.259c1.445,1,3.093,1.479,4.726,1.479
	c2.636,0,5.229-1.251,6.843-3.582c2.614-3.776,1.673-8.955-2.102-11.569l-25.976-17.985
	C446.411,183.402,441.233,184.345,438.617,188.118z"/>
<path d="M417.773,114.81c0.401,0,0.809-0.029,1.219-0.09l7.402-1.086l6.039,41.129c0.608,4.134,4.158,7.108,8.216,7.108
	c0.401,0,0.809-0.029,1.219-0.09c4.543-0.667,7.686-4.891,7.019-9.434l-6.039-41.129l7.402-1.086
	c4.543-0.667,7.686-4.891,7.019-9.434c-0.667-4.544-4.901-7.685-9.435-7.019l-31.258,4.59c-4.543,0.667-7.686,4.891-7.019,9.434
	C410.165,111.835,413.716,114.81,417.773,114.81z"/>
<circle cx="257.951" cy="323.214" r="8.315"/>
<g>
</g>
<g>
</g>
<g>
</g>
<g>
</g>
<g>
</g>
<g>
</g>
<g>
</g>
<g>
</g>
<g>
</g>
<g>
</g>
<g>
</g>
<g>
</g>
<g>
</g>
<g>
</g>
<g>
</g>
</svg>
