<svg height="512" viewBox="0 0 512 512" width="512" xmlns="http://www.w3.org/2000/svg"><g id="filled_outline" data-name="filled outline"><rect fill="#dcdbd6" height="304" rx="16" width="464" x="24" y="152"/><path d="m56 152h400v304h-400z" fill="#6dc197"/><path d="m168 312h-80v-64l40-32 40 32z" fill="#62ae88"/><path d="m240 280h32a0 0 0 0 1 0 0v16a16 16 0 0 1 -16 16 16 16 0 0 1 -16-16v-16a0 0 0 0 1 0 0z" fill="#cdccc8"/><path d="m278.368 275.755-6.368 4.245h-32l-6.368-4.245a39.6 39.6 0 0 1 -17.632-32.947 39.6 39.6 0 0 1 24.891-36.764l.4-.162a39.6 39.6 0 0 1 29.412 0l.4.162a39.6 39.6 0 0 1 24.897 36.764 39.6 39.6 0 0 1 -17.632 32.947z" fill="#eeb436"/><path d="m296 242.81a39.489 39.489 0 0 1 -2.27 13.19h-18.42l-5.65 5.66a8.043 8.043 0 0 1 -5.66 2.34 7.085 7.085 0 0 1 -.79-.04 8 8 0 0 1 -5.87-3.52l-8.35-12.53-1.83 3.67a8.011 8.011 0 0 1 -7.16 4.42h-21.73a39.489 39.489 0 0 1 -2.27-13.19c0-.94.03-1.88.1-2.81h18.96l5.78-11.58a8.014 8.014 0 0 1 13.82-.86l10.58 15.88 1.1-1.1a8.008 8.008 0 0 1 5.66-2.34h23.9c.07.93.1 1.87.1 2.81z" fill="#eeb436"/><path d="m288 360h56v32h-56z" fill="#027e2a"/><path d="m88 360h88v32h-88z" fill="#02a437"/><path d="m176 360h112v32h-112z" fill="#029532"/><path d="m344 360h80v32h-80z" fill="#027226"/><path d="m328.99 261.026a7.993 7.993 0 0 0 2.075-.275l15.176-4.066 5.78 3.337v9.787l-5.78 3.337-15.176-4.066a8 8 0 0 0 -4.14 15.455l10.648 2.853-2.853 10.65a8 8 0 1 0 15.455 4.141l4.066-15.179 5.78-3.337 8.476 4.893v6.674l-11.109 11.11a8 8 0 1 0 11.312 11.317l7.8-7.8 7.8 7.8a8 8 0 1 0 11.314-11.314l-11.11-11.11v-6.674l8.476-4.893 5.78 3.337 4.066 15.176a8 8 0 0 0 15.455-4.141l-2.853-10.65 10.649-2.853a8 8 0 1 0 -4.14-15.455l-15.177 4.066-5.779-3.336v-9.788l5.779-3.337 15.177 4.066a8 8 0 1 0 4.14-15.455l-10.649-2.853 2.853-10.65a8 8 0 0 0 -15.455-4.14l-4.066 15.175-5.78 3.338-8.476-4.894v-6.672l11.11-11.11a8 8 0 1 0 -11.314-11.313l-7.8 7.8-7.8-7.8a8 8 0 1 0 -11.314 11.313l11.114 11.11v6.674l-8.476 4.894-5.78-3.338-4.066-15.175a8 8 0 0 0 -15.455 4.14l2.853 10.65-10.651 2.855a8 8 0 0 0 2.065 15.73zm39.031-1 8.476-4.894 8.477 4.894v9.787l-8.474 4.887-8.476-4.893z"/><path d="m472 144h-432a24.028 24.028 0 0 0 -24 24v272a24.028 24.028 0 0 0 24 24h432a24.028 24.028 0 0 0 24-24v-272a24.028 24.028 0 0 0 -24-24zm-432 16h8v123.042a23.012 23.012 0 0 0 -16 .718v-115.76a8.009 8.009 0 0 1 8-8zm8 144.971a7.03 7.03 0 1 1 -7.029-7.03 7.037 7.037 0 0 1 7.029 7.03zm-16 135.029v-113.82a23.006 23.006 0 0 0 16 .719v121.101h-8a8.009 8.009 0 0 1 -8-8zm32 8v-288h384v288zm416-8a8.009 8.009 0 0 1 -8 8h-8v-288h8a8.009 8.009 0 0 1 8 8z"/><path d="m88 320h80a8 8 0 0 0 8-8v-64a8 8 0 0 0 -3-6.247l-40-32a8 8 0 0 0 -10 0l-40 32a8 8 0 0 0 -3 6.247v64a8 8 0 0 0 8 8zm8-16v-24h64v24zm32-77.755 32 25.6v12.155h-64v-12.155z"/><path d="m424 352h-336a8 8 0 0 0 -8 8v32a8 8 0 0 0 8 8h336a8 8 0 0 0 8-8v-32a8 8 0 0 0 -8-8zm-88 16v16h-40v-16zm-240 0h72v16h-72zm88 16v-16h96v16zm232 0h-64v-16h64z"/><circle cx="256" cy="424" r="8"/><circle cx="224" cy="424" r="8"/><circle cx="288" cy="424" r="8"/><path d="m277.5 54.949a8 8 0 0 0 3.99-15.494 104.144 104.144 0 0 0 -106.706 35.138 8 8 0 1 0 12.416 10.097 88.147 88.147 0 0 1 90.3-29.741z"/><path d="m323.794 84.69a8 8 0 1 0 12.412-10.1 104.039 104.039 0 0 0 -28.706-24.49 8 8 0 1 0 -8.014 13.848 88.126 88.126 0 0 1 24.308 20.742z"/><path d="m200.78 106.029a8 8 0 0 0 11.255-1.157 56.4 56.4 0 0 1 29.456-18.931 8 8 0 0 0 -3.991-15.494 72.515 72.515 0 0 0 -37.877 24.327 8 8 0 0 0 1.157 11.255z"/><path d="m298.955 104.872a8 8 0 0 0 12.412-10.1 71.637 71.637 0 0 0 -46.882-26.04 8 8 0 0 0 -1.98 15.877 55.7 55.7 0 0 1 36.45 20.263z"/><path d="m225.614 126.206a8 8 0 0 0 11.254-1.158 23.92 23.92 0 0 1 18.627-8.871 8 8 0 0 0 0-16 39.857 39.857 0 0 0 -31.039 14.775 8 8 0 0 0 1.158 11.254z"/><path d="m281.95 110.179a8 8 0 0 0 -10.59 11.994 24.353 24.353 0 0 1 2.762 2.875 8 8 0 1 0 12.412-10.1 40.29 40.29 0 0 0 -4.584-4.769z"/><path d="m274.077 198.614-.4-.159a47.4 47.4 0 0 0 -35.351 0l-.407.163a47.6 47.6 0 0 0 -8.724 83.795l2.805 1.87v11.717a24 24 0 0 0 48 0v-11.719l2.805-1.87a47.6 47.6 0 0 0 -8.728-83.8zm-30.219 14.859.407-.163a31.472 31.472 0 0 1 23.473 0l.4.159a31.418 31.418 0 0 1 19.727 26.531h-15.865a8 8 0 0 0 -5.657 2.343l-1.1 1.1-10.587-15.881a8 8 0 0 0 -13.811.86l-5.789 11.578h-10.921a31.416 31.416 0 0 1 19.723-26.527zm20.142 82.527a8 8 0 0 1 -16 0v-8h16zm9.93-26.9-4.352 2.9h-27.156l-4.352-2.9a31.555 31.555 0 0 1 -11.194-13.1h13.124a8 8 0 0 0 7.155-4.422l1.835-3.67 8.354 12.53a8 8 0 0 0 5.868 3.523c.264.026.526.039.789.039a8 8 0 0 0 5.656-2.343l5.656-5.657h9.811a31.555 31.555 0 0 1 -11.194 13.1z"/></g></svg>