<svg id="Capa_1" enable-background="new 0 0 512 512" height="512" viewBox="0 0 512 512" width="512" xmlns="http://www.w3.org/2000/svg"><g><g><path d="m400.199 220.783h56.045c11.487 0 20.799-9.312 20.799-20.799 0-11.487-9.312-20.799-20.799-20.799h-56.045z" fill="#968d97"/><path d="m456.244 202.783h-56.045v18h56.045c11.487 0 20.799-9.312 20.799-20.799 0-3.229-.757-6.273-2.07-9-3.358 6.974-10.471 11.799-18.729 11.799z" fill="#878088"/><path d="m335.069 183.881-20.516 32.207h85.646v-32.207z" fill="#f0f3f5"/><path d="m314.553 216.088h85.646v-18h-74.18z" fill="#e0e9ef"/><path d="m94.21 393.923c-2.994-24.663-9.308-69.027-19.688-69.027-11.556 0-17.133 51.61-19.666 76.651 11.121-3.241 25.489-5.746 39.354-7.624z" fill="#c7c2c9"/><path d="m94.21 434.973c-2.994 24.663-9.308 69.027-19.688 69.027-11.556 0-17.133-51.61-19.666-76.651 11.121 3.241 25.489 5.745 39.354 7.624z" fill="#c7c2c9"/><path d="m142.116 389.208s-107.158 6.294-107.158 25.24 107.158 25.24 107.158 25.24z" fill="#968d97"/><path d="m56.883 445.922c10.16 2.787 22.681 5.004 34.976 6.727.937-6.368 1.718-12.463 2.351-17.676-13.865-1.878-28.234-4.383-39.354-7.624.532 5.259 1.199 11.693 2.027 18.573z" fill="#b0aab3"/><path d="m54.856 401.547c11.12-3.241 25.489-5.746 39.354-7.624-.633-5.213-1.415-11.307-2.351-17.676-12.295 1.723-24.815 3.939-34.976 6.726-.828 6.88-1.495 13.314-2.027 18.574z" fill="#b0aab3"/><path d="m34.957 414.448c0 18.946 107.158 25.24 107.158 25.24v-18s-72.185-4.243-98.058-16.24c-5.647 2.619-9.1 5.605-9.1 9z" fill="#878088"/><path d="m142.116 248.672v240.356c0 12.364 14.157 19.38 23.996 11.892l51.06-38.862c10.634-8.094 17.642-20.06 19.498-33.295l25.253-180.091z" fill="#c7c2c9"/><path d="m261.922 248.672h-119.806v18h117.282z" fill="#b0aab3"/><path d="m100.565 216.088h213.988c0 17.996-14.589 32.584-32.584 32.584h-148.82c-17.996 0-32.584-14.588-32.584-32.584z" fill="#d06161"/><path d="m285.94 230.672h-156.762c-11.945 0-22.461-5.796-28.608-14.584h-.005c0 17.996 14.589 32.584 32.584 32.584h148.82c17.996 0 32.584-14.588 32.584-32.584h-.005c-6.148 8.788-16.663 14.584-28.608 14.584z" fill="#bb5959"/><path d="m60.13 67.103v67.551c0 31.975 14.962 62.108 40.435 81.435h213.988l37.722-59.219c13.814-21.686 12.399-49.738-3.528-69.924-22.874-28.992-55.614-48.558-91.982-54.971l-131.322-23.157c-17.412-3.07-35.222 2.612-47.639 15.199-11.325 11.481-17.674 26.959-17.674 43.086z" fill="#968d97"/><path d="m82.204 198.088c5.285 6.678 11.43 12.742 18.361 18h213.988l11.466-18z" fill="#878088"/></g><g><path d="m456.636 171.52h-56.155c-3.156 0-5.853 1.947-6.966 4.705h-44.595l9.881-15.513c15.54-24.396 13.943-56.044-3.973-78.752-17.349-21.988-40.297-39.025-66.366-49.267-3.863-1.516-8.225.384-9.742 4.246-1.518 3.863.383 8.225 4.246 9.743 23.592 9.27 44.362 24.688 60.062 44.588 13.962 17.696 15.206 42.358 3.096 61.369l-35.58 55.857h-116.641c-4.15 0-7.515 3.364-7.515 7.515s3.365 7.515 7.515 7.515h112.102c-3.203 10.199-12.743 17.618-23.985 17.618h-149.112c-11.242 0-20.783-7.42-23.985-17.618h54.921c4.15 0 7.515-3.364 7.515-7.515s-3.365-7.515-7.515-7.515h-61.001c-22.327-17.897-35.582-45.4-35.582-74.079v-67.684c0-14.273 5.521-27.73 15.544-37.892 10.707-10.853 26.061-15.749 41.077-13.106l131.579 23.202c4.082.725 7.985-2.009 8.705-6.095.721-4.087-2.008-7.985-6.096-8.705l-131.578-23.203c-19.876-3.506-40.211 2.981-54.387 17.352-12.815 12.993-19.873 30.197-19.873 48.447v67.683c0 32.995 15.152 64.646 40.698 85.385 1.917 20.374 19.112 36.371 39.979 36.371h1.47v126.279c-7.471.558-20.054 1.622-33.971 3.325-1.986-15.2-4.049-27.397-6.277-37.112-3.71-16.178-8.696-31.149-19.963-31.149-13.624 0-20.485 19.966-26.666 78.586-14.219 4.876-20.491 10.838-20.491 18.656 0 7.817 6.272 13.779 20.491 18.655 6.18 58.622 13.041 78.588 26.665 78.588 11.267 0 16.253-14.971 19.963-31.15 2.227-9.713 4.291-21.911 6.277-37.111 13.917 1.703 26.5 2.768 33.971 3.326v42.419c0 8.607 4.791 16.328 12.503 20.15 7.671 3.807 16.735 2.977 23.606-2.255l51.16-38.937c12.313-9.373 20.277-22.973 22.426-38.296l5.558-39.633c.576-4.111-2.288-7.91-6.398-8.486-4.106-.567-7.909 2.289-8.485 6.398l-5.558 39.633c-1.595 11.374-7.506 21.468-16.645 28.425l-51.16 38.937c-4.626 3.811-12.209.054-11.977-5.936v-233.312h103.885l-14.381 102.56c-1.491 9.618 13.638 11.789 14.883 2.086l14.674-104.646h13.552c19.577 0 35.917-14.083 39.447-32.648h72.048c1.113 2.757 3.81 4.704 6.966 4.704h56.155c15.635 0 28.354-12.719 28.354-28.354s-12.72-28.354-28.355-28.354zm-389.159 188.336c2.612-14.633 5.079-21.675 6.681-25.002 2.468 5.009 6.807 18.25 11.356 52.948-8.484 1.276-15.952 2.618-22.45 4.057 1.02-9.286 2.492-21.242 4.413-32.003zm6.68 134.805c-1.601-3.327-4.069-10.368-6.681-25.001-1.921-10.761-3.393-22.718-4.414-32.003 6.499 1.439 13.967 2.781 22.45 4.057-4.548 34.698-8.887 47.938-11.355 52.947zm19.458-66.959c-17.554-2.423-29.2-4.96-36.919-7.197-.017-.005-.034-.01-.051-.015-8.473-2.46-12.197-4.555-13.765-5.731 2.997-2.248 13.829-7.85 50.736-12.943 16.046-2.215 31.696-3.59 40.763-4.286v34.458c-9.068-.697-24.719-2.072-40.764-4.286zm299.352-236.448v17.241h-64.603l10.982-17.241zm63.669 21.945h-48.64v-26.65h48.64c7.347 0 13.325 5.977 13.325 13.325s-5.978 13.325-13.325 13.325z"/><path d="m222.71 120.205v21.211c0 4.151 3.364 7.515 7.515 7.515 4.15 0 7.515-3.364 7.515-7.515v-21.211c0-4.151-3.365-7.515-7.515-7.515-4.151.001-7.515 3.365-7.515 7.515z"/><path d="m258.485 120.205v21.211c0 4.151 3.365 7.515 7.515 7.515s7.515-3.364 7.515-7.515v-21.211c0-4.151-3.365-7.515-7.515-7.515s-7.515 3.365-7.515 7.515z"/><path d="m309.29 141.417v-21.211c0-4.151-3.364-7.515-7.515-7.515-4.15 0-7.515 3.364-7.515 7.515v21.211c0 4.151 3.365 7.515 7.515 7.515 4.151-.001 7.515-3.365 7.515-7.515z"/></g></g></svg>