<svg id="Capa_1" enable-background="new 0 0 512 512" height="512" viewBox="0 0 512 512" width="512" xmlns="http://www.w3.org/2000/svg"><g><g><path d="m291.952 68.871c-170.081-12.725-161.543-13.287-164.965-11.738-3.556.922-6.052 4.277-5.761 8.068l12.385 161.012c.312 4.055 3.699 7.138 7.699 7.138 4.527 0 8.06-3.848 7.716-8.324l-9.372-121.836c-.498-6.48 7.334-10.082 11.929-5.487l58.653 58.653c2.993 2.993 7.91 3.297 10.991.395 3.189-3.003 3.246-8.023.171-11.098l-58.883-58.883c-4.595-4.595-.993-12.428 5.487-11.929l122.764 9.443c4.249.328 7.973-2.852 8.301-7.115.327-4.255-2.858-7.972-7.115-8.299z" fill="#dcdcee"/><path d="m311.119 264.898h64.033v103.446h-64.033z" fill="#6d5f6c"/><g><path d="m315.984 309.435-14.486-14.486 17.945-42.69 39.57-17.219 15.683 15.683c16.213 16.213 16.213 42.499 0 58.712-16.213 16.213-42.499 16.213-58.712 0z" fill="#7b6c79"/><path d="m359.012 235.041-37.157-37.157-58.712 58.712 38.355 38.355c9.886-7.166 19.348-15.182 28.257-24.092 11.138-11.14 20.886-23.151 29.257-35.818z" fill="#6d5f6c"/><circle cx="128.892" cy="64.081" fill="#f45d5d" r="16.606"/><path d="m93.155 310.17c13.319 3.275 26.871 5.36 40.486 6.256 64.693 4.257 133.384-30.573 177.478-84.845 47.894-58.95 49.196-144.449 37.205-180.681l-125.998 106.615z" fill="#ecebfc"/><path d="m374.982 28.343-26.658 22.557c19.145 136.835-80.905 256.626-214.681 265.498 156.231 10.28 278.617-132.884 241.339-288.055z" fill="#dcdcee"/><path d="m69.675 310.165c-6.485-6.485-6.485-17 0-23.485l259.07-259.07c6.485-6.485 17-6.485 23.485 0 6.485 6.485 6.485 17 0 23.485l-259.07 259.07c-6.485 6.485-17 6.485-23.485 0z" fill="#7b6c79"/><path d="m374.977 4.864c-6.485-6.485-17-6.485-23.485 0l-26.589 26.589c6.485-6.485 16.999-6.484 23.484.001 6.485 6.485 6.485 17 0 23.485l26.59-26.59c6.485-6.485 6.485-17 0-23.485z" fill="#6d5f6c"/></g><g><path d="m383.156 351.918-40.021 18.168-40.021-18.168-44.908 29.938c-1.947 1.298-3.117 3.484-3.117 5.824v103.826h48.025l40.021-16.636 40.021 16.636h48.025v-103.826c0-2.34-1.17-4.526-3.117-5.824z" fill="#dcdcee"/><path d="m303.114 351.918h80.041v139.589h-80.041z" fill="#ecebfc"/><path d="m412.144 512h-165.847c-3.985 0-7.215-3.23-7.215-7.215v-17.586c0-3.985 3.23-7.215 7.215-7.215h165.847c3.985 0 7.215 3.23 7.215 7.215v17.586c0 3.985-3.23 7.215-7.215 7.215z" fill="#7b6c79"/><path d="m439.973 479.983h-30.922c3.985 0 7.215 3.23 7.215 7.215v17.586c0 3.985-3.23 7.215-7.215 7.215h30.922c3.985 0 7.215-3.23 7.215-7.215v-17.586c.001-3.984-3.23-7.215-7.215-7.215z" fill="#6d5f6c"/></g><path d="m349.254 276.264c-4.285 0-7.725 3.478-7.725 7.73 0 4.604 3.796 7.73 7.73 7.73 4.105 0 7.73-3.331 7.73-7.73.001-4.146-3.368-7.73-7.735-7.73z" fill="#ecebfc"/></g></g></svg>