<svg id="Capa_1" enable-background="new 0 0 512 512" height="512" viewBox="0 0 512 512" width="512" xmlns="http://www.w3.org/2000/svg"><g><g><path d="m419.712 43.556s14.9 5.26 19.692 7.434c5.613 2.546 9.238 8.135 10.319 14.203 17.04 95.637 61.149 354.419 61.149 354.419.629 3.646-1.602 7.176-5.166 8.172l-43.688 12.207c-3.971 1.11-8.063-1.331-8.974-5.352l-51.344-226.639-12.361-90.392z" fill="#7a6c79"/><path d="m397.688 477.867-17.819-221.867 10.04-222.561-83.25-28.263h-73.596l31.645 222.824-31.645 92-17.616 79.656 17.616 91.74c0 11.379 9.225 20.604 20.604 20.604h33.924c31.263 0 62.45-3.045 93.119-9.092.897-.177 17.764-14.681 16.978-25.041z" fill="#7a6c79"/><path d="m396.539 256 23.172-212.444-29.801-10.117-24.203 221.895c-.048.444-.054.891-.018 1.335l5.232 63.331 16.455 16-13.811 16 11.305 136.85c.396 5.209-1.193 10.154-4.162 14.049.898-.177 1.796-.347 2.693-.529l13.545-2.751c10.182-2.068 17.231-11.392 16.444-21.752l-9.56-125.867-16.455-16 14.025-16z" fill="#685f67"/><path d="m172.972 16.151-80.724 27.405-8.985 100.557 26.922 63.888 5.235 47.999-4.537 64 12.698 15.968-14.966 16.033-8.818 124.397c-.778 10.973 7.201 20.621 18.125 21.917 28.485 3.379 57.246 3.685 85.786.915.019-.002.038-.004.057-.005 3.208-.312 5.664-2.999 5.739-6.222l5.943-255.802z" fill="#7a6c79"/><path d="m215.447 237.201-13.083 52.522c-.138.553-.208 1.122-.208 1.692v199.981c0 2.775.556 5.418 1.551 7.834 1.889-.183 3.778-.38 5.665-.59l20.025-2.232c2.086-.232 3.664-1.996 3.664-4.095v-172.313l18.434-47.1 20.485-267.724h-66.68l-2.976 1.01z" fill="#685f67"/><path d="m175.705 163.693 8.178-39.916c.671-3.275-1.068-6.568-4.151-7.861l-26.871-11.265c-3.445-1.444-5.217-5.28-4.083-8.839l21.794-74.62c2.284-7.172 8.297-12.528 15.685-13.97l34.965-6.514h2.757l24.895 266.582-33.427-30.089-39.022-68.631c-.805-1.49-1.06-3.217-.72-4.877z" fill="#f0fcff"/><path d="m248.875 267.289-11.148-119.371-22.28 89.283 29.105 51.189 2.019-.171 2.508-5.902z" fill="#d7ecfe"/><path d="m373.564 352h-22.132c-8.534 0-15.453-6.918-15.453-15.453v-9.547c0-3.866 3.134-7 7-7h27.941l16.455 16z" fill="#685f67"/><path d="m108.602 352h52.247c8.534 0 15.453-6.918 15.453-15.453v-9.547c0-3.866-3.134-7-7-7h-58.42z" fill="#685f67"/><g><path d="m373.564 352h30.266l-2.43-32h-30.479z" fill="#564e55"/></g><path d="m329.22 163.44-8.127-39.664c-.671-3.275 1.068-6.568 4.151-7.861l27.069-11.348c3.361-1.409 5.143-5.105 4.151-8.612l-16.097-74.064c-2.134-7.55-8.371-13.233-16.087-14.657l-35.147-6.487-4.821-.04-39.058 243.173-12.191 76.12 95.21-151.294c.979-1.569 1.319-3.454.947-5.266z" fill="#f0fcff"/><path d="m225.915 0h38.183c9.974 0 17.439 9.149 15.438 18.921l-46.325 147.096-22.868-147.85c-1.478-9.55 5.909-18.167 15.572-18.167z" fill="#bedaff"/><path d="m284.312 0h-30.906c9.974 0 17.439 9.149 15.438 18.921l-35.634 147.096 12.043 77.863 54.496-224.96c2.003-9.771-5.462-18.92-15.437-18.92z" fill="#9dcffd"/><path d="m63.888 60.004c-.749 1.643-1.291 3.395-1.611 5.188-17.04 95.637-61.148 354.419-61.148 354.419-.629 3.646 1.602 7.176 5.166 8.172l25.18 7.036 62.405-226.819z" fill="#7a6c79"/><path d="m92.205 43.556s-14.816 5.26-19.608 7.434c-3.908 1.773-6.849 5.022-8.642 8.879l17.239 148.435c.09.774.05 1.558-.119 2.32l-49.6 224.196 18.507 5.171c3.971 1.11 8.063-1.331 8.974-5.352l51.241-226.639z" fill="#685f67"/><g fill="#bedaff"><path d="m267.109 344.275c-4.153 0-7.7 3.405-7.7 7.728 0 4.753 3.976 7.726 7.726 7.726 4.299 0 7.726-3.484 7.726-7.726.001-4.25-3.416-7.728-7.752-7.728z"/><path d="m267.137 392.273c-4.29 0-7.728 3.51-7.728 7.727 0 4.218 3.436 7.726 7.726 7.726 4.149 0 7.726-3.332 7.726-7.726.001-4.194-3.377-7.727-7.724-7.727z"/></g></g></g></svg>