<?xml version="1.0" encoding="UTF-8"?>
<svg xmlns="http://www.w3.org/2000/svg" xmlns:xlink="http://www.w3.org/1999/xlink" version="1.1" id="Capa_1" x="0px" y="0px" viewBox="0 0 512 512" style="enable-background:new 0 0 512 512;" xml:space="preserve" width="512" height="512">
<g>
	<g>
		<path style="fill:#E8E8E8;" d="M137.689,129.339h-20.612l-4.982-23.239V56.105c0-2.209,1.791-4,4-4h25.721c2.209,0,4,1.791,4,4&#10;&#9;&#9;&#9;V106.1L137.689,129.339z"/>
		<path style="fill:#E8E8E8;" d="M208.277,129.339h-26.442l-3.02-23.239V72.47c0-2.209,1.791-4,4-4h25.721c2.209,0,4,1.791,4,4&#10;&#9;&#9;&#9;v33.63L208.277,129.339z"/>
		<rect x="178.82" y="106.1" style="fill:#DBDBDB;" width="33.72" height="23.24"/>
		<rect x="112.09" y="106.1" style="fill:#DBDBDB;" width="33.73" height="23.24"/>
		<path style="fill:#F8F7F7;" d="M321.312,210.556H82.253l-0.471-18.995l10.571-58.243c0.863-4.756,5.005-8.214,9.839-8.214h143.072&#10;&#9;&#9;&#9;l20.689,1.609c15.641,0,29.719,9.486,35.594,23.982L321.312,210.556z"/>
		<path style="fill:#E8E8E8;" d="M330.09,210.56l-128.543,9.217L78.33,210.56l4.88-28.807h202.485c3.883,0,6.532-3.931,5.073-7.53&#10;&#9;&#9;&#9;L275.18,149.09c-5.88-14.5-19.95-23.99-35.6-23.99h30c15.65,0,29.72,9.49,35.6,23.99l1.176,2.902l-1.408,16.372l14.245,15.305&#10;&#9;&#9;&#9;L330.09,210.56z"/>
		<path style="fill:#B5DBFD;" d="M207.03,151.99c-0.55,0-1,0.44-1,1c0,8.47,3.43,16.14,8.99,21.69c5.55,5.56,13.22,8.99,21.7,8.99&#10;&#9;&#9;&#9;h71.002l-12.581-31.68H207.03z"/>
		<polygon style="fill:#8DCAFC;" points="319.19,183.67 289.19,183.67 276.36,151.99 306.36,151.99 &#9;&#9;"/>
		<path style="fill:#796E79;" d="M464.218,335.013H20.789l15.535-49.637l-3.968-12.075l7.938-42.351&#10;&#9;&#9;&#9;c2.216-11.825,12.541-20.394,24.572-20.394h306.61l22.498,3.348c10.337,0,19.642,6.269,23.525,15.849L464.218,335.013z"/>
		<path style="fill:#665E67;" d="M464.22,335.01H20.79l11.56-61.71h252.84c2.702,0,5.294-1.073,7.204-2.984l25.646-25.646&#10;&#9;&#9;&#9;c6.68-6.67,15.55-10.35,24.99-10.35h41.834c4.084,0,6.87-4.135,5.336-7.92v0c-3.88-9.58-13.19-15.84-23.52-15.84h30&#10;&#9;&#9;&#9;c10.33,0,19.64,6.26,23.52,15.84l3.21,7.92L464.22,335.01z"/>
		<path style="fill:#796E79;" d="M58.065,398.6L47.9,385.823c-4.606-4.042-14.936-10.159-14.936-10.159&#10;&#9;&#9;&#9;c-14.79-18.126-23.519-40.64-24.624-64.325l-0.695-14.894c-0.08-1.71,1.285-3.14,2.997-3.14H291.34&#10;&#9;&#9;&#9;c4.068,0,7.97-1.616,10.847-4.493l29.995-29.995c2.877-2.877,6.779-4.493,10.847-4.493H478.5l15.398,3.145&#10;&#9;&#9;&#9;c2.468,0,4.347,2.213,3.947,4.648l-1.852,11.27c-7.864,47.868-37.93,88.5-77.567,116.466l-21.173,29.829l-291.957-7.104&#10;&#9;&#9;&#9;L58.065,398.6z"/>
		<path style="fill:#665E67;" d="M503.74,258.97l-1.86,11.27c-5.82,35.45-22,68.07-46.11,93.96c0-0.04-0.12-0.03-0.34,0.03&#10;&#9;&#9;&#9;c0.09,0.01,0.18,0.03,0.27,0.05c-8.42,9.04-17.81,17.27-28.07,24.5l-30.38,30.9l-291.95-7.1L58.07,398.6l-12.46-9.82&#10;&#9;&#9;&#9;c-4.61-4.04-8.835-8.426-12.645-13.116c8.24-6.51,19.385-12.764,36.665-12.764c22.83,0,34.94,10.91,43.78,18.88&#10;&#9;&#9;&#9;c6.95,6.26,10.11,9.12,18.35,9.12c8.23,0,11.4-2.86,18.34-9.12c8.84-7.97,20.95-18.88,43.78-18.88s34.95,10.91,43.79,18.88&#10;&#9;&#9;&#9;c6.94,6.26,10.11,9.12,18.34,9.12s11.4-2.86,18.34-9.12c8.84-7.97,20.95-18.88,43.78-18.88s34.94,10.91,43.78,18.88&#10;&#9;&#9;&#9;c6.94,6.26,10.11,9.12,18.34,9.12c8.24,0,11.4-2.86,18.34-9.12c4.124-3.716,8.956-8.068,15.252-11.655&#10;&#9;&#9;&#9;c17.048-9.713,31.578-23.403,41.199-40.504c10.265-18.247,17.383-38.312,20.839-59.381l2.62-15.92h21.29&#10;&#9;&#9;&#9;C502.26,254.32,504.14,256.54,503.74,258.97z"/>
		<g>
			<circle style="fill:#F8F7F7;" cx="318.453" cy="338.927" r="14.965"/>
			<circle style="fill:#F8F7F7;" cx="244.539" cy="338.927" r="14.965"/>
			<circle style="fill:#F8F7F7;" cx="170.625" cy="338.927" r="14.965"/>
			<circle style="fill:#F8F7F7;" cx="96.712" cy="338.927" r="14.965"/>
		</g>
		<path style="fill:#7BB1FF;" d="M10.372,453.063c0,1.743,1.484,3.112,3.223,2.996c27.881-1.866,26.083-29.163,56.034-29.163&#10;&#9;&#9;&#9;c31.064,0,31.064,28,62.129,28c31.063,0,31.063-28,62.126-28c31.062,0,31.062,28,62.124,28c31.061,0,31.061-28,62.121-28&#10;&#9;&#9;&#9;c31.062,0,31.062,28,62.124,28c31.062,0,31.062-28,62.125-28c29.948,0,24.608,24.615,52.486,26.481&#10;&#9;&#9;&#9;c1.739,0.116,3.223-1.253,3.223-2.996l6.413-15.48v-22.048c0-1.596-1.23-2.944-2.823-3.037&#10;&#9;&#9;&#9;c-28.268-1.642-29.209-27.92-59.299-27.92c-31.062,0-31.062,28-62.125,28c-31.062,0-31.062-28-62.124-28&#10;&#9;&#9;&#9;c-31.061,0-31.061,28-62.121,28c-31.062,0-31.062-28-62.124-28c-31.063,0-31.063,28-62.126,28c-31.065,0-31.065-28-62.129-28&#10;&#9;&#9;&#9;c-30.094,0-31.034,26.277-59.306,27.92c-1.593,0.093-2.823,1.441-2.823,3.037V434.9L10.372,453.063z"/>
		<path style="fill:#62A5F4;" d="M504.5,434.9v21.89c0,1.75-1.48,3.12-3.22,3c-27.88-1.87-28.95-27.89-58.9-27.89&#10;&#9;&#9;&#9;c-31.06,0-31.06,28-62.13,28c-31.06,0-31.06-28-62.12-28s-31.06,28-62.12,28s-31.06-28-62.13-28c-31.06,0-31.06,28-62.12,28&#10;&#9;&#9;&#9;c-31.07,0-31.07-28-62.13-28c-29.95,0-31.03,26.02-58.91,27.89c-1.74,0.12-3.22-1.25-3.22-3V434.9c31.06,0,31.06-28,62.13-28&#10;&#9;&#9;&#9;c31.06,0,31.06,28,62.13,28c31.06,0,31.06-28,62.12-28c31.07,0,31.07,28,62.13,28s31.06-28,62.12-28s31.06,28,62.12,28&#10;&#9;&#9;&#9;c31.07,0,31.07-28,62.13-28S473.44,434.9,504.5,434.9z"/>
	</g>
	<g>
		<path style="fill:none;stroke:#000000;stroke-width:15;stroke-linecap:round;stroke-linejoin:round;stroke-miterlimit:10;" d="&#10;&#9;&#9;&#9;M112.095,123.339V56.105c0-2.209,1.791-4,4-4h25.721c2.209,0,4,1.791,4,4v67.234"/>
		<path style="fill:none;stroke:#000000;stroke-width:15;stroke-linecap:round;stroke-linejoin:round;stroke-miterlimit:10;" d="&#10;&#9;&#9;&#9;M178.815,123.339V72.47c0-2.209,1.791-4,4-4h25.721c2.209,0,4,1.791,4,4v50.869"/>
		<path style="fill:none;stroke:#000000;stroke-width:15;stroke-linecap:round;stroke-linejoin:round;stroke-miterlimit:10;" d="&#10;&#9;&#9;&#9;M89.56,148.67l2.79-15.35c0.87-4.76,5.01-8.22,9.84-8.22h167.39c15.65,0,29.72,9.49,35.6,23.99l24.02,59.29"/>
		
			<line style="fill:none;stroke:#000000;stroke-width:15;stroke-linecap:round;stroke-linejoin:round;stroke-miterlimit:10;" x1="83.21" y1="183.67" x2="78.7" y2="208.53"/>
		
			<line style="fill:none;stroke:#000000;stroke-width:15;stroke-linecap:round;stroke-linejoin:round;stroke-miterlimit:10;" x1="318" y1="183.67" x2="284.56" y2="183.67"/>
		<path style="fill:none;stroke:#000000;stroke-width:15;stroke-linecap:round;stroke-linejoin:round;stroke-miterlimit:10;" d="&#10;&#9;&#9;&#9;M249.56,183.67h-12.84c-8.48,0-16.15-3.43-21.7-8.99c-5.56-5.55-8.99-13.22-8.99-21.69c0-0.56,0.45-1,1-1h97.64"/>
		<path style="fill:none;stroke:#000000;stroke-width:15;stroke-linecap:round;stroke-linejoin:round;stroke-miterlimit:10;" d="&#10;&#9;&#9;&#9;M28.777,292.398l11.517-61.448c2.216-11.825,12.541-20.394,24.572-20.394h331.809c10.337,0,19.642,6.269,23.525,15.849&#10;&#9;&#9;&#9;l10.753,26.531"/>
		<path style="fill:none;stroke:#000000;stroke-width:15;stroke-linecap:round;stroke-linejoin:round;stroke-miterlimit:10;" d="&#10;&#9;&#9;&#9;M478.27,334.37c-10.71,17.78-24.48,33.69-40.8,46.96"/>
		<path style="fill:none;stroke:#000000;stroke-width:15;stroke-linecap:round;stroke-linejoin:round;stroke-miterlimit:10;" d="&#10;&#9;&#9;&#9;M45.61,388.78C23.19,369.1,9.73,341.15,8.34,311.34l-0.69-14.9c-0.08-1.71,1.28-3.14,2.99-3.14h95.19"/>
		<path style="fill:none;stroke:#000000;stroke-width:15;stroke-linecap:round;stroke-linejoin:round;stroke-miterlimit:10;" d="&#10;&#9;&#9;&#9;M140.83,293.3h150.51c4.07,0,7.97-1.61,10.85-4.49l29.99-29.99c2.88-2.88,6.78-4.5,10.85-4.5h156.76c2.47,0,4.35,2.22,3.95,4.65&#10;&#9;&#9;&#9;l-1.86,11.27c-1.83,11.16-4.69,22.04-8.5,32.51"/>
		<g>
			
				<line style="fill:none;stroke:#000000;stroke-width:15;stroke-linecap:round;stroke-linejoin:round;stroke-miterlimit:10;" x1="123.335" y1="261.931" x2="123.335" y2="246.119"/>
			
				<line style="fill:none;stroke:#000000;stroke-width:15;stroke-linecap:round;stroke-linejoin:round;stroke-miterlimit:10;" x1="72.335" y1="261.931" x2="72.335" y2="246.119"/>
			
				<line style="fill:none;stroke:#000000;stroke-width:15;stroke-linecap:round;stroke-linejoin:round;stroke-miterlimit:10;" x1="174.335" y1="261.931" x2="174.335" y2="246.119"/>
			
				<line style="fill:none;stroke:#000000;stroke-width:15;stroke-linecap:round;stroke-linejoin:round;stroke-miterlimit:10;" x1="225.335" y1="261.931" x2="225.335" y2="246.119"/>
			
				<line style="fill:none;stroke:#000000;stroke-width:15;stroke-linecap:round;stroke-linejoin:round;stroke-miterlimit:10;" x1="276.335" y1="261.931" x2="276.335" y2="246.119"/>
		</g>
		<path style="fill:none;stroke:#000000;stroke-width:15;stroke-linecap:round;stroke-linejoin:round;stroke-miterlimit:10;" d="&#10;&#9;&#9;&#9;M7.5,409.895c31.064,0,31.064-28,62.129-28s31.064,28,62.129,28c31.063,0,31.063-28,62.126-28c31.062,0,31.062,28,62.124,28&#10;&#9;&#9;&#9;c31.061,0,31.061-28,62.121-28c31.062,0,31.062,28,62.124,28c31.062,0,31.062-28,62.125-28c31.061,0,31.061,28,62.122,28"/>
		<path style="fill:none;stroke:#000000;stroke-width:15;stroke-linecap:round;stroke-linejoin:round;stroke-miterlimit:10;" d="&#10;&#9;&#9;&#9;M504.5,459.895c-31.061,0-31.061-28-62.122-28c-31.062,0-31.062,28-62.125,28c-31.062,0-31.062-28-62.124-28&#10;&#9;&#9;&#9;c-31.061,0-31.061,28-62.121,28c-31.062,0-31.062-28-62.124-28c-31.063,0-31.063,28-62.126,28c-31.065,0-31.065-28-62.129-28&#10;&#9;&#9;&#9;s-31.064,28-62.129,28"/>
		<g>
			<g>
				
					<line style="fill:none;stroke:#000000;stroke-width:15;stroke-linecap:round;stroke-linejoin:round;stroke-miterlimit:10;" x1="397.253" y1="318.646" x2="397.253" y2="360.218"/>
				<path style="fill:none;stroke:#000000;stroke-width:15;stroke-linecap:round;stroke-linejoin:round;stroke-miterlimit:10;" d="&#10;&#9;&#9;&#9;&#9;&#9;M374.937,346.091c7.771,20.566,36.863,20.566,44.633,0"/>
				
					<line style="fill:none;stroke:#000000;stroke-width:15;stroke-linecap:round;stroke-linejoin:round;stroke-miterlimit:10;" x1="384.5" y1="317.645" x2="410.007" y2="317.645"/>
			</g>
			
				<circle style="fill:none;stroke:#000000;stroke-width:15;stroke-linecap:round;stroke-linejoin:round;stroke-miterlimit:10;" cx="318.453" cy="338.927" r="14.965"/>
			
				<circle style="fill:none;stroke:#000000;stroke-width:15;stroke-linecap:round;stroke-linejoin:round;stroke-miterlimit:10;" cx="244.539" cy="338.927" r="14.965"/>
			
				<circle style="fill:none;stroke:#000000;stroke-width:15;stroke-linecap:round;stroke-linejoin:round;stroke-miterlimit:10;" cx="170.625" cy="338.927" r="14.965"/>
			
				<circle style="fill:none;stroke:#000000;stroke-width:15;stroke-linecap:round;stroke-linejoin:round;stroke-miterlimit:10;" cx="96.712" cy="338.927" r="14.965"/>
		</g>
		<g>
			
				<line style="fill:none;stroke:#000000;stroke-width:15;stroke-linecap:round;stroke-linejoin:round;stroke-miterlimit:10;" x1="127.997" y1="175.736" x2="127.997" y2="159.924"/>
			
				<line style="fill:none;stroke:#000000;stroke-width:15;stroke-linecap:round;stroke-linejoin:round;stroke-miterlimit:10;" x1="166.997" y1="175.736" x2="166.997" y2="159.924"/>
		</g>
	</g>
</g>















</svg>
